<?xml version="1.0" encoding="UTF-8" ?>
 <svg viewBox="-0.7391143339488773 -3.973194885292764  0.29569904167439187 0.34880369889261775" xmlns="http://www.w3.org/2000/svg" version="1.0" overflow="visible">
  <defs>
   <g id="ID__#42_Model_Space"/>
   <g id="ID__#42_Paper_Space0"/>
   <g id="ID__#42_Paper_Space"/>
  </defs>
  <g id="draft" transform="matrix(1 0 0 -1 0 0)" stroke-width="5.039721436807565E-5">
   <g id="Layer_#32_1" color="rgb(255,0,255)" stroke="currentColor" fill="none" stroke-width="0.00005039721436807565"/>
   <g id="Poliline" color="rgb(0,0,0)" stroke="currentColor" fill="none" stroke-width="0.00005039721436807565">
    <path d="M -0.5490824519272337 3.849728200751574 L -0.5403201072903255 3.844938638281455 L -0.5325273469626346 3.838690429681435 L -0.5258078165179044 3.831296952605887 L -0.5201812646264843 3.823038663591397 L -0.5156334938631817 3.814139382567807 L -0.5121507491781961 3.80477142003933 L -0.5097403793884343 3.795071354821004 L -0.5084445458276834 3.785161231449965 L -0.5083503343094887 3.775168212434294 L -0.5008649576906335 3.770428543505476 L -0.4910378760601662 3.771535051999698 L -0.4830352335845989 3.777339012702725 L -0.4801640867734199 3.786606264675892 L -0.4802069688798927 3.796601987705388 L -0.4813048800871665 3.806535747295729 L -0.4835725720634683 3.816269746408643 L -0.4870606866421028 3.825634794360597 L -0.4917290915203552 3.834469610560754 L -0.4974520216605649 3.842661922259475 L -0.504052214437829 3.850168302844819 L -0.5113427306015162 3.857008216123182 L -0.5192182597396542 3.863159977697241 L -0.5279359737539889 3.868050471805764 L -0.5304164354156456 3.869396170435752 " id="ID_59E"/>
    <path d="M -0.6080824547295834 3.950728205548816 L -0.6180359415824448 3.951653835732377 L -0.6280325134119824 3.951665730011249 L -0.6379890295703285 3.950771540518946 L -0.6478214265680676 3.948967862030213 L -0.6574386436279803 3.946242092192768 L -0.6667376803459382 3.942575837212176 L -0.6755984482702724 3.93795109832634 L -0.6838821356417056 3.932359392702114 L -0.6894164429677403 3.927728204456375 " id="ID_59F"/>
    <path d="M -0.606416439025452 3.96872820640377 L -0.6079891039561148 3.959008745344062 L -0.6080824547295834 3.950728205548816 L -0.6105919294202593 3.941118491322793 L -0.6164876504238057 3.933098035152692 L -0.6242808284092183 3.926857674329362 L -0.6329081339285763 3.921809882230714 L -0.6418574851243184 3.917352499102573 L -0.650810598332826 3.912896060623827 L -0.6597656558173748 3.91507096077778 L -0.6687224500453102 3.919517903614307 L -0.6778089397147982 3.923690427709876 L -0.6872023884961945 3.927105800956233 L -0.6894164429677403 3.927728204456375 L -0.6940547065509204 3.927916384302131 L -0.7018127967755837 3.933950812623589 L -0.7080824594793285 3.941728205121339 " id="ID_5A0"/>
    <path d="M -0.7080824594793285 3.941728205121338 L -0.7075431665333048 3.942402594373719 L -0.7004625233951716 3.949301158446697 L -0.6917293734879042 3.954173758267893 L -0.6827253158365858 3.958521696795905 L -0.6735075329540284 3.962396108753663 L -0.6641046736281702 3.965796886249876 L -0.65453252095302 3.968686049837719 L -0.6448023153024592 3.97098537025427 L -0.6349301044933302 3.972561609938081 L -0.6249552109113266 3.973194885292764 L -0.6149881283491468 3.972520091425279 L -0.606416439025452 3.96872820640377 L -0.5966189717652597 3.966964267911128 L -0.58738792233497 3.963138298442641 L -0.5785674973726583 3.958430190235707 L -0.5699989899250273 3.953274531045133 L -0.5615683335862532 3.947894276393171 L -0.5531792148326149 3.942451153018689 L -0.5447175236252733 3.937122010794047 L -0.5361616207637409 3.931955922559527 L -0.5284565337066552 3.925587326438259 L -0.5210273118833478 3.918893041040488 L -0.5135368345155645 3.912267656730438 L -0.5058075815935476 3.90592429837026 L -0.4979546078460828 3.89973694815254 L -0.4907062703045595 3.892852223997856 L -0.4840383928447745 3.885402123195248 L -0.4778873812485376 3.877518254388446 L -0.4722128060175823 3.869285743443185 L -0.4669903914914518 3.860759029079014 L -0.4622118237274817 3.851975761037511 L -0.4578830009793684 3.842962322682598 L -0.4540244563782921 3.833737879768253 L -0.4506734400868809 3.824317469884496 L -0.4478880741369498 3.814715076933037 L -0.4457543625398746 3.80494753000482 L -0.4443956550328468 3.795043189189708 L -0.4436652838699083 3.785070794421116 L -0.4434152922744854 3.775074944819477 L -0.4436798273546243 3.765079703899363 L -0.444491434824859 3.755113989281712 L -0.4458792748398697 3.745212284260784 L -0.4478671429452304 3.735413573014872 L -0.4504713408178019 3.725760765994264 L -0.4536988717644431 3.716298783970579 L -0.4575468555114624 3.707070953414417 L -0.4620007474070844 3.698120283756871 L -0.4670351650304294 3.689485336873813 L -0.472619656389619 3.681192152116077 L -0.4787142307373493 3.673264624915427 L -0.4852751895357015 3.665717583872401 L -0.4922448466229615 3.658549088887758 L -0.4995921794040737 3.651769568146976 L -0.507369329528923 3.645489059090666 L -0.515628551715718 3.63985027977082 L -0.5243823410999032 3.635025528204918 L -0.5336019697835566 3.631166862372305 L -0.5431934099604927 3.62835708864104 L -0.5530252596486119 3.626555371566958 L -0.5629765883720692 3.625598683342547 L -0.5729690374437988 3.625256132836971 L -0.5829678797974305 3.625290433223426 L -0.5929648687335494 3.625494713663018 L -0.6024087886824816 3.624391186400146 L -0.6123265518720445 3.62564216515928 L -0.6220880025729363 3.627797620682498 L -0.6316168345788347 3.630819974483733 L -0.6408379780900049 3.634680766913984 L -0.649676886622868 3.639350438932368 L -0.6580624441455721 3.644792286206472 L -0.6659304408343081 3.650959047733861 L -0.6732328702061166 3.657786727518246 L -0.6800977586757196 3.665057717699824 L -0.6866444466692156 3.672616846980497 L -0.6929101532676638 3.680408949139629 L -0.6989102792247515 3.688409154263897 L -0.7046386885177381 3.696606420617445 L -0.710069127882285 3.705002877780113 L -0.7151481760488281 3.713616054186406 L -0.719771939596356 3.722481255545618 L -0.7237257104901236 3.731662645385666 L -0.7269894660282814 3.741113990855746 L -0.7297884682334077 3.750713238707412 L -0.732141594295217 3.760431566964346 L -0.7340764519926993 3.770241755736158 L -0.7356271428828461 3.780120316449089 L -0.7368315102067662 3.790047052188755 L -0.7377290276298707 3.80000626964464 L -0.7383588570780742 3.809985937482693 L -0.7387585574664924 3.81997770862798 L -0.7390018015134743 3.829974722635986 L -0.7391143339488773 3.839973982054953 L -0.7389996133041344 3.84997305299132 L -0.7385571948311327 3.859962733796686 L -0.7376798485920641 3.869923255771203 L -0.7362507213791237 3.879819049733928 L -0.7341435285696605 3.889592002814532 L -0.7312281470658979 3.899153919759356 L -0.7273807171019584 3.908378574950919 L -0.7224786695709913 3.917088841697335 L -0.7170131153507944 3.925462656791012 L -0.7118001170273223 3.933993409978702  z" id="ID_5A1"/>
   </g>
   <g id="ID_0" color="rgb(0,0,0)" stroke="currentColor" fill="none" stroke-width="0.00005039721436807565"/>
  </g>
 </svg>