<?xml version="1.0" encoding="UTF-8" ?>
 <svg viewBox="-0.1697494260973826 -8.557767574199957  0.501966412844875 0.40833172937098894" xmlns="http://www.w3.org/2000/svg" version="1.0" overflow="visible">
  <defs>
   <g id="ID__#42_Model_Space"/>
   <g id="ID__#42_Paper_Space0"/>
   <g id="ID__#42_Paper_Space"/>
  </defs>
  <g id="draft" transform="matrix(1 0 0 -1 0 0)" stroke-width="5.039721436807565E-5">
   <g id="Poliline" color="rgb(0,0,0)" stroke="currentColor" fill="none" stroke-width="0.00005039721436807565">
    <path d="M -0.020082426801082 8.162728405608082 L -0.0180875356379833 8.17233479808357 L -0.0180824267060871 8.173228406106805 " id="ID_3EA"/>
    <path d="M -0.020082426801082 8.162728405608082 L -0.0237236114933763 8.154511009441826 L -0.0334535933882245 8.152818231913878 L -0.0434360253001129 8.153359528644382 L -0.053316176202955 8.15489682276897 L -0.0630383567629842 8.157233036401289 L -0.0726459492509788 8.160005364745452 L -0.0821602635694641 8.163082975977286 L -0.0915877912878909 8.16641709162088 L -0.1009193520165041 8.170010901027634 L -0.1101079129179734 8.173954288277582 L -0.1184663269415829 8.179239728578743 L -0.1200824315508271 8.188728406843016 L -0.1105009777944925 8.18586666636039 L -0.1009843044790788 8.182795735971546 L -0.0915030898942151 8.179616698693607 L -0.0820244924436535 8.176429830158472 L -0.0725152094699828 8.173336003605394 L -0.0629445811489378 8.170438178043476 L -0.0532880239497127 8.167842253825448 L -0.0435309146661416 8.165656477430806 L -0.0336726721722345 8.163988523114469 L -0.0237301911981609 8.162939624601654  z" id="ID_3EB"/>
    <path d="M -0.119416415894193 8.201728407460482 L -0.1200950925638482 8.191766740890923 L -0.1200824315508271 8.188728406843016 " id="ID_3EC"/>
    <path d="M -0.119416415894193 8.201728407460482 L -0.1190824315033296 8.20806239213633 " id="ID_3ED"/>
    <path d="M 0.1824175828171519 8.216228408149195 L 0.1728000684888693 8.217120212414041 L 0.1654119689878222 8.210381087724551 L 0.1578354128138022 8.203854934556407 L 0.1500554797853146 8.197572854996071 L 0.1420570753070125 8.191571685731947 L 0.1338250809667114 8.185895524161454 L 0.1253450357364452 8.180597549659176 L 0.1166044570119995 8.175742048037517 L 0.1075951020957095 8.171406458915229 L 0.0983165581046644 8.167682965943351 L 0.0887815102164584 8.16467864001148 L 0.0790226452017988 8.162512442382113 L 0.0691000663105479 8.161306838329207 L 0.0591061706051432 8.161172329098783 L 0.0491635614666901 8.162186215110358 L 0.0399175760487651 8.164228405679326 L 0.0366788123940358 8.161545394103573 L 0.0355304570825146 8.152882335090446 L 0.0449889560736674 8.149805789648267 L 0.0549665560904646 8.149435844828968 L 0.0649350328880463 8.150218311669242 L 0.0749175777111759 8.150728405038112 L 0.0847352779341861 8.152620548825006 L 0.0944274470838043 8.155077765655413 L 0.103990230189968 8.157999571913159 L 0.113435424544547 8.161282619303012 L 0.1227869151940348 8.164824433210377 L 0.1320770419592581 8.168524625072852 L 0.1413433490370259 8.172284241114422 L 0.1449175810359975 8.173728406130554 L 0.1468055223270728 8.176249025377906 L 0.153360068797328 8.18379577541005 L 0.1605159203114601 8.190778455633845 L 0.1679905881054946 8.197421024627587 L 0.1755390909289529 8.203979997042055 L 0.1829175828409006 8.21072840788796 " id="ID_3EE"/>
    <path d="M -0.1190824315033296 8.20806239213633 L -0.1092029063788926 8.206664275010795 L -0.0995850163084669 8.203930387588706 L -0.0898470612417928 8.201696383640506 L -0.0798874738599267 8.201767785017381 L -0.0765824294846889 8.205228407626723 L -0.0839029572672665 8.2087847233682 L -0.0931342372363373 8.212627043828457 L -0.1024968510106214 8.216139832537781 L -0.1118924319924375 8.21956397130747 L -0.1212340996513737 8.223131338548818 L -0.1305209217264567 8.224835433351862 L -0.1290532852685153 8.216584466937224 L -0.122082431645822 8.20972840784046  z" id="ID_3EF"/>
    <path d="M 0.1829175828409006 8.21072840788796 L 0.1856098843409537 8.210395006018741 L 0.1955982807506862 8.210328192017482 L 0.2055050981301907 8.211648125843203 L 0.215227205022722 8.21397480438197 L 0.2247281982020333 8.217087324323433 L 0.2339890111762797 8.22085644362209 L 0.2429904151538702 8.225209671401968 L 0.251703737006121 8.23011428128958 L 0.2600821822613755 8.235570747673998 L 0.2680470570655862 8.241613741791342 L 0.2754594251905518 8.24832065305703 L 0.2821978980701862 8.255706324455282 L 0.2884599455223649 8.26350114472336 L 0.2942832971201712 8.271629314870967 L 0.2996890474390215 8.280041266152057 L 0.3046950095577401 8.288697675610665 L 0.3093138174362826 8.29756670567515 L 0.3135522304164127 8.306623631843538 L 0.3174090341966611 8.315849426337145 L 0.3208718994389281 8.325230048484066 L 0.3239113178995927 8.334755972887287 L 0.3264676739385388 8.344422542093046 L 0.3284175897517798 8.354228414703844 L 0.318917589300554 8.35572841477509 L 0.3156176474314858 8.3462890591932 L 0.3120046332335047 8.33696505069223 L 0.3080728284573757 8.32777091646788 L 0.3038152891993358 8.31872318771877 L 0.2992242109684557 8.309840005295435 L 0.294291734110077 8.301141795922973 L 0.2890103283636653 8.292650980331867 L 0.2833733788683403 8.284391996178154 L 0.277375783497563 8.27639115546506 L 0.2710145819819658 8.268676366283422 L 0.2642895858037395 8.261276685059885 L 0.2572039660339938 8.254221686878289 L 0.2497647950492734 8.247540705237071 L 0.2419770793319191 8.24126998914333 L 0.2337407801211402 8.235604497052233 L 0.2250073523035976 8.230741871945392 L 0.2158565895346527 8.22671713222758 L 0.2064315365216256 8.223380370319102 L 0.1968575473840879 8.220495303076351 L 0.1872132985819528 8.217853330994584 L 0.1824175828171519 8.216228408149195  z" id="ID_3F0"/>
    <path d="M 0.2902496191888986 8.443395411126549 L 0.298581836906588 8.438543892906925 L 0.3055812699338807 8.431414354292725 L 0.3116768425431564 8.42349213209475 L 0.3170368001548489 8.41505321792307 L 0.3217202317399073 8.40621947783217 L 0.3257020652885298 8.39704860140587 L 0.3288604955201579 8.387564436911703 L 0.3309565206287619 8.377792152393091 L 0.3322169867474924 8.367880563928951 L 0.3305833283440096 8.358098946068903 L 0.3284175897517789 8.354228414703844 " id="ID_3F1"/>
    <path d="M 0.0389175760012677 8.172728406083056 L 0.0399175760487651 8.164228405679326 " id="ID_3F2"/>
    <path d="M 0.0389175760012677 8.172728406083056 L 0.0318865762218508 8.172385581607218 L 0.0218904607184163 8.172113729093695 L 0.0118907877948518 8.17207516021917 L 0.0018925046391631 8.17225423155605 L -0.0080998850276366 8.172640538518262 L -0.0180824267060862 8.173228406106805 L -0.0235298969510387 8.175281709705615 L -0.033014572142859 8.178448845862999 L -0.0425469380925439 8.181471040071884 L -0.0520047454059798 8.184716633827303 L -0.0612371935953284 8.188550974345391 L -0.0700296372037181 8.193300867460731 L -0.0705824291997033 8.202228407484231 L -0.06081940544271 8.200064297071783 L -0.0510520950816771 8.197919621953927 L -0.0412748696114811 8.195820630561512 L -0.0314825386713205 8.193793313818308 L -0.0216705088004474 8.191863649800911 L -0.0118349535437448 8.190057810559257 L -0.0019730013996604 8.18840232489639 L 0.0079168937516201 8.18692421049348 L 0.0178353120540287 8.185650931305481 L 0.0277807953320872 8.184610487286635 L 0.0377500778400544 8.183831203489598 L 0.0477376998239496 8.183341500409526 L 0.0557909037332962 8.180073205133784 L 0.0498339253671354 8.173844796683692 L 0.0398992695619489 8.173129253654311  z" id="ID_3F3"/>
    <path d="M -0.076582429484688 8.205228407626723 L -0.0705824291997033 8.202228407484231 " id="ID_3F4"/>
    <path d="M -0.119416415894193 8.201728407460482 L -0.1205091366127338 8.201343996125438 L -0.1299551406029247 8.198061988033299 L -0.1394900722401315 8.19505031565706 L -0.149183002774504 8.192600073019271 L -0.1590521323647867 8.191015961553083 L -0.1675670543102496 8.19389209777659 L -0.167582433806956 8.203728407555477 L -0.1575855455243369 8.203977691428115 L -0.1475969935805086 8.204441349396628 L -0.1376599115545254 8.205533892453102 L -0.1279023264779902 8.207689327566506 L -0.122082431645822 8.20972840784046 " id="ID_3F5"/>
    <path d="M -0.1697494260973826 8.21206239232632 L -0.167582433806956 8.203728407555477 " id="ID_3F6"/>
    <path d="M 0.287917587828133 8.433062402823257 L 0.2936635796189879 8.424881188056982 L 0.2987837938014808 8.416293899685513 L 0.3033127313095889 8.407380174634572 L 0.3072858113128225 8.398204841758586 L 0.310736102516536 8.388820123044294 L 0.3136922976557876 8.379268244123203 L 0.3161777380035939 8.369582944211613 L 0.3182092697526837 8.359792263308528 L 0.318917589300554 8.35572841477509 " id="ID_3F7"/>
    <path d="M 0.2902496191888986 8.443395411126549 L 0.2900216488456442 8.442724754273806 L 0.287917587828133 8.433062402823257 L 0.2815806892447066 8.434711052467623 L 0.2732901802478551 8.440249213246652 L 0.2656805626643228 8.44673616319319 L 0.2572903861342155 8.452095291933375 L 0.2476740721541741 8.454773260524192 L 0.2390385831751516 8.459809966904517 L 0.2306731012911767 8.46528798406903 L 0.2222725148808404 8.470711117097746 L 0.2134078318105637 8.475319018868351 L 0.2038081756666612 8.478019623697342 L 0.1949238112796632 8.481002340252013 L 0.1877705815408808 8.487989982032905 L 0.1804796808755098 8.49483367308383 L 0.1729925244215993 8.501461772585724 L 0.165255243335034 8.50779579369665 L 0.1572251044771118 8.513753366485567 L 0.148875977252291 8.519254483909855 L 0.1402021058886831 8.524227113525267 L 0.131086408940396 8.528325434111949 L 0.1216502721851143 8.531631201972372 L 0.112105106030385 8.534612404671112 L 0.102608651898934 8.53774316043274 L 0.0933495355872429 8.541510600907703 L 0.0846340417941338 8.546393502175427 L 0.0769175778061708 8.552728424132088 L 0.0853462628386783 8.557188712152891 L 0.0952999143196394 8.557767574199957 L 0.1051743056315662 8.556253781536903 L 0.1148255856100233 8.553643660731693 L 0.1243866603152943 8.55071394008609 L 0.133819317899337 8.54739666956545 L 0.1430961413565717 8.543664605349989 L 0.1522413088516226 8.539619853835024 L 0.1612850943429773 8.535352322786736 L 0.1702609173840015 8.530944514360568 L 0.1792067585239963 8.526475203635295 L 0.1881625979948795 8.522026031354272 L 0.1971714192789831 8.517686111306862 L 0.2061349074911538 8.513302238002172 L 0.2109175841708293 8.51272842223219 L 0.2184842934101745 8.506191009836323 L 0.2262096645820826 8.499841572868132 L 0.2340319500788608 8.493611721412385 L 0.2418939561264288 8.487431973602543 L 0.2497405381963818 8.481232655387586 L 0.2575159392386759 8.474944557185538 L 0.2651615452281497 8.468499417783374 L 0.2726132709574625 8.461831416149202 L 0.2798000471099984 8.454879124643924 L 0.2866431375032352 8.447588842937847  z" id="ID_3F8"/>
    <path d="M -0.1300824320258016 8.299728412115233 L -0.1201290242801338 8.300522675631013 L -0.1104964334101277 8.303155944399403 L -0.1014482079538244 8.307389529981183 L -0.0930893029489779 8.312866062780444 L -0.0853938361086613 8.319245502531505 L -0.0782710928676895 8.32626109537578 L -0.0716105492024299 8.333718341764824 L -0.0653011518744249 8.341475807000892 L -0.059236193659018 8.349424178821415 L -0.0533041084008019 8.357476901209253 L -0.0475189903626001 8.36563329518674 L -0.0419444215384797 8.373935045492804 L -0.0365667361649349 8.382365715494366 L -0.0313662114939231 8.3909068578934 L -0.0263163233467232 8.399537970340544 L -0.0213829918400306 8.408236275711825 L -0.0165230145188886 8.416975812331703 L -0.0116747136907343 8.425721997584114 L -0.0068099337171645 8.434458940976256 L -0.0019131428089798 8.443178026712218 L 0.0030311498320446 8.451870064700678 L 0.0080388475756479 8.460525839305607 L 0.0131258981533034 8.469135214359273 L 0.0183085593880126 8.477687373249928 L 0.0236033673216429 8.486170554912714 L 0.0290270524861347 8.494571751201441 L 0.0345967656699386 8.502876924003743 L 0.0403296510897251 8.511070269134285 L 0.0462429159592857 8.519134344753923 L 0.052353580148476 8.527049818033374 L 0.0586311920599672 8.534833625337 L 0.0652268527042521 8.542347962430968 L 0.0724433554673132 8.549262988197931 L 0.0769175778061708 8.552728424132088 " id="ID_3F9"/>
   </g>
   <g id="ID_0" color="rgb(0,0,0)" stroke="currentColor" fill="none" stroke-width="0.00005039721436807565"/>
  </g>
 </svg>