<?xml version="1.0" encoding="UTF-8" ?>
 <svg viewBox="-1.238082484652977 -4.011874779911858  0.24663185284902078 0.2869713738075945" xmlns="http://www.w3.org/2000/svg" version="1.0" overflow="visible">
  <defs>
   <g id="ID__#42_Model_Space"/>
   <g id="ID__#42_Paper_Space0"/>
   <g id="ID__#42_Paper_Space"/>
  </defs>
  <g id="draft" transform="matrix(1 0 0 -1 0 0)" stroke-width="5.039721436807565E-5">
   <g id="Layer_#32_1" color="rgb(255,0,255)" stroke="currentColor" fill="none" stroke-width="0.00005039721436807565"/>
   <g id="Poliline" color="rgb(0,0,0)" stroke="currentColor" fill="none" stroke-width="0.00005039721436807565">
    <path d="M -1.238082484652977 3.72972819505188 L -1.230780748643859 3.724903406104264 L -1.220980163877092 3.726889609158268 L -1.211191531183078 3.728937739603791 L -1.201421853892865 3.731069535761632 L -1.191675314693863 3.733309079145671 L -1.181960102365513 3.735681412046069 L -1.172286619385786 3.738212872607324 L -1.162663641498507 3.740932111051865 L -1.153105245205428 3.743868165198723 L -1.143625865805854 3.747051552935641 L -1.134244337356752 3.750512607542379 L -1.124982379326188 3.754281174367063 L -1.115864469169592 3.75838569377907 L -1.106917945000639 3.762851881314 L -1.098173314349288 3.767700873488847 L -1.089696509296313 3.773001673799054 L -1.081684104565589 3.778981064985741 L -1.074088466396021 3.785483217940392 L -1.066859140793589 3.79239085576475 L -1.059980936008613 3.799648163299618 L -1.053461050827362 3.807229167529211 L -1.047304922167321 3.815108337215004 L -1.041541988121784 3.823278949286795 L -1.036197161558994 3.831728790296372 L -1.03128761971106 3.840438054401666 L -1.026819634400808 3.849381390934468 L -1.022787464823499 3.858528922680365 L -1.019169811434776 3.867857180553274 L -1.015942210810038 3.877321488560397 L -1.013063257423014 3.886897761599129 L -1.010486913063583 3.896559839890954 L -1.008162881095872 3.906285872784524 L -1.006039252731795 3.91605753450926 L -1.004064655839759 3.925858591619084 L -1.002188628252753 3.935679962359795 L -1.000363880418131 3.945513101129931 L -0.998547451049168 3.955346059171381 L -0.9966991824183093 3.965173416515224 L -0.9945212261224973 3.974930419273503 L -0.9924230556961326 3.984705207025903 L -0.9914506318039562 3.994648912314211 L -0.9922959027378004 4.004593152652775 L -0.9974762825369261 4.011874779911858 L -1.005813602375541 4.007986778982917 L -1.0076465064233 3.998155995099629 L -1.009506031311843 3.988333367325855 L -1.011412610581826 3.97851405038951 L -1.013383526802871 3.9687101552084 L -1.015438330588978 3.958923567398054 L -1.017596553018498 3.949159067481003 L -1.019878191966284 3.939422745682628 L -1.022303001326758 3.929725402694606 L -1.024894532538698 3.920067413640214 L -1.027674555295454 3.910461869077709 L -1.030666701890829 3.900920219065033 L -1.033895579073556 3.891456223166436 L -1.037388173970325 3.88208243843556 L -1.041168202860805 3.8728250012635 L -1.04526371848783 3.86370261310436 L -1.049701239880062 3.854741427475218 L -1.054505550542535 3.845972799278177 L -1.059700356277234 3.837429981236727 L -1.065305473767155 3.829150818889637 L -1.071335813492398 3.82117602317121 L -1.077799548297872 3.813548281505942 L -1.084696883757745 3.806310205430516 L -1.092019213197565 3.7995020411975 L -1.099751220982192 3.79315751801622 L -1.107861573121646 3.787309444195601 L -1.116317003383384 3.78197709535749 L -1.125081844394683 3.777169020077073 L -1.134116275975573 3.772885736432217 L -1.143398365306882 3.769173258856186 L -1.152976445505433 3.766303734216467 L -1.162625045300916 3.763675861564841 L -1.172236692359813 3.760917049045362 L -1.181943290725576 3.758556091833137 L -1.191828564290281 3.757046192963565 L -1.201714875880552 3.755544100020674 L -1.211532862166824 3.753653741083642 L -1.221153074044966 3.750945578544104 L -1.23016525639155 3.746668026506384 L -1.236932575843215 3.739470683785382  z" id="ID_5B5"/>
   </g>
   <g id="ID_0" color="rgb(0,0,0)" stroke="currentColor" fill="none" stroke-width="0.00005039721436807565"/>
  </g>
 </svg>