<?xml version="1.0" encoding="UTF-8" ?>
 <svg viewBox="0.5186516034200715 -3.308160010778493  0.397583280206663 0.40713841354388913" xmlns="http://www.w3.org/2000/svg" version="1.0" overflow="visible">
  <defs>
   <g id="ID__#42_Model_Space"/>
   <g id="ID__#42_Paper_Space0"/>
   <g id="ID__#42_Paper_Space"/>
  </defs>
  <g id="draft" transform="matrix(1 0 0 -1 0 0)" stroke-width="5.039721436807565E-5">
   <g id="Layer_#32_1" color="rgb(255,0,255)" stroke="currentColor" fill="none" stroke-width="0.00005039721436807565"/>
   <g id="Poliline" color="rgb(0,0,0)" stroke="currentColor" fill="none" stroke-width="0.00005039721436807565">
    <path d="M 0.7739176109118944 3.237728171683134 L 0.7757488044340617 3.239542140936938 L 0.782713875453533 3.246717137727316 L 0.7893553549520825 3.254191624048333 L 0.7955155106003488 3.262066107548164 L 0.8009969240120273 3.270425400532445 L 0.8055558404781208 3.27931908468356 L 0.8089176125743051 3.288728174105504 L 0.8146281742246266 3.296936422424108 L 0.8211411598110212 3.304501859502 L 0.8301604735870977 3.308160010778493 L 0.8397178829838107 3.305430072316037 L 0.8484760367207506 3.300635579518278 L 0.8553240934578072 3.293467774024248 L 0.8570627775322394 3.283796329928156 L 0.8539195797869618 3.274355679428232 L 0.8499176145217006 3.267728173108057 L 0.843694196644213 3.259901815405989 L 0.8372235491478017 3.252277653355699 L 0.8307100318959523 3.244689896195749 L 0.8243537461746432 3.236970513095412 L 0.8183685160545577 3.228961438259746 L 0.8129931940403833 3.220532833503941 L 0.8099176126218026 3.214728170590692 " id="ID_695"/>
    <path d="M 0.6742496374279199 3.094062149234364 L 0.6791551420946034 3.085361447412513 L 0.6855018215311591 3.077651653701272 L 0.6931738392387166 3.071261488217988 L 0.7019343072817712 3.066472677367682 L 0.7114633911375057 3.063495087596027 L 0.7213942771097406 3.062480885331986 L 0.7313167859938003 3.063554508074092 L 0.7407236200036503 3.066871731600025 L 0.7491080920213458 3.072284257855729 L 0.75622145697006 3.079291361507776 L 0.7619860498800595 3.087448436463573 L 0.766379710299109 3.096420463717945 L 0.7693656983853004 3.105953902272698 L 0.7708611193679725 3.115831460748079 L 0.770727230788256 3.125818308459937 L 0.7687875340894365 3.135612428150865 L 0.7648929758816481 3.144801214896405 L 0.7589842923673223 3.152837007507095 L 0.7512624806846269 3.159149510507068 L 0.7422475079238531 3.163425222151845 L 0.732516701722834 3.165652351027961 L 0.7225359280840014 3.16597370341724 L 0.7126507188683197 3.164546250146745 L 0.7031473363706544 3.161483123533125 L 0.6942997495968122 3.156844424001086 L 0.6864458197647326 3.150680007378564 L 0.6799757084280654 3.143079286828355 L 0.675281901903718 3.134271399579414 L 0.6725369344021104 3.12467432229061 L 0.6716894987364795 3.114723114075541 L 0.6723557214119947 3.10475220274583  z" id="ID_696"/>
    <path d="M 0.648917604974713 3.110728165650957 L 0.6512815047868985 3.101011577637136 L 0.6537220238067621 3.091314003116936 L 0.6564391258473635 3.081690881659826 L 0.6596228177323358 3.072212656701633 L 0.6634757580794322 3.062987772901671 L 0.6682207375500006 3.054191281142317 L 0.6740800671440939 3.046099240541487 L 0.6812020401013053 3.039099894338226 L 0.6895414387705748 3.033613623803656 L 0.6988089887888185 3.029902675405217 L 0.7086020026603334 3.027939240249517 L 0.7185846686127837 3.027642479970529 L 0.7284661912054223 3.029092814737678 L 0.7379701465489799 3.032167888925256 L 0.7469007871917475 3.036647500125425 L 0.7551502443959777 3.04228764183526 L 0.7626734517367666 3.048867536856413 L 0.7694596057376871 3.05620663001518 L 0.7755106340871496 3.064163444923849 L 0.7808283651289925 3.072628089953997 L 0.7854076463599631 3.081514518828674 L 0.7892312885123545 3.090751525610571 L 0.7922676258698793 3.100276342884544 L 0.7944681980778469 3.110027874244721 L 0.7957659577359601 3.119939474299483 L 0.7960746134744757 3.129930175759911 L 0.7952910488039012 3.139893867764378 L 0.7933043081136661 3.149687514934599 L 0.7900175585368086 3.159121563251442 L 0.7853648396300797 3.167957038909079 L 0.7792962957282077 3.175884732137394 L 0.771892075229256 3.182583817469797 L 0.7633853196032945 3.187813692749411 L 0.7540941811664075 3.191478701190979 L 0.7443349151036438 3.193614319873883 L 0.7343684270534016 3.194330339881085 L 0.7243912854047015 3.193756963741719 L 0.714549965904312 3.192013652890576 L 0.7049599401170941 3.189197140216588 L 0.6957222160939498 3.185380054866516 L 0.6869362128977939 3.180614460283742 L 0.6787096909540207 3.174937906289356 L 0.6711662108591768 3.168381663810565 L 0.6644494279638034 3.160981788683203 L 0.6587217776843515 3.152793452041311 L 0.6541536276013212 3.143907064699595 L 0.6508997690375918 3.134460597107342 L 0.6490664764753653 3.124639413596797 L 0.648681914126728 3.114655437488105  z" id="ID_697"/>
    <path d="M 0.6979176073020881 3.014728161091202 L 0.6967241960901287 3.011225226032301 L 0.6935602510748682 3.001739022794929 L 0.6904456088375089 2.992236401738564 L 0.6873307265276445 2.982733875867726 L 0.6841665345640405 2.973247693449447 L 0.6809043362756722 2.963794824377711 L 0.6774957636328214 2.954393822177879 L 0.6738929050991703 2.945065651226164 L 0.6700486894186862 2.935834448324321 L 0.6659176057821697 2.926728156911426 L 0.661222211728613 2.911736530644066 L 0.6569176053546926 2.902728155771487 L 0.6471145898279325 2.901021597234604 L 0.6372199976312684 2.90226846644076 L 0.6278501670051471 2.905712436501817 L 0.6193204386690088 2.910903659495017 L 0.6119533214440152 2.917640497118961 L 0.6062727295445516 2.92583876347385 L 0.6031561823727803 2.935292838211022 L 0.6029176027898302 2.940728157576391 L 0.608202674746833 2.949179867941783 L 0.6109176031698098 2.95672815833635 L 0.6184063533767619 2.963354616743401 L 0.6256861112692241 2.970210107874528 L 0.6327671678269599 2.977270737013656 L 0.6396606157633667 2.984514724486121 L 0.6463780762100271 2.991922274688578 L 0.6529314985145352 2.999475407890319 L 0.6593330246964042 3.007157773378306 L 0.6655947973513481 3.014954314012515 L 0.6717293128040139 3.022851554822119 L 0.6739176061621494 3.025728161613674 " id="ID_698"/>
    <path d="M 0.8499176145217006 3.267728173108057 L 0.8574237609901098 3.261143560886333 L 0.8637172560900996 3.253383944802493 L 0.8690390422564044 3.244922017209647 L 0.8738002046459181 3.236128793550829 L 0.8785283381708826 3.227317335031974 L 0.8833401849056361 3.218551207843523 L 0.8880998262392179 3.209756580211591 L 0.8927383016648393 3.20089824620544 L 0.8971641180354534 3.191932564250963 L 0.9012667518954016 3.182815836341067 L 0.904933391250573 3.173514589328314 L 0.9080738286141247 3.164022166684697 L 0.9106466036409033 3.154360278003553 L 0.912666364305136 3.144567716772957 L 0.9141893401940084 3.134685308682097 L 0.9152903845203796 3.124746675083356 L 0.916044650639626 3.114775667178749 L 0.9162348836267346 3.104776224949484 L 0.9157159160457135 3.09479139514428 L 0.9145855259665367 3.084856942000619 L 0.9129167690427175 3.074998202751002 L 0.9107644163640111 3.065233397531304 L 0.9081693248949918 3.0555764415804 L 0.9051632177496857 3.046044043747881 L 0.901765045096047 3.03663904568841 L 0.8979908989639442 3.027377994441097 L 0.8938505083220835 3.018275986866752 L 0.8893477782243097 3.00934829364677 L 0.8844817152223543 3.000612757525864 L 0.8792477524146171 2.992092510679929 L 0.8736377789442268 2.983816317672824 L 0.8676374831891005 2.975816147227229 L 0.8612326918029102 2.968137551360298 L 0.8544041749110045 2.960833891030651 L 0.8471341666809246 2.953969761021241 L 0.839523968293407 2.947483545536481 L 0.831638562011248 2.941334988188154 L 0.8234687087013892 2.93556950556432 L 0.8149885182862597 2.930272874857866 L 0.8061552654869696 2.925591258545658 L 0.7969141377290159 2.921785070428917 L 0.7872758358876712 2.919133573904773 L 0.7774908112742809 2.917072481835447 L 0.7676787602372466 2.915143878269818 L 0.7579281822545499 2.912927255546497 L 0.748140508349665 2.910881034727525 L 0.738276572221433 2.909244666697222 L 0.7283349911837745 2.908184335301351 L 0.7183429807042252 2.907868327041438 L 0.7083635922069265 2.908445537694779 L 0.6984923998782655 2.910016702889416 L 0.6888394932888869 2.912610993813629 L 0.67950364755227 2.91618267125882 L 0.6705513360437818 2.920630886775075 L 0.6648660486404765 2.923370706719339 " id="ID_699"/>
    <path d="M 0.6109176031698098 2.95672815833635 L 0.6019757038026468 2.961200148189622 L 0.593393109402852 2.966327436067063 L 0.5852407094022665 2.972113903049171 L 0.5775838616005258 2.97854181649332 L 0.5704746515720887 2.9855705992509 L 0.5639440200820749 2.993140243304843 L 0.5579975558613876 3.001177322541707 L 0.5526146232831755 3.00960270633192 L 0.5477506192841278 3.018338438307477 L 0.5433405507663897 3.027312347633682 L 0.539301990877326 3.036459869028449 L 0.5355357546289082 3.045723164583174 L 0.5319228312277735 3.055047543571719 L 0.5283162685141037 3.064374407447106 L 0.5250307798434868 3.07381677637278 L 0.5224302777165803 3.08347048547025 L 0.5205041439937803 3.093281186787207 L 0.5192454332700498 3.103199739759569 L 0.5186516034200715 3.113180265515367 L 0.5187248709028394 3.123178155905264 L 0.5194722543342642 3.133148280889223 L 0.5209053111147304 3.143042911554722 L 0.5230395956935512 3.152810265537123 L 0.5258934418466384 3.162391904815871 L 0.5294861859627238 3.17172138575477 L 0.5337304725958019 3.180775208427478 L 0.5379449697304945 3.189843512352096 L 0.54213210839899 3.19892466016725 L 0.5464435958980279 3.207947234861466 L 0.5511312912957848 3.216777591954429 L 0.5565487487289822 3.225179471719886 L 0.5626352987992949 3.233110491836914 L 0.5693005285163242 3.24056222805294 L 0.576456628150183 3.247544759771267 L 0.5840231147448778 3.254080950381265 L 0.5919296331006159 3.260201929835966 L 0.6001163269275187 3.265943079570163 L 0.6085333862958997 3.271341452923335 L 0.6171392192617935 3.276433676403373 L 0.6259014333352502 3.28125196748701 L 0.6348231207078899 3.285767764855656 L 0.6439099254340422 3.289941143720831 L 0.6531596372827106 3.293739556780476 L 0.6625664764170001 3.297129826078208 L 0.6721206526965436 3.300078952570487 L 0.681808068501156 3.302555171915845 L 0.6916100719974452 3.304529179453002 L 0.7015037521697947 3.305975548749907 L 0.7114619086423009 3.306874056394219 L 0.721454846851393 3.307211023280787 L 0.7314503133106749 3.306961467745587 L 0.7414205057678842 3.306195053318406 L 0.7513484787051912 3.304997917620811 L 0.7612197649295239 3.303408192018553 L 0.7710222439734036 3.301432498520984 L 0.7807340047601495 3.299051987142993 L 0.7903234309749942 3.296218115119128 L 0.799734496016062 3.292840733172022 L 0.8088596977201172 3.2887575457378 L 0.808917612574306 3.288728174105504 " id="ID_69A"/>
   </g>
   <g id="ID_0" color="rgb(0,0,0)" stroke="currentColor" fill="none" stroke-width="0.00005039721436807565"/>
  </g>
 </svg>