<?xml version="1.0" encoding="UTF-8" ?>
 <svg viewBox="-0.2631226681507925 -4.575080358627293  0.3410562513441455 0.44340783228298086" xmlns="http://www.w3.org/2000/svg" version="1.0" overflow="visible">
  <defs>
   <g id="ID__#42_Model_Space"/>
   <g id="ID__#42_Paper_Space0"/>
   <g id="ID__#42_Paper_Space"/>
  </defs>
  <g id="draft" transform="matrix(1 0 0 -1 0 0)" stroke-width="5.039721436807565E-5">
   <g id="Poliline" color="rgb(0,0,0)" stroke="currentColor" fill="none" stroke-width="0.00005039721436807565">
    <path d="M -0.0740824293659443 4.53772823342982 L -0.0708648823970695 4.529393288775853 L -0.0614639197382498 4.526044457252325 L -0.0524508796288963 4.521791856226126 L -0.0439262317681486 4.516564696048584 L -0.035361746738432 4.5114038825795 L -0.0263517327989691 4.507089508611132 L -0.02386426146085 4.512521390503302 L -0.0278305169851167 4.521660997514263 L -0.0340257281814491 4.529482287233262 L -0.0417837977352758 4.535760157594326 L -0.0507536552829722 4.54012354804156 L -0.0605627691555064 4.541830793594987 L -0.0702900976992673 4.539851773834691  z" id="ID_4E0"/>
    <path d="M -0.091082430173401 4.134728214288347 L -0.0812186544561584 4.133095561896098 L -0.0712695536387482 4.132102465728952 L -0.0612798773996968 4.131672526344312 L -0.0512812852506413 4.131754465797401 L -0.0412979559661864 4.132317105559701 L -0.0313518823469776 4.133346833909543 L -0.0214658724056456 4.134847335813091 L -0.0116676882416949 4.136841917081246 L -0.0019962083697704 4.139379594849328 L 0.0074867175133937 4.142547929005495 L 0.0166689881669902 4.146499764417853 L 0.0252485163421721 4.151612876433601 L 0.0329884139508945 4.157935457311483 L 0.0400485571705733 4.165013140222134 L 0.0465393498399189 4.172617627722285 L 0.0525214682782984 4.180629198900414 L 0.0580184837028428 4.188981362835443 L 0.0630222659876578 4.197638094282716 L 0.0674902245521345 4.206582979291782 L 0.0713326057480259 4.215813312694599 L 0.0743811296400523 4.225333875526104 L 0.0763423524314781 4.235133785099671 L 0.0774194260142283 4.245074080082307 L 0.0779112508433366 4.255060869782937 L 0.077933583193353 4.265060143529932 L 0.0775646709555593 4.275052895471077 L 0.0768576397369225 4.285027427708101 L 0.0758469755719498 4.294975971925229 L 0.0745509437484682 4.304891280535271 L 0.0728946317090316 4.314752215070553 L 0.0707320437285448 4.324514671676931 L 0.068165502030463 4.334179280563919 L 0.0652976506996597 4.343759191719831 L 0.0622192288506236 4.35327362331575 L 0.0590108335992277 4.362744961939624 L 0.0557451542158916 4.372196724873095 L 0.0524892971425439 4.38165185609389 L 0.0493067059168393 4.391131848713763 L 0.0462587725151735 4.4006559129389 L 0.0433924202100631 4.410236169756709 L 0.0402699654848071 4.419735077353019 L 0.0367711823183665 4.429102542487084 L 0.0331082411865236 4.43840756426408 L 0.0295386361914076 4.447748443120902 L 0.0263207696958672 4.457215279235047 L 0.0236635846041002 4.466853758602784 L 0.0216898631123863 4.476654566209829 L 0.0204304676971283 4.486572635668071 L 0.0198479364376274 4.496555091928648 L 0.0173107442269753 4.505900590574505 L 0.0147395241269584 4.515563236587546 L 0.0112449365715186 4.52492786161722 L 0.006766833495865 4.533862704910342 L 0.0012794255924478 4.542214132856475 L -0.0051963572517373 4.549823941256695 L -0.0125865446578626 4.556548249977296 L -0.0207732310312538 4.562278882864337 L -0.0296076378398134 4.566950767988657 L -0.0389336617228873 4.570543805645213 L -0.0486035305968775 4.573071974724255 L -0.0584860370709475 4.574569783842671 L -0.0684688265999123 4.575080358627293 L -0.0784556060331774 4.574646686081781 L -0.0883617802933143 4.573306364908557 L -0.0977357220947246 4.570092824130229 L -0.1059000270076789 4.564329130304628 L -0.113508237295532 4.557839799230793 L -0.120536168591344 4.550730985583355 L -0.126258885430131 4.542574709627857 L -0.1351793362011264 4.538203912662959 L -0.1440666643192658 4.533621340003529 L -0.1527616948599002 4.528683504541913 L -0.1612491843525907 4.523397394824042 L -0.1695232905552304 4.51778290678048 L -0.1775861971305312 4.51186923732134 L -0.1854476044671376 4.505689562245622 L -0.1931212983921231 4.499278177467537 L -0.2005998948225303 4.492640452329487 L -0.2078072012793397 4.485709006077323 L -0.2147124978454418 4.478481097635798 L -0.2212951365919942 4.470952491881764 L -0.2275228519750172 4.463130531890296 L -0.2333671082426116 4.455017797131441 L -0.2387954911804755 4.446621052681445 L -0.2437736961804635 4.437949766448861 L -0.2482654080693747 4.429017620091125 L -0.2522349811702078 4.41983851714963 L -0.2556431782739121 4.410438629977164 L -0.2584544466194405 4.400843360370261 L -0.2606346822306378 4.391086049388766 L -0.2621542150227682 4.381204116094037 L -0.2629890065652161 4.371241028445654 L -0.2631226681507925 4.361241376057574 L -0.2625477921971049 4.351259333046435 L -0.2612675515976504 4.341345794981613 L -0.2593314833444058 4.331536334799762 L -0.2571572228180239 4.321776075765162 L -0.254792621885306 4.312060098167938 L -0.2521621855186824 4.302413370508194 L -0.2491953572443206 4.292864405456358 L -0.2458278562582477 4.283449572529971 L -0.2420025372982373 4.274211098811278 L -0.2376725711501004 4.265198464226727 L -0.2328039757693689 4.256465380404076 L -0.2273780710565374 4.248067317267564 L -0.2211582127406011 4.240242489286464 L -0.2146273442556605 4.23266980702634 L -0.2086494493732918 4.224660718559258 L -0.2065824356593566 4.221228218396875 " id="ID_4E1"/>
   </g>
   <g id="ID_0" color="rgb(0,0,0)" stroke="currentColor" fill="none" stroke-width="0.00005039721436807565"/>
  </g>
 </svg>