<?xml version="1.0" encoding="UTF-8" ?>
 <svg viewBox="-0.0214934899173036 -3.273101217703734  0.3989512705682339 0.42193147507964035" xmlns="http://www.w3.org/2000/svg" version="1.0" overflow="visible">
  <defs>
   <g id="ID__#42_Model_Space"/>
   <g id="ID__#42_Paper_Space0"/>
   <g id="ID__#42_Paper_Space"/>
  </defs>
  <g id="draft" transform="matrix(1 0 0 -1 0 0)" stroke-width="5.039721436807565E-5">
   <g id="Layer_#32_1" color="rgb(255,0,255)" stroke="currentColor" fill="none" stroke-width="0.00005039721436807565"/>
   <g id="Poliline" color="rgb(0,0,0)" stroke="currentColor" fill="none" stroke-width="0.00005039721436807565">
    <path d="M 0.0579175769037192 3.111728165698455 L 0.0614698218319187 3.121057413058817 L 0.066934353801277 3.129407042386647 L 0.0741197637721856 3.136332791663221 L 0.082590352962268 3.141617314101161 L 0.0918777066510304 3.145293277154033 L 0.101618264610476 3.147519357646237 L 0.1115669237518198 3.148467369449281 L 0.1215597841058891 3.148269714061077 L 0.1314743485367789 3.147002720630762 L 0.1329175804660281 3.146728167360866 " id="ID_684"/>
    <path d="M 0.0579175769037192 3.111728165698455 L 0.0547167795061974 3.121161527013395 L 0.0548038044109553 3.13110748068853 L 0.0582986969411756 3.14042822221989 L 0.0643695882508064 3.148338471266789 L 0.0721093978749412 3.154641647452587 L 0.0809173927830962 3.159347104379547 L 0.0904175071007405 3.16242677859425 L 0.1003164706215331 3.163730587305431 L 0.1102645608384769 3.162958038427094 L 0.11968832236 3.159713494390985 L 0.1277009832223106 3.153803870137439 L 0.1329175804660281 3.146728167360866 " id="ID_685"/>
    <path d="M 0.0579175769037192 3.111728165698455 L 0.0597221371745471 3.101918974819692 L 0.0631014189715176 3.092527899906407 L 0.068444931958302 3.084100882890636 L 0.0755560504319348 3.077101643194195 L 0.0840698659673978 3.071897793604614 L 0.0935379512907213 3.068747666139486 L 0.1034734374022541 3.067830861489285 L 0.1133471307979033 3.069256228781661 L 0.1225890159756 3.073009810821101 L 0.1305976237156461 3.078945559866053 L 0.1368304394403257 3.086739152039511 L 0.1414238171990911 3.095607118265643 L 0.1444550904895276 3.105124538847498 L 0.1458260055572929 3.115016666476082 L 0.1452701381781187 3.124982448272103 L 0.1424066407626503 3.134534081608137 L 0.1369854261131378 3.142891273842334 L 0.1329175804660281 3.146728167360866 " id="ID_686"/>
    <path d="M 0.0269175754312983 3.102728165270978 L 0.0292617993586273 3.093010416419204 L 0.0325476202869153 3.083570569758839 L 0.0368714914585731 3.074560422192268 L 0.042303380848681 3.066173250051072 L 0.0488586371189301 3.058633520439784 L 0.0564724206660152 3.052165904196129 L 0.0649927047583194 3.04695029797466 L 0.0742041504992379 3.043082163893537 L 0.0838910281468657 3.040648561877162 L 0.0938538189431384 3.039958900182645 L 0.1037914357715666 3.040969529646286 L 0.113455872816 3.043503123320823 L 0.122678925906559 3.047348924492004 L 0.1313544546061163 3.052310407830365 L 0.1394122668038369 3.058223992064599 L 0.146796689091075 3.064960412855553 L 0.1534514359892283 3.072418732704649 L 0.1593090077390258 3.080517886811147 L 0.1642826639392352 3.089186916939276 L 0.1682605933157424 3.098353808146724 L 0.1711042751237821 3.107936581474206 L 0.1726473781857827 3.117808239953069 L 0.1727212932985456 3.127796417679304 L 0.1711910018231739 3.137666157982536 L 0.1680114649599407 3.147133858693758 L 0.163091584719627 3.155816304144657 L 0.1565527723169833 3.163365185366016 L 0.1487949398784059 3.169653325329099 L 0.1401133449222307 3.174598210338825 L 0.1308341453711863 3.178299318690209 L 0.1211628911421831 3.180831144078446 L 0.1112702266703636 3.182258222276075 L 0.1012816085414672 3.182630282347128 L 0.0913075350317723 3.181973049765245 L 0.0814548859495466 3.180288792570257 L 0.0718400095349878 3.177558424643027 L 0.0626015589496225 3.173746547717005 L 0.0539130812351623 3.168812008231441 L 0.0459907216227151 3.162727235864885 L 0.0390887996087592 3.155509587347303 L 0.0334670052731028 3.147254602747121 L 0.0293353737890314 3.138161621775724 L 0.0267852520105905 3.128503741877471 L 0.0257687712044312 3.118564817562873 L 0.0261336155189147 3.108578413055578  z" id="ID_687"/>
    <path d="M -0.0210824268485794 3.080728164226034 L -0.0214670490612594 3.070736073344063 L -0.0214934899173036 3.060736677849275 L -0.0211438408594518 3.050743430461137 L -0.0204013732911479 3.040771745267935 L -0.0192511529038706 3.03083891127577 L -0.0176806626443513 3.020963710852011 L -0.0156805422016664 3.011166642284599 L -0.0132450591264783 3.001468672574112 L -0.0103726266119253 2.991891055897793 L -0.0070660629111652 2.982454538819261 L -0.0033326333180783 2.973178622777727 L 0.0008161458461649 2.964080880961342 L 0.0053649312220205 2.955176374959879 L 0.0102951584158895 2.946477229011179 L 0.0155857664602976 2.937992389108337 L 0.0212139695067357 2.929727569685006 L 0.0271560090669505 2.921685368463117 L 0.0334169687756942 2.913889580453773 L 0.0401650774656153 2.906512525633722 L 0.0473846788097676 2.899595977029182 L 0.0550228043962724 2.893144057529131 L 0.0630308351004878 2.887157112084016 L 0.0713650167511766 2.881632993953767 L 0.0799862858294942 2.876568394275905 L 0.0888598324894554 2.871959897293294 L 0.0979545733447234 2.867804769483063 L 0.1072425637907726 2.864101567699142 L 0.1166983888339059 2.860850614448615 L 0.1262985484557602 2.858054382067296 L 0.1360208379464094 2.85571781886054 L 0.1458435811197605 2.853848663009296 L 0.1557453889235969 2.852457633330301 L 0.1657039007480039 2.851558796682102 L 0.175695256011724 2.851169742624094 L 0.1856930824425493 2.851311787838413 L 0.1956673245331126 2.852010592842116 L 0.2055772674151566 2.853334872095594 L 0.2153574558363305 2.855406879598097 L 0.2249294269683668 2.858290838595346 L 0.2342387423009846 2.861936844415964 L 0.243287379644185 2.866189928115463 L 0.2521307021411001 2.870856834380903 L 0.2608423136500768 2.875765829709735 L 0.2694879041495604 2.880790248722433 L 0.2781157779945271 2.88584595280367 L 0.2867326172783642 2.890920765327814 L 0.2952910177467229 2.896093308470002 L 0.3037293822298217 2.90145876791781 L 0.3119675669532089 2.907125809060879 L 0.3199046985166971 2.913206037683877 L 0.3274230772867988 2.919795641936 L 0.3344023374226408 2.926952660923504 L 0.340743100083511 2.934680506416418 L 0.3463899812280298 2.942929387813515 L 0.351339836169017 2.951615197151809 L 0.3556817609263572 2.960621631477765 L 0.3595970325761213 2.969822380042954 L 0.3631718443508944 2.979160853007009 L 0.3664365073724074 2.988612087167606 L 0.3693914333084871 2.998164619377599 L 0.3720134365464283 3.007814274952409 L 0.374252654625864 3.017560090090125 L 0.3760207507316826 3.027402012362495 L 0.3771617997193122 3.037335293029137 L 0.3774577806509303 3.047329027911615 L 0.3770121148214702 3.057317434732901 L 0.375899211393742 3.067253582617544 L 0.3741721440231762 3.077101926123116 L 0.3718848162715265 3.086835553305206 L 0.3690892630721549 3.0964359006192 L 0.3658341876537872 3.105890608474823 L 0.3621641527101698 3.115192177216618 L 0.358119133884955 3.124337094126442 L 0.3537348982955439 3.133324024383648 L 0.3490426100419999 3.142154344332659 L 0.3440700276472786 3.150829760088692 L 0.3388411255802204 3.159353304326311 L 0.3333770711996271 3.167727887595141 L 0.3276960078792745 3.175956936331449 L 0.3218138602734903 3.184043385750355 L 0.3157442681865117 3.191989988124586 L 0.3094441122904543 3.199753740427027 L 0.3026125336633214 3.207053067863215 L 0.2953312254988161 3.213905047389889 L 0.2877006456503173 3.220366550244856 L 0.2797838187798316 3.226474006939348 L 0.2716207451481214 3.232248787113729 L 0.2632363650994156 3.237699501540683 L 0.2546472681289753 3.242821108862047 L 0.2458608905882862 3.247595741954325 L 0.2368776688051666 3.251988117217488 L 0.2276915992458335 3.255937401992314 L 0.2182903322894178 3.259340686078934 L 0.2086581085094092 3.262016049988295 L 0.1988083653547985 3.26372099008849 L 0.1888465654446971 3.26457821096436 L 0.1788496515760372 3.26477656203426 L 0.1688562752351652 3.26443538227447 L 0.1588892086838038 3.263628909774441 L 0.1489655616685503 3.262398172387282 L 0.1391024912148211 3.260753534533119 L 0.1293507725963412 3.258548505748338 L 0.1197618553943354 3.255716165314453 L 0.1103415207849849 3.252364226857396 L 0.1010837992192721 3.248585830756322 L 0.0919750895507932 3.244460165722692 L 0.0829982274120109 3.240054945115517 L 0.074133189480472 3.235428247414995 L 0.0653589396698937 3.230631188104329 L 0.0562466581708323 3.229100688337883 L 0.0481986007513982 3.234891713251675 L 0.042449788108919 3.243047983919865 L 0.0377428444113459 3.251871480578829 L 0.032826439247688 3.260573628176469 L 0.0264677135131599 3.268250105568094 L 0.0178180148466112 3.273101217703734 L 0.0087335994200606 3.27031996469557 L 0.002354667837837 3.262808753650968 L 0.0016602432462731 3.252968612173313 L 0.0047966658978966 3.243498268293068 L 0.0093515545833087 3.234599768590037 L 0.0143259028269158 3.225924428572847 L 0.0191086579352753 3.217145418810039 L 0.0228983113719226 3.207907921038032 L 0.0204032555762686 3.199500098147996 L 0.0136888724227822 3.192096185443073 L 0.0076055162667368 3.18416125454402 L 0.0021796432530206 3.175764626399956 L -0.0025865370622231 3.166976582805903 L -0.006708031312284 3.157868036910439 L -0.0102140487855351 3.148504574714269 L -0.0131431023802922 3.138944625568171 L -0.0155392366905867 3.129237517644043 L -0.0174486361915625 3.119423773700505 L -0.0189179232224959 3.109531210824959 L -0.0199908962375455 3.099586683321362 L -0.0207092072143027 3.089613812219525  z" id="ID_688"/>
   </g>
   <g id="ID_0" color="rgb(0,0,0)" stroke="currentColor" fill="none" stroke-width="0.00005039721436807565"/>
  </g>
 </svg>