<?xml version="1.0" encoding="UTF-8" ?>
 <svg viewBox="1.461274934640134 -2.69772814603451  0.1160814270933821 0.3310551260093959" xmlns="http://www.w3.org/2000/svg" version="1.0" overflow="visible">
  <defs>
   <g id="ID__#42_Model_Space"/>
   <g id="ID__#42_Paper_Space0"/>
   <g id="ID__#42_Paper_Space"/>
  </defs>
  <g id="draft" transform="matrix(1 0 0 -1 0 0)" stroke-width="5.039721436807565E-5">
   <g id="Layer_#32_1" color="rgb(255,0,255)" stroke="currentColor" fill="none" stroke-width="0.00005039721436807565"/>
   <g id="Poliline" color="rgb(0,0,0)" stroke="currentColor" fill="none" stroke-width="0.00005039721436807565">
    <path d="M 1.463583659294272 2.691396114483755 L 1.462476666501791 2.681458125071115 L 1.461728557126815 2.671486718077028 L 1.461333342758853 2.661495119324539 L 1.461274934640134 2.651495681811701 L 1.46152901570507 2.641499349437623 L 1.46206565563395 2.631514156279838 L 1.462852085072081 2.621545494150231 L 1.463855099033237 2.61159627360157 L 1.465042845181018 2.601667411968255 L 1.466363464390491 2.591755077760126 L 1.467538256826519 2.581824471610856 L 1.468586529540346 2.571879570540202 L 1.469633738014278 2.561934540548609 L 1.470814752517344 2.552004651713009 L 1.472280887839191 2.542113355566327 L 1.47420700371653 2.532301936537557 L 1.476678737321391 2.522613484105608 L 1.47965119807406 2.513066489943994 L 1.483087008418536 2.503676255278584 L 1.48694206437063 2.494450114187156 L 1.491168040606087 2.485387594415518 L 1.495714487255229 2.476481483052141 L 1.500530921562982 2.467718320025094 L 1.505567952233228 2.459079970897619 L 1.510778037577906 2.450544812424217 L 1.516115774656749 2.442088867131371 L 1.521537867342118 2.433686775838863 L 1.527002900326119 2.425312589006756 L 1.532471249724954 2.416940044466356 L 1.53790413309598 2.40854400163748 L 1.543262850683038 2.400101623842008 L 1.548509920178877 2.391590743184398 L 1.553610490972383 2.382987515761071 L 1.558525104109151 2.374279029688183 L 1.564380483031209 2.366673020025114 L 1.573722496519301 2.369383114900882 L 1.577356361733516 2.377155443986394 L 1.57250573459592 2.385859291280421 L 1.566303376690497 2.39370029899832 L 1.559782658058373 2.401282089218051 L 1.553301800718921 2.408897067257132 L 1.546865642700502 2.416550642157261 L 1.540579799571562 2.424327670096079 L 1.53455477293888 2.432308030076468 L 1.528899021171534 2.440553642913785 L 1.523712152582572 2.449101926351843 L 1.519077274690799 2.45796082164187 L 1.51495960529634 2.467073122152903 L 1.510932348793118 2.47622631423207 L 1.506720784750572 2.485296182285921 L 1.502606647569718 2.494409376774978 L 1.4988123149748 2.503660572258532 L 1.495516148029559 2.513099811873473 L 1.492796069779525 2.522721174456057 L 1.490634058764229 2.532483036540593 L 1.488955504302879 2.542340307523856 L 1.487646727911795 2.552254114086311 L 1.486591512650772 2.562198017509624 L 1.485681414147127 2.572156381297384 L 1.484817305248682 2.582118945093677 L 1.483908419703824 2.592077533031874 L 1.482925526576754 2.602029176709114 L 1.482039578107364 2.611989833841713 L 1.481477140336025 2.621973303901192 L 1.481579240649165 2.631969390088322 L 1.482109073058283 2.641953926433545 L 1.482035811480937 2.651952981081793 L 1.481617586070839 2.661944329927269 L 1.481084302135145 2.67193013595862 L 1.48068171847098 2.681921648531334 L 1.480794551424446 2.691918098536975 L 1.481417644516341 2.69772814603451 " id="ID_7A2"/>
   </g>
   <g id="ID_0" color="rgb(0,0,0)" stroke="currentColor" fill="none" stroke-width="0.00005039721436807565"/>
  </g>
 </svg>