<?xml version="1.0" encoding="UTF-8" ?>
 <svg viewBox="-0.9431741157454949 -5.963969587250088  0.40879769772746677 0.4191623598275056" xmlns="http://www.w3.org/2000/svg" version="1.0" overflow="visible">
  <defs>
   <g id="ID__#42_Model_Space"/>
   <g id="ID__#42_Paper_Space0"/>
   <g id="ID__#42_Paper_Space"/>
  </defs>
  <g id="draft" transform="matrix(1 0 0 -1 0 0)" stroke-width="5.039721436807565E-5">
   <g id="Poliline" color="rgb(0,0,0)" stroke="currentColor" fill="none" stroke-width="0.00005039721436807565">
    <path d="M -0.8240824649890328 5.599728283872114 L -0.8198604710132757 5.590732081324317 L -0.8129293957889114 5.583574789639654 L -0.8041131557705671 5.578974427510519 L -0.7942865819627825 5.579066959852146 L -0.782321115881567 5.589661865793416 L -0.7899989437929626 5.593146569452148 L -0.7983923921302685 5.598562040308045 L -0.8073221395250209 5.603060270009995 L -0.8162925773835771 5.607478502788461 L -0.8237366421276179 5.6113216101907  z" id="ID_518"/>
    <path d="M -0.9090824690263161 5.712728289239326 L -0.9129395115154084 5.721952988088156 L -0.9162501228322463 5.731387551165096 L -0.9189915657687902 5.7410028711075 L -0.9211366774609652 5.750768450622581 L -0.9226542298757633 5.760650886837781 L -0.9235096541780514 5.770612212165621 L -0.9236663334761381 5.780608849500218 L -0.9230874952093586 5.790589707507534 L -0.921739022750601 5.800495717065865 L -0.9195930228567696 5.810259772089679 L -0.9166320245146364 5.819807804733603 L -0.9128526539040775 5.829062745081484 L -0.911082469121311 5.83272829493902 " id="ID_519"/>
    <path d="M -0.9190824695012906 5.838728295224004 L -0.9152071360692781 5.847946686082863 L -0.9111557861669146 5.857089233487422 L -0.9069676842904295 5.866170316728114 L -0.9026437900974944 5.875187892176153 L -0.8981629702591851 5.884128724315771 L -0.8934747187328779 5.892961411411349 L -0.8884337602004785 5.901595830001411 L -0.8825126007771419 5.909644680421954 L -0.8755009108071627 5.91676046563325 L -0.867554054497714 5.922818862511711 L -0.8590310012898498 5.928044810167123 L -0.8502593854164546 5.932845917323231 L -0.8414627541571357 5.937601250667937 L -0.8328250702082016 5.942638767908777 L -0.8242014027024726 5.94770229649868 L -0.8153940448839502 5.952435085781397 L -0.8062435338581925 5.956458288971764 L -0.7966896405249067 5.959386341336609 L -0.7868528364252594 5.961169560909573 L -0.776926429766073 5.962376730727361 L -0.7669825611314849 5.96343486241186 L -0.7570047767585786 5.963969587250088 L -0.7470251992221515 5.96337816389624 L -0.7370770648212233 5.962362736114796 L -0.7271031302557374 5.961668300515349 L -0.7171042894830535 5.961599865745711 L -0.7071058161889461 5.961524291301148 L -0.6972079299867548 5.960218989638894 L -0.6877342522183599 5.957040477007069 L -0.6785262700179553 5.953141566501649 L -0.66939252754052 5.949070319654921 L -0.6602111617069939 5.945107923983276 L -0.6509030492773018 5.941453527210927 L -0.6417853059796786 5.93735282764071 L -0.6329856119348971 5.932606069735575 L -0.6244667770675286 5.927370488582281 L -0.6161759782153027 5.921780159679561 L -0.6080468521132305 5.915956402903682 L -0.6000588429214186 5.909941516232025 L -0.5923605917695305 5.903560642891388 L -0.5850267018602935 5.89676514734492 L -0.5781304762772681 5.889526560017676 L -0.571741222114805 5.881837116262042 L -0.5659065437761255 5.873718585286406 L -0.5606322926819445 5.865224618191425 L -0.5558701376909881 5.856432803644028 L -0.5515211227416055 5.847428742977051 L -0.5475716909083888 5.838243161559478 L -0.5441692554689554 5.828841278134868 L -0.5412668415347452 5.819272809575953 L -0.5388402409764926 5.809572716056041 L -0.5368881144108331 5.799765741709105 L -0.5354293689930812 5.78987382929835 L -0.5345031858129206 5.779918152602971 L -0.5343764180180282 5.769927125085938 L -0.5356381623499537 5.760011712335023 L -0.537309642446184 5.750152745142655 L -0.5384239273643275 5.740217617803568 L -0.5391823364780945 5.730246619402269 L -0.5399973713631026 5.720280507533121 L -0.5414848907573795 5.710396316274977 L -0.5442623858047666 5.700800081830558 L -0.5483587749671895 5.691681499708511 L -0.553025692047231 5.682838526133721 L -0.5581551958193351 5.674256663675521 L -0.5637315592546904 5.665957012830023 L -0.5697399099286251 5.657964994781132 L -0.5761673791816478 5.650305933093486 L -0.5830008521783397 5.643006477400734 L -0.5902256477848411 5.636094344605133 L -0.5978253264624396 5.629596972128227 L -0.6057811128327854 5.623540823539918 L -0.6140711577064462 5.617950814771422 L -0.6226703061016359 5.612849358996369 L -0.6315508087223192 5.608255078024254 L -0.6406756954921864 5.604167134187989 L -0.6498565426501957 5.600204771796625 L -0.6593207082664616 5.596994763127521 L -0.6691385216514627 5.595146409536875 L -0.6770824580069075 5.594728283634627 L -0.6989348099793702 5.591102142948699 L -0.7088691905106579 5.590038676298175 L -0.7188604368907692 5.589629162052892 L -0.7280059971756199 5.586426210858625 L -0.7356026698481247 5.579929583523576 L -0.7428384536175008 5.573027176334227 L -0.7501122376259666 5.566164715107848 L -0.7577297363828573 5.559689789224647 L -0.7660573579144865 5.554175432148355 L -0.7752114766443601 5.550165484687433 L -0.7847634898414793 5.547223253615255 L -0.7945870825108718 5.545384415377276 L -0.8045623229775715 5.544807227422583 L -0.8144917409243195 5.54585528540554 L -0.8239740033070708 5.548973005009266 L -0.8326053057870064 5.553986812933489 L -0.8400840561554341 5.560602476762338 L -0.8463403565937142 5.568390722747566 L -0.8514791723554298 5.576962093226745 L -0.855670302434473 5.586037312072228 L -0.8590808544326238 5.595435304044982 L -0.861852042476209 5.60504214302229 L -0.8640969316045463 5.614785845258956 L -0.8659048540626539 5.624620434754217 L -0.86782679744649 5.634213708048925 L -0.8759374242883595 5.640058149515549 L -0.8835353241640548 5.64655582557029 L -0.8906015569061702 5.653628405513632 L -0.8971187108069464 5.661210152783952 L -0.903067143499979 5.66924593248548 L -0.9084219477673274 5.67768877656852 L -0.9131505732956606 5.686497686480387 L -0.9172099414991752 5.695634103332785 L -0.9205442653239722 5.705059001134113 L -0.9230824696912804 5.71472828933432 " id="ID_51A"/>
    <path d="M -0.9110824691213119 5.83272829493902 L -0.9034450524052317 5.831665246045993 L -0.8943102644715699 5.827729085556221 L -0.8873323360568639 5.820652886129994 L -0.8830756908762804 5.811638843473133 L -0.8807879082591618 5.801914417730008 L -0.8795881836288446 5.791989245359674 L -0.8787832655492611 5.782022908951938 L -0.877469402241811 5.772126797838223 L -0.8736874007281212 5.762944847845763 L -0.8731403323267477 5.752978639820289 L -0.8746223475111358 5.743105737069797 L -0.8780066078317414 5.733713291052438 L -0.8832418751008158 5.72521660885305 L -0.8903408937326018 5.718215938183387 L -0.8991949193402444 5.713675429777463 L -0.9090824690263161 5.712728289239326 L -0.9135259478752937 5.711944445978618 L -0.9230824696912804 5.71472828933432 L -0.9268791135438814 5.723967941897273 L -0.9296668076672132 5.733569783177555 L -0.9321351284292038 5.743260561911655 L -0.9348333037736002 5.75288855311565 L -0.9379906071133357 5.762376591250421 L -0.9411619618134396 5.771859895616043 L -0.9431741157454949 5.781627029282115 L -0.9428727785032595 5.791607241791535 L -0.9409379723216844 5.801409655754566 L -0.9377189548406237 5.810870784574219 L -0.9333832552321084 5.819875618765879 L -0.9280201809021608 5.828308995333652 L -0.9216895817070831 5.836042078846413 L -0.9190824695012906 5.838728295224004 L -0.9111896373280234 5.832992232076659  z" id="ID_51B"/>
   </g>
   <g id="ID_0" color="rgb(0,0,0)" stroke="currentColor" fill="none" stroke-width="0.00005039721436807565"/>
  </g>
 </svg>