<?xml version="1.0" encoding="UTF-8" ?>
 <svg viewBox="0.6229176037397793 -6.531536291394488  0.12710530478639004 0.0486171479941353" xmlns="http://www.w3.org/2000/svg" version="1.0" overflow="visible">
  <defs>
   <g id="ID__#42_Model_Space"/>
   <g id="ID__#42_Paper_Space0"/>
   <g id="ID__#42_Paper_Space"/>
  </defs>
  <g id="draft" transform="matrix(1 0 0 -1 0 0)" stroke-width="5.039721436807565E-5">
   <g id="Layer_#32_1" color="rgb(255,0,255)" stroke="currentColor" fill="none" stroke-width="0.00005039721436807565"/>
   <g id="Poliline" color="rgb(0,0,0)" stroke="currentColor" fill="none" stroke-width="0.00005039721436807565">
    <path d="M 0.6229176037397793 6.500728326667317 L 0.6267747767120327 6.491593171470722 L 0.6349126029524684 6.486067977185562 L 0.6447886934446992 6.484733778915064 L 0.6547845393879204 6.4849557829686 L 0.6647795462172282 6.484926674286603 L 0.6745340841743817 6.482919143400353 L 0.6836295458723658 6.484855002633961 L 0.6925678335736523 6.489336708138618 L 0.7017991925016203 6.493158000388879 L 0.7115973619966836 6.495003298647142 L 0.7191720421305697 6.500278379902508 L 0.7268113654539033 6.50671716048887 L 0.7350109779536638 6.512440019410352 L 0.7430861496132888 6.518333971681598 L 0.7500229085261694 6.525351511718951 L 0.7428925569710155 6.531536291394488 L 0.7333460049021348 6.529908732877791 L 0.7258067825425432 6.523371694266172 L 0.7184096594968814 6.516654863778951 L 0.7104746736703956 6.510572858955178 L 0.7021683236732291 6.505003173920121 L 0.6933435286270333 6.500319003881801 L 0.6838906534141529 6.497109748165335 L 0.673961678304428 6.496257981723245 L 0.6642677662371251 6.49851817938542 L 0.6557190596150813 6.503643398819229 L 0.6486036406490668 6.51064701554496 L 0.6469176048797181 6.512728327237288 " id="ID_7DA"/>
   </g>
   <g id="ID_0" color="rgb(0,0,0)" stroke="currentColor" fill="none" stroke-width="0.00005039721436807565"/>
  </g>
 </svg>