<?xml version="1.0" encoding="UTF-8" ?>
 <svg viewBox="2.864622271049727 -4.028976225396551  0.06549262808986 0.1315018404608983" xmlns="http://www.w3.org/2000/svg" version="1.0" overflow="visible">
  <defs>
   <g id="ID__#42_Model_Space"/>
   <g id="ID__#42_Paper_Space0"/>
   <g id="ID__#42_Paper_Space"/>
  </defs>
  <g id="draft" transform="matrix(1 0 0 -1 0 0)" stroke-width="5.039721436807565E-5">
   <g id="Layer_#32_1" color="rgb(255,0,255)" stroke="currentColor" fill="none" stroke-width="0.00005039721436807565"/>
   <g id="Poliline" color="rgb(0,0,0)" stroke="currentColor" fill="none" stroke-width="0.00005039721436807565">
    <path d="M 2.867917710371557 3.997728207781197 L 2.864622271049727 4.007107197670217 L 2.866221336465417 4.01681977843066 L 2.873005545125487 4.024012203522808 L 2.882179928730418 4.027875423961553 L 2.892090286602679 4.028976225396551 L 2.901938625695619 4.027442460368831 L 2.908779955113178 4.021300274533061 L 2.911575062140108 4.01170317909508 L 2.913589621135714 4.001910864220493 L 2.915066479334732 3.992021211550033 L 2.916246713638183 3.982091236336097 L 2.917361267354913 3.972153582687266 L 2.918633053919405 3.962235143892529 L 2.920281224333974 3.952372987576875 L 2.922535294876244 3.942633245085957 L 2.925999790843146 3.933255732169273 L 2.929058366741157 3.923744251768571 L 2.930114899139587 3.913826856914781 L 2.928616683626088 3.903966420982206 L 2.920532281468345 3.899401351155436 L 2.910735841561256 3.897474384935653 L 2.900799018742436 3.898103428098828 L 2.895342606658294 3.90637845442273 L 2.891151057240101 3.915450788236794 L 2.887942717409207 3.924917779055411 L 2.885463531404581 3.934604484258372 L 2.883436909626484 3.944396151263291 L 2.881589023281618 3.954222881703824 L 2.879651845042565 3.964033172077746 L 2.877357376193819 3.973765331007887 L 2.874435157329894 3.983326024728171 L 2.870628369850175 3.992567863894713  z" id="ID_7B2"/>
   </g>
   <g id="ID_0" color="rgb(0,0,0)" stroke="currentColor" fill="none" stroke-width="0.00005039721436807565"/>
  </g>
 </svg>