<?xml version="1.0" encoding="UTF-8" ?>
 <svg viewBox="0.1239777750845459 -4.849575972842774  0.3394290743507398 0.4802790529267842" xmlns="http://www.w3.org/2000/svg" version="1.0" overflow="visible">
  <defs>
   <g id="ID__#42_Model_Space"/>
   <g id="ID__#42_Paper_Space0"/>
   <g id="ID__#42_Paper_Space"/>
  </defs>
  <g id="draft" transform="matrix(1 0 0 -1 0 0)" stroke-width="5.039721436807565E-5">
   <g id="Poliline" color="rgb(0,0,0)" stroke="currentColor" fill="none" stroke-width="0.00005039721436807565">
    <path d="M 0.262417586616948 4.380228225948972 L 0.2702139757476756 4.37412541907536 L 0.27971689583641 4.371090220686365 L 0.2896189695197044 4.369739520011005 L 0.2996073098427425 4.36929691991599 L 0.3096065613819094 4.369364726132907 L 0.3196006230698209 4.369707136039034 L 0.32959005053557 4.370165113005755 L 0.3395675875160142 4.370828364091657 L 0.3494832154639642 4.372092237841904 L 0.3591374178445381 4.374644291244788 L 0.3677660596046488 4.37959662114601 L 0.3679175916279291 4.379728225925225 " id="ID_590"/>
    <path d="M 0.2979175883031075 4.387728226305203 L 0.3075316723741022 4.385039522035246 L 0.3174733986746521 4.384055837305977 L 0.327453248585635 4.384536938492507 L 0.3372338998208102 4.386561067366006 L 0.3429175904404929 4.3887282263527 " id="ID_591"/>
    <path d="M 0.3429175904404929 4.3887282263527 L 0.3497003097347973 4.38757849948541 L 0.3592501371356498 4.38465741294307 L 0.3679175916279291 4.379728225925223 L 0.3777435029059779 4.379942434975847 L 0.3866039952341884 4.384500655252235 L 0.3943466172801262 4.390815008814458 L 0.4013138427586176 4.397983924549114 L 0.4077102073335892 4.405669378655865 L 0.4136367601727402 4.413723919363533 L 0.419106298135441 4.42209400359809 L 0.4240041476317744 4.430810325686568 L 0.4285845193570364 4.439699520049334 L 0.4329259181463537 4.448707729171998 L 0.4370212010508885 4.457830441822469 L 0.4408622206115052 4.467062828230973 L 0.4444402706059414 4.476400481155529 L 0.4477456193915606 4.485837957124793 L 0.4507680794517537 4.495369879809851 L 0.4534968261765675 4.504990113559212 L 0.4559204851773329 4.514691421991683 L 0.4580275671310332 4.524466545392394 L 0.4598062342409551 4.534306558194019 L 0.4612447691141366 4.544202006211449 L 0.4623316430273361 4.554142217111138 L 0.4630557866746106 4.564115411806303 L 0.4634068494352857 4.574108719072146 L 0.463375475361592 4.584108034872311 L 0.4629536029712247 4.594098334157591 L 0.4621346977104013 4.604064118585206 L 0.4609140751747738 4.613988597270445 L 0.4592890823475662 4.623854823873985 L 0.4572344366613815 4.6336403826414 L 0.4545247341573857 4.643263858123013 L 0.4510925992423083 4.652653690941084 L 0.4469384259146958 4.661747034626108 L 0.4420826540237757 4.670485931870246 L 0.4365640251748744 4.678822262977869 L 0.4304353472642557 4.686721369631266 L 0.4237584329798523 4.694162919044874 L 0.416693725931995 4.701239979947382 L 0.4095351420457574 4.708222453361369 L 0.402333514851514 4.715160882511792 L 0.3951255871155261 4.722092907594202 L 0.3879490637861913 4.729057265022202 L 0.3808462345964889 4.736096562483449 L 0.3738693548532987 4.743260446849856 L 0.367089125829545 4.750610226195606 L 0.3606098876701314 4.758226087628919 L 0.3546013523185607 4.766216865228567 L 0.3529175909154674 4.768728244401732 L 0.3497408675125939 4.77817800539659 L 0.3479760011658177 4.788019107939742 L 0.3465898575578015 4.797923201511743 L 0.3451683940193959 4.807822650327132 L 0.3433883693630069 4.817662191171459 L 0.3408286198414476 4.827320269100942 L 0.3367063148280707 4.836404118047902 L 0.3295677426694015 4.843220411167241 L 0.3197980346797218 4.844300591965607 L 0.3194175893243027 4.844228247987789 L 0.3103263426132932 4.848215915063498 L 0.3004357587766941 4.849575972842774 L 0.2904445236168991 4.849365840389603 L 0.280532194363305 4.848067302903325 L 0.2707722576486518 4.845897790045896 L 0.261221764072241 4.842940595422827 L 0.2519567108401661 4.839185756085935 L 0.243114510452803 4.834526108479941 L 0.2349959051754729 4.828707546939252 L 0.2284175850020347 4.821228246895348 L 0.2236449260733062 4.813345793125206 L 0.2204977312176393 4.803870358822592 L 0.2189136238179126 4.794003814959655 L 0.2184321324843292 4.784018828524001 L 0.2187322685630715 4.77402509742555 L 0.2195836002074438 4.764062228555109 L 0.2192157091948026 4.763645188967634 L 0.2126806312355214 4.756076391316094 L 0.2062517216114363 4.748417259193482 L 0.1998787719062003 4.740711036003586 L 0.193523222291109 4.732990406464969 L 0.1871490245437162 4.725285107029357 L 0.1807159134407641 4.717628871449438 L 0.1742172893532201 4.710028408029934 L 0.167753968087184 4.702398005036197 L 0.1613943726280933 4.694681010346819 L 0.1552179234920121 4.686817039147285 L 0.1493187113027847 4.678743405007985 L 0.1438047122496542 4.670401151503298 L 0.1387962865430614 4.661749434471424 L 0.1344093120298595 4.652765887034764 L 0.1307444137439564 4.643461996777404 L 0.1278701111616378 4.633888402023135 L 0.125805569242674 4.624107548691679 L 0.1245271233490026 4.614192587315955 L 0.1239777750845459 4.60421002731547 L 0.124082352794618 4.594212110197322 L 0.1247376517272665 4.58423441043617 L 0.1256655622583329 4.574277720264177 L 0.1268327346842062 4.564346326973627 L 0.1282766250320577 4.554451482220803 L 0.1300371325119274 4.544608164040038 L 0.1321570663564371 4.534836101639495 L 0.1346850120154599 4.52516181508632 L 0.1379200283306918 4.515702484340991 L 0.1417666442438836 4.506472776110442 L 0.1460312977204081 4.497427603585606 L 0.1506254092866301 4.488544485131104 L 0.1555020893091639 4.479813366546055 L 0.1606357892746626 4.47123087402948 L 0.1660131086335079 4.462799197583608 L 0.1716290151234006 4.454524693058905 L 0.1774845185778124 4.446418159561014 L 0.183585698349999 4.438495076245812 L 0.1899432527106688 4.430776412788173 L 0.1965724066270749 4.423289970343347 L 0.2034930300856894 4.416072419254959 L 0.2107298145634884 4.409172314049019 L 0.2183123318081286 4.402654449918292 L 0.2262739562057385 4.396606560715664 L 0.2346496228494947 4.39114805766732 L 0.2434686943305042 4.38644219476216 L 0.2527392431152613 4.38270877691432 L 0.262417586616948 4.380228225948972 L 0.2718794040412753 4.383464423159329 L 0.281457473030362 4.386328414139512 L 0.2913193139245296 4.387897687969012 L 0.2979175883031075 4.387728226305203 L 0.3066661623015738 4.392513332050556 L 0.3162731902480989 4.39522556214829 L 0.3262324866005555 4.395828716520902 L 0.3359408122197127 4.393644376167191  z" id="ID_592"/>
    <path d="M 0.2195836002074429 4.764062228555108 L 0.2281089233534441 4.75884724343296 L 0.2371986425727481 4.754692871590076 L 0.2467071982090667 4.751613805046794 L 0.2564922658494977 4.749572736855538 L 0.2664305464849868 4.748496747506443 L 0.27642559351185 4.748295372068447 L 0.2864064305941376 4.748875184471353 L 0.2963231256194385 4.750148660518588 L 0.3061413890050684 4.752038500309291 L 0.3158377345017369 4.754479045462884 L 0.3253956053140437 4.757416193751069 L 0.3348013316022405 4.760806340091027 L 0.344046949944266 4.764617737873184 L 0.3529175909154674 4.768728244401732 " id="ID_593"/>
    <path d="M 0.2612496178114725 4.776396213515941 L 0.2703746720837614 4.78006162635579 L 0.280084155055321 4.782429694255894 L 0.2900220386350467 4.783445811850649 L 0.2999673054330714 4.782609700193042 L 0.3041168073475546 4.781529026259738 " id="ID_594"/>
    <path d="M 0.2284175850020347 4.821228246895348 L 0.2333735606334795 4.812609059219983 L 0.2359616818267414 4.802959261809693 L 0.2381394209849432 4.793200993435316 L 0.2418231800746087 4.783935777463396 L 0.2489568291641397 4.777596362534421 L 0.25879600754803 4.776050134418321 L 0.2612496178114725 4.776396213515941 L 0.2707235312608773 4.773250816054217 L 0.2806397707700272 4.772115963695735 L 0.2905344854621958 4.77334311945945 L 0.2995787836484647 4.777489811593829 L 0.3041168073475546 4.781529026259736 L 0.3091092338723538 4.782035693401441 L 0.3181399898533685 4.786030600442076 L 0.3229000658467607 4.79462569643344 L 0.3234576282235819 4.804577795384984 L 0.322272744216157 4.814503819238655 L 0.3205786845403322 4.824359602132364 L 0.3191998519714234 4.83426154624321 L 0.3194175893243027 4.844228247987789 " id="ID_595"/>
   </g>
   <g id="ID_0" color="rgb(0,0,0)" stroke="currentColor" fill="none" stroke-width="0.00005039721436807565"/>
  </g>
 </svg>