<?xml version="1.0" encoding="UTF-8" ?>
 <svg viewBox="-2.116578852003692 -3.002819687475897  0.3475372278660531 0.3000915412038996" xmlns="http://www.w3.org/2000/svg" version="1.0" overflow="visible">
  <defs>
   <g id="ID__#42_Model_Space"/>
   <g id="ID__#42_Paper_Space0"/>
   <g id="ID__#42_Paper_Space"/>
  </defs>
  <g id="draft" transform="matrix(1 0 0 -1 0 0)" stroke-width="5.039721436807565E-5">
   <g id="Layer_#32_1" color="rgb(255,0,255)" stroke="currentColor" fill="none" stroke-width="0.00005039721436807565"/>
   <g id="Poliline" color="rgb(0,0,0)" stroke="currentColor" fill="none" stroke-width="0.00005039721436807565">
    <path d="M -1.869749506843049 2.870062138594935 L -1.866473534390634 2.868650445052432 L -1.857583860717461 2.864079781846907 L -1.849181183796577 2.858665158952142 L -1.841316680179704 2.852494274469306 L -1.834021100739839 2.845659413263897 L -1.827308808953117 2.838250225233423 L -1.821182724406947 2.830349350808932 L -1.815638425555421 2.822029562508262 L -1.810668716827436 2.81335407926384 L -1.806266570055041 2.804377096560305 L -1.802427542657868 2.795145045198925 L -1.799151801111584 2.78569828882688 L -1.794161844370842 2.777755387143514 L -1.784335608438401 2.776731464704774 L -1.77894480963738 2.777294311723668 L -1.774386907865391 2.77890131092187 L -1.772082510016616 2.781728150024296 L -1.771884786183778 2.782368838020124 L -1.76972075046843 2.79212181691374 L -1.769041624137639 2.802089313967424 L -1.769775705360782 2.81205460054867 L -1.771766019593282 2.821848567537726 L -1.774822931153303 2.831365431199506 L -1.778763757726303 2.840552892617475 L -1.783431501528022 2.849394191475894 L -1.788699008742155 2.857892490571815 L -1.794466353959496 2.86606029061394 L -1.800656219976095 2.873912980629896 L -1.807209676596554 2.881465239033159 L -1.814082512011509 2.888728155106523 L -1.823648716522578 2.891614104884904 L -1.832882549925063 2.895448321975608 L -1.841995532872957 2.899565771381535 L -1.851248491086426 2.903352810352629 L -1.859082514148894 2.90572815591398 " id="ID_739"/>
    <path d="M -1.814082512011509 2.888728155106523 L -1.816502219320269 2.894713117626219 L -1.820833266511131 2.903723794777709 L -1.8258346998776 2.91238051192716 L -1.831450539142146 2.920652129809667 L -1.8376160316342 2.928523105881742 L -1.844262336720242 2.935992805039939 L -1.851320963187878 2.943074577628788 L -1.858726074872573 2.949793632118618 L -1.86641548536715 2.956185790033794 L -1.87432998598561 2.962297449640633 L -1.882410617257585 2.968187711974431 L -1.89062733262314 2.973886792982806 L -1.899147605030602 2.979118633707654 L -1.907991328911517 2.983782539790501 L -1.917126295055171 2.987846380629408 L -1.926507476561375 2.991304404077988 L -1.936083774506204 2.994179451191101 L -1.945804994453561 2.996519115794214 L -1.955627884747523 2.998387999162877 L -1.965518482621055 2.999858635758393 L -1.975452188395403 3.001003946147587 L -1.98541230436296 3.00189216768997 L -1.995391795863282 3.002524265155283 L -2.00538680874978 3.002819687475897 L -2.015385535415836 3.002737216612061 L -2.025371421335351 3.002226799339698 L -2.035320104124737 3.001227247640372 L -2.04519563488361 2.999664176929572 L -2.054944802905495 2.997448339796047 L -2.064489652590245 2.994475460996238 L -2.073716444562706 2.990630717457282 L -2.082466489126246 2.985801525278457 L -2.090533135562623 2.979904281807497 L -2.097680171594054 2.972922865460736 L -2.10368938541064 2.964942009133013 L -2.108422915163636 2.956143816150301 L -2.111789591581428 2.946735986452084 L -2.114115026601355 2.937013627775337 L -2.115698775749502 2.927142202785333 L -2.116578852003692 2.917184766077042 L -2.116194619120494 2.907200232309881 L -2.114499037906605 2.897352277582601 L -2.11167485797643 2.887764433644893 L -2.10795698462682 2.878483246108823 L -2.103576396121019 2.869495670944845 L -2.098729815791938 2.860749559893685 L -2.093577096223438 2.852179666918711 L -2.088246607816555 2.843718849564918 L -2.082843735245261 2.835304709905509 L -2.077456321055938 2.826879449426762 L -2.072163492148739 2.81839544174041 L -2.067009523336432 2.809827010031728 L -2.061879155465188 2.801241844814992 L -2.056699222954692 2.792686945001984 L -2.051415613888433 2.784196093806766 L -2.0459594280905 2.775818682295449 L -2.040194447716237 2.767648521357966 L -2.033786537319799 2.759978398564685 L -2.026618059389965 2.75301126567407 L -2.018884727231125 2.746671720744394 L -2.010733651508535 2.740881215224247 L -2.002270013008002 2.73555717775355 L -1.993572057132168 2.73062346773502 L -1.984699951585031 2.726011234860962 L -1.975698225644125 2.72165541075058 L -1.966605140695913 2.717494318566934 L -1.957453379406308 2.713463829623137 L -1.948225536977059 2.709614930153668 L -1.938687209485991 2.706622984407962 L -1.928943961550337 2.704379525129162 L -1.919082516998741 2.702728146271997 L -1.909100367068684 2.703132530806746 L -1.899234573578915 2.704742092325515 L -1.889529514951684 2.707144829840759 L -1.879984772632639 2.710124420081088 L -1.870592715674404 2.713556500508699 L -1.861346791016345 2.717365652018845 L -1.852243900973303 2.721505657363827 L -1.843285186480014 2.725950020969746 L -1.834478609996624 2.730686697551057 L -1.825837092343835 2.735718831297395 L -1.8173864265088 2.741064256659537 L -1.80918151483001 2.746778724872644 L -1.801411876287577 2.753069487611638 L -1.794303334601309 2.760095034929154 L -1.791721632274944 2.763450403995078 L -1.78497739200381 2.769661153377061 L -1.782028154188225 2.774749972458739 L -1.781640209037891 2.777012888214221 " id="ID_73A"/>
   </g>
   <g id="ID_0" color="rgb(0,0,0)" stroke="currentColor" fill="none" stroke-width="0.00005039721436807565"/>
  </g>
 </svg>