<?xml version="1.0" encoding="UTF-8" ?>
 <svg viewBox="-0.2161857453670049 -2.780828426171925  0.2886033229594372 0.2824317607042719" xmlns="http://www.w3.org/2000/svg" version="1.0" overflow="visible">
  <defs>
   <g id="ID__#42_Model_Space"/>
   <g id="ID__#42_Paper_Space0"/>
   <g id="ID__#42_Paper_Space"/>
  </defs>
  <g id="draft" transform="matrix(1 0 0 -1 0 0)" stroke-width="5.039721436807565E-5">
   <g id="Layer_#32_1" color="rgb(255,0,255)" stroke="currentColor" fill="none" stroke-width="0.00005039721436807565"/>
   <g id="Poliline" color="rgb(0,0,0)" stroke="currentColor" fill="none" stroke-width="0.00005039721436807565">
    <path d="M -0.1580824333557302 2.601728141474755 L -0.1532576025827801 2.593159282748844 L -0.1443126252434199 2.58889821812744 L -0.1345532944109316 2.586723540449908 L -0.125978957421327 2.582204822407904 L -0.124251600245409 2.572476170962948 L -0.1206625075025629 2.563868312389969 L -0.1109667525169611 2.561599921862871 L -0.1009749011029264 2.561274957318863 L -0.0910186830893265 2.560476881714899 L -0.0817280039627013 2.556982544281998 L -0.0739253854718065 2.550737942586328 L -0.0652092543092033 2.546044066013005 L -0.0561280809772642 2.548833344447002 L -0.0488357461932507 2.555648657594836 L -0.0429555637292287 2.563722939142479 L -0.0378823047190693 2.572339582855091 L -0.0325956688594067 2.580827477975862 L -0.0265549134532641 2.588788016495936 L -0.0197169217695228 2.596078278690519 L -0.0120465463590813 2.602492943344923 L -0.0072424791855727 2.61089036840546 L -0.008167205667438 2.620758111207756 L -0.0122048235192578 2.629893428180304 L -0.0163022764483412 2.639000385982329 L -0.0174178616337812 2.648850476802055 L -0.0145803295414337 2.658299951142101 L -0.0204252369614118 2.666164780847102 L -0.0271938265387872 2.673419299465642 L -0.0254317161582547 2.682777039950142 L -0.022251310818902 2.692217335794099 L -0.0273873933659914 2.698514585554022 L -0.0373117225462885 2.699633358249549 L -0.047310002661348 2.699620842482525 L -0.0573063994299989 2.69956377405834 L -0.0672398084271784 2.700611974174826 L -0.0770551107220605 2.702522182677949 L -0.0870086908002499 2.703121829508768 L -0.0968915005280087 2.701622481342047 L -0.1067012602119552 2.699683743128893 L -0.1165455955879473 2.69792885030802 L -0.1264654372019303 2.696677570160382 L -0.1364496736940355 2.69617899773366 L -0.1458395390075067 2.695288448338388 L -0.150686586576489 2.686575100266564 L -0.1531509757359846 2.676908305197402 L -0.153672677592434 2.666933980622747 L -0.1530217492350907 2.656958431956976 L -0.1518944717399302 2.64702239015172 L -0.150887905432536 2.637074025655069 L -0.1505975064878111 2.627082841372489 L -0.1516814578648411 2.617154349798632 L -0.1547444092362742 2.607658180538315  z" id="ID_715"/>
    <path d="M -0.1087494232000381 2.767728149359331 L -0.1059543737687711 2.768819883996897 L -0.0964676070686128 2.7719765516396 L -0.0868085836196571 2.774561889846042 L -0.0770373417923649 2.776684829647091 L -0.0671838514423344 2.778386725573389 L -0.0572672309485052 2.779670003953038 L -0.0473031603945513 2.780505491757937 L -0.0373096054247686 2.780828426171925 L -0.0273163598949493 2.780522525503187 L -0.0173856319044186 2.779382566501107 L -0.0076606036513036 2.77708511653847 L 0.0016926228967238 2.773566181137621 L 0.0105606362234765 2.768956785566055 L 0.0188728143446237 2.763405467072454 L 0.026594036665843 2.757056445672345 L 0.0337132165055048 2.75003800721757 L 0.0402327719245275 2.742458641833948 L 0.0461607515005804 2.734407703869782 L 0.0515055502713384 2.725958062017472 L 0.0562725165204503 2.717169303644851 L 0.0604617270985894 2.708090858160611 L 0.0640663744282915 2.698764857045841 L 0.0670713454964131 2.689228890759247 L 0.0694519280667061 2.679518155716094 L 0.0711719295016371 2.669669176130282 L 0.0721820055708449 2.659722619305028 L 0.0724175775924323 2.649728143754632 L 0.0711977574911043 2.63980553136448 L 0.0692000869459628 2.630009652022289 L 0.0664680880999349 2.620392475472842 L 0.0630503649325052 2.610996891625113 L 0.0589972408444135 2.601857212869001 L 0.054358118950427 2.59300017810186 L 0.0491800701733904 2.584446989582712 L 0.0435064236731488 2.576214029442592 L 0.0373765448681143 2.568314743190725 L 0.0308257082591492 2.56076076988417 L 0.0238852742375482 2.553563005731584 L 0.0165832432382871 2.546732710217147 L 0.0089435684863251 2.54028130551509 L 0.0009888626979162 2.534223056787515 L -0.0072612964040761 2.528573752086742 L -0.0157886729069166 2.52335232957764 L -0.0245759406004051 2.518581325086767 L -0.0336059191664333 2.514287536173492 L -0.0428686841578081 2.510523897932918 L -0.0523872406804218 2.507466968382285 L -0.0621192456988693 2.505179227678384 L -0.0720035583684879 2.503680574412099 L -0.0819756465138761 2.502969975722148 L -0.0919732118193126 2.503026226362779 L -0.1019402150590505 2.503811273474028 L -0.1118306236566546 2.505275074287473 L -0.1216090760333417 2.507360770950901 L -0.1312506036377616 2.51000919706021 L -0.14073932189073 2.513162260828819 L -0.150066730374677 2.516765144788344 L -0.1588876063581219 2.517896329891026 L -0.1651337066663059 2.510136259300651 L -0.169904788315705 2.501350057084977 L -0.17887786208387 2.498396665467653 L -0.1881774387394337 2.501840929611546 L -0.1958843707741531 2.508170549587568 L -0.2002313599269874 2.516628419080545 L -0.1979402448928873 2.526326626792956 L -0.1943494188954347 2.535657837130036 L -0.1931429470906369 2.54547941323128 L -0.197725618398211 2.554213172328136 L -0.2034062572897524 2.562403299684437 L -0.2073085116598596 2.571599743636181 L -0.210146804691842 2.581185526414197 L -0.2122699925253642 2.590956687710177 L -0.2138614790802453 2.600828230996238 L -0.2150230953482977 2.610759953989317 L -0.2158071231392533 2.620728611631072 L -0.2161857453670049 2.630719869689576 L -0.2159851866371003 2.640714948383745 L -0.2150000750178931 2.650662141994688 L -0.2130358655191484 2.660461739176117 L -0.2099784963869951 2.669976475063471 L -0.2058495968907685 2.679078246986428 L -0.2007918268785112 2.68770024971692 L -0.1949989717235576 2.695848596242033 L -0.1886541486158819 2.703575946885402 L -0.1819029536601793 2.71095176826568 L -0.1748530533480315 2.7180428992471 L -0.1674230380003463 2.724731862899707 L -0.1595662850367328 2.730915863864487 L -0.1514410100580941 2.736744001170281 L -0.1431834697370728 2.742383928157341 L -0.1349074356479418 2.747996978624231 L -0.1267095234569169 2.75372301031547 L -0.1186730979965169 2.759673185807162 L -0.1108706776888146 2.765926673402432  z" id="ID_716"/>
   </g>
   <g id="ID_0" color="rgb(0,0,0)" stroke="currentColor" fill="none" stroke-width="0.00005039721436807565"/>
  </g>
 </svg>