<?xml version="1.0" encoding="UTF-8" ?>
 <svg viewBox="-0.0360981403770486 -5.648228188683853  0.2028854528977781 0.242446298025639" xmlns="http://www.w3.org/2000/svg" version="1.0" overflow="visible">
  <defs>
   <g id="ID__#42_Model_Space"/>
   <g id="ID__#42_Paper_Space0"/>
   <g id="ID__#42_Paper_Space"/>
  </defs>
  <g id="draft" transform="matrix(1 0 0 -1 0 0)" stroke-width="5.039721436807565E-5">
   <g id="Poliline" color="rgb(0,0,0)" stroke="currentColor" fill="none" stroke-width="0.00005039721436807565">
    <path d="M 0.0549175767612269 5.485728278457404 L 0.0648759173962121 5.486332638396913 L 0.074862843400644 5.486778688152035 L 0.0846051556747938 5.488914409289532 L 0.0937279852203155 5.49298090718216 L 0.102132473093465 5.498390469684212 L 0.109971429750388 5.50459173364915 L 0.1176198884351089 5.511032245849132 L 0.1257122861115647 5.516887961148134 L 0.1351255660607959 5.519904051167781 L 0.1443864681833782 5.516620091339872 L 0.1508512735778016 5.509152972512447 L 0.1531586617070788 5.499471565397058 L 0.1528168192746238 5.489499374334622 L 0.1496797036533515 5.480076868982974 L 0.1428828087055409 5.472843661280522 L 0.1339056759210013 5.468522851424931 L 0.1241723062573534 5.46627256719118 L 0.1142445931951741 5.465089083050265 L 0.1042740910458901 5.464322650408299 L 0.0943082339390049 5.463506248143209 L 0.0846862991962505 5.460845673507754 L 0.0753513506011991 5.457260678383153 L 0.065992402014639 5.45373913540918 L 0.0599175769987142 5.451728276842491 " id="ID_4FC"/>
    <path d="M -0.0340824274660463 5.513728279787333 L -0.0283998366125928 5.505500403429683 L -0.0226618789895392 5.497310728047273 L -0.0173677403750441 5.488830794771013 L -0.0130922596085119 5.479800643816851 L -0.010373727245554 5.470191967805326 L -0.0099964629649971 5.460229273657053 L -0.0111895947190011 5.450302105777331 L -0.0118479317678055 5.440335152031323 L -0.0097058146995277 5.430635452176776 L -0.0000747851535614 5.430987499571376 L 0.0098131626207127 5.429606725696151 L 0.019373091338128 5.426693797564989 L 0.0286306127895859 5.422917233568444 L 0.0377279594159745 5.418765528097622 L 0.0468473939605509 5.414662754153928 L 0.0561973178151245 5.411126787245685 L 0.0659222620955324 5.408829139691126 L 0.0758136600633703 5.407367513320306 L 0.0857623056016888 5.406359061128183 L 0.0957451524179112 5.405781890658214 L 0.1057400558444375 5.405962788371862 L 0.1156636746123096 5.407152078505649 L 0.1253305035700309 5.409670889815874 L 0.1343716607543639 5.41390182888141 L 0.1422385012237814 5.420036795122651 L 0.1484315742121858 5.427859613831117 L 0.1531704955467372 5.436658100475692 L 0.157020554102413 5.445884458637803 L 0.1602210179180972 5.455357063205561 L 0.1628621118523155 5.465001175325492 L 0.1649449332904656 5.474781259476068 L 0.1663720688573447 5.48467694370697 L 0.1667873125207295 5.494660279933141 L 0.1661816691081519 5.50464067984618 L 0.1653656113641704 5.514607416424079 L 0.1648773741701675 5.524594240907076 L 0.1649447255918437 5.534593267291866 L 0.164094436211589 5.544547999762712 L 0.1617368933240701 5.554259045393624 L 0.1590411766310833 5.56388760623372 L 0.1573033841014766 5.573717081737674 L 0.1566782157049369 5.583695209562062 L 0.153634265171342 5.593116128638028 L 0.1476502694437149 5.601120348073972 L 0.1414242796006757 5.608945420498449 L 0.1359071084437122 5.617278420487904 L 0.1305682004999813 5.625733859007076 L 0.1246000911328275 5.633752489418607 L 0.1176520787921529 5.640928270471249 L 0.109261490163612 5.646291500147317 L 0.0995009188638871 5.648228188683853 L 0.0896044511063785 5.647086228578826 L 0.0803107436863249 5.643447371368651 L 0.0717087492000408 5.638359172266972 L 0.0635609316074373 5.63256438057771 L 0.0556373490511506 5.626464253600163 L 0.0477807412098255 5.620276805897134 L 0.0398861708992673 5.614137508223349 L 0.0318267721416836 5.608216565265158 L 0.0237193703235184 5.602362518512928 L 0.0157472793676616 5.596327211509595 L 0.0081033152289214 5.589883555357001 L 0.0010002087057455 5.582851076064399 L -0.005080164219839 5.57492576390102 L -0.0104528237253838 5.566492176195064 L -0.0157770482387623 5.558027434321744 L -0.0214537443632903 5.549797174234878 L -0.0275389716026684 5.541864381266924 L -0.0331996101585137 5.533632863173941 L -0.0360981403770486 5.524158392652012  z" id="ID_4FD"/>
   </g>
   <g id="ID_0" color="rgb(0,0,0)" stroke="currentColor" fill="none" stroke-width="0.00005039721436807565"/>
  </g>
 </svg>