<?xml version="1.0" encoding="UTF-8" ?>
 <svg viewBox="1.065657352702349 -3.346366637581215  0.31094228159723514 0.3826384789123831" xmlns="http://www.w3.org/2000/svg" version="1.0" overflow="visible">
  <defs>
   <g id="ID__#42_Model_Space"/>
   <g id="ID__#42_Paper_Space0"/>
   <g id="ID__#42_Paper_Space"/>
  </defs>
  <g id="draft" transform="matrix(1 0 0 -1 0 0)" stroke-width="5.039721436807565E-5">
   <g id="Layer_#32_1" color="rgb(255,0,255)" stroke="currentColor" fill="none" stroke-width="0.00005039721436807565"/>
   <g id="Poliline" color="rgb(0,0,0)" stroke="currentColor" fill="none" stroke-width="0.00005039721436807565">
    <path d="M 1.225917632380742 3.20372817006822 L 1.233665577932324 3.197438567415467 L 1.242566276082279 3.192919800156927 L 1.252230953596837 3.190444064697832 L 1.262183809295946 3.190696532272882 L 1.27134168139601 3.19456159272627 L 1.278631497991725 3.201320627767794 L 1.282585464904983 3.210419268177801 L 1.282564743545256 3.220358393559958 L 1.279206389075467 3.229732830388059 L 1.273272961730614 3.237740742959054 L 1.265292646951081 3.24370019666102 L 1.255836273498366 3.246793015406792 L 1.245900018635052 3.246371664568506 L 1.236741434603946 3.242506445379866 L 1.229571423150129 3.235605559500687 L 1.225025716135437 3.22674772997492 L 1.223489758359503 3.216907272719774 L 1.224861231128564 3.207032579706575  z" id="ID_6A5"/>
    <path d="M 1.20691763147829 3.192728169545748 L 1.212879876895912 3.184723295635023 L 1.220277241005573 3.178013996055204 L 1.228700179783317 3.17264409455222 L 1.237874377382117 3.168692128946752 L 1.247579982723173 3.166338671081815 L 1.257551171828397 3.16592648076679 L 1.267354648182088 3.167799937888265 L 1.276637889444733 3.171486008189132 L 1.285237842938292 3.176571704033655 L 1.293012666138402 3.182847184441042 L 1.299736395996824 3.19023451835026 L 1.304980207487406 3.198727494227902 L 1.30791403040155 3.208246732356673 L 1.307618528798775 3.218206895801763 L 1.305029139438389 3.227850706725881 L 1.300839074996283 3.23691951804057 L 1.295308462357664 3.245239307002547 L 1.288529590517771 3.252575137987376 L 1.280552435292994 3.25857955331182 L 1.27152707989557 3.262846181605111 L 1.261868201652166 3.265375714983624 L 1.251905528350618 3.265987193297434 L 1.24202811318423 3.264534768044434 L 1.23267958000593 3.261038653277985 L 1.22426079118194 3.255676552407788 L 1.217086149926708 3.248735507609154 L 1.211361508372687 3.240554712710684 L 1.207187886690628 3.231481634587137 L 1.204574173852039 3.221840257787343 L 1.203456481895881 3.211911529711263 L 1.203720006728355 3.201924635701399  z" id="ID_6A6"/>
    <path d="M 1.187917630575839 3.042728162421131 L 1.190825878329826 3.052295913308734 L 1.193641256740551 3.061891343099947 L 1.196285371304606 3.071535263405726 L 1.19867881785979 3.081244267648463 L 1.200739825786347 3.091029003906095 L 1.202383919500864 3.100891917535356 L 1.203525121395596 3.110825319341001 L 1.206987650435997 3.119519454019137 L 1.216451617483124 3.122255346962681 L 1.226205549608353 3.120359223056494 L 1.234352992899409 3.114725366484433 L 1.232730539328343 3.105774337322836 L 1.22961609428046 3.096274774495466 L 1.22723707955471 3.086563727787185 L 1.225406169277199 3.076733694186961 L 1.223925851151693 3.066844186081461 L 1.222599730122728 3.056932487860287 L 1.221234737863695 3.047026212500053 L 1.219917632095757 3.038728162231141 " id="ID_6A7"/>
    <path d="M 1.168917629673387 2.963728158668832 L 1.159685123121796 2.967569570848599 L 1.150571319727535 2.971683887041134 L 1.141650758560129 2.976200623880032 L 1.13302854760799 2.981261768610645 L 1.124853597080764 2.987014780904718 L 1.117328129653572 2.99359136689822 L 1.110698934964801 3.001067304631263 L 1.10521293176288 3.009417031014706 L 1.102160229749989 3.01890627264709 L 1.099111872263252 3.028407768271716 L 1.094283666528832 3.037158216892876 L 1.089090677202889 3.045703539162259 L 1.085022579548263 3.054816186869587 L 1.082590562521325 3.064512261887809 L 1.080134399845029 3.074201228515178 L 1.07667950830779 3.083584956444378 L 1.073342641528827 3.093010636599272 L 1.070378568538537 3.102560322239581 L 1.068007274307603 3.112272129886241 L 1.066402067619333 3.122140425179557 L 1.065657352702349 3.13210960703113 L 1.065777757892988 3.142104742092234 L 1.067871627731634 3.151772564162115 L 1.069026800975602 3.161699951377588 L 1.070737888671012 3.171555555176224 L 1.073016390488058 3.181288700411116 L 1.07587484285061 3.190870767260552 L 1.079318641678048 3.200257096951924 L 1.083350490182893 3.209408496393537 L 1.08796489235016 3.218278705617914 L 1.093151577790379 3.226825517246567 L 1.098891742544441 3.235005202439401 L 1.105170133145574 3.242789612218388 L 1.111952813006337 3.250136803329199 L 1.11920488161625 3.257016836115262 L 1.126891532112606 3.263409287468027 L 1.134975441661993 3.269298972377811 L 1.143408501599782 3.274670582722443 L 1.152151262577738 3.279521730678279 L 1.161162619578766 3.283853689711774 L 1.170402254112042 3.287672285142544 L 1.179834652994881 3.290988456086378 L 1.189425228331612 3.293815567601473 L 1.19914311743776 3.296169715272476 L 1.208960513919199 3.298068699734216 L 1.218852377760107 3.29953139082607 L 1.228794136133069 3.300577086744818 L 1.238772122815942 3.301226052758197 L 1.248766962119248 3.30149748306734 L 1.254337747543115 3.307808067154997 L 1.257436881684475 3.31731560857697 L 1.260820015370286 3.326725481661737 L 1.265179727405547 3.335716834445781 L 1.271053238776573 3.343789648162454 L 1.280024112894598 3.346366637581215 L 1.289739294983008 3.344142498362391 L 1.298554165171065 3.33947306773998 L 1.306072692638149 3.332912394412772 L 1.308632163857974 3.323607942973843 L 1.306515115524752 3.313852662004292 L 1.304026362040176 3.304171899007114 L 1.303696788228436 3.294228432574925 L 1.306906077114425 3.284792644987813 L 1.312016054051756 3.276207340289621 L 1.317974683704909 3.268178521111465 L 1.324213104430906 3.260363302183387 L 1.330342499721979 3.252462888401755 L 1.335999873584127 3.24422034920985 L 1.341312283686327 3.235747147171169 L 1.346408615976042 3.227143182833534 L 1.351280272689842 3.218410955433041 L 1.355911720058122 3.209547503029856 L 1.360276592904803 3.200550898465241 L 1.364338756696386 3.19141500254738 L 1.368048666269709 3.182128660794516 L 1.371333742567395 3.172684264908928 L 1.37409062856487 3.163073235688576 L 1.376106192556636 3.153285839789377 L 1.3764411256518 3.143300277035942 L 1.376017389846055 3.133307885594051 L 1.376058052359003 3.123311593647271 L 1.376431807833698 3.113320081314524 L 1.376599634299584 3.103321103436128 L 1.376380898107466 3.093325382281197 L 1.37556913883099 3.083361375603459 L 1.373942957671085 3.073498734390794 L 1.371298165553048 3.063860568397496 L 1.367500545598484 3.05461472348994 L 1.362538570964365 3.045941260327449 L 1.356520444985317 3.037962570476699 L 1.349630531154107 3.030724385389159 L 1.342060138539341 3.024196521691488 L 1.333714580655444 3.018707273633195 L 1.325401470922938 3.013172320987093 L 1.319056485522032 3.005462019190188 L 1.31133035738829 2.999158788936501 L 1.302950169913399 2.993708630348251 L 1.294150185694244 2.988967036193553 L 1.284971952221108 2.985010120010633 L 1.275491911571504 2.981836251653037 L 1.265803876045702 2.979364581659231 L 1.255987460563436 2.977461419589339 L 1.246098154580635 2.975980114523226 L 1.236175861227167 2.974735921826633 L 1.226259866033899 2.973444233706302 L 1.216377289394015 2.971919915325317 L 1.206561356495118 2.970014398028007 L 1.196845366310307 2.967652673495145 L 1.187251568087704 2.964834720619998 L 1.168917629673387 2.963728158668832 " id="ID_6A8"/>
   </g>
   <g id="ID_0" color="rgb(0,0,0)" stroke="currentColor" fill="none" stroke-width="0.00005039721436807565"/>
  </g>
 </svg>