<?xml version="1.0" encoding="UTF-8" ?>
 <svg viewBox="-0.0914262943546929 -7.629228380268191  0.3656305944853618 0.38211439170579453" xmlns="http://www.w3.org/2000/svg" version="1.0" overflow="visible">
  <defs>
   <g id="ID__#42_Model_Space"/>
   <g id="ID__#42_Paper_Space0"/>
   <g id="ID__#42_Paper_Space"/>
  </defs>
  <g id="draft" transform="matrix(1 0 0 -1 0 0)" stroke-width="5.039721436807565E-5">
   <g id="Poliline" color="rgb(0,0,0)" stroke="currentColor" fill="none" stroke-width="0.00005039721436807565">
    <path d="M 0.0129175747663339 7.270728363240355 L 0.0176711661877622 7.279511854811873 L 0.0237415765922515 7.287448329862895 L 0.0307496462682684 7.294574971320606 L 0.0309175756212881 7.294728364380294 " id="ID_44A"/>
    <path d="M -0.0330824274185488 7.26472836295537 L -0.0234996309687805 7.267398550197874 L -0.0154117796552065 7.273201366145636 L -0.0092790079435572 7.281069566470825 L -0.0048111478071009 7.290003585532882 L -0.0015923321792943 7.299465597377828 L 0.0006856069813583 7.309197870132999 L 0.001917574243862 7.316728365425237 " id="ID_44B"/>
    <path d="M 0.0029175742913594 7.612728379484483 L -0.0053338826226153 7.60708064122836 L -0.0133196687485677 7.601063256389174 L -0.021010595042287 7.594673460143348 L -0.0283778912944142 7.587913210359336 L -0.035394516461424 7.580789563107352 L -0.0420361234750288 7.57331519693378 L -0.0482827834503228 7.565507761829239 L -0.0541198236964284 7.557389512411308 L -0.0595386415569967 7.54898629646328 L -0.0645370449247356 7.540326353807802 L -0.0691191400429503 7.531439039031168 L -0.0732948265932194 7.522353604658531 L -0.0770790006990856 7.513098167632659 L -0.0804905948668244 7.503698926221984 L -0.0835515768099686 7.494179647449441 L -0.0862860052096428 7.484561401922563 L -0.0886548571810835 7.474848431575149 L -0.089832508709133 7.464922104866922 L -0.0904149104519618 7.454939778913649 L -0.0907440417395078 7.444944531247221 L -0.0909500549333258 7.434946249272576 L -0.091116453667726 7.424947172779257 L -0.0913349674409325 7.414949855596601 L -0.0914262943546929 7.404951789047303 L -0.0909390395235867 7.394965512225248 L -0.0898069770861216 7.385031856544635 L -0.0879704856384489 7.375204462597585 L -0.0853788880952413 7.365549069844519 L -0.0819977073158942 7.35614141011151 L -0.07781549022324 7.347061714426539 L -0.0728479175900523 7.338386624820357 L -0.0671377365973038 7.33018100677104 L -0.0608412411554031 7.32241311500234 L -0.0542872882752716 7.314859865773784 L -0.0475262692364194 7.307491216790093 L -0.0404855114295213 7.300389461033179 L -0.0342948687249987 7.293139987713349 L -0.0347900716423704 7.283173022862042 L -0.0354698981819954 7.273213360295162 L -0.0330824274185488 7.26472836295537 L -0.0307561842918416 7.255024864883812 L -0.0248026150160152 7.247246136505967 L -0.0151105724682621 7.247113988562396 L -0.0064159724641968 7.251987124109731 L 0.001241100266089 7.258408711267565 L 0.0082674525183259 7.265520700266431 L 0.0129175747663339 7.270728363240355 L 0.0206719306619192 7.264424429333223 L 0.0291715200494469 7.25916985200121 L 0.03829180422421 7.255086429206466 L 0.0478649312961688 7.252219311189065 L 0.057715826002573 7.250532221466078 L 0.0676930592375218 7.249928340929002 L 0.0776833889312396 7.250280739166224 L 0.0876112638642113 7.251457601142649 L 0.0974310592725081 7.253336977933689 L 0.1071181692656795 7.255812804677372 L 0.1166616974817956 7.258795742384863 L 0.1260592482695735 7.262211616744085 L 0.1353135221166966 7.265999061360983 L 0.1444301907997483 7.270107111927186 L 0.1534166447005587 7.274493032053188 L 0.1622813285704634 7.279120413535907 L 0.1709959176378879 7.284022679266525 L 0.1793293079817539 7.289546307445138 L 0.1872835009722271 7.295604625634286 L 0.1949216991919096 7.302057704577057 L 0.2023114548473259 7.308794444621575 L 0.2095207064454607 7.31572437900381 L 0.2166171529416054 7.322770015280322 L 0.2236694032905255 7.329859754283504 L 0.2307498986533556 7.336921439916597 L 0.237937585696999 7.343873599884632 L 0.2399175855482554 7.345728366802664 L 0.2449175857857426 7.353396335916873 " id="ID_44C"/>
    <path d="M 0.1524175813922284 7.629228380268191 L 0.1620909093006464 7.626695900725896 L 0.1716130478919622 7.623647171825269 L 0.1808860289385912 7.619911169220386 L 0.1898091561403587 7.615404303597454 L 0.1982835546469639 7.610102454588382 L 0.2062231243093002 7.604029301490478 L 0.2135646787516077 7.597245111841949 L 0.2202731373515112 7.589833429691894 L 0.2263406940817365 7.581887876963532 L 0.2317925892592676 7.57350661746634 L 0.2367896074375118 7.564845004118565 L 0.241447992584134 7.555996670456678 L 0.2458198639016222 7.546998803026923 L 0.2499271889304806 7.537881519523838 L 0.2537826309695212 7.52865501627337 L 0.2573870689692654 7.519327436168034 L 0.2607329302163306 7.509904096474634 L 0.2638048678680223 7.500388011506569 L 0.2665790135539066 7.490780963953778 L 0.2690203041375927 7.481088559961312 L 0.2710836112628367 7.471304397785377 L 0.2727024585216986 7.461437365774831 L 0.2737857803675032 7.451497647661116 L 0.2742043001306689 7.441508656500253 L 0.2737713409100992 7.431521869641276 L 0.2722149101887039 7.421646406772288 L 0.2689175869256815 7.412728369984993 " id="ID_44D"/>
    <path d="M 0.0199175750988161 7.405728369652511 L 0.0235044284194759 7.396412798861039 L 0.0291289001602415 7.388177404627031 L 0.0367367768261824 7.381736909749752 L 0.0457874203768007 7.377549295370611 L 0.0555737119858586 7.375589379212782 L 0.0655603985958395 7.375560819733027 L 0.0754217796758514 7.377159197493518 L 0.0849471070531509 7.380175217962825 L 0.0939495458157307 7.384508545170675 L 0.1021841883982955 7.390162010017396 L 0.1092333883181977 7.397228627369562 L 0.1143047455506165 7.405804434608191 L 0.1159897588632814 7.415577736414967 L 0.1142346444494828 7.425399454127744 L 0.1106305734040758 7.434714228624859 L 0.105541457110661 7.443307499508208 L 0.0990088284113782 7.450858824144285 L 0.091050117872558 7.456877062030119 L 0.0819617271165569 7.461010380505392 L 0.0722632574964859 7.46339120758585 L 0.0622966040720456 7.464040250838399 L 0.0523679536232678 7.46296914734866 L 0.0427899057541739 7.460150574317671 L 0.0339483329425781 7.455521370037079 L 0.0263623274285871 7.449043354973305 L 0.0206731076889106 7.440856609970841 L 0.0174172599311024 7.431434638471508 L 0.0166966183890107 7.421485168833998 L 0.0181593910336755 7.411608729146117  z" id="ID_44E"/>
    <path d="M -0.0000824258511329 7.411728369937495 L 0.0020218964170944 7.401957416759647 L 0.0052465353708291 7.392498327082444 L 0.0096772929375897 7.383542481892275 L 0.0153644367216952 7.37532907197762 L 0.022290717323334 7.368132331997627 L 0.0303420400085637 7.362223089275596 L 0.0393014146413018 7.357810471470723 L 0.0488829974099403 7.354989680198176 L 0.0587931323513624 7.353728939036698 L 0.0687839613799488 7.353896042067283 L 0.07869146599191 7.355214261253355 L 0.0883930575632555 7.357615445616 L 0.0977113048259133 7.361222655589512 L 0.1063690731222353 7.366203562799019 L 0.1139673710443834 7.372679272536298 L 0.1200643519758477 7.380582659018434 L 0.1253238857264964 7.38908716502533 L 0.1296506202309402 7.398071717430229 L 0.1311784146510737 7.40793538281829 L 0.1308051585116416 7.41791671549073 L 0.1289117344725579 7.42772875079354 L 0.125821790465614 7.4372324967505 L 0.1217580043984663 7.44636412240862 L 0.1168449939012186 7.455068685910219 L 0.1110927234679542 7.46324175731119 L 0.1042783867787884 7.470543906483094 L 0.0963231537523548 7.476581697516713 L 0.0874487205636401 7.481163305020792 L 0.0779307929267397 7.484192509512514 L 0.0680489699940168 7.485655737055957 L 0.0580587902322609 7.485589326917097 L 0.0481873593737028 7.484048369243637 L 0.0386448384855855 7.481088226768533 L 0.0296402172233723 7.476760518895817 L 0.0213942211663225 7.471121599096576 L 0.0141432189675666 7.464251657239522 L 0.0081262305696352 7.456279745893303 L 0.0035501183201427 7.447402288246575 L 0.0005423633288739 7.437877606961332 L -0.0008821345738017 7.427990153808821 L -0.0008173682693711 7.41799872116181  z" id="ID_44F"/>
   </g>
   <g id="ID_0" color="rgb(0,0,0)" stroke="currentColor" fill="none" stroke-width="0.00005039721436807565"/>
  </g>
 </svg>