<?xml version="1.0" encoding="UTF-8" ?>
 <svg viewBox="-0.917833435938535 -8.135943861874125  0.17539100549096176 0.24994436714309387" xmlns="http://www.w3.org/2000/svg" version="1.0" overflow="visible">
  <defs>
   <g id="ID__#42_Model_Space"/>
   <g id="ID__#42_Paper_Space0"/>
   <g id="ID__#42_Paper_Space"/>
  </defs>
  <g id="draft" transform="matrix(1 0 0 -1 0 0)" stroke-width="5.039721436807565E-5">
   <g id="Poliline" color="rgb(0,0,0)" stroke="currentColor" fill="none" stroke-width="0.00005039721436807565">
    <path d="M -0.9177494616254762 8.080062386056657 L -0.9106863385358775 8.073035984671453 L -0.905898603277781 8.064289121549464 L -0.9030483682692871 8.054715140638061 L -0.9012584094126045 8.044878505865185 L -0.8996701990792388 8.035005814494445 L -0.8974821314240664 8.025252926602292 L -0.893878466464531 8.015942104229987 L -0.888231062173352 8.007725660246201 L -0.8870419082860969 7.998586674871125 L -0.8897543085357505 7.98903278497572 L -0.8830595771734407 7.98412430899507 L -0.8741068445865654 7.988467252169628 L -0.8648599742279915 7.991070963149419 L -0.8559687912258642 7.986595100712886 L -0.8490719986621585 7.979421105912699 L -0.84497146374464 7.970354634857385 L -0.8444475760277034 7.960444508114591 L -0.847992574683329 7.95113092761795 L -0.8526875618278273 7.942301494785672 L -0.8566041368806827 7.933113423270437 L -0.8584562145434393 7.923307163152564 L -0.8586455721903005 7.913319599746348 L -0.8571758217276466 7.903440206867668 L -0.8542382122986307 7.893889279189947 L -0.8498541907009683 7.885999494731031 L -0.8419598258004263 7.892010143892717 L -0.836190860998383 7.900160678600253 L -0.831269340367844 7.908864899297477 L -0.826113116521256 7.917429735849775 L -0.8198460433751977 7.925201303020343 L -0.8118856041635114 7.931193695250758 L -0.8024699220058773 7.934439297797816 L -0.7925126298470273 7.935118555138477 L -0.7825812284434566 7.934026513618505 L -0.7728473611887515 7.931754301120798 L -0.7633359698295852 7.928671152258516 L -0.754703618347012 7.923755271240745 L -0.74571239740526 7.919854997345513 L -0.7424424304475732 7.925750190736729 L -0.7472657855901579 7.93450469333655 L -0.752817350907332 7.942820051784574 L -0.7587222647821994 7.950890320208048 L -0.7646300067256933 7.958954787643032 L -0.7702022655732385 7.967256248345454 L -0.7750842649549324 7.975980980408097 L -0.7789266052453634 7.985203809057265 L -0.7813063359726949 7.994901467799141 L -0.7821944395325895 8.00485731953435 L -0.7825314469880924 8.014851601178833 L -0.7833653715262905 8.02481180503195 L -0.7855165082989606 8.034572565297069 L -0.7882940870776283 8.044178009899944 L -0.7915091888791334 8.053646264364637 L -0.7951313937715528 8.062966366495086 L -0.7996466668750167 8.071861038324675 L -0.8055170456555718 8.079955458529689 L -0.8099182479313506 8.088909230242386 L -0.8132238198694539 8.098345433041162 L -0.8166342425859252 8.10774507958191 L -0.8209973369066307 8.116732844135893 L -0.8269438868990066 8.124746955071085 L -0.8346155357562903 8.131119927107758 L -0.8435634756672323 8.135541916190904 L -0.8528639130638904 8.135943861874125 L -0.862570710368069 8.133701533222728 L -0.8724639389412622 8.132293392004314 L -0.880596286834267 8.127310568645065 L -0.8840662307789717 8.117939607381182 L -0.8914071019462027 8.111677600051067 L -0.9011604081808917 8.10954625624323 L -0.9108700856300995 8.107251210649583 L -0.9160130947433913 8.099542314874755 L -0.917833435938535 8.08972001167173  z" id="ID_425"/>
   </g>
   <g id="ID_0" color="rgb(0,0,0)" stroke="currentColor" fill="none" stroke-width="0.00005039721436807565"/>
  </g>
 </svg>