<?xml version="1.0" encoding="UTF-8" ?>
 <svg viewBox="0.3946074648970343 -6.768544834736395  0.2706603824764208 0.27475323387178996" xmlns="http://www.w3.org/2000/svg" version="1.0" overflow="visible">
  <defs>
   <g id="ID__#42_Model_Space"/>
   <g id="ID__#42_Paper_Space0"/>
   <g id="ID__#42_Paper_Space"/>
  </defs>
  <g id="draft" transform="matrix(1 0 0 -1 0 0)" stroke-width="5.039721436807565E-5">
   <g id="Poliline" color="rgb(0,0,0)" stroke="currentColor" fill="none" stroke-width="0.00005039721436807565">
    <path d="M 0.6469176048797181 6.512728327237287 L 0.6390675788306011 6.511607598196269 L 0.6298746720690325 6.507791227604185 L 0.6229176037397793 6.500728326667317 L 0.6130724993545247 6.499474539561509 L 0.6036793166122001 6.49604843997919 L 0.5939730105684103 6.493791600864605 L 0.585041428948367 6.497917557964395 L 0.5774217805768256 6.504386169106898 L 0.5701977845379407 6.511300225158713 L 0.5629184723822425 6.518155741474051 L 0.5552878552157541 6.524615820997339 L 0.547057272563861 6.530283394425299 L 0.5380393231026588 6.534568184508097 L 0.5282893877237119 6.53665074691823 L 0.5183583877514577 6.535865288836356 L 0.509146472077064 6.532079814829317 L 0.5012379733704986 6.525990289747578 L 0.4942904705271838 6.518803999876198 L 0.4876660622500584 6.511313496943694 L 0.4808792760758678 6.503970100268228 L 0.4736363857025232 6.497080256724097 L 0.4647125810408808 6.49392728803054 L 0.4551825838574528 6.496647223050673 L 0.4476644976814228 6.503154156993127 L 0.4420104794145506 6.511388894322871 L 0.4368294423471886 6.519941278136259 L 0.431195685068361 6.528204423662208 L 0.4260222831742979 6.536759650687092 L 0.4215389955751734 6.545694847449628 L 0.4177723030872356 6.554955617918961 L 0.4145444953587507 6.564418860182979 L 0.4113297204665685 6.573886318203795 L 0.4077297457851224 6.583215731961542 L 0.4041721408467414 6.592565405130073 L 0.400953832611406 6.602032361645259 L 0.3982773231134367 6.611662097658108 L 0.396279172525122 6.621461504012377 L 0.3950456125577073 6.631377848947543 L 0.3946074648970343 6.641365329709347 L 0.3949554057753772 6.651356878484878 L 0.3960637011248886 6.661292291153073 L 0.3987765182346337 6.67091176837426 L 0.4008184373779545 6.680695385513024 L 0.4042669622864113 6.69007129213374 L 0.408808180876993 6.698976183729143 L 0.4140023682366741 6.707519929041461 L 0.4196545779650594 6.715769683362476 L 0.4256647224135408 6.723761458584178 L 0.4319800000254262 6.731510443634642 L 0.438586227731685 6.739023932297511 L 0.4454782081531228 6.74626946966058 L 0.4526940302876952 6.753195309205914 L 0.4603147193807997 6.759662453106247 L 0.4685746499548041 6.765282885121627 L 0.4780296067083479 6.76832707104602 L 0.4880023731151617 6.768544834736395 L 0.497791360079229 6.766572716884075 L 0.5072160040699752 6.763240402212513 L 0.5165120185869965 6.759561231209077 L 0.5260324950292788 6.756518549079641 L 0.5358610990588897 6.754701040303094 L 0.5457693531353601 6.753356023253411 L 0.5554717959605348 6.750976880958497 L 0.5648675454640335 6.747554309967682 L 0.5741394808592784 6.743809161698604 L 0.5832656337689519 6.739724175690221 L 0.5922069218993204 6.735249341898388 L 0.6009082483197288 6.730323174143554 L 0.6092892082087582 6.724870188979819 L 0.6172313645937324 6.718799039510203 L 0.6245616336681197 6.712002014842006 L 0.631018907672484 6.704375958512274 L 0.6362405032651868 6.695861813694943 L 0.6390806995616672 6.68633106989142 L 0.6404675651239123 6.676427914253354 L 0.641976714033655 6.666543491646035 L 0.6442876962714319 6.656819700691253 L 0.6449010545298144 6.646858640694203 L 0.6450782630072 6.636870802642865 L 0.6485051648609482 6.627570747901926 L 0.6539059194542709 6.619154582876365 L 0.6589368329253676 6.610522461649108 L 0.6612050202879641 6.600833007445078 L 0.6628979533019211 6.591001502856659 L 0.6652678473734551 6.58168194566716 L 0.664260603066972 6.571734720840541 L 0.6636465239354603 6.561753773615554 L 0.6629410349385383 6.551779257140184 L 0.6616700900219997 6.54186335291513 L 0.6593056535231306 6.532155688585029 L 0.6552964438812126 6.52301393074318 L 0.649319543442525 6.515028268203816  z" id="ID_487"/>
   </g>
   <g id="ID_0" color="rgb(0,0,0)" stroke="currentColor" fill="none" stroke-width="0.00005039721436807565"/>
  </g>
 </svg>