<?xml version="1.0" encoding="UTF-8" ?>
 <svg viewBox="0.3321181165648763 -7.870212614607512  0.3860702353460255 0.40055433189388356" xmlns="http://www.w3.org/2000/svg" version="1.0" overflow="visible">
  <defs>
   <g id="ID__#42_Model_Space"/>
   <g id="ID__#42_Paper_Space0"/>
   <g id="ID__#42_Paper_Space"/>
  </defs>
  <g id="draft" transform="matrix(1 0 0 -1 0 0)" stroke-width="5.039721436807565E-5">
   <g id="Poliline" color="rgb(0,0,0)" stroke="currentColor" fill="none" stroke-width="0.00005039721436807565">
    <path d="M 0.6232027600033235 7.50015806163768 L 0.6228397668894301 7.509954243299643 L 0.6257399906673112 7.519520161572513 L 0.6259176038822716 7.526728375399702 " id="ID_3BF"/>
    <path d="M 0.546917600129973 7.482728373309814 L 0.5539806810268404 7.489802520897631 L 0.5604014217209325 7.497465179310848 L 0.5661937781490485 7.505613842382062 L 0.5713797047267111 7.514161735459565 L 0.5759830031934356 7.523037364315505 L 0.5800248266471453 7.532182439366152 L 0.583520666786086 7.541550081963745 L 0.5839176018873787 7.542728376159661 " id="ID_3C0"/>
    <path d="M 0.4750468117688165 7.868620096191789 L 0.4749175967101565 7.867728391596333 L 0.4848816889574224 7.8685742194016 L 0.494843979775979 7.869440668220175 L 0.5048227137920271 7.870083955491422 L 0.5148199556244633 7.870212614607512 L 0.5247946290514581 7.869553137223253 L 0.5346590729340628 7.867939543640599 L 0.5443164063236959 7.865360611046146 L 0.5537039175299014 7.861924760150345 L 0.562804668819374 7.857786944465013 L 0.5717059079527492 7.853232289607618 L 0.5806742300356574 7.848808510760846 L 0.5896294706643248 7.844358239715711 L 0.598508329069876 7.839758006753344 L 0.6072547560947239 7.834911379656804 L 0.6157968500043518 7.82971374599059 L 0.6246029398306288 7.825310731591327 L 0.6343471218121959 7.82307137666933 L 0.6439279126423944 7.820212970514328 L 0.6532948149968885 7.816715504255428 L 0.6623861362398716 7.812554615484606 L 0.6711270057368007 7.807702397415243 L 0.6794261979117051 7.802129345531719 L 0.6871710523505099 7.795809681217392 L 0.6942255768616246 7.788729248125473 L 0.7004330618910731 7.780896624727795 L 0.7056252645775656 7.772358410716702 L 0.7096445501564937 7.763210129422197 L 0.7123734762679846 7.753597832944638 L 0.7137624597848751 7.743702701287871 L 0.7124018960298076 7.733830341923099 L 0.7125418685211625 7.723842488793273 L 0.7139568039632325 7.713946266204911 L 0.7158532775592406 7.704127609364631 L 0.7174366479934858 7.694255645774719 L 0.7181755496140694 7.684285661243619 L 0.7181883519109018 7.674287621517458 L 0.7175319740144364 7.664311285368334 L 0.716255395206666 7.654394468740242 L 0.7144079813432028 7.64456817654595 L 0.7120370881411456 7.634855141344582 L 0.7091858227151926 7.625269249423681 L 0.7058947010196271 7.615825106939019 L 0.7022010908354793 7.60653531674472 L 0.6981349711393845 7.597401738262498 L 0.6937233180243921 7.588428254339345 L 0.6889903737246126 7.579619916840456 L 0.6839565523349922 7.5709804580127 L 0.6786383218640905 7.562512533709653 L 0.673049648464879 7.554220324589008 L 0.6672012013055513 7.546108410673742 L 0.6611018654080932 7.538184255033834 L 0.6547565910097825 7.530455861421891 L 0.6481786417509561 7.522924502268208 L 0.6416295231238154 7.515367815196062 L 0.6347252570988795 7.508139050805995 L 0.6268233832936865 7.502041225858901 L 0.6232027600033235 7.50015806163768 L 0.616800887167539 7.492599535832448 L 0.6117614004083203 7.483998249932453 L 0.6044304600761273 7.477249961381193 L 0.5955703707189111 7.472666819833177 L 0.5859053294321095 7.470171940146136 L 0.5759344279094947 7.469658282713628 L 0.5660616227153739 7.47113245452396 L 0.5567612065420784 7.47474039768215 L 0.5487609184547227 7.480678077101946 L 0.546917600129973 7.482728373309813 L 0.545567068551768 7.482307294151764 L 0.5358400010911631 7.48001281591886 L 0.5259174701279496 7.478805789147421 L 0.5159243249539838 7.478530423111436 L 0.5059395973858747 7.479042964180191 L 0.4960108104399748 7.480221066831352 L 0.4861650874757562 7.4819646398596 L 0.4764173474523386 7.484193251642277 L 0.4667752225691606 7.486842784579983 L 0.4572422525578981 7.489862336239829 L 0.4478198712083544 7.493211675389628 L 0.4384557072401716 7.496720722298976 L 0.4290671600876009 7.500163911794482 L 0.419719299722412 7.503715519938491 L 0.4105384783423416 7.507674710464503 L 0.4019358267749027 7.512737776162782 L 0.3944842137206423 7.519401157116415 L 0.3875459493588273 7.526600577540298 L 0.3809984253845275 7.534159178886154 L 0.3747838476429308 7.541992212999229 L 0.3688701822500038 7.550057578308344 L 0.3632489189182202 7.558325889372631 L 0.3579199802081296 7.566786889695728 L 0.3528987311519698 7.575434028686944 L 0.3482132881051028 7.584267684267151 L 0.3439085954927448 7.593292916655996 L 0.3400529323207255 7.602518568808048 L 0.3367498176421639 7.611955817794499 L 0.3341601825048821 7.621613720358952 L 0.3325744722820234 7.631481963031042 L 0.3321181165648763 7.641467882713734 L 0.3323922237459786 7.65146285775477 L 0.3330048980788769 7.661443986865156 L 0.3335701180190957 7.671427821261058 L 0.3337342292271286 7.68142578640777 L 0.3337213875486125 7.691425746712487 L 0.3337424634217116 7.701425668241107 L 0.3340116317441906 7.711421463900267 L 0.3348013079944563 7.721388319720499 L 0.3364498729039322 7.731246603853615 L 0.3391653801566496 7.74086642030508 L 0.3427341816346328 7.750205073366156 L 0.346973546975887 7.759260345114403 L 0.3517704820819611 7.768032854325251 L 0.3570520475849808 7.776523446593747 L 0.3627671433279094 7.7847273993391 L 0.3688814682290937 7.792639711655482 L 0.3753683722628551 7.800249244741452 L 0.3822084330391409 7.807542850424596 L 0.3893863901250212 7.814504199129515 L 0.3968893630173982 7.821113770024131 L 0.4047061332937388 7.827349032878515 L 0.4129639173775566 7.832986027902773 L 0.4214055021368859 7.838348002500799 L 0.4297826038679214 7.843809078176592 L 0.4379022695965312 7.84964319641883 L 0.4454175953089817 7.856228391050112 L 0.4469549888381757 7.856876361581937 L 0.4562004075706412 7.860686938775671 L 0.465515303017563 7.864323916179742 L 0.4749175967101565 7.867728391596333 " id="ID_3C1"/>
    <path d="M 0.5582496319182156 7.70206236810262 L 0.5621792059251858 7.692889285309488 L 0.5680358287816372 7.684808695226595 L 0.5754635705510012 7.67813888287986 L 0.5840352130683533 7.673015785198078 L 0.5933697856871128 7.66946192006249 L 0.6031588271701045 7.66747195064445 L 0.6131396967390037 7.667066550402084 L 0.6230473688248958 7.668315489809484 L 0.6325657236871143 7.671335294347688 L 0.6412577441317682 7.676238322590069 L 0.6484358347581738 7.683154141116477 L 0.6536612038865899 7.691654901381946 L 0.6570220133068414 7.701057187979251 L 0.6585978490528764 7.710917928520163 L 0.6581180924303541 7.720881449409563 L 0.6550589744251747 7.730380758351707 L 0.6501591234546993 7.73908095895295 L 0.6438019403032218 7.746785428438299 L 0.6363076506183534 7.75339143878721 L 0.6279238079676972 7.758826754711859 L 0.6188468587274061 7.762997313473953 L 0.6092438548835242 7.765759361144477 L 0.599321153808976 7.766889167001698 L 0.5893714544850326 7.766092513396712 L 0.5798639437305511 7.763075016378256 L 0.5714369761807961 7.757745731449036 L 0.5646659007465767 7.750423063342068 L 0.5597631904931264 7.741729217249829 L 0.557330168784211 7.732077285053493 L 0.5577025410265453 7.722098833251398 L 0.5585144902334243 7.712135262907638  z" id="ID_3C2"/>
    <path d="M 0.5409175998449883 7.718728384519213 L 0.5425387048733957 7.708865339182358 L 0.5451910885604905 7.699228386158835 L 0.5488645744269807 7.689932903764066 L 0.5535554855531624 7.681107627320753 L 0.5592616814416695 7.672903171673199 L 0.5659720130795494 7.665499098229497 L 0.5736489541447574 7.659104866240386 L 0.5822043197435764 7.653948141562407 L 0.5914901291363606 7.650274772598403 L 0.6012593618671529 7.648178262143005 L 0.6112175770078015 7.647326043661597 L 0.6212094181550132 7.647582143431669 L 0.6311038421733466 7.648986913902965 L 0.64069948699919 7.651762557828769 L 0.6496050127579096 7.656274073838396 L 0.6574307086270732 7.662473639965053 L 0.6639494090475893 7.67003916892824 L 0.6690954975034656 7.678601370811113 L 0.6728973736592998 7.68784123555095 L 0.6753967150178886 7.697516234537996 L 0.6765835697620002 7.707437945960982 L 0.6763282337118782 7.717424391741643 L 0.674443079063849 7.727235469158335 L 0.6712759665254993 7.736713930002115 L 0.66699088576644 7.74574294400551 L 0.6616512530598851 7.754190632347163 L 0.6552758660655807 7.761885385205862 L 0.6478720446841333 7.768592856727362 L 0.6394799069625982 7.774007449241223 L 0.6303518397471671 7.778077595914373 L 0.6208261357860092 7.781104301090297 L 0.6110293322521132 7.783086074659534 L 0.601074618636318 7.78398274214613 L 0.5910847703004798 7.783714499718374 L 0.5812157323911676 7.782161133632127 L 0.5716828521573653 7.779168958248874 L 0.5628086419155 7.774590714746384 L 0.5550078164021662 7.768363169024635 L 0.5487136462973777 7.760618060274907 L 0.5442054618538484 7.751711842226342 L 0.5414945297292731 7.742100294754717 L 0.5403805752216888 7.732172039495726 L 0.540586734519871 7.722181108725457  z" id="ID_3C3"/>
   </g>
   <g id="ID_0" color="rgb(0,0,0)" stroke="currentColor" fill="none" stroke-width="0.00005039721436807565"/>
  </g>
 </svg>