<?xml version="1.0" encoding="UTF-8" ?>
 <svg viewBox="2.587757970286198 -8.891088335920603  0.1885613407200042 0.214616374224601" xmlns="http://www.w3.org/2000/svg" version="1.0" overflow="visible">
  <defs>
   <g id="ID__#42_Model_Space"/>
   <g id="ID__#42_Paper_Space0"/>
   <g id="ID__#42_Paper_Space"/>
  </defs>
  <g id="draft" transform="matrix(1 0 0 -1 0 0)" stroke-width="0.00005039721436807565">
   <g id="Poliline" color="rgb(0,0,0)" stroke="currentColor" fill="none" stroke-width="0.00005039721436807565">
    <path d="M 2.587917697072271 8.787728435293989 L 2.597281563075289 8.790899342362586 L 2.604216209010176 8.798022192345634 L 2.609174929930243 8.80669567690353 L 2.613560461033225 8.815682351092015 L 2.618762216845376 8.824204109316714 L 2.62573250549901 8.831355398803133 L 2.633623096513686 8.837491291133704 L 2.64202792550331 8.842905385503594 L 2.650786180042526 8.847729031504583 L 2.659827521382922 8.851999534429446 L 2.669129497522797 8.855667386798054 L 2.678707199121423 8.85852814845687 L 2.688603684341209 8.859682136116707 L 2.698586801370129 8.859124945920968 L 2.708365456979075 8.860886312063997 L 2.717342803438678 8.865247197660526 L 2.725426058629427 8.871123227292403 L 2.733077364689171 8.877561410926994 L 2.741022595618255 8.883626288979023 L 2.749764282106063 8.888452845693937 L 2.759113916091344 8.891088335920603 L 2.763846244852613 8.882282217602619 L 2.767880049442329 8.873135975789014 L 2.771037858503223 8.863652075735642 L 2.773229987331162 8.853899555465002 L 2.774484950436812 8.84398215533166 L 2.774919563155322 8.833994222801385 L 2.775238921022557 8.82400168254506 L 2.775898899561428 8.814023442641691 L 2.776319311006202 8.804033166606564 L 2.775917574505732 8.794047420849331 L 2.774442405436231 8.784158100781102 L 2.772497940540748 8.774349425259343 L 2.770221091823811 8.764612289290865 L 2.767710607971685 8.754932712143146 L 2.765042262490478 8.74529534948842 L 2.76227594086421 8.735685563232945 L 2.759460416589624 8.726090136779819 L 2.75655177203229 8.716523185064162 L 2.752913832210279 8.707212906115254 L 2.748224972289459 8.698388726566982 L 2.742239594390357 8.690394316254508 L 2.734786191808932 8.683759719435558 L 2.725973698580462 8.679091212283575 L 2.716284405456226 8.676717826369101 L 2.70630298316057 8.676471961696002 L 2.696415825456321 8.677908818427811 L 2.686818810109667 8.680696370445425 L 2.677558146664957 8.684461605838354 L 2.668618488836315 8.688938544329007 L 2.659986410956072 8.693984173074641 L 2.651653482533121 8.699510342055836 L 2.643615255731744 8.70545732730994 L 2.635874631310057 8.711786782807078 L 2.628527021858728 8.71856781437922 L 2.621572781122668 8.725752294713047 L 2.614987588721512 8.733276782420361 L 2.608775766280443 8.74111256004294 L 2.602972309174885 8.749256101954442 L 2.597658013641463 8.757725879382528 L 2.592996962007387 8.766569773998507 L 2.589355050026902 8.775873976832717 L 2.587757970286198 8.78570460917249  z" id="ID_393"/>
   </g>
   <g id="ID_0" color="rgb(0,0,0)" stroke="currentColor" fill="none" stroke-width="0.00005039721436807565"/>
  </g>
 </svg>