<?xml version="1.0" encoding="UTF-8" ?>
 <svg viewBox="0.0284769553840789 -4.023684359753048  0.2943313910922933 0.31144864162641994" xmlns="http://www.w3.org/2000/svg" version="1.0" overflow="visible">
  <defs>
   <g id="ID__#42_Model_Space"/>
   <g id="ID__#42_Paper_Space0"/>
   <g id="ID__#42_Paper_Space"/>
  </defs>
  <g id="draft" transform="matrix(1 0 0 -1 0 0)" stroke-width="5.039721436807565E-5">
   <g id="Poliline" color="rgb(0,0,0)" stroke="currentColor" fill="none" stroke-width="0.00005039721436807565">
    <path d="M 0.1429175809410026 3.898728203078949 L 0.1468377262280427 3.889552669683606 L 0.1529880469305658 3.881712522098847 L 0.1612312433388672 3.876128512470565 L 0.1708116955548293 3.873404588721959 L 0.180778745793333 3.873554659309963 L 0.1903687873913142 3.876292068798569 L 0.1989814193072288 3.881321420210886 L 0.2060315159412092 3.888371691738363 L 0.211081651361841 3.896976723524391 L 0.2142453817417271 3.906446484825659 L 0.2155901682493191 3.916340874507952 L 0.2149940550716005 3.926305390668552 L 0.2121925640436455 3.935878701965167 L 0.206949576275572 3.944352119656407 L 0.1995232297783804 3.951005650138231 L 0.1905062277615874 3.955226236021223 L 0.1806033383713199 3.956192955648278 L 0.1709006183026673 3.953936657211363 L 0.1621486596229893 3.949151918885343 L 0.1546767579681409 3.942534547825188 L 0.1486563527968956 3.934566688519163 L 0.144279182395989 3.925592875823211 L 0.1418070368669966 3.91592250049787 L 0.1415513830533861 3.905949346129759  z" id="ID_501"/>
    <path d="M 0.1229175799910536 3.902728203268939 L 0.1259777044402197 3.893212373313183 L 0.1300203672462041 3.884071523752021 L 0.1351198550546035 3.875477396308772 L 0.1413690884576457 3.8676828850228 L 0.148817275576266 3.861030279397244 L 0.1573834177945077 3.855903164535595 L 0.1668013019440471 3.852592226365135 L 0.1766839658566717 3.851163848452154 L 0.1866617842396563 3.851573545762601 L 0.1964141911624138 3.853728328900043 L 0.2056772678265402 3.857466759629696 L 0.2142415423671569 3.862609484655969 L 0.2219307185004196 3.868987726428889 L 0.2285761947645675 3.876446960084356 L 0.2340005967590502 3.884835495736139 L 0.238013437072409 3.893982509264027 L 0.2404270387650742 3.903673874506855 L 0.2410962347711267 3.913637964365646 L 0.2399721576515237 3.923560848363479 L 0.2371123171249856 3.933129929386616 L 0.2327051212446394 3.942094450494161 L 0.2269502357227635 3.950260122069376 L 0.2200036891598245 3.95743927485369 L 0.212024828896431 3.963449964207621 L 0.203203744974723 3.968138390448725 L 0.1937646271629481 3.971410955174505 L 0.1839451832130532 3.973257003600542 L 0.1739648626043495 3.973747516330318 L 0.1640137168576778 3.97288062750395 L 0.1543777588506776 3.970266019268999 L 0.1454523160037056 3.965796372847037 L 0.1376436910300889 3.959578660003979 L 0.1312616023973492 3.951901745170296 L 0.1264638287148871 3.943143937215523 L 0.1232765751412028 3.933678021076634 L 0.1216463108500712 3.923821833312617 L 0.1214834091607608 3.913831557288704 L 0.1226854727042674 3.903911409485788  z" id="ID_502"/>
    <path d="M 0.0309175756212881 3.854728200989061 L 0.0332914484279661 3.845014137210144 L 0.0358319414943393 3.83534243547068 L 0.0386112661453426 3.825736871821117 L 0.0417158533368003 3.816231636017029 L 0.0452409886212921 3.806874752554277 L 0.0492787943154571 3.797727970817396 L 0.053899315859935 3.788861802388032 L 0.0591316081910076 3.780342630576541 L 0.0649555554097425 3.772216394819764 L 0.0713167662248386 3.76450327760377 L 0.0781759168928051 3.757229535349683 L 0.0854984154290861 3.750421948907149 L 0.0932475959765134 3.744104110190784 L 0.1013863712669378 3.73829674105349 L 0.109877925290994 3.733018558437953 L 0.1186859839048209 3.728287320763602 L 0.127774868930401 3.724120841433931 L 0.1371092711728359 3.720538005117338 L 0.1466536861149974 3.717559780538332 L 0.1563718630363633 3.715210108601139 L 0.1662254898333071 3.713516891717066 L 0.1761727514680151 3.712512771732892 L 0.1861664977048551 3.712235718126628 L 0.1961515734804573 3.712729234049996 L 0.2060622589493901 3.714041837037941 L 0.2158170994750854 3.716224908631554 L 0.2253186987715479 3.719329314657295 L 0.2344482426928405 3.723397998140068 L 0.24314663052008 3.728326881661315 L 0.2515051048067658 3.733813712624829 L 0.2595113437215932 3.739802943271925 L 0.2671353441937017 3.746271633537778 L 0.2743301732869154 3.753214225960221 L 0.2810268321279903 3.760637974775024 L 0.2871605319009243 3.768533490245735 L 0.2927902579557475 3.77679646360991 L 0.2979315696875568 3.785372041116463 L 0.3025905961995363 3.794219047937346 L 0.3067712996310314 3.803301984103944 L 0.3104749471132795 3.8125896061232 L 0.3136999657454274 3.822054189722951 L 0.3164415203559781 3.831669971924029 L 0.3186915002551274 3.841412502015025 L 0.3204383957670309 3.851257662119166 L 0.3216672532507188 3.861180757429215 L 0.3224310300266522 3.871151027835042 L 0.3228083464763722 3.881143113769379 L 0.3227029694437826 3.891141293835676 L 0.3220066751115524 3.901115295569374 L 0.3206121135664608 3.911015089710128 L 0.3184273086973013 3.920770285204028 L 0.3153932992197417 3.930295078880101 L 0.3114982159455728 3.939501094893874 L 0.3067802277473337 3.94831386360595 L 0.3013171500585567 3.95668557727636 L 0.2952082558063873 3.964598889999463 L 0.2885564198333643 3.972062678106441 L 0.2814580853091408 3.979104446207456 L 0.2740714401904718 3.985844545945401 L 0.26645579004472 3.992324659815642 L 0.2585863540738833 3.998493525497123 L 0.2504134716303472 4.004253431843316 L 0.2418496950774145 4.009410909339408 L 0.2327744891742798 4.013595822423091 L 0.2233009167839404 4.016787143711402 L 0.2136014922922964 4.019212631348906 L 0.2037679917091495 4.021025510673242 L 0.193854127462215 4.02232729328459 L 0.1838915640480048 4.023183842668784 L 0.1739022272979049 4.023632766284153 L 0.163902917769299 4.023684359753048 L 0.1539145912447912 4.023248829641609 L 0.1439985502196679 4.021978452041945 L 0.1342070851867803 4.019957184791504 L 0.1245715181075564 4.017287844837744 L 0.1151165819278859 4.014034569794315 L 0.1058675369084545 4.01023504491642 L 0.0968532045985216 4.00590684980388 L 0.0881114857222665 4.001052079497485 L 0.0796933297817786 3.995659683405603 L 0.0716635645202555 3.989703374734162 L 0.0641161967970856 3.983147403326062 L 0.0571821002649839 3.975947544437188 L 0.0510446035950478 3.96805953858187 L 0.0458430542061441 3.959523771229559 L 0.0414498394013352 3.950543697985267 L 0.0377851358377672 3.941241557268046 L 0.0347855503531944 3.931703689745434 L 0.0324017671333232 3.921993127334516 L 0.0305978251692336 3.912158287659426 L 0.0293495708028147 3.902237506473905 L 0.0286437000086739 3.892263655286331 L 0.0284769553840789 3.882266248195019 L 0.0288559348295143 3.872274667542328 L 0.0297971960623134 3.862320488854111  z" id="ID_503"/>
   </g>
   <g id="ID_0" color="rgb(0,0,0)" stroke="currentColor" fill="none" stroke-width="0.00005039721436807565"/>
  </g>
 </svg>