<?xml version="1.0" encoding="UTF-8" ?>
 <svg viewBox="-1.044100590122581 -3.137316184064612  0.4076080342841262 0.386521158040912" xmlns="http://www.w3.org/2000/svg" version="1.0" overflow="visible">
  <defs>
   <g id="ID__#42_Model_Space"/>
   <g id="ID__#42_Paper_Space0"/>
   <g id="ID__#42_Paper_Space"/>
  </defs>
  <g id="draft" transform="matrix(1 0 0 -1 0 0)" stroke-width="5.039721436807565E-5">
   <g id="Layer_#32_1" color="rgb(255,0,255)" stroke="currentColor" fill="none" stroke-width="0.00005039721436807565"/>
   <g id="Poliline" color="rgb(0,0,0)" stroke="currentColor" fill="none" stroke-width="0.00005039721436807565">
    <path d="M -0.8154935078085099 3.08715372282665 L -0.8301997624539962 3.083991973130022 L -0.8399974435466797 3.081990436479255 L -0.8497898560874412 3.079963062464301 L -0.8595576418311328 3.077821342486101 L -0.8692785565654626 3.075476167118711 L -0.8789223284603275 3.072832524075398 L -0.8828044980112199 3.077142376759812 L -0.878597742948644 3.086103025466739 L -0.8709991156876046 3.092521206841215 L -0.8618445120346844 3.096485341776213 L -0.8520592283637906 3.098475500787436 L -0.8420747982851111 3.098708459539274 L -0.8322265301657703 3.097080142820029 L -0.823103478067364 3.093081299923577 L -0.8154935078085099 3.08715372282665 " id="ID_63E"/>
    <path d="M -1.003485694263988 2.831873204921322 L -0.9984552279342944 2.820219199572713 L -0.9938658358369636 2.813323487880573 L -1.008710730529637 2.807541924971268 L -1.016337227814807 2.812097644442737 L -1.014115801106592 2.821539324678063 L -1.003485694263988 2.831873204921322 " id="ID_63F"/>
    <path d="M -0.976582472232395 3.007228160734973 L -0.9769871501657716 3.008373019157383 L -0.982462243603961 3.016137164932041 L -0.9916376343838679 3.019997932427759 L -1.001569707623548 3.020348873767396 L -1.010976304342356 3.017100243767623 L -1.019013396250116 3.01119864789284 L -1.025464819587096 3.003580336970808 L -1.030292676950897 2.99484197187024 L -1.03340629390308 2.985355027971939 L -1.034576768959743 2.975443187772947 L -1.033448860415782 2.965533808179184 L -1.03156874137098 2.95571299115998 L -1.028904154493758 2.946090247013334 L -1.022835221424801 2.938395696579769 L -1.013103451699424 2.937978721209603 L -1.004082473538574 2.942228157647637 L -0.9942880415500444 2.944004991719479 L -0.9855154244077706 2.94873007520673 L -0.9783002084834304 2.955617857388634 L -0.9728271431507931 2.963964075616175 L -0.9692227397200801 2.973271370721127 L -0.9677208132022467 2.983136319822039 L -0.9687111245423132 2.993055576473837 L -0.9725852584787082 3.002226351104669  z" id="ID_640"/>
    <path d="M -1.004082473538574 2.942228157647637 L -1.005448795078238 2.952125422606448 L -1.005327349481636 2.962114916808802 L -1.003643676447265 2.97196107156037 L -1.000354336886793 2.981391742351071 L -0.9954729990179576 2.990104059504256 L -0.9891007503172649 2.997792563175529 L -0.9814412053973899 3.004200095793613 L -0.9765824722323941 3.007228160734971 " id="ID_641"/>
    <path d="M -1.023582474464774 2.915728156388954 L -1.025813749142153 2.910387496820963 L -1.027413695461744 2.900534074063216 L -1.028211554019008 2.890563979324767 L -1.029886418996113 2.88071613363644 L -1.033641035391987 2.871703565272092 L -1.036661840173418 2.862170591694008 L -1.039470994613794 2.852573987093393 L -1.04162875908377 2.842813289536824 L -1.04255625855735 2.832866503743341 L -1.041735893175299 2.82291556322872 L -1.039403503851282 2.813199505748407 L -1.035491335111749 2.804015166070524 L -1.029541311147759 2.796016425463859 L -1.021136821571128 2.790923912143101 L -1.011194583071123 2.790099367718658 L -1.001240611730824 2.790984408418713 L -0.9914628298228116 2.793048850851358 L -0.9824003998353845 2.794853638478729 L -0.9741420458376097 2.789215845823372 L -0.965685441970999 2.783880196780517 L -0.9570184633072544 2.77889352497063 L -0.9481362607898873 2.774301660426893 L -0.9390430857836182 2.770143347393128 L -0.9297538143157204 2.766443768641742 L -0.9202925883099393 2.763208657568693 L -0.9106897268931115 2.760421838488555 L -0.9009765584476276 2.758046914966625 L -0.8911819400293135 2.756033065608232 L -0.8813295866371477 2.754322137673193 L -0.8714375061955985 2.752857492635898 L -0.861500266809176 2.751744911024287 L -0.8515243814570068 2.751060420925375 L -0.8415285615116934 2.7507950260237 L -0.8315303054501246 2.750942016297516 L -0.821546390169467 2.751496906382806 L -0.8115932716052106 2.752457372139366 L -0.8016876838016457 2.753823161121676 L -0.7918468403370778 2.755596033851899 L -0.7820889488211069 2.757779674884234 L -0.7724336487099209 2.760379587861374 L -0.7629024727780678 2.763402956372793 L -0.7535194121029223 2.76685841979215 L -0.7443113986270254 2.770755788901791 L -0.7353084137097401 2.775105848156997 L -0.7265447006732613 2.77991951045116 L -0.7180587502375433 2.785207248031124 L -0.7098937334495999 2.790978026017608 L -0.7020977139174196 2.797237858400508 L -0.6947212950693018 2.803987105023251 L -0.6876766741579204 2.811083654500386 L -0.6809108873424492 2.818446384800042 L -0.6744598569886362 2.826086355884577 L -0.6683588818861006 2.834008414292352 L -0.6626404586517803 2.842210816263984 L -0.6573326200965548 2.850684647322053 L -0.6524570516221875 2.859414397963945 L -0.6480280034218123 2.868378631024128 L -0.6440511244525418 2.877552682139207 L -0.6405243851105001 2.886908923246434 L -0.6374383061563274 2.896419824140018 L -0.6365783708688335 2.906215885025289 L -0.6369109949308182 2.916208817713195 L -0.6367988783408283 2.926207747480253 L -0.6365482223245591 2.936204548292854 L -0.6364925558384549 2.946203789691731 L -0.6369734658420461 2.956190193141717 L -0.6383055069792613 2.966096837874735 L -0.6407163751760905 2.975795807141979 L -0.6441097879253137 2.98519910627488 L -0.6482805333921835 2.994284782950098 L -0.653154253119051 3.003013977487942 L -0.6586596390850428 3.011359596202085 L -0.6647311730047303 3.019303172052479 L -0.6713103740896919 3.026831920061383 L -0.6783460107702722 3.033936191647173 L -0.6857936913302947 3.040607390806997 L -0.6936151254902408 3.046836291086369 L -0.7017772264092903 3.052611638756522 L -0.7102510334717059 3.057918864185095 L -0.7190111302396085 3.062739182679894 L -0.7280337360594445 3.067047914928895 L -0.7372960129269615 3.070813545193198 L -0.7467742684656989 3.073996102315726 L -0.7510423204856993 3.082615307718484 L -0.7557161183333001 3.091448595941979 L -0.7614170319868201 3.099657019416044 L -0.7680360657436385 3.107145515383427 L -0.775448626488589 3.113850347722815 L -0.7835284409674195 3.119734941251547 L -0.7921566664969735 3.124782206926857 L -0.8012260213365252 3.128986391893404 L -0.8106410843947768 3.132346146387018 L -0.8203168358542916 3.13485953667984 L -0.8301748034179787 3.136520342355545 L -0.840139894681945 3.137316184064612 L -0.8501361578426962 3.137227563337239 L -0.860082466698941 3.136228166862142 L -0.8699192044243941 3.134478644602378 L -0.8793923923422202 3.131304199118723 L -0.8883247022803528 3.126824941311106 L -0.8966360816716294 3.121273974946555 L -0.9043524365069606 3.114918529332411 L -0.9115720673518098 3.108001783590584 L -0.9184284772564562 3.100723498379993 L -0.9250674738442423 3.093245667239948 L -0.9316381463662003 3.085707512382164 L -0.933082470166255 3.084062148759389 L -0.9380920144836313 3.075408408869829 L -0.9427015221373631 3.066535143025404 L -0.9468994784855881 3.057459942388042 L -0.9506767898089583 3.048201769308748 L -0.9540269023623162 3.038780601826513 L -0.9569458694437011 3.029216928385167 L -0.9570824713061938 3.028728161756166 " id="ID_642"/>
    <path d="M -0.9570824713061938 3.028728161756166 L -0.9527650260287021 3.022323057155254 L -0.9464725664130577 3.01455223657904 L -0.9407863073581035 3.006342652535952 L -0.9367957919803098 2.997183809234671 L -0.9340735683717218 2.987570672715715 L -0.9327796353977664 2.977665151095935 L -0.9330585089314373 2.967680484323844 L -0.9349730048653883 2.957877615559457 L -0.9384891661712346 2.948528742280046 L -0.943489122269426 2.939881352990173 L -0.9498014318544036 2.932138836396568 L -0.9572309008249844 2.925459910216327 L -0.9655768966724771 2.919968210575722 L -0.97463941682825 2.915762200577969 L -0.9842176085449656 2.912919574775838 L -0.9941067403944536 2.911494425692437 L -1.004098015037274 2.91150877026229 L -1.013986292717342 2.912942537084997 L -1.023582474464774 2.915728156388954 L -1.030619617223758 2.922798353053247 L -1.035975234154739 2.931225051185833 L -1.039821746406157 2.940445139044173 L -1.042364067235498 2.950109766482311 L -1.043758450463234 2.960007179901403 L -1.044100590122581 2.969997082627692 L -1.04343055407903 2.979970541873051 L -1.041737195097844 2.989821631931908 L -1.038959058185417 2.999422205606707 L -1.03498405403488 3.008589605575972 L -1.029658674593238 3.017039031386278 L -1.022836772547814 3.024324729037756 L -1.014520492051078 3.029829192304694 L -1.005090636970676 3.033091193166079 L -0.9951972092348491 3.03446792345689 L -0.9852036214022508 3.034428084457079 L -0.9752732589607973 3.033285243978626 L -0.9654912652404652 3.03122345118067  z" id="ID_643"/>
   </g>
   <g id="ID_0" color="rgb(0,0,0)" stroke="currentColor" fill="none" stroke-width="0.00005039721436807565"/>
  </g>
 </svg>