<?xml version="1.0" encoding="UTF-8" ?>
 <svg viewBox="1.453988768411699 -7.911826062368208  0.28720949290506703 0.2856726785553265" xmlns="http://www.w3.org/2000/svg" version="1.0" overflow="visible">
  <defs>
   <g id="ID__#42_Model_Space"/>
   <g id="ID__#42_Paper_Space0"/>
   <g id="ID__#42_Paper_Space"/>
  </defs>
  <g id="draft" transform="matrix(1 0 0 -1 0 0)" stroke-width="5.039721436807565E-5">
   <g id="Poliline" color="rgb(0,0,0)" stroke="currentColor" fill="none" stroke-width="0.00005039721436807565">
    <path d="M 1.648917652472165 7.894728392878764 L 1.644859992167591 7.889626855216613 L 1.63796902863018 7.882388428854207 L 1.630174716852689 7.876138291619533 L 1.621394204793599 7.871986411423323 L 1.61154232900979 7.873701663655784 L 1.601686311253724 7.875393112872277 L 1.591816168753066 7.876958381297072 L 1.581825571836205 7.877138647984805 L 1.571906168673948 7.875933785243193 L 1.562219811131006 7.873475193583328 L 1.552868964357997 7.869945573965244 L 1.543898741619703 7.865534015078759 L 1.535315054656408 7.860410277091407 L 1.527098044644963 7.854713447630655 L 1.519220120210413 7.848556214401353 L 1.511647565283283 7.842025534701885 L 1.504348467318725 7.835190676986922 L 1.497291472318128 7.828105129124057 L 1.490515370839514 7.820752999585573 L 1.484349634426308 7.812885076028095 L 1.479108839043641 7.804377090384342 L 1.475051212606927 7.795246666530627 L 1.471975291012348 7.785733688415022 L 1.469068774155185 7.77616592788695 L 1.465724215421439 7.766742466039017 L 1.462354956904118 7.75732787469566 L 1.459705108587209 7.74769109959374 L 1.457715384455848 7.737891098354172 L 1.455959174793383 7.72804705179673 L 1.454644750191397 7.718136251434176 L 1.453988768411699 7.708159034023972 L 1.454230606244329 7.698166296307764 L 1.455623182411219 7.688270815441907 L 1.458390776846957 7.67867185983826 L 1.462650532015325 7.669637219080928 L 1.469896160245911 7.663482833442362 L 1.477980936149546 7.657673284178474 L 1.48430189759579 7.649942679365122 L 1.489932166900428 7.64167872862848 L 1.49644524719854 7.6341170664002 L 1.504929598155106 7.628946755915441 L 1.514678186690502 7.626812647814407 L 1.524652333948151 7.626153383812881 L 1.534650457867838 7.626280946730698 L 1.544628533166504 7.626944214635586 L 1.554565616200926 7.62804888451326 L 1.564440068173042 7.62963555612437 L 1.574324944570531 7.631076157807886 L 1.584317891976607 7.631344311849663 L 1.594258927052286 7.632320574436538 L 1.603993504903569 7.634593955829608 L 1.613484188483516 7.637736861247472 L 1.622733244839102 7.641537138770558 L 1.631761176080793 7.645835911972303 L 1.640599538384398 7.650512688610723 L 1.649283163921464 7.655471520146929 L 1.657616921334637 7.660991346553695 L 1.665379601616717 7.667289189469348 L 1.672508053352604 7.674297022077007 L 1.678957341264292 7.681934534487838 L 1.684701708201588 7.690116646605888 L 1.689730716132228 7.698756515034818 L 1.694048652025404 7.707773357608048 L 1.697669275511376 7.717092603367145 L 1.700612967372422 7.726647374212697 L 1.702904242680406 7.736379072870327 L 1.704569751818746 7.74623754418596 L 1.705636536646459 7.756179183658558 L 1.706131198092631 7.766165319857795 L 1.7060795353694 7.77616391867785 L 1.705506030471904 7.786146357892541 L 1.706156807550877 7.796075001554424 L 1.709157145323106 7.80560426801503 L 1.713327484475171 7.814689039882929 L 1.718341808888165 7.8233370280834 L 1.724249687300243 7.831396358620654 L 1.733967903842077 7.833357700910259 L 1.741198261316766 7.839966805099836 L 1.737407064321431 7.847578732085793 L 1.729540168655024 7.853751817677596 L 1.721553696297747 7.859769610794935 L 1.713531701393531 7.865740277639422 L 1.705551767359841 7.87176673866601 L 1.69769131156058 7.877948035282646 L 1.690034221925739 7.884378992343311 L 1.682675533873631 7.891148771368535 L 1.675725179843393 7.898335838865583 L 1.669306782127356 7.9060009447358 L 1.662036862933605 7.911826062368208 L 1.653601875991092 7.907377424796763 L 1.649103234940982 7.898592926823862  z" id="ID_39D"/>
    <path d="M 1.724249687300243 7.831396358620654 L 1.715376604620086 7.835997665435378 L 1.707004671920858 7.841460281214073 L 1.699106279114609 7.847589731266522 L 1.691601757243744 7.854197400942751 L 1.684380887569479 7.861114745631868 L 1.677318192412154 7.868194025678362 L 1.670282603267234 7.875300335117129 L 1.663142745272192 7.882300709029405 L 1.655769023135921 7.88905518917384 L 1.648917652472164 7.894728392878764 " id="ID_39E"/>
    <path d="M 1.531917646914962 7.791728387986527 L 1.539796695657904 7.785619980698347 L 1.549084408983679 7.782032664147509 L 1.556484545611123 7.787146527266275 L 1.56164666486948 7.795703939609598 L 1.567732620470348 7.803633537918069 L 1.57464751308397 7.810850294895086 L 1.582281104797933 7.817303413454015 L 1.590516841186068 7.822968715691511 L 1.599243593702468 7.827844218627739 L 1.608362042838325 7.831942350616297 L 1.617785202689285 7.835281904897781 L 1.627438553961279 7.837882821177839 L 1.637257405083086 7.839761897486457 L 1.647186866476124 7.840930251949575 L 1.647261565282509 7.847790573643391 L 1.641973302650971 7.856250524623683 L 1.634479900075546 7.862792044918319 L 1.625056555637487 7.865914251532682 L 1.615116879187509 7.865337168932335 L 1.605511892571898 7.862577520612935 L 1.596180292808953 7.858986381172294 L 1.5870505844422 7.854905204113259 L 1.578106435028309 7.850433102980126 L 1.569364039790489 7.845577425830804 L 1.560891527647196 7.840268096387434 L 1.552893592818051 7.834274420436619 L 1.545906974990604 7.827136032032043 L 1.539758368107563 7.819252272903301 L 1.534232314775321 7.810920564334742 L 1.529616227181087 7.802061377585742  z" id="ID_39F"/>
   </g>
   <g id="ID_0" color="rgb(0,0,0)" stroke="currentColor" fill="none" stroke-width="0.00005039721436807565"/>
  </g>
 </svg>