<?xml version="1.0" encoding="UTF-8" ?>
 <svg viewBox="-0.1328476965829557 -8.052728400383362  0.3805850944895806 0.44752322150207924" xmlns="http://www.w3.org/2000/svg" version="1.0" overflow="visible">
  <defs>
   <g id="ID__#42_Model_Space"/>
   <g id="ID__#42_Paper_Space0"/>
   <g id="ID__#42_Paper_Space"/>
  </defs>
  <g id="draft" transform="matrix(1 0 0 -1 0 0)" stroke-width="5.039721436807565E-5">
   <g id="Poliline" color="rgb(0,0,0)" stroke="currentColor" fill="none" stroke-width="0.00005039721436807565">
    <path d="M -0.0644164132818332 7.664728381954351 L -0.0595847770715574 7.655989306110332 L -0.0533319923982791 7.648198486604677 L -0.0460530025317887 7.641350748041118 L -0.0380822883117968 7.635317794903512 L -0.029661449068362 7.629927718406009 L -0.0209582791346277 7.625004953449049 L -0.0120936000153629 7.620376708583395 L -0.0031701810769063 7.615862705210038 L 0.0029175742913594 7.612728379484483 L 0.0127804760625576 7.6110789048028 L 0.0226364576954099 7.609387194594965 L 0.0325158322938446 7.607840096876437 L 0.042433439645162 7.606561237352878 L 0.0523914805230197 7.605651632905651 L 0.0623806996596157 7.605205178881283 L 0.0723787202708266 7.605315196240153 L 0.0823477023272723 7.606076089849343 L 0.0922309377981803 7.607581887402385 L 0.1019587831086781 7.609888102400648 L 0.1115042835564699 7.612863275678851 L 0.1208879435802164 7.616317454798346 L 0.1301606627472998 7.620060541817292 L 0.139387609856878 7.623915747314026 L 0.1486339626921707 7.627724079683257 L 0.1524175813922284 7.629228380268191 L 0.1585959309637595 7.636228583469281 L 0.1663586224270741 7.642523523553801 L 0.1746723008768445 7.648075187908277 L 0.1831170586840152 7.653430803851589 L 0.1913357661453228 7.659123260435356 L 0.1988646785532388 7.665690035529259 L 0.2049919070170878 7.673564520439375 L 0.2089175840758344 7.682728382809305 " id="ID_40B"/>
    <path d="M 0.1769175825559159 7.954728395728611 L 0.1683417798952069 7.959871808903319 L 0.159650654942018 7.964817002336761 L 0.1507347384756112 7.969342250265992 L 0.1415092739907777 7.973192406830408 L 0.1319376611567851 7.976067600493481 L 0.1220719846412042 7.977644399005287 L 0.112084431268598 7.97765434382582 L 0.1058269172134016 7.97198016204654 L 0.1131761903976214 7.966433935220152 L 0.1231528644036075 7.965885108592122 L 0.1327746353126971 7.963192189563513 L 0.1421275167135043 7.959659197678484 L 0.1512647034831476 7.955597850575304 L 0.1602628720950046 7.951235641606179 L 0.1692146654460611 7.946778393609347 L 0.1744175824371732 7.944228395229889 " id="ID_40C"/>
    <path d="M -0.0265824271098154 7.981728397011043 L -0.0188558396128418 7.988036217277451 L -0.0099159740050157 7.992481687943643 L -0.000365377234032 7.99542108296776 L 0.0094435325329849 7.997353349489348 L 0.0193455132607028 7.998747083930201 L 0.0290910996440346 8.000718392625647 " id="ID_40D"/>
    <path d="M 0.2389175855007579 7.744728385754147 L 0.2371746191482815 7.735314811426773 L 0.2340751335172211 7.725813517067898 L 0.2299995975247988 7.716685312544083 L 0.2252352426506521 7.70789510060708 L 0.2200114143164367 7.699368882176283 L 0.2145156965972488 7.691014589920277 L 0.2089175840758335 7.682728382809305 L 0.203747283624355 7.681192714464744 L 0.1949243937919913 7.676537022839218 L 0.1871500435698365 7.670260808218687 L 0.1799231772047527 7.663349758464486 L 0.1724754875787395 7.656682237576715 L 0.1641186593700601 7.651227015052031 L 0.1551189953761041 7.646866562966241 L 0.1458941397363249 7.643009174113062 L 0.1364856404555352 7.639623852712172 L 0.1269281785137206 7.636684675332283 L 0.1172501534669541 7.634170262834206 L 0.1074748920194084 7.632063690155155 L 0.0976231966498427 7.630352676832432 L 0.0877115064588914 7.62902901846444 L 0.0777562851597065 7.628089265197485 L 0.0677722590527541 7.627534484434206 L 0.0577744217497669 7.62737079460077 L 0.0477778174914807 7.627609949737744 L 0.0377996409950656 7.628261031281803 L 0.027850552133267 7.629263873696294 L 0.0179446125252483 7.630627883129888 L 0.0081024418077353 7.632393366719588 L -0.00164711925816 7.634613437757601 L -0.0112622289064648 7.637356649542984 L -0.0206809010268456 7.640710287036732 L -0.0297599319875355 7.644886819346284 L -0.038375949777409 7.649959941445015 L -0.0468105777082002 7.655332348126939 L -0.0553640961716502 7.660510454293523 L -0.0644164132818332 7.664728381954351 L -0.0677625361225607 7.668767612300912 L -0.0741072022885501 7.676497087452964 L -0.080359569434763 7.684301355742361 L -0.0864635541899723 7.692222125659015 L -0.0923597302211627 7.700298428227621 L -0.0979831232952853 7.708566842387844 L -0.1032606053512488 7.717059894231925 L -0.1081095321046215 7.725804287761502 L -0.1124372509844687 7.734817507390809 L -0.1161427547884157 7.744103268369885 L -0.1191215906646867 7.753646337929707 L -0.1212748418524621 7.763408239049462 L -0.1225216071764121 7.773326254186708 L -0.1259109811219563 7.782705809876916 L -0.1287844072481521 7.792281477599915 L -0.1309050683427202 7.802051341254663 L -0.1322572842862195 7.811956999377242 L -0.1328476965829557 7.821937122247486 L -0.1327043917640349 7.83193388431476 L -0.1318730128421155 7.841897332477936 L -0.130411399090554 7.851788066002558 L -0.1283838983134728 7.861578799067632 L -0.1258566918330048 7.871253043351552 L -0.1228944919196255 7.880803435853748 L -0.1195585192048343 7.890229964990319 L -0.1158198192818576 7.899502326638625 L -0.1111554861619304 7.908342614263311 L -0.1056808326944223 7.916707734708374 L -0.0996164598681908 7.92465737667187 L -0.0931396407775243 7.932275744698163 L -0.0863976785961995 7.939661088804689 L -0.0795269691788274 7.946926922176497 L -0.0726802004479454 7.954215417940137 L -0.0660824289859647 7.961728396061094 L -0.0569566133521091 7.965768865987767 L -0.0499676031082128 7.972752647701918 L -0.0490824281785081 7.97472839667856 L -0.0396497848974287 7.977883653723544 L -0.0303552244598109 7.98148748553235 L -0.0265824271098154 7.981728397011043 L -0.0261108886004067 7.972798745639652 L -0.0330458041864281 7.965596671194259 L -0.0405077002995533 7.958952148243988 L -0.0485221842599506 7.952972464497286 L -0.0562802143499113 7.946672328048221 L -0.0627766997207306 7.939100614291921 L -0.0684806922877606 7.930891577015045 L -0.0746553443750893 7.923024938965602 L -0.080875725892513 7.915195120978169 L -0.0869271685888915 7.907234771266501 L -0.0925804510733004 7.898987998488374 L -0.0976630529516456 7.890376926660614 L -0.1024146232690795 7.881579093107443 L -0.1067718988368558 7.872579512018234 L -0.1106521890496444 7.863364791976171 L -0.1139822189507438 7.853937086026247 L -0.1167051320497752 7.844316758204865 L -0.1187874178041692 7.834538052616151 L -0.1202211026013176 7.824643196524361 L -0.1208294014561844 7.814666498759644 L -0.1204101369894142 7.804680068775843 L -0.1190885136205093 7.794770553960804 L -0.117194561510332 7.784952455967326 L -0.1150846471430826 7.775177883013331 L -0.1129138565927699 7.765416532865675 L -0.1104767764408265 7.755719046143979 L -0.1074796299630316 7.74618128672806 L -0.1036773483719138 7.736936588324186 L -0.0989770913021291 7.728114758697706 L -0.0934512663120924 7.719784385909129 L -0.0872565581114717 7.711937197634524 L -0.0804589159486486 7.704606428253233 L -0.0731791234025066 7.697751460302594 L -0.0655511337620416 7.691285416664257 L -0.0576480966166342 7.685158401831129 L -0.0495132453867084 7.679342685863692 L -0.0411730663044709 7.673825557889824 L -0.0326436328612898 7.668605946320075 L -0.0239339539777639 7.663693220363795 L -0.0150478802605054 7.65910755457726 L -0.0059853172265676 7.654881796981607 L 0.0032566830599388 7.651065263531938 L 0.0126828784378601 7.647730237164647 L 0.0222962979493033 7.644983660084328 L 0.0429175761912584 7.642728380909406 L 0.0476607577973027 7.642298517538271 L 0.0576258363795654 7.641464710525056 L 0.0676063576984438 7.6408480316776 L 0.0776028304358043 7.640620661263402 L 0.0875951058922988 7.640962705881726 L 0.0975352731482859 7.642029594763609 L 0.1073525724009441 7.643915162621082 L 0.1169767409262832 7.646620133589834 L 0.126402940151527 7.649955152752106 L 0.1356568377753993 7.653743375650305 L 0.1447499185865775 7.65790367036593 L 0.1536830457983385 7.662397685411338 L 0.1624489288472741 7.667210495886012 L 0.1710318921425129 7.672342697289654 L 0.1794069298192538 7.677807727387635 L 0.1875359092390161 7.683630994261378 L 0.1953629098281349 7.689851805879606 L 0.2028061412635642 7.696528102570211 L 0.2097343223558932 7.703735737680838 L 0.2159369806107803 7.711573276512611 L 0.2211178364160053 7.720118801580202 L 0.2255749003424583 7.729070287715114 L 0.2299260897072752 7.73807398452135 L 0.2349175853107681 7.746728385849142 " id="ID_40E"/>
    <path d="M 0.0899175784236377 8.043728399955885 L 0.0940856203911809 8.034640407705316 L 0.097617879285294 8.02528733282666 L 0.100423262741141 8.015691698355157 L 0.1036162238815308 8.004221787213002 L 0.08905870768562 8.007220115404419 L 0.0791309167182028 8.00622506975935 L 0.0696141339910419 8.003200277943673 L 0.0607020834570191 7.998682736521882 L 0.0521326165712397 7.996160793501362 L 0.0469175763812473 7.998728397818499 L 0.0393931156806104 8.000937372356322 L 0.0339133542706378 8.001375331817702 L 0.0290910996440346 8.000718392625647 L 0.0299175755737906 8.00272839800849 L 0.03087456746941 8.006299780505055 L 0.0339175757637804 8.015728398625956 " id="ID_40F"/>
    <path d="M 0.0899175784236368 8.043728399955885 L 0.0861058961513361 8.041459755625079 L 0.0778377338869554 8.035837777684497 L 0.0697460176990843 8.029962060947899 L 0.061510364923401 8.024291754896268 L 0.0528283059767318 8.019341411219145 L 0.0434784491300491 8.015843976126149 L 0.0339175757637804 8.015728398625956 L 0.0322496069345562 8.018728398768449 L 0.0339175757637804 8.02572839910093 L 0.0428915033432711 8.030140275668135 L 0.0518929813927107 8.034496153420388 L 0.0607874691028148 8.039065087446541 L 0.069418460277868 8.044111388242094 L 0.0775692869783917 8.04989677185311 L 0.0809175779961606 8.052728400383362 L 0.0886632840071258 8.048016150495428  z" id="ID_410"/>
    <path d="M 0.2042496151041178 7.922728394208693 L 0.1946527022440794 7.925524098758342 L 0.1860418488309463 7.930476551551207 L 0.1844175829121468 7.932228394659919 " id="ID_411"/>
    <path d="M 0.2249175848357936 7.878728392118805 L 0.2209478672077054 7.887889675746208 L 0.2157780881701585 7.896446752095701 L 0.210498414054511 7.904937960166756 L 0.2062253011108881 7.913964095076338 L 0.2042496151041178 7.922728394208693 " id="ID_412"/>
    <path d="M 0.0322496069345562 8.018728398768449 L 0.029731590094495 8.018519312004633 L 0.0197993450067138 8.01736651416879 L 0.0099365666401239 8.01572125845881 L 0.0001608496942822 8.013619093675615 L -0.0095144683777688 8.011094398318424 L -0.019079516096034 8.00817972595703 L -0.0285276903512086 8.004905247611735 L -0.0378542514710842 8.001298806985146 L -0.0470563963631179 7.997385691343113 L -0.0561326377038558 7.993188729436461 L -0.0650824289384673 7.988728397343525 L -0.074189897528222 7.992483961282214 L -0.0723447869166289 8.00035016699965 L -0.0642539313779862 8.00620510590809 L -0.055487877758404 8.01101051404257 L -0.0463868949876822 8.015155444882106 L -0.0370698016168518 8.01878455130123 L -0.0275870440068493 8.021949709707535 L -0.0179583853508474 8.024645883096165 L -0.0081962824200712 8.026807974326639 L 0.0016604474813375 8.02849369021144 L 0.0115402444281987 8.03003133164415 L 0.0215183182360423 8.03041661788941 L 0.0311436937002849 8.027958775765617 L 0.0339175757637804 8.02572839910093 " id="ID_413"/>
    <path d="M -0.0490824281785081 7.97472839667856 L -0.0568904928422587 7.980907248730806 L -0.0643422047093454 7.987461966214749 L -0.0650824289384673 7.988728397343525 " id="ID_414"/>
    <path d="M 0.2249175848357927 7.878728392118804 L 0.2278695146455574 7.879538605998797 L 0.2378201885124778 7.879246174637034 L 0.2420445808582006 7.870577841092872 L 0.2418226195103239 7.860590418486882 L 0.2429175856907477 7.850728390788876 L 0.245145452823607 7.836666803903685 L 0.2453540459798607 7.822109594418499 L 0.2473635306139634 7.812328909820962 L 0.2477373979066249 7.802344315655272 L 0.2468533690774093 7.792388458817176 L 0.2449841902847254 7.782568085877722 L 0.2454648939851918 7.772875244070347 L 0.2461327522607979 7.762920381880516 L 0.2441711696266751 7.753154376619126 L 0.2389175855007579 7.744728385754147 L 0.2349175853107681 7.746728385849142 L 0.2358463727103714 7.756053495697383 L 0.2370069888298643 7.765985739282043 L 0.2382754432191589 7.775905118380355 L 0.2396244858681236 7.785813480770316 L 0.2398061743434452 7.795776132964942 L 0.2379495881928193 7.805596835234382 L 0.2359295149011409 7.815387858548723 L 0.2356559315037359 7.825350832950319 L 0.2389175855007579 7.834728390028917 L 0.2389175855007579 7.844728390028917 L 0.2389175855007579 7.846728390598887 L 0.2332476450991843 7.8549179665684 L 0.2296595526889789 7.86424064418314 L 0.2267312629020752 7.873801854853304  z" id="ID_415"/>
   </g>
   <g id="ID_0" color="rgb(0,0,0)" stroke="currentColor" fill="none" stroke-width="0.00005039721436807565"/>
  </g>
 </svg>