<?xml version="1.0" encoding="UTF-8" ?>
 <svg viewBox="1.723004362566231 -2.995716767152041  0.3399523264278781 0.33448463674330275" xmlns="http://www.w3.org/2000/svg" version="1.0" overflow="visible">
  <defs>
   <g id="ID__#42_Model_Space"/>
   <g id="ID__#42_Paper_Space0"/>
   <g id="ID__#42_Paper_Space"/>
  </defs>
  <g id="draft" transform="matrix(1 0 0 -1 0 0)" stroke-width="5.039721436807565E-5">
   <g id="Layer_#32_1" color="rgb(255,0,255)" stroke="currentColor" fill="none" stroke-width="0.00005039721436807565"/>
   <g id="Poliline" color="rgb(0,0,0)" stroke="currentColor" fill="none" stroke-width="0.00005039721436807565">
    <path d="M 1.888917663871552 2.830728152351671 L 1.892392617614574 2.821366295806619 L 1.897791060263753 2.812980713328892 L 1.905422610890987 2.806599759940777 L 1.914916930619248 2.803731914581247 L 1.924712884850211 2.805274790365702 L 1.933122662076352 2.810585114485965 L 1.939479039892534 2.818263011404212 L 1.943654743216934 2.827321400025775 L 1.945473088333014 2.837126900567975 L 1.944581055160682 2.847050301701811 L 1.940658683217706 2.856198077019008 L 1.933804685068949 2.863394101385907 L 1.924699305278643 2.867365403599491 L 1.914761297886226 2.867742804625045 L 1.905206565324452 2.864921861468365 L 1.896957617733937 2.859342681771256 L 1.890943276320967 2.8514155257068 L 1.888081026218735 2.841891396852057 L 1.88863353413902 2.831950164322147  z" id="ID_6DB"/>
    <path d="M 1.860249693759897 2.830062136695037 L 1.860714046004737 2.820126716724569 L 1.864404026036327 2.810872006456527 L 1.870314155577958 2.802829226261749 L 1.87760511481176 2.796000590617067 L 1.885801512693739 2.790284377304121 L 1.894668026899037 2.785675088405929 L 1.904122075467421 2.782458608592525 L 1.914031218462326 2.78120081976367 L 1.924011596658287 2.781590581299601 L 1.933774519702708 2.783693964854677 L 1.943017924767024 2.787475072980337 L 1.951473020306809 2.792791177584167 L 1.958929508042563 2.799436978207122 L 1.965229919163407 2.807187444016891 L 1.970249349535159 2.815822017167846 L 1.973876624558756 2.825135185307525 L 1.975992474950972 2.834897615135858 L 1.976488242845746 2.844873399301572 L 1.975278729592308 2.854788264410615 L 1.972346154745594 2.864327254142265 L 1.96776668766618 2.873203555265567 L 1.961733925715114 2.881163479459424 L 1.954509438865424 2.888063562826031 L 1.946241144077343 2.893667350800242 L 1.937201375308217 2.897922077251022 L 1.927629773092247 2.9007821345359 L 1.91770871393724 2.901916352564644 L 1.907738699363022 2.901331343034675 L 1.898031554572978 2.898989339213672 L 1.888916483513177 2.894912498504131 L 1.880692663096826 2.889247800354935 L 1.873593183533699 2.882223167989028 L 1.867783872758611 2.874097934356081 L 1.863381387831201 2.865131283851708 L 1.860473305307436 2.855574730629962 L 1.859126673353976 2.84567667983603 L 1.859383577142522 2.835690866770951  z" id="ID_6DC"/>
    <path d="M 1.975583683612967 2.908062140399838 L 1.977933802395814 2.91123936155389 L 1.984617542676735 2.918669482918714 L 1.991953043628948 2.925463410331417 L 1.999515166290716 2.932006690174706 L 2.006917669476251 2.938728157481396 L 2.015528781286248 2.943811602267313 L 2.024373946044378 2.948472681779287 L 2.033617986567763 2.952268900088498 L 2.043389894529465 2.954246556475501 L 2.053043955633908 2.952209404595659 L 2.059744707374846 2.9449739680519 L 2.062956688994109 2.935540088462266 L 2.062008008690778 2.926215399213871 L 2.054647423628956 2.919499195057291 L 2.046197949237757 2.914154540540534 L 2.037977358957826 2.908477632265263 L 2.033417670734934 2.903728155818985 L 2.024072883099757 2.900279755464678 L 2.015470154421866 2.895185187005978 L 2.006588466895729 2.890619356417314 L 2.003917669333759 2.889728155154021 " id="ID_6DD"/>
    <path d="M 1.764917657981868 2.706728146461987 L 1.770919274737174 2.698738405977795 L 1.777884332669043 2.691571552057343 L 1.7856322183496 2.685257473628698 L 1.793995903914607 2.679783048698833 L 1.80283354299629 2.675110725956226 L 1.812031131337423 2.671192672392033 L 1.821498859755172 2.667980486755435 L 1.831166305173653 2.665430312456985 L 1.840977068890377 2.663505372684515 L 1.850887525448658 2.662176435618574 L 1.860857812593747 2.661422962700989 L 1.870854793629736 2.661232130408738 L 1.88084689387509 2.661599246457468 L 1.89080252403227 2.662527727240084 L 1.900687886790864 2.664029347801186 L 1.91046448775805 2.66612467194589 L 1.920085976004019 2.6688435645385 L 1.929494385211929 2.672225704139222 L 1.938612992284278 2.676323866518938 L 1.947381451897285 2.681126860358993 L 1.955803936598247 2.686514757061774 L 1.963908643008025 2.692370698587293 L 1.971738709330934 2.698589773024103 L 1.979347764612068 2.705077892845963 L 1.986798083282359 2.711748061585533 L 1.994025633919561 2.718657243460791 L 2.0008294350806 2.7259834844163 L 2.007125153751881 2.733750098075081 L 2.012838047496777 2.741954517317827 L 2.017921959238343 2.750562758612078 L 2.022377369715715 2.759512543751766 L 2.026257422408529 2.768727109847542 L 2.029656749811628 2.778130736201495 L 2.032690807524695 2.787659607887777 L 2.035484886086512 2.797260953650576 L 2.03792679370428 2.806956840799733 L 2.039649960632195 2.816804208681032 L 2.040516175927169 2.826763879020838 L 2.040677289660264 2.836761144101222 L 2.040354761171236 2.846755151665918 L 2.039957655759667 2.856746613151956 L 2.039644674835878 2.866741209340409 L 2.039095867435231 2.876724864227581 L 2.037982153251644 2.886660248979875 L 2.035923835406098 2.896440086313349 L 2.033417670734934 2.903728155818987 " id="ID_6DE"/>
    <path d="M 1.80158367534841 2.77406213403518 L 1.798235366722807 2.771970885280023 L 1.789681419448352 2.766791542455399 L 1.781051805810389 2.761738814980922 L 1.772379502662832 2.75675967910382 L 1.763695566817354 2.751800878614311 L 1.755030857864667 2.746808627967823 L 1.746417657103165 2.741728148124398 L 1.7397829450301 2.734246948402759 L 1.733798347574245 2.726265096660434 L 1.732090183257247 2.71660266357024 L 1.735846395496505 2.707408304451348 L 1.743369809362397 2.70109201322378 L 1.753212894454842 2.701020543609855 L 1.762318398832007 2.705077587912814 L 1.764917657981868 2.706728146461987 L 1.772941422029603 2.712695227173236 L 1.780753903529874 2.71893682987762 L 1.788411279017535 2.725368080558231 L 1.79597559981109 2.731908690669156 L 1.803511144969827 2.738482464572021 L 1.811081450516716 2.745016079304516 L 1.811917660214248 2.745728148314388 " id="ID_6DF"/>
    <path d="M 1.746417657103165 2.741728148124398 L 1.741683808563009 2.750535495238649 L 1.737412230123729 2.759575961118617 L 1.733636783926025 2.768834468831746 L 1.730390201841925 2.778291271999558 L 1.727702910619214 2.787921814503521 L 1.725601720010762 2.797697069718417 L 1.724108702678671 2.807583301780354 L 1.723239855223033 2.817543756806742 L 1.723004362566231 2.827539227810788 L 1.723404091013419 2.837529472278426 L 1.72443355643921 2.847474583502989 L 1.726080339376975 2.857336320773567 L 1.728325881986216 2.867079234098126 L 1.731146556765859 2.876671519375642 L 1.734514875532468 2.886085554474021 L 1.738400712908855 2.895298125219781 L 1.742772443542928 2.904290384874361 L 1.747597926404594 2.913047610423506 L 1.752796886072279 2.921589211723469 L 1.758178047621535 2.93001728308722 L 1.763822487970821 2.938271075101164 L 1.769856969491096 2.946243270317536 L 1.776402818878523 2.953800198066048 L 1.783538042828614 2.96080192087802 L 1.791266459271444 2.967142365937975 L 1.799519166694871 2.972784127270641 L 1.808112719397872 2.977897060564574 L 1.816906541494359 2.982656191065167 L 1.825968148437343 2.986880743923972 L 1.835335394710144 2.990371895663745 L 1.844993017556152 2.99294944024276 L 1.85485611892241 2.994581754725841 L 1.864812451092246 2.99549059130237 L 1.874808029388947 2.995716767152041 L 1.884797190498183 2.995293858110899 L 1.894741853172298 2.994259015852536 L 1.904610282281349 2.992650603391455 L 1.914376342018173 2.990506519795138 L 1.924019273078455 2.987862858903101 L 1.933522268069914 2.984753214177635 L 1.942871917853395 2.981208152912314 L 1.952056645079244 2.977255331191653 L 1.961066889799271 2.972919165278188 L 1.969893894987643 2.968221161061991 L 1.978529617819936 2.963179843191488 L 1.986965579448352 2.95781125292579 L 1.995021405271489 2.9518942547547 L 2.00221888510785 2.9449676274058 L 2.00691766947625 2.938728157481396 " id="ID_6E0"/>
   </g>
   <g id="ID_0" color="rgb(0,0,0)" stroke="currentColor" fill="none" stroke-width="0.00005039721436807565"/>
  </g>
 </svg>