<?xml version="1.0" encoding="UTF-8" ?>
 <svg viewBox="-0.7878805356782284 -7.294576191932796  0.4007736255952681 0.4173329657102247" xmlns="http://www.w3.org/2000/svg" version="1.0" overflow="visible">
  <defs>
   <g id="ID__#42_Model_Space"/>
   <g id="ID__#42_Paper_Space0"/>
   <g id="ID__#42_Paper_Space"/>
  </defs>
  <g id="draft" transform="matrix(1 0 0 -1 0 0)" stroke-width="5.039721436807565E-5">
   <g id="Poliline" color="rgb(0,0,0)" stroke="currentColor" fill="none" stroke-width="0.00005039721436807565">
    <path d="M -0.7120824596693183 7.081728354263336 L -0.7096567259377329 7.072030722438797 L -0.7063970592288804 7.06257981165212 L -0.7023960176480273 7.053417876179053 L -0.6976969017835373 7.044593507429368 L -0.6923090035217215 7.036172284997417 L -0.6862157982692292 7.028247143362413 L -0.6793816908462498 7.020952748298078 L -0.671762877309071 7.014485247477233 L -0.6633320408024233 7.009125037251467 L -0.6541307640496088 7.005245159654859 L -0.6443499899397162 7.00325746598243 L -0.634373616739806 7.003447741314883 L -0.6246738543437395 7.005801344707536 L -0.6154677388613115 7.009692297763788 L -0.6067088018912781 7.01450912344325 L -0.5985227446395909 7.02024179495083 L -0.5913419382867229 7.02717678930297 L -0.5862147714649515 7.035725561268968 L -0.5828924212872728 7.045148529459822 L -0.5806602684452375 7.054893099034815 L -0.579215523671083 7.064785606237435 L -0.5786716369971315 7.074767617777148 L -0.5791060747916 7.084754167811251 L -0.5805893578725883 7.094637943934051 L -0.5831979070623712 7.104285259916276 L -0.5870016754529166 7.113525481452109 L -0.5920431602291237 7.12215150166028 L -0.5983085390570367 7.129932273628824 L -0.605703604746724 7.13664754400268 L -0.6140514858795579 7.142134310371229 L -0.6231399669147893 7.146280664597778 L -0.6327554024714646 7.148991523417533 L -0.6426674195003006 7.150243363857609 L -0.6526569255887918 7.150052052536632 L -0.6625196529418931 7.148452064514585 L -0.672062564928809 7.145481685066883 L -0.6810805026446394 7.141183270620135 L -0.6893649735428014 7.13560290404829 L -0.6966888296225866 7.128807011827215 L -0.7028085598960665 7.120914877622608 L -0.7075107936646825 7.112103209224608 L -0.7106457995168621 7.102619868789943 L -0.7121726963425452 7.092748161610233 L -0.712164875860637 7.082757065623334  z" id="ID_490"/>
    <path d="M -0.7844164474799982 7.124062340649093 L -0.7869040529350535 7.114388806357029 L -0.7878805356782284 7.104444540508626 L -0.7877330335979816 7.094448758601295 L -0.7869967974993131 7.084476369219246 L -0.7862640749386163 7.074503773685736 L -0.7863134521351843 7.06450742130131 L -0.7865065029510081 7.0545107273828 L -0.7855413567954024 7.044566254591098 L -0.7837187354782867 7.034734973419012 L -0.7814448076768512 7.024997191333687 L -0.7788521857556159 7.0153397246002 L -0.7760211313062815 7.005749058485467 L -0.7730057773803836 6.996214535772531 L -0.7697467030827179 6.986761681758971 L -0.7659596264918962 6.97750778002986 L -0.7616419181803451 6.968489285654775 L -0.7568065257725554 6.95973753962135 L -0.7514635926565303 6.951286204402033 L -0.7456235288443489 6.943170628379443 L -0.7392989376907791 6.935426656462521 L -0.7325064321035928 6.928089856263967 L -0.7252672388587893 6.921193666329166 L -0.7176074075624977 6.914767829133449 L -0.7095579158708248 6.90883727906624 L -0.7011537330796056 6.903420771846574 L -0.6924329913092206 6.89853030770385 L -0.6834350612775691 6.894170526820171 L -0.6741897143051796 6.890364141319877 L -0.664731782482968 6.887119218831756 L -0.6551213095761171 6.884357387067613 L -0.6453950992498925 6.882035310392443 L -0.6355771315576569 6.880138367852057 L -0.6256851690655197 6.878676662853458 L -0.6157353067844769 6.877687180957968 L -0.6057468083753355 6.877243226222571 L -0.5957522136703544 6.877477102315028 L -0.5857832579661145 6.878260088260644 L -0.5758007561922512 6.878846321759033 L -0.5658127694160147 6.879349743402565 L -0.5558320417100591 6.879966939280972 L -0.5458784294433725 6.8809199439539 L -0.5359967016549723 6.882440083276963 L -0.5262675720298038 6.884737191683477 L -0.5168056717427847 6.887956336701298 L -0.507614708948136 6.891894312933613 L -0.4985916734516369 6.896206600351007 L -0.4897777898734237 6.900928067405545 L -0.4812123298087965 6.906085764610162 L -0.4729337875558537 6.911692930669405 L -0.4649775182589968 6.917749125766965 L -0.4573735644297888 6.924241243617463 L -0.4501434468562176 6.931146948725054 L -0.4433002674866735 6.938436919087162 L -0.4368495994498281 6.94607682706889 L -0.4307683697389218 6.954014436259913 L -0.4248204652430596 6.962053200884385 L -0.4191060713677875 6.970259086080803 L -0.413948252426347 6.978822041146597 L -0.4103951044901067 6.988136445813421 L -0.4084179140318378 6.997937892720243 L -0.4057082218215289 7.007548701173978 L -0.4010556671136199 7.016390885929645 L -0.3965686576048268 7.025309540789141 L -0.3949690764042462 7.03515047559614 L -0.3941709248281278 7.045115153077595 L -0.3923802101662863 7.054953286232615 L -0.3905382714995964 7.064781350590322 L -0.3888844081533165 7.074643376805409 L -0.387662369285124 7.08456652892807 L -0.3871069100829603 7.094551215593306 L -0.3874008467004701 7.104541921897884 L -0.388634127746049 7.114461121119282 L -0.3907951858100542 7.124220367390819 L -0.3907741635674613 7.133848262427381 L -0.3883153677307414 7.143380058778166 L -0.3916018977244935 7.152823129892194 L -0.3944872436289328 7.16239730589756 L -0.3972483111528246 7.172008565311755 L -0.4002061441526923 7.181560438407347 L -0.4037253290040086 7.190917830158807 L -0.4080046044320991 7.199953930677734 L -0.4127709048910067 7.208742689442089 L -0.418019008968515 7.217254143948238 L -0.4237536619114453 7.225444070434031 L -0.4299741360549998 7.233270898149156 L -0.4366709712524602 7.240693595108385 L -0.443827309822626 7.24767572672805 L -0.4514167728493393 7.254184864501734 L -0.4594059170072518 7.260196061388311 L -0.467757159300823 7.265693679420048 L -0.4764291358565922 7.270670339140289 L -0.4853799154482675 7.275127315856339 L -0.4945672295130628 7.279072736671635 L -0.5039539938162055 7.282521960453007 L -0.5135019094210556 7.285493148426483 L -0.5231771309154621 7.288008219546334 L -0.5329567670322977 7.290092524455275 L -0.542814294784245 7.291770128288057 L -0.5527294551682669 7.293065747578806 L -0.5626858096340372 7.29399255006616 L -0.5726720128847181 7.29450232461155 L -0.5826709475115326 7.294576191932796 L -0.5926630086883496 7.294201034192357 L -0.6026273993155771 7.293361525999672 L -0.6125389199426065 7.292039780700469 L -0.6223698566971497 7.290214532640041 L -0.6320874573026379 7.287860410342717 L -0.6416518883580534 7.284947149826598 L -0.6510141177244959 7.281438541311635 L -0.660119386179102 7.277308437401987 L -0.6689794070463142 7.272673721065659 L -0.6776240985110702 7.267649110794817 L -0.686063405511157 7.262285225497616 L -0.6942903401260728 7.256600254818564 L -0.7022816705835861 7.250589634412214 L -0.7099944959610385 7.24422632624832 L -0.7173504560245983 7.237454448782988 L -0.7240930437269455 7.230073929428549 L -0.7303495020203954 7.222273709953999 L -0.7364310607520972 7.21433552281897 L -0.7426100785030885 7.206473691576769 L -0.7489482508598826 7.198739785174957 L -0.7551616362407012 7.190905315628037 L -0.7611504383046448 7.182898125972551 L -0.7667820922356139 7.174636503415616 L -0.7718829213860507 7.166038119087516 L -0.7762583649559476 7.157050170543463 L -0.779748280315621 7.147683466627909 L -0.7822936510471373 7.138016865783829 L -0.7839564111027535 7.128159044692548  z" id="ID_491"/>
   </g>
   <g id="ID_0" color="rgb(0,0,0)" stroke="currentColor" fill="none" stroke-width="0.00005039721436807565"/>
  </g>
 </svg>