<?xml version="1.0" encoding="UTF-8" ?>
 <svg viewBox="-0.779173192044655 -5.45936142642164  0.3860640891498859 0.3979631034228124" xmlns="http://www.w3.org/2000/svg" version="1.0" overflow="visible">
  <defs>
   <g id="ID__#42_Model_Space"/>
   <g id="ID__#42_Paper_Space0"/>
   <g id="ID__#42_Paper_Space"/>
  </defs>
  <g id="draft" transform="matrix(1 0 0 -1 0 0)" stroke-width="5.039721436807565E-5">
   <g id="Poliline" color="rgb(0,0,0)" stroke="currentColor" fill="none" stroke-width="0.00005039721436807565">
    <path d="M -0.4710824482224325 5.10272826026588 L -0.4698945575565175 5.095487099849599 L -0.4718899386671529 5.085749879823727 L -0.4769080095234291 5.077137367224089 L -0.4838914854952341 5.070009891962199 L -0.4922731582155882 5.064595023573816 L -0.5017141030114863 5.061398322998827 L -0.51164506649988 5.061496109958498 L -0.5204042655636041 5.066082346407573 L -0.5260824508347924 5.074228258912203 L -0.527889505264489 5.084063612960102 L -0.5299486531500515 5.093848396461691 L -0.5326825488645959 5.103463654177476 L -0.5365325434841708 5.112683323867942 L -0.5418498169913822 5.12113542526616 L -0.5486999511402173 5.128397616800585 L -0.5568039507878888 5.134232493400076 L -0.5657437049229915 5.138693459866033 L -0.5751289217428655 5.142139514032948 L -0.5845189949251886 5.145572409093643 L -0.5936882415282483 5.149560559669613 L -0.6026398122092198 5.154011248550879 L -0.6112518665969989 5.159086777194019 L -0.6193442911632207 5.164952703746615 L -0.6267045427760989 5.171712824605604 L -0.6331709172307161 5.179335793580576 L -0.6387188123247798 5.187649891169575 L -0.6434711388522186 5.196445352887786 L -0.6476109582899499 5.205546545082651 L -0.6508934535814594 5.21498482330382 L -0.652974215025182 5.224759426787958 L -0.6540453726399367 5.234698016763411 L -0.6544615843745794 5.24468749459319 L -0.654266853894729 5.254683548587046 L -0.6535420316909173 5.264656670303883 L -0.6527454509539014 5.274624536391839 L -0.6525114470675755 5.284617994941524 L -0.6536167321514084 5.294543891915867 L -0.6567457234265506 5.304021522697676 L -0.661272800231462 5.312933161608669 L -0.6665199387707182 5.321443902428018 L -0.6722344549108002 5.329649228518637 L -0.6784633409920238 5.337463617582717 L -0.6855070309327181 5.344561155730798 L -0.6925199856924494 5.351689227235235 L -0.6988665242285919 5.359407533416798 L -0.703170775817692 5.368365086274223 L -0.7016862496384287 5.377980715101923 L -0.694408236655285 5.384706621747363 L -0.6853846897297249 5.388981600661856 L -0.6765921742203931 5.38576513779329 L -0.6690483180166434 5.379220710074382 L -0.6625195049401515 5.371652790043153 L -0.6566336953965825 5.363570094357998 L -0.6510149247688793 5.355298083410662 L -0.6453099894679452 5.347085277522183 L -0.6391673019471114 5.339196831462651 L -0.6322294439249437 5.332004973489624 L -0.6242051401573816 5.326063659334936 L -0.6150791130255425 5.322030512430077 L -0.6052523951682584 5.320293611398094 L -0.5952595151014659 5.320303955285285 L -0.5852722686381782 5.320726912907097 L -0.5753458458208743 5.319747566725497 L -0.5656914598236203 5.317149306189034 L -0.5562579284934852 5.31383775022669 L -0.5470981878043704 5.309831226649463 L -0.5383017042726248 5.305080575961415 L -0.5300056905927777 5.299504391569674 L -0.5224121679403871 5.293009072748648 L -0.5158011256920148 5.285520176618792 L -0.5103833601607981 5.277124185076572 L -0.5061406813639229 5.268077424077273 L -0.5032384833781816 5.258517204884624 L -0.5017200848485333 5.248641229694574 L -0.501470504446937 5.238650123255911 L -0.5022628899061008 5.228686790366629 L -0.5038318592227053 5.218812763128953 L -0.5059212758992251 5.209034642781769 L -0.5083005396144255 5.199322351760236 L -0.5107608615198905 5.189630108657331 L -0.5131045211767554 5.179908782355481 L -0.5151330492710376 5.17011723822719 L -0.5138088580912968 5.160688093521235 L -0.5088064798895191 5.152032557805358 L -0.5031483182216343 5.143789258523252 L -0.4970478723730665 5.13586470162697 L -0.4907127325312511 5.128126616641455 L -0.4843390260098835 5.12042086914119 L -0.4781207065879905 5.112590392086754 L -0.4722589904697481 5.104490826548  z" id="ID_539"/>
    <path d="M -0.6280824556795324 5.269728268197955 L -0.630803943822273 5.260125975863383 L -0.6317109953648004 5.250177650048442 L -0.6312312541542795 5.240195331118294 L -0.6296439091601087 5.230326486124772 L -0.6271172417022113 5.220654354474869 L -0.6237436667265497 5.211243650252235 L -0.619560259719786 5.202163941107253 L -0.6145585022078645 5.193508666299766 L -0.6086874887392586 5.185419510350024 L -0.601856635719793 5.178127067701304 L -0.593955496586637 5.172021501207028 L -0.5849461926280162 5.16774620565893 L -0.5751176859640932 5.166158001091136 L -0.5652952693922578 5.167782244455684 L -0.5563548755959662 5.172198198671248 L -0.5487084221397245 5.178610501116758 L -0.542378346443936 5.1863387231497 L -0.537191136052459 5.194880267463313 L -0.5330755039805846 5.203987940472146 L -0.530037620399134 5.213509606089907 L -0.5281409860617119 5.223322011413503 L -0.5274917769733243 5.233293850832176 L -0.5282194884930247 5.243258722539125 L -0.5304428004942796 5.252997846495299 L -0.5342181386180967 5.262245222412996 L -0.5394569113507126 5.27075051161233 L -0.5460228481343039 5.278276716575371 L -0.553798724587276 5.28454308665679 L -0.5625835393314578 5.289290439220532 L -0.5721020220221505 5.29230632755654 L -0.5820210272198842 5.293446456780686 L -0.5919739712765644 5.292655681727873 L -0.6015950282939801 5.289984635647738 L -0.6105631848980888 5.285591249136142 L -0.6186418986443681 5.27971757229259 L -0.6256986853832425 5.272645830025146  z" id="ID_53A"/>
    <path d="M -0.4710824482224325 5.10272826026588 L -0.4641925407797656 5.10997569193538 L -0.4574713319833812 5.117379794306327 L -0.4509420743957504 5.124953663377032 L -0.4446309152171511 5.132710158351222 L -0.4385676220902131 5.140661632967996 L -0.4327858653259052 5.148820111090436 L -0.4273243188835921 5.157196184747781 L -0.4222269712811145 5.165798577265429 L -0.4175435906405279 5.174632960283226 L -0.4133297826562608 5.183700463466852 L -0.4096464423863253 5.192995800947469 L -0.4070824451825957 5.200728264920631 L -0.4007966615954075 5.218069165082074 L -0.3957997945727243 5.242643244744019 L -0.3931091028947691 5.269905167075936 L -0.3988747719202479 5.297934994259325 L -0.4035368306299745 5.318848191023096 L -0.4102222710284309 5.336879864713285 L -0.4159049011337146 5.349401836906157 L -0.4190824457525651 5.352728272140243 L -0.4247268686305717 5.360594058906351 L -0.4307824000125074 5.368551736407066 L -0.4370802037757678 5.376318978950837 L -0.4436340705280149 5.383871163277731 L -0.4504583489708534 5.391179970428018 L -0.457567045304816 5.398212242578819 L -0.4649735872138079 5.404929855063284 L -0.4726897925656344 5.411289083731288 L -0.4807246076913377 5.417240333213298 L -0.4890824490773867 5.422728275465065 L -0.5015877991466029 5.429045799972628 L -0.5102484829716021 5.434042103149064 L -0.5310824510722796 5.444728276510009 L -0.5329311253039651 5.445231291719921 L -0.5423869371878576 5.448474581094931 L -0.5517122201606233 5.452084895457067 L -0.5612237742706441 5.455156222295474 L -0.5710824529721777 5.456728277079978 L -0.5874521230667682 5.45936142642164 L -0.6087426102135112 5.457503120574859 L -0.6256923531389589 5.453373356815621 L -0.6390824562020053 5.450728276794993 L -0.6392319275125713 5.450698951435762 L -0.648632096949818 5.447495270760643 L -0.6578806325599187 5.443693979695728 L -0.6669646493953278 5.439514835886658 L -0.6758639291020891 5.434955586840834 L -0.6845571535676891 5.430014832719845 L -0.6930219035751995 5.424692199155122 L -0.7012346868781103 5.41898853560796 L -0.7091710051184155 5.412906137971461 L -0.7168054699703283 5.406448991698344 L -0.7241120453211556 5.399622963632132 L -0.731064002928214 5.392436342628408 L -0.7376347282109998 5.384899629736649 L -0.7437977658943451 5.377026085954168 L -0.7495274050345886 5.368831803813541 L -0.7547992304203907 5.360335789876894 L -0.7595907225315273 5.351559941303884 L -0.7638818621759436 5.34252892420388 L -0.7676526241828165 5.333268730424731 L -0.7708832918188177 5.323806487892467 L -0.7735743250518441 5.314176766320803 L -0.7757305990739348 5.304413289773986 L -0.7773593196951057 5.294548003472615 L -0.7784693326896442 5.28461090669128 L -0.7790705044139666 5.27463003349421 L -0.779173192044655 5.264631548085879 L -0.7787878093333767 5.254639923436724 L -0.7779244852726511 5.244678176473779 L -0.7765928078995242 5.23476813722584 L -0.7748016449399567 5.224930745348505 L -0.7725590459599685 5.215186409985949 L -0.7698721106508489 5.205555012276398 L -0.7667471084978326 5.196056724139571 L -0.7631894304355269 5.186711906440391 L -0.7592037000899268 5.177541511986324 L -0.754793908616743 5.168567364824488 L -0.7499635992005578 5.159812423717807 L -0.744716107820377 5.151301025473236 L -0.7390548627191791 5.143059090397752 L -0.7329837630551053 5.135114294411255 L -0.7265075884629894 5.127496116210479 L -0.7196325794919157 5.120235906454876 L -0.7123672151589169 5.113366460979272 L -0.7047358023481776 5.106905947883142 L -0.6967754032435769 5.100855304085222 L -0.6885177864313273 5.095216957257696 L -0.679990201385195 5.089995849634721 L -0.6712167060976837 5.085199437981731 L -0.6622192514720853 5.080837628844984 L -0.6530185901804213 5.076922658706342 L -0.6436350826849049 5.07346892544638 L -0.6340894052814328 5.070492743823463 L -0.6244032007089544 5.068012015968677 L -0.6145996642940981 5.066045788457931 L -0.6047040534302255 5.064613673417514 L -0.5947440924289769 5.063735116564703 L -0.5847502305045192 5.063428507936869 L -0.574755579181006 5.063710159559448 L -0.5647962645555209 5.064593154641372 L -0.554910027884854 5.066086246564014 L -0.5451361302906621 5.068192801348936 L -0.5355140952806466 5.070909978757858 L -0.5260824508347924 5.074228258912203 " id="ID_53B"/>
   </g>
   <g id="ID_0" color="rgb(0,0,0)" stroke="currentColor" fill="none" stroke-width="0.00005039721436807565"/>
  </g>
 </svg>