<?xml version="1.0" encoding="UTF-8" ?>
 <svg viewBox="1.865671933701125 -2.627687340296553  0.2826389317166369 0.2656823754682702" xmlns="http://www.w3.org/2000/svg" version="1.0" overflow="visible">
  <defs>
   <g id="ID__#42_Model_Space"/>
   <g id="ID__#42_Paper_Space0"/>
   <g id="ID__#42_Paper_Space"/>
  </defs>
  <g id="draft" transform="matrix(1 0 0 -1 0 0)" stroke-width="5.039721436807565E-5">
   <g id="Layer_#32_1" color="rgb(255,0,255)" stroke="currentColor" fill="none" stroke-width="0.00005039721436807565"/>
   <g id="Poliline" color="rgb(0,0,0)" stroke="currentColor" fill="none" stroke-width="0.00005039721436807565">
    <path d="M 1.899917664394024 2.469728135205091 L 1.8994904114226 2.479713960674054 L 1.898320973407899 2.489644685559145 L 1.897115238922839 2.499571239089778 L 1.896650523176947 2.509554580754825 L 1.897854203230276 2.51946189984195 L 1.902221743305996 2.528356320114417 L 1.908417821181557 2.53620481084633 L 1.914280419790103 2.544303563838132 L 1.919977151133359 2.552522223091999 L 1.925811349720471 2.560643477466397 L 1.932062904681954 2.568445448526279 L 1.939169874570627 2.575464649385095 L 1.947704465934511 2.580590604076048 L 1.957528130511855 2.582015237599899 L 1.967394385537984 2.580477477169385 L 1.977024333127673 2.577788454376563 L 1.986594145881656 2.574887272113512 L 1.996298798114015 2.572490154601485 L 2.006240357818863 2.57159041314606 L 2.016238922044689 2.571506963578839 L 2.025813205692343 2.568991123250485 L 2.033931961591894 2.563196831838993 L 2.040730904463639 2.555878533918415 L 2.046453230901759 2.547684698732139 L 2.051252306852469 2.538916631109367 L 2.055188669777155 2.529727216573787 L 2.05823553649535 2.520206807310405 L 2.060019018254518 2.510391498812232 L 2.059715800024684 2.500398264544699 L 2.060117712088597 2.490421329620952 L 2.063085327794114 2.48089256760802 L 2.063026614295804 2.47107644242954 L 2.059453030004807 2.461764525133014 L 2.053901156741601 2.453466734493076 L 2.047003763600025 2.446238303902656 L 2.039198531480204 2.439997646993932 L 2.030754657744759 2.434647843314007 L 2.021838369860011 2.430123783228216 L 2.012559802902477 2.426405418109409 L 2.002988016207861 2.423522440333554 L 1.993182552258061 2.421581412062764 L 1.983218866139447 2.420818053507163 L 1.973279488070678 2.421737229294684 L 1.964099903808494 2.425563214924844 L 1.955887413579299 2.431263423333657 L 1.94751605057212 2.436718157543298 L 1.938460916223885 2.440950404691529 L 1.929116084926323 2.444508381779217 L 1.919872086417869 2.44830731661108 L 1.911473443225234 2.453685821297563 L 1.904806384149464 2.461100687716482  z" id="ID_781"/>
    <path d="M 1.88191766353907 2.452728134397633 L 1.881214981605008 2.455711420714882 L 1.87862148586428 2.465368044397152 L 1.875668867346491 2.474922092990874 L 1.87265156424952 2.484455503793842 L 1.870021330085048 2.494101366076632 L 1.868171053654259 2.50392519553621 L 1.867046583027967 2.51386131806481 L 1.866099172851373 2.523815863451034 L 1.865671933701125 2.533804520186169 L 1.866252471831998 2.543780358916322 L 1.868482834512168 2.553509585849806 L 1.872637134390401 2.562589556154451 L 1.878322953699183 2.570802711931939 L 1.885033756163652 2.578210816206089 L 1.892251850534275 2.585130609956882 L 1.899619578674847 2.591891925675726 L 1.906917664726506 2.598728141332262 L 1.915663661495954 2.60319204664843 L 1.924063221245853 2.608616827766748 L 1.932743814838221 2.613575804775729 L 1.941706226291154 2.618011319614367 L 1.950948452992785 2.621824039421275 L 1.960470101938854 2.624868921880365 L 1.970249149842268 2.626933253796293 L 1.980209358768737 2.627687340296553 L 1.990157307035191 2.626694773862963 L 2.00015150402395 2.626656726698831 L 2.010149171139021 2.626484088748869 L 2.020127406823773 2.625840489848298 L 2.03005863266113 2.624680482551537 L 2.039908160064896 2.622960590288233 L 2.049633690184466 2.620641935869553 L 2.059186845265156 2.617693155985747 L 2.068514196447837 2.614093785132761 L 2.07756037377213 2.609837050086566 L 2.086271810106135 2.604931571563646 L 2.094600747603706 2.59940138474114 L 2.102508785748254 2.59328406583837 L 2.109968807841469 2.586627705210556 L 2.116915033245961 2.5794380206697 L 2.123175210508614 2.571645865228743 L 2.128583083855115 2.563240968963382 L 2.133017474045255 2.554284197628547 L 2.136474296418567 2.544905339980951 L 2.139102781872693 2.535259483982162 L 2.141170241349422 2.525476373050084 L 2.142987872279653 2.51564297888706 L 2.145045060424248 2.505860044837037 L 2.147340244944356 2.496129264165023 L 2.148310865417762 2.486183657460463 L 2.14815507645734 2.476189730265518 L 2.146937272185017 2.466268841784737 L 2.144713879126388 2.456523958801781 L 2.141561089193266 2.447038408179077 L 2.137563268596166 2.437874897856048 L 2.132805932345684 2.429081744270572 L 2.127368199391924 2.420692208295488 L 2.1213205446362 2.41273111297302 L 2.114723651208068 2.405218697968878 L 2.107628979789799 2.398174594777461 L 2.100078854996069 2.391620153672775 L 2.092109149553636 2.385582707903404 L 2.083749795736383 2.380097548864906 L 2.075026888017877 2.375211656724903 L 2.065965129658962 2.370988019704098 L 2.056592193067026 2.367511509725964 L 2.046944262626577 2.364895787889949 L 2.037087141738258 2.363230164452405 L 2.027135369483847 2.362268672116559 L 2.017141065132918 2.362004964828283 L 2.007155419126559 2.362490359222048 L 1.99724066865119 2.363770913264003 L 1.987469168362241 2.365881437132657 L 1.977920176378379 2.368839390710013 L 1.968674215235648 2.372640157062736 L 1.959806561426895 2.377254925213525 L 1.951379597413903 2.382632917842904 L 1.943407020619419 2.388665755973331 L 1.935608258213082 2.394923137254901 L 1.927939229419762 2.40133908284088 L 1.920448963289506 2.407962899035842 L 1.913201544126698 2.414851455671803 L 1.906265779141079 2.422053565378638 L 1.899682378367911 2.429579313528595 L 1.893421051396033 2.437375804289603 L 1.887379071388177 2.44534378889063  z" id="ID_782"/>
   </g>
   <g id="ID_0" color="rgb(0,0,0)" stroke="currentColor" fill="none" stroke-width="0.00005039721436807565"/>
  </g>
 </svg>