<?xml version="1.0" encoding="UTF-8" ?>
 <svg viewBox="-2.631207863135515 -2.551658362852249  0.48215943128303307 0.48555102440458997" xmlns="http://www.w3.org/2000/svg" version="1.0" overflow="visible">
  <defs>
   <g id="ID__#42_Model_Space"/>
   <g id="ID__#42_Paper_Space0"/>
   <g id="ID__#42_Paper_Space"/>
  </defs>
  <g id="draft" transform="matrix(1 0 0 -1 0 0)" stroke-width="5.039721436807565E-5">
   <g id="Layer_#32_1" color="rgb(255,0,255)" stroke="currentColor" fill="none" stroke-width="0.00005039721436807565"/>
   <g id="Poliline" color="rgb(0,0,0)" stroke="currentColor" fill="none" stroke-width="0.00005039721436807565">
    <path d="M -2.360082537945118 2.449728134255142 L -2.353762409982669 2.457471343474711 L -2.346845470248789 2.464691320982536 L -2.339573510915869 2.471554856294442 L -2.33203093550485 2.478120491699117 L -2.324253919674511 2.484407537025553 L -2.316257540250393 2.490413472269173 L -2.308044365554178 2.496119595600815 L -2.299608614228961 2.501490614061829 L -2.290937737124534 2.506470965082881 L -2.282012218329624 2.510977299179103 L -2.272808727160763 2.51488243589708 L -2.263307180629613 2.517987450487748 L -2.253513933905882 2.519972042309447 L -2.243536270639946 2.520319419752453 L -2.233777473291858 2.518294877809131 L -2.225345417174414 2.513074323239939 L -2.22392358105934 2.503969089463646 L -2.224111305790458 2.493973084691086 L -2.229850850829175 2.488939181436695 L -2.239804174148863 2.489503498098359 L -2.249621235016807 2.487690676259878 L -2.259010579528183 2.484271525760153 L -2.268005021396631 2.47990677955706 L -2.276752356005991 2.475061615917773 L -2.285428739532181 2.470089673018794 L -2.294104815979485 2.465116613091238 L -2.30268567493387 2.45998287279659 L -2.311053844631695 2.454510173440162 L -2.319052998607994 2.44851312271337 L -2.326465644379368 2.441808304869519 L -2.333000106887984 2.434249154678074 L -2.336082536805179 2.429728133305193 " id="ID_743"/>
    <path d="M -2.434631761234128 2.067430524807314 L -2.452852963332921 2.06686044524111 L -2.47707514206703 2.066196053800519 L -2.487074585267324 2.066107338447659 L -2.497074060821543 2.066195559710594 L -2.507068606284564 2.066515385016954 L -2.517049406356119 2.06712636390414 L -2.527002586269094 2.068085529768888 L -2.536910003201495 2.06943668300984 L -2.546752352597785 2.071199912747662 L -2.556513818584005 2.073366639726497 L -2.566185883198002 2.075903052980999 L -2.575756835873094 2.078796787025446 L -2.585109967178982 2.082324202934715 L -2.593986994447466 2.086908830867404 L -2.601980056125662 2.092893121024898 L -2.608646237256317 2.100324153344432 L -2.613981159576555 2.108776881597744 L -2.618628915540671 2.117628118266273 L -2.622471737831482 2.12685591584305 L -2.625383960263188 2.136417645901062 L -2.627387546870284 2.146210681017185 L -2.628661325824055 2.156127472384394 L -2.629450150927 2.16609575867891 L -2.629980124082714 2.176081570996013 L -2.630495854073457 2.186067837611814 L -2.63095844111991 2.19605652976617 L -2.631207863135515 2.206052554805303 L -2.631073341824569 2.216050694254951 L -2.630420948853328 2.226027775933667 L -2.629190903145986 2.235951640720807 L -2.627404085602338 2.245789459264699 L -2.625160026610743 2.255533391498591 L -2.622499464106629 2.265172445768794 L -2.619453431306168 2.274696761277764 L -2.616061089725889 2.284103254233333 L -2.612366900096994 2.293395368659664 L -2.608417772397324 2.302582054558527 L -2.604260463847685 2.311676588212835 L -2.599939807007642 2.32069471853714 L -2.595504562476138 2.329656971933768 L -2.591143171099741 2.33865534427603 L -2.586886968308776 2.347703959888731 L -2.582676485406231 2.3567740738657 L -2.578447861685832 2.36583551955435 L -2.574140328216675 2.374859890631109 L -2.569703503603786 2.383821467111046 L -2.5651010009699 2.392699338530423 L -2.560311429081735 2.401477469605024 L -2.55532875608215 2.410147712331045 L -2.550259571324515 2.418767822587184 L -2.545086785416509 2.427325975917121 L -2.539714059237615 2.435759659582592 L -2.534042829130198 2.443995026739766 L -2.527968784714109 2.4519369638991 L -2.521381352464995 2.459457349879601 L -2.514239966241683 2.466455022980033 L -2.506785747980431 2.473119788262422 L -2.499088938069289 2.479502917896825 L -2.49118091731414 2.485622840705115 L -2.48308338801608 2.491490126073546 L -2.474811103418366 2.497108168141496 L -2.466372697337494 2.502473611385717 L -2.457772099169424 2.507574992337648 L -2.449008368472282 2.512390898596512 L -2.44007586597714 2.516885644968528 L -2.430993041954408 2.521069073791958 L -2.421851723939059 2.525123667961512 L -2.412646157769761 2.5290293812322 L -2.403362037857132 2.532744200939021 L -2.3939880280253 2.536225595268776 L -2.384516532786272 2.539431862481734 L -2.37494436222356 2.54232370603302 L -2.365273834702704 2.544865760893371 L -2.35551144245493 2.54702865243116 L -2.345668843788356 2.548790006615401 L -2.335760340026129 2.55013569059329 L -2.325803891126666 2.551059727666993 L -2.31581721912759 2.551564261971909 L -2.305818314761991 2.551658362852249 L -2.295822874281236 2.551374946151399 L -2.285846270281927 2.550704690489046 L -2.275911212836806 2.549577833394966 L -2.266051943662381 2.547916442847352 L -2.256317027742165 2.545638240364661 L -2.246772187816102 2.542664194692065 L -2.237498950406386 2.538930099294878 L -2.228587752269775 2.534400221319886 L -2.220126685014659 2.529079197438713 L -2.212182481212393 2.523012167141617 L -2.204793308662798 2.516278715634959 L -2.197946849683948 2.508993118788723 L -2.191646218386036 2.501230803676858 L -2.185919694529129 2.493035561388143 L -2.180748024727066 2.48447878039213 L -2.176063498223363 2.47564504129779 L -2.171763909110003 2.466615916670205 L -2.167734904877041 2.457464040183971 L -2.163864638673495 2.448243573689447 L -2.160057220847928 2.438997554965013 L -2.156769238461945 2.429564437498568 L -2.154967977669338 2.419735016892904 L -2.154138796297614 2.409772586925004 L -2.153816473501458 2.399778382427076 L -2.153657306518113 2.389779816190538 L -2.153398365650858 2.379783487182026 L -2.152825449301462 2.369800689841333 L -2.151939104292865 2.359840308301203 L -2.150982808292696 2.349886199107309 L -2.150081691626744 2.339927005333059 L -2.149383815079973 2.32995183201689 L -2.149048431852482 2.319958171119566 L -2.149224701243168 2.30996113926454 L -2.150026061397507 2.299995539057057 L -2.151510940174672 2.290108974498055 L -2.153673909401601 2.280347349108133 L -2.15633743131284 2.270709147258617 L -2.159390409786835 2.261186854517587 L -2.162804900437953 2.251788347143875 L -2.166576629430273 2.242527162954313 L -2.170720448217631 2.233426482641034 L -2.175422707242515 2.224606631713585 L -2.1810959399645 2.216373111677279 L -2.186666874356391 2.208069558441959 L -2.192034966954783 2.199632706305823 L -2.197241150821553 2.191094935462558 L -2.202342237774028 2.18249395210616 L -2.207412109480636 2.173874694416314 L -2.212542682513891 2.165291410599701 L -2.217842610841877 2.156811956826798 L -2.223433152575315 2.148522045232754 L -2.229438191614858 2.140528816262522 L -2.23596802130278 2.132958274094818 L -2.243054435444216 2.125905143648882 L -2.250587743290909 2.119330844013607 L -2.258500515208039 2.113217864225727 L -2.266738047713258 2.10754950737564 L -2.27525428021729 2.102309235445734 L -2.284010973017531 2.097481504120764 L -2.292976042582961 2.093052773674566 L -2.302122453509341 2.089011924310611 L -2.311426377625725 2.085350855420246 L -2.320870062642625 2.08206329356058 L -2.330435017814759 2.07914733447876 L -2.340105571656178 2.076603952820018 L -2.349867371867222 2.074437688570565 L -2.359706959446873 2.072657032212918 L -2.369609590287015 2.071275197816726 L -2.379562168654725 2.07031029934035 L -2.406411468064297 2.069395331773542 L -2.434631761234128 2.067430524807314 " id="ID_744"/>
   </g>
   <g id="ID_0" color="rgb(0,0,0)" stroke="currentColor" fill="none" stroke-width="0.00005039721436807565"/>
  </g>
 </svg>