<?xml version="1.0" encoding="UTF-8" ?>
 <svg viewBox="0.6160710301581505 -4.927478362022621  0.283823256874128 0.34555959111066414" xmlns="http://www.w3.org/2000/svg" version="1.0" overflow="visible">
  <defs>
   <g id="ID__#42_Model_Space"/>
   <g id="ID__#42_Paper_Space0"/>
   <g id="ID__#42_Paper_Space"/>
  </defs>
  <g id="draft" transform="matrix(1 0 0 -1 0 0)" stroke-width="5.039721436807565E-5">
   <g id="Poliline" color="rgb(0,0,0)" stroke="currentColor" fill="none" stroke-width="0.00005039721436807565">
    <path d="M 0.7259176086320167 4.805728246159137 L 0.7252203883499897 4.815552908732714 L 0.7304576937104282 4.823897581116792 L 0.7379340642608679 4.830533400088526 L 0.7458917479414087 4.836588888140342 L 0.7541309214566914 4.842252302399995 L 0.7625656619866641 4.847623310210055 L 0.7711485034003811 4.852754769455012 L 0.7798564366062389 4.857674702685397 L 0.7886779047519604 4.862385371993339 L 0.7978306208441559 4.865095621912804 L 0.8069529439707743 4.861092174591201 L 0.8143633196805817 4.854452459284125 L 0.8128069038731685 4.845465998379896 L 0.8075876395402855 4.836951001669829 L 0.8010834410929623 4.829366790004373 L 0.7936589378208839 4.822676262614074 L 0.7856210189233286 4.816731278093699 L 0.777195722626856 4.811346935707002 L 0.7685430647126293 4.806334573638972 L 0.7597845083626629 4.801509251238426 L 0.7510273863227503 4.796680616399839 L 0.7423318872633323 4.792031389615589 L 0.7334041566643476 4.796386697852149 L 0.7268603730071704 4.803857734801054  z" id="ID_59F"/>
    <path d="M 0.8017164403572677 4.911929423078422 L 0.8044823712198336 4.921379873307658 L 0.8121438172227932 4.927478362022621 L 0.8214235757697894 4.925141692496056 L 0.8227036201590731 4.915309348335975 L 0.8264441935794647 4.906066690298601 L 0.8323723285742232 4.898045057234511 L 0.8400069405588892 4.891618407919822 L 0.8489130630591033 4.88712243381961 L 0.8586444979117988 4.884948164998683 L 0.8685916123018984 4.88551313797023 L 0.8779239625797092 4.888996568759603 L 0.8864058290836087 4.888850404836451 L 0.8921426278008413 4.880763382463445 L 0.8936274438653182 4.87099869707952 L 0.8869244238083756 4.864680168879086 L 0.8773784508301458 4.861745685845902 L 0.8674717632799654 4.860469114926743 L 0.8574864398106534 4.86077528399465 L 0.847658560667627 4.862572560548628 L 0.8381962417935513 4.865779852032856 L 0.8293037165672956 4.870333735108889 L 0.8212033285658062 4.876180037106759 L 0.8141491425292137 4.883251395104532 L 0.8084215513860595 4.891432325450664 L 0.8042891201444142 4.900522249752972 L 0.8019363994485058 4.91022633461072  z" id="ID_5A0"/>
    <path d="M 0.8936274438653182 4.87099869707952 L 0.8993029509279493 4.847551215654444 L 0.8998942870322785 4.837573525530538 L 0.8995073672357465 4.827584278495661 L 0.8983332652980341 4.817655499439901 L 0.8965703632769229 4.807813228902686 L 0.894406779628154 4.798050574490057 L 0.89201667542725 4.788340541171683 L 0.8895644803424014 4.778645898761201 L 0.8872126365208918 4.768926566626349 L 0.8850620529669326 4.759160736655106 L 0.8826091406348268 4.749467048684296 L 0.8797575400623509 4.739882852536462 L 0.8765461627607535 4.730413130984459 L 0.8730008968450303 4.721063128730007 L 0.869138103632105 4.711839699902496 L 0.864966518794243 4.70275169795507 L 0.8604884078409416 4.693810710818098 L 0.8557001205201633 4.685031900077461 L 0.8505922018118479 4.676435136088082 L 0.8451492382381511 4.668046769453708 L 0.8393491215034201 4.659901733692105 L 0.833161979343111 4.65204696583749 L 0.8265345237227919 4.644560375415318 L 0.8195041632040567 4.637450110877523 L 0.8121393716542844 4.630686367426447 L 0.8044860157835707 4.624250586607207 L 0.7965751170211935 4.61813389109297 L 0.7884273414097374 4.612336355699762 L 0.7800557047141359 4.6068671603938 L 0.7714682029475703 4.601746260166921 L 0.762664163539082 4.597004086437539 L 0.7536428408743694 4.592690446832534 L 0.7443991395271663 4.588878751801246 L 0.734926765053225 4.585679897524599 L 0.7252259580223744 4.583266780619201 L 0.715323976089075 4.581918770911956 L 0.7053380996065483 4.582080277833805 L 0.6955188835702666 4.583917105221498 L 0.6860782993152066 4.587190700580741 L 0.6771503429388668 4.591680675287893 L 0.668826902243711 4.597213159094277 L 0.6611878522514428 4.603658320503846 L 0.6543208874519886 4.610920442258596 L 0.6483368122582452 4.618925067602125 L 0.6433557578173126 4.627589975363333 L 0.6388969028521762 4.63654048509036 L 0.6347391674560879 4.645634686467333 L 0.6309098570618277 4.65487183550868 L 0.6274387558074999 4.664249333937315 L 0.6243581215633096 4.673762241733713 L 0.621702606391632 4.68340231352889 L 0.6195086964187598 4.693157634042032 L 0.6178140005060886 4.703011777244391 L 0.6166561087979227 4.712943142649777 L 0.6160710301581505 4.722924485264872 L 0.6160912382374902 4.732922799912554 L 0.6167434654821103 4.742899844941868 L 0.6180464116540465 4.752812629603026 L 0.6200089314974228 4.762616236928606 L 0.6225826024693211 4.772278315903603 L 0.6254272152950034 4.781864807373727 L 0.6285298633105372 4.791370633860047 L 0.6319615419557448 4.80076250155516 L 0.6357957658992479 4.809997060057996 L 0.6401033344368879 4.819020171526391 L 0.6449448306666393 4.827767988675892 L 0.6503619809500707 4.836171090113241 L 0.6563702955792614 4.844161874958171 L 0.6629561956583823 4.85168395299898 L 0.6700840243626347 4.858694221182657 L 0.677722533701969 4.865144856914781 L 0.6857692789889374 4.871079566359618 L 0.6941389309315884 4.876550973692207 L 0.7027713143184915 4.881597816391474 L 0.7116249066627427 4.886245629212583 L 0.7206715557503971 4.890505097993504 L 0.7298945257174783 4.894368096742579 L 0.7392874933490239 4.897795733744319 L 0.7489417796610481 4.900365693776981 L 0.7588335900313519 4.901817156857164 L 0.7687719403436786 4.90292520341216 L 0.7786711234197928 4.904331971912481 L 0.7884151087842008 4.906558258943064 L 0.7977975838940248 4.909992958025889 L 0.8017164403572669 4.911929423078422 " id="ID_5A1"/>
   </g>
   <g id="ID_0" color="rgb(0,0,0)" stroke="currentColor" fill="none" stroke-width="0.00005039721436807565"/>
  </g>
 </svg>