<?xml version="1.0" encoding="UTF-8" ?>
 <svg viewBox="1.22780433342092 -8.239965080456937  0.39726414398281196 0.3614481171315873" xmlns="http://www.w3.org/2000/svg" version="1.0" overflow="visible">
  <defs>
   <g id="ID__#42_Model_Space"/>
   <g id="ID__#42_Paper_Space0"/>
   <g id="ID__#42_Paper_Space"/>
  </defs>
  <g id="draft" transform="matrix(1 0 0 -1 0 0)" stroke-width="5.039721436807565E-5">
   <g id="Poliline" color="rgb(0,0,0)" stroke="currentColor" fill="none" stroke-width="0.00005039721436807565">
    <path d="M 1.587419144492841 8.073164586561068 L 1.583836577786141 8.059861415053867 L 1.580724748252918 8.050361388363953 L 1.576884295099699 8.041130297439729 L 1.572530802779398 8.032128679216038 L 1.567868593977754 8.023282227296296 L 1.563088732476118 8.014498537914818 L 1.558375767903449 8.00567894139722 L 1.551209038612071 7.99322114788595 L 1.553909994823214 7.993057615847011 L 1.556917648102398 7.993728397581012 L 1.565890276388981 7.998091096510067 L 1.573624528540768 8.004396831268522 L 1.57988070404433 8.012178037981114 L 1.584678241209711 8.020939866937209 L 1.588157281355687 8.030307279473348 L 1.590464804557264 8.040031763632014 L 1.59170364023883 8.049950142147775 L 1.591917649764809 8.059728400715844 L 1.591436897504578 8.066199938036451 L 1.589814524601294 8.070251695537326  z" id="ID_3A8"/>
    <path d="M 1.228917632523234 7.950728395538622 L 1.231499306844892 7.941068534668161 L 1.234665395300398 7.931585157996393 L 1.23859980353986 7.922395615114337 L 1.24349336545118 7.913681705631436 L 1.249508010031271 7.905704286530053 L 1.256708196310485 7.898782022802786 L 1.26499315134037 7.893205469141058 L 1.27409727737491 7.889092556519366 L 1.283543994898841 7.885817304603414 L 1.293175791734392 7.883134784845819 L 1.302957210030132 7.881063727815647 L 1.312849100136225 7.879610461108534 L 1.322811736524364 7.878768051986606 L 1.332806854292003 7.87851696332535 L 1.342800605411845 7.878826730752972 L 1.352765155906172 7.879658550153988 L 1.362678423658953 7.880967950482613 L 1.372524760662057 7.882707341792198 L 1.382296318495436 7.884828590450173 L 1.391989676541718 7.887284218720442 L 1.40160524129375 7.890028343757474 L 1.411147727558068 7.893017593272126 L 1.420624014417253 7.896210925511994 L 1.430042989660234 7.899569676935357 L 1.439415052811191 7.903057332107517 L 1.448717501196562 7.906725183906287 L 1.457875870370993 7.910739393807847 L 1.466908701574019 7.915029130301673 L 1.475847941574496 7.919511051538763 L 1.484731971738472 7.924101670823389 L 1.493603486732397 7.9287164691588 L 1.502507344723802 7.933268221950388 L 1.511488528454456 7.937665138143113 L 1.520588692814679 7.941809664083258 L 1.529767209294274 7.945778810912385 L 1.538938148134999 7.949765708950611 L 1.548042696660115 7.953901073000481 L 1.557012039840022 7.958321133607965 L 1.565760500764539 7.963162390091763 L 1.574181458074376 7.968551779164053 L 1.58214843540077 7.974590516748643 L 1.589520864840373 7.981340549392194 L 1.596194352176731 7.98878302696362 L 1.602193645420232 7.996780064786416 L 1.60754212358789 8.005226694484392 L 1.6122457829334 8.014049106706056 L 1.616293084014624 8.02319127741824 L 1.619655376410645 8.032607294607597 L 1.622285739647682 8.042253213563422 L 1.624118341920166 8.052080396780593 L 1.625068477403732 8.062031526837078 L 1.625033017199287 8.072027041807033 L 1.623897284049163 8.081956560803903 L 1.621549108150824 8.091669693503912 L 1.618050113983781 8.101033757416834 L 1.613887325502166 8.110130782872014 L 1.609339933749381 8.119037016749665 L 1.604547128466426 8.127814007607036 L 1.599288078302286 8.136315477879775 L 1.59343500731115 8.144422388234837 L 1.587224312686411 8.15225945021294 L 1.580752498188443 8.159882392859558 L 1.574067466178481 8.167318134353811 L 1.567192651837184 8.174581243422926 L 1.560142708343586 8.181673153032953 L 1.552921739539096 8.18859087685672 L 1.545528754746826 8.195323800625127 L 1.537959254450036 8.20185259519075 L 1.530196681615659 8.208154619473936 L 1.522224575118475 8.214189408919122 L 1.514016857410654 8.21989992763288 L 1.505538205745172 8.225199438565946 L 1.496741332619149 8.229950424996591 L 1.487562173145631 8.233921999404256 L 1.478012142262131 8.236873220586997 L 1.468213676035793 8.238850104059196 L 1.458269182964951 8.239866728646223 L 1.448273033818788 8.239965080456937 L 1.438304639719044 8.239207741206904 L 1.428426344302127 8.237668122124981 L 1.418683893611364 8.235422398408422 L 1.409108958111604 8.232543948256266 L 1.39972224135026 8.229100175189185 L 1.390536303479562 8.225151053531619 L 1.381558329601899 8.220748991595954 L 1.372791690756979 8.215939056391585 L 1.364237671413843 8.210759783311733 L 1.355896828706575 8.205244191991826 L 1.347769978008348 8.19942082049808 L 1.339854289880644 8.193311014098684 L 1.332151056309621 8.186934727485166 L 1.324661754544608 8.180308079730874 L 1.317389071283855 8.173444214952182 L 1.310337247836408 8.166353612500039 L 1.303512453010678 8.159044309931312 L 1.296923250510943 8.151522069223683 L 1.290581197582656 8.14379047898629 L 1.284501601011128 8.135850935507317 L 1.278704852544642 8.12770293601313 L 1.273217632518384 8.11934352601925 L 1.268075601388496 8.110767747557034 L 1.263326678623032 8.101968308197025 L 1.259036888332914 8.09293655784246 L 1.255225092323838 8.083692077743105 L 1.251554572294358 8.074390061626838 L 1.248001164731682 8.065042509387842 L 1.244604298195882 8.055637494970881 L 1.241402676291645 8.046164087323287 L 1.238435880114706 8.036614632172673 L 1.235744539465069 8.026984026708853 L 1.233370712622915 8.017270403939339 L 1.231357891516162 8.007475740159286 L 1.229750634363674 7.997606460517148 L 1.228593843412974 7.987674602338485 L 1.227931372620858 7.977697726415303 L 1.22780433342092 7.967699839289959 L 1.228248855800746 7.957711175414217  z" id="ID_3A9"/>
   </g>
   <g id="ID_0" color="rgb(0,0,0)" stroke="currentColor" fill="none" stroke-width="0.00005039721436807565"/>
  </g>
 </svg>