<?xml version="1.0" encoding="UTF-8" ?>
 <svg viewBox="0.1744175824371723 -8.160728405513087  0.3855000183102675 0.3111959983925301" xmlns="http://www.w3.org/2000/svg" version="1.0" overflow="visible">
  <defs>
   <g id="ID__#42_Model_Space"/>
   <g id="ID__#42_Paper_Space0"/>
   <g id="ID__#42_Paper_Space"/>
  </defs>
  <g id="draft" transform="matrix(1 0 0 -1 0 0)" stroke-width="5.039721436807565E-5">
   <g id="Poliline" color="rgb(0,0,0)" stroke="currentColor" fill="none" stroke-width="0.00005039721436807565">
    <path d="M 0.5529176004149577 8.110728403138214 L 0.5441347517230506 8.105998238372102 L 0.5345932719174851 8.103035195503903 L 0.524776264677648 8.101144954447221 L 0.5148676414574709 8.099803452975406 L 0.5049339208094042 8.098650509570826 L 0.4950094521710656 8.097424953394363 L 0.4851239937420253 8.095920056555888 L 0.4753190713251847 8.093960971271757 L 0.4656556155848346 8.09139660052592 L 0.4562000849609796 8.088147059323536 L 0.4467086789799053 8.085000298884047 L 0.4371399852101856 8.082095169791806 L 0.4275628064941417 8.079218382601216 L 0.4180433260501948 8.076157322958851 L 0.408678929850316 8.072651230808088 L 0.3994479077777546 8.068806459494464 L 0.3903012994496437 8.064764265808382 L 0.3811942965381396 8.06063360974993 L 0.3720849153981653 8.056508324846384 L 0.3631139822153102 8.052094224902868 L 0.3547669717075497 8.046614987224018 L 0.3481137451661658 8.039202739280515 L 0.3439175904879903 8.030728399338418 L 0.3440978736423519 8.020731552885255 L 0.3436974777610908 8.010740869339084 L 0.3427092584748363 8.000791293238816 L 0.3410152754035476 7.990938347385789 L 0.3383102211298512 7.98131809911178 L 0.3350705939346161 7.971858182498035 L 0.3331792410156673 7.962065260974262 L 0.3343074157131234 7.952152352305361 L 0.3352427427144473 7.942226009736579 L 0.3353316886967494 7.932594602891055 L 0.3419095512827193 7.925421873462469 L 0.3496662704940707 7.91911092548225 L 0.3573709485856673 7.912737649979268 L 0.3646365311442814 7.905871743331553 L 0.3709242715177918 7.898111037028769 L 0.3755602463423715 7.889274723888259 L 0.3780370086640969 7.879611193512619 L 0.3782815317426209 7.869622813466413 L 0.3789552554033131 7.859960040649595 L 0.3882403248031254 7.8563429267653 L 0.3981539117488335 7.855200174063257 L 0.4081372112946609 7.855679193991183 L 0.4180720237228038 7.856817170871541 L 0.4280258289992914 7.857760212926629 L 0.438015296229775 7.85762587618055 L 0.4454175953089817 7.856228391050112 " id="ID_3CF"/>
    <path d="M 0.2042496151041178 7.922728394208693 L 0.2114927304039478 7.929623187811749 L 0.2185681822020475 7.936689770010818 L 0.225260094767175 7.944117509471198 L 0.2309145247915607 7.952355063109837 L 0.2359648971556965 7.960984321849196 L 0.2416477995937916 7.969200023307299 L 0.2488918350896991 7.976054952668418 L 0.2576356045002983 7.980855649740358 L 0.267199281150476 7.983734221175748 L 0.275711729453155 7.988797098723586 L 0.2826387289109053 7.996000612063451 L 0.2891157867417151 8.003619730995009 L 0.2958419945530917 8.011016247230465 L 0.3033660975251218 8.017594484514232 L 0.3114299646869192 8.02350450051013 L 0.320083879301885 8.02849870849856 L 0.329474461978938 8.031870328812381 L 0.339400728521082 8.032175927658088 L 0.3439175904879894 8.030728399338418 " id="ID_3D0"/>
    <path d="M 0.5599176007474398 8.110978403150089 L 0.5586590967690999 8.101057911520831 L 0.5574164877756829 8.091135382174638 L 0.556153141074387 8.081215420419262 L 0.5548344568251533 8.071302823908532 L 0.5534253794134143 8.061402574808472 L 0.5518882340228819 8.051521410004653 L 0.55018013056229 8.041668389098163 L 0.548249731803085 8.031856567782278 L 0.5460326862391441 8.022105663402058 L 0.5434447603546682 8.012446870953452 L 0.5403710720026292 8.002932138243152 L 0.5366913537601627 7.993635157346544 L 0.5327816251273721 7.984431191610374 L 0.5287572456229963 7.975276817822998 L 0.5245897841391729 7.966186745952231 L 0.5202550305916667 7.957175312776993 L 0.5157327627157651 7.948256581394337 L 0.5106324950110422 7.93965879957715 L 0.5050607029659968 7.931355226660958 L 0.4995298265138448 7.923024615594982 L 0.4945010011819253 7.91438442433408 L 0.490582700560009 7.905201197546765 L 0.4878005379775683 7.895596591601967 L 0.4837761850844018 7.886469221445203 L 0.4786022331130564 7.877912496301697 L 0.4750468117688165 7.868620096191789 " id="ID_3D1"/>
    <path d="M 0.1844175829121468 7.932228394659919 L 0.1797005850246709 7.935896036900908 L 0.1744175824371723 7.944228395229888 L 0.1748777299478119 7.944989000472946 L 0.1769175825559159 7.954728395728611 L 0.1778905608320134 7.956021115426278 L 0.1838248754504947 7.964069876819923 L 0.1896554616227339 7.972194160854679 L 0.195427032323062 7.980360410632203 L 0.2011836055488381 7.988537386517376 L 0.2069683374102258 7.996694419454869 L 0.2128240010543534 8.004800615337073 L 0.218793045494837 8.012823598159446 L 0.2249175848357936 8.020728398863444 L 0.227519830512648 8.022523529263918 L 0.2343055931126869 8.029866599783439 L 0.2412025473727439 8.037107449517752 L 0.248213451312643 8.04423796147198 L 0.2553422154625933 8.051250574214167 L 0.2625928609592698 8.058137097105009 L 0.2699694164414605 8.06488857572258 L 0.2774759177195918 8.071495266581518 L 0.285116449896357 8.07794664693033 L 0.292894692692994 8.084231023324932 L 0.3008145072445112 8.090336026073597 L 0.3088808059142014 8.09624917744619 L 0.3170937275066228 8.101953738207644 L 0.325457236545529 8.107435097749725 L 0.3339731542860402 8.11267647138234 L 0.3426424144577229 8.117660039352607 L 0.3514648301126355 8.122367045509005 L 0.3604381957626943 8.126777672036678 L 0.3695601384181328 8.130872360334195 L 0.3788258133490014 8.1346311120276 L 0.3882280168017447 8.138034278723602 L 0.3977574895152616 8.1410634768751 L 0.4074022655074341 8.143702309995653 L 0.4170846601132521 8.146200591516482 L 0.4266675212357792 8.149056977166603 L 0.4361886274907639 8.152114138282528 L 0.445702695236677 8.155193332987864 L 0.4552643213757408 8.158120764536884 L 0.464917596235182 8.160728405513087 L 0.4740305923664856 8.156624049426618 L 0.4834831742896109 8.153367153003424 L 0.4930951258839827 8.150610049577939 L 0.502760676065674 8.148045583578337 L 0.5124009362796614 8.145388082839759 L 0.5219257107809155 8.14234597828792 L 0.5311932746868014 8.138599076616773 L 0.5399577782333607 8.133801210150668 L 0.547825944271855 8.127653043146026 L 0.554316875311538 8.120071505987848 L 0.5589176006999425 8.111728403185712 L 0.5529176004149577 8.110728403138214 L 0.5456081514694793 8.117532033566876 L 0.5374059452670803 8.123244033457256 L 0.5287201113247822 8.128194955780653 L 0.5197205898427626 8.132552137585394 L 0.5104900001535384 8.136397116826991 L 0.5010710996144896 8.139755445690778 L 0.4914851699688097 8.142600270332938 L 0.4817388435371628 8.144828720232358 L 0.4718239337518666 8.146067143101936 L 0.4618324294811203 8.14592420820537 L 0.4519319781858018 8.144555693333611 L 0.4422115015377992 8.142220988163047 L 0.4326794718677425 8.139202447120267 L 0.4232880507103598 8.135768408719791 L 0.4139583128382843 8.132168808847403 L 0.4045983464571652 8.12864926915623 L 0.3951239156120065 8.125452965610926 L 0.385618485089851 8.122348804076122 L 0.3761778599751304 8.119054445879982 L 0.366859746935285 8.115425866315675 L 0.3577199860909426 8.111371627570813 L 0.3487985154636766 8.10685712601384 L 0.3401181648086462 8.101894422603005 L 0.3316843398869009 8.096523025017696 L 0.3234893797711091 8.090793312247003 L 0.3155156285710694 8.08475813008241 L 0.3076809546873163 8.078543850859202 L 0.299948019564634 8.072203601732419 L 0.2923215063733915 8.065735735041402 L 0.2848122482650526 8.05913195761664 L 0.2774391804680514 8.052376622459775 L 0.2702331128070101 8.045443578055284 L 0.2632461183654176 8.038290101745892 L 0.2565562706395692 8.030858369735775 L 0.2501679883875205 8.023165586098457 L 0.2440411509192142 8.015262653263616 L 0.2381322380965294 8.00719530040978 L 0.2323948640034645 7.999004941152148 L 0.226780116136549 7.990729962297634 L 0.2212363231974761 7.982407248748692 L 0.2157083664589114 7.974074022598437 L 0.2101366205416539 7.965770162132913 L 0.204455326988576 7.957540845546112 L 0.1985912989572211 7.949441005201653 L 0.1924621274621243 7.941540336731159 L 0.1859757574509686 7.933930920572699  z" id="ID_3D2"/>
    <path d="M 0.2429175856907477 7.850728390788876 L 0.2528095024635304 7.849532407120557 L 0.2626906092655759 7.850948937410463 L 0.2723298717973321 7.85360427737213 L 0.2819426203510939 7.856357646739331 L 0.2916664440666681 7.858686381465346 L 0.3015103004140904 7.86043507808683 L 0.311450801838669 7.861497542197508 L 0.3214432932903914 7.861800325303179 L 0.331429295672967 7.861322236939127 L 0.3413519755467611 7.860098474589785 L 0.351169650077539 7.858206650884241 L 0.3608605537273686 7.85574448236679 L 0.3608605537273686 7.85574448236679 L 0.367818388298943 7.855806517842172 L 0.3725475701358221 7.856303790170262 L 0.376032206156296 7.857422652908486 L 0.3789552554033131 7.859960040649595 " id="ID_3D3"/>
   </g>
   <g id="ID_0" color="rgb(0,0,0)" stroke="currentColor" fill="none" stroke-width="0.00005039721436807565"/>
  </g>
 </svg>