<?xml version="1.0" encoding="UTF-8" ?>
 <svg viewBox="1.296244398046348 -3.045423700409552  0.27714037441427086 0.3958929561337632" xmlns="http://www.w3.org/2000/svg" version="1.0" overflow="visible">
  <defs>
   <g id="ID__#42_Model_Space"/>
   <g id="ID__#42_Paper_Space0"/>
   <g id="ID__#42_Paper_Space"/>
  </defs>
  <g id="draft" transform="matrix(1 0 0 -1 0 0)" stroke-width="5.039721436807565E-5">
   <g id="Layer_#32_1" color="rgb(255,0,255)" stroke="currentColor" fill="none" stroke-width="0.00005039721436807565"/>
   <g id="Poliline" color="rgb(0,0,0)" stroke="currentColor" fill="none" stroke-width="0.00005039721436807565">
    <path d="M 1.46991764397012 3.019728161328689 L 1.478311940641701 3.022970302018615 L 1.482774828187786 3.014528441596233 L 1.479862542614628 3.005139295673286 L 1.471613931510521 3.007919430942129 L 1.468262259779892 3.016856085997703  z" id="ID_6EE"/>
    <path d="M 1.383249671103612 2.90572815591398 L 1.378445101743666 2.896958193644929 L 1.373680550685154 2.888166649790544 L 1.369454653420559 2.87910728437556 L 1.366495993434574 2.869569890707484 L 1.36599362715849 2.859625117293488 L 1.36904826496674 2.850164957560217 L 1.374875246651581 2.842078013255633 L 1.382619372704634 2.835792076447997 L 1.391612298633162 2.831464700495292 L 1.401312172496981 2.829104834729118 L 1.411288032122615 2.828735904667231 L 1.421117871013361 2.830455709485548 L 1.430277074215196 2.83440453329452 L 1.438078308092771 2.840608770408442 L 1.444020335570222 2.848623425496638 L 1.447312868522172 2.858003079418159 L 1.446834784453638 2.867938132833943 L 1.443822934911123 2.877461166951343 L 1.439953538226631 2.886681615534792 L 1.436116891914772 2.895915816636716 L 1.435417642331459 2.897728155533998 " id="ID_6EF"/>
    <path d="M 1.370917639267872 2.912728156246462 L 1.363509507114664 2.90602157973819 L 1.357158767826178 2.898311436497872 L 1.352293006480552 2.889593552574577 L 1.349360640895809 2.880054835658095 L 1.348645482177749 2.870102162023261 L 1.35011956766669 2.860230273841903 L 1.353500849274986 2.850834475696503 L 1.358428684444839 2.842145240772016 L 1.364583661241204 2.834274386168264 L 1.371720839841515 2.827279950422161 L 1.379660342941548 2.821210511803576 L 1.388266728573944 2.816130721091909 L 1.397426983925371 2.812136963806976 L 1.407027465436764 2.809367662690581 L 1.416924407061106 2.808007342607556 L 1.426907812698126 2.808272909268378 L 1.436670275268181 2.810362799571482 L 1.445816924020103 2.814360053735081 L 1.453956895572716 2.82013828955992 L 1.460833935176958 2.827377333457199 L 1.466164519452235 2.835817694555855 L 1.469776425433467 2.845126059740819 L 1.4716531022883 2.854933912092704 L 1.471813097411454 2.864918647828991 L 1.470279291345578 2.874785938711895 L 1.467077774251563 2.884243413468384 L 1.462260001004569 2.892987612921805 L 1.455936709050892 2.900715387378269 L 1.448917642972674 2.906728155961477 " id="ID_6F0"/>
    <path d="M 1.383249671103612 2.90572815591398 L 1.392831398299758 2.902868930108091 L 1.402388012383273 2.899924662980495 L 1.412086383354178 2.897499861401204 L 1.421997989381869 2.896251255703951 L 1.431954259284208 2.89691540595056 L 1.435417642331458 2.897728155534 L 1.439849714586836 2.90265858925805 L 1.448917642972674 2.906728155961477 L 1.449724711061793 2.908671947146117 L 1.45319889300889 2.918042296791471 L 1.454785221165467 2.927794866490756 L 1.459855317331085 2.936349677566111 L 1.461908946186389 2.946103678764265 L 1.461809152981812 2.956092467759148 L 1.460569433485856 2.966013183479903 L 1.459027332614754 2.975893528656458 L 1.457629627318454 2.985795466259897 L 1.456182601503561 2.995690164245342 L 1.454439751931322 3.005536334862972 L 1.452126927626362 3.015262856546126 L 1.448917642972674 3.024728161566176 L 1.443197013747814 3.026191485929645 L 1.433285810049921 3.027430330034961 L 1.423311991949962 3.026927896988214 L 1.413585837933307 3.024659480438064 L 1.404360036961955 3.020827132866388 L 1.395749411878851 3.015755193713653 L 1.387746493193493 3.009765983537915 L 1.380270134040726 3.003128213992656 L 1.372938579504223 2.996327987611392 L 1.365833712610969 2.989292649129081 L 1.359332772520483 2.981700482580713 L 1.354063707654217 2.973220821068942 L 1.3511676513629 2.963680541129271 L 1.349043992428359 2.953916441775543 L 1.344328762948685 2.945137499649725 L 1.339524813919888 2.936380207935409 L 1.338917637747954 2.926728156911426 L 1.348907860407138 2.926351535201856 L 1.358837928180885 2.925353002608785 L 1.367292431966475 2.92035645773476 L 1.370917639267872 2.912728156246462 L 1.380459811181276 2.910182698204341  z" id="ID_6F1"/>
    <path d="M 1.370417639244124 2.703728146319495 L 1.379857085779836 2.700427991777896 L 1.389390717858521 2.697411213748958 L 1.399028384579612 2.694746145410006 L 1.408773349043516 2.692506086920898 L 1.418620074168109 2.690769629418545 L 1.428552041432896 2.689619472060323 L 1.438538391792616 2.689139431327268 L 1.448532151169392 2.689408790936102 L 1.458469736678929 2.69049430382533 L 1.463583659294272 2.691396114483755 L 1.472455784476885 2.695958288073846 L 1.481417644516341 2.69772814603451 L 1.48483740292781 2.700372471702827 L 1.493119718981853 2.705972268961115 L 1.501641163935279 2.71120507232605 L 1.510059052013111 2.716600815972475 L 1.517949759428094 2.722732610063985 L 1.525161361615278 2.729658416263342 L 1.53198118619645 2.736970029207855 L 1.538372450676448 2.744658829070615 L 1.544297666192748 2.752712214358906 L 1.549722106213494 2.76111103912804 L 1.554615629013966 2.769829887766292 L 1.55895426097311 2.778837759654027 L 1.56272143077876 2.788099240034746 L 1.565908690985593 2.797576072482138 L 1.568515755600654 2.807228667659348 L 1.570550116057852 2.817018125876026 L 1.572025914222223 2.826906937638506 L 1.572962892220755 2.836861348754226 L 1.573384772460619 2.846851163007022 L 1.573344507306271 2.856849953949353 L 1.572829427336137 2.866835351964315 L 1.571741447101793 2.876774207594051 L 1.569980015167103 2.886615496467994 L 1.56746003395227 2.896290030068822 L 1.564135993942784 2.905718041797703 L 1.560020818334978 2.914828793578999 L 1.5551865002741 2.923581113187163 L 1.549746110971916 2.931970812527088 L 1.543806411966888 2.940015145221654 L 1.537539399784795 2.94780821874701 L 1.5311482790034 2.955499872955865 L 1.524732923063855 2.963171138748601 L 1.518363560892774 2.97088040793019 L 1.512111046813727 2.978684438194019 L 1.5060721949564 2.986654537219385 L 1.50042037530012 2.994902220386729 L 1.495582302782921 3.003642345639347 L 1.494002142642895 3.013214126942845 L 1.495122223673725 3.023129735765641 L 1.493469345186885 3.032940023390503 L 1.487921033247914 3.041132279409119 L 1.479015339905588 3.045423700409552 L 1.469100305848558 3.04510297501798 L 1.460101074197581 3.040882652138794 L 1.453184419412507 3.033730076363863 L 1.448917642972674 3.024728161566176 " id="ID_6F2"/>
    <path d="M 1.38024967096112 2.755396117523591 L 1.379595366487106 2.752757927873194 L 1.377120119853876 2.743069159431479 L 1.374718659431932 2.733361897454628 L 1.372635308665793 2.723582278762094 L 1.371120403492896 2.713699813568373 L 1.370417639244124 2.703728146319495 L 1.368543035024671 2.698678303159097 L 1.366308019869229 2.688940406469887 L 1.365083408107675 2.679017862083171 L 1.364169723190649 2.669059617070539 L 1.362896852492809 2.659143154343562 L 1.359222798552162 2.650331219722554 L 1.349419924717243 2.649530744275789 L 1.339633933862113 2.651541192180681 L 1.329927552096667 2.653936905866176 L 1.326256695419075 2.662325376642172 L 1.325656841953589 2.672291640998741 L 1.3266935048342 2.682230112582894 L 1.328748559026248 2.692014411653216 L 1.331234275068538 2.701700484838433 L 1.333620271233018 2.711411031948738 L 1.335373351344619 2.72125245344667 L 1.335917637605462 2.731228147625675 L 1.340985113548296 2.739835433939145 L 1.344763030820809 2.749087735978976 L 1.347629493770793 2.758665669308365 L 1.349990714178665 2.768382538771174 L 1.351917638365421 2.776728149786809 " id="ID_6F3"/>
    <path d="M 1.335917637605462 2.731228147625675 L 1.327560854638099 2.736601781177119 L 1.321178269040746 2.744272195434449 L 1.316218959000633 2.752947334952992 L 1.312204096931325 2.762102771336271 L 1.308836947539029 2.771517550905342 L 1.305931069286143 2.781085690183278 L 1.303360565445123 2.790749804819871 L 1.301032353653455 2.800474954298158 L 1.298868860496147 2.810238057806364 L 1.297037869328545 2.820065511222932 L 1.296244398046348 2.830029703443425 L 1.296410283065313 2.840025119609983 L 1.297435058904293 2.849969788402992 L 1.299253012507549 2.859800629114005 L 1.301822500464452 2.869462406369461 L 1.305118477901126 2.878901130936689 L 1.309126848751534 2.888059923056065 L 1.313839837141308 2.89687665078816 L 1.319251497013336 2.905282390707485 L 1.325353091916278 2.913201231449569 L 1.332128273353228 2.920551683535439 L 1.338917637747955 2.926728156911428 " id="ID_6F4"/>
   </g>
   <g id="ID_0" color="rgb(0,0,0)" stroke="currentColor" fill="none" stroke-width="0.00005039721436807565"/>
  </g>
 </svg>