<?xml version="1.0" encoding="UTF-8" ?>
 <svg viewBox="-1.338128913765599 -4.622628450066837  0.3001742800276359 0.42133030635286417" xmlns="http://www.w3.org/2000/svg" version="1.0" overflow="visible">
  <defs>
   <g id="ID__#42_Model_Space"/>
   <g id="ID__#42_Paper_Space0"/>
   <g id="ID__#42_Paper_Space"/>
  </defs>
  <g id="draft" transform="matrix(1 0 0 -1 0 0)" stroke-width="5.039721436807565E-5">
   <g id="Poliline" color="rgb(0,0,0)" stroke="currentColor" fill="none" stroke-width="0.00005039721436807565">
    <path d="M -1.215082483560536 4.210728217898154 L -1.217418554364131 4.212046809680035 L -1.226190466618755 4.216847959616059 L -1.235052324678816 4.221481050090153 L -1.243991975578823 4.225962251003464 L -1.252998470895791 4.230307586051992 L -1.262061904060057 4.234532911350999 L -1.271173162073237 4.238653885407543 L -1.28032417309962 4.242686184173773 L -1.289507094524619 4.24664525967915 L -1.298714669285185 4.250546642098477 L -1.307939945733379 4.254405968545096 L -1.317176136646108 4.258239091842996 L -1.326416473223616 4.262062204711387 L -1.333685865963885 4.255348006090795 L -1.331529732022324 4.246416647817861 L -1.323849789645933 4.240022534939663 L -1.315485272300034 4.234549184535428 L -1.306690129005142 4.229796750265155 L -1.297613467018719 4.225602710932019 L -1.288349178862313 4.221839761539834 L -1.278958596395302 4.218402901655231 L -1.269486428593952 4.215197578695383 L -1.259983391978334 4.212084670053133 L -1.250647794243239 4.208503402305199 L -1.241374528381033 4.204761221030386 L -1.231860575744619 4.20170560223873 L -1.221949397548351 4.201298143713973 L -1.215899461508545 4.207658407997726  z" id="ID_578"/>
    <path d="M -1.326416473223616 4.262062204711387 L -1.328324585779581 4.271878109175112 L -1.330492186595453 4.281639995657751 L -1.332795766400637 4.291371065677072 L -1.334947495258067 4.301136112519133 L -1.33660879881235 4.310995159295046 L -1.337630021196461 4.320940727863566 L -1.338103768978611 4.33092804422859 L -1.338128913765599 4.340926644814212 L -1.337761809675272 4.350919345633142 L -1.337052834730344 4.360893761723918 L -1.336046674903984 4.370842732389553 L -1.334782885927562 4.380762301609735 L -1.333296517665194 4.39065109243401 L -1.331618818494037 4.400509309993243 L -1.329777844100759 4.410338426617769 L -1.327799062435783 4.420140669615349 L -1.325705792028289 4.429919167674217 L -1.32351976080602 4.439677310675097 L -1.321261462368192 4.449418967604122 L -1.318907920375457 4.459137876487369 L -1.316224123219496 4.468770583284259 L -1.313218739297218 4.478308068757927 L -1.30993510300626 4.487753547261398 L -1.306405271350841 4.497108997128648 L -1.302651869955441 4.506378005720275 L -1.298691817354903 4.515560744859678 L -1.294536496803628 4.52465649085329 L -1.290192218088206 4.533663453787724 L -1.285660646128535 4.542577507870413 L -1.280938052339215 4.551391966159561 L -1.276032369170722 4.560105828274734 L -1.270931676560676 4.568707379423997 L -1.265562392565392 4.577142955248847 L -1.259821478820486 4.585329505416678 L -1.253552533588958 4.593117030756582 L -1.246503485981117 4.600199467653618 L -1.238576122368197 4.60628365802186 L -1.229947302243214 4.611325603948907 L -1.220796540180458 4.615346172076264 L -1.211280418106607 4.618406852716367 L -1.201524271439671 4.6205873764612 L -1.191622376362929 4.621969738329324 L -1.181645815928543 4.622628450066837 L -1.171647335349846 4.622626510592574 L -1.161667531953537 4.622013595630585 L -1.151739685555947 4.620825442694242 L -1.141895097561423 4.619083446325648 L -1.132162521687579 4.616792181954181 L -1.122579618415165 4.613936791203498 L -1.113236141794777 4.610386480976767 L -1.104354848100848 4.605799354153925 L -1.095882098446776 4.600486316009968 L -1.087771902359654 4.594642551917701 L -1.079998990961748 4.588352926256099 L -1.072570366026941 4.581655829694552 L -1.06552338193479 4.574562622595188 L -1.058922785091328 4.567053922168877 L -1.052886223894463 4.559083793936455 L -1.047631825073998 4.550581135208767 L -1.043583636247588 4.54144991750714 L -1.041065275464098 4.531779683276313 L -1.039512991330482 4.52190300350419 L -1.03849116064714 4.511956167424903 L -1.037954633737963 4.501974315900405 L -1.038461254257564 4.491991654040447 L -1.039970679355401 4.482110200839597 L -1.042279059175539 4.472383073527078 L -1.045106390551837 4.462791280262303 L -1.048173283526971 4.453273771743171 L -1.051248571464498 4.443758424709413 L -1.054264265738917 4.434224588628831 L -1.057631212623322 4.424810361641634 L -1.06170630811975 4.415681255936483 L -1.065869304250987 4.406589712857471 L -1.069856633242446 4.397419002208591 L -1.074020011820172 4.388327478226038 L -1.078673506617831 4.379478700853418 L -1.083860938000638 4.37093049410617 L -1.08935122489493 4.362572742120768 L -1.094939614950258 4.354279994406256 L -1.100424617020042 4.345918816050305 L -1.105603844083515 4.337365704602706 L -1.110648074545093 4.328731566889477 L -1.115936927268714 4.320244907308332 L -1.121435766682606 4.31189291615853 L -1.1271115649621 4.303659801618385 L -1.132932366442001 4.295528467671807 L -1.138865772680085 4.287478994983557 L -1.144876238734998 4.279486760280486 L -1.15091972088958 4.27151963406642 L -1.156949213309184 4.263541763336579 L -1.163251688078252 4.25577920125861 L -1.169932954750122 4.248339810995352 L -1.176952868116238 4.241218859980294 L -1.184275321280104 4.234409522317104 L -1.191868539121595 4.227903358383432 L -1.199704373465341 4.221691411374081 L -1.207758087753834 4.215764562089036 L -1.215082483560536 4.210728217898154 " id="ID_579"/>
   </g>
   <g id="ID_0" color="rgb(0,0,0)" stroke="currentColor" fill="none" stroke-width="0.00005039721436807565"/>
  </g>
 </svg>