<?xml version="1.0" encoding="UTF-8" ?>
 <svg viewBox="2.368195568567485 -3.208194158910336  0.37124101513531205 0.35546869469163633" xmlns="http://www.w3.org/2000/svg" version="1.0" overflow="visible">
  <defs>
   <g id="ID__#42_Model_Space"/>
   <g id="ID__#42_Paper_Space0"/>
   <g id="ID__#42_Paper_Space"/>
  </defs>
  <g id="draft" transform="matrix(1 0 0 -1 0 0)" stroke-width="5.039721436807565E-5">
   <g id="Layer_#32_1" color="rgb(255,0,255)" stroke="currentColor" fill="none" stroke-width="0.00005039721436807565"/>
   <g id="Poliline" color="rgb(0,0,0)" stroke="currentColor" fill="none" stroke-width="0.00005039721436807565">
    <path d="M 2.473085160950063 3.176437507556148 L 2.469255408167299 3.178658929021811 L 2.463696085631909 3.178412049755468 L 2.458877989651455 3.176807791317688 L 2.456130532676023 3.173509085378345 L 2.456130532676023 3.173509085378345 L 2.451917690612617 3.16472816821582 " id="ID_6C9"/>
    <path d="M 2.423453331590565 2.963832785627023 L 2.417268792051471 2.947169729844269 L 2.418353324352191 2.937272726263289 L 2.422294928001843 2.928118448589961 L 2.428795601322495 2.920584581868535 L 2.437818928140397 2.916593603770129 L 2.447339342414134 2.91894192783244 L 2.448782584919554 2.925665673385715 L 2.442035926777289 2.9330454374915 L 2.435751641083215 2.940821434761076 L 2.430121485178499 2.949081652937655 L 2.423453331590565 2.963832785627023 " id="ID_6CA"/>
    <path d="M 2.408116907282192 3.123528947508962 L 2.401615046581038 3.123560780168665 L 2.392900723688197 3.118937793306404 L 2.386963507428419 3.110945155395347 L 2.383114603714233 3.101730796653068 L 2.380689536681843 3.092036345427569 L 2.379413568039262 3.082123441470816 L 2.379380464086387 3.072131549466863 L 2.383852081928427 3.064310146231958 L 2.392917687810268 3.066728163561069 L 2.401140898271672 3.072130107686763 L 2.407147510531215 3.080106323647017 L 2.41188114610569 3.088908662245803 L 2.415492279584268 3.098226560873561 L 2.417665070068474 3.107969496369289 L 2.416958001502353 3.117856172418184 L 2.40944139782014 3.123494995236375  z" id="ID_6CB"/>
    <path d="M 2.392917687810268 3.066728163561069 L 2.391324312165433 3.076584345761633 L 2.391651889576432 3.086564042538505 L 2.393743829250238 3.096331032276479 L 2.397297036600514 3.105669809865661 L 2.401993171210071 3.114492393912318 L 2.407567096274743 3.12279051889042 L 2.408116907282192 3.123528947508962 " id="ID_6CC"/>
    <path d="M 2.426917689425182 3.144728167265869 L 2.417118719307792 3.144468585509921 L 2.40760075340481 3.141533920517282 L 2.399322465666725 3.135971647097875 L 2.391989215990411 3.12917485007742 L 2.384208458918029 3.122906829097496 L 2.377403085550906 3.115616351135019 L 2.372520398347935 3.106914184324235 L 2.369514642244102 3.09739221430191 L 2.368195568567485 3.087490260581317 L 2.368382513889289 3.077500435810625 L 2.369964626179252 3.067634336553041 L 2.372915737220393 3.058088774846757 L 2.377297615323782 3.049112669525182 L 2.383251092494889 3.041100295543117 L 2.390917687715273 3.034728162041151 L 2.399885690943498 3.039087858277431 L 2.407821849600341 3.045155794243544 L 2.414902329389181 3.05221018712549 L 2.421226211111521 3.059952266767488 L 2.426821491437574 3.068236988641853 L 2.431659556079668 3.076985527520786 L 2.435657033239411 3.086147975120969 L 2.438666931410147 3.095678508652568 L 2.44046244014703 3.105506464406309 L 2.440723772425934 3.115490859405833 L 2.439066822292733 3.125333294079412 L 2.435197324682587 3.134526237843207 L 2.429172044189337 3.142474946201064  z" id="ID_6CD"/>
    <path d="M 2.390917687715273 3.034728162041151 L 2.391481156595895 3.024744187659727 L 2.392435130576991 3.014791351512284 L 2.394099420838418 3.004933690054693 L 2.396730178886905 2.995296750019795 L 2.400498500190704 2.986034470912969 L 2.403193822329452 2.976434071647013 L 2.403330201540843 2.96645457382081 L 2.402056086767957 2.956537541648813 L 2.401678677160524 2.9465734443702 L 2.404064959956839 2.936874884903868 L 2.407894344465457 2.927648346475365 L 2.413189563831592 2.919181038796178 L 2.419922691230139 2.911808077103087 L 2.42793094840236 2.905845084290893 L 2.436922468383303 2.90150208304572 L 2.446545428930866 2.898826813564944 L 2.456474529792397 2.897719849919996 L 2.465720815000418 2.895456242754624 L 2.473773481252298 2.889527861333631 L 2.481893527758118 2.883691840918443 L 2.490152040979122 2.878053377572809 L 2.498617338323613 2.872730788900685 L 2.507345172701043 2.867853396992247 L 2.516370422207075 2.86355235079236 L 2.525695771495281 2.859947866090482 L 2.535287660275128 2.857131345576341 L 2.545082759174919 2.855128952639132 L 2.554992046684327 2.853797608832264 L 2.564960839266725 2.853022023874112 L 2.574955521174705 2.8527254642187 L 2.584954450890998 2.852852853455615 L 2.594940425658097 2.853365535697379 L 2.604901838562168 2.854238181419267 L 2.614827001726106 2.855457089783076 L 2.624703647568764 2.857020030138139 L 2.634518207022606 2.858934125659756 L 2.644254069134821 2.861214850846653 L 2.653884965876813 2.863904049712511 L 2.663375547723258 2.867051775262082 L 2.672678841014278 2.870715550690878 L 2.681731317053264 2.874959865116066 L 2.690448559431854 2.879854420108102 L 2.698719551455432 2.885468631218838 L 2.706403630424151 2.891861258842583 L 2.713332999440368 2.899063070048995 L 2.719329179565783 2.907057319585007 L 2.724236917259745 2.915762036394479 L 2.728155142187301 2.924958425183982 L 2.731273933927512 2.934457101782877 L 2.733721747710516 2.944151115812687 L 2.735610354302121 2.953970070790914 L 2.737033500979319 2.963867611129638 L 2.738069166889846 2.973813392043279 L 2.738782586545783 2.983787640463408 L 2.739229191343369 2.993777421451609 L 2.739436583702797 3.003774822644649 L 2.739234596611657 3.013772142360423 L 2.738604326134961 3.023751787280163 L 2.737574795398558 3.033697690971553 L 2.736167585227582 3.04359762459676 L 2.734398304863882 3.053439391912348 L 2.732277374596376 3.063211318600401 L 2.72981050836803 3.072901882606931 L 2.726999259246675 3.082498275430506 L 2.723841151137799 3.09198615626059 L 2.720329441878305 3.101349652661982 L 2.716454016101018 3.110567935594573 L 2.71219998618971 3.11961748837891 L 2.707548725767785 3.128467699340731 L 2.702474836621926 3.137084203587322 L 2.696950223676736 3.145418449270911 L 2.690941415496413 3.153410020899082 L 2.684411368633062 3.16098080207532 L 2.67732213016452 3.168029740242706 L 2.669559328873191 3.174322730449899 L 2.661112640636456 3.179667504845033 L 2.652236651825981 3.184269344478678 L 2.643125712199172 3.188390192399117 L 2.633939041716634 3.19234031006861 L 2.624832424039262 3.196470939048872 L 2.615534891916933 3.200145117037481 L 2.605976931619967 3.203077936321266 L 2.596229739350207 3.205302613507047 L 2.586354227628302 3.206863407997239 L 2.576400523232188 3.207810155226885 L 2.566408933630036 3.208194158910336 L 2.556410888442822 3.208065487242951 L 2.546429395978386 3.20747120707754 L 2.536481938795162 3.206454486343361 L 2.526581034401751 3.205054276586174 L 2.516735592463703 3.203305355935915 L 2.506951827030339 3.201238573944534 L 2.497233837516597 3.198881157490964 L 2.487584651988457 3.196257204002638 L 2.478244512064673 3.194678971729075 L 2.469586468629474 3.199607946938344 L 2.459762286864438 3.200803147144149 L 2.450594711593621 3.197057518749069 L 2.443428458207223 3.19013278460387 L 2.437964536078682 3.181771631100847 L 2.433741454231004 3.172713054835176 L 2.430499152260449 3.16325702919593 L 2.42815323534685 3.153539771874534 L 2.426917689425181 3.144728167265871 " id="ID_6CE"/>
   </g>
   <g id="ID_0" color="rgb(0,0,0)" stroke="currentColor" fill="none" stroke-width="0.00005039721436807565"/>
  </g>
 </svg>