<?xml version="1.0" encoding="UTF-8" ?>
 <svg viewBox="1.612160965134298 -2.531221968026276  0.1089667148606599 0.11769828030252283" xmlns="http://www.w3.org/2000/svg" version="1.0" overflow="visible">
  <defs>
   <g id="ID__#42_Model_Space"/>
   <g id="ID__#42_Paper_Space0"/>
   <g id="ID__#42_Paper_Space"/>
  </defs>
  <g id="draft" transform="matrix(1 0 0 -1 0 0)" stroke-width="5.039721436807565E-5">
   <g id="Layer_#32_1" color="rgb(255,0,255)" stroke="currentColor" fill="none" stroke-width="0.00005039721436807565"/>
   <g id="Poliline" color="rgb(0,0,0)" stroke="currentColor" fill="none" stroke-width="0.00005039721436807565">
    <path d="M 1.61491765085725 2.447728134160147 L 1.612160965134298 2.438314312609241 L 1.615965429064339 2.429222102501169 L 1.623286431679824 2.422466359727213 L 1.63202850437378 2.417645413109136 L 1.641515271984092 2.41454056759 L 1.651440578288934 2.413523687723753 L 1.661341269592009 2.414802554572027 L 1.670864729948485 2.417818673221352 L 1.679861432080228 2.422167954860134 L 1.688250543194615 2.427600155149141 L 1.695960537791131 2.433960450785562 L 1.702904511793018 2.441148953674908 L 1.708968500125495 2.44909323129104 L 1.714004988834997 2.457724324126099 L 1.717772395796101 2.466976872946926 L 1.720146369045361 2.476682653380985 L 1.721127679994958 2.486625776540503 L 1.720577015895864 2.496599320913242 L 1.718216906949489 2.506298746354691 L 1.713689707652808 2.51518311703686 L 1.706975991096186 2.522562802490492 L 1.698784411574359 2.528256149742956 L 1.689304848654107 2.531221968026276 L 1.679944119585356 2.5285227998225 L 1.674901567227073 2.520059887214435 L 1.677859724832977 2.512198210172472 L 1.684808784622911 2.505040589472933 L 1.689736604217801 2.496374767229855 L 1.691853229226 2.486650928805339 L 1.69028166079931 2.47684329303971 L 1.685054062978021 2.468386239561718 L 1.68237430251376 2.459235689021847 L 1.677995683332415 2.45032465555599 L 1.670703042081287 2.443539534360327 L 1.66196152011979 2.438714839210945 L 1.652573080138433 2.435289493761002 L 1.642881049775293 2.432837742456573 L 1.63322556101572 2.43305897416784 L 1.626272375263201 2.440144136057147 L 1.619196218822139 2.447054330199417  z" id="ID_79A"/>
   </g>
   <g id="ID_0" color="rgb(0,0,0)" stroke="currentColor" fill="none" stroke-width="0.00005039721436807565"/>
  </g>
 </svg>