<?xml version="1.0" encoding="UTF-8" ?>
 <svg viewBox="-0.6310887713373772 -4.847974175226426  0.337376159278815 0.4803154174308837" xmlns="http://www.w3.org/2000/svg" version="1.0" overflow="visible">
  <defs>
   <g id="ID__#42_Model_Space"/>
   <g id="ID__#42_Paper_Space0"/>
   <g id="ID__#42_Paper_Space"/>
  </defs>
  <g id="draft" transform="matrix(1 0 0 -1 0 0)" stroke-width="5.039721436807565E-5">
   <g id="Poliline" color="rgb(0,0,0)" stroke="currentColor" fill="none" stroke-width="0.00005039721436807565">
    <path d="M -0.4664164323758087 4.403396195799391 L -0.4679693443231665 4.412803422554382 L -0.4696790692547497 4.422652139851122 L -0.4721721236473666 4.432334925176686 L -0.4751324658822647 4.441886389986946 L -0.478321061288165 4.451364521104972 L -0.4815384533789971 4.460832905069148 L -0.4845945539462404 4.470354167575887 L -0.4872818366432661 4.479985310180467 L -0.4893476104424615 4.489766972144947 L -0.4904671969770576 4.499698595412862 L -0.4902369788410282 4.509687856649124 L -0.4882468325657908 4.51947009758074 L -0.4842803141619667 4.528627758838309 L -0.4782977250085594 4.536388802900985 L -0.4683136801023285 4.536482733213237 L -0.4584857714749547 4.534712045140453 L -0.4521525584121484 4.528314641865051 L -0.4504535548767255 4.51846004979801 L -0.4486088312063217 4.508631732361548 L -0.4465794322305579 4.498839994399451 L -0.4443279238751528 4.489096966526835 L -0.4418179740434561 4.479417462412277 L -0.4390140623902124 4.469819023972751 L -0.4358796658307887 4.460323617780352 L -0.4320538579041529 4.451087358656833 L -0.4280972214629735 4.441904638252555 L -0.4251457655910196 4.432361387889699 L -0.4236478639419721 4.422477203658923 L -0.4235888038925708 4.412499652812433 L -0.4269483446716392 4.403187622123711 L -0.4290824462275396 4.400728226922671 L -0.4427684531438132 4.39782197368628 L -0.4540557490348647 4.399008793227952  z" id="ID_582"/>
    <path d="M -0.6310824558220248 4.582728235567206 L -0.6295965383424634 4.572839281630475 L -0.6281807594018983 4.562940010679362 L -0.6267991767157666 4.553035878913922 L -0.6254167809211664 4.543131830857571 L -0.6239986562844262 4.533232961961665 L -0.6225090558368134 4.52334452745775 L -0.6209106125236376 4.513473125669232 L -0.6191633622490125 4.50362701343268 L -0.6172237605356125 4.493817043848347 L -0.6150436215970397 4.484057810437827 L -0.6125690313933001 4.474369199332505 L -0.6097393538680054 4.464778500281296 L -0.6064865964072128 4.455323232537754 L -0.6027356532188543 4.446054771488254 L -0.5984063265630803 4.43704260750507 L -0.5934184511552206 4.428378433823633 L -0.5877015616123176 4.420178106521909 L -0.5812418738119592 4.412548808333706 L -0.5742361649766236 4.405415316450556 L -0.566830642564419 4.398697114523683 L -0.5590874864736044 4.392370725911669 L -0.5510200782731447 4.386463702203322 L -0.5425927678640381 4.381084306242401 L -0.5336804066454466 4.37656544281906 L -0.5242232127955662 4.373324682256679 L -0.5145617665762634 4.370751488665389 L -0.5047515620450218 4.368822278465925 L -0.4948230728981536 4.367658757795542 L -0.4848284880288736 4.367665645085153 L -0.4748671764000934 4.368529253767032 L -0.4649450767711612 4.369775920390665 L -0.4550234058321721 4.37102601449569 L -0.4450674526890932 4.371957583021078 L -0.4350916227028306 4.372653750468334 L -0.425116829019645 4.37336506495825 L -0.4151935269015583 4.374578380357977 L -0.4054559234165769 4.376820494873436 L -0.3960074378848244 4.380083595313323 L -0.3868277657509562 4.384042893454468 L -0.3779227953532658 4.388592054047618 L -0.3693195448367428 4.393689949623446 L -0.3610420907466416 4.399295081261982 L -0.353102642537559 4.405374244757835 L -0.3455200012907893 4.41189170536667 L -0.3383087166036072 4.418817911908725 L -0.3314850601600332 4.426126396045358 L -0.3250671041690536 4.43379510585351 L -0.3190788977471151 4.441803227966946 L -0.31355015241967 4.450133245888409 L -0.3085188067215983 4.458770997457866 L -0.3040340857155694 4.467707129227294 L -0.3001662477248548 4.476927834647561 L -0.2970121914469947 4.486414866770045 L -0.2947070991284049 4.496141758456047 L -0.2937126120585622 4.506076977631213 L -0.2939696151290745 4.516072464416524 L -0.2941698267325643 4.526068682630061 L -0.2937710500628698 4.536060222062729 L -0.2937541863386253 4.546059391290132 L -0.2941641549315514 4.556050258374826 L -0.2949912623768247 4.566015232282378 L -0.296226121484354 4.575938049412506 L -0.297859862073893 4.585803051829811 L -0.2998843920517462 4.595595416629443 L -0.3022925747948122 4.605300764100887 L -0.3050782910454286 4.614904576479855 L -0.3082365624823753 4.624392050673794 L -0.3117640462388698 4.633748799275217 L -0.3156478181318691 4.642963253474979 L -0.3195814315738579 4.652157178845234 L -0.3234550312805986 4.661376560504121 L -0.327304980873464 4.670605477069074 L -0.3311636692100821 4.679831746916246 L -0.3350588530667986 4.689040765328106 L -0.3390188940385821 4.698224556590719 L -0.3430681929044406 4.707368437348671 L -0.3472320773085666 4.716460462879377 L -0.3515361964327992 4.725488075171684 L -0.3560052079307452 4.734433984720146 L -0.3606658960135611 4.743281428845119 L -0.365545663393088 4.752009764875557 L -0.370673149641795 4.760594714105859 L -0.3760781321659277 4.769007357762813 L -0.3818093595705516 4.777200767033425 L -0.3879691190536452 4.785076742895695 L -0.394534531076351 4.792618099205645 L -0.4014715115855987 4.79981918418523 L -0.4087528363811304 4.806671796094738 L -0.4163573891216102 4.813163980611202 L -0.4242691001954313 4.819278257839371 L -0.4324756499332319 4.824989372146955 L -0.4409705534660438 4.830263571801239 L -0.4497471235078692 4.835051423934727 L -0.4588039194377576 4.839286238636779 L -0.4681362656379485 4.84287170613949 L -0.4777332442971787 4.84566935425463 L -0.4875630536035063 4.847475805808144 L -0.497541682891403 4.847974175226426 L -0.5074878081564718 4.847023177142439 L -0.517207777511576 4.844705624226216 L -0.5265559774850264 4.8411713676524 L -0.5354427589802127 4.836596008012357 L -0.5438251322969184 4.831149333030928 L -0.5516909078552228 4.824979541770305 L -0.5590458438978088 4.818208137917419 L -0.5659028172404046 4.810932441479227 L -0.5722764908507206 4.803228886340281 L -0.5781791719355986 4.795157819695313 L -0.5836189313327242 4.786767102208159 L -0.5885982331976721 4.778095342958204 L -0.5931127692153995 4.769174864121769 L -0.5971526436320805 4.760028877939422 L -0.600708281616587 4.750683772772013 L -0.6040376132549153 4.741254661426246 L -0.6072452912849045 4.731783459976327 L -0.6103109691680331 4.722265336217851 L -0.6132142851186151 4.712696429270357 L -0.6159356275085984 4.703074180644909 L -0.6184569842955528 4.693397595137794 L -0.6207628128783771 4.683667299961916 L -0.6228406819339565 4.673886035547171 L -0.6246820717196542 4.664057380749866 L -0.6262824019517748 4.654186583614897 L -0.6276411425456346 4.644279609249057 L -0.6287614967247555 4.634342820393737 L -0.6296498983747956 4.624382499235151 L -0.6303153426414873 4.614404890478486 L -0.6307687543023714 4.604415350434935 L -0.6310222888767978 4.594418721776392 L -0.6310887713373772 4.584419094364665  z" id="ID_583"/>
   </g>
   <g id="ID_0" color="rgb(0,0,0)" stroke="currentColor" fill="none" stroke-width="0.00005039721436807565"/>
  </g>
 </svg>