<?xml version="1.0" encoding="UTF-8" ?>
 <svg viewBox="0.5572523528416733 -8.25030752333905  0.43581270759326873 0.46087140127680293" xmlns="http://www.w3.org/2000/svg" version="1.0" overflow="visible">
  <defs>
   <g id="ID__#42_Model_Space"/>
   <g id="ID__#42_Paper_Space0"/>
   <g id="ID__#42_Paper_Space"/>
  </defs>
  <g id="draft" transform="matrix(1 0 0 -1 0 0)" stroke-width="5.039721436807565E-5">
   <g id="Poliline" color="rgb(0,0,0)" stroke="currentColor" fill="none" stroke-width="0.00005039721436807565">
    <path d="M 0.7755836266160259 8.250062394131223 L 0.7766024589484078 8.249817213138478 L 0.7863124460392195 8.247426548821046 L 0.7959915442626562 8.2449139055527 L 0.8056263663654634 8.242236698863035 L 0.8152009819084594 8.239351821645045 L 0.8246961255046914 8.236215567342548 L 0.8340883849601476 8.23278383940494 L 0.8433493078663589 8.229012790414522 L 0.852445217653206 8.224859702576829 L 0.8613362406807549 8.220284872303601 L 0.869976818633166 8.215253706932481 L 0.8783171138147309 8.209739083846102 L 0.8863027922610333 8.203723213048889 L 0.8937535033855859 8.197056225432775 L 0.9024176170153168 8.192228407009257 L 0.909346681154452 8.185820515427647 L 0.9177632563995672 8.180420862150957 L 0.9257475044804355 8.174407190558345 L 0.9333428747864687 8.167904138967092 L 0.9406447517004519 8.161072872908889 L 0.9477907288840485 8.15407767756181 L 0.9548568314740553 8.147002305614604 L 0.9615586137059368 8.139582039075693 L 0.9678121730553517 8.131780535556231 L 0.9735647448625135 8.123603005501057 L 0.9787503659384607 8.115054832015632 L 0.9832891571666194 8.106146997336454 L 0.9870889862348031 8.096900594321482 L 0.9900490628861788 8.087352646911754 L 0.9920542188400869 8.077560728295122 L 0.9929182376684977 8.067602110110382 L 0.993065060434942 8.057604341438234 L 0.9928526104596304 8.047606907402567 L 0.992503328901236 8.037612906557888 L 0.9921917174684651 8.027617740394366 L 0.9920214378535775 8.017619019839703 L 0.9918176095646823 8.007621012589006 L 0.9915216641202793 7.997625285912897 L 0.9910897767469997 7.987634524881682 L 0.990470843407877 7.977653666367792 L 0.9896044465587126 7.967691273152925 L 0.988418438939429 7.957762117203518 L 0.9868345768208026 7.947888978832277 L 0.9848153762792231 7.938095600295848 L 0.9823409673073735 7.928407437659118 L 0.9793935003482419 7.918852911275354 L 0.9759580836810481 7.90946302039388 L 0.9720238465558717 7.900271249427282 L 0.9675847578654463 7.891312580652672 L 0.9626402379968226 7.882622351038965 L 0.9571958119565167 7.874235502606514 L 0.9512645161664856 7.866186913904736 L 0.9448639715863906 7.858506236077311 L 0.9380176024795892 7.851219853182277 L 0.930753506925238 7.844349664690149 L 0.9231030914114048 7.837912409171959 L 0.9150996123237318 7.831919106595189 L 0.906834533954811 7.826291046650857 L 0.8983640697760471 7.820976879147655 L 0.8896744911171792 7.816028524773792 L 0.8807394955756038 7.81153991005521 L 0.8715213076228316 7.807669651813635 L 0.8619786100338249 7.804698606442665 L 0.8521695858670428 7.802763992500787 L 0.8425169578341575 7.800165847625656 L 0.8330816072094036 7.796856496063998 L 0.8236989796461404 7.793397371905327 L 0.8140911881214423 7.790647355988041 L 0.8041750061746553 7.789436122062247 L 0.7941789432354041 7.789458260320257 L 0.7842196202381944 7.790337110389816 L 0.7743346731531898 7.791842742849392 L 0.7645318344227104 7.79381582029772 L 0.7548057337756813 7.796138956553456 L 0.7451438831122772 7.798716915896704 L 0.7355272863075113 7.801459089928235 L 0.7259253886793973 7.804252758549183 L 0.7163170609785335 7.807023776544267 L 0.7067642039382438 7.809980204187816 L 0.6972808272412641 7.813152379861631 L 0.6878785776918717 7.816557315733824 L 0.6785717216620002 7.820214753740193 L 0.6693779408223666 7.824147569829819 L 0.6603193527812712 7.82838223772172 L 0.6514239457763545 7.83294927794393 L 0.6427271306113731 7.837883843729186 L 0.6342746891294953 7.843225692240996 L 0.6261255764352267 7.849019126292493 L 0.618399355036968 7.855363012623458 L 0.6112333763246021 7.862333928111644 L 0.604629267075346 7.869839888866953 L 0.5985719343281115 7.877794166831576 L 0.5930385285858142 7.886121845891842 L 0.5880026904831857 7.894759828327606 L 0.5834375010335933 7.90365577251027 L 0.579317392933218 7.912766582243691 L 0.5756193115850436 7.922056840360617 L 0.5723234293742836 7.931497267005096 L 0.5691926008032624 7.940994525454432 L 0.5661333584350992 7.95051499702408 L 0.5633054125979662 7.960106462826297 L 0.5608488188368997 7.969799083557758 L 0.5589081066829653 7.979607472255088 L 0.5576463745325109 7.989525490960866 L 0.5572523528416733 7.999513908244384 L 0.5578812015687227 8.009490351267846 L 0.559048411657793 8.019421436696323 L 0.5605542635080872 8.029306986855659 L 0.5623663335798997 8.039141374137678 L 0.5644612236532423 8.048919486757473 L 0.5668223006819871 8.058636944352495 L 0.569438042753581 8.068289133504528 L 0.5723010224193095 8.077870982379203 L 0.5754068034554773 8.087375462983541 L 0.5787553643379458 8.096798870025196 L 0.582347826371219 8.106131471703314 L 0.5861878896714315 8.115362515046252 L 0.5902843760181149 8.124485256657142 L 0.5946460865814088 8.133484066495466 L 0.5992855891314512 8.142342689225885 L 0.6042185248682035 8.151041139776144 L 0.6094638848847236 8.159554625781976 L 0.6150443001422908 8.167852098950341 L 0.6209862749892566 8.175894309025377 L 0.6273202891411219 8.183631278153493 L 0.6340799536721784 8.190998411679868 L 0.6412997509781598 8.197914802476568 L 0.6489527065119712 8.204349238778896 L 0.6569570282170077 8.210341561013818 L 0.6652527807179052 8.21592494462092 L 0.6737961479321886 8.221121631004372 L 0.6825555096220352 8.22594534566609 L 0.6915073376351871 8.230401634014981 L 0.700633833208558 8.23448810648394 L 0.7099212279830525 8.238194097456825 L 0.7193584233511148 8.241499650442075 L 0.7289356854433305 8.244373636124031 L 0.7386430599899328 8.246770652035638 L 0.7484679161328734 8.248626097271705 L 0.7583909478558591 8.249848506400875 L 0.7683774358413711 8.25030752333905  z" id="ID_3B2"/>
    <path d="M 0.7049176076345703 8.012728398483464 L 0.7076538311347127 8.00313021850737 L 0.7090689366421046 7.993232427777692 L 0.7106864971902631 7.983368408110489 L 0.7153986122941652 7.975145292239987 L 0.7243002914867988 7.971175581384414 L 0.7321176232600975 7.964948067651996 L 0.740519026984634 7.959530184896654 L 0.749286858466669 7.954724176197576 L 0.7582419379912704 7.950274530944573 L 0.7672393225180532 7.945910143124476 L 0.7763303846312511 7.948097768434084 L 0.7856589163215891 7.951696445560498 L 0.7951555527159515 7.954826680227344 L 0.8047417566634278 7.957672291151959 L 0.8143159268130171 7.960556983025737 L 0.8237178919803751 7.963954381509322 L 0.8326219033008515 7.968474799670101 L 0.8400916445485622 7.975070003749911 L 0.8454115261780925 7.983501444383837 L 0.8485831046176732 7.992966120191227 L 0.8500474138711782 8.002849012830413 L 0.8502697818491906 8.012842220271708 L 0.8498188927592638 8.022831655065858 L 0.8496087896759831 8.032829410010743 L 0.8491739744859305 8.042818564934798 L 0.8476435765082594 8.05268778930797 L 0.8444908240145068 8.062174174665302 L 0.8404655353194838 8.071323291354412 L 0.8353698242722344 8.079918590007779 L 0.8289630134705259 8.087577568102926 L 0.8210939699106516 8.09371030157659 L 0.8118920479601277 8.097532940570268 L 0.8021296952419483 8.099681848751912 L 0.7922244416187585 8.10104317046823 L 0.7822459810933707 8.101691047584321 L 0.7722583900487116 8.101346858477505 L 0.7627859199697395 8.09848522463388 L 0.7554845645452258 8.091680580258004 L 0.7486606804730735 8.084371028736486 L 0.7414277116127064 8.077469492619603 L 0.7340520764568428 8.070717374522596 L 0.7268084446514936 8.063824369276185 L 0.7199085517827016 8.056589189578943 L 0.7136831330066551 8.048770605558492 L 0.7086354558852417 8.040152569574731 L 0.7053775697563305 8.030719350977915 L 0.7042917094409527 8.020798996029821  z" id="ID_3B3"/>
   </g>
   <g id="ID_0" color="rgb(0,0,0)" stroke="currentColor" fill="none" stroke-width="0.00005039721436807565"/>
  </g>
 </svg>