<?xml version="1.0" encoding="UTF-8" ?>
 <svg viewBox="0.2200784355403442 -7.450329687936344  0.38853472836636094 0.38141881397657507" xmlns="http://www.w3.org/2000/svg" version="1.0" overflow="visible">
  <defs>
   <g id="ID__#42_Model_Space"/>
   <g id="ID__#42_Paper_Space0"/>
   <g id="ID__#42_Paper_Space"/>
  </defs>
  <g id="draft" transform="matrix(1 0 0 -1 0 0)" stroke-width="5.039721436807565E-5">
   <g id="Poliline" color="rgb(0,0,0)" stroke="currentColor" fill="none" stroke-width="0.00005039721436807565">
    <path d="M 0.278917587400656 7.402728369510018 L 0.2749378758237428 7.404933076575296 L 0.2689175869256815 7.412728369984993 L 0.2600810082820262 7.417408706949389 L 0.2507786873808042 7.421028061154952 L 0.240917840912851 7.421551653051449 L 0.2331934663640869 7.415238384808346 L 0.2270871359211046 7.407343697832819 L 0.2227041580403934 7.398372836365925 L 0.2200784355403442 7.388738401509815 L 0.2235656645739148 7.379991305315651 L 0.2310419669920316 7.373369400479532 L 0.2386629230077322 7.366905367275489 L 0.2440661402921984 7.358600971299759 L 0.2449175857857426 7.353396335916873 L 0.2398455333740239 7.335745784422586 L 0.238320767169224 7.325866749574545 L 0.2361241042286082 7.316111714288267 L 0.2337217310643584 7.306404307639428 L 0.2314872614335011 7.296657306910296 L 0.2298492668733534 7.286795293239324 L 0.2294082302040321 7.276813547447795 L 0.2296704549136805 7.266817503900743 L 0.2302668989878525 7.256835760459495 L 0.2312033892783782 7.246880000851843 L 0.2324865905164275 7.236963385398367 L 0.23412413875098 7.227098768628065 L 0.2361240702569232 7.217301934346714 L 0.238495414236529 7.207587602631311 L 0.2412470730750558 7.197974180940366 L 0.2443881388080289 7.188480975992072 L 0.2479273951599747 7.179129166509345 L 0.2518731077378247 7.169941430472002 L 0.2562322018367116 7.160942842823302 L 0.2610102839712898 7.152159559852482 L 0.2662108898022248 7.143619209341999 L 0.2718342255331612 7.135351514464622 L 0.2778777880661529 7.127385839631501 L 0.2843352509772527 7.119751655907941 L 0.2911956756038583 7.112478106449799 L 0.2984448494561231 7.105591480060601 L 0.3060664689391563 7.099119747035433 L 0.3140626131397619 7.093117495567584 L 0.3224292193613092 7.087644844265759 L 0.3311538369823355 7.082762825864088 L 0.3402134293244696 7.078533875805931 L 0.3495721071132909 7.075018060586629 L 0.359183941196636 7.072267021026149 L 0.3689896267355612 7.070320546363827 L 0.3789238432838857 7.069200867582178 L 0.3889168329403434 7.068910873959769 L 0.3989004341287119 7.069433688645979 L 0.4088789996425719 7.070045784832321 L 0.4188784356319415 7.070088641360453 L 0.428877927137914 7.069990604429805 L 0.4388769783361149 7.070117628735269 L 0.448847153667586 7.070849795555493 L 0.4586994490938193 7.072541041145244 L 0.4684783482728135 7.074629581255599 L 0.4782220483055122 7.076880895663525 L 0.487935906729633 7.079254587954518 L 0.4976260029411988 7.08172572841647 L 0.5072954128933161 7.084277277123546 L 0.5169461452088351 7.08689724076241 L 0.5265761613768678 7.089591431293872 L 0.5357705673313369 7.09349589765747 L 0.5444085529564227 7.098525112879466 L 0.5524608144936014 7.104447072363455 L 0.5597218078494341 7.111310424783102 L 0.5658213700419658 7.119222137665424 L 0.5708996006420142 7.127832174038374 L 0.5757195367467522 7.13659419301261 L 0.5809224088889406 7.145132425452926 L 0.5863259808987876 7.153546556560877 L 0.59142208092437 7.162148512780785 L 0.5957416889567249 7.171161505434475 L 0.5987825038539363 7.180676533310594 L 0.6000808046273294 7.190576175699844 L 0.6014369351562597 7.200282692203591 L 0.6032908761394032 7.210087892019844 L 0.6035282718672832 7.22008049389562 L 0.6032286322564869 7.230076079215927 L 0.6035739995883294 7.240062879146912 L 0.6046565713872241 7.250000744799957 L 0.6060178205363851 7.259910497048076 L 0.6074302909449782 7.269808160843981 L 0.6084627356311741 7.279752009277367 L 0.6086131639067052 7.289745552132552 L 0.6076444693518006 7.299693077461803 L 0.6056797086176644 7.309496289527441 L 0.6029654990707343 7.319116472867842 L 0.5995791345330357 7.32852396669692 L 0.5957185346204961 7.337748518874109 L 0.5915235329066669 7.346825901433343 L 0.5870673190472369 7.355777838349491 L 0.5823889355465095 7.364616060299821 L 0.577502334193512 7.373340282979438 L 0.5720169859896364 7.381696496872365 L 0.5657584969934728 7.389491633757275 L 0.5588432812831848 7.396711399134532 L 0.5513618781875574 7.403342563533412 L 0.5433842338734935 7.409368205637196 L 0.5349821182568048 7.414787959194703 L 0.5264085659437701 7.419934987692532 L 0.5177117299959298 7.42487004328018 L 0.5088617189340657 7.429524771673407 L 0.4998351738932217 7.433826814747373 L 0.4906163386151406 7.43769852575035 L 0.4811987600584553 7.441056990511039 L 0.4715886780019414 7.443815341030155 L 0.4618079231098183 7.44588669118328 L 0.4518958785605589 7.447190620794756 L 0.4419338343773314 7.448058942097124 L 0.4319844377952329 7.44906472884451 L 0.4220195090335546 7.449898007183626 L 0.412029836348613 7.450329687936344 L 0.4020333368868246 7.450160211033122 L 0.3920838864551088 7.44919019067471 L 0.3822680882556497 7.447293749951221 L 0.3725220790545656 7.445054265394693 L 0.3628217271240715 7.442623927940063 L 0.3531757123388868 7.439984099115368 L 0.3435970909967612 7.437110312637583 L 0.3341027755526769 7.433970114413213 L 0.3247167378090197 7.430520643392993 L 0.3154741060116706 7.426704551347669 L 0.3064285389545125 7.422443629744988 L 0.2976662979254376 7.417628911156027 L 0.2893344535178448 7.412105904450528 L 0.281701118852963 7.405658226254833  z" id="ID_45B"/>
    <path d="M 0.2449175857857426 7.353396335916873 L 0.2533958307314634 7.348623900406347 L 0.2585853577845256 7.340092528402586 L 0.2649175867356917 7.332728366185197 " id="ID_45C"/>
    <path d="M 0.278917587400656 7.402728369510018 L 0.2838707539635745 7.394125104909548 L 0.2912414728052175 7.387394841620456 L 0.2995333696826305 7.381810965457473 L 0.3029175885405948 7.379728368417577 " id="ID_45D"/>
    <path d="M 0.3049175886355897 7.246728362100416 L 0.3093948006477749 7.237795192682247 L 0.315104742373685 7.229597459660088 L 0.3220506465003314 7.222420120977927 L 0.330151786384242 7.21658174795995 L 0.3392210447882844 7.212409101472468 L 0.3489541975214863 7.21020028076753 L 0.3589306870002851 7.210202277224324 L 0.3686120289849919 7.21260996102042 L 0.3775399619864244 7.217076743874857 L 0.3855007675109299 7.223109137842809 L 0.3924349303139474 7.230302443176565 L 0.3983311530624691 7.238369970313605 L 0.4031681163268495 7.247115718112327 L 0.4068811087922457 7.25639380702567 L 0.4093425690325052 7.266077853719709 L 0.4103381986689048 7.276016248347609 L 0.4095518197341948 7.285968731054039 L 0.4066054924358724 7.295498648489079 L 0.401303063503435 7.303943494766476 L 0.3942593310271745 7.311015160183021 L 0.385881410202769 7.316439430410365 L 0.3765643805569541 7.320023009510818 L 0.3667344805705532 7.32177366825678 L 0.3567492666297909 7.321816256467303 L 0.3468753648774632 7.320300284909078 L 0.3373298159119429 7.31735029629339 L 0.3283108603836657 7.313051950989089 L 0.3200344013259482 7.307457549259114 L 0.3127649131555987 7.30060832822944 L 0.3068318016360534 7.292577341495071 L 0.3026060862078514 7.283534223599448 L 0.3004036713273352 7.273800279812244 L 0.3003399601955534 7.263819041189086 L 0.3022629665756753 7.254020701324842  z" id="ID_45E"/>
    <path d="M 0.2829175875906458 7.252728362385401 L 0.2845756765921603 7.242871938935993 L 0.2873669724136327 7.23327594230985 L 0.2913612465352102 7.22411653005274 L 0.2965833830642381 7.215598367772788 L 0.3029972834561789 7.207938600630612 L 0.3105002426728136 7.201342727258356 L 0.3189300286912333 7.19598210180736 L 0.3280829199213784 7.191978827076842 L 0.3377352401404901 7.189401530652252 L 0.3476618858852527 7.188269434399537 L 0.3576492038820866 7.188560020658309 L 0.3675030030058979 7.190216807647921 L 0.3770536358836667 7.193156072629443 L 0.3861584545541747 7.197275104030406 L 0.3947072653133619 7.202452121186221 L 0.4026417135913718 7.208530073511631 L 0.409900551733708 7.215401313240586 L 0.4163985564845643 7.22299610606489 L 0.4220167701354037 7.231262056352013 L 0.42659560909728 7.240144597650752 L 0.4299334653120957 7.249562014164321 L 0.4318022063341953 7.259374713119485 L 0.4319938395526535 7.269359626933703 L 0.4304655850143213 7.279231373710662 L 0.427491394620839 7.288770804166509 L 0.4233385546555271 7.297861565269221 L 0.4182073162877887 7.306439497606287 L 0.4122382598698185 7.31445789656449 L 0.4055257592296418 7.321865300588672 L 0.3981295597871117 7.328590052281449 L 0.3900856666817365 7.334523556802849 L 0.3814182778494208 7.33949884384349 L 0.37216220073622 7.343258839816519 L 0.362413430491161 7.345418331520713 L 0.3524323633098048 7.345540232340852 L 0.342570387496238 7.343939596601285 L 0.333010243082648 7.341029511582653 L 0.323883760447627 7.336957487036408 L 0.3153303228220254 7.331789599481651 L 0.307502627716322 7.325578049733612 L 0.3005552312582784 7.318395768294839 L 0.2946234429147481 7.310354441595764 L 0.289866605175658 7.301567740067889 L 0.28637966800623 7.29220329728263 L 0.2841140365291625 7.282469249130432 L 0.2829130972296712 7.272545637482717 L 0.282580125817951 7.262553527855328  z" id="ID_45F"/>
   </g>
   <g id="ID_0" color="rgb(0,0,0)" stroke="currentColor" fill="none" stroke-width="0.00005039721436807565"/>
  </g>
 </svg>