<?xml version="1.0" encoding="UTF-8" ?>
 <svg viewBox="0.7488861379687854 -6.118849860932128  0.35554432337925346 0.2863655990864693" xmlns="http://www.w3.org/2000/svg" version="1.0" overflow="visible">
  <defs>
   <g id="ID__#42_Model_Space"/>
   <g id="ID__#42_Paper_Space0"/>
   <g id="ID__#42_Paper_Space"/>
  </defs>
  <g id="draft" transform="matrix(1 0 0 -1 0 0)" stroke-width="5.039721436807565E-5">
   <g id="Poliline" color="rgb(0,0,0)" stroke="currentColor" fill="none" stroke-width="0.00005039721436807565">
    <path d="M 0.8539176147116904 5.98572830220613 L 0.8579766413042406 5.99486253861363 L 0.8630497252974516 6.003472670855625 L 0.8692767600713215 6.011284098587443 L 0.8767667166818178 6.017886094654934 L 0.885470063023213 6.022766910041938 L 0.895061530773078 6.025513626674632 L 0.9050300885746089 6.025956665574985 L 0.9148838789165179 6.024345301693625 L 0.9242446740454308 6.020874296397273 L 0.9326146568377104 6.015448583567854 L 0.9390575751574399 6.007864442445929 L 0.9422865938077418 5.998459226471876 L 0.9425787226545239 5.988488927609445 L 0.9407940062310133 5.978662664981283 L 0.9374878147780236 5.969233710803411 L 0.9329537947168997 5.960327938972997 L 0.927317000945388 5.952076007363915 L 0.9205853805020787 5.944694018683549 L 0.9126796601053337 5.938598189682122 L 0.9035798253143587 5.934514599216979 L 0.8937761863127295 5.932671678271693 L 0.8838253883408846 5.933314268780812 L 0.8743718670044833 5.93648420052658 L 0.8660258637666053 5.941944128769862 L 0.8592879250599194 5.949298541688449 L 0.8545570262389139 5.958079543629189 L 0.852132806600399 5.96775462492463 L 0.8521500068760587 5.977729760488161  z" id="ID_4E0"/>
    <path d="M 0.8069176124793102 6.010728303393566 L 0.8028267737523195 6.012028385527684 L 0.7935126409999942 6.015651948695898 L 0.7849176114343664 6.020728303868541 L 0.7761582492910675 6.025552530291054 L 0.7674463506921896 6.030461446452251 L 0.7589484505896423 6.035729989440063 L 0.7508689772264728 6.041616548940861 L 0.7488861379687854 6.050379582238337 L 0.7495269323772247 6.060358890272885 L 0.7512874845860305 6.070172431651782 L 0.7575694752719766 6.077659718868844 L 0.7672351610637449 6.079575358267325 L 0.7769865341635783 6.077469952882299 L 0.7863781666918764 6.074040247057137 L 0.7957576204767829 6.070575688198121 L 0.8054181180855435 6.068029897259563 L 0.8074176125030589 6.067728306100921 L 0.8151673325497172 6.061511793682893 L 0.8240836378486502 6.056986687449834 L 0.830917613619249 6.052728305388459 " id="ID_4E1"/>
    <path d="M 1.030917623118739 5.947728300401227 L 1.033392903698964 5.946951435802582 L 1.043066341232154 5.944427633713849 L 1.052917624163683 5.942728300163739 L 1.061827941076094 5.93821616171745 L 1.071202014897215 5.934738127541962 L 1.080641289079871 5.931437336187529 L 1.089835088665347 5.927517248535107 L 1.098186214665173 5.922061727045309 L 1.104430461348039 5.914326445204571 L 1.103853205454581 5.904984852899365 L 1.098834195979764 5.896383591599293 L 1.090718811482129 5.890765066836272 L 1.080829388692392 5.890122210932478 L 1.071198496216911 5.892736995029391 L 1.06203860673092 5.89673924319542 L 1.053084267176549 5.901190753240489 L 1.043798640279485 5.904449806691693 L 1.022439383046311 5.911769628385588 L 1.008423364369937 5.916124787185169 " id="ID_4E2"/>
    <path d="M 1.043798640279485 5.904449806691693 L 1.038720192229352 5.896520457708271 L 1.032595996832041 5.888625717179798 L 1.026019817729178 5.88108524460426 L 1.019010952862388 5.873955037865613 L 1.011576093085171 5.867270010527212 L 1.003732147933289 5.861070378538927 L 0.9955011501470529 5.855394709788548 L 0.9869107609020293 5.850279589918293 L 0.9779938197726831 5.845758660790171 L 0.968786376694859 5.841861357965481 L 0.9593295722813088 5.838613723800098 L 0.9496693148680659 5.836037721774555 L 0.9398518512933975 5.834149974681976 L 0.9299256446817834 5.832962812907616 L 0.9199410497306068 5.832484261845659 L 0.9099488595581997 5.832718046387121 L 0.8999900716721498 5.833665171946574 L 0.8901326552063074 5.835320191319606 L 0.8804149748884695 5.837677078316268 L 0.8708921410274745 5.840723577435176 L 0.8616125776645029 5.844444601923928 L 0.8526236532796795 5.848821251173406 L 0.843971186300087 5.853830603292808 L 0.8356989479319141 5.859445456527575 L 0.827847376581495 5.865634655362063 L 0.8204527569872226 5.87236344365605 L 0.8135468325352004 5.879593620521252 L 0.8071584385384147 5.887281108478159 L 0.801307061900526 5.895383209366285 L 0.7960050582676494 5.903858463223294 L 0.791262304095315 5.912659994627128 L 0.7870823951914101 5.921742694086465 L 0.7835966718459222 5.931112951905785 L 0.7807022275898162 5.940683839472905 L 0.7781742185619418 5.950358797608436 L 0.7745972253712097 5.9649221654326 L 0.7757827899466001 5.982443981441663 L 0.7764384803345968 5.992422283154095 L 0.7775328556658306 6.002358221003616 L 0.7800910478068328 6.012007550551025 L 0.7849176114343664 6.020728303868541 " id="ID_4E3"/>
    <path d="M 0.8074176125030589 6.067728306100921 L 0.8132501161648324 6.075823973794732 L 0.8203523787126165 6.082855421330559 L 0.8280988648153542 6.089175810607777 L 0.8362616461986602 6.094950804153707 L 0.8447512577412021 6.100234717691891 L 0.8535669749313523 6.10495019921151 L 0.862747546070369 6.108908530539725 L 0.8721921686104394 6.112188733695479 L 0.8818417749100015 6.114805569756966 L 0.8916447904827045 6.116771440112818 L 0.9015548717883943 6.11809651589326 L 0.9115293166466251 6.118788013016085 L 0.92152763373441 6.118849860932128 L 0.9315098778782653 6.118282664128756 L 0.9414360103662682 6.117083858327177 L 0.951264224383892 6.115248075772828 L 0.9609497873168396 6.112767805431053 L 0.9704440388558337 6.109634344392468 L 0.9796935152698447 6.105839137431444 L 0.9886394312695019 6.101375557250515 L 0.997217712527724 6.096241144027363 L 1.005359876043847 6.090440192820429 L 1.012984700421659 6.083975232133479 L 1.019985454755888 6.07683903509582 L 1.026359217353033 6.069136906436918 L 1.032120159778417 6.060965790469994 L 1.03728049072871 6.052402386646052 L 1.041848481140955 6.043508692326867 L 1.045827703911321 6.034336332152068 L 1.049216889035236 6.024929928448565 L 1.052010154418081 6.015329605902908 L 1.054197317769747 6.005573378641392 L 1.055764555601665 5.995698656942011 L 1.056695137786333 5.985743821545634 L 1.056970440386407 5.975749471890509 L 1.056571255656053 5.965759410316954 L 1.055479433699389 5.955821285949586 L 1.053679842297442 5.945986778984696 L 1.052917624163682 5.942728300163739 " id="ID_4E4"/>
    <path d="M 0.8349176138092389 5.964728301208683 L 0.8371064636387712 5.954973975168988 L 0.8401615652019724 5.945455899260188 L 0.8441563350639782 5.936293790984409 L 0.8492052191995567 5.927670074621473 L 0.8554495957205396 5.919873361986167 L 0.8630025029033898 5.913345951452282 L 0.8718127513913227 5.90866789573188 L 0.8815319342527718 5.90644951162552 L 0.8915197119865059 5.906158470372051 L 0.9014712693280414 5.907086269933253 L 0.911225400527578 5.909248183489195 L 0.9204345667406733 5.913111436424273 L 0.928906589815484 5.918407767497848 L 0.9365942580899542 5.924793561568042 L 0.9434995138430801 5.932021230626651 L 0.9496287746474676 5.939916937063904 L 0.9549743457967556 5.948363890643878 L 0.9594953645231907 5.957279233060721 L 0.9631033600080129 5.966600858380549 L 0.9656352303581847 5.976268491569504 L 0.9649517554315973 5.986221057565415 L 0.9628990758248558 5.996000590637422 L 0.9595118667067437 6.005400531509978 L 0.9547657939193755 6.014191428470221 L 0.9487100627823049 6.022136062739586 L 0.9414700393034297 6.02901869503455 L 0.9332333020535994 6.034670883738176 L 0.9242232956998011 6.038986213986017 L 0.9146729192878488 6.041920039077383 L 0.9048038786002416 6.043480403836078 L 0.8948142467987646 6.043715489222785 L 0.884912675869069 6.04241500046125 L 0.8753876223776382 6.039410114176975 L 0.8664834366485303 6.034881850526581 L 0.8583807760836057 6.029037288745315 L 0.8512159849369478 6.022074460079149 L 0.8451040766799361 6.01416935058259 L 0.8401617335625406 6.005485937034951 L 0.8365127576670516 5.996185543744055 L 0.8342882634463294 5.986446063939463 L 0.833610826575641 5.976479830989888 L 0.8345624993380127 5.966536724482195  z" id="ID_4E5"/>
   </g>
   <g id="ID_0" color="rgb(0,0,0)" stroke="currentColor" fill="none" stroke-width="0.00005039721436807565"/>
  </g>
 </svg>