<?xml version="1.0" encoding="UTF-8" ?>
 <svg viewBox="-2.277682707925382 -5.037213819539874  0.11093475289169064 0.0893593917150941" xmlns="http://www.w3.org/2000/svg" version="1.0" overflow="visible">
  <defs>
   <g id="ID__#42_Model_Space"/>
   <g id="ID__#42_Paper_Space0"/>
   <g id="ID__#42_Paper_Space"/>
  </defs>
  <g id="draft" transform="matrix(1 0 0 -1 0 0)" stroke-width="5.039721436807565E-5">
   <g id="Poliline" color="rgb(0,0,0)" stroke="currentColor" fill="none" stroke-width="0.00005039721436807565">
    <path d="M -2.263082533337865 4.986728254756176 L -2.256959137391923 4.978954538616422 L -2.248132678515823 4.974386842832702 L -2.238310158503514 4.974528978693396 L -2.23009046367092 4.980018832845483 L -2.225481329638612 4.988790961426844 L -2.225408360030899 4.998680218928174 L -2.230688441589694 5.007002712744311 L -2.23979475838957 5.010742956170783 L -2.249562860946626 5.009156190501462 L -2.257553560909488 5.003291212410813 L -2.262167161606053 4.994510750746212  z" id="ID_56E"/>
    <path d="M -2.274082533860337 4.969728253948719 L -2.270186743036152 4.960575063672253 L -2.263278620526306 4.953423004270396 L -2.254311708560961 4.949104676652507 L -2.24443112528533 4.94785442782478 L -2.234642073103293 4.949686024803873 L -2.225939195828289 4.954517774998627 L -2.218925787399762 4.961421302176383 L -2.209006916644006 4.961257701091665 L -2.199443019686877 4.958371317128497 L -2.190147164505717 4.954685812565788 L -2.1806999057609 4.951429030137998 L -2.170972847822698 4.951876910158553 L -2.166747955033691 4.960568909095693 L -2.16879982325752 4.969417943580585 L -2.17795561868673 4.973366742791323 L -2.187574932004313 4.976091599600004 L -2.196900788070714 4.979651855627206 L -2.204595474236128 4.985923049324411 L -2.204732828671731 4.995831080575274 L -2.205801494145728 5.00576652374749 L -2.208373262632109 5.015416871894909 L -2.212888439145841 5.024310632820333 L -2.219740358276759 5.031530366133297 L -2.228646110599731 5.035964854364144 L -2.238518923228077 5.037213819539874 L -2.248246383834749 5.035098068174779 L -2.256926115917912 5.030193797070039 L -2.264191572360916 5.023351354888395 L -2.269968648044858 5.015207792143494 L -2.274223513359798 5.006171769000926 L -2.276857713431126 4.996537196854114 L -2.277682707925382 4.98658636197033 L -2.276443132808284 4.976683905510646  z" id="ID_56F"/>
   </g>
   <g id="ID_0" color="rgb(0,0,0)" stroke="currentColor" fill="none" stroke-width="0.00005039721436807565"/>
  </g>
 </svg>