<?xml version="1.0" encoding="UTF-8" ?>
 <svg viewBox="1.485742989590661 -3.554944187943675  0.5000834435094339 0.45541654665074915" xmlns="http://www.w3.org/2000/svg" version="1.0" overflow="visible">
  <defs>
   <g id="ID__#42_Model_Space"/>
   <g id="ID__#42_Paper_Space0"/>
   <g id="ID__#42_Paper_Space"/>
  </defs>
  <g id="draft" transform="matrix(1 0 0 -1 0 0)" stroke-width="5.039721436807565E-5">
   <g id="Layer_#32_1" color="rgb(255,0,255)" stroke="currentColor" fill="none" stroke-width="0.00005039721436807565"/>
   <g id="Poliline" color="rgb(0,0,0)" stroke="currentColor" fill="none" stroke-width="0.00005039721436807565">
    <path d="M 1.899917664394024 3.355728177287833 L 1.909394142707627 3.358872714256161 L 1.919291192809118 3.360201360755718 L 1.929255575211173 3.359601680600851 L 1.938824919400072 3.356788910004704 L 1.947249461632478 3.351473252333667 L 1.948795564844694 3.342680789358587 L 1.941917666388916 3.335728176337882 " id="ID_6B6"/>
    <path d="M 1.76791765812436 3.461728182322563 L 1.764848671472459 3.452245361361157 L 1.764203431144335 3.442285974872707 L 1.76548102072338 3.432380367273122 L 1.768301653442439 3.422795566308362 L 1.77243829938467 3.413699692978919 L 1.777781663795122 3.405256406595821 L 1.784305717606653 3.397690995017551 L 1.792028401791903 3.391361921998385 L 1.800901805569274 3.386794683247519 L 1.810468074487235 3.383924503841091 L 1.820407633074487 3.383162358160808 L 1.829686759628284 3.386440975511522 L 1.83730833426788 3.392905634580756 L 1.844359830618681 3.399995366891126 L 1.850366674639434 3.407939225016804 L 1.853053587925844 3.417511492014707 L 1.852680428660027 3.4274774166319 L 1.850038463380603 3.437104784576757 L 1.845761823639591 3.44612907556454 L 1.840227284921091 3.454446357589102 L 1.833642595921077 3.461962870438354 L 1.826116177665491 3.468535464520947 L 1.817704916462784 3.473924875296635 L 1.808468485210701 3.477737424987202 L 1.798630121405743 3.47936881854935 L 1.788743771069171 3.478165924851369 L 1.779721517250886 3.473949364110422 L 1.772241402681919 3.467353598774701  z" id="ID_6B7"/>
    <path d="M 1.625917651379722 3.471728182797537 L 1.62581529883678 3.480971882532935 L 1.633576187027207 3.486977549625557 L 1.643438161322375 3.487735500232384 L 1.652358562035161 3.483508646325043 L 1.655917652804646 3.478728183130019 " id="ID_6B8"/>
    <path d="M 1.740249688060202 3.432062165288503 L 1.742109155130199 3.422239207327182 L 1.744750265694569 3.412597140280805 L 1.748202667605004 3.403215527117946 L 1.752522432055386 3.394201252331804 L 1.757784742315458 3.385704330115469 L 1.764068546898005 3.377935105703063 L 1.771423325469929 3.371175186667848 L 1.779813111350339 3.365758646965359 L 1.789060652360174 3.361994034567711 L 1.798850870515177 3.360043181156289 L 1.808837199451039 3.359891206827342 L 1.81867742281238 3.36160118984384 L 1.82814630906566 3.364792440226999 L 1.837133081495866 3.36916501563617 L 1.845546681960948 3.374559360803415 L 1.853265723424102 3.380907162271387 L 1.860094888250013 3.388201121632294 L 1.865704763191716 3.396464212165886 L 1.86954540233419 3.405673338719603 L 1.870655168380412 3.415575888042587 L 1.86950194078877 3.42549664158496 L 1.866950217895892 3.435159873318806 L 1.863419732820282 3.444512401514211 L 1.859059462383414 3.453507524977339 L 1.853826636588222 3.462024227621512 L 1.847797600478499 3.46999787977575 L 1.841041533349409 3.477365494124441 L 1.833603513390688 3.484042905916551 L 1.825513710713902 3.489913037774661 L 1.816802347917125 3.494810219763266 L 1.807520270361315 3.49850682087651 L 1.797777981173942 3.500707715376876 L 1.787800407480095 3.501083062604564 L 1.777967076323566 3.499378606500346 L 1.768739492455594 3.495577159416608 L 1.760594992250946 3.489812084172072 L 1.753821800123791 3.482475818573046 L 1.748450926696125 3.474053655123093 L 1.744438815825874 3.464903216999541 L 1.741730790175513 3.455284324581388 L 1.740281646364184 3.445396748482552 L 1.740056604434977 3.435405827636733  z" id="ID_6B9"/>
    <path d="M 1.921917665438968 3.402228179496464 L 1.921490454560483 3.412206626000465 L 1.919573964780031 3.422014068238334 L 1.916554194903122 3.431542841211818 L 1.912700474688994 3.440767669964635 L 1.908195804961609 3.449693723329559 L 1.903165573450058 3.458335105343294 L 1.897697140886681 3.466706508380038 L 1.891852327228196 3.474819941813361 L 1.885675169792834 3.482683577681163 L 1.879196802139325 3.49030122019462 L 1.872438415805049 3.497671962367125 L 1.86541345375813 3.504789168464235 L 1.858128193135373 3.511639839455726 L 1.850582362338029 3.518202426416511 L 1.842768835044919 3.524443683263912 L 1.834673300405897 3.530312716573128 L 1.826270924477799 3.535732184629502 L 1.81752580107045 3.540577481327924 L 1.808390967135784 3.544635433045273 L 1.798881029699187 3.547718031906464 L 1.789177166750801 3.550127583857609 L 1.779352332774865 3.551985932981093 L 1.769448142282365 3.553362115166589 L 1.759492654740512 3.554299724772185 L 1.749506718349127 3.55482376343795 L 1.739507681561113 3.554944187943675 L 1.729512006203663 3.55465722077484 L 1.719537667450728 3.553944791369834 L 1.709607100091843 3.552771936150953 L 1.699751843842896 3.551081365838344 L 1.6900245172548 3.548784338632064 L 1.680500245460326 3.545737895356449 L 1.67134938851563 3.541719975459145 L 1.662894432341296 3.536401789667907 L 1.656166682870705 3.529120684231275 L 1.654917652757148 3.526728185409897 " id="ID_6BA"/>
    <path d="M 1.595917649954799 3.460728182275065 L 1.592015806428833 3.469005466135419 L 1.590003936036202 3.478787600137362 L 1.588917649622317 3.488728183604994 L 1.590380129561044 3.498599398626462 L 1.594057795035715 3.507873900386371 L 1.599778371681964 3.516049082333012 L 1.60718606981223 3.522736186978757 L 1.615861298044888 3.527671590771017 L 1.625382248084232 3.530667354047857 L 1.635321183750477 3.53157617921197 L 1.645219518965973 3.53030733633898 L 1.654595093983974 3.526889572406867 L 1.654917652757148 3.526728185409897 L 1.663192547995578 3.521125934691822 L 1.670451330924013 3.514270072188008 L 1.6739176536596 3.50972818460244 " id="ID_6BB"/>
    <path d="M 1.906917664726506 3.401728179472716 L 1.911998387196489 3.401038862088313 L 1.921917665438968 3.402228179496464 L 1.931760642586805 3.400559572756135 L 1.941260763988094 3.397454375252678 L 1.950402334996394 3.393408575239973 L 1.959139555617544 3.388550160437187 L 1.967362595109338 3.382866144278525 L 1.974847932399382 3.376246724353805 L 1.981139468296713 3.368497696671852 L 1.985297521280655 3.35945178053247 L 1.985826433100095 3.349542321060578 L 1.982176976244945 3.340304378290797 L 1.975738074946832 3.332691912123507 L 1.96787987868926 3.326525697469952 L 1.959261739405217 3.32146730120233 L 1.949948560630686 3.317857856900182 L 1.940219076639291 3.31556621575879 L 1.930439782664093 3.313490397965352 L 1.921451350591559 3.309258299715427 L 1.9143801823138 3.302236457178066 L 1.909165244905851 3.293720469512095 L 1.905050140490399 3.284608809238406 L 1.901153872722065 3.275399383762522 L 1.896734212524067 3.266433387097556 L 1.891219009052236 3.258104313037161 L 1.884784138889988 3.25045168926427 L 1.878200494753286 3.242925326297015 L 1.872050190145757 3.235045080293742 L 1.866863850445837 3.226504555217998 L 1.863656545111394 3.217066999027403 L 1.85933901628701 3.208090333776448 L 1.853882012874456 3.199710955703807 L 1.847937980255236 3.191671630561618 L 1.841623811647864 3.183919061544607 L 1.835016368237572 3.176413803239855 L 1.828168225643492 3.169127190326889 L 1.821113756800988 3.162037001021403 L 1.813879710244541 3.155133017474287 L 1.806477796104521 3.148409575471283 L 1.798897004619274 3.141888260615667 L 1.790880952692991 3.135914897244933 L 1.782425927869683 3.130578758254966 L 1.773651893363543 3.125783839219941 L 1.764649559036286 3.121431386145559 L 1.755488872736337 3.117423416380022 L 1.746224974423664 3.113659758366718 L 1.736854416878705 3.110172734856462 L 1.727315911762466 3.107174680601678 L 1.717635903807618 3.104669915821498 L 1.707841313796874 3.102657374478376 L 1.697958166177445 3.101136528559495 L 1.688011767576159 3.100107428272863 L 1.678026475464116 3.099570706465478 L 1.668027436039778 3.099527641292926 L 1.65803872173197 3.099979983690053 L 1.648085115998585 3.100929926617396 L 1.63819187914896 3.102379901630683 L 1.628385412963263 3.104332249223588 L 1.618693321425165 3.106788832997308 L 1.609143282359524 3.109750994537781 L 1.599764854865724 3.113218675662272 L 1.590588503755139 3.117190091683703 L 1.581645402278515 3.12166121723327 L 1.57296614638295 3.126625850901271 L 1.564582237899357 3.132074168724555 L 1.55652390535597 3.137993178825825 L 1.548819735247988 3.144366436180263 L 1.541496406030399 3.151173634275874 L 1.534516647578672 3.158333705596483 L 1.527879261327342 3.165811276860447 L 1.521680442636728 3.173656039172547 L 1.516036311818945 3.181908113259197 L 1.511066271070956 3.190581991136383 L 1.506856587012213 3.199648909626349 L 1.503412872951328 3.20903388649318 L 1.50063537724561 3.218637944768691 L 1.498343678958864 3.228370040677209 L 1.496332209003857 3.238164108093867 L 1.494417261735165 3.247978479569143 L 1.492459148620984 3.257784466480959 L 1.48984527901525 3.267423998956344 L 1.486667465493105 3.276900384576398 L 1.485742989590661 3.286831745493364 L 1.486396912480497 3.296806911448163 L 1.487334048883725 3.306762227094367 L 1.48787464433098 3.316747501496783 L 1.488573645322944 3.326722848625921 L 1.489517159256752 3.33667783041856 L 1.490789128150497 3.346595971087971 L 1.492477039075713 3.356451617645479 L 1.494670068270384 3.366206844026251 L 1.497455035981799 3.375809388221671 L 1.500909499855547 3.385191495980581 L 1.505114640557637 3.394261245371783 L 1.510072762478698 3.402943650673304 L 1.51545412630995 3.411370203885548 L 1.521064864611065 3.419647679821819 L 1.526785834139002 3.427849683827984 L 1.532522409323648 3.436040905929809 L 1.538172054644653 3.444292133793396 L 1.543834369731083 3.45253325781354 L 1.550187984615813 3.460249814285452 L 1.55737123567356 3.467198685969004 L 1.565243522015338 3.473359681043314 L 1.573513263155973 3.478976939768953 L 1.581947393089441 3.484348478091414 L 1.588917649622317 3.488728183604994 " id="ID_6BC"/>
   </g>
   <g id="ID_0" color="rgb(0,0,0)" stroke="currentColor" fill="none" stroke-width="0.00005039721436807565"/>
  </g>
 </svg>