<?xml version="1.0" encoding="UTF-8" ?>
 <svg viewBox="-2.137527960697218 -2.753743748501728  0.21979731028959626 0.19951737551012805" xmlns="http://www.w3.org/2000/svg" version="1.0" overflow="visible">
  <defs>
   <g id="ID__#42_Model_Space"/>
   <g id="ID__#42_Paper_Space0"/>
   <g id="ID__#42_Paper_Space"/>
  </defs>
  <g id="draft" transform="matrix(1 0 0 -1 0 0)" stroke-width="5.039721436807565E-5">
   <g id="Layer_#32_1" color="rgb(255,0,255)" stroke="currentColor" fill="none" stroke-width="0.00005039721436807565"/>
   <g id="Poliline" color="rgb(0,0,0)" stroke="currentColor" fill="none" stroke-width="0.00005039721436807565">
    <path d="M -2.027511582989808 2.753743748501728 L -2.041495085642821 2.739080349824533 L -2.050641232470487 2.735105323109936 L -2.059818616219376 2.731235211788366 L -2.06677329507749 2.72415800204293 L -2.070844991963574 2.71505684517615 L -2.073367874089544 2.70538440964234 L -2.075711694771365 2.695663571356893 L -2.078881042358032 2.686186140714704 L -2.082147549360303 2.676804052928176 L -2.088058588793693 2.668757943983012 L -2.094504770140354 2.661115803184729 L -2.099566827475196 2.652526044643165 L -2.102009035451098 2.64285943730044 L -2.10286421382397 2.632897967654464 L -2.105500606956159 2.623305028387671 L -2.110389515131684 2.614598338456383 L -2.116545018219407 2.606724063938019 L -2.123352413365016 2.599400956413727 L -2.130409364601618 2.592316549635812 L -2.137490974743336 2.585256675213358 L -2.137527960697218 2.576724272395422 L -2.13086452870226 2.569277570619853 L -2.123374408281465 2.562675805571698 L -2.114704592217394 2.557735797741237 L -2.105138273374533 2.554904978452364 L -2.095179590424957 2.5542263729916 L -2.085251202641255 2.555340361044269 L -2.075555965508048 2.557768455307749 L -2.066131933643638 2.561105354261382 L -2.056945204400472 2.565051892799587 L -2.047935795578303 2.569389236114249 L -2.03903496891423 2.573947569875263 L -2.030171592249858 2.57857876627265 L -2.021269036582211 2.58313372573794 L -2.012241969246304 2.587434728786416 L -2.003011922002244 2.591280188206761 L -1.993680391199423 2.59487460565665 L -1.984344251129284 2.598457152766926 L -1.975092194585938 2.602250306764231 L -1.96604319419374 2.606502337425327 L -1.957367254014089 2.611467154668172 L -1.949291627265668 2.617354099671709 L -1.941986321586264 2.624174161177139 L -1.935531620416809 2.631804475876691 L -1.930001628156423 2.640129599897758 L -1.925455848383541 2.649030593286854 L -1.921938372969325 2.658385943261457 L -1.919476222613459 2.668072983127263 L -1.918077611612664 2.677969782549428 L -1.917730650407622 2.68795921410714 L -1.918403775980335 2.697932340880234 L -1.919082516998741 2.702728146271997 " id="ID_7F2"/>
   </g>
   <g id="ID_0" color="rgb(0,0,0)" stroke="currentColor" fill="none" stroke-width="0.00005039721436807565"/>
  </g>
 </svg>