<?xml version="1.0" encoding="UTF-8" ?>
 <svg viewBox="0.872793710542706 -4.275908122533268  0.40617923930979305 0.419149930645736" xmlns="http://www.w3.org/2000/svg" version="1.0" overflow="visible">
  <defs>
   <g id="ID__#42_Model_Space"/>
   <g id="ID__#42_Paper_Space0"/>
   <g id="ID__#42_Paper_Space"/>
  </defs>
  <g id="draft" transform="matrix(1 0 0 -1 0 0)" stroke-width="5.039721436807565E-5">
   <g id="Poliline" color="rgb(0,0,0)" stroke="currentColor" fill="none" stroke-width="0.00005039721436807565">
    <path d="M 1.209917631620783 4.23572821908559 L 1.217655020914507 4.241767795615144 L 1.227479039552159 4.241469867417919 L 1.23582506357883 4.236127637346186 L 1.240452583475183 4.227440404632096 L 1.237408733218668 4.218302787527454 L 1.228708022580232 4.216279822675781 L 1.220077834854746 4.221268471147356 L 1.212587816180073 4.22788025756432  z" id="ID_516"/>
    <path d="M 1.051917624116185 4.201728217470677 L 1.047989150840189 4.21088150548954 L 1.04742756925598 4.220803938505103 L 1.050708520367407 4.230183515099756 L 1.05711280916975 4.237803402880865 L 1.065508513005506 4.243177102051527 L 1.074994108695262 4.24626767673474 L 1.084932564262692 4.247189384927199 L 1.094859481535319 4.246120063780351 L 1.104442686094218 4.243303739050418 L 1.113595335666208 4.239286470057423 L 1.122339835654118 4.234441296023314 L 1.13063649444426 4.228864813928195 L 1.138310860352521 4.22246335083629 L 1.144662324551211 4.214782273505518 L 1.14683907373638 4.205135440253803 L 1.145749949452642 4.195217088273393 L 1.141705580715155 4.186131158386283 L 1.134721360635565 4.179047395931201 L 1.125860822610357 4.17448322732392 L 1.11615265417449 4.172161352074454 L 1.106177125633326 4.171638100359796 L 1.096230902787405 4.172596452183745 L 1.086498626943187 4.174864369827561 L 1.077146927771959 4.178385600598124 L 1.068392088965598 4.183198241804996 L 1.060578221667642 4.18941483791225 L 1.054287049494683 4.197155452689893  z" id="ID_517"/>
    <path d="M 1.035917623356226 4.201728217470677 L 1.035499882945564 4.211712230330453 L 1.036580386870622 4.221641523096065 L 1.039523490332012 4.231179042550056 L 1.044552720236536 4.239793670343585 L 1.051533421033514 4.246918599073499 L 1.059978566804842 4.252236010683033 L 1.069320898375045 4.255762576265491 L 1.079122559346939 4.257694172547429 L 1.089099951217143 4.258249526956102 L 1.099073393268384 4.257603995801218 L 1.108918122892959 4.25587716335008 L 1.118530431490023 4.253137651664639 L 1.127804205273511 4.249410045435316 L 1.136608739436835 4.244681259071244 L 1.14476452947357 4.23890790481008 L 1.152012017254206 4.232032948827592 L 1.1579807582395 4.224028232325341 L 1.162197080132741 4.214983756805342 L 1.164212744161555 4.205214152090773 L 1.163854476014088 4.195243932648521 L 1.160838053283725 4.185754704837709 L 1.155600000970161 4.177254614727699 L 1.148985226916694 4.169770512459285 L 1.141221540252821 4.163490460566061 L 1.132425913406659 4.158764502438055 L 1.122971481331842 4.155549416164447 L 1.113120544519738 4.153915143253513 L 1.103132800829084 4.153863239401562 L 1.093246786459754 4.155308693011608 L 1.083657283227724 4.158117555842078 L 1.074510468835732 4.162143049342841 L 1.06591793622182 4.167247040728975 L 1.057970978616919 4.173308272212134 L 1.050753028395669 4.180221846847361 L 1.044347936844654 4.1878945713866 L 1.038844949407374 4.196237775706014  z" id="ID_518"/>
    <path d="M 0.8769176158041317 4.026728209158623 L 0.8788722559932224 4.016921224131779 L 0.8810208585263046 4.007154996045859 L 0.8834183800045707 3.997447007773283 L 0.8861220621570193 3.987819976841084 L 0.8891902564447802 3.978303084557094 L 0.8926803837242411 3.968933005947651 L 0.8966459584933401 3.959754190204401 L 0.9011323402787869 3.950818821522256 L 0.9061724817335807 3.942184037337723 L 0.9117826067713821 3.933908527585993 L 0.9179596385594921 3.926047328118862 L 0.9246811581662085 3.918646388851474 L 0.9319081944818448 3.911738206984898 L 0.9395901677127245 3.905339612748324 L 0.9476706321721515 3.899452053377228 L 0.9560924778912349 3.894063873372047 L 0.9648008942044503 3.88915196756878 L 0.9736681732755494 3.884529451847773 L 0.9826327544528989 3.880098628319478 L 0.9917014389960563 3.875885074102901 L 1.000881788024366 3.871920846384641 L 1.010181932915329 3.868246690281656 L 1.01960994723521 3.864915281916301 L 1.029173346045759 3.861995718804086 L 1.038876004339206 3.859580758364328 L 1.048713509978901 3.85779696873309 L 1.058662164170385 3.856819369908514 L 1.068659062484103 3.856758191887532 L 1.078632451514534 3.85746003498302 L 1.088542393749525 3.858789591398641 L 1.098369348907836 3.860637739824493 L 1.108105617815942 3.862916502116426 L 1.117751245221469 3.865554047811484 L 1.127310582063373 3.868489706545755 L 1.136791671152866 3.871669345401953 L 1.146167861087651 3.875142755777137 L 1.155342728671725 3.879117363773934 L 1.164299273343543 3.88356217924446 L 1.173027286227434 3.888441224034302 L 1.181516974806706 3.893724245198885 L 1.18975903406164 3.899386059217468 L 1.197743628478288 3.905405356224839 L 1.205460502735634 3.911764296936722 L 1.212897171403174 3.918446550212083 L 1.220043081099967 3.925440715436119 L 1.226883355113512 3.932734431222778 L 1.233402006205682 3.940316711973693 L 1.23958254742301 3.948178658176074 L 1.245404303683967 3.956308467030432 L 1.250846986717723 3.964696743808531 L 1.255887865110693 3.973332466195936 L 1.260502359780612 3.982202850477742 L 1.264664930053113 3.991293975975004 L 1.26834890788091 4.000589296200962 L 1.271527237590642 4.010069398630275 L 1.274173210184977 4.019711411576935 L 1.276261613768276 4.02948940982071 L 1.277769597096287 4.039373375342078 L 1.278678120221464 4.049330627540122 L 1.278972949852499 4.059324726102529 L 1.278664852948456 4.069318823064156 L 1.277843676002412 4.079284266800462 L 1.276570738777806 4.089202322407489 L 1.274896809974642 4.099060757518568 L 1.272866388660537 4.1088519603129 L 1.270518220429202 4.118572030438301 L 1.267886171330673 4.12821903033077 L 1.26499979976332 4.137792908005419 L 1.261884916817822 4.147295198939948 L 1.258564493716983 4.156727699610318 L 1.255058966744535 4.166093022079362 L 1.251386768422206 4.175394290480012 L 1.246873400392845 4.184278952283735 L 1.245853688022532 4.193165365567654 L 1.252136099684473 4.200908454650686 L 1.259382546164799 4.207797914097024 L 1.265320442783093 4.215786215007319 L 1.267958355798339 4.225386232221117 L 1.267962519930795 4.235363672087052 L 1.265505366858358 4.24502995901523 L 1.260496122136556 4.253639203765541 L 1.253092776521069 4.260301008573922 L 1.244108249854303 4.264629690310435 L 1.234375688463486 4.266860828957065 L 1.224400429925763 4.267411203905139 L 1.214437081777394 4.266621567318868 L 1.204625242058598 4.264719322775432 L 1.195052833607947 4.261840390877406 L 1.185801700751945 4.258053077338876 L 1.176970026868882 4.253371739302624 L 1.167960935637359 4.257530495065102 L 1.158755003837065 4.26143320609429 L 1.149374687557065 4.264896245357732 L 1.139839053632597 4.267904844470976 L 1.130168722945263 4.270446665013746 L 1.120385532789893 4.272511984306163 L 1.110512890084996 4.274093691580628 L 1.100574437810603 4.275187547323067 L 1.090594093960071 4.27579201342348 L 1.080596000160242 4.275908122533268 L 1.070603933818603 4.275539328927525 L 1.060640969625722 4.274691247112629 L 1.050729270553285 4.273371345537276 L 1.040891650183507 4.271588974351772 L 1.031145081172295 4.269353831070656 L 1.021510462002956 4.266677476429714 L 1.012003732018458 4.263571163437731 L 1.002645217556634 4.260048377958842 L 0.9934491879800253 4.256121241547504 L 0.9844321468955516 4.251803190109958 L 0.9756062049276117 4.24710589082748 L 0.9669834391625834 4.242040763564247 L 0.9585796960434037 4.236621528484878 L 0.9504074856861333 4.230860121130985 L 0.9424791454204672 4.224768248104071 L 0.9348066025731336 4.218356466858963 L 0.9275904797173639 4.211437678485934 L 0.9208757295029936 4.204027420970739 L 0.9146115035538571 4.196234469640298 L 0.90880393218577 4.188094621314917 L 0.9032590147517716 4.179772984236747 L 0.897958741346116 4.171293530269526 L 0.8929299255125523 4.162650464703668 L 0.8882180974661525 4.153830869700902 L 0.883895966577076 4.144814186434091 L 0.8800818144135638 4.135571955491395 L 0.8769790159362962 4.12606926939245 L 0.874805993224748 4.116312514088722 L 0.8734700210324284 4.10640482824043 L 0.8728463888845956 4.096426169477631 L 0.872793710542706 4.086427354359244 L 0.8731684020710748 4.076434952678937 L 0.8738329701484328 4.066457223448725 L 0.8746586508832701 4.056491363891067 L 0.8755248074807289 4.046528902755284 L 0.876316970335587 4.036560358968412  z" id="ID_519"/>
   </g>
   <g id="ID_0" color="rgb(0,0,0)" stroke="currentColor" fill="none" stroke-width="0.00005039721436807565"/>
  </g>
 </svg>