<?xml version="1.0" encoding="UTF-8" ?>
 <svg viewBox="-1.316759596569441 -3.705201526505355  0.25826883226672703 0.279057692635412" xmlns="http://www.w3.org/2000/svg" version="1.0" overflow="visible">
  <defs>
   <g id="ID__#42_Model_Space"/>
   <g id="ID__#42_Paper_Space0"/>
   <g id="ID__#42_Paper_Space"/>
  </defs>
  <g id="draft" transform="matrix(1 0 0 -1 0 0)" stroke-width="5.039721436807565E-5">
   <g id="Layer_#32_1" color="rgb(255,0,255)" stroke="currentColor" fill="none" stroke-width="0.00005039721436807565"/>
   <g id="Poliline" color="rgb(0,0,0)" stroke="currentColor" fill="none" stroke-width="0.00005039721436807565">
    <path d="M -1.235082484510485 3.660728191774555 L -1.244912004697344 3.658951967528114 L -1.254378777464141 3.655753376469236 L -1.263349489814518 3.651350035363766 L -1.27164492995625 3.645780453915001 L -1.278959082537372 3.638979625545507 L -1.28475135804941 3.630855541089957 L -1.285582486909106 3.629228190278386 " id="ID_605"/>
    <path d="M -1.285582486909106 3.629228190278384 L -1.293728171388718 3.630579358653186 L -1.301469154959841 3.636854254498082 L -1.308020767368633 3.644033304502436 L -1.308129278956774 3.653973797626518 L -1.304787493408316 3.663352437222121 L -1.298985381219759 3.671467150132979 L -1.291624066125072 3.678214823556999 L -1.28324195845179 3.683650801776154 L -1.274143562550113 3.687779342325159 L -1.2645264266772 3.690479966657971 L -1.254589051783945 3.691436828058133 L -1.244721996263097 3.690031545599918 L -1.235924694327795 3.685417702887944 L -1.229507905136172 3.677838502591733 L -1.228642173259671 3.668182462046672 L -1.235082484510485 3.660728191774555 L -1.239755358700367 3.651907713556527 L -1.245987179515289 3.644102417191595 L -1.253435151905935 3.637447085658736 L -1.261947662430114 3.632228909615163 L -1.271376534800548 3.62897342958902 L -1.281321260671581 3.62844153579655  z" id="ID_606"/>
    <path d="M -1.304582487811558 3.616228189660919 L -1.302042719413286 3.606590437109749 L -1.297520286703446 3.597680628651618 L -1.292412907629794 3.5890838054826 L -1.289082487075347 3.582728188069753 L -1.280366030688437 3.580699973880435 L -1.270815721991235 3.577742340537252 L -1.2609194169376 3.576476727361203 L -1.250977503907305 3.577382620815685 L -1.241367715284022 3.580105141705539 L -1.232300515573374 3.584301273053078 L -1.223897502442853 3.589709256315291 L -1.216255289902095 3.596148564774944 L -1.209486226343382 3.603499985242493 L -1.203750260537121 3.611681045303148 L -1.199284745389855 3.620616850835109 L -1.196433857934308 3.630186005032955 L -1.195637402687998 3.640132161388711 L -1.197262450385884 3.649973652763017 L -1.200782187573828 3.659320756811723 L -1.205804381030571 3.667955579399244 L -1.212082483418043 3.675728192487017 " id="ID_607"/>
    <path d="M -1.212082483418043 3.675728192487017 L -1.211883264658581 3.679528973917545 " id="ID_608"/>
    <path d="M -1.212082483418043 3.675728192487015 L -1.21448861686623 3.670254107960074 L -1.218350754609125 3.661029975441554 L -1.222386345217159 3.651881385847318 L -1.227026611348797 3.643027151880904 L -1.232631942475501 3.634755109187031 L -1.239378627093553 3.627388209678963 L -1.247108405187113 3.621057964760687 L -1.255755429825585 3.616063080357815 L -1.265199988621299 3.612829747392368 L -1.275098947188833 3.611522395205593 L -1.285081332317986 3.611923210365008 L -1.294930978652308 3.613620833498066 L -1.304582487811558 3.616228189660919 L -1.310145901189854 3.62452479353803 L -1.314208544933606 3.633647101252163 L -1.316471546607671 3.643371093592371 L -1.316759596569441 3.653350010499661 L -1.315071054118775 3.663190132323565 L -1.311548938179639 3.672533879068536 L -1.306408723319904 3.681096489877818 L -1.299879682591334 3.688654927490636 L -1.292181660819541 3.695019208096203 L -1.283530111286336 3.700009981715274 L -1.274155544391627 3.703453841916422 L -1.264323303027552 3.705201526505355 L -1.254337308546933 3.705166534924581 L -1.244516172345027 3.703359110663502 L -1.235200177479907 3.699753863303257 L -1.22649545755978 3.694850885527142 L -1.218714566162033 3.688593310034951 L -1.212553941960688 3.680755289352102 L -1.211883264658581 3.679528973917545 " id="ID_609"/>
    <path d="M -1.289082487075347 3.582728188069754 L -1.29074769905603 3.572871075439104 L -1.291543307225095 3.56290598319909 L -1.291472744741985 3.552909357082365 L -1.290553386464334 3.542954735784125 L -1.288813458709519 3.533110007112565 L -1.286288746045269 3.523436693490102 L -1.283019269015004 3.513988901313746 L -1.279046722491949 3.5048143771017 L -1.274412540867557 3.495955499711135 L -1.269156675012008 3.487450615901112 L -1.263316976134477 3.479335421099259 L -1.256929072560625 3.471644263798268 L -1.250026634316941 3.464411302035173 L -1.242641944665827 3.457671469439912 L -1.234806721712655 3.451461214921776 L -1.226553149951086 3.445818971391897 L -1.217915085413295 3.440785289841027 L -1.208931635356861 3.436403547237048 L -1.199637259499625 3.432714155866982 L -1.190085552488399 3.429763084911492 L -1.163094735724789 3.426143833869943 " id="ID_60A"/>
    <path d="M -1.211883264658581 3.679528973917545 L -1.203161183590254 3.684254230716987 L -1.193344506825577 3.686064763004315 L -1.18335668024127 3.686490156763369 L -1.173357117426619 3.68640173157949 L -1.163357299590318 3.686356580506185 L -1.153373921813629 3.686877948713128 L -1.143547691998418 3.688664008789125 L -1.133956767203984 3.691489786150004 L -1.124212943372587 3.693737883283692 L -1.114369233421462 3.695498600405633 L -1.104447950938372 3.696741110387634 L -1.094467846296077 3.697348092070622 L -1.084477193052927 3.697084727013807 L -1.074619387056415 3.695483224983933 L -1.065469566568248 3.691567395490343 L -1.059157072017844 3.684009257895917 L -1.058490764302714 3.674320382437505 L -1.065229408617372 3.666965379368795 L -1.073206335803547 3.660945206914222 L -1.08154611656182 3.655427324705044 L -1.089562001169818 3.649458149786003 L -1.095572815926937 3.642060354093596 L -1.092186931766943 3.632652235531407 L -1.089173469486012 3.62311728742366 L -1.086564227681859 3.613464695663671 L -1.084391358514357 3.603704971205791 L -1.082687533586871 3.593853560776267 L -1.081484137678861 3.583926169237759 L -1.080811480367334 3.573950135108052 L -1.080695520470439 3.563951353174541 L -1.081157151145579 3.553963485516357 L -1.082210205256387 3.544022194397058 L -1.083861240879216 3.534160194773663 L -1.086107268946309 3.524417224711438 L -1.08893699853734 3.514827655493004 L -1.092331134028689 3.505422798826169 L -1.096263070114936 3.496230670165754 L -1.100701982801079 3.487271620513734 L -1.105613030539656 3.478561984870042 L -1.111117745301035 3.47022112845471 L -1.117356540045804 3.462406592161503 L -1.122877055307526 3.454086992056335 L -1.125082479285765 3.448728181705094 " id="ID_60B"/>
   </g>
   <g id="ID_0" color="rgb(0,0,0)" stroke="currentColor" fill="none" stroke-width="0.00005039721436807565"/>
  </g>
 </svg>