<?xml version="1.0" encoding="UTF-8" ?>
 <svg viewBox="1.660430461621639 -5.469421553333055  0.349769939483521 0.39444584980242947" xmlns="http://www.w3.org/2000/svg" version="1.0" overflow="visible">
  <defs>
   <g id="ID__#42_Model_Space"/>
   <g id="ID__#42_Paper_Space0"/>
   <g id="ID__#42_Paper_Space"/>
  </defs>
  <g id="draft" transform="matrix(1 0 0 -1 0 0)" stroke-width="5.039721436807565E-5">
   <g id="Poliline" color="rgb(0,0,0)" stroke="currentColor" fill="none" stroke-width="0.00005039721436807565">
    <path d="M 1.701917654989529 5.421728275417567 L 1.698206669816743 5.412491492009407 L 1.70317897980364 5.404999388626718 L 1.71266143239084 5.402123901418966 L 1.722544084521712 5.403284674766937 L 1.731746868642077 5.407141159653406 L 1.740062761155084 5.412675901219797 L 1.747462796489565 5.419390381442256 L 1.753836890261088 5.427084091442547 L 1.758797314722569 5.435746772449122 L 1.755231426272234 5.443906644540449 L 1.746555977377073 5.448675089459483 L 1.736635009636983 5.449057773805345 L 1.727113808922683 5.446102838581797 L 1.718505313990061 5.441045361083552 L 1.710949815577643 5.434513184666885 L 1.704687166885005 5.426737158534328  z" id="ID_5AB"/>
    <path d="M 1.707249686492787 5.3697282729477 L 1.711707234418433 5.370311843322158 L 1.721476529760463 5.372425060322559 L 1.730981512958575 5.375520285125507 L 1.740160452110557 5.37948370865914 L 1.748946883822322 5.384248623900028 L 1.757269212057225 5.389786452563685 L 1.765026894837799 5.396090039435463 L 1.772084967130811 5.40316678467481 L 1.778259987365325 5.411023908567083 L 1.783310811963533 5.419644174813771 L 1.78694691482171 5.428947044368154 L 1.788878363828342 5.438743875590648 L 1.788917659121807 5.448728276699998 L 1.78260975817889 5.45647220481004 L 1.774944705129595 5.462864668505631 L 1.766021043781923 5.467321229722215 L 1.756270912871682 5.469421553333055 L 1.746295433454907 5.469159643885714 L 1.736577966310393 5.466863515328642 L 1.727392156383359 5.462938003349722 L 1.718873921410573 5.457715116477306 L 1.71110764609852 5.451426458989228 L 1.704183520475645 5.444220791855594 L 1.698239486549995 5.436188685658385 L 1.693492688869485 5.427397672720121 L 1.689940472542329 5.418059021648844 L 1.688141813715791 5.408244400009686 L 1.688985556148502 5.398316669685569 L 1.692551945784738 5.389002988004307 L 1.697946040714905 5.38059538835989 L 1.704322935789763 5.372897473198094  z" id="ID_5AC"/>
    <path d="M 1.788917659121807 5.448728276699998 L 1.798823430485192 5.45008294577795 L 1.808800142681111 5.450732270744655 L 1.8187975463607 5.450654628012645 L 1.828762079681434 5.449841696116235 L 1.838640249883956 5.44829928747753 L 1.848381041688587 5.446046874717642 L 1.857939601607133 5.443115520809215 L 1.867278455487444 5.43954511463349 L 1.876368395409076 5.435381180145288 L 1.88518832465961 5.4306718699053 L 1.893724445251343 5.425465465155435 L 1.901969080930722 5.419808524203445 L 1.9099193845902 5.413744666951726 L 1.917576098509462 5.407313896693019 L 1.924942461522464 5.400552327470871 L 1.93202330422484 5.393492184042475 L 1.938824313589395 5.386161984831404 L 1.945351464531317 5.378586812125979 L 1.95161057577161 5.370788626376131 L 1.957606961643237 5.362786587326461 L 1.96334515087452 5.354597360119525 L 1.968828644437956 5.346235395942779 L 1.974059687711891 5.337713181663509 L 1.979039032135332 5.32904145740045 L 1.983765659823117 5.320229402998882 L 1.988236438967883 5.311284796179168 L 1.992445667029159 5.302214146568781 L 1.99638443908505 5.293022812087905 L 1.999994278721972 5.283698841267643 L 2.00235698790377 5.273987140284122 L 2.004040381300304 5.264130385721571 L 2.005406367698372 5.254223302886495 L 2.006573737777324 5.24429106841604 L 2.007597955797911 5.234343248565555 L 2.008508414728032 5.22438499320178 L 2.009320092897705 5.21441821951543 L 2.009938254582505 5.204437949112995 L 2.01020040110516 5.194442052400763 L 2.010066669875891 5.18444374780178 L 2.009490869740962 5.174461622597723 L 2.008418376832159 5.164520973321731 L 2.006785429719687 5.154657668669357 L 2.004519076592973 5.144921397128472 L 2.001538376008165 5.135379459562098 L 1.997758319827455 5.126121609985045 L 1.993105386291341 5.117276023094959 L 1.987524191902881 5.108986055357133 L 1.981002971520688 5.101414354118388 L 1.9735883529682 5.094715539922863 L 1.965387216285622 5.089005986339678 L 1.956549233193891 5.084340701761432 L 1.947237292008244 5.080709036022461 L 1.937601473277029 5.078049164579453 L 1.927763839319514 5.076269826142692 L 1.917815989200346 5.075270895631028 L 1.907822083205314 5.074975703530625 L 1.897829515031713 5.07532392131093 L 1.887874835985814 5.076263050641211 L 1.877986715749131 5.077748385499849 L 1.868190764245693 5.079741908808348 L 1.858501251036515 5.08221376481667 L 1.84893662778314 5.085138760396352 L 1.839517916278802 5.088495028581505 L 1.830248579762366 5.092246356159226 L 1.82108531125191 5.096250346131983 L 1.812033826427088 5.100500850045581 L 1.803112112801541 5.105017297756653 L 1.794339027592891 5.10981600611955 L 1.785733740297807 5.114909394188546 L 1.777315097051959 5.120305316500845 L 1.769100398794655 5.126006987987755 L 1.761104866924068 5.132012836061723 L 1.753341941499775 5.138315987720316 L 1.745821084280608 5.14490610000641 L 1.738548605457591 5.151769334851435 L 1.731527402921803 5.15888941340952 L 1.724757036218536 5.166248646027585 L 1.718234492322589 5.173828313121646 L 1.711731134442173 5.181423612119441 L 1.70519402883252 5.188991900577908 L 1.698968463446663 5.196815899880629 L 1.690520303014214 5.200932161948726 L 1.681935840526545 5.205965431337923 L 1.67515923400039 5.213284563785981 L 1.669993702461462 5.221830787095481 L 1.666075805701319 5.231026022481431 L 1.663184292584251 5.240594093729037 L 1.661288501168096 5.250408224330534 L 1.660430461621639 5.260366138323259 L 1.660703472817577 5.270355799076527 L 1.662247348744786 5.28022523016124 L 1.665233957287567 5.289756881094107 L 1.669817701131486 5.298627788645884 L 1.676044616185111 5.306433848082505 L 1.683746059363391 5.312784267434899 L 1.690267992027982 5.319420789968439 L 1.692639357726084 5.329135041709302 L 1.694956799305424 5.338862488179308 L 1.69762115756815 5.348499065800092 L 1.701022152950677 5.357895502921514 L 1.705472568314815 5.366842679977657 L 1.707249686492787 5.369728272947701 " id="ID_5AD"/>
   </g>
   <g id="ID_0" color="rgb(0,0,0)" stroke="currentColor" fill="none" stroke-width="0.00005039721436807565"/>
  </g>
 </svg>