<?xml version="1.0" encoding="UTF-8" ?>
 <svg viewBox="0.3660757482369386 -4.255793433496558  0.26384502254394165 0.34438464512939726" xmlns="http://www.w3.org/2000/svg" version="1.0" overflow="visible">
  <defs>
   <g id="ID__#42_Model_Space"/>
   <g id="ID__#42_Paper_Space0"/>
   <g id="ID__#42_Paper_Space"/>
  </defs>
  <g id="draft" transform="matrix(1 0 0 -1 0 0)" stroke-width="5.039721436807565E-5">
   <g id="Poliline" color="rgb(0,0,0)" stroke="currentColor" fill="none" stroke-width="0.00005039721436807565">
    <path d="M 0.3679175916279291 4.013728208541156 L 0.3660757482369386 4.003927820289863 L 0.366206748473707 3.993938777617715 L 0.367707005535042 3.984058216685184 L 0.3703619462597398 3.974422408606534 L 0.3741022079628795 3.965153871359555 L 0.3789235486679887 3.956400047184269 L 0.3848436500352497 3.948351226765664 L 0.3918634465238382 3.941243018640022 L 0.3999201448779246 3.935338812354556 L 0.4088536863864105 3.930872501301191 L 0.4184113431412584 3.927969372170458 L 0.4280953259390952 3.925480425277552 L 0.4376857534103938 3.922651305550349 L 0.4472413233481643 3.91970634742808 L 0.4568419809562894 3.916909926989674 L 0.4665516193552178 3.91452259636005 L 0.4763909799544761 3.912749640985962 L 0.4863337049069818 3.911705113164442 L 0.4963270129939561 3.911408788367161 L 0.5063150676330866 3.911809450589242 L 0.5162763905832302 3.912703331102278 L 0.5261706377002815 3.914140240916186 L 0.5359094856985971 3.916391109213469 L 0.5452978760536836 3.919809181789725 L 0.5540146695816981 3.924680889164719 L 0.561789789889482 3.930949329799835 L 0.5686576319895531 3.938209148126968 L 0.5748887491239341 3.946027712138366 L 0.5807640114658748 3.954119161696086 L 0.5864815475271428 3.962323142075851 L 0.5922313779139179 3.970504233419854 L 0.5982058253211955 3.978523148603517 L 0.604189975073421 3.986534982330965 L 0.6099192935740163 3.994730054939042 L 0.615110687655351 4.00327375630686 L 0.6194853291506917 4.012260728677272 L 0.6227997200306455 4.021688217630194 L 0.6250808562601416 4.031421922286492 L 0.626760342858109 4.041279067700592 L 0.6280353085447139 4.051197922491461 L 0.6289879032423178 4.061153106935089 L 0.6296374271513648 4.071131968397533 L 0.6299207707808803 4.081127538273936 L 0.629468206616016 4.091113736861645 L 0.6283365848140577 4.101048448063922 L 0.6266134024217367 4.110897410068348 L 0.6241099854521474 4.120575094250121 L 0.6203862952284185 4.129841491416517 L 0.6148095163267691 4.138128711789352 L 0.6087333270531854 4.146070114207132 L 0.6034411594042242 4.154550822629349 L 0.598428875277019 4.16320378184565 L 0.5936001491808716 4.171960351259269 L 0.5889888028145585 4.180833166934307 L 0.5846295327710465 4.189832756889474 L 0.5805577961249498 4.198965389797839 L 0.5768075861682433 4.208234916711552 L 0.5734112057293324 4.217640105325557 L 0.5703977732943005 4.227174236398537 L 0.5677910741793948 4.236827524592085 L 0.5656090807973176 4.246585774962413 L 0.5624867619574756 4.255344779591171 L 0.5526354694479841 4.255793433496558 L 0.5433933122057057 4.252054015019938 L 0.5346905604645338 4.247129019512485 L 0.5254672737449999 4.243334337179263 L 0.5157049853885756 4.241190156398227 L 0.5057781904003216 4.240004049816512 L 0.4957878935683216 4.239621487156615 L 0.485799863756939 4.240051093265345 L 0.4759127338007963 4.241506376983902 L 0.4664289268949587 4.241839140881356 L 0.4618620328386465 4.233350722760082 L 0.4612370301040692 4.223373111964503 L 0.4571645973344536 4.214856203099888 L 0.4491047863611568 4.208946217439635 L 0.4417166555949388 4.202213434152271 L 0.4349951690953465 4.194813788983502 L 0.4289056578185378 4.186884836720674 L 0.4233982362595983 4.17854010273974 L 0.4184178966610191 4.169869998338461 L 0.4139098419379961 4.160944520529877 L 0.4098228910201663 4.151818596471201 L 0.4061094059999606 4.142534200019671 L 0.4027253182012381 4.133124664533763 L 0.39954066434652 4.123645901681753 L 0.3956196739309936 4.114450512362246 L 0.3911010048433256 4.105530373197826 L 0.3864827287365235 4.096660880496594 L 0.3823200372364148 4.087571820750429 L 0.3792426005692189 4.078065120420486 L 0.3771610608358848 4.0682868204042 L 0.3756883379208373 4.05839668113829 L 0.3745194391287123 4.048465219238263 L 0.3733581302475875 4.038532805022866 L 0.3718749130097905 4.028644386498173 L 0.3696471851417487 4.018900220201363  z" id="ID_50B"/>
   </g>
   <g id="ID_0" color="rgb(0,0,0)" stroke="currentColor" fill="none" stroke-width="0.00005039721436807565"/>
  </g>
 </svg>