<?xml version="1.0" encoding="UTF-8" ?>
 <svg viewBox="1.290083116368441 -4.190907905658917  0.44722533911462703 0.35524866488801177" xmlns="http://www.w3.org/2000/svg" version="1.0" overflow="visible">
  <defs>
   <g id="ID__#42_Model_Space"/>
   <g id="ID__#42_Paper_Space0"/>
   <g id="ID__#42_Paper_Space"/>
  </defs>
  <g id="draft" transform="matrix(1 0 0 -1 0 0)" stroke-width="5.039721436807565E-5">
   <g id="Poliline" color="rgb(0,0,0)" stroke="currentColor" fill="none" stroke-width="0.00005039721436807565">
    <path d="M 1.638917651997189 4.136728214383342 L 1.646445921347929 4.130146151398003 L 1.654010189787942 4.123605308415385 L 1.661503705325794 4.116983813610673 L 1.668822098058712 4.110169660656593 L 1.67584949158992 4.103056544101892 L 1.682446696814685 4.095543874301633 L 1.68844126478036 4.087543717724338 L 1.6936241974107 4.078997413330554 L 1.69776337471592 4.069901865349246 L 1.700644327957106 4.060334832706331 L 1.702325526333919 4.051065817384351 " id="ID_525"/>
    <path d="M 1.643583667843813 4.150728215048307 L 1.641019332440592 4.141070098341524 L 1.638917651997189 4.136728214383342 L 1.629986371059993 4.132288583214057 L 1.622266078776418 4.126134370051481 L 1.635793160848233 4.115588201371821 L 1.642604172434774 4.108276637757992 L 1.648591359295173 4.100270534070022 L 1.654098280850027 4.091924423401007 L 1.659488891427698 4.083501507856077 L 1.665135020040948 4.07524943256517 L 1.671424420841497 4.067481234629848 L 1.678719866087323 4.060659700992204 L 1.687196359116811 4.055393264605935 L 1.696638776083081 4.052171159342123 L 1.702325526333919 4.051065817384351 L 1.706462640421051 4.048674464633453 L 1.712966317849748 4.047836143321706 L 1.718420936919997 4.048464831598582 L 1.721949248407661 4.050080210273067 " id="ID_526"/>
    <path d="M 1.642249683405452 4.156728215333291 L 1.649385012557795 4.162049174561014 L 1.659285648240621 4.160850564405706 L 1.668765411317624 4.157698143640534 L 1.677742255978833 4.153303813710605 L 1.686191352882733 4.147962583156409 L 1.694033971590098 4.141766093627829 L 1.701049083765165 4.134651559638751 L 1.70688629679353 4.126539482653534 L 1.712496877601598 4.118261644736966 L 1.718007361135436 4.109917027636385 L 1.723296974366309 4.101431261713598 L 1.728210531342594 4.092723340537263 L 1.732512982462924 4.083699911478813 L 1.735798740436139 4.074263955188225 L 1.737308455483068 4.064402288254298 L 1.735778813982353 4.054580754515123 L 1.730417656343206 4.046228210084823 L 1.721949248407661 4.050080210273067 L 1.723881624994148 4.05974971452925 L 1.723192643154848 4.069710163997601 L 1.720896439744364 4.079435070181425 L 1.717466072849781 4.088823577287501 L 1.713173746541625 4.097852322482431 L 1.708177001703385 4.106512017418106 L 1.702565094356246 4.114786805378249 L 1.696382154921118 4.122644236882758 L 1.689637902999952 4.130025218954195 L 1.682311279429589 4.136827334144978 L 1.674350615722647 4.142871728392469 L 1.665680669261291 4.147831240535145 L 1.656244761324885 4.15108138637187 L 1.646303309754249 4.15135610924818 L 1.643583667843813 4.150728215048307  z" id="ID_527"/>
    <path d="M 1.642249683405452 4.156728215333291 L 1.633025852094561 4.153211389968195 L 1.624458647582224 4.148094854820065 L 1.622249682455503 4.147396183640044 L 1.6152941239498 4.140213633272805 L 1.60898251760435 4.13246363011093 L 1.603777966414225 4.123937373901743 L 1.600247561729034 4.114601120499498 L 1.59890237028053 4.104716031665624 L 1.599829148120596 4.094776322855638 L 1.60195511737381 4.085007490710106 L 1.60479631829378 4.075421750312548 L 1.608293857200183 4.066055337415415 L 1.612453405537728 4.056963852405733 L 1.617351393908114 4.048249946832767 L 1.623253189512398 4.040185959897137 L 1.63012798207278 4.032932719423811 L 1.637830453603829 4.02656455925161 L 1.64621267487718 4.02112107282919 L 1.655134535850694 4.016614789305164 L 1.664469050946235 4.013039228272688 L 1.674103988847054 4.010375587979837 L 1.683941332776315 4.008597595264543 L 1.699805917649158 4.009016504536578 L 1.712917655512001 4.018728208778643 L 1.71896916414237 4.026666295571507 L 1.725481275534887 4.034250608527552 L 1.729946126293407 4.04311972954828 L 1.730417656343206 4.046228210084823 " id="ID_528"/>
    <path d="M 1.712917655512001 4.018728208778643 L 1.717220810162257 4.010365641423094 L 1.716492280842556 4.000393739463643 L 1.715331540669996 3.990462313561987 L 1.713662533374875 3.980603924257684 L 1.711405045925984 3.970863807736821 L 1.708480118366578 3.961303452472835 L 1.704818589258715 3.952001039024489 L 1.700372052492553 3.943047795812445 L 1.695123631821928 3.934539382381393 L 1.689096013857606 3.926565215626453 L 1.682347229563014 3.919191147948293 L 1.675053257190608 3.912352640926462 L 1.667376822129614 3.905945813331602 L 1.659377897455012 3.899945953211712 L 1.651106830117234 3.89432709072239 L 1.642604940587546 3.88906320496946 L 1.633906908875688 3.884129902204939 L 1.62504116284483 3.879504367179775 L 1.616031315640736 3.875165824980353 L 1.606896999828753 3.871095548378596 L 1.597654597141379 3.867276807122969 L 1.588319754123919 3.863695482863086 L 1.578900267668669 3.860337097601139 L 1.569407747557145 3.857191030588676 L 1.559850500770014 3.85424752336633 L 1.550235601496853 3.851498337903125 L 1.540569096234683 3.848936724516038 L 1.530856169412565 3.846557432335062 L 1.521101177156501 3.844356754817008 L 1.511308202473879 3.842332773266887 L 1.501480407766659 3.840485454684301 L 1.491620707190042 3.838817226372007 L 1.481728009197428 3.837358686631768 L 1.471783230183436 3.836318040122307 L 1.461800471105578 3.835748071897491 L 1.45180189004606 3.835659240770905 L 1.44181110529569 3.836062677674373 L 1.431853483621211 3.836969979653872 L 1.421956441696099 3.838392910696173 L 1.412149710537506 3.840342989685728 L 1.402465531633938 3.842830951855194 L 1.392938651966897 3.845866109245264 L 1.383606664618593 3.849455410438736 L 1.374509020388237 3.853602775121565 L 1.365687026416888 3.858307975215389 L 1.357182854486925 3.863565764183784 L 1.349034888123877 3.869360530273148 L 1.341147991362408 3.875507756338851 L 1.333494257529701 3.88194260095002 L 1.326124768592317 3.88870069215152 L 1.319104389206249 3.895820245973077 L 1.312516572940706 3.903341179328238 L 1.306469086572375 3.911302193501134 L 1.30109980591814 3.919734350894165 L 1.296579862488432 3.928649199215437 L 1.293108148766675 3.938020416645013 L 1.290888245347622 3.947762787876964 L 1.290083116368441 3.95772112590903 L 1.290761311597669 3.967688900538622 L 1.290917635468076 3.96872820640377 L 1.295062110780818 3.994889008939569 L 1.298276062987824 4.014509620919501 L 1.300917635943051 4.024728209063628 L 1.302722139203629 4.027194805900272 L 1.306642902161917 4.036384304485027 L 1.310567788395922 4.045580577752787 L 1.314876569180238 4.054602839046532 L 1.319586423928098 4.063424673926347 L 1.324704502453651 4.072014563700999 L 1.330230988172744 4.080347073491996 L 1.336156220994749 4.088400773252555 L 1.342461393471449 4.09616097978256 L 1.349119592003024 4.1036207229336 L 1.35609838175725 4.110781683875789 L 1.363362284728983 4.117653505874878 L 1.3708751995111 4.124252444140358 L 1.378602190100329 4.130599474699387 L 1.386512534390459 4.136716653195666 L 1.39461211079187 4.142580818206321 L 1.402898808808322 4.148177447665046 L 1.411360856136525 4.153505243173889 L 1.419987861684947 4.158561569449739 L 1.428770566204378 4.16334233967534 L 1.437700612928829 4.167841886697429 L 1.446770328319432 4.1720528130691 L 1.455972502741778 4.175965813671314 L 1.465299428006867 4.179571266332025 L 1.474752485602446 4.18283086056684 L 1.484341087622151 4.185666182016067 L 1.494066554850798 4.187986849194667 L 1.503917405880832 4.18969546691224 L 1.513865011400094 4.190696201706836 L 1.523859929352287 4.190907905658917 L 1.533837142552124 4.190279567288115 L 1.543723421370271 4.188801656757487 L 1.553452624315238 4.186507657873466 L 1.562975453376558 4.183464972839514 L 1.572263209057908 4.179760369562799 L 1.581301657473138 4.175488206924178 L 1.590120953528169 4.170775518813641 L 1.598797347413315 4.165804242930708 L 1.607258786961788 4.160475253089233 L 1.615312194798784 4.154553607568768 L 1.622249682455503 4.147396183640044 " id="ID_529"/>
   </g>
   <g id="ID_0" color="rgb(0,0,0)" stroke="currentColor" fill="none" stroke-width="0.00005039721436807565"/>
  </g>
 </svg>