<?xml version="1.0" encoding="UTF-8" ?>
 <svg viewBox="0.3959175929578578 -5.455932590704953  0.06437867961483962 0.19631165085767321" xmlns="http://www.w3.org/2000/svg" version="1.0" overflow="visible">
  <defs>
   <g id="ID__#42_Model_Space"/>
   <g id="ID__#42_Paper_Space0"/>
   <g id="ID__#42_Paper_Space"/>
  </defs>
  <g id="draft" transform="matrix(1 0 0 -1 0 0)" stroke-width="5.039721436807565E-5">
   <g id="Layer_#32_1" color="rgb(255,0,255)" stroke="currentColor" fill="none" stroke-width="0.00005039721436807565"/>
   <g id="Poliline" color="rgb(0,0,0)" stroke="currentColor" fill="none" stroke-width="0.00005039721436807565">
    <path d="M 0.3959175929578578 5.453728276937486 L 0.3977726496145282 5.443913289424073 L 0.4011267492921578 5.434501878280488 L 0.4056435871143372 5.425585462490468 L 0.4109151103501168 5.417089938966241 L 0.4165526470274088 5.408830874044756 L 0.4221941025203613 5.400574474922219 L 0.427465387967497 5.392078987002394 L 0.4319376425352024 5.383141225898985 L 0.4351336794701597 5.373677260744883 L 0.436844513896892 5.363831520733258 L 0.4376139977120222 5.353863867432299 L 0.4377004977281072 5.343865653828501 L 0.4372744162656712 5.333875549549697 L 0.4364636140067209 5.323908858153299 L 0.4353689697959729 5.31396905273119 L 0.4340760916307787 5.304052857546741 L 0.4326652903244117 5.29415256024661 L 0.4312226193347302 5.284256704008301 L 0.4298570474580697 5.274349861928537 L 0.4287373972822542 5.264412561832286 L 0.4345013124128263 5.25962093984728 L 0.4439010032153235 5.262459455816884 L 0.4501420952689151 5.270157807574551 L 0.453690967733988 5.27948854786404 L 0.4559048820913257 5.289236653989139 L 0.4575999521316892 5.299091609385099 L 0.4587461065495307 5.30902009298021 L 0.459172812867088 5.319010125134021 L 0.459504624298206 5.329004341980354 L 0.460202534005771 5.338979207970053 L 0.4602962725726974 5.3489749863461 L 0.4593786576199977 5.358927463124385 L 0.4574068190484768 5.368725422780388 L 0.4544931576803029 5.378287910219883 L 0.4508790674359924 5.387610386144337 L 0.4468451473117474 5.396760153857801 L 0.4426369655020741 5.405831516556928 L 0.4384505768014435 5.4149137861306 L 0.434138292934434 5.423936155161212 L 0.4294309213274854 5.432757497901977 L 0.4241143564003967 5.441222985698588 L 0.4178355750873477 5.448994288549145 L 0.4099230204505169 5.455026651132964 L 0.40021201222108 5.455932590704953  z" id="ID_7C2"/>
   </g>
   <g id="ID_0" color="rgb(0,0,0)" stroke="currentColor" fill="none" stroke-width="0.00005039721436807565"/>
  </g>
 </svg>