<?xml version="1.0" encoding="UTF-8" ?>
 <svg viewBox="0.3782585960511646 -2.946884508226212  0.3156406595195556 0.358996023695648" xmlns="http://www.w3.org/2000/svg" version="1.0" overflow="visible">
  <defs>
   <g id="ID__#42_Model_Space"/>
   <g id="ID__#42_Paper_Space0"/>
   <g id="ID__#42_Paper_Space"/>
  </defs>
  <g id="draft" transform="matrix(1 0 0 -1 0 0)" stroke-width="5.039721436807565E-5">
   <g id="Layer_#32_1" color="rgb(255,0,255)" stroke="currentColor" fill="none" stroke-width="0.00005039721436807565"/>
   <g id="Poliline" color="rgb(0,0,0)" stroke="currentColor" fill="none" stroke-width="0.00005039721436807565">
    <path d="M 0.5029175980400851 2.764728149216839 L 0.5068327981081548 2.755537185182189 L 0.5122935845772716 2.747179794842441 L 0.5194728129191262 2.74025580552875 L 0.5282232337039146 2.735484928633072 L 0.5379626650798013 2.733369426459697 L 0.5479189567409195 2.733934437284915 L 0.5574555708134925 2.736869554716045 L 0.5661356062188947 2.741797664323845 L 0.5736294327635738 2.748392613228658 L 0.579632080938973 2.756368013544348 L 0.5838422689425596 2.765417016739585 L 0.5859727150674435 2.775162534350725 L 0.5854296522115146 2.785126045893315 L 0.5831704384675787 2.794858724599345 L 0.5796438271071782 2.804207949598412 L 0.5748227625711513 2.812955718237976 L 0.5683483505982246 2.820540997739295 L 0.5600923662589353 2.826142713426643 L 0.5507235291341975 2.829554681272728 L 0.5407875643825167 2.830368506747502 L 0.5309775866641627 2.828576021050446 L 0.5218767621670218 2.824489328296602 L 0.5138866447572062 2.818510657668841 L 0.5073030775136971 2.811007228218922 L 0.502397659259823 2.802313952161995 L 0.4994349843698052 2.792783413116064 L 0.498624529522286 2.78283694340801 L 0.5000204466107699 2.772954865593275  z" id="ID_70A"/>
    <path d="M 0.6569176053546926 2.902728155771487 L 0.6630322330343024 2.894818370819226 L 0.6685069585493171 2.88645355732333 L 0.6732580724550008 2.877657777426191 L 0.67724127686538 2.868488619099993 L 0.6804690637717501 2.859026613062486 L 0.6830108664775585 2.849357074501488 L 0.6849764391322264 2.839553529615626 L 0.68649262705482 2.829670038650455 L 0.6876840936301809 2.819741881237296 L 0.6886620770472601 2.809790290847063 L 0.6895200412220293 2.799827604497744 L 0.6903335085453355 2.789861220591054 L 0.6911618487720164 2.779896134431695 L 0.6924142141707126 2.76999145667704 L 0.6938992555707202 2.760138938329228 L 0.6938783174721995 2.75014206949681 L 0.6930184389054848 2.740182255062755 L 0.6913448611867034 2.73032584781421 L 0.6889051482769979 2.72063067080546 L 0.6857624263469511 2.711139252660263 L 0.6819886761643934 2.701879784981262 L 0.6776591559834851 2.692868016778186 L 0.6728453488964066 2.684104492881949 L 0.6676408130342111 2.675566432802773 L 0.6621112869453425 2.667235224828321 L 0.6562447946952767 2.659137859351289 L 0.6500291836569289 2.651305403544178 L 0.6434540011116267 2.64377240966904 L 0.6365109368586622 2.63657630889649 L 0.6291967389237066 2.629758850448048 L 0.6215119159025635 2.623362669383068 L 0.6134631835469327 2.617431471549918 L 0.6050631283365684 2.612007421630703 L 0.596334843424927 2.607131584173037 L 0.5873058863176901 2.602837722075094 L 0.5780115503394958 2.599152747982943 L 0.5684926170989968 2.596094302829817 L 0.5588435940374721 2.593468022334119 L 0.549119088571624 2.591138346079212 L 0.5392980310946154 2.589260182863654 L 0.5293740580287443 2.588052996942666 L 0.5193815681226353 2.587888484530564 L 0.5094190492544471 2.588710586399194 L 0.4995440820117896 2.590275585000071 L 0.4897895265470274 2.592472734461281 L 0.480181681092688 2.595243146406495 L 0.4707502631595153 2.598565366582381 L 0.4615374055663937 2.602450428998331 L 0.4526069994030584 2.606945872000505 L 0.4440697956916999 2.612146986351804 L 0.4361247807575852 2.618210443371237 L 0.4288213076574215 2.625036570803493 L 0.4220320010168157 2.632375859353048 L 0.4156800104922143 2.6400975226011 L 0.4097196294090902 2.64812568485453 L 0.4041279292890066 2.656415142953388 L 0.3989014616138524 2.664939699251199 L 0.3940558132306169 2.673688504974446 L 0.3896344108829543 2.682657418696571 L 0.3857175427605721 2.69185689134089 L 0.3824581668167397 2.701307811826405 L 0.3801906817796068 2.711041628609599 L 0.3788768957011284 2.720952059378658 L 0.3782821820564486 2.730932720672679 L 0.3782585960511646 2.740931603719246 L 0.3787132960554063 2.75092060564328 L 0.3795930480529694 2.760882036559822 L 0.3808818474101025 2.770798364520222 L 0.3825783443736581 2.780653175926257 L 0.3846077345760879 2.790444714699592 L 0.386979398888803 2.800159083241471 L 0.3897103850666355 2.80977790832744 L 0.3928177086926823 2.819281801739961 L 0.3963173723414499 2.828648283900557 L 0.4002239189934587 2.837852441310726 L 0.4045496644288491 2.846866909819409 L 0.4093041849490931 2.855662695668211 L 0.4144932591885766 2.864209067818688 L 0.4201183089603129 2.872474636007934 L 0.4261770521562252 2.880429777396791 L 0.4326597713778649 2.888043132949205 L 0.4395515808027391 2.895286463931018 L 0.4468341851096458 2.902136815048956 L 0.4544841781685048 2.90857472676388 L 0.4624746064965404 2.914585734664409 L 0.4707752941942136 2.920160229298666 L 0.4793550283564994 2.925294298266898 L 0.4881826716887466 2.929989277069056 L 0.4972277558883276 2.934250920330271 L 0.5064640859198777 2.938079901830848 L 0.5159363915826827 2.941276966330063 L 0.5256243595387531 2.943745116108624 L 0.5354690820807928 2.945486926488541 L 0.5454132011078814 2.946522153357211 L 0.5554050315191815 2.946884508226212 L 0.5654000666191266 2.946617402342527 L 0.575363089788759 2.945769745462106 L 0.5852669840196523 2.944392321555621 L 0.5950925075648801 2.942535043573972 L 0.6029176027898293 2.940728157576391 " id="ID_70B"/>
    <path d="M 0.5789176016498905 2.71672814693696 L 0.5682522166661386 2.711235941656415 L 0.5534260817146901 2.707797833388003 L 0.5362172389643263 2.705682036612703 L 0.5189175988000443 2.707728146509484 L 0.5105320049490052 2.713165692598506 L 0.50286771798336 2.719578741614295 L 0.4960849985653262 2.7269170780381 L 0.4903222159145822 2.735080806801347 L 0.4856807404998165 2.743930254915095 L 0.4822185754372521 2.753304487827344 L 0.4799556292957617 2.763038471817198 L 0.4788852025963069 2.77297494529998 L 0.478986859601096 2.782968684410461 L 0.4802369275564047 2.792884577989212 L 0.4826151119510467 2.802591816378317 L 0.4861069157320382 2.811955984244955 L 0.4907016654141963 2.820830532647976 L 0.4963854799206793 2.829049239452508 L 0.5031282692708939 2.836422592808427 L 0.5108651052119271 2.842743136814872 L 0.519476591723965 2.847805729483512 L 0.5287795180497517 2.851443902692817 L 0.538534026106345 2.853544770171701 L 0.5485264470483902 2.853712181862693 L 0.5584103559689675 2.852255062319263 L 0.5680021302477858 2.849458978288605 L 0.5769939522882331 2.845128410167383 L 0.5847515655712066 2.838830593820526 L 0.5917049256061411 2.831651976260626 L 0.5977571289857196 2.823699239307265 L 0.6027878344414397 2.81506495479115 L 0.6066814501085336 2.805863041316515 L 0.6093352968581361 2.796230785369214 L 0.6106709871077411 2.786328360014888 L 0.6106477765777134 2.776336425387915 L 0.6092745568262972 2.76643888096008 L 0.6066124700744933 2.756807023867148 L 0.6027674655147841 2.747582478837662 L 0.5978747093057875 2.738867115930272 L 0.5920808394120174 2.730721921405429 L 0.5855287206152608 2.723172060591227  z" id="ID_70C"/>
   </g>
   <g id="ID_0" color="rgb(0,0,0)" stroke="currentColor" fill="none" stroke-width="0.00005039721436807565"/>
  </g>
 </svg>