<?xml version="1.0" encoding="UTF-8" ?>
 <svg viewBox="-1.94142474784492 -6.621399827754955  0.41930947125541307 0.5653794274305479" xmlns="http://www.w3.org/2000/svg" version="1.0" overflow="visible">
  <defs>
   <g id="ID__#42_Model_Space"/>
   <g id="ID__#42_Paper_Space0"/>
   <g id="ID__#42_Paper_Space"/>
  </defs>
  <g id="draft" transform="matrix(1 0 0 -1 0 0)" stroke-width="5.039721436807565E-5">
   <g id="Poliline" color="rgb(0,0,0)" stroke="currentColor" fill="none" stroke-width="0.00005039721436807565">
    <path d="M -1.627082503129486 6.090728307193362 L -1.618048119668969 6.089145155006487 L -1.608748121751183 6.092617613713388 L -1.601331390167762 6.099262366586965 L -1.595849985968336 6.107604480731091 L -1.591873132493286 6.116768115359655 L -1.589051254045366 6.126355883353356 L -1.587177783384883 6.136176253416937 L -1.58615563531939 6.146121937921591 L -1.585982932337227 6.156117891055153 L -1.586781148512411 6.166081244863745 L -1.588931211765261 6.175834317638515 L -1.591749493638758 6.182062295906495 " id="ID_4A8"/>
    <path d="M -1.568082500327136 6.22872831374801 L -1.566616482050755 6.222045512281721 L -1.562389094384531 6.212996291504921 L -1.557582499828413 6.204228312584323 L -1.556432363527619 6.194299204882385 L -1.556123452457992 6.18430581622552 L -1.556414384446576 6.174311223926886 L -1.557185697643491 6.164341635841741 L -1.558374436839951 6.154412886437842 L -1.559949423273737 6.144537830431886 L -1.561900829754675 6.134730052655953 L -1.564236134776941 6.125006251643937 L -1.566979550120301 6.11538971109229 L -1.57017476772426 6.10591394054074 L -1.573890381100023 6.096632247590823 L -1.57823386556512 6.087626701476999 L -1.583367480358717 6.07904984066893 L -1.589539058367981 6.071193792687253 L -1.596948194565853 6.064498296527999 L -1.605527181665285 6.05939809565912 L -1.61504330438065 6.056408441869753 L -1.624958831215131 6.056020400324407 L -1.641292139339483 6.07118088505803 " id="ID_4A9"/>
    <path d="M -1.633125485277307 6.063600642691218 L -1.648908830132248 6.058909208814247 L -1.658875784326393 6.058134687946892 L -1.668874195990619 6.058076255040849 L -1.678865594562997 6.058483347232474 L -1.688846229724428 6.059110623199244 L -1.698823082921121 6.059789584425878 L -1.708781983385918 6.060692923179392 L -1.718711413619232 6.061873174184126 L -1.728595532236694 6.063384516659043 L -1.738411495510687 6.065285594115583 L -1.748130418503516 6.06763652304816 L -1.757712447528106 6.070492165616419 L -1.767113567472842 6.073895753072045 L -1.776287292247131 6.077870647238485 L -1.785192539116606 6.082415785868181 L -1.793797808853018 6.087504199389092 L -1.80209030681333 6.093090710669633 L -1.810069932996065 6.099116057293279 L -1.817753349449302 6.105515144612266 L -1.825110147444024 6.112286303477181 L -1.832057435325792 6.119478402300901 L -1.838509967348947 6.127113555577471 L -1.844411418588083 6.135183960484697 L -1.849746116427747 6.143639998681001 L -1.85455107329923 6.152409184844387 L -1.85890156505282 6.161412212397032 L -1.862902028339232 6.170577426388654 L -1.866757735114686 6.179804490279321 L -1.870523974071003 6.189068403524982 L -1.874205986918111 6.198366085742445 L -1.877807796352908 6.207695103171043 L -1.881332458305173 6.217053514387435 L -1.88478224011401 6.226439761623802 L -1.888158747906087 6.235852592382681 L -1.891463017968132 6.245291001755373 L -1.894695581739012 6.254754189238068 L -1.89785651078112 6.264241525916008 L -1.900945445951233 6.273752529195194 L -1.903961613533473 6.283286843105936 L -1.906903830056965 6.292844222757094 L -1.909770466369733 6.302424418908644 L -1.912559568651422 6.312027629671062 L -1.915268598314268 6.321653704675553 L -1.917894576258997 6.331302743278513 L -1.920433979150732 6.340974910130706 L -1.922882674687515 6.35067042792532 L -1.925235969240066 6.360390119605758 L -1.927488104339646 6.370133767454291 L -1.929632482050394 6.379901492407305 L -1.931661453953786 6.389693606460316 L -1.93356445177853 6.399510898423698 L -1.935316122718308 6.409356150504701 L -1.936896288557043 6.419230244971527 L -1.938287321362656 6.429132503153818 L -1.939467785461356 6.439062075522164 L -1.940410088207642 6.449016942030694 L -1.941078275118529 6.45899381124395 L -1.94142474784492 6.46898684366766 L -1.941385217648011 6.478985541639058 L -1.940870612336458 6.488970641582112 L -1.939753752915502 6.498905635787187 L -1.937847256200745 6.50871812469152 L -1.934869100818414 6.518256399250441 L -1.930406963196098 6.527187701870096 L -1.923982261340709 6.534806860597285 L -1.915499120169092 6.540005398769935 L -1.905763605171979 6.542105095759559 L -1.89579903888481 6.541560052025078 L -1.889582515597567 6.540228328543467 L -1.888613919454903 6.530476533843828 L -1.890618023351416 6.520688151193254 L -1.887076833077632 6.512006414999884 L -1.879078740272239 6.506020601362528 L -1.870559617676404 6.500784695704928 L -1.862149774756177 6.495378524499806 L -1.854542485747742 6.488913272463061 L -1.848862239285071 6.480734057128573 L -1.846419815919002 6.471074344749663 L -1.844282156609546 6.461316761412951 L -1.838919175744404 6.453002279148239 L -1.830946328864778 6.447014086072861 L -1.821888832929233 6.442800604497426 L -1.812399298487932 6.439653715828717 L -1.802760119522688 6.436994385734088 L -1.793105376413728 6.434388683129354 L -1.783540075991127 6.431476524699169 L -1.774197532427401 6.427919791359681 L -1.765147463505137 6.423686828950466 L -1.759082509399149 6.422728322962516 L -1.750541113571288 6.417573914675849 L -1.741022895657367 6.414557309829022 L -1.731281907214401 6.412300574381099 L -1.721439177009841 6.410540777967029 L -1.711500250452438 6.409464722175105 L -1.701521977505406 6.40973148423182 L -1.691905084516128 6.412399958802044 L -1.683212796911036 6.417284467075953 L -1.676027043156292 6.424202185461391 L -1.670332265283756 6.432409594020707 L -1.665610706746613 6.441221934023654 L -1.661273517588779 6.450231578321188 L -1.656824656020825 6.459188570171176 L -1.651872390200543 6.467871815511558 L -1.646124424566942 6.476047588607936 L -1.639424474545572 6.483461069220693 L -1.631714325022132 6.48981313291619 L -1.623037581079088 6.49475497528149 L -1.613635619752693 6.498127198899329 L -1.603829443068447 6.500051982563549 L -1.593866229938937 6.500855386693494 L -1.583867749928838 6.500910628967451 L -1.573873875451547 6.500548564132285 L -1.563887647845759 6.500040737330988 L -1.556077330083953 6.503962683294112 L -1.554177151337947 6.513756843561148 L -1.554162939378987 6.523750107094754 L -1.555929329959063 6.533581407263604 L -1.559163289916509 6.543034438449636 L -1.563508583170886 6.552045205246896 L -1.56863959083215 6.560617210881857 L -1.574321803842466 6.568844798054076 L -1.580367407415073 6.576824447218924 L -1.58715564956668 6.584148938127989 L -1.59440951049943 6.591025936881758 L -1.601247676052089 6.598313256426203 L -1.606218628004687 6.606921515185179 L -1.605673420592194 6.616678398095146 L -1.598558314970721 6.621399827754955 L -1.590276797404278 6.615825959550225 L -1.582874373125631 6.609108238910701 L -1.57602600013955 6.601823226230229 L -1.569578968173488 6.594179889105114 L -1.563455055593772 6.586275035991865 L -1.557615017352999 6.578158173335358 L -1.552045764526777 6.569853142496977 L -1.54675897408832 6.561365651547646 L -1.541800539668445 6.552681673362853 L -1.53729004538665 6.543758249196255 L -1.53358476330114 6.534476971128644 L -1.531067527284377 6.524803532727816 L -1.529330030394135 6.514957068666241 L -1.528046201682463 6.505040249885117 L -1.527008530606547 6.495094310869162 L -1.526068012357916 6.485138690546231 L -1.525102983692357 6.475185326919649 L -1.524017187845108 6.46524449298957 L -1.52307863581178 6.455289033834056 L -1.522437128988134 6.445310205209241 L -1.522115276589507 6.435316605384537 L -1.522129770682341 6.425317734439467 L -1.522487383132518 6.415325129111124 L -1.52318061243432 6.405350034219889 L -1.524184380484022 6.395401206171388 L -1.525455110103845 6.385482743606702 L -1.526933098523117 6.375592858154583 L -1.528547987237502 6.36572426220163 L -1.530225971846042 6.355866116341381 L -1.531896896439303 6.346006697902609 L -1.533499657195 6.336136066147342 L -1.534969044248392 6.326244756664089 L -1.536268739400046 6.316329804071737 L -1.537440174371937 6.306398821515927 L -1.538532276015939 6.29645874777209 L -1.539599560902694 6.286515952548783 L -1.540702500617773 6.27657705748104 L -1.541907917092374 6.266650121645587 L -1.54328924396906 6.25674623847744 L -1.544926356337668 6.246881586246094 L -1.546904525869005 6.237079771361264 L -1.549311708756838 6.227374934670298 L -1.552233949224336 6.217812958056878 L -1.555747964950987 6.208452708744268 L -1.557582499828412 6.204228312584323 " id="ID_4AA"/>
    <path d="M -1.889582515597567 6.540228328543467 L -1.880674571750251 6.544711583712319 L -1.871078345006301 6.547501040525915 L -1.861259638442112 6.5493872663458 L -1.851358877489975 6.550790903662096 L -1.841428104032364 6.551968742711047 L -1.831492980229142 6.553110385394147 L -1.821575208666443 6.554388135798798 L -1.811749201297576 6.556162210590471 L -1.803391694694751 6.561476432989977 L -1.793522444572892 6.560870703550502 L -1.784615110182145 6.556411653975351 L -1.777266301263837 6.549676982793219 L -1.773493843235455 6.540602410654354 L -1.776980014136506 6.531485266827087 L -1.783364535169138 6.523796791670489 L -1.786543601310697 6.514471921197532 L -1.780441070065985 6.510351711782049 L -1.771756872928351 6.50583755018918 L -1.766955996298106 6.49714468299158 L -1.76458760340657 6.48743877649976 L -1.763268981156609 6.477529009366197 L -1.762356893994124 6.46757316894992 L -1.761469550959938 6.457612791654781 L -1.760285871307966 6.44768208725655 L -1.758758605432331 6.437800566654545 L -1.758380485356463 6.427825203079891 L -1.759082509399149 6.422728322962516 " id="ID_4AB"/>
   </g>
   <g id="ID_0" color="rgb(0,0,0)" stroke="currentColor" fill="none" stroke-width="0.00005039721436807565"/>
  </g>
 </svg>