<?xml version="1.0" encoding="UTF-8" ?>
 <svg viewBox="-1.018158662729546 -1.364633752355706  0.37128981695056096 0.4267148823106177" xmlns="http://www.w3.org/2000/svg" version="1.0" overflow="visible">
  <defs>
   <g id="ID__#42_Model_Space"/>
   <g id="ID__#42_Paper_Space0"/>
   <g id="ID__#42_Paper_Space"/>
  </defs>
  <g id="draft" transform="matrix(1 0 0 -1 0 0)" stroke-width="5.039721436807565E-5">
   <g id="Layer_#32_1" color="rgb(255,0,255)" stroke="currentColor" fill="none" stroke-width="0.00005039721436807565"/>
   <g id="Poliline" color="rgb(0,0,0)" stroke="currentColor" fill="none" stroke-width="0.00005039721436807565">
    <path d="M -0.7990824638015966 0.9427280626764833 L -0.8085559771607808 0.9459300180359164 L -0.818011973056695 0.9491832660849635 L -0.8274271238407777 0.9525527031142431 L -0.8367729182032136 0.9561096376850564 L -0.8460128233045587 0.9599326638029398 L -0.8550986546194242 0.9641078574460114 L -0.8639637004850628 0.9687318696606777 L -0.8725200715145335 0.9739043305930064 L -0.8807417495133291 0.979594085736128 L -0.8886285250415433 0.9857402331717146 L -0.8961927731369732 0.9922795013806756 L -0.9034576509327517 0.999150154399766 L -0.9104542267271433 1.006294116254034 L -0.9172190619878346 1.013658123653378 L -0.9237922402372236 1.021193973628076 L -0.9302157334531022 1.028857920591164 L -0.9365326205639483 1.036610114694578 L -0.9428017685400202 1.044400909779186 L -0.9493280328127947 1.051976953961158 L -0.9558681779252876 1.059540592094494 L -0.9617641906770497 1.067608984084655 L -0.9662798737869654 1.07651006227724 L -0.9694652055325452 1.085988543583713 L -0.9737688792034715 1.094994006157731 L -0.9793207463074589 1.103308987298058 L -0.984853156802096 1.111636665642379 L -0.9892278405381862 1.120613628559121 L -0.9922754333378893 1.130134018760985 L -0.9950532300556043 1.139739916253491 L -0.9985476709081293 1.149104383913748 L -1.002789139488333 1.158159247076058 L -1.007223858155113 1.167122211900545 L -1.011366455750453 1.176222188304903 L -1.014691848198443 1.185646880424648 L -1.016574298339818 1.195455432240576 L -1.017239705861189 1.205431791714408 L -1.01748101896556 1.21542890407967 L -1.017662090603383 1.225427275111217 L -1.018035299061772 1.235420098915151 L -1.018158662729546 1.245418608904527 L -1.017794705307694 1.255410391757179 L -1.016842844691267 1.265362636507363 L -1.015199846280964 1.275224302929455 L -1.012778828198834 1.284923190614668 L -1.009533987966624 1.294377835148715 L -1.005480532947687 1.303516108852615 L -1.000696438177981 1.312294598142001 L -0.9953003453193849 1.320711778258415 L -0.9893860757052816 1.328772448567285 L -0.9825566556899065 1.33605929463304 L -0.9746248077164203 1.34212652831183 L -0.9657671419200033 1.346743470661241 L -0.9563744421334972 1.350164670771647 L -0.9468276997116591 1.353142294556556 L -0.9374116248119417 1.356505489203998 L -0.927999313604821 1.359890481648854 L -0.9184346327900039 1.362804614170723 L -0.9086073667763584 1.364597763384145 L -0.8986216751364315 1.364633752355706 L -0.8887600013961289 1.363025858211974 L -0.8791179837633692 1.360386209063628 L -0.8696383726626618 1.357205272328519 L -0.860273300572385 1.353701967022921 L -0.851028469325838 1.349897177668415 L -0.8419057470188696 1.345800731314309 L -0.8329142761460648 1.341424147674951 L -0.8240585377778222 1.336775683219441 L -0.8153485477531763 1.33186550957159 L -0.8067877486314446 1.326699355716437 L -0.798383020741749 1.321283920165541 L -0.7901370882732222 1.315622245629677 L -0.7820600278183605 1.309721494765874 L -0.7741644217147386 1.303590734936099 L -0.766450130606633 1.297228689992106 L -0.7589235524370377 1.29063793084172 L -0.7516042066134938 1.283832760999308 L -0.7444897318781054 1.276807424127028 L -0.7375922833686852 1.269568929862487 L -0.7309203670510698 1.262120644974336 L -0.7244842179331883 1.254467681175496 L -0.7182936237570355 1.246614717149725 L -0.7123585590262085 1.238566765629276 L -0.70668926212314 1.2303294485502 L -0.7012960397644639 1.221908939246688 L -0.696189272581134 1.213312205864475 L -0.6913789964667183 1.204546555910448 L -0.6868748837852863 1.195619739405492 L -0.6826852319422212 1.186537851962109 L -0.6791463332225911 1.177205784416129 L -0.676192248828702 1.167669772560554 L -0.6720811499880269 1.158556888438901 L -0.6674946336373146 1.149671061993089 L -0.6629326881599589 1.140772718684443 L -0.6589487056291877 1.131604942191811 L -0.6559094871862668 1.122080461322063 L -0.6534903591052564 1.112379010485149 L -0.651593584620973 1.102561556180091 L -0.650118978653275 1.092671597003651 L -0.6489683675547085 1.082738329181848 L -0.6480554940945451 1.072780233838697 L -0.6473461786823025 1.062805580512852 L -0.6469176682425922 1.052815263361312 L -0.6468688457789851 1.042816047109123 L -0.6473095566923766 1.032826970404025 L -0.6483658948680385 1.02288493488286 L -0.6501826968042411 1.01305467736336 L -0.6529196982595522 1.003441234129441 L -0.656733991120146 0.9942043301712004 L -0.6617433135123552 0.9855591096371583 L -0.6679630663778271 0.9777399442326117 L -0.6750906965872617 0.9707328128230106 L -0.6828954303319926 0.9644871996885093 L -0.6912151900914365 0.9589441466694967 L -0.6999022237724164 0.953993904828474 L -0.7088338441788001 0.9494982968447196 L -0.7179216905605772 0.9453269159087938 L -0.7273246280243351 0.9419385731395326 L -0.7370437314444711 0.9396068781217952 L -0.7469540935659369 0.9383021091822527 L -0.7569437024076855 0.9379188700450882 L -0.7669341664131935 0.9383065768684311 L -0.7768831513934558 0.9393025323800454 L -0.7990824638015966 0.9427280626764833 " id="ID_75D"/>
    <path d="M -0.7350824607617596 1.070728068756157 L -0.7300787024438478 1.079374064086243 L -0.7263663978730764 1.088651283376162 L -0.7239717857181187 1.098351569928674 L -0.7231393907456534 1.108304297811541 L -0.7242875074273174 1.118217047865121 L -0.7275171009159669 1.127670160935043 L -0.7318825190758398 1.136662278030502 L -0.7370818023762605 1.14520111089182 L -0.7429677548018061 1.153281872392611 L -0.7494596617345471 1.160885158816693 L -0.7565172459023817 1.167966559255194 L -0.7641287358071303 1.174448215984487 L -0.7723021920194704 1.180202324433762 L -0.7810533615436288 1.185026602362357 L -0.7903618599588454 1.188651152078687 L -0.8002282447501184 1.18992963799476 L -0.8092177530519508 1.186071505611508 L -0.8138482467813545 1.177341598486327 L -0.8075500256160745 1.169925125168736 L -0.7999862230699497 1.163387484024642 L -0.7921071952070529 1.157230178851985 L -0.7841847722132976 1.151128490896294 L -0.7764537248011827 1.14478766359965 L -0.7691977613435395 1.137912194680978 L -0.762836640829514 1.130208843279143 L -0.7579895654297549 1.121484202619772 L -0.7553367375383467 1.111870608028279 L -0.7550824617117087 1.102728070276075 " id="ID_75E"/>
   </g>
   <g id="ID_0" color="rgb(0,0,0)" stroke="currentColor" fill="none" stroke-width="0.00005039721436807565"/>
  </g>
 </svg>