<?xml version="1.0" encoding="UTF-8" ?>
 <svg viewBox="1.749545704428139 -4.214586546622568  0.350607152366494 0.37633280276251924" xmlns="http://www.w3.org/2000/svg" version="1.0" overflow="visible">
  <defs>
   <g id="ID__#42_Model_Space"/>
   <g id="ID__#42_Paper_Space0"/>
   <g id="ID__#42_Paper_Space"/>
  </defs>
  <g id="draft" transform="matrix(1 0 0 -1 0 0)" stroke-width="5.039721436807565E-5">
   <g id="Poliline" color="rgb(0,0,0)" stroke="currentColor" fill="none" stroke-width="0.00005039721436807565">
    <path d="M 2.025417670354954 4.131228214122106 L 2.017760662171881 4.137618068508979 L 2.008817726221383 4.142049203037787 L 1.99917142640564 4.144631709393218 L 1.989222110701922 4.145518894428615 L 1.979260189856232 4.144783150250239 L 1.978917668146323 4.144728214763322 " id="ID_535"/>
    <path d="M 1.978917668146323 4.144728214763322 L 1.980470068788056 4.142440581082338 L 1.987686672110399 4.135573397781193 L 1.996455693270489 4.130813873924916 L 2.006073232039523 4.128154943459458 L 2.016037614884257 4.127985262802573 L 2.025417670354954 4.131228214122106 L 2.035264025024966 4.129791309060021 L 2.044472153741875 4.133169098130631 L 2.043914338259668 4.14262000684941 L 2.039076573978181 4.151332682316624 L 2.032355275332921 4.158717803423044 L 2.024534336087508 4.164937815251214 L 2.015970427377946 4.170088622404147 L 2.006838053565911 4.174145301890527 L 1.997241808901364 4.17692297787534 L 1.987315456742843 4.17796386926275 L 1.977497466778436 4.176325079134064 L 1.969034838085171 4.171157559709188 L 1.964963379557079 4.162288285199819 L 1.968401967904866 4.153114199233877 L 1.975889218922347 4.146550678718122  z" id="ID_536"/>
    <path d="M 1.857917662399131 4.177728216330738 L 1.856247206680578 4.177446493181836 L 1.840723798279605 4.170415117533442 L 1.840437625417757 4.178036997888318 L 1.842432641278562 4.183431872579701 L 1.851132052331034 4.187975572109534 L 1.859917662494126 4.187728216805712 L 1.868573039271905 4.184262199938434 L 1.862939220993553 4.181034008031591  z" id="ID_537"/>
    <path d="M 1.935917666103932 4.179228216401984 L 1.935715678231491 4.172730273789522 L 1.936665178588472 4.162786443974317 L 1.939147188505115 4.153110441047047 L 1.943076544749478 4.14392545461084 L 1.948295706649992 4.135405491619994 L 1.954616440706491 4.127665772347448 L 1.961853433923522 4.1207736027741 L 1.969841672066498 4.114766984338821 L 1.978440518668574 4.109671800725653 L 1.987530199153615 4.105514489622319 L 1.997004750775474 4.102330456058533 L 2.006763294819707 4.100169227868237 L 2.016700086514179 4.099096772115824 L 2.026693326904524 4.099194216915707 L 2.036593484774704 4.100550745895821 L 2.046214122421952 4.103247395416786 L 2.055332125766712 4.107329936923541 L 2.063706561409521 4.112776128539357 L 2.071118476869326 4.119473598138919 L 2.077417672824822 4.127228213932117 L 2.076903057503992 4.137192513390893 L 2.074143300044573 4.146782753994562 L 2.069447738188181 4.155593661036228 L 2.063246540135551 4.163424082087409 L 2.055974146488519 4.17027926988652 L 2.048012595366115 4.176323927950631 L 2.039534141511279 4.181621362760045 L 2.030649346879564 4.186205326568577 L 2.02143540443709 4.190084774885182 L 2.01195012656449 4.193243850229094 L 2.002244230445096 4.195639507228198 L 1.992369923847219 4.197198252586376 L 1.982393089803335 4.197810221551511 L 1.97241101299889 4.197322908887194 L 1.96257993232703 4.195540289562929 L 1.953152232392096 4.192243139832163 L 1.944502595985744 4.187258209861443 L 1.937082771710601 4.180583277466967  z" id="ID_538"/>
    <path d="M 2.077417672824822 4.127228213932117 L 2.083614894741077 4.119410250214389 L 2.08806655173382 4.110470583935859 L 2.091142902428892 4.100962080769333 L 2.093234312656146 4.09118622313162 L 2.094650717894507 4.08128830394877 L 2.095627947561788 4.071336544401003 L 2.096355624119164 4.061362945324288 L 2.097004193834249 4.051383651755743 L 2.097751898637778 4.0414113517492 L 2.098820248247167 4.031469229256892 L 2.100152856794633 4.021564482140288 L 2.099729751056356 4.011584072769164 L 2.098097781693745 4.001721861513544 L 2.09575031252888 3.992002218868526 L 2.093009391416635 3.982385128141611 L 2.089978751565692 3.972854016246232 L 2.086705411123388 3.963405020795555 L 2.08320320817027 3.954038589454629 L 2.079458493812107 3.944767759046502 L 2.075413057874568 3.935623380512588 L 2.070894638568563 3.92670474689871 L 2.065669549025002 3.918182231009106 L 2.059767047246229 3.910113524716864 L 2.053264050054109 3.902519690636939 L 2.046243636644002 3.895400747111992 L 2.038787495265867 3.888738635966433 L 2.030971433722598 3.882502183051572 L 2.022862093996545 3.876650909583153 L 2.014518124718999 3.871139926337088 L 2.005988672503557 3.865920840861505 L 1.997315367410424 3.860943796417474 L 1.988521795198352 3.856183281450542 L 1.979362584001743 3.852179423275668 L 1.969909235446612 3.848924114571314 L 1.960282091781737 3.846223401208966 L 1.950539416647045 3.843972447959712 L 1.940714270620813 3.842112608459165 L 1.930827678557861 3.840613107486777 L 1.920894714600068 3.839463043848311 L 1.91092702620828 3.838668534670279 L 1.900936228674987 3.838253743860049 L 1.890936882230471 3.838265723666742 L 1.880951312472814 3.838785675750077 L 1.871021460170505 3.839953490527818 L 1.861237432432652 3.842004084113732 L 1.851702062379224 3.845007475345971 L 1.842490075668562 3.848891763282063 L 1.833661399662866 3.853581313190533 L 1.825256362340718 3.858994169950705 L 1.817300296741832 3.865048448612233 L 1.809806970543943 3.871667195833126 L 1.802782005666169 3.878781470978367 L 1.79622679947392 3.886331097153613 L 1.7901416710596 3.894264336926582 L 1.784527436562187 3.902538472124565 L 1.779389449982621 3.911116245005981 L 1.774737977543191 3.91996715012493 L 1.770591318941485 3.929065418437014 L 1.766794109452977 3.938316305465894 L 1.763177845803798 3.947639369513849 L 1.759806177188558 3.957053533133709 L 1.756747909762925 3.966573947048344 L 1.754082793449439 3.976211539891933 L 1.751907865007928 3.985971010765263 L 1.75034449973704 3.995846216380199 L 1.749545704428139 4.005811252856046 L 1.749700727184745 4.015805373797933 L 1.751096109559329 4.025698444947924 L 1.753698255445153 4.035350202005695 L 1.75685612164064 4.044838208436434 L 1.759898689820482 4.054363072130465 L 1.762566757036633 4.064000372436122 L 1.765225756860404 4.073640150767547 L 1.768211103206264 4.083182948905164 L 1.771824922292568 4.092504089868855 L 1.776251763452874 4.101467355284352 L 1.781297068827591 4.11009965212148 L 1.786726321645761 4.118496951209904 L 1.792332186618079 4.126777600016151 L 1.797929969124338 4.135063757969668 L 1.80335917404285 4.143461186885414 L 1.808483548769289 4.152047597086932 L 1.808402914861018 4.161540257606288 L 1.807581962982464 4.171495068302117 L 1.808683967888303 4.181414074268889 L 1.812023611122338 4.190815748184824 L 1.817376710559264 4.199236760669556 L 1.824581406942574 4.206132199341894 L 1.833275818041542 4.211022690992782 L 1.842867277714606 4.21378179346347 L 1.852820830715099 4.214586546622568 L 1.862772287405269 4.213712435961683 L 1.872494296099434 4.211405892925142 L 1.881832416126183 4.207848783058915 L 1.890657643851361 4.203163361065158 L 1.898841527386944 4.197423396894556 L 1.906217295194081 4.19068440911359 L 1.91327325982943 4.184282041177914 L 1.923026209324126 4.182134598791494 L 1.93246603308259 4.179817981152101 L 1.935917666103932 4.179228216401984 " id="ID_539"/>
   </g>
   <g id="ID_0" color="rgb(0,0,0)" stroke="currentColor" fill="none" stroke-width="0.00005039721436807565"/>
  </g>
 </svg>