<?xml version="1.0" encoding="UTF-8" ?>
 <svg viewBox="1.082763732070085 -2.669806403755023  0.3042868922857791 0.3260782745346109" xmlns="http://www.w3.org/2000/svg" version="1.0" overflow="visible">
  <defs>
   <g id="ID__#42_Model_Space"/>
   <g id="ID__#42_Paper_Space0"/>
   <g id="ID__#42_Paper_Space"/>
  </defs>
  <g id="draft" transform="matrix(1 0 0 -1 0 0)" stroke-width="5.039721436807565E-5">
   <g id="Layer_#32_1" color="rgb(255,0,255)" stroke="currentColor" fill="none" stroke-width="0.00005039721436807565"/>
   <g id="Poliline" color="rgb(0,0,0)" stroke="currentColor" fill="none" stroke-width="0.00005039721436807565">
    <path d="M 1.102917626538555 2.480728135727563 L 1.11055156589153 2.487160658380789 L 1.116570707598234 2.495117827884241 L 1.120836106912821 2.50414967998585 L 1.124208004702562 2.513563343214057 L 1.128000309940712 2.522810243962636 L 1.133193803737001 2.531345961308199 L 1.138318380574538 2.539918795371894 L 1.140045500029901 2.549637389448339 L 1.133505462195001 2.556985828050216 L 1.12588808205572 2.563462763530596 L 1.119645117884737 2.57121386206645 L 1.118917627298515 2.572728140097328 L 1.11029560809527 2.575511504661889 L 1.10091762644356 2.578728140382313 L 1.098172344926325 2.575620888163475 L 1.093537439268283 2.566829939257583 L 1.091985803335365 2.556969776319057 L 1.090838959716787 2.547039177603453 L 1.08890912356894 2.537228918661183 L 1.086614884406048 2.527495982260367 L 1.084410763974742 2.517742689163414 L 1.082852267883273 2.507869421868594 L 1.082763732070085 2.49788687829101 L 1.085269131450087 2.488251079485452 L 1.090917625968586 2.480062120070929 L 1.10089488187623 2.480323449918957  z" id="ID_775"/>
    <path d="M 1.360917638792898 2.346728129362904 L 1.364289475535986 2.356096054834075 L 1.369448727778549 2.364658121277011 L 1.374779773217878 2.373117525431082 L 1.379138178272731 2.382106527917551 L 1.382074701571769 2.391653455107951 L 1.383251264541169 2.401568613626642 L 1.382729968593319 2.411545739446092 L 1.381065973081228 2.421403252062983 L 1.379303830056466 2.431235981422648 L 1.379500990429241 2.44122071340603 L 1.381018828109698 2.451101414258175 L 1.383097748177064 2.460882655208347 L 1.385157114103892 2.47066778614136 L 1.386599571134379 2.480558819965043 L 1.387050624355864 2.490545248304398 L 1.386787699605603 2.500540660032756 L 1.38622688883253 2.51052504753779 L 1.385764004991197 2.520513935629651 L 1.385517967191582 2.530510265409454 L 1.385384525867768 2.540509739772735 L 1.385262156505204 2.55050906529898 L 1.385054938674539 2.56050752275946 L 1.384667181052608 2.570499515344188 L 1.383998533092622 2.580476847311686 L 1.382940061933767 2.590420004218232 L 1.381371434641415 2.600294429312992 L 1.379160330336306 2.610044853391176 L 1.376942218479156 2.619782796759116 L 1.372111879532209 2.628166323762911 L 1.362624348439505 2.628591700701024 L 1.356989162498648 2.620719189675583 L 1.355018789057655 2.610950901932461 L 1.355239470850396 2.600962944028925 L 1.356310664002807 2.591020644275854 L 1.356987401302262 2.581051446073738 L 1.355903670197241 2.571136946249314 L 1.351819450659375 2.562065714738688 L 1.349129691176648 2.55332879480782 L 1.347969169895535 2.543455745544596 L 1.343355057521057 2.534634898350837 L 1.336646930091581 2.527233640262805 L 1.329106641096958 2.52068025604233 L 1.321455067208318 2.514241155298737 L 1.314345359651144 2.507220678797859 L 1.308764705150315 2.498955721120948 L 1.306116340029926 2.489373788265279 L 1.301594182809097 2.481754468714596 L 1.292508943763575 2.477607645468044 L 1.282971869803217 2.474608255428195 L 1.273318335745632 2.471998955259525 L 1.263704788669989 2.469248066580156 L 1.254260447610579 2.465968434785425 L 1.245123211580716 2.461912213653613 L 1.236083435821131 2.457637093476847 L 1.226814320262806 2.453890898882004 L 1.217184694743574 2.45122637863537 L 1.207241182676597 2.450414270670643 L 1.197451037543761 2.452301336947762 L 1.187506933932607 2.453268142692571 L 1.17751518027329 2.453646716150762 L 1.167536837221423 2.454301290876681 L 1.15769669680462 2.45599344092996 L 1.148804993459293 2.460546178507266 L 1.139094010400357 2.462567096287369 L 1.129096044940766 2.462616954549982 L 1.1197721249072 2.465775787238873 L 1.112269790325937 2.472371155669625 L 1.104936988997503 2.479165628790058 L 1.102917626538556 2.480728135727563 " id="ID_776"/>
    <path d="M 1.10091762644356 2.578728140382313 L 1.106261482683914 2.58717899794394 L 1.111202003385828 2.59587261859203 L 1.115882464926643 2.604709462003713 L 1.120448020373697 2.613606451005443 L 1.12504403846647 2.622487607350484 L 1.129816864487969 2.631274750866877 L 1.13491365176274 2.639877391160924 L 1.140478906510744 2.648183587228096 L 1.146644002491535 2.656053283099469 L 1.153507683230941 2.663319768765445 L 1.16111094176136 2.669806403755023 L 1.167904702243458 2.663273800915842 L 1.169050506992568 2.653363014422691 L 1.167789484481003 2.64347130416321 L 1.164172073380075 2.634172161523355 L 1.158831323312078 2.625730372006273 L 1.152480945623327 2.61800993740146 L 1.145651018524935 2.610705979994852 L 1.138727604344092 2.603490855331811 L 1.13205610910038 2.596043634983585 L 1.126042901288811 2.588060216531415 L 1.121228041882378 2.579307156262355 L 1.118917627298515 2.572728140097328 " id="ID_777"/>
    <path d="M 1.185917630480844 2.343728129220412 L 1.178570740135272 2.350512167790695 L 1.171260329602443 2.357335462681525 L 1.164026842906944 2.364240179385017 L 1.15691303631302 2.371268017348198 L 1.149964841061695 2.378459461553184 L 1.143232011288731 2.385852696921197 L 1.136768375458305 2.393482112047797 L 1.130631463209126 2.401376379883361 L 1.124881259047275 2.409556228375882 L 1.11957766939373 2.418032583542576 L 1.11477795263773 2.426803551400725 L 1.110531682383194 2.435855183865992 L 1.106341438105333 2.44493366672858 L 1.101871169657707 2.453878752511331 L 1.09752839584774 2.462885908026494 L 1.09366075818487 2.47210562264758 L 1.090917625968587 2.480062120070929 " id="ID_778"/>
   </g>
   <g id="ID_0" color="rgb(0,0,0)" stroke="currentColor" fill="none" stroke-width="0.00005039721436807565"/>
  </g>
 </svg>