<?xml version="1.0" encoding="UTF-8" ?>
 <svg viewBox="-1.428751862465751 -1.753767015003191  0.3464341258049819 0.3649038719544251" xmlns="http://www.w3.org/2000/svg" version="1.0" overflow="visible">
  <defs>
   <g id="ID__#42_Model_Space"/>
   <g id="ID__#42_Paper_Space0"/>
   <g id="ID__#42_Paper_Space"/>
  </defs>
  <g id="draft" transform="matrix(1 0 0 -1 0 0)" stroke-width="5.039721436807565E-5">
   <g id="Layer_#32_1" color="rgb(255,0,255)" stroke="currentColor" fill="none" stroke-width="0.00005039721436807565"/>
   <g id="Poliline" color="rgb(0,0,0)" stroke="currentColor" fill="none" stroke-width="0.00005039721436807565">
    <path d="M -1.389082491825092 1.540728091079959 L -1.387540041949292 1.530857139509874 L -1.384669051686172 1.521284938578862 L -1.380671123532896 1.512124996254518 L -1.375648194661135 1.503484301102496 L -1.369639736446174 1.495498295998006 L -1.362649461629615 1.488358200992616 L -1.354677818374869 1.482338411249887 L -1.345778492389186 1.477811292049212 L -1.336145619354518 1.475203852759463 L -1.33108248907024 1.474728087945127 " id="ID_750"/>
    <path d="M -1.419082493250016 1.532728090699979 L -1.411156392724417 1.53882450326204 L -1.402449838455111 1.543662885483161 L -1.392721957320419 1.543234155931642 L -1.389082491825092 1.540728091079959 L -1.379308551256306 1.538754438632429 L -1.370345183935687 1.534375658849434 L -1.362519712506535 1.528173823252004 L -1.355796232252015 1.520782333885827 L -1.349982492621302 1.512651124436658 L -1.344872268009277 1.504057966500392 L -1.340285927489463 1.495174456741262 L -1.336062957967931 1.486108631237058 L -1.332045868474421 1.476950727071031 L -1.33108248907024 1.474728087945125 L -1.330028347493675 1.468538816465445 L -1.330315464582308 1.45855343961252 L -1.33644318595959 1.451779500318465 L -1.346121646272178 1.449328056360808 L -1.355582490233928 1.44622808659145 " id="ID_751"/>
    <path d="M -1.355582490233928 1.44622808659145 L -1.359962558886532 1.447059470539228 L -1.369243037260608 1.450724251105407 L -1.377664396429925 1.456097326136955 L -1.385281444848388 1.462567843371932 L -1.392183034901284 1.46980011048679 L -1.39843056758029 1.477605985604851 L -1.404047958244034 1.485876975007558 L -1.409018097211875 1.494552049811691 L -1.413270186184775 1.503599911356596 L -1.416647708216171 1.51300735882828 L -1.418825682183447 1.522757930515378 L -1.419082493250016 1.532728090699979 L -1.42234909137194 1.540758955498214 L -1.423082493440006 1.550728091554933 L -1.414907698805799 1.556477117024323 L -1.406048815223249 1.561097276226043 L -1.396572431159891 1.56425029215913 L -1.386674100314849 1.565540171516856 L -1.376736711407617 1.564641276617324 L -1.367264466558354 1.561503508597006 L -1.358669235540242 1.55642571947096 L -1.351122134260877 1.549882876959998 L -1.34458097747157 1.542325921546986 L -1.338633320866876 1.534288249877286 L -1.333002921730194 1.526024159687436 L -1.327542250828348 1.517646979327617 L -1.322139524309236 1.509231941692437 L -1.316861347244921 1.500739154651983 L -1.312091105507607 1.491952603417633 L -1.308214308816136 1.482742097468737 L -1.305917901748311 1.473027980473791 L -1.306303594571916 1.463081115308089 L -1.310192172195774 1.453932015957203 L -1.316886815977479 1.446549216551721 L -1.325097548338022 1.440865416312302 L -1.329082488975246 1.43872808623522 " id="ID_752"/>
    <path d="M -1.423082493440006 1.550728091554933 L -1.425989264287528 1.560289681477858 L -1.427801717554215 1.570119563726512 L -1.428678131786771 1.580077936254649 L -1.428751862465751 1.590075401459271 L -1.428128713993471 1.600054188980385 L -1.426889898416802 1.609975786834377 L -1.425096129225054 1.619812479851947 L -1.42279119107187 1.629542294180529 L -1.420004561349256 1.639145393189654 L -1.416753022612775 1.648601298217956 L -1.413041279556534 1.657886253032813 L -1.40886152514259 1.666970108199485 L -1.404191757317982 1.675811889820478 L -1.398992437197499 1.684352608412613 L -1.393200835052821 1.692502399949377 L -1.386722757496233 1.700115259074477 L -1.379471616722491 1.70699536286415 L -1.371767387515776 1.71336860000007 L -1.363721965197584 1.719305289716148 L -1.355363261658311 1.724792487449073 L -1.346720106861004 1.72981952705445 L -1.337821048517179 1.734378306004959 L -1.328694491552368 1.738462680670245 L -1.319368367613999 1.742068232392682 L -1.309869986712578 1.745191970325553 L -1.300225960601301 1.747832056421545 L -1.290462185827225 1.749987563371927 L -1.280603873798707 1.751658272242858 L -1.270675846064101 1.752844491479788 L -1.26070181516184 1.753547035526976 L -1.250705085025606 1.753767015003191 L -1.240708573436855 1.753505810452004 L -1.230737124561157 1.752765285706221 L -1.22081280264219 1.751547650903013 L -1.210958217096537 1.749855540087036 L -1.201196194303039 1.747692175896343 L -1.191549712268407 1.745061535890528 L -1.182041200480798 1.741968302831974 L -1.172693595374512 1.738418333892866 L -1.16352933130333 1.734418557135882 L -1.154570846345454 1.729977368053079 L -1.145839678124372 1.725104430767823 L -1.13736221630615 1.719803613745527 L -1.129216815640547 1.714006776332336 L -1.121528934027285 1.707617105979339 L -1.114441477195509 1.700567131120006 L -1.108088970369122 1.692850309898098 L -1.102552623640401 1.684528147302383 L -1.097837338979606 1.67571377026681 L -1.093878077663715 1.66653376748297 L -1.09057021012406 1.657098478676198 L -1.087799953635182 1.647490983039565 L -1.085512703332429 1.637757383873143 L -1.083794444824979 1.62790769814339 L -1.082714616575673 1.617968173815985 L -1.082317736660769 1.607978180991397 L -1.082614865871836 1.597984678829266 L -1.083581928381156 1.588033435599784 L -1.085166319520998 1.578161352467835 L -1.087276854093566 1.568387547869395 L -1.089289051459518 1.558592528537491 L -1.091217691228103 1.548780425172363 L -1.093563994332494 1.53906198403345 L -1.096879683803721 1.529634905878237 L -1.101509772004888 1.520782758779356 L -1.107333167048266 1.512658983902696 L -1.113578080361767 1.504849124677365 L -1.120092851419284 1.497262751988296 L -1.126865494113563 1.489905632154854 L -1.133887771286582 1.482786394877299 L -1.141155553714326 1.475915467582224 L -1.148662382661508 1.469310536940524 L -1.156408552761996 1.462987805741803 L -1.164393222772705 1.456969302562731 L -1.172616160060594 1.451281091679643 L -1.181076734841339 1.445954004616192 L -1.189775236515683 1.441022927118842 L -1.198707708429373 1.436529796568811 L -1.207867990027907 1.432521800322836 L -1.217244960137504 1.429052043893586 L -1.226821395240234 1.426178659541546 L -1.236570897644678 1.423963672755588 L -1.246456336332188 1.422470046934678 L -1.256428093512812 1.421757500641627 L -1.262290918229662 1.414486949376586 L -1.26557734702936 1.405058078560823 L -1.271088188615348 1.39676529946873 L -1.279247152763737 1.391107705064493 L -1.288938864575687 1.388863143048766 L -1.298776183774962 1.390286293020233 L -1.307534135806428 1.395026231723939 L -1.314701653204248 1.401966953329486 L -1.320320166938519 1.410223343565411 L -1.324536093213621 1.419281100585015 L -1.327446893697679 1.428840466591873 L -1.329079619050581 1.438699074860856 L -1.329082488975245 1.438728086235219 " id="ID_753"/>
    <path d="M -1.329082488975245 1.438728086235219 L -1.339062195035745 1.439177314394957 L -1.34892892518314 1.440487728281 L -1.355582490233928 1.44622808659145 " id="ID_754"/>
   </g>
   <g id="ID_0" color="rgb(0,0,0)" stroke="currentColor" fill="none" stroke-width="0.00005039721436807565"/>
  </g>
 </svg>