<?xml version="1.0" encoding="UTF-8" ?>
 <svg viewBox="-1.162950479717654 -6.244596326754677  0.17807279568944567 0.09685270159320769" xmlns="http://www.w3.org/2000/svg" version="1.0" overflow="visible">
  <defs>
   <g id="ID__#42_Model_Space"/>
   <g id="ID__#42_Paper_Space0"/>
   <g id="ID__#42_Paper_Space"/>
  </defs>
  <g id="draft" transform="matrix(1 0 0 -1 0 0)" stroke-width="5.039721436807565E-5">
   <g id="Poliline" color="rgb(0,0,0)" stroke="currentColor" fill="none" stroke-width="0.00005039721436807565">
    <path d="M -1.162749473262351 6.17772831132564 L -1.160516303877575 6.168023449187231 L -1.155872901889281 6.15918532673269 L -1.150013743092248 6.151086797735959 L -1.141385794357194 6.147743625161469 L -1.131402509430944 6.148162465544661 L -1.121551002524794 6.149847998197342 L -1.111956665066466 6.152644480114909 L -1.102746680416189 6.156524257266884 L -1.094110532866847 6.16154925022707 L -1.08636209757123 6.167850165511919 L -1.080036216317617 6.17556620629144 L -1.075933294042909 6.18464632946334 L -1.074793725093471 6.194538983469275 L -1.076582476982139 6.204228312584323 L -1.080371445649301 6.213398129292673 L -1.081719166070787 6.223303340983172 L -1.083835453394664 6.233051483553501 L -1.083991657021556 6.23345487647251 L -1.087416461871725 6.234396282767225 " id="ID_525"/>
    <path d="M -1.087416461871725 6.234396282767225 L -1.087709793465994 6.235499816658643 L -1.091453498200014 6.244596326754677 L -1.100449617380164 6.243404619460098 L -1.104717015723917 6.234441083166314 L -1.109300477346905 6.225590503604313 L -1.114696605553259 6.217172384610621 L -1.120624231934265 6.209122321862114 L -1.127385681168483 6.201764786185549 L -1.135239775593505 6.195599594748029 L -1.144223422767951 6.19125779958734 L -1.153980516490964 6.189181352052088 L -1.162950479717654 6.187261248005007 L -1.162749473262351 6.17772831132564 L -1.152850551845598 6.176439713843089 L -1.14291258742061 6.177333225315215 L -1.133430431961043 6.180444749589673 L -1.124769966638486 6.185415425318412 L -1.117034356785577 6.191738729742348 L -1.110148840432155 6.19898352206712 L -1.103977539728042 6.206848315422671 L -1.098382067978262 6.215134165691872 L -1.093237290135444 6.223708031597225 L -1.088427785750106 6.232474965322944  z" id="ID_526"/>
    <path d="M -1.083991657021556 6.23345487647251 L -1.075563793772107 6.238808089369359 L -1.066246435933744 6.242392784526184 L -1.056408600859514 6.244102882299429 L -1.0464199309538 6.244063855363012 L -1.036546744525898 6.242527759901289 L -1.026943354242735 6.239759975676848 L -1.01768863685968 6.235982953255156 L -1.00882311343783 6.231363794849411 L -1.000374474574345 6.226019162381812 L -0.9923749931251464 6.220022740034142 L -0.9848776840282083 6.213409389955305 L -0.9876802849125709 6.204386323774479 L -0.9941403256289325 6.196774351867717 L -1.001370996334667 6.190503712566941 L -1.010880945273534 6.193543102560922 L -1.019877329133624 6.197901532927208 L -1.028685051278151 6.202636215737613 L -1.037708422411276 6.206937865290587 L -1.047237163364307 6.209921519004042 L -1.055082475960944 6.210728312893057 L -1.064007296127925 6.209512685982804 L -1.068559789595724 6.207238838689438 L -1.070082476673405 6.205728312655569 L -1.076582476982139 6.204228312584323 " id="ID_527"/>
   </g>
   <g id="ID_0" color="rgb(0,0,0)" stroke="currentColor" fill="none" stroke-width="0.00005039721436807565"/>
  </g>
 </svg>