<?xml version="1.0" encoding="UTF-8" ?>
 <svg viewBox="2.403171554611946 -8.729409007675883  0.5495492026816509 0.7045813555109444" xmlns="http://www.w3.org/2000/svg" version="1.0" overflow="visible">
  <defs>
   <g id="ID__#42_Model_Space"/>
   <g id="ID__#42_Paper_Space0"/>
   <g id="ID__#42_Paper_Space"/>
  </defs>
  <g id="Poliline" color="rgb(0,0,0)" stroke="currentColor" fill="none" stroke-width="0.0001567663197740744" transform="matrix(1 0 0 -1 0 0)">
   <path d="M 2.563917695932332 8.079728401665793 L 2.567044702171116 8.070277408740166 L 2.573118743514223 8.062393402454369 L 2.58140797100155 8.05687393803196 L 2.59097948227847 8.054112616471674 L 2.600930708689801 8.054413690532199 L 2.610151146804725 8.058124454870113 L 2.617174433054262 8.065142244021068 L 2.611519239455707 8.071911125793937 L 2.604390160057496 8.07892035865591 L 2.597617655174863 8.08627725390299 L 2.590967736589856 8.093745742137909 L 2.584196159964324 8.101103476445532 L 2.577063824203261 8.10810997695686 L 2.569397475610555 8.107081870756407 L 2.56497809204024 8.098218052819593 L 2.563796682327251 8.088308799472333  z" id="ID_389"/>
   <path d="M 2.404917688380237 8.511728422184692 L 2.405700682210532 8.501759382490256 L 2.406728459748785 8.491812589418384 L 2.407993843938699 8.481893214810391 L 2.40948856582669 8.47200579072054 L 2.411203360659776 8.462154142212473 L 2.413128072921046 8.452341337900172 L 2.415251765297495 8.442569658414524 L 2.417562862745624 8.432840436855056 L 2.420049127858908 8.423154591387094 L 2.422697926713016 8.413511911107717 L 2.425496208888364 8.40391152968505 L 2.428430600940236 8.394351857843866 L 2.431487461712081 8.384830626645456 L 2.434652922673936 8.375344935466247 L 2.437912913137568 8.365891303501211 L 2.441253170927363 8.356465723057031 L 2.444659238709088 8.347063715346579 L 2.448116448015891 8.337680385418729 L 2.451609890812858 8.328310480040194 L 2.455124381029678 8.3189484459378 L 2.458644406777452 8.309588491470098 L 2.462157131372168 8.300225796221511 L 2.46570261783141 8.290875470783451 L 2.46929861943648 8.28154442353816 L 2.472945840931284 8.272233271811796 L 2.476645011690311 8.262942637885528 L 2.480396881959789 8.253673161269877 L 2.484202221425888 8.244425504387943 L 2.488061817147102 8.235200359378046 L 2.491976475872175 8.225998444151061 L 2.495947023733848 8.216820504984163 L 2.499974306482623 8.20766731779323 L 2.504059189704198 8.198539689464546 L 2.508202559067177 8.189438459139353 L 2.512405320330823 8.180364500036951 L 2.516668399708939 8.171318720499722 L 2.520992743857232 8.16230206586672 L 2.525379319980173 8.153315520071509 L 2.529829115866729 8.144360107375674 L 2.534343079113944 8.135437013214913 L 2.536853434355045 8.126427112563402 L 2.53376733064652 8.116917910074667 L 2.53145721013271 8.107191345933327 L 2.529999517178818 8.097301601710267 L 2.529498396096833 8.08731844735242 L 2.530087177681776 8.077341415905307 L 2.531922711730204 8.067519139376724 L 2.535162793137987 8.058069363034335 L 2.539915385055681 8.049285737729473 L 2.54616771339992 8.041499521976476 L 2.553740549433178 8.03499008545287 L 2.562328389102914 8.029889660637902 L 2.571638014592472 8.026285533832507 L 2.581515510284426 8.024827652164939 L 2.591510148462059 8.0248677010424 L 2.601460383781589 8.025841971385024 L 2.611335264021924 8.027415319047924 L 2.621237331647255 8.028795656632616 L 2.631139839991498 8.03017384479842 L 2.640724277733445 8.032956289990583 L 2.649153799308242 8.038253407967218 L 2.655522960815416 8.045916532709924 L 2.665442295440754 8.046948533026905 L 2.675428425883707 8.047436680954247 L 2.685428292230603 8.047562222419847 L 2.695427115426764 8.047480489559023 L 2.705425491546352 8.047365633483519 L 2.7154247344541 8.047408278748097 L 2.725415157432261 8.047812814548053 L 2.735365420240589 8.048789349517895 L 2.745208696598509 8.050534706607275 L 2.754847790032768 8.053203207387941 L 2.764150550178332 8.056865740898605 L 2.773102511097441 8.061302458066624 L 2.781751950088358 8.06631311634598 L 2.790098562344171 8.07181800531184 L 2.798156500141068 8.07773823566147 L 2.805952060212207 8.084000616700301 L 2.813518496951864 8.090538272330097 L 2.820893516542576 8.09729099310125 L 2.828117666780067 8.104204859835855 L 2.835233117045757 8.11123111209904 L 2.842282256045477 8.118324005379016 L 2.849307948430657 8.125439827810428 L 2.856354042934173 8.132535962290714 L 2.86346376276218 8.139567678709795 L 2.870681521133047 8.146488393771675 L 2.878052594463735 8.153247809395555 L 2.887034226944164 8.156744864037567 L 2.897015488716366 8.15724908523286 L 2.906998287458945 8.157759417996377 L 2.916562834042925 8.160525732774987 L 2.924953685896465 8.16592281373009 L 2.932129404124449 8.172872277610526 L 2.938229883168236 8.18078813666194 L 2.943332991224469 8.189380676487271 L 2.947443552630373 8.198490882344595 L 2.950491901104077 8.208009736298221 L 2.952329634372992 8.217832299164378 L 2.952720757293597 8.22781372603876 L 2.951347027753778 8.237704449001171 L 2.948225654880069 8.247193510056176 L 2.943628500951039 8.256061678041604 L 2.937667296672518 8.26407788034509 L 2.930575751920907 8.271114532102269 L 2.922623721017192 8.277168321860607 L 2.914056070493439 8.28231733606371 L 2.905060450619144 8.28667941118297 L 2.895769261685765 8.290379548253767 L 2.886280799922008 8.293532720773126 L 2.876659712165044 8.296246025547326 L 2.866944792514781 8.298621177059658 L 2.862624798877292 8.307318993021601 L 2.858766274111011 8.316544332353631 L 2.854933442471267 8.325780853183227 L 2.851119811060307 8.335024927783932 L 2.847318391373159 8.344274290455944 L 2.843522628252777 8.35352582605505 L 2.839725754497239 8.362777166622587 L 2.835921355113423 8.372025346338157 L 2.832103013202599 8.38126769308124 L 2.828264382570461 8.39050167626627 L 2.824399347013895 8.399724548321863 L 2.820501874952213 8.408933720918373 L 2.816566052389934 8.418126705200144 L 2.812586406494142 8.427300387497432 L 2.808557094228401 8.436452926936989 L 2.804473082043738 8.445581065727414 L 2.800328938476393 8.454682894140994 L 2.796120480089656 8.46375423966514 L 2.791842852616864 8.472792919925508 L 2.787491883875727 8.481795805050904 L 2.783062913250135 8.490761279623674 L 2.778552421592317 8.499685907755943 L 2.773956744188999 8.508567112368095 L 2.769272727001669 8.517401876898825 L 2.764497252522899 8.526187678871278 L 2.759627674708949 8.53492167909655 L 2.754661396869846 8.54360150647225 L 2.749596578409211 8.552224028110508 L 2.744388183949744 8.560760330498008 L 2.738851979395576 8.569087272798715 L 2.733011380766689 8.577203749037093 L 2.726915423808874 8.585130345977001 L 2.720609971131914 8.592891308632044 L 2.714137398499045 8.600513899782932 L 2.70753775582469 8.608026672003806 L 2.70084857477846 8.615459876291146 L 2.694105972965839 8.622844680178346 L 2.68733876972512 8.630206893783168 L 2.680463885093884 8.63746835780821 L 2.673446512266034 8.644592429155296 L 2.666287422030779 8.65157352889926 L 2.658985899804241 8.658406259751766 L 2.651541674839224 8.665083314194776 L 2.643953418104667 8.671596670885739 L 2.636219902981466 8.677936254831849 L 2.62833840219559 8.684090898681141 L 2.620305784237451 8.690046878358118 L 2.612118670281986 8.695787205690916 L 2.603770975226726 8.701292434093151 L 2.595257380016916 8.706537010630694 L 2.586570415881114 8.711489598979831 L 2.577702224911772 8.716109598043966 L 2.568643612473487 8.720344303342404 L 2.559385684841629 8.724123025210497 L 2.549921849742847 8.727348707573737 L 2.540270935429621 8.729409007675883 L 2.530412287936217 8.727904263578848 L 2.520414133399459 8.727989223575975 L 2.510469743710268 8.72714962532321 L 2.500739329066044 8.724859636920392 L 2.491261164662768 8.721682601152606 L 2.4821296640057 8.717618367642594 L 2.473430453331435 8.712695896298934 L 2.465235674658292 8.70697220025405 L 2.457596497234932 8.700524837410693 L 2.450541289724316 8.693442542026295 L 2.444077352079929 8.685815872863127 L 2.438195847574144 8.677730936946428 L 2.432876576836928 8.6692650181187 L 2.42809274822582 8.660485047713788 L 2.423814625798288 8.651447593653579 L 2.420012102594166 8.642199762155748 L 2.416656354879404 8.63278046482 L 2.413720799796242 8.623221662931613 L 2.411181728546655 8.613549951396358 L 2.409018435795757 8.603787297446935 L 2.407213361117693 8.593952087051582 L 2.405752120093218 8.584059922941618 L 2.404623524378822 8.57412428607244 L 2.40381964139617 8.564157093116862 L 2.403335942285317 8.554169321474872 L 2.403171554611946 8.544171209755477 L 2.403329743650941 8.534172882046454 L 2.403818630148026 8.524185304840284 L 2.404652329191303 8.514220633710288  z" id="ID_38A"/>
   <path d="M 2.894917711653988 8.192728407033005 L 2.895936482725333 8.192997439689664 L 2.904835977521746 8.19742143759201 L 2.911372291551055 8.204906048704025 L 2.914859883420795 8.21422972828415 L 2.91538864443745 8.22418162570253 L 2.913130738421351 8.233888792837595 L 2.908096186541311 8.242478099939756 L 2.900411378411647 8.248782037508853 L 2.890917711463998 8.251728409835353 L 2.884523560570277 8.253712843179038 L 2.885917711226511 8.248728409692863 L 2.886052199400352 8.248164317988744 L 2.888340443733495 8.23842961906762 L 2.890322332656674 8.228629152391479 L 2.891631929940603 8.218718469971474 L 2.891917711511496 8.208728407792965 L 2.892230799575353 8.197783792940731 L 2.892389414339185 8.192239098969837  z" id="ID_38B"/>
  </g>
  <g id="ID_0" color="rgb(0,0,0)" stroke="currentColor" fill="none" stroke-width="0.0001567663197740744" transform="matrix(1 0 0 -1 0 0)"/>
 </svg>