<?xml version="1.0" encoding="UTF-8" ?>
 <svg viewBox="0.6402087224826049 -6.502739060620164  0.4226101664821812 0.3556637449512001" xmlns="http://www.w3.org/2000/svg" version="1.0" overflow="visible">
  <defs>
   <g id="ID__#42_Model_Space"/>
   <g id="ID__#42_Paper_Space0"/>
   <g id="ID__#42_Paper_Space"/>
  </defs>
  <g id="draft" transform="matrix(1 0 0 -1 0 0)" stroke-width="5.039721436807565E-5">
   <g id="Poliline" color="rgb(0,0,0)" stroke="currentColor" fill="none" stroke-width="0.00005039721436807565">
    <path d="M 0.9629176198889126 6.18972831189561 L 0.9664128708716797 6.188986835521622 L 0.974917620458882 6.184728311658123 L 0.9847571671071647 6.18607416397427 L 0.9945229468430083 6.184062197962923 L 1.003727463691224 6.180174168015567 L 1.012524548518389 6.175422134303205 L 1.02118629615053 6.170424534036515 L 1.03001835392665 6.165739096512 L 1.039379195167109 6.162273659422497 L 1.049271859804242 6.162154073550775 L 1.057532634576764 6.167524415769316 L 1.062818888964786 6.175965592775216 L 1.05913546308975 6.183934461643076 L 1.052641795975211 6.191539066335603 L 1.046258801387843 6.199236857485725 L 1.039956983006738 6.207001284616735 L 1.033705792541815 6.214806553717981 L 1.027474072058441 6.222627382169396 L 1.021230454443933 6.230438703627611 L 1.014943745962748 6.238215355228454 L 1.008583317861463 6.245931777093147 L 1.007917622026297 6.246728314602964 " id="ID_4C7"/>
    <path d="M 0.9002496481623438 6.280062300561244 L 0.9054360594386441 6.271518442810103 L 0.9117675209131554 6.263794772141515 L 0.9196908609181004 6.257755582430424 L 0.9292429621448414 6.255101671101547 L 0.938999217456037 6.256926496329142 L 0.9473347715884798 6.262326121571658 L 0.9532275462629894 6.270354903701059 L 0.9567898894274877 6.279675282042729 L 0.9583465229090304 6.289537871637111 L 0.958032424451316 6.299518337200368 L 0.9557434342067735 6.309232544029498 L 0.9511470367803855 6.318073595491225 L 0.9439116155446907 6.324885507009629 L 0.9345623267462048 6.328228080083185 L 0.9246311830356592 6.327773857903418 L 0.915457603466776 6.323908539204397 L 0.9078716027812392 6.317446724985384 L 0.9023300551011868 6.309159166413209 L 0.8991414365645296 6.299711166918786 L 0.898480800798155 6.289760440256438  z" id="ID_4C8"/>
    <path d="M 0.872917615614142 6.276728316027888 L 0.8769521052355554 6.267578683218796 L 0.8809183047581941 6.258398958813811 L 0.8852579356903165 6.249391863025345 L 0.8904837165526756 6.240875041700091 L 0.8970659036265571 6.233370079422995 L 0.9051312009461423 6.227496344601267 L 0.914273940587174 6.223482519537044 L 0.9240056081124627 6.221252033930266 L 0.9339851511094607 6.221004576263769 L 0.9438146674349878 6.22275196579246 L 0.9531444107335778 6.226312514492565 L 0.961734320343039 6.231410124059266 L 0.9694415126833533 6.237767164446641 L 0.9761778186807736 6.245147943446091 L 0.9818691950738873 6.253360540856873 L 0.9864346073271894 6.262249466167275 L 0.9897663984987801 6.271669711206633 L 0.9917272380076207 6.281466315665909 L 0.9920091561777057 6.291447703426108 L 0.9907122676656214 6.301356011545481 L 0.988182078950471 6.311024510206519 L 0.9844191202805108 6.320280262867774 L 0.9790700961387148 6.328706348818645 L 0.9722658083608025 6.336017761307835 L 0.9643058893645806 6.342050540261107 L 0.9554113346696722 6.346591439715179 L 0.9458703563157468 6.349527497213736 L 0.9359696657432428 6.350840996223578 L 0.9259838172800423 6.350567656644087 L 0.9161573163182277 6.348767071674517 L 0.9067164747821757 6.345500117711089 L 0.8978889066856501 6.340823967523419 L 0.8899189443727886 6.334802956988998 L 0.8830709599947725 6.327532944331564 L 0.8776095615199457 6.319172345891924 L 0.8737512002119975 6.309961807725554 L 0.8716039500173113 6.300208287850685 L 0.8711354095397236 6.290230354102168 L 0.8721941921795766 6.280295214432856  z" id="ID_4C9"/>
    <path d="M 0.8079176125268077 6.375728320730136 L 0.8008333825673332 6.382778572185127 L 0.7930295932712275 6.389024648262828 L 0.7846661868953922 6.394500692672943 L 0.7758845991922199 6.399279408985671 L 0.7667992954663819 6.40345417642709 L 0.75749918355855 6.407126419871012 L 0.7505742736268788 6.412110265184815 L 0.7523390691462942 6.42193247884993 L 0.7570936121298271 6.430634313373487 L 0.7656726528021461 6.435452516116622 L 0.7756124812710246 6.435492063130678 L 0.785240628276143 6.432851253275719 L 0.7943894800504001 6.428829208863025 L 0.8031336831518451 6.423984223521546 L 0.811547693861141 6.418580699606648 L 0.8196782164603132 6.412759324444591 L 0.8275507392428185 6.406593687224416 L 0.8351622072470705 6.400108943855264 L 0.839917614046726 6.395728321680085 " id="ID_4CA"/>
    <path d="M 0.974917620458882 6.184728311658123 L 0.9694423364630724 6.179793337350128 L 0.9615500088893087 6.173657539150649 L 0.9531856109435983 6.168181842696658 L 0.944421294259313 6.163371572321437 L 0.9353265585343244 6.159219077350278 L 0.9259654586985854 6.155707336719022 L 0.916395169946532 6.152813466938946 L 0.9066651525827883 6.150511636148065 L 0.8968182725587281 6.148775683447537 L 0.8868910913790228 6.147580734945094 L 0.8794346977657037 6.147075315668964 A 0.5000000000000009 0.5000000000000009 0 0  0 0.8231404240979527 6.150529814789596 L 0.8199870039641075 6.150902754245425 L 0.8100863374293885 6.152306698551986 L 0.8002290254180034 6.153987383122034 L 0.790433207587193 6.155994711718138 L 0.7807221229619082 6.158378448075123 L 0.7711247112523268 6.161183943479156 L 0.7616734155913454 6.164447446960321 L 0.7524020445712729 6.168191286146782 L 0.743341976246585 6.172420744118353 L 0.7345183455578779 6.177123572665936 L 0.7259424552915235 6.182264749625503 L 0.717453076264489 6.187549063079983 L 0.7090416884950796 6.192956489845507 L 0.7008640607047161 6.198709404884417 L 0.6931402801470475 6.205055615580615 L 0.6860829797095507 6.212133965095476 L 0.6797772451642407 6.219890114758137 L 0.6741539919686775 6.228156119859796 L 0.6690730045850453 6.236767405303699 L 0.6643720898042114 6.245592929248361 L 0.659957939445409 6.254565080095858 L 0.6558666705762582 6.263688550936046 L 0.6521412436558647 6.2729672409405 L 0.6488283979222392 6.282400843266309 L 0.6459777513854706 6.291984389940837 L 0.6436408733266781 6.301706159521401 L 0.6418692212265685 6.311546432756573 L 0.6407111774494681 6.321477411511247 L 0.6402087224826049 6.331462822302292 L 0.6403937535089766 6.341459086129459 L 0.641284797642566 6.351417111354735 L 0.642884860573739 6.361285984237742 L 0.6451809969650695 6.371016459083784 L 0.648145733497163 6.380564492126511 L 0.6517399943056122 6.389893827575454 L 0.655916830159832 6.398977328577454 L 0.6607470750471665 6.407727085861589 L 0.6665612003507669 6.415857377874712 L 0.67310428247721 6.423416156195926 L 0.6801718814046476 6.430488322377907 L 0.687634494579008 6.437143334060452 L 0.6954065681489059 6.44343482442979 L 0.703429577377702 6.449403523630952 L 0.7116624587176484 6.455080062391009 L 0.7200752707873486 6.46048663535948 L 0.7286464452747703 6.465638962740112 L 0.7373601482531918 6.47054685828415 L 0.7462049718905668 6.475214690780892 L 0.7551701283369355 6.479639908576407 L 0.7642565376655845 6.483818038087082 L 0.7734593615156591 6.487732757237311 L 0.782779155772177 6.491358855938863 L 0.792219842365153 6.494656064128557 L 0.8017883954004112 6.497559123684086 L 0.81149505105423 6.499957318339793 L 0.8213476696746146 6.501650564672964 L 0.8313061118942455 6.50253677578059 L 0.8413025408156392 6.502739060620164 L 0.8512935970429671 6.502344751225737 L 0.8612482868691904 6.501404266365774 L 0.8711396922745509 6.499940788603485 L 0.8809392180648477 6.497954539284056 L 0.8906120462300384 6.495422930399033 L 0.9001091166699355 6.492297286372307 L 0.9095150875378764 6.488902168520686 L 0.9189179192803154 6.485498109402178 L 0.9282635093727318 6.481940348814286 L 0.9375036582027522 6.478117729666088 L 0.9465835334499503 6.473929483537531 L 0.9554325324821527 6.469274384032978 L 0.9639544710006271 6.464046106670551 L 0.972016021154464 6.458134666742871 L 0.979435261074431 6.451437400898305 L 0.985862768629742 6.443792843133071 L 0.9911798610670174 6.435328494866447 L 0.9958660218038968 6.426495597414863 L 1.000302245814146 6.417533366356168 L 1.004940723547133 6.408675645245806 L 1.010144669421129 6.400138216425245 L 1.015685279497839 6.391813730615142 L 1.021237416947518 6.383496963820139 L 1.026459738048068 6.37497088121703 L 1.031019242704109 6.366074852748632 L 1.034642133030461 6.356759829886398 L 1.037171317058821 6.347089409350671 L 1.039107986374658 6.337279229612576 L 1.040385233531352 6.327368472302326 L 1.040048606425487 6.317385995745327 L 1.038371122395343 6.307531918149492 L 1.036133877188785 6.297785434248501 L 1.033920907240245 6.288033149082734 L 1.032188725456956 6.278186259611685 L 1.03166857792481 6.268207496673526 L 1.031602974356714 6.258209103832951 L 1.029752424034692 6.248430618621055 L 1.01808710020334 6.234327029428032 " id="ID_4CB"/>
   </g>
   <g id="ID_0" color="rgb(0,0,0)" stroke="currentColor" fill="none" stroke-width="0.00005039721436807565"/>
  </g>
 </svg>