<?xml version="1.0" encoding="UTF-8" ?>
 <svg viewBox="-0.5315279425040549 -3.144393304771154  0.31099032783057545 0.3140618297000901" xmlns="http://www.w3.org/2000/svg" version="1.0" overflow="visible">
  <defs>
   <g id="ID__#42_Model_Space"/>
   <g id="ID__#42_Paper_Space0"/>
   <g id="ID__#42_Paper_Space"/>
  </defs>
  <g id="draft" transform="matrix(1 0 0 -1 0 0)" stroke-width="5.039721436807565E-5">
   <g id="Layer_#32_1" color="rgb(255,0,255)" stroke="currentColor" fill="none" stroke-width="0.00005039721436807565"/>
   <g id="Poliline" color="rgb(0,0,0)" stroke="currentColor" fill="none" stroke-width="0.00005039721436807565">
    <path d="M -0.3980824447551185 3.045728162563623 L -0.3974862821819069 3.055637578588639 L -0.3914583201688293 3.063316203128586 L -0.3819070722403888 3.065971922355986 L -0.3719335388173315 3.065564691415584 L -0.3621323510269816 3.063612503049311 L -0.3525637735950653 3.060718252784079 L -0.3432259605923003 3.057146074149423 L -0.3341218752601751 3.053013435078648 L -0.3252798177392311 3.048346504922644 L -0.3167914679317549 3.043065603463652 L -0.3090128792449738 3.036801408439153 L -0.3023465487879129 3.029357357542355 L -0.2965594450090858 3.021206489423104 L -0.2914622774544782 3.01260550804908 L -0.2869464731020628 3.003685083915826 L -0.2829664098976385 2.99451268455015 L -0.2795484551356289 2.98511661656224 L -0.2768797808057863 2.975483324731202 L -0.2764997903031681 2.965616844218994 L -0.2815482727597791 2.95705618043746 L -0.2889730236865233 2.950399566069478 L -0.2979266574642425 2.946034040612149 L -0.3078074172403129 2.945400178086321 L -0.3163101015081446 2.950241473646174 L -0.3188901703227005 2.95988763306545 L -0.3205229811582972 2.969753119469292 L -0.3230141921603886 2.979424346434507 L -0.3268398738940705 2.988659728788791 L -0.3315215342558648 2.997491784269906 L -0.3370368333969944 3.005828857351914 L -0.3433441282982281 3.013583815470653 L -0.3503848292863134 3.02067968378067 L -0.3580859272959893 3.027052409164301 L -0.3663648145062659 3.032653775008789 L -0.375133977188387 3.03745201622773 L -0.3843041510524898 3.041430585294611 L -0.3937895832510598 3.044587425507957  z" id="ID_675"/>
    <path d="M -0.5180824504548128 3.059728163228587 L -0.513815182850661 3.050703253359198 L -0.5049463484608303 3.046676726732911 L -0.4951188957566881 3.048004065828727 L -0.4862100927367115 3.052491494295511 L -0.4783162998420068 3.058615346498394 L -0.4712950682838449 3.065729043981516 L -0.4650640261056181 3.073545840913393 L -0.4596198069253852 3.08192969490882 L -0.4550467605197906 3.090817661398254 L -0.4515576246782978 3.100181408297634 L -0.4496068464848504 3.109973417940846 L -0.4501493805184636 3.119915116727042 L -0.458666366026459 3.124002764482936 L -0.4686123551355257 3.124668791227609 L -0.4784172619745411 3.122822543466394 L -0.487621581590183 3.118953391182074 L -0.4959964705879596 3.113509797673868 L -0.503407940869595 3.10681024838041 L -0.509719654632038 3.099066820051765 L -0.5147368634433285 3.090429601459225 L -0.5181600333018573 3.081049817056216 L -0.5195675623041618 3.071171288317991 L -0.5184999455691495 3.061258608441429  z" id="ID_676"/>
    <path d="M -0.4310824463225345 3.128728166505911 L -0.4332236637652569 3.129087319777466 L -0.4416930841121661 3.134243622435413 L -0.4503638599785429 3.139043811041725 L -0.4602620288056709 3.140169758831435 L -0.4701716422222999 3.138934463735003 L -0.4798018971349381 3.136261443760902 L -0.4891235511191665 3.132649644987104 L -0.4981479186180931 3.128348298358712 L -0.5065448541719544 3.122937578146389 L -0.5139809394831582 3.116267712067788 L -0.5202680663310888 3.108505058202471 L -0.5252617129251594 3.099853098862435 L -0.5288545159631158 3.090531683627636 L -0.530964680152195 3.080767271412236 L -0.5315279425040549 3.07079362965084 L -0.5304988779862665 3.060857743393849 L -0.5278637588283459 3.051223115320784 L -0.5236619816708119 3.042161669438954 L -0.518005783157145 3.033929126661497 L -0.5110824501223306 3.026728161661171 L -0.5010950638682461 3.026499179539886 L -0.4911907266726301 3.027806349563121 L -0.4815910451415571 3.030575618422538 L -0.4724774622763484 3.03467258690364 L -0.4639841735884822 3.039938159609771 L -0.4562074243302306 3.046215099129158 L -0.4492203077004709 3.053361325467326 L -0.4430868388082372 3.061252736309203 L -0.4378728729005799 3.0697796839258 L -0.4336535648104949 3.078839880331845 L -0.4305177344070552 3.088327312188793 L -0.4285650583775596 3.098129711630189 L -0.4279034563391902 3.108100038887085 L -0.4286283123687369 3.11806487286627 L -0.4307990819303722 3.127816382254058  z" id="ID_677"/>
    <path d="M -0.5110824501223306 3.026728161661171 L -0.5148767760138995 3.017479061248209 L -0.5178828364543177 3.007944732814026 L -0.520058636872962 2.998187567217009 L -0.5213656275910897 2.988276748129964 L -0.5217711388266766 2.978288552582805 L -0.5212514136018127 2.968305642120119 L -0.5197949773779378 2.958416113561122 L -0.5174056643013909 2.948709737231155 L -0.5141046642780074 2.939274383132447 L -0.509932349588671 2.93019047811625 L -0.5052555919615074 2.921351859051599 L -0.5003109333945713 2.912660339205899 L -0.4950708487129765 2.904143733907073 L -0.4895078587040969 2.895834834350411 L -0.4835944970599178 2.887771579011269 L -0.4773047039469747 2.879998652130888 L -0.4706149064658752 2.872567549977336 L -0.4635060632659247 2.865536731217915 L -0.4559663780156358 2.858970966303205 L -0.4479936010279433 2.852938817297998 L -0.4395986123346161 2.847509849093784 L -0.4308074220166001 2.842749502890539 L -0.4216613232970535 2.83871301076701 L -0.4122152195415652 2.835439787140371 L -0.4025331068767493 2.832949257843642 L -0.3926721805228181 2.831305852070276 L -0.3827095653523766 2.830466317120565 L -0.3727120366387524 2.830331475071064 L -0.3627265458396032 2.830844757341484 L -0.3527927831330011 2.831979241763331 L -0.3429487430411617 2.833731051182651 L -0.3332389302569441 2.83611567705153 L -0.3237180646892162 2.839166860736099 L -0.3144585117281862 2.842936237462618 L -0.30556065413057 2.847492171350426 L -0.2971651923660001 2.852915995487402 L -0.2894685931787491 2.859289800250271 L -0.2824793514900161 2.866440666455615 L -0.2757011398835045 2.873792970151363 L -0.269131806916179 2.881333004894944 L -0.2628068989464536 2.889077884087466 L -0.2567689217622782 2.897048594431524 L -0.2510733539614254 2.905267138095322 L -0.2457920952039556 2.913757420641003 L -0.2410199647781992 2.922543354910136 L -0.2368830729569353 2.931644759100729 L -0.2335487627631618 2.941068461806386 L -0.2310779703210493 2.950756484752709 L -0.2287944885407906 2.96049111448352 L -0.2266354077454586 2.970255023123764 L -0.2246692584233152 2.980058783147162 L -0.2229759979865928 2.989913268517158 L -0.2216493099857759 2.999823572966127 L -0.2207968004286469 3.009785532769532 L -0.2205376146734794 3.019780030857178 L -0.2209951240666523 3.029766757971957 L -0.2222829019941654 3.03967996848068 L -0.224484973201351 3.049430352727357 L -0.2276364899059473 3.058916282125091 L -0.2317145680536594 3.068042553763007 L -0.2366451578658335 3.076738364907072 L -0.2423226079300402 3.084966839667341 L -0.2486311966935348 3.092722863091559 L -0.2554611853664976 3.100024705655428 L -0.2627693377514504 3.106846929749314 L -0.2705666427500706 3.113104639848771 L -0.2787830843798487 3.118801292097197 L -0.2873593814596091 3.12394056976883 L -0.2962456739714065 3.128523250904656 L -0.3053988132512213 3.132546734568293 L -0.3147801614076524 3.136004939514233 L -0.3243537836631614 3.138888444358883 L -0.3340849197775224 3.141184808962595 L -0.3439386914373568 3.142879076792443 L -0.353878993927097 3.143954469276994 L -0.3638675855802091 3.144393304771154 L -0.3738634113127812 3.144178165606286 L -0.3838222295551477 3.143293314940846 L -0.3936967066741728 3.141726307895931 L -0.4034365759649594 3.139469788375134 L -0.4129902618836701 3.136523055384177 L -0.4223059637984071 3.132893518801397 L -0.4310824463225336 3.128728166505911 " id="ID_678"/>
   </g>
   <g id="ID_0" color="rgb(0,0,0)" stroke="currentColor" fill="none" stroke-width="0.00005039721436807565"/>
  </g>
 </svg>