<?xml version="1.0" encoding="UTF-8" ?>
 <svg viewBox="0.798424257802032 -2.97638592385477  0.2974667207753021 0.26948075153011697" xmlns="http://www.w3.org/2000/svg" version="1.0" overflow="visible">
  <defs>
   <g id="ID__#42_Model_Space"/>
   <g id="ID__#42_Paper_Space0"/>
   <g id="ID__#42_Paper_Space"/>
  </defs>
  <g id="draft" transform="matrix(1 0 0 -1 0 0)" stroke-width="5.039721436807565E-5">
   <g id="Layer_#32_1" color="rgb(255,0,255)" stroke="currentColor" fill="none" stroke-width="0.00005039721436807565"/>
   <g id="Poliline" color="rgb(0,0,0)" stroke="currentColor" fill="none" stroke-width="0.00005039721436807565">
    <path d="M 0.9089176173240502 2.816728151686707 L 0.9137012201166694 2.807953734942959 L 0.9197149085479159 2.799979823821782 L 0.9272301636784323 2.793419931323622 L 0.9362299568452332 2.789148622859253 L 0.9460977261728347 2.787787366200825 L 0.9559272285995499 2.789497924961645 L 0.965382455241845 2.792736959949287 L 0.9744557138248267 2.796931601063278 L 0.9830046807395174 2.802106092469948 L 0.9903629277883281 2.808824773546428 L 0.9953356300898059 2.817461405893682 L 0.9978434735585954 2.827116279016054 L 0.9981210193723316 2.83709469942995 L 0.9964632338309789 2.846942067775044 L 0.9930830714804566 2.856339299368329 L 0.9881005017967616 2.86499441216932 L 0.9815867032380261 2.872559722156225 L 0.9736428895616198 2.878596192560927 L 0.9645151674546807 2.882617776137227 L 0.954679121635408 2.884272594358861 L 0.9447253041741223 2.883564190072458 L 0.9350834444227587 2.880957474604102 L 0.9260997933958616 2.876607784801247 L 0.9183259823413152 2.87035810908126 L 0.9123373509769656 2.862383090736798 L 0.9084351828071888 2.853199710484956 L 0.9065319780923957 2.843397825112496 L 0.9063222494290315 2.833409750843182 L 0.9074742460892482 2.823482582413685  z" id="ID_6FE"/>
    <path d="M 0.8859176162316089 2.827728152209179 L 0.8897022683366415 2.818472331296682 L 0.8934092171421861 2.809184753032857 L 0.8973896583532301 2.800012251429651 L 0.9020299446713977 2.791158558637219 L 0.9077703072513293 2.782983679756281 L 0.9150019950990389 2.776110186711354 L 0.9237358093118333 2.771304222162509 L 0.933420339820266 2.768916480793867 L 0.9434009659017261 2.768624766980938 L 0.9533149927804416 2.769868356383685 L 0.963022138379145 2.772251888877422 L 0.9724611862596751 2.775544548093948 L 0.9815834512702075 2.779634005414383 L 0.9903129677893875 2.784505154565955 L 0.9985202258902061 2.790210253815944 L 1.005978083979101 2.796860724733742 L 1.012276273126027 2.804609671906741 L 1.016699540830071 2.813547119560469 L 1.018799192099286 2.823304019661348 L 1.01904577433011 2.83329056951857 L 1.017894718063151 2.843217629779895 L 1.015594917100908 2.852944259132343 L 1.012138414202687 2.862320301618167 L 1.007453597228935 2.871145713555401 L 1.001564459522041 2.879216087012384 L 0.9945585718811037 2.886337346896093 L 0.9865747154657702 2.892346514104188 L 0.9777981866651916 2.897111781255246 L 0.9684159375389462 2.900547164431399 L 0.9586307981836608 2.902586278308985 L 0.9486574709644299 2.903180848479298 L 0.938705678451229 2.902299030223973 L 0.9290016961087186 2.899925555999379 L 0.919784125424762 2.896075334845694 L 0.9112947639399857 2.890811303597931 L 0.9037551946441242 2.884258881594609 L 0.8973352963239511 2.8766054861071 L 0.8920654628289711 2.868115556159041 L 0.887939071213232 2.859016896077434 L 0.8852336942548646 2.849402029435038 L 0.8843080203912627 2.839461197356371 L 0.8854605061428548 2.829547985756892  z" id="ID_6FF"/>
    <path d="M 0.7989176120993307 2.754728148741865 L 0.8068370458794476 2.748769031682947 L 0.8165927929119235 2.746913246733781 L 0.8265077638430922 2.748067652666923 L 0.8361920496901663 2.750550251580802 L 0.8458132511844427 2.753274842572306 L 0.8556118539624835 2.755225870187221 L 0.8636054376162993 2.751567140173706 L 0.8698720517738491 2.74377892427482 L 0.876827130388837 2.736598758386945 L 0.8844156850259548 2.730091804459931 L 0.8925702646314146 2.724309527989229 L 0.9012158612041876 2.719291043531585 L 0.9102760154691988 2.715066453044943 L 0.919675810852211 2.711664535972317 L 0.9293443558958847 2.709123800570116 L 0.9392097156767649 2.707514190142809 L 0.9491869961503498 2.706905172324653 L 0.9591781337190363 2.707239442571559 L 0.9691036618846987 2.70843494203139 L 0.9789041151998905 2.71041138882952 L 0.9885351054309943 2.7130953959149 L 0.9979629647506618 2.716422697248864 L 1.007162171038041 2.720339173420358 L 1.016111414378397 2.724800351052145 L 1.024788546890427 2.729769056891417 L 1.03317306532543 2.735216635510555 L 1.04124184460886 2.741120866422605 L 1.048969456718675 2.747466632091699 L 1.056322509868875 2.754242091835477 L 1.063261453584148 2.76144081323939 L 1.069736339589715 2.769059468738037 L 1.075683670742757 2.777096220162741 L 1.081022876676176 2.785548736025344 L 1.085651600193254 2.79441002015125 L 1.089440624636093 2.803660185621216 L 1.092232545354323 2.813256973098408 L 1.093845845862938 2.82311807561547 L 1.094673268670052 2.833083474717028 L 1.095271661996648 2.843065390930419 L 1.095680409785884 2.853056969263562 L 1.095890978577334 2.863055176232792 L 1.095796774520874 2.873054107706343 L 1.094719677060481 2.882990300569703 L 1.092601152676293 2.89275977488457 L 1.089592038019453 2.902293215736245 L 1.08577104197028 2.911531537304712 L 1.081183816739258 2.920413778358838 L 1.075860683925057 2.928875896823438 L 1.069829119287535 2.93684817384585 L 1.063120309358376 2.944259334664323 L 1.055774795433519 2.951039744054389 L 1.047837439442424 2.95711564107273 L 1.039303887827406 2.962320994189024 L 1.030329973154783 2.966727062324384 L 1.02103461396041 2.970405110633292 L 1.011478918154371 2.973345547180366 L 1.00170209629856 2.975426483946604 L 0.9917545062209081 2.97638592385477 L 0.981761315783995 2.976192506419039 L 0.9718405269327687 2.974965227239241 L 0.9620747396453666 2.972828158047443 L 0.9525169883364164 2.969895999998618 L 0.9432003801348356 2.96626805379104 L 0.934145243459385 2.962026927801231 L 0.9253671391977977 2.957241083033451 L 0.9168746986028768 2.951963724455811 L 0.9086774113705429 2.946237185718066 L 0.9007868234090219 2.940094608232048 L 0.8932171534481563 2.933560692839312 L 0.8859873088732754 2.926653019745279 L 0.8791225982966528 2.919382676297692 L 0.8726575372105047 2.911755214080082 L 0.8666390209265513 2.903770937839656 L 0.8611319555542866 2.895426487252196 L 0.8562261475281172 2.886715457979871 L 0.8520488584436468 2.877633593054444 L 0.8487818789888557 2.868187674586215 L 0.8466483551119887 2.85842446484284 L 0.8456434095686118 2.848479593074705 L 0.8455112910862334 2.838482475224962 L 0.8458647190277037 2.828489151889051 L 0.8462609505438152 2.818497174499215 L 0.8462568564536345 2.808499580986723 L 0.8454593587201797 2.79853628779433 L 0.8425954415774006 2.789270097236849 L 0.834060756126373 2.784154468825397 L 0.8245937500405631 2.780950322302969 L 0.8150115716721746 2.778093250303593 L 0.8058569198877777 2.774124277637502 L 0.7991932519711727 2.766895678362686 L 0.798424257802032 2.757060932594608  z" id="ID_700"/>
   </g>
   <g id="ID_0" color="rgb(0,0,0)" stroke="currentColor" fill="none" stroke-width="0.00005039721436807565"/>
  </g>
 </svg>