<?xml version="1.0" encoding="UTF-8" ?>
 <svg viewBox="3.041231169151139 -2.138236315369121  0.3226865647791537 0.29719889749542716" xmlns="http://www.w3.org/2000/svg" version="1.0" overflow="visible">
  <defs>
   <g id="ID__#42_Model_Space"/>
   <g id="ID__#42_Paper_Space0"/>
   <g id="ID__#42_Paper_Space"/>
  </defs>
  <g id="draft" transform="matrix(1 0 0 -1 0 0)" stroke-width="5.039721436807565E-5">
   <g id="Layer_#32_1" color="rgb(255,0,255)" stroke="currentColor" fill="none" stroke-width="0.00005039721436807565"/>
   <g id="Poliline" color="rgb(0,0,0)" stroke="currentColor" fill="none" stroke-width="0.00005039721436807565">
    <path d="M 3.354917733502816 1.889728107656569 L 3.344923148811647 1.889398974177101 L 3.334926849233028 1.889124262496027 L 3.324929091306836 1.888914286119408 L 3.314929907186055 1.888779761767807 L 3.30492986421064 1.888733028858418 L 3.294929792928684 1.888789194856448 L 3.28493107033908 1.888967631956834 L 3.274936004369902 1.889294253186992 L 3.264948601606151 1.889805352257463 L 3.254976659892387 1.890554665417671 L 3.245034016580699 1.891619969522016 L 3.235054610754469 1.892190846252725 L 3.22505781414692 1.891990135291756 L 3.215069093527084 1.891515728457719 L 3.205072537904628 1.891310529601547 L 3.195095026405986 1.891924911317449 L 3.185173216941313 1.893168077046007 L 3.175278610124442 1.894616437547201 L 3.165364137972616 1.895919550163979 L 3.155398576811784 1.8967216187848 L 3.145404234027513 1.896624789018959 L 3.135517476052919 1.895193825675292 L 3.126037642454045 1.892059662673649 L 3.117363912630773 1.887117088455557 L 3.108035362384653 1.883741576536221 L 3.09901342209233 1.879448957171744 L 3.090611862455984 1.874035157615901 L 3.082742054264112 1.86786984156267 L 3.075244132577104 1.861254887052185 L 3.067932827937342 1.854432512820677 L 3.060614263861705 1.84761809093325 L 3.053085801877156 1.841037417873694 L 3.044405393828162 1.841266379787956 L 3.043549531863495 1.851229406818513 L 3.042731179198799 1.861194226166741 L 3.04202074553004 1.871167875050636 L 3.041495963913167 1.881154266107172 L 3.041231169151139 1.891152241916882 L 3.04128496738353 1.901150823602659 L 3.041691317968567 1.911141385149424 L 3.042457954825446 1.921110935802893 L 3.043570973655228 1.931048390795844 L 3.045002472441669 1.940945022090192 L 3.046741252791818 1.950791929843644 L 3.048885691171145 1.960558685669822 L 3.051373875877809 1.970243697143372 L 3.054159570563735 1.979847506273635 L 3.057228326836048 1.989365153301788 L 3.060588366303672 1.998783918067982 L 3.063994668415439 2.008185583838175 L 3.066980859775293 2.017729024925062 L 3.069634473925489 2.027370483258323 L 3.072096107913454 2.037062733579633 L 3.074545694594528 2.046757953929764 L 3.077198555807679 2.056398659403647 L 3.080294947429109 2.065905075091309 L 3.084073704824279 2.075159430368078 L 3.089106480839957 2.083776631637029 L 3.095194939830886 2.091708517021364 L 3.101662538802449 2.099335689079014 L 3.10843291180954 2.106696195703779 L 3.115516402674037 2.113753201780578 L 3.122980483302491 2.120405775727382 L 3.130970223377653 2.126411560657631 L 3.139732019457346 2.131206879865237 L 3.149066118334346 2.134775266147416 L 3.158778803130287 2.137127678772603 L 3.168711664228238 2.138236315369121 L 3.178705721576193 2.138148555215764 L 3.188630951439757 2.136968446916139 L 3.198395259793652 2.134828052907646 L 3.207942697846609 2.13186344357569 L 3.217244950585653 2.128200256266898 L 3.226293618506009 2.1239469658312 L 3.23509104189244 2.119194644242949 L 3.243646005215888 2.114018305786951 L 3.251970118402866 2.108479569185822 L 3.260077486050265 2.102627988049199 L 3.267981552839824 2.096504513218505 L 3.275695707090784 2.090142495826629 L 3.283242692782314 2.083582480840474 L 3.29087324283288 2.077119904345327 L 3.298665777389762 2.070852783670886 L 3.306585142691799 2.064745748813313 L 3.314592399373548 2.058754004856471 L 3.322650056613424 2.052827528476385 L 3.330719893444591 2.046920525804031 L 3.338772211918879 2.040990500925488 L 3.346782052037662 2.035004166031333 L 3.354730656733767 2.028936976245327 L 3.362604212534614 2.02277297197925 L 3.363917733930293 2.021728113926233 " id="ID_78A"/>
   </g>
   <g id="ID_0" color="rgb(0,0,0)" stroke="currentColor" fill="none" stroke-width="0.00005039721436807565"/>
  </g>
 </svg>