<?xml version="1.0" encoding="UTF-8" ?>
 <svg viewBox="0.6766958186931991 -2.616353275501777  0.2791507478814744 0.25063730512663396" xmlns="http://www.w3.org/2000/svg" version="1.0" overflow="visible">
  <defs>
   <g id="ID__#42_Model_Space"/>
   <g id="ID__#42_Paper_Space0"/>
   <g id="ID__#42_Paper_Space"/>
  </defs>
  <g id="draft" transform="matrix(1 0 0 -1 0 0)" stroke-width="5.039721436807565E-5">
   <g id="Layer_#32_1" color="rgb(255,0,255)" stroke="currentColor" fill="none" stroke-width="0.00005039721436807565"/>
   <g id="Poliline" color="rgb(0,0,0)" stroke="currentColor" fill="none" stroke-width="0.00005039721436807565">
    <path d="M 0.71291760801455 2.530728138102436 L 0.7159653938667914 2.521223466086786 L 0.7212441007573079 2.512770233325436 L 0.7288779300343134 2.506385883692466 L 0.7382098359894913 2.502923182839614 L 0.7481654608899034 2.502470781413146 L 0.7579051028648501 2.50462466636187 L 0.7668866522722562 2.508972249274799 L 0.7746604591919848 2.515226810016526 L 0.7803210763087769 2.52340911747922 L 0.7843343686136377 2.532563236177544 L 0.7875029156103857 2.542044387373065 L 0.7897997943392375 2.551774625538913 L 0.7908450458850665 2.561708372014397 L 0.7894412306931793 2.571551156391802 L 0.7841913223389856 2.579998736672649 L 0.7765242870787379 2.58636410602253 L 0.7674146352910336 2.590416139239733 L 0.7575402291924025 2.591721851508292 L 0.7476724452204655 2.59026358840774 L 0.7383656465781315 2.586650581659446 L 0.7299057885371117 2.581342825494882 L 0.722503742588704 2.574636817430695 L 0.7164178985250063 2.566721427457338 L 0.7120269743359238 2.557758737294113 L 0.70986125382629 2.54802472263046 L 0.7104525304779586 2.538078544785529  z" id="ID_768"/>
    <path d="M 0.6929176070646 2.526728137912446 L 0.6933203005448965 2.527774094753709 L 0.6912632984037215 2.537406602599451 L 0.6900143565060608 2.547317517534272 L 0.6903769483207656 2.557297617703003 L 0.6925209018750698 2.567049596723304 L 0.6964526771549462 2.576227736097273 L 0.7019989669569826 2.584532562570679 L 0.7088751483331626 2.591778183741157 L 0.7167779604662261 2.597891467052049 L 0.7254425644816651 2.602869984623213 L 0.7346573931868275 2.606739157028544 L 0.744256280453377 2.609524439379789 L 0.754103521679757 2.611236876604662 L 0.7640786896834308 2.611866726113513 L 0.7740615063240668 2.611381547362817 L 0.7839176113868689 2.609728141854734 L 0.790345103706625 2.602188444344545 L 0.7975380784701258 2.595254778865186 L 0.8036609093549991 2.587359739756339 L 0.808545522826467 2.578644305124193 L 0.8121075585826069 2.569309697082552 L 0.8143533929720039 2.559572667386929 L 0.8153561057063534 2.54962915315658 L 0.8152214894334601 2.539634480978984 L 0.8140594198410129 2.529706786232038 L 0.81196616972829 2.519931606477857 L 0.8090164543013731 2.510379682484323 L 0.8052591805736125 2.501115617005739 L 0.800714532026988 2.492211582707966 L 0.7933872150171215 2.485613890465844 L 0.7852911224810973 2.479754901508368 L 0.7763814070091711 2.475244468588332 L 0.7667900424561385 2.472471167889027 L 0.7568424166839423 2.471627029726773 L 0.7469229946156731 2.472756425906375 L 0.7373945199864123 2.475743401730996 L 0.7285340605704614 2.48035408932994 L 0.7205082465303178 2.486303950421914 L 0.7137773536921693 2.493665895787803 L 0.7083316318010376 2.502048743007929 L 0.7033276614302278 2.510706714744761 L 0.698185142047441 2.519282055458079  z" id="ID_769"/>
    <path d="M 0.7839176113868689 2.609728141854734 L 0.7934495385130697 2.61274091524644 L 0.8032142462117848 2.614880907108615 L 0.8131360008350734 2.616098511675744 L 0.8231286794914511 2.616353275501777 L 0.8330972099154897 2.615614947792892 L 0.8429381874115583 2.613864175721639 L 0.8525415903205528 2.611092967833135 L 0.8617911279240821 2.607305423801847 L 0.8705651752587701 2.602519038773451 L 0.8787382387602589 2.596766820099118 L 0.8861837609729121 2.590100126850579 L 0.8927790098500594 2.582591623834288 L 0.89841237476314 2.574337163147005 L 0.9029924882512236 2.565455036820001 L 0.9064573823560975 2.556081338095063 L 0.9087810507582174 2.546361361620531 L 0.910016468674894 2.536442135623232 L 0.9108353922117532 2.52647626524236 L 0.9116668582406467 2.516511466628768 L 0.9127021024284998 2.506565397585424 L 0.9141557966083171 2.496672760392073 L 0.9164048160192227 2.486934159156998 L 0.9204131877788848 2.4778117583334 L 0.9272958924360628 2.470654367094734 L 0.9362846374446522 2.466319183755231 L 0.9453096039838877 2.462038421216909 L 0.9532775946639295 2.45602857978894 L 0.9558465665746735 2.446909434946315 L 0.9547599803768411 2.43699363581847 L 0.9508387789059087 2.427857487500382 L 0.9436945318586182 2.420952504220696 L 0.9340891239446929 2.419085315398355 L 0.9246524738727295 2.422287910503309 L 0.9154643271198255 2.426227399693326 L 0.9057179049890997 2.428307170967849 L 0.8967007915763388 2.425418199605344 L 0.8894663330523702 2.418518658812514 L 0.8822538224899423 2.411592438042491 L 0.8749990258994184 2.404709202123813 L 0.867612840727303 2.397971022185281 L 0.8599786313116988 2.391514300771744 L 0.8519788228594773 2.385516942308022 L 0.8435297857494958 2.380173688665234 L 0.8346188371550367 2.37564369593308 L 0.8253090600979993 2.371995532517505 L 0.8157146201539156 2.369196871030469 L 0.8059249746676933 2.367169562684159 L 0.7959980737877395 2.365991355636184 L 0.7860054562152126 2.365715970375143 L 0.7760305886234456 2.3663682362558 L 0.7661613430354564 2.367951108658003 L 0.7564807866943264 2.370446843292675 L 0.7470704458816037 2.373818196225077 L 0.7379982961077838 2.378015169494194 L 0.7293217420200167 2.382979791588921 L 0.7210889932189986 2.388650372232325 L 0.7133397331739602 2.394965830167022 L 0.7061075323752269 2.401868556920728 L 0.699424383048223 2.409304059021531 L 0.6933215240665307 2.417222972897194 L 0.687948686739798 2.425651610114947 L 0.6835362772931592 2.434619021076366 L 0.6802084683162404 2.444042372494013 L 0.6780083993648596 2.453791543305303 L 0.6768813493897153 2.463723415209182 L 0.6766958186931991 2.473718536242291 L 0.677284686439756 2.483699294021809 L 0.6782926211074845 2.493648717632584 L 0.6796397867538922 2.503553416657965 L 0.682404458450173 2.513146539330307 L 0.6874721330169971 2.521721538246849 L 0.6929176070646009 2.526728137912446 " id="ID_76A"/>
   </g>
   <g id="ID_0" color="rgb(0,0,0)" stroke="currentColor" fill="none" stroke-width="0.00005039721436807565"/>
  </g>
 </svg>