<?xml version="1.0" encoding="UTF-8" ?>
 <svg viewBox="-0.5838590555218115 -3.695108780885989  0.4433042826098355 0.41783081767777785" xmlns="http://www.w3.org/2000/svg" version="1.0" overflow="visible">
  <defs>
   <g id="ID__#42_Model_Space"/>
   <g id="ID__#42_Paper_Space0"/>
   <g id="ID__#42_Paper_Space"/>
  </defs>
  <g id="draft" transform="matrix(1 0 0 -1 0 0)" stroke-width="5.039721436807565E-5">
   <g id="Layer_#32_1" color="rgb(255,0,255)" stroke="currentColor" fill="none" stroke-width="0.00005039721436807565">
    <path d="M -0.3718832247607224 3.607929361141746 L -0.3690824433776925 3.606062173553059 " id="ID_592"/>
   </g>
   <g id="Poliline" color="rgb(0,0,0)" stroke="currentColor" fill="none" stroke-width="0.00005039721436807565">
    <path d="M -0.5240824507397975 3.553728186692328 L -0.5335237140518708 3.556988944002828 L -0.5434038015316114 3.558382536103177 L -0.5531848130209785 3.556679157436551 L -0.5598330001637182 3.549961676763864 L -0.5600824524497048 3.543728186217352 " id="ID_58E"/>
    <path d="M -0.4550824474624733 3.518728185029917 L -0.4491990754640103 3.511069261583688 L -0.439447080771485 3.509197368454691 L -0.4294505456319531 3.508968361737275 L -0.4194912603048069 3.509767661887781 L -0.4097279013912587 3.511899827573893 L -0.4002891917803524 3.515186578613343 L -0.3912683207220633 3.51948900922178 L -0.3827440264133734 3.524709103648802 L -0.3748045079365543 3.530781476508636 L -0.367559788994738 3.537668450652255 L -0.3611638953768645 3.545347469561384 L -0.3558334890529968 3.553798474997318 L -0.3518741600072524 3.562967760262685 L -0.3496812697559868 3.57270597940475 L -0.3496622704110344 3.582682783347195 L -0.3520285856817402 3.592372926914409 L -0.3576601103939527 3.600510069759183 L -0.3663689645885171 3.605289144002833 L -0.3690824433776925 3.606062173553059 " id="ID_58F"/>
    <path d="M -0.3718832247607233 3.607929361141746 L -0.3766792610713168 3.61396011337338 L -0.3864648012412983 3.616010241124079 L -0.3963730716403386 3.617344054553388 L -0.4063582948136455 3.617792146950527 L -0.4162945167235801 3.616809750382406 L -0.4258248214010996 3.613834130454089 L -0.4346850182414422 3.609220373553615 L -0.4427765355840974 3.603358141777434 L -0.4500688744682329 3.596524076290039 L -0.4565342734073035 3.588901887774881 L -0.462113052921227 3.580608930910887 L -0.4666805162061163 3.571720207610038 L -0.4699951454155089 3.562295785999998 L -0.4715978260856471 3.552443390846883 L -0.4706502335064018 3.542529684513088 L -0.4660824479849453 3.533728185742379 L -0.4609679888724996 3.525142595960451 L -0.4550824474624733 3.518728185029917 L -0.4451096975019633 3.518140811540048 L -0.4351533787346052 3.518990520407882 L -0.425381896276079 3.521088165764997 L -0.4159131264539502 3.524288358713322 L -0.4068433035231563 3.528489056917679 L -0.3982679022665669 3.533624263895436 L -0.3902974573721396 3.539655203990614 L -0.3830718768607504 3.546559847271264 L -0.3767738392466073 3.554317968011629 L -0.3716375837488322 3.562886994136606 L -0.3679409596984398 3.572165304420012 L -0.3659598952458367 3.581951574514695 L -0.3658764974112145 3.591934539135774 L -0.367686974107329 3.601753786772603 L -0.3690824433776925 3.606062173553059 " id="ID_590"/>
    <path d="M -0.4660824479849453 3.533728185742379 L -0.4625955542455201 3.543095466882565 L -0.4581393003102204 3.552042581075751 L -0.452792105286834 3.560487850444776 L -0.4466420994471579 3.568368135986792 L -0.439779144530502 3.57563664452298 L -0.4322900162321659 3.582258385201571 L -0.4242550610334402 3.588206345312007 L -0.415747841535441 3.593456951920435 L -0.4068357933360672 3.597986696828186 L -0.3975819135753005 3.601769420998245 L -0.388047675506761 3.604774165485359 L -0.3782930780195626 3.606964656926876 L -0.3718832247607224 3.607929361141746 " id="ID_591"/>
    <path d="M -0.5140824502648229 3.404728179615208 L -0.5135288566557206 3.40381699203932 L -0.5086026677297646 3.395115894460319 L -0.5040404807542754 3.386217614785211 L -0.4996701329933586 3.377223193491916 L -0.4953155256834672 3.368221135683732 L -0.4907972929088374 3.359300443082506 L -0.48414601247464 3.351833274250278 L -0.4773694507232467 3.34447969431312 L -0.4704364281423024 3.337273570729664 L -0.4633130458896897 3.330255758488807 L -0.4559634269399622 3.323475533125915 L -0.4483511956457829 3.316991945170055 L -0.4404418608195151 3.310874578501154 L -0.4322071742931275 3.305203633265147 L -0.423629593640376 3.300066931077346 L -0.4147082779182681 3.295554567438333 L -0.4054634667878628 3.291749740412969 L -0.3959475877990925 3.288682968812615 L -0.3862893919130066 3.286094368551518 L -0.3765393708129023 3.283875069921448 L -0.3667216676731169 3.281976188093501 L -0.3568540837378737 3.280355617459417 L -0.3469499400600808 3.278976349873367 L -0.3370183571151948 3.277810080094351 L -0.3270359494733226 3.277277963208211 L -0.3170443426492691 3.277611278999762 L -0.3071107762817986 3.278739717078785 L -0.2972868995662861 3.280597084731434 L -0.2876131732413354 3.283123250084997 L -0.2781213669920284 3.286264787510798 L -0.2688368826965242 3.28997485481549 L -0.2597801592430544 3.294212879615841 L -0.250970680129047 3.298942509994828 L -0.2424241685429171 3.30413256774513 L -0.2341558405951334 3.309755107771302 L -0.2261798119835765 3.315785318286108 L -0.2185100935842765 3.32220045163538 L -0.2111602018526062 3.328979716610962 L -0.2041436460035388 3.336103510778887 L -0.1974738078340223 3.343553120874908 L -0.1911641618709918 3.351310043421804 L -0.1852277226906889 3.359356178692127 L -0.1796772152335704 3.367673219580641 L -0.174524802961864 3.376242532131886 L -0.1697818657279706 3.385045008145363 L -0.1654587588688585 3.394060975003004 L -0.1615644383377575 3.403270483846046 L -0.1581052573303916 3.412652173500454 L -0.1549587067919127 3.422144060767941 L -0.1520034381469033 3.431697342634098 L -0.1492199249237762 3.441301949403595 L -0.1466164781704116 3.450957042214836 L -0.1442300769898539 3.460667885627357 L -0.1421525982725704 3.470449154091289 L -0.1408542012180689 3.480359948208171 L -0.140554772911976 3.49035176005135 L -0.1411353425933042 3.500332328605423 L -0.1424408842275815 3.51024501485242 L -0.1443084704245221 3.520068078220317 L -0.1465851350290181 3.529805394472802 L -0.1491348784066986 3.539474676776348 L -0.1518401062197743 3.549101763330815 L -0.1546262766328734 3.558705667707595 L -0.157788978696809 3.568191193824503 L -0.1614574764565546 3.577492531395289 L -0.1656552626157435 3.586566989855406 L -0.1703950639963985 3.595370255582718 L -0.1756762799769902 3.603859534645616 L -0.1814840150456431 3.611997523605641 L -0.1877898904526463 3.619755863055914 L -0.1945546772981395 3.627117531780097 L -0.2017320994494867 3.634077619312982 L -0.2092753400315717 3.64064449228872 L -0.2171315536167233 3.646830066632963 L -0.2252567321799122 3.652658098834443 L -0.2336098008282814 3.658154944010046 L -0.2421546628698756 3.663348775377173 L -0.2508605110490967 3.668268152162365 L -0.2597012962904674 3.67294077379487 L -0.2686552757078653 3.677392868000342 L -0.2776831859743503 3.681692945824881 L -0.2868627345037398 3.685655770043926 L -0.2962847415668666 3.688997721688094 L -0.3059344530305168 3.691610591013661 L -0.3157545934417056 3.693482201421934 L -0.3256861371852011 3.694637884051205 L -0.3356714303229529 3.695108780885989 L -0.3456687036190233 3.694930078784441 L -0.3556356900149593 3.694137731565207 L -0.3655401475356061 3.692767162222811 L -0.3753535943655617 3.690852184879215 L -0.3850531696458121 3.688423964398396 L -0.3946192430773667 3.685510794665608 L -0.4040327187034763 3.682138748262682 L -0.4132768341706444 3.678331150745279 L -0.4223401266122364 3.674106816585625 L -0.4312069592049177 3.669484028203868 L -0.4398630758146887 3.664478462100438 L -0.448294483059839 3.659103594327476 L -0.4564874201554919 3.653370593744472 L -0.4644257474800142 3.647290166869542 L -0.4720928555642674 3.640871441932034 L -0.4794709415761576 3.634122481679792 L -0.4865402991554664 3.627051018388057 L -0.4932795844867171 3.619664394650255 L -0.49966539413861 3.611970191583862 L -0.5056719448805868 3.603977009203319 L -0.5112723605899534 3.595693141101438 L -0.5189581121343548 3.591167014714619 L -0.5289052309464175 3.590144573308332 L -0.538804378797253 3.588732988984242 L -0.5486370871613149 3.586914521168871 L -0.558396043053806 3.584734267125586 L -0.5679611814303219 3.581855095863028 L -0.5766188921169393 3.576924710092184 L -0.5826576411830695 3.569084817523625 L -0.5838590555218115 3.559271974851466 L -0.5808320332228512 3.549792550957572 L -0.5748156473793609 3.541879020402962 L -0.5665126468412282 3.536362336738676 L -0.5572568401022595 3.532597186582112 L -0.5477240587197647 3.52958509271553 L -0.5381963401428465 3.526550194542513 L -0.5387904163612501 3.517053277771939 L -0.5391008891435352 3.507062175009934 L -0.5385151444122211 3.497082646681192 L -0.5371637656763025 3.487174091223359 L -0.5351933613495721 3.477372698949221 L -0.5327484107240786 3.467676931926712 L -0.5299665905433227 3.458071837768558 L -0.5269765727131573 3.448529285606001 L -0.5239005141411539 3.439013960692212 L -0.5208584818150808 3.429487885287711 L -0.5179733304973988 3.419913439833919 L -0.5153757936380537 3.410257560010142  z" id="ID_593"/>
   </g>
   <g id="ID_0" color="rgb(0,0,0)" stroke="currentColor" fill="none" stroke-width="0.00005039721436807565"/>
  </g>
 </svg>