<?xml version="1.0" encoding="UTF-8" ?>
 <svg viewBox="0.8942904125229791 -8.528728422992147  0.08662720822088754 0.1427308731467729" xmlns="http://www.w3.org/2000/svg" version="1.0" overflow="visible">
  <defs>
   <g id="ID__#42_Model_Space"/>
   <g id="ID__#42_Paper_Space0"/>
   <g id="ID__#42_Paper_Space"/>
  </defs>
  <g id="draft" transform="matrix(1 0 0 -1 0 0)" stroke-width="5.039721436807565E-5">
   <g id="Poliline" color="rgb(0,0,0)" stroke="currentColor" fill="none" stroke-width="0.00005039721436807565">
    <path d="M 0.9809176207438667 8.528728422992147 L 0.9718037938789034 8.526039840723016 L 0.9631668866979312 8.521004491865236 L 0.9548924236701132 8.515391645778992 L 0.9469625749947789 8.50930148341228 L 0.9394026105384876 8.50275801503957 L 0.9322887154380659 8.495732936556067 L 0.9257861769242454 8.488140989141343 L 0.9202697319214854 8.479812253303052 L 0.9157839397365812 8.470876887446718 L 0.9118009306548966 8.46170527041448 L 0.9082161189726728 8.452370570115239 L 0.9049811382902639 8.44290871989234 L 0.902078978113308 8.433339439656711 L 0.8995158814257191 8.423675677498315 L 0.8973183979101584 8.413918140509367 L 0.8955437302996812 8.404076891127765 L 0.8942904125229791 8.394157228354889 L 0.8987476201229478 8.385997549845374 L 0.9074433807427491 8.386284550632206 L 0.910009899893704 8.395413820610546 L 0.9112911819130662 8.40533067941361 L 0.9130080314013975 8.415181402455126 L 0.9151707864124523 8.424943826944148 L 0.9177946646387278 8.434592421250956 L 0.9208991232776622 8.444097135410294 L 0.9245071283136248 8.453422159662914 L 0.928644148904394 8.462524611548085 L 0.9333366643208681 8.471353248460943 L 0.9386099536510226 8.47984742481069 L 0.9444849721156298 8.487936679549701 L 0.9509743246332478 8.495541586378513 L 0.9580772452893686 8.502576132044787 L 0.9657754373010805 8.508953306570875 L 0.9740295615580327 8.514592088916324 L 0.9759176205063795 8.515728422374682 " id="ID_37F"/>
   </g>
   <g id="ID_0" color="rgb(0,0,0)" stroke="currentColor" fill="none" stroke-width="0.00005039721436807565"/>
  </g>
 </svg>