<?xml version="1.0" encoding="UTF-8" ?>
 <svg viewBox="-0.2916741786446488 -5.31137758484749  0.39167369539298397 0.38861467311107223" xmlns="http://www.w3.org/2000/svg" version="1.0" overflow="visible">
  <defs>
   <g id="ID__#42_Model_Space"/>
   <g id="ID__#42_Paper_Space0"/>
   <g id="ID__#42_Paper_Space"/>
  </defs>
  <g id="draft" transform="matrix(1 0 0 -1 0 0)" stroke-width="5.039721436807565E-5">
   <g id="Poliline" color="rgb(0,0,0)" stroke="currentColor" fill="none" stroke-width="0.00005039721436807565">
    <path d="M -0.2537494300871685 5.078062243469307 L -0.2503148945852249 5.068721920439668 L -0.2492120750797424 5.058791901981755 L -0.2487383463303914 5.048803753489067 L -0.2474631817949779 5.038894509671677 L -0.2440957278072693 5.029516716793741 L -0.2387396649035125 5.02107771157275 L -0.2328029225268651 5.013031348500332 L -0.2265377987569925 5.005236891511653 L -0.2199522556271845 4.997710851959276 L -0.2128428179980784 4.990683267995734 L -0.2051407059405621 4.984312564659316 L -0.1966087731518513 4.9791260364363 L -0.1870338020180195 4.97644817431108 L -0.1791431017317571 4.980572462685842 L -0.1755337604063571 4.989874756263855 L -0.1740316324967299 4.999742840005937 L -0.1744198857923669 5.009722472145395 L -0.176360383131172 5.019523401267253 L -0.1795390815369169 5.029000072081617 L -0.1837108833843013 5.038083808373026 L -0.1886996739684727 5.046747027561456 L -0.1943813611343987 5.054972993849499 L -0.2006702270510168 5.062744562110903 L -0.2075092302811852 5.07003739385114 L -0.2148614617465956 5.076812550426627 L -0.2227054912471758 5.083010967114794 L -0.2310314051883138 5.088544970862635 L -0.2398326949732725 5.093283506867275 L -0.2491522110825546 5.094599188770561 L -0.2540889817099163 5.086301068394607  z" id="ID_546"/>
    <path d="M -0.266082438485455 5.083728259363429 L -0.2666852833302578 5.073749666160869 L -0.2664133404005824 5.063756547891977 L -0.2652730793947757 5.053824957781492 L -0.2632762475343222 5.044029584460751 L -0.2604399756495574 5.034443556211206 L -0.2567870998112722 5.025137866475377 L -0.2523469103277875 5.016181180233542 L -0.2471553749817836 5.007638011960218 L -0.2412555166889225 4.999567698613809 L -0.2347661557591216 4.991960924585615 L -0.2279016380727565 4.984690579510385 L -0.2206558509441221 4.97780047910706 L -0.2129799126570075 4.971394097353705 L -0.2047948621192379 4.9656553139801 L -0.1959961609040501 4.960920048379904 L -0.1865070025532311 4.957831262418525 L -0.1765641186761071 4.95753918873651 L -0.1673265073376333 4.961156485194885 L -0.1601451645355052 4.968047831864118 L -0.1558812476443769 4.977026126127644 L -0.1538038334028009 4.986797807202302 L -0.1530718195935963 4.996764698490215 L -0.1534934475585423 5.006749903644329 L -0.1549249860206787 5.016644401188576 L -0.1572414186831041 5.026369067110063 L -0.1603423604124199 5.035873909848994 L -0.1641497285395141 5.045118905839744 L -0.1686048830277027 5.054068592282837 L -0.1736675941547263 5.062690012351306 L -0.1793110744111734 5.070942951527662 L -0.1855212147219536 5.078778236123273 L -0.1922945491092491 5.086131921752336 L -0.1996357422965316 5.092918070348296 L -0.2075541288266995 5.099019741728373 L -0.2160555810818989 5.104276300011663 L -0.2251262731306554 5.10846969957021 L -0.2347202426356505 5.111240625969808 L -0.2446713688722388 5.111914828837195 L -0.254296333132956 5.109456088145001 L -0.2617031578556359 5.102909223447276 L -0.2653440369618751 5.093664352874616  z" id="ID_547"/>
    <path d="M -0.1710824339731971 5.127728261453317 L -0.161509843529168 5.130620628556886 L -0.1519682219989304 5.13361447833376 L -0.1425985433335875 5.137101094471933 L -0.1337451316421996 5.141734140590366 L -0.1255567705765994 5.147462690290396 L -0.1180067583314424 5.154015295355284 L -0.1108385958032532 5.160987513656988 L -0.1037263734568583 5.168016824639916 L -0.0965427953460463 5.17497351607336 L -0.0892184734282244 5.181780609459327 L -0.0813385583105362 5.187925768264813 L -0.0725916138542964 5.192738684538213 L -0.0629861980957838 5.195417706941001 L -0.0541405801517563 5.192128034292224 L -0.0476555418223104 5.184560222571469 L -0.0430306420334645 5.175707740188784 L -0.0398267576809497 5.166420995605697 L -0.0470694401709277 5.159531719121438 L -0.0548600027163913 5.153265562017709 L -0.0629955696363105 5.147452228983143 L -0.071318689452597 5.141909595975781 L -0.0797013216550369 5.13645704222598 L -0.0880267031759257 5.130917813690879 L -0.0961720847975958 5.125118136438777 L -0.1039927935471701 5.118889200479154 L -0.1113099418561232 5.112077810566837 L -0.1179087149294631 5.104571066440342 L -0.1235614600928017 5.096330339208408 L -0.1260824318358118 5.091728259743409 " id="ID_548"/>
    <path d="M -0.2910824396728913 5.082728259315931 L -0.2890626654129162 5.072934353584397 L -0.286886538550644 5.063174298371882 L -0.2842942902316316 5.053517397630497 L -0.2811073700107238 5.04404090240644 L -0.2771910222703333 5.03484295854477 L -0.2721405752440624 5.02623370870859 L -0.2668884438116432 5.017749323587191 L -0.2653226033383875 5.007942698044163 L -0.2659670630976594 4.997967871963889 L -0.2670737285519316 4.988029350861205 L -0.2678278935197031 4.978059500348183 L -0.267383691211676 4.968081991547336 L -0.2643889806900503 4.958601809449342 L -0.2575741134618479 4.951434206399375 L -0.2482597152934653 4.947951452993969 L -0.2385328825129234 4.949325310935954 L -0.2292773159494645 4.95309307733317 L -0.2197145140256076 4.952337327484464 L -0.2106193237752754 4.948180878408999 L -0.2014555863687146 4.944177858129171 L -0.19221215121547 4.940362906950909 L -0.1828767945810341 4.936772329941797 L -0.1734463455884114 4.933448088715194 L -0.1639130659100783 4.930432491147421 L -0.1542754345271167 4.927772000703633 L -0.1445342570778054 4.925515268188273 L -0.1346966818763464 4.923727263430655 L -0.1247370049675123 4.922865144526317 L -0.1147398716532884 4.922762911736418 L -0.1047588015890062 4.923359204362668 L -0.0948223170879477 4.924477039034193 L -0.0849490094999874 4.926054495185969 L -0.0751502461489242 4.928046105516291 L -0.0654362118365306 4.930418242211718 L -0.0558159086968795 4.933146493072823 L -0.0462981107156386 4.936213820935324 L -0.0368925454412281 4.939609174853688 L -0.0276099100163911 4.943326894646264 L -0.0184626695938635 4.9473662447547 L -0.0094661034953196 4.951731110743493 L -0.000639198365163 4.956430041633232 L 0.0079940218891172 4.961476433885668 L 0.0164033642153054 4.966889327614611 L 0.0245467360056706 4.972691692331609 L 0.0323721376605679 4.978914505741459 L 0.0398098601670665 4.98559568446603 L 0.0467660083207342 4.992778467166799 L 0.0532913014329317 5.000354953038304 L 0.0594311360510389 5.008246333213302 L 0.0651234984645157 5.016463422189633 L 0.0703208859888065 5.02500842256134 L 0.0749903250873132 5.033849888649921 L 0.0791394714068821 5.042944345014764 L 0.0828183377530492 5.052242190067089 L 0.0861080088554358 5.061686584248026 L 0.0891077740505955 5.07122320629719 L 0.0919237772067092 5.080820571615966 L 0.0946475732274888 5.090440266490668 L 0.097275086975924 5.100088460742594 L 0.0994201306583564 5.109853371710633 L 0.0999995167483352 5.119816644747406 L 0.0991262514167275 5.129776042792435 L 0.0977620729604061 5.139682906119369 L 0.096432486837343 5.149593825524428 L 0.0958291554125435 5.159566114286219 L 0.0961210041325513 5.169561823742204 L 0.0955373681346714 5.179532680995865 L 0.0935026109850439 5.189319618629464 L 0.0911510806093325 5.199038559056781 L 0.0895310038178243 5.208901977055393 L 0.0883277263207596 5.218828880894635 L 0.0869535661864678 5.228732716035968 L 0.0847415012657651 5.238478816570998 L 0.0810058153404203 5.247738982688267 L 0.0755850649867318 5.256127392606744 L 0.069071101228003 5.263708862861656 L 0.0618660192832694 5.270639678073909 L 0.0541473355581879 5.276994568137161 L 0.0459991468095957 5.282788472385165 L 0.0374443505462683 5.287962439234072 L 0.028468476699465 5.292363947125879 L 0.019209283475 5.29613785535707 L 0.0097570277458905 5.299399228340052 L 0.0001585314173402 5.302201850011086 L -0.009552276227998 5.304586438941729 L -0.0193502720825212 5.306583853868781 L -0.0292155544342592 5.308217139720157 L -0.0391321043458923 5.309503244963697 L -0.0490864089568142 5.310454119682825 L -0.0590665795855108 5.311077521590322 L -0.06906169408414 5.31137758484749 L -0.0790612748451185 5.311355213774827 L -0.089054737249163 5.311008350335135 L -0.0990314513582593 5.310332113629222 L -0.10897954448048 5.309318916900661 L -0.118886068642106 5.30795847566154 L -0.1287363503281744 5.306237800346882 L -0.1385134389116667 5.304141169905232 L -0.1481974588978039 5.301650118629964 L -0.1577648476501352 5.298743476749028 L -0.1671871993660758 5.295397625469846 L -0.1764310233255566 5.29158658535391 L -0.1854587900665745 5.287288864841289 L -0.1942412713834889 5.282509824696794 L -0.2027509328969446 5.277260335973508 L -0.2109615066371262 5.271554343043914 L -0.2188485820241661 5.265408901405169 L -0.2263899547938353 5.258843784193317 L -0.23356587542707 5.251881027408956 L -0.2403591945133803 5.244544443288211 L -0.2467554077917997 5.236859132935276 L -0.2527426144938465 5.228851021529218 L -0.2583113997450637 5.220546443096368 L -0.2634546740198314 5.211971767453577 L -0.2681674674297403 5.203153103475348 L -0.2724467124362562 5.194116056743768 L -0.2762910215614038 5.184885547654645 L -0.2797004722112488 5.17548568198221 L -0.2826764355493356 5.165939563952539 L -0.2852212656033224 5.156269688677796 L -0.2873383582174353 5.146497206110849 L -0.2890318490770758 5.136642442626741 L -0.2903065465577166 5.126724775013283 L -0.2911678366645898 5.116762656228915 L -0.2916216057602101 5.106773646632297 L -0.2916741786446488 5.096774447291661 L -0.2913322694424343 5.086780932875647  z" id="ID_549"/>
   </g>
   <g id="ID_0" color="rgb(0,0,0)" stroke="currentColor" fill="none" stroke-width="0.00005039721436807565"/>
  </g>
 </svg>