<?xml version="1.0" encoding="UTF-8" ?>
 <svg viewBox="-0.9453461784844563 -4.384995394376641  0.4769985273650014 0.3785203668249899" xmlns="http://www.w3.org/2000/svg" version="1.0" overflow="visible">
  <defs>
   <g id="ID__#42_Model_Space"/>
   <g id="ID__#42_Paper_Space0"/>
   <g id="ID__#42_Paper_Space"/>
  </defs>
  <g id="draft" transform="matrix(1 0 0 -1 0 0)" stroke-width="5.039721436807565E-5">
   <g id="Poliline" color="rgb(0,0,0)" stroke="currentColor" fill="none" stroke-width="0.00005039721436807565">
    <path d="M -0.905582468860075 4.36122822504652 L -0.8979668258775532 4.356082296676389 L -0.8882173479859059 4.353862058614316 L -0.8784295667815307 4.351812710600437 L -0.8687311581843522 4.349383712098978 L -0.8593270587448564 4.346005351230134 L -0.8506123324336538 4.341133578708033 L -0.8461317327640065 4.333076589977663 L -0.8505175957180108 4.324430322625756 L -0.8560280747250352 4.316085750974085 L -0.8613913869998661 4.307645842799063 L -0.8665325300222095 4.299069024723914 L -0.871371664471809 4.290318575297506 L -0.8758236747666217 4.281365372447901 L -0.8797993741955725 4.272191230243201 L -0.8832089428211453 4.262792378739082 L -0.8859674930020142 4.253183511480289 L -0.8944636912601913 4.251377981642752 L -0.9033584765498234 4.255887340387547 L -0.9115275030050797 4.261652486955386 L -0.9198452540229498 4.267193966782526 L -0.9291268473288204 4.270775550541355 L -0.9389411679924482 4.269723643562002 L -0.9446480880362537 4.268230224976182 " id="ID_4EB"/>
    <path d="M -0.8880824680288696 4.193728217090697 L -0.8850205801061408 4.203233177751265 L -0.882964758663701 4.21301872052582 L -0.8812016421457933 4.222862757011085 L -0.8792443789674386 4.232668479887061 L -0.8768770094380675 4.24238289775832 L -0.8740964222261569 4.251986726107675 L -0.8708942694974438 4.26145933655043 L -0.8672737126258533 4.270779951132913 L -0.863248193963348 4.279934533796858 L -0.8588430345768536 4.288911210801874 L -0.8540898803294361 4.297708692044166 L -0.8490259364992214 4.306331124107321 L -0.843690523482417 4.314788337971659 L -0.8381224955477062 4.323094514326449 L -0.8323593517167244 4.331265302784695 L -0.8264337431768469 4.339319818179207 L -0.8201317643465273 4.347073907106894 L -0.8133655074180401 4.354434741130599 L -0.80908246427657 4.361728225070269 " id="ID_4EC"/>
    <path d="M -0.8880824680288696 4.193728217090697 L -0.886835534277507 4.183807844886004 L -0.8850245756557209 4.173974355052193 L -0.8827200343035253 4.16424440831474 L -0.8799681572927688 4.154631428076179 L -0.8767985869569647 4.145147752650336 L -0.8732291555384027 4.135807158442592 L -0.8692685053569038 4.126625573013201 L -0.8649177943293322 4.117622254664762 L -0.8601717271249977 4.108820959833128 L -0.8550192073429654 4.100251353881255 L -0.8494438205388448 4.091950803193995 L -0.8434243713493162 4.083966687862181 L -0.8369357828350167 4.076359357709721 L -0.829950999647135 4.069205920802055 L -0.8224438276449568 4.062603812112945 L -0.8144983151170369 4.056533001297783 L -0.8063450968180303 4.050743723890592 L -0.7979986743792084 4.04523666744293 L -0.7894647807394053 4.040024877942238 L -0.7807493779459476 4.035122695499765 L -0.7718588895063494 4.030545766913748 L -0.7628005744889474 4.026311084911046 L -0.753582326849842 4.022436717073347 L -0.7442136139038018 4.018942006738123 L -0.7347053655218563 4.015847199919885 L -0.7250703662113223 4.013173231406472 L -0.7153235340462257 4.01094136455492 L -0.705485023581355 4.009155677552955 L -0.695579979173699 4.007786943808527 L -0.6856225615511456 4.006876608595174 L -0.6756317654539165 4.006475027551651 L -0.6656345104405172 4.006633737513787 L -0.6556658728629179 4.007402504076637 L -0.6457696735332901 4.008825339659379 L -0.6359972313893821 4.010935724816093 L -0.6264045236489988 4.013751881978183 L -0.6170477723597472 4.017273281831419 L -0.6079782145874111 4.021479526828514 L -0.5992372918563467 4.02633214053695 L -0.5908535656225631 4.031779259275248 L -0.5829495416061637 4.037900416760999 L -0.5754371192540316 4.044499515855942 L -0.5681676426646476 4.051365918566679 L -0.5610621359276032 4.058402301769387 L -0.5540703606602185 4.065551907006872 L -0.5471535258357312 4.072774205290597 L -0.5402726392479176 4.080030927734494 L -0.5333682663660247 4.087265220192991 L -0.5262688469823713 4.09430698050926 L -0.5188950589757618 4.101062365128212 L -0.5114193114153114 4.107705323942642 L -0.5038908367111717 4.114288482449072 L -0.4963278133233429 4.120832690092814 L -0.4888838692246118 4.127507782498561 L -0.4819677805810656 4.134726056097742 L -0.475849056326636 4.142627525335607 L -0.4710114589805805 4.151362750022267 L -0.4683476511194549 4.160965199913425 L -0.4693002410103846 4.170837287757517 L -0.4717986354572928 4.180514477870387 L -0.4731939797913851 4.190416235609607 L -0.4748276182025384 4.200281096909755 L -0.4767814561729838 4.21008712678206 L -0.4790844413797509 4.219817747332115 L -0.4817642134172724 4.229452487817646 L -0.4848450667713893 4.238965285531115 L -0.4883480796470581 4.248330435228494 L -0.4922887889331831 4.257519841165004 L -0.4966758801442701 4.266504383029172 L -0.5015107943095627 4.275256389534098 L -0.5067867052320825 4.283749768144685 L -0.5124896303150539 4.291962859550826 L -0.5185988231431155 4.2998785542463 L -0.5250885761330065 4.307485512522399 L -0.5319898211084197 4.314719139293227 L -0.5393661554836804 4.321469084780108 L -0.5471296146475391 4.327770556778922 L -0.5552100244266028 4.333660601978547 L -0.5635538048239291 4.339170851006622 L -0.5721224988410905 4.344329371398506 L -0.5808802963002835 4.349155487769371 L -0.5898039439622877 4.35366768608358 L -0.5988733890788165 4.357879311167069 L -0.6080722448374916 4.36180001819253 L -0.6173873431429246 4.365436221981571 L -0.6268053514075361 4.368790269375896 L -0.6363210712095926 4.371863567644599 L -0.6459241714903277 4.374651912367919 L -0.6556072698508651 4.377148331726225 L -0.6653634306025725 4.379341878903034 L -0.6751857369044778 4.381216992028818 L -0.6850667632723672 4.382752561143872 L -0.6950009473333596 4.383920893887124 L -0.704971369628046 4.38468447835222 L -0.7149657351326449 4.384995394376641 L -0.7249624452775221 4.384789730968956 L -0.7349295381523069 4.383999520610359 L -0.7448314086478467 4.382612459422828 L -0.7546387404657598 4.380665955131849 L -0.7643390394298919 4.378239842064779 L -0.7739392334610758 4.375443214846464 L -0.7834635669147412 4.372394720165958 L -0.7929410299046955 4.369207140615708 L -0.8017384020998451 4.365142281602894 L -0.809082464276571 4.361728225070269 L -0.8190177526493798 4.361645261516953 L -0.8284713704494395 4.358423020360044 L -0.8381265243386408 4.355936852628826 L -0.8481058396900049 4.35600649260788 L -0.8579338813504807 4.357812882557034 L -0.8675663172625132 4.360495721991224 L -0.8771756957863523 4.36326125243905 L -0.8869782451820613 4.365185271028828 L -0.8969324476616167 4.364869581913097 L -0.905582468860075 4.36122822504652 L -0.9132075766377241 4.354945673497988 L -0.9175269113969327 4.34597060711431 L -0.9199657629661111 4.336278684767291 L -0.9217801657499364 4.326445065476443 L -0.9237214040369633 4.316636314459746 L -0.9263648507081665 4.306996684369973 L -0.9302806280823414 4.297808819760717 L -0.9353019039161072 4.289162447718927 L -0.9402197744779741 4.280458025174434 L -0.9439499975880512 4.27119542469102 L -0.9453461784844563 4.265265025261346 L -0.936954955306108 4.250531471824187 L -0.9292564683091519 4.244173174448 L -0.9208306964441748 4.238789606683067 L -0.9125623657763402 4.233174075844276 L -0.9054656775739244 4.226166222369903 L -0.9006950198652816 4.2174078832609 L -0.8968455854876795 4.208178927170507 L -0.8922147102481208 4.199326430363738  z" id="ID_4ED"/>
   </g>
   <g id="ID_0" color="rgb(0,0,0)" stroke="currentColor" fill="none" stroke-width="0.00005039721436807565"/>
  </g>
 </svg>