<?xml version="1.0" encoding="UTF-8" ?>
 <svg viewBox="0.9142875009759556 -3.720542532822864  0.44718497488285547 0.39235879744314417" xmlns="http://www.w3.org/2000/svg" version="1.0" overflow="visible">
  <defs>
   <g id="ID__#42_Model_Space"/>
   <g id="ID__#42_Paper_Space0"/>
   <g id="ID__#42_Paper_Space"/>
  </defs>
  <g id="draft" transform="matrix(1 0 0 -1 0 0)" stroke-width="5.039721436807565E-5">
   <g id="Poliline" color="rgb(0,0,0)" stroke="currentColor" fill="none" stroke-width="0.00005039721436807565">
    <path d="M 1.129917627820987 3.551728186597333 L 1.132782291122989 3.542155135984206 L 1.137037162501922 3.533118151857166 L 1.142892594936713 3.525034324697955 L 1.150448941417694 3.518526054104428 L 1.159458862707066 3.514261641081759 L 1.169221933082935 3.51218939835698 L 1.179182208733291 3.512569057332346 L 1.188591571877613 3.515835958978698 L 1.196666939861567 3.521680170770663 L 1.203100426409325 3.529309839458116 L 1.207968621078275 3.538030668076402 L 1.211422773071851 3.54740610750167 L 1.213523935651378 3.557174707397955 L 1.214138220681477 3.567144358724682 L 1.212654146291876 3.577001139601694 L 1.208104263359878 3.585867770105744 L 1.20133129447687 3.593184644810234 L 1.192942197182801 3.598584679106359 L 1.18358050137591 3.602050322858694 L 1.173732126406908 3.603709533915617 L 1.163744675497953 3.603640122214381 L 1.153939680664884 3.601758399314137 L 1.144834143118155 3.597700931800414 L 1.137304847158532 3.591167063932685 L 1.131830113927118 3.582838564426591 L 1.128833245743722 3.573328821374154 L 1.128210562826157 3.563368326282478 L 1.129518704633284 3.553466394559885  z" id="ID_559"/>
    <path d="M 1.10491762663355 3.546728186359846 L 1.10809546785259 3.537248039572595 L 1.111926085348386 3.528013861376614 L 1.116631588826657 3.519196132494105 L 1.122436423345736 3.51106467455617 L 1.129486819262515 3.503991842980786 L 1.137732961009518 3.498362956579587 L 1.146898493008965 3.494401187071689 L 1.156642027715183 3.492216591459772 L 1.16662120888644 3.491806960570338 L 1.176535750633751 3.493031113913946 L 1.186164391159217 3.495697603038813 L 1.195355132809556 3.499623014220876 L 1.203990116201841 3.504654166971025 L 1.211966882935662 3.510674692870091 L 1.219173668621065 3.517597907343557 L 1.225472177148516 3.525355749717654 L 1.230681872702371 3.533881456749664 L 1.234570079661571 3.543083036854095 L 1.236859677082797 3.552803445982853 L 1.237279042885699 3.562778188516947 L 1.235667365340575 3.572629130128198 L 1.232067886769018 3.581942922819543 L 1.227058225005763 3.590590337743032 L 1.221132800070233 3.598640477584403 L 1.214461843869604 3.606085366017282 L 1.207088028450403 3.61283347710138 L 1.198983880514445 3.618680034899787 L 1.190089276706656 3.623219442377243 L 1.18050477930379 3.626028987669142 L 1.170609414611151 3.627407056471326 L 1.160617716738406 3.627392332547302 L 1.150724128695918 3.625996105353033 L 1.141127217458305 3.623217541557881 L 1.132047793693009 3.619050518543552 L 1.123740905324609 3.61350374718582 L 1.116491667502569 3.606634305826414 L 1.110581631787106 3.598584910874869 L 1.106225164097514 3.589598956683381 L 1.103507267832796 3.579987959629537 L 1.102368668998663 3.570062685117598 L 1.102646756834313 3.560073862365099 L 1.104136318026931 3.550190724894605  z" id="ID_55A"/>
    <path d="M 0.9509176193189433 3.56072818702481 L 0.951731867029169 3.570692758107091 L 0.9532508519034372 3.580574704109402 L 0.9554323769835688 3.590331999165595 L 0.9582372191172465 3.59992886329412 L 0.961629692092356 3.609334213608969 L 0.9655777608301114 3.61852030817441 L 0.9700528662955685 3.627461600585368 L 0.9750295220555047 3.636133716954857 L 0.9804850138563816 3.644512977155308 L 0.9863986752737288 3.652575441377839 L 0.9927514287831185 3.660296661982426 L 0.9995251584441984 3.667651320284393 L 1.006702079769899 3.67461304320818 L 1.014264088588772 3.681154363334899 L 1.022192099345604 3.687246837457051 L 1.030465390310026 3.692861341359268 L 1.039060996466803 3.697968564568448 L 1.04795317317803 3.702539699291364 L 1.057113012672582 3.706547333082362 L 1.066508260089777 3.709966499274671 L 1.076103394955891 3.712775823332501 L 1.085860018829721 3.714958665880535 L 1.095737556953503 3.716504140201314 L 1.105694236499796 3.717407877011062 L 1.115688951470085 3.717672425939365 L 1.125680549244304 3.717307154575671 L 1.135630860248393 3.716327964729202 L 1.145261591916279 3.713732014205316 L 1.155060542399699 3.712784688604079 L 1.163707047509686 3.717675741018187 L 1.173442997213482 3.719901562225382 L 1.183413565889751 3.720542532822864 L 1.193385609987236 3.719876216129934 L 1.203233637325199 3.718160693016228 L 1.212898605034801 3.715602376790702 L 1.222355880648448 3.712356749409103 L 1.231597038603545 3.708538249267149 L 1.240620449095726 3.70422986318843 L 1.24942533591725 3.699490676461621 L 1.258008279283704 3.694360684747049 L 1.266360430022738 3.688862862553303 L 1.27446264853928 3.683002913265655 L 1.282268688062822 3.676754855585761 L 1.289634061096282 3.669994658088679 L 1.296474005240411 3.662703453158195 L 1.302733051365374 3.654907944174473 L 1.308369352761847 3.6466508957647 L 1.313359411160864 3.637987801137461 L 1.317700307373263 3.628981494007295 L 1.32140873860115 3.619696611381954 L 1.324518050148587 3.610193950427971 L 1.327073583639498 3.600527311130804 L 1.32912816694852 3.590741665077816 L 1.329917637320477 3.586228188235997 " id="ID_55B"/>
    <path d="M 1.304917636133041 3.541728186122359 L 1.31084644868997 3.542903942929008 L 1.320640798530603 3.544916911026769 L 1.330585666407985 3.545819727530421 L 1.3404176378192 3.544228186241102 L 1.347027787744082 3.545948867127933 L 1.356917638602909 3.544728186264851 L 1.359530791804648 3.54823709555875 L 1.361472475858811 3.557933120313135 L 1.360343596916257 3.567861441883895 L 1.358098259958604 3.577305687679563 L 1.349493869999539 3.582222223287091 L 1.339721622554113 3.584294542623288 L 1.329917637320477 3.586228188235995 L 1.31992900095765 3.585787822542783 L 1.309983265778123 3.584759990611459 L 1.300097918491458 3.58325474096901 L 1.290269809423045 3.581410675183832 L 1.286917635278086 3.580728187974759 " id="ID_55C"/>
    <path d="M 0.9429176189389628 3.502728184269958 L 0.9435374309426487 3.496651143174352 L 0.9451625698460777 3.486786320256754 L 0.9474603191486172 3.477055646839454 L 0.9503440936825224 3.467481868074667 L 0.9537405851294282 3.458077424844727 L 0.9575887861150844 3.44884854301717 L 0.9618387908612877 3.439797377705691 L 0.9664500220057732 3.430924644185205 L 0.9713901912403555 3.422230454244523 L 0.9766340156457342 3.413715994947121 L 0.9821631365797207 3.405383717503262 L 0.987965328206374 3.397239675917072 L 0.9940358233857677 3.389294225104004 L 1.000394820108265 3.381578049646053 L 1.007149830360937 3.374206718420452 L 1.014317246546045 3.367235791782293 L 1.021910406280557 3.360731738085254 L 1.029916028139282 3.354742111018206 L 1.038283728789855 3.349270114131636 L 1.047000114332921 3.344372926819954 L 1.056038800907254 3.340100008493079 L 1.065360789977339 3.336486716612322 L 1.074917511931836 3.333549446257487 L 1.084655329258859 3.331283422297545 L 1.094521490890207 3.329663482077551 L 1.104468341858569 3.328647928724425 L 1.114456405289931 3.32818373537972 L 1.124455601720461 3.328211923244731 L 1.134444249008995 3.328672054379584 L 1.144408906481742 3.329505473179922 L 1.154342006651288 3.330657283335611 L 1.164240344108767 3.33207729355422 L 1.174104214049926 3.33372037155148 L 1.183935951783547 3.335546266424126 L 1.193718111738033 3.337618517789058 L 1.203395014750635 3.340136277806729 L 1.212940119053017 3.343114728961154 L 1.22232542218564 3.346563864734639 L 1.231519339425608 3.350494233717849 L 1.240487001771289 3.354916320776556 L 1.249189616061727 3.359839326938605 L 1.257584685097342 3.365269957983846 L 1.265626471593902 3.371210996611242 L 1.273266936566543 3.377659786991193 L 1.280456862583709 3.384606415928892 L 1.287148849586888 3.392033438777177 L 1.293439907160985 3.399805138182651 L 1.299446933938842 3.407798331883627 L 1.305118554856196 3.416032785576923 L 1.310398496398232 3.424523554304105 L 1.315230310425532 3.433276952242199 L 1.319565030203995 3.442286786674721 L 1.323371121190527 3.451532392695337 L 1.326643816042167 3.460980163966716 L 1.329409727507114 3.470588819619738 L 1.331724124594612 3.480316443667186 L 1.333661919939364 3.490126345362677 L 1.335306274341705 3.499989981820233 L 1.336738647118308 3.509886675388585 L 1.338032401191125 3.519802562667949 L 1.339249669013724 3.529728185552389 L 1.341727967494719 3.539389620020237 L 1.3404176378192 3.544228186241102 " id="ID_55D"/>
    <path d="M 1.008917622073795 3.5647281872148 L 1.000637660022034 3.565384675676549 L 0.9906507181458756 3.564978128743502 L 0.9807239822789144 3.563779678536565 L 0.9708311035097665 3.562319648451431 L 0.960904871161059 3.561117051966199 L 0.9509176193189433 3.56072818702481 L 0.9473967712544171 3.559634706123862 L 0.9378985985414534 3.556508768183615 L 0.9286757821349026 3.552659880162961 L 0.9204296560196247 3.54706797829869 L 0.915151065662159 3.538703458628864 L 0.9142875009759556 3.528806277922356 L 0.9163095463009796 3.519031312346193 L 0.9215989436587488 3.505393018679985 L 0.9429176189389636 3.502728184269958 L 0.9526148523772439 3.505167827845676 L 0.9622357466113005 3.507894417090462 L 0.9718179870428294 3.510754518877956 L 0.9814058034676875 3.513595768859598 L 0.9910426242888776 3.516265139156146 L 1.000763595367919 3.518607502553953 L 1.01058761810613 3.520466985760318 L 1.020509605220674 3.521693459377056 L 1.020917622643764 3.52172818517241 " id="ID_55E"/>
    <path d="M 1.356917638602908 3.544728186264851 L 1.352492346623958 3.535927557016742 L 1.344191211185491 3.53054108236142 L 1.339249669013724 3.529728185552389 " id="ID_55F"/>
   </g>
   <g id="ID_0" color="rgb(0,0,0)" stroke="currentColor" fill="none" stroke-width="0.00005039721436807565"/>
  </g>
 </svg>