<?xml version="1.0" encoding="UTF-8" ?>
 <svg viewBox="0.7875146153257822 -6.907312175316374  0.37604891508414195 0.40510076201864287" xmlns="http://www.w3.org/2000/svg" version="1.0" overflow="visible">
  <defs>
   <g id="ID__#42_Model_Space"/>
   <g id="ID__#42_Paper_Space0"/>
   <g id="ID__#42_Paper_Space"/>
  </defs>
  <g id="draft" transform="matrix(1 0 0 -1 0 0)" stroke-width="5.039721436807565E-5">
   <g id="Poliline" color="rgb(0,0,0)" stroke="currentColor" fill="none" stroke-width="0.00005039721436807565">
    <path d="M 0.7909176117193512 6.642728333411955 L 0.7882857259516954 6.633091099311046 L 0.7875146153257822 6.623142573156222 L 0.7893428912608061 6.613346547378427 L 0.7938025142900313 6.604426360372543 L 0.7999644760435451 6.596561996157957 L 0.8068159294620818 6.589279295451409 L 0.813619911263169 6.581952819002288 L 0.8196202397065288 6.573957132091002 L 0.8255802031456216 6.565928236038598 L 0.8318627724819434 6.558150053431895 L 0.8385929477436482 6.550755099457461 L 0.8458696930490248 6.543900971884204 L 0.8537707377192056 6.537778076169035 L 0.8621185337333532 6.532275741956174 L 0.8707852842632446 6.527289620266387 L 0.8797113797955669 6.522783298388429 L 0.8888532503273181 6.518731762530582 L 0.8981776633095028 6.515119237923864 L 0.907657852158926 6.511937712997723 L 0.917271358930476 6.509185741610501 L 0.9269970348750602 6.506868024688865 L 0.9368188429110011 6.504993831424457 L 0.9467171685000579 6.503578601379546 L 0.9566722782140191 6.502642658339399 L 0.9666620810155981 6.502211413297731 L 0.9766604170005939 6.502315216485491 L 0.9866365076263292 6.502988999254186 L 0.996552587419349 6.504271588748622 L 1.006362444884024 6.506204347403083 L 1.016009879718614 6.50882891272165 L 1.025427706634077 6.51218375254447 L 1.034562898179204 6.516247469173082 L 1.043475140600442 6.520781278254776 L 1.052186475555089 6.525690498786227 L 1.060695039404276 6.530943167630041 L 1.068983973655608 6.5365360617375 L 1.077018133788762 6.542488874924109 L 1.084735666753964 6.548846226929211 L 1.09202185733906 6.555692703390202 L 1.098875290007613 6.562973445369448 L 1.10535818186412 6.570586728620383 L 1.111514078791488 6.578466465964237 L 1.117372587252007 6.586570071542865 L 1.122949827463467 6.594869764696232 L 1.128248523139515 6.603350119177989 L 1.133253106161564 6.612007299216816 L 1.137915396690742 6.620853346553865 L 1.142102967148421 6.629932739701485 L 1.145785684637101 6.639230221458922 L 1.149539541048412 6.648499622978799 L 1.153208182892737 6.657803203849936 L 1.156617179051941 6.667204029646073 L 1.159579527310325 6.676753772811624 L 1.161854116355326 6.686488485545656 L 1.163106290507688 6.696405495456648 L 1.163563530409924 6.706393409661012 L 1.163503380829709 6.716392456604111 L 1.163083818069535 6.72638355500981 L 1.162409508292956 6.736360952046936 L 1.16154513089428 6.746323725285843 L 1.160339433620071 6.756250158294838 L 1.158688312502433 6.766111506746498 L 1.15653141884136 6.775874268263906 L 1.153827237829871 6.78549953613808 L 1.150564230540669 6.794949841409389 L 1.146765255086321 6.804198397294489 L 1.142483271655984 6.813233953903973 L 1.137788781500217 6.822063402217199 L 1.13275835705216 6.830704828422812 L 1.127462124361693 6.839186750243781 L 1.121836094375217 6.847448922910236 L 1.115184592844801 6.854912686461815 L 1.10864015453962 6.862468677042371 L 1.103682540253328 6.871113781131866 L 1.10167616004747 6.880876727830755 L 1.100957619534323 6.890849475962358 L 1.098392272943917 6.900469259048166 L 1.092096205792976 6.907312175316374 L 1.082180883576619 6.906232039633604 L 1.072577325375675 6.903458748987972 L 1.062945736068605 6.900787454336073 L 1.053032112794491 6.899599796009926 L 1.043053014200662 6.90010302647601 L 1.033164206713286 6.90158036873854 L 1.023296284465213 6.903197089988127 L 1.013336938211345 6.904007538849661 L 1.003416870620847 6.902923888604365 L 0.9938429232340642 6.900067244385375 L 0.984734121910459 6.895956124197339 L 0.97619961155464 6.89075627126312 L 0.9683929571125942 6.884518844919577 L 0.961529069876275 6.877258525483896 L 0.9558889635150613 6.869014681007208 L 0.9620563833877842 6.861748518254561 L 0.969846190744886 6.855485681492284 L 0.9780851751413557 6.849818761801678 L 0.9863616523169573 6.844206944779963 L 0.9941976232656433 6.838004775825408 L 1.000945642225197 6.830647869480061 L 1.005935361666328 6.822007678316115 L 1.008543661695603 6.812398266374028 L 1.00937334841137 6.802434009746804 L 1.010932206910713 6.792569101939608 L 1.013701530242086 6.782960968989762 L 1.015853386986019 6.77320915897981 L 1.015818738363025 6.763221124226587 L 1.015554170108496 6.753229024635616 L 1.017004955622341 6.743357364497374 L 1.02050043837941 6.733992088876762 L 1.022705052612787 6.724253890326035 L 1.024089657004413 6.714350696626544 L 1.025159627228924 6.704408732603579 L 1.025803127360375 6.694431217003329 L 1.024113625699676 6.68465846264957 L 1.018962748371179 6.676159072825432 L 1.01095320775259 6.670261753376505 L 1.001583331779803 6.666827501571487 L 0.991837328111357 6.664601561650405 L 0.9820665195341318 6.662480769270586 L 0.9724710460280983 6.65967038408369 L 0.963050429411564 6.656310134338422 L 0.9536350942654863 6.652943043777746 L 0.9438733127985363 6.650928554491441 L 0.934092986147327 6.652748506513463 L 0.9249309388584512 6.656731397130445 L 0.9157703234367593 6.660722489587712 L 0.9059332519392961 6.662085844150401 L 0.8964166188684252 6.659245023418755 L 0.88814337792037 6.653667359520898 L 0.8807581211699524 6.646931075225054 L 0.8737990061837495 6.639750210767311 L 0.8668756553917997 6.632535061749137 L 0.8604193353899809 6.624898827808546 L 0.8539263699128136 6.617293805926673 L 0.8467479793035215 6.610343163724824 L 0.8385666619653724 6.604614226335305 L 0.8293670659403185 6.607760393523601 L 0.8215711449190949 6.613988778631957 L 0.8148923211658694 6.62142556119691 L 0.8084900187412022 6.629105840685305 L 0.8015065800321332 6.636250290447081 L 0.7932088876516011 6.641772170938085  z" id="ID_47F"/>
   </g>
   <g id="ID_0" color="rgb(0,0,0)" stroke="currentColor" fill="none" stroke-width="0.00005039721436807565"/>
  </g>
 </svg>