<?xml version="1.0" encoding="UTF-8" ?>
 <svg viewBox="1.428118337384911 -6.525039001266999  0.09298540236601016 0.09414802261923239" xmlns="http://www.w3.org/2000/svg" version="1.0" overflow="visible">
  <defs>
   <g id="ID__#42_Model_Space"/>
   <g id="ID__#42_Paper_Space0"/>
   <g id="ID__#42_Paper_Space"/>
  </defs>
  <g id="draft" transform="matrix(1 0 0 -1 0 0)" stroke-width="5.039721436807565E-5">
   <g id="Layer_#32_1" color="rgb(255,0,255)" stroke="currentColor" fill="none" stroke-width="0.00005039721436807565"/>
   <g id="Poliline" color="rgb(0,0,0)" stroke="currentColor" fill="none" stroke-width="0.00005039721436807565">
    <path d="M 1.433583657869348 6.500062311010683 L 1.429076342077152 6.491231675299307 L 1.428118337384911 6.48131517479539 L 1.429585510823724 6.471439992823097 L 1.432724512858745 6.461955477700461 L 1.437179669845941 6.453011209212281 L 1.442838161992539 6.444776540219764 L 1.449769036436209 6.437588610250779 L 1.458191532889045 6.432272673719108 L 1.467962487077935 6.430890978647767 L 1.475407718453318 6.435535825635107 L 1.46935452959048 6.443493896386376 L 1.463143121267543 6.451330615738649 L 1.457544416270136 6.459606876566713 L 1.453873405795358 6.468867679848874 L 1.453654150642773 6.478804641027565 L 1.45673237750624 6.488282692317188 L 1.462457628271994 6.496426146897821 L 1.470626264786879 6.502100572308182 L 1.480208903441717 6.504828785605896 L 1.490186538779727 6.505044270678763 L 1.500033522534708 6.503367695351643 L 1.509526724501747 6.500248769482068 L 1.518133012994794 6.500508144543257 L 1.521103739750921 6.509519435924524 L 1.514981285976999 6.517194031859999 L 1.50610459523865 6.5217294182134 L 1.496427700516698 6.524188756633863 L 1.486472720746561 6.525039001266999 L 1.476481972504284 6.524696498447301 L 1.466586866161201 6.523290012776128 L 1.456919954746703 6.520751311005373 L 1.447738352583823 6.51682195400967 L 1.439659016305457 6.510985394094249 L 1.43426293911191 6.502674538642748  z" id="ID_7E2"/>
   </g>
   <g id="ID_0" color="rgb(0,0,0)" stroke="currentColor" fill="none" stroke-width="0.00005039721436807565"/>
  </g>
 </svg>