<?xml version="1.0" encoding="UTF-8" ?>
 <svg viewBox="-0.7113669362763293 -6.54272832866221  0.11235159210654355 0.28479624087912647" xmlns="http://www.w3.org/2000/svg" version="1.0" overflow="visible">
  <defs>
   <g id="ID__#42_Model_Space"/>
   <g id="ID__#42_Paper_Space0"/>
   <g id="ID__#42_Paper_Space"/>
  </defs>
  <g id="draft" transform="matrix(1 0 0 -1 0 0)" stroke-width="5.039721436807565E-5">
   <g id="Poliline" color="rgb(0,0,0)" stroke="currentColor" fill="none" stroke-width="0.00005039721436807565">
    <path d="M -0.709082459526826 6.54272832866221 L -0.7113669362763293 6.533531704851212 L -0.7079054314246145 6.524159252117812 L -0.7057675493778408 6.514399603044925 L -0.7028090276520329 6.504886874221115 L -0.6968100732507932 6.496936632806713 L -0.6888570700017125 6.490906544163851 L -0.6802139026521976 6.485879121624627 L -0.6717995353505178 6.480485871492122 L -0.6645608917544658 6.473656242649448 L -0.6591179132228691 6.465270522623453 L -0.6536827958272946 6.456877729189415 L -0.6477594813432903 6.448822570288283 L -0.6414690142551143 6.44104987963496 L -0.6349328488789477 6.433482526288313 L -0.6283216459374678 6.425980682060156 L -0.6219446494600307 6.418279067316805 L -0.6164112297976639 6.409962271461158 L -0.6128137667006728 6.400667291382716 L -0.6121130355315385 6.390728331842489 L -0.6140785282731418 6.380946545650056 L -0.617738226430328 6.371646446100532 L -0.6220922604435107 6.362644879890731 L -0.6264688248882609 6.353653811815571 L -0.6303743034328245 6.34445207071803 L -0.6334488483951617 6.334937731675977 L -0.63620344790111 6.325324910241445 L -0.6392741746906739 6.315810209995417 L -0.643545471869084 6.306784443785262 L -0.6492112930160836 6.298552051035801 L -0.655568596716523 6.29083409849593 L -0.6617306718443335 6.282964057979319 L -0.6667891195611065 6.274351400645777 L -0.6700600983628809 6.264943764689163 L -0.6631662229506797 6.257932087783083 L -0.6555721228753182 6.264432002964126 L -0.6486316480681804 6.271626993441954 L -0.6423168077614445 6.279378192977747 L -0.6365726879669928 6.287562503414889 L -0.6313301565897982 6.29607629559042 L -0.6265119789544525 6.304837989451786 L -0.6220391575005282 6.313781246753086 L -0.6178304743102379 6.322852412624094 L -0.6138009882583458 6.332004517569427 L -0.6100535398842934 6.34127347231548 L -0.6070642064567568 6.350811362481425 L -0.6049066751961965 6.360573332912385 L -0.6032512462643398 6.370434786070944 L -0.6017909894125691 6.380327524222316 L -0.600237432784355 6.390206038792749 L -0.5991066780175212 6.400139501911244 L -0.5990153441697857 6.410131843267562 L -0.600471081514292 6.420012083919552 L -0.6034658942097249 6.42954615929298 L -0.6074414962345527 6.438719259340468 L -0.6120959547651986 6.447568845734084 L -0.6172609479679938 6.456131188146613 L -0.6228348709862975 6.46443343211555 L -0.6287529798322665 6.472494061762398 L -0.6349727322659087 6.480324307393189 L -0.6414660142828295 6.487929226416929 L -0.6482147825905056 6.495308288058188 L -0.6552085456890789 6.502455473526186 L -0.6624429138965642 6.509358887927716 L -0.6699188214006186 6.515999813067938 L -0.6776421930018337 6.522351019418575 L -0.6856238717993773 6.528373974725149 L -0.6938800063159718 6.534014589685027 L -0.7024314983730804 6.539195614940717  z" id="ID_52F"/>
   </g>
   <g id="ID_0" color="rgb(0,0,0)" stroke="currentColor" fill="none" stroke-width="0.00005039721436807565"/>
  </g>
 </svg>