<?xml version="1.0" encoding="UTF-8" ?>
 <svg viewBox="-0.4090824452775906 -5.887848140835363  0.24511130157548608 0.3105911093781337" xmlns="http://www.w3.org/2000/svg" version="1.0" overflow="visible">
  <defs>
   <g id="ID__#42_Model_Space"/>
   <g id="ID__#42_Paper_Space0"/>
   <g id="ID__#42_Paper_Space"/>
  </defs>
  <g id="draft" transform="matrix(1 0 0 -1 0 0)" stroke-width="5.039721436807565E-5">
   <g id="Poliline" color="rgb(0,0,0)" stroke="currentColor" fill="none" stroke-width="0.00005039721436807565">
    <path d="M -0.4090824452775906 5.630728285344535 L -0.3994968109888983 5.627888171021394 L -0.3901422724712828 5.624359231837948 L -0.3810269269927611 5.620250435288543 L -0.3721320886912789 5.615682747348078 L -0.3634157246716203 5.610781833279144 L -0.3548177392895049 5.605675759364611 L -0.3462635641791749 5.600496405348973 L -0.337668806701469 5.595385567007584 L -0.3289425615578922 5.590502924219997 L -0.3199963633447611 5.586037024716444 L -0.3107595851685732 5.582212996404941 L -0.3012025663854203 5.57928662739362 L -0.2913621263913439 5.577558324138298 L -0.2813747256267387 5.577257031457229 L -0.2714279996556872 5.578228678696328 L -0.261651867494499 5.580310340628273 L -0.2521343362666286 5.583366351693308 L -0.242938230135036 5.587286245865803 L -0.2341114277914409 5.591979780810313 L -0.2256928469466013 5.597371879841884 L -0.2177158085764042 5.603398328737347 L -0.2102097659258089 5.610002379135428 L -0.203201032726664 5.617132174372091 L -0.196712894715886 5.624738879186939 L -0.1907352578966233 5.632754397251181 L -0.1851280593901006 5.641033202735562 L -0.1800159322579109 5.649625280569902 L -0.1755998463226582 5.658593668241877 L -0.1720446685632071 5.667936066004465 L -0.1693811171019446 5.677571239838476 L -0.1674844700253235 5.687387646322346 L -0.1661561118658046 5.697297847704271 L -0.165209243040918 5.7072522377797 L -0.1645026768439717 5.717226945559942 L -0.163979047875733 5.727212805243098 L -0.1639711437021045 5.737210815003962 L -0.1646927112590024 5.747181606407754 L -0.1663012267119406 5.757046841900475 L -0.1689082635409642 5.766695522995266 L -0.1724916593482089 5.776026520150113 L -0.1765862371371192 5.785148575502474 L -0.1809938419652459 5.794123235195723 L -0.1858701787163479 5.802852135078833 L -0.1913587111122359 5.811208126688757 L -0.1975923407899209 5.819022011608461 L -0.2046746332405407 5.826072290268196 L -0.2126444207946401 5.832097753994379 L -0.2214341725321391 5.836844915503132 L -0.2309171478755596 5.839956713239097 L -0.2407600139249064 5.841704876494628 L -0.2506884888645189 5.842919188660487 L -0.2606530473798037 5.84375607230679 L -0.2706407245795237 5.8442348836441 L -0.2806397624539576 5.84429960549662 L -0.2906237782221135 5.843784648484371 L -0.3004252839192469 5.841904707918738 L -0.3100797484881994 5.839298748028231 L -0.3198197012951942 5.837038205023107 L -0.3296985076005603 5.835510586825607 L -0.3396828255750197 5.835339646355042 L -0.3492485295423382 5.83798876684178 L -0.3555025949524957 5.845495972724604 L -0.3548249255437978 5.855139394691519 L -0.3487081646051582 5.863035909306317 L -0.3447621510260665 5.871600895524861 L -0.3517635727858712 5.878726620221946 L -0.3598842434668645 5.884515930174693 L -0.3692602535766865 5.887848140835363 L -0.3791530984168325 5.887150463992992 L -0.3877917274322282 5.882253980460076 L -0.3943429574497452 5.874741217139779 L -0.3990028427090069 5.865915952266103 L -0.4020980845314135 5.856415740612911 L -0.4038314190807988 5.846573867088687 L -0.4043033655186426 5.836591302841511 L -0.4035411231645254 5.826627248343424 L -0.4015116221866624 5.816844295426013 L -0.3980526335226884 5.807470662334477 L -0.3939039796809762 5.798374254016093 L -0.3905380349166867 5.788974637389245 L -0.3905441382526256 5.779084789416462 L -0.3954571566674572 5.770416120217173 L -0.4002332040784396 5.761700273794111 L -0.3966293181999854 5.752690938188969 L -0.3897938430761751 5.745420686331401 L -0.3820403528686134 5.739109193266513 L -0.3748631410794081 5.732174142046195 L -0.3698547709409325 5.723543367390136 L -0.3664405316008246 5.714153561001371 L -0.3643648837841615 5.70437797672092 L -0.3635784685637882 5.694415749726711 L -0.3641680134748553 5.68444092939444 L -0.3663560330713169 5.674696406473105 L -0.3704905716839946 5.665616976491625 L -0.3768928249874479 5.657986719207818 L -0.38548865726775 5.653075419911784 L -0.3952464661597341 5.650918991176793 L -0.4040217545665739 5.646304921225896 L -0.4087272508954021 5.637674243335292  z" id="ID_505"/>
   </g>
   <g id="ID_0" color="rgb(0,0,0)" stroke="currentColor" fill="none" stroke-width="0.00005039721436807565"/>
  </g>
 </svg>