<?xml version="1.0" encoding="UTF-8" ?>
 <svg viewBox="1.138917628248464 -7.498673665034989  0.29218983771248497 0.281439290067131" xmlns="http://www.w3.org/2000/svg" version="1.0" overflow="visible">
  <defs>
   <g id="ID__#42_Model_Space"/>
   <g id="ID__#42_Paper_Space0"/>
   <g id="ID__#42_Paper_Space"/>
  </defs>
  <g id="draft" transform="matrix(1 0 0 -1 0 0)" stroke-width="5.039721436807565E-5">
   <g id="Poliline" color="rgb(0,0,0)" stroke="currentColor" fill="none" stroke-width="0.00005039721436807565">
    <path d="M 1.138917628248464 7.344728366755166 L 1.142082946991014 7.335245656899685 L 1.14598104480772 7.326039105089047 L 1.150500403817035 7.317120504713907 L 1.155555083596794 7.308493585459014 L 1.161078804455885 7.300159064064764 L 1.167020588678297 7.292116921210581 L 1.173340865980453 7.284368525227801 L 1.180009034958518 7.276917281682196 L 1.187001474483528 7.269769360568206 L 1.194300072201564 7.262934268091752 L 1.201891092339258 7.256425426884693 L 1.209764255997691 7.250260853131337 L 1.217911928661301 7.244463996436712 L 1.226328308528052 7.239064804579684 L 1.235008490223404 7.234101072955009 L 1.243947236824835 7.229620127226175 L 1.253137222017606 7.225680848471201 L 1.26256630904866 7.222355972818227 L 1.272213880573123 7.219734160890396 L 1.282044901252634 7.217921415445122 L 1.29201292149182 7.217234374967858 L 1.301969193671246 7.21804997848883 L 1.311681826261781 7.220392032266879 L 1.321036949786831 7.223913704837592 L 1.330166128469342 7.227994170323841 L 1.339357847027257 7.231929067740261 L 1.348851668771505 7.235051867432185 L 1.358685553159413 7.236582679614843 L 1.368466415723981 7.234581801785534 L 1.375458747434606 7.239753327777009 L 1.375177181069381 7.248715018950719 L 1.368241022911914 7.255899145740314 L 1.360577583634625 7.26232185282085 L 1.353308944999876 7.269175885116914 L 1.347643227062485 7.277380756139081 L 1.344369681286747 7.286802903614916 L 1.342403601438683 7.296607004643799 L 1.339827704360907 7.306258611990965 L 1.340434540935 7.315237042901692 L 1.343940733872662 7.324592704987368 L 1.346659197292169 7.334217474294349 L 1.349372024162118 7.34383896185601 L 1.352911680401971 7.353183585063201 L 1.358252332322308 7.361600300537671 L 1.365995009570463 7.367839257763865 L 1.375405527876069 7.371105511085092 L 1.385298254187127 7.370586948967954 L 1.395270479392278 7.37124140266219 L 1.405238205828545 7.3719951723036 L 1.415095961258301 7.370611906293035 L 1.424273000475188 7.368614920603705 L 1.431107465960949 7.375728869659907 L 1.427448406829236 7.384429254027916 L 1.422197108705117 7.392939432643728 L 1.416675363262221 7.40127680216799 L 1.410905163814126 7.409442342458207 L 1.404895961459997 7.41743624005001 L 1.398654121917888 7.425249733047154 L 1.392180282628425 7.432871572848844 L 1.385471023892515 7.440286710372703 L 1.378519881721706 7.447475273107503 L 1.371317680626673 7.454411855458094 L 1.363852580501426 7.461064619557309 L 1.356111045990005 7.467393186262375 L 1.348078109358766 7.473346951277965 L 1.339737953872787 7.478862787415468 L 1.331078345014849 7.483860365396596 L 1.322091312913658 7.488240850280281 L 1.312766970188903 7.491841721841294 L 1.303135396521659 7.494520406694628 L 1.293327535196674 7.496462690258489 L 1.283415624465017 7.497772730759458 L 1.273443182207838 7.498501565333947 L 1.263445947854032 7.498673665034989 L 1.253454069241819 7.498299028090573 L 1.243505892405049 7.497314706308731 L 1.233784277012306 7.495008908856806 L 1.224388454508156 7.49159434223272 L 1.21515789227164 7.48774797720017 L 1.205868952565915 7.484046263493405 L 1.196873196657227 7.479706040782004 L 1.188646880830253 7.474034713707712 L 1.181191536459152 7.467378097861294 L 1.174436457974593 7.460009031598704 L 1.168289959499162 7.452123915346302 L 1.162662804876684 7.443859138103541 L 1.157477126298572 7.435310038552061 L 1.152667064204659 7.426543840872384 L 1.148529464447651 7.417446574198007 L 1.145431624642864 7.407943092632398 L 1.143221731136013 7.398193144684264 L 1.141717160271327 7.388308536225245 L 1.140732755814084 7.378357940361863 L 1.14009036410143 7.368378890958131 L 1.139616833429149 7.35839008299381 L 1.139134942172113 7.348401732229619  z" id="ID_477"/>
   </g>
   <g id="ID_0" color="rgb(0,0,0)" stroke="currentColor" fill="none" stroke-width="0.00005039721436807565"/>
  </g>
 </svg>