<?xml version="1.0" encoding="UTF-8" ?>
 <svg viewBox="-0.3867223068357628 -4.227252365537685  0.3262915406097049 0.4362287335427064" xmlns="http://www.w3.org/2000/svg" version="1.0" overflow="visible">
  <defs>
   <g id="ID__#42_Model_Space"/>
   <g id="ID__#42_Paper_Space0"/>
   <g id="ID__#42_Paper_Space"/>
  </defs>
  <g id="draft" transform="matrix(1 0 0 -1 0 0)" stroke-width="5.039721436807565E-5">
   <g id="Poliline" color="rgb(0,0,0)" stroke="currentColor" fill="none" stroke-width="0.00005039721436807565">
    <path d="M -0.3430824421427587 4.166728215808268 L -0.3480489167224974 4.162642510243589 L -0.353806138325762 4.154470979341862 L -0.3590033076600836 4.145928200281414 L -0.3636720079995825 4.137086612269214 L -0.3678880683536976 4.12801892673586 L -0.3717632626619549 4.118800834768352 L -0.3754419162117832 4.109502148004315 L -0.3790795351359595 4.100187293198811 L -0.382060413293626 4.090647672101326 L -0.3839879631405436 4.080839527149427 L -0.3850853966045733 4.070901816302422 L -0.3856988422196874 4.060921130147075 L -0.3861502531153054 4.050931338887902 L -0.3865690013241547 4.040940493219746 L -0.3867223068357628 4.030942168621939 L -0.3865786146764956 4.020943926848522 L -0.3861271750032209 4.010954537541847 L -0.3853573192098745 4.000984827937536 L -0.3842585636193769 3.991046180398392 L -0.3828207939149557 3.981151258450614 L -0.3810344456986625 3.9713138634098 L -0.3788901135306233 3.961546417283861 L -0.3763806230675479 3.951868331141673 L -0.3734978663486368 3.942291605260971 L -0.370237873035113 3.93283877306948 L -0.3665963982682259 3.923526275788114 L -0.3625716040748941 3.914372923653479 L -0.358163724468894 3.905397749595467 L -0.3533751867986687 3.896619662088179 L -0.34821077121254 3.888057247424706 L -0.3426777405689174 3.879728546574124 L -0.3367849352492183 3.871649508636387 L -0.3305452482067279 3.863837209592063 L -0.3239711716300579 3.856303887042717 L -0.3170778651885868 3.849061276404492 L -0.3098818796347063 3.842119058524989 L -0.3024008281339805 3.835484777432203 L -0.2946530822386215 3.829163854296222 L -0.2866571527850503 3.823159420655818 L -0.2784321894520891 3.817473035954298 L -0.2699967021529552 3.812104070147752 L -0.261369046311418 3.80705041449859 L -0.2525666914284645 3.802307212708308 L -0.2435827994579593 3.797918964533051 L -0.2342987707985236 3.794214811114258 L -0.2246209869064346 3.791741146059882 L -0.2146621940185875 3.791023631994978 L -0.2047353373171736 3.792129279697363 L -0.1950646230832476 3.794647145027552 L -0.185682050464445 3.798099206025659 L -0.1765848952225202 3.802247459242153 L -0.1678473366441047 3.807105191323381 L -0.1595373870819801 3.812663041328487 L -0.1516914859383167 3.81885919897069 L -0.1442968155329813 3.825590268090673 L -0.1372960060171033 3.832729056516885 L -0.1305961967779901 3.840152259270899 L -0.1240940778721855 3.847749557031443 L -0.1176917191050846 3.855431297264216 L -0.1114129572159053 3.863211259731887 L -0.1053219969766852 3.871141572502262 L -0.0994544891879379 3.879239040736177 L -0.0938499066142003 3.887518315893743 L -0.0885438727732542 3.895994767798082 L -0.0835683599174093 3.904668795131039 L -0.0789353941395792 3.91352922914991 L -0.0746261953333836 3.922551704199404 L -0.0705875251909651 3.931699302664709 L -0.0667385768813293 3.940928775191364 L -0.0634337413382182 3.950359063792566 L -0.0614489901279454 3.960152716478189 L -0.0605513598586498 3.970108647619102 L -0.0604307662260579 3.980106209418844 L -0.0607649190384754 3.990100452483426 L -0.0611033883070409 4.000094671477539 L -0.0614222839367722 4.010089517657918 L -0.0617802000685606 4.020083135172628 L -0.0622361146021886 4.030072771932193 L -0.0628509464878206 4.040053774031829 L -0.0636890184427443 4.050018388589094 L -0.0648193050242147 4.059953845760034 L -0.0663163217599809 4.069840427690808 L -0.0682602105875967 4.079648628369538 L -0.0707483904892481 4.08933216727252 L -0.0743978159482746 4.098630613350421 L -0.0790804428287944 4.107463379791038 L -0.0840706292431159 4.116129046981654 L -0.0884657398807827 4.125103872081936 L -0.091082430173401 4.134728214288347 L -0.09626920317372 4.143275591650875 L -0.1020250169292378 4.151450736255926 L -0.1083048230169332 4.159230770782095 L -0.115060434795013 4.166601616366913 L -0.1222431913946833 4.173557277858233 L -0.1298056413531814 4.1800982311532 L -0.1377033886891859 4.186230374332193 L -0.1458956813298267 4.191963310603661 L -0.1543458398134989 4.19730909372417 L -0.1630212942968674 4.202281132256151 L -0.1718934014544997 4.206893318404267 L -0.1809371343169763 4.211159359600383 L -0.1901307120196325 4.215092276140051 L -0.1994548051049492 4.218703873370342 L -0.2065824356593566 4.221228218396877 L -0.209582435801849 4.218228218254385 " id="ID_4F6"/>
    <path d="M -0.3030100291748852 4.210302658928885 L -0.3010941367550686 4.212855290751011 L -0.2971029649709882 4.220523547056918 L -0.306082440385353 4.223728218515621 L -0.3079759872661611 4.222605510839262 L -0.3153293745928742 4.216841790772626 L -0.3232379825208484 4.210738077770589 L -0.3301421957458865 4.203516385523345 L -0.3358877723892393 4.19534380801064 L -0.3402249442213092 4.186347478997038 L -0.342778958895714 4.176697861652701 L -0.3430824421427587 4.166728215808266 L -0.335842489444155 4.15985103473427 L -0.3274989782696016 4.154360358188601 L -0.3183920823193338 4.150251423610074 L -0.3088049681944458 4.147432029267262 L -0.2989471031717805 4.145784222194825 L -0.2889685317239472 4.145200225097754 L -0.2789806676761097 4.145596876609811 L -0.2690715106083372 4.146919704667487 L -0.25932520670775 4.149142528588489 L -0.249829857098363 4.152267280164879 L -0.2406941614194835 4.156323259020654 L -0.2320650977623453 4.161365556836372 L -0.2241530157492004 4.167467848845806 L -0.2172624306298596 4.174698493096858 L -0.2118099037437755 4.183060465683457 L -0.2082706338256202 4.192388587250425 L -0.2069900671815565 4.202280977987145 L -0.2079682971395966 4.212211082504252 L -0.209582435801849 4.218228218254385 L -0.2187142837025275 4.222293696014377 L -0.2282121658343756 4.225407047783171 L -0.2380301457546103 4.227252365537685 L -0.2479914791479594 4.226959236989602 L -0.2569026175205309 4.222718107370639 L -0.2617947176824469 4.214155776351073 L -0.2550442839640912 4.207731141341378 L -0.2476343558544078 4.201032213308169 L -0.2429723894752067 4.192380926180961 L -0.2467499088976632 4.183434976337668 L -0.254125143894691 4.17670043382216 L -0.2627175734797458 4.171620301895101 L -0.2720286338092004 4.167992896245575 L -0.2817410278720285 4.165643342211946 L -0.2916966062462478 4.164864642843395 L -0.3015239037451787 4.166482127312027 L -0.3097941588026387 4.171895169468728 L -0.3145588428040948 4.180595697811003 L -0.3152083150292846 4.190501806653553 L -0.312169327402863 4.199980290196352 L -0.3065140978558549 4.208194083236959  z" id="ID_4F7"/>
   </g>
   <g id="ID_0" color="rgb(0,0,0)" stroke="currentColor" fill="none" stroke-width="0.00005039721436807565"/>
  </g>
 </svg>