<?xml version="1.0" encoding="UTF-8" ?>
 <svg viewBox="-1.542267838924978 -9.819784733932266  0.062540164975317 0.13279867985816018" xmlns="http://www.w3.org/2000/svg" version="1.0" overflow="visible">
  <defs>
   <g id="ID__#42_Model_Space"/>
   <g id="ID__#42_Paper_Space0"/>
   <g id="ID__#42_Paper_Space"/>
  </defs>
  <g id="draft" transform="matrix(1 0 0 -1 0 0)" stroke-width="5.039721436807565E-5">
   <g id="Poliline" color="rgb(0,0,0)" stroke="currentColor" fill="none" stroke-width="0.00005039721436807565">
    <path d="M -1.540082498997207 9.809728483836384 L -1.53295725155813 9.802712597753178 L -1.526072394346534 9.795460552271534 L -1.51944979982488 9.787967881141094 L -1.513175497849745 9.780181197201008 L -1.507448962632873 9.771986657251707 L -1.50282437986417 9.76313641270263 L -1.499942483082445 9.753570819210344 L -1.498159032247018 9.743733733502461 L -1.496987782220117 9.73380304853483 L -1.496114219391596 9.723841389225004 L -1.496462519633487 9.713855312053724 L -1.496961522356947 9.703871377062484 L -1.495289945884493 9.694075198261729 L -1.488566920770769 9.686986054074106 L -1.481274817747445 9.69091091721842 L -1.479727673949661 9.700666864721946 L -1.481960868364409 9.710387410064692 L -1.485863599659832 9.719588693649296 L -1.482799703602171 9.729060965595094 L -1.482315897061884 9.739020069194458 L -1.484146735213286 9.748833788002713 L -1.487520093573217 9.758240747833318 L -1.491762585980139 9.767294117249932 L -1.496414460216872 9.77614596310087 L -1.501146452900664 9.784955452052564 L -1.505854462985073 9.793777346308884 L -1.511201344679438 9.802221407673011 L -1.517736975456777 9.809771695608967 L -1.525692789780869 9.815793292963127 L -1.534835983899234 9.819784733932266 L -1.542267838924978 9.817333583039602  z" id="ID_2E5"/>
   </g>
   <g id="ID_0" color="rgb(0,0,0)" stroke="currentColor" fill="none" stroke-width="0.00005039721436807565"/>
  </g>
 </svg>