<?xml version="1.0" encoding="UTF-8" ?>
 <svg viewBox="-1.767929391443497 -8.346117914511439  0.612831484574379 0.30932020412077144" xmlns="http://www.w3.org/2000/svg" version="1.0" overflow="visible">
  <defs>
   <g id="ID__#42_Model_Space"/>
   <g id="ID__#42_Paper_Space0"/>
   <g id="ID__#42_Paper_Space"/>
  </defs>
  <g id="draft" transform="matrix(1 0 0 -1 0 0)" stroke-width="5.039721436807565E-5">
   <g id="Poliline" color="rgb(0,0,0)" stroke="currentColor" fill="none" stroke-width="0.00005039721436807565">
    <path d="M -1.360582490471415 8.046228400074629 L -1.370355219411542 8.04834407012521 L -1.380217345443754 8.04999268095099 L -1.390149630938153 8.051144421947823 L -1.400128234707743 8.051781414765149 L -1.410126363841067 8.051903089517197 L -1.420118403893679 8.051530604588574 L -1.430083737275394 8.050708782447725 L -1.440010380490952 8.049504891907596 L -1.449896754570089 8.0480044749905 L -1.459751064168643 8.04630533388703 L -1.469588544062038 8.044511013456486 L -1.479427447766802 8.042724737376483 L -1.489284840410106 8.041044198483823 L -1.499173111059052 8.039557250443075 L -1.509097809289973 8.038338501461812 L -1.519057042255684 8.037446935328635 L -1.52904229946807 8.036924772905337 L -1.539040408642807 8.036797710390667 L -1.549035241991806 8.037076443337483 L -1.559010582595849 8.037759111235607 L -1.568955888479691 8.038792769199421 L -1.578875455992562 8.04005149132249 L -1.588776063390345 8.041451632700849 L -1.59866396614979 8.042936913768083 L -1.60854695259868 8.044463729489255 L -1.618428735607321 8.04599683103799 L -1.628279135120448 8.047717693641314 L -1.638076831438715 8.049717496195296 L -1.647816825209377 8.051982929561717 L -1.657491825858147 8.054511740072169 L -1.667092291493803 8.057310639998864 L -1.67660480187388 8.060394520267057 L -1.686011250068844 8.063787173117948 L -1.695286593735889 8.067522989129955 L -1.70439426019118 8.071649585892803 L -1.713280667691837 8.076232984005157 L -1.721876121816428 8.08134089244978 L -1.730259624080077 8.086790079679563 L -1.738396653395093 8.092600667556503 L -1.746156849083712 8.09890383825636 L -1.753334542581566 8.105860069529953 L -1.759601089575192 8.113641770921696 L -1.764466629082704 8.122360318425587 L -1.767357602103346 8.1319087427242 L -1.767929391443497 8.141870400076083 L -1.766465907596633 8.151749738697989 L -1.76336803563677 8.161247975804208 L -1.758933727041966 8.170202352128024 L -1.75353266810481 8.178613685719249 L -1.747488936620158 8.186578245890304 L -1.741045836318013 8.194224710800349 L -1.734378690921768 8.201677285420768 L -1.727615831185917 8.20904335323399 L -1.720855405686474 8.216411670233324 L -1.714176647659964 8.223853809398477 L -1.707646421793918 8.23142654606875 L -1.701323566921056 8.239173063836272 L -1.695619143568104 8.247377419377706 L -1.690119951315951 8.255724789077696 L -1.683604474651748 8.263299415295876 L -1.676267895584951 8.27008904827907 L -1.668402641637415 8.2762627986733 L -1.660188218841559 8.28196565944277 L -1.651717153091744 8.287278997386622 L -1.643039770519269 8.292248656517604 L -1.634186229929804 8.29689658482049 L -1.625173480218558 8.301227460471164 L -1.616010136024963 8.305229505717048 L -1.606698412788804 8.308872175915235 L -1.5972862763378 8.312249217669471 L -1.58783899342653 8.31552683615567 L -1.578346414563973 8.318672073821205 L -1.568800244869744 8.321650001077739 L -1.559194291251756 8.324429722190166 L -1.549526992975334 8.326987697482163 L -1.53980005876529 8.32931083330189 L -1.530020180320433 8.33139659439739 L -1.520193983221402 8.333252606828365 L -1.510330014663935 8.334893353312196 L -1.500435619856387 8.336337716778853 L -1.490518429843118 8.337615616756903 L -1.480595668208605 8.33885732688747 L -1.470670486783163 8.34007850873144 L -1.460739594561928 8.341254354763475 L -1.45080099270894 8.342360627451079 L -1.440852319140411 8.343373228086705 L -1.430892415735915 8.344267456372405 L -1.420920739453114 8.345017552221456 L -1.410937780601867 8.34559613783418 L -1.400944697806854 8.34597369338779 L -1.390946084373507 8.346117914511439 L -1.380947377497516 8.345993282887465 L -1.37095639983914 8.345572959246148 L -1.360967490700423 8.345111592155146 L -1.350978864956668 8.344640310849307 L -1.340997426519523 8.34403677699957 L -1.331036104883367 8.34316221525874 L -1.321122339277644 8.341857100027426 L -1.311312255394435 8.339940366408094 L -1.301692334233349 8.33721369771993 L -1.292360636348341 8.333623363433489 L -1.283147498338087 8.329735748010915 L -1.274033681836082 8.32562035906183 L -1.2650376018565 8.321254245562773 L -1.256182356638414 8.316609124337864 L -1.247498923891216 8.311650195141388 L -1.239029597428374 8.306334474898646 L -1.230832513130499 8.300608364305791 L -1.222915997481635 8.29449893729705 L -1.215067062413236 8.2883028078686 L -1.20729768419752 8.282007205059816 L -1.19965983084403 8.275553154918686 L -1.192236533879473 8.268853846891751 L -1.185191279690346 8.261760012610933 L -1.178954008290394 8.253956734743046 L -1.173810364843264 8.245382527893048 L -1.169178670555241 8.23652137193843 L -1.165107343955575 8.227389719382156 L -1.161648197689099 8.21800952095362 L -1.158850008209368 8.208411395457437 L -1.156508463645197 8.1986895030218 L -1.155097906869118 8.188801007448397 L -1.155403306541636 8.17881647133305 L -1.15621789003404 8.168851275731463 L -1.157444645271845 8.15894091614298 L -1.162642852158727 8.150504992924986 L -1.169062450086105 8.142837607838493 L -1.175262246874046 8.13499424345229 L -1.180079880950025 8.126253557420483 L -1.184098274832462 8.117096545570252 L -1.188518801792457 8.108130016845758 L -1.193857754368623 8.099682528659045 L -1.200713960650189 8.09249291347053 L -1.207739048456089 8.085497709506315 L -1.210282678645057 8.079929573550348 " id="ID_41D"/>
   </g>
   <g id="ID_0" color="rgb(0,0,0)" stroke="currentColor" fill="none" stroke-width="0.00005039721436807565"/>
  </g>
 </svg>