<?xml version="1.0" encoding="UTF-8" ?>
 <svg viewBox="0.2962350865036818 -3.743419542693784  0.35145628699670706 0.3547444837231879" xmlns="http://www.w3.org/2000/svg" version="1.0" overflow="visible">
  <defs>
   <g id="ID__#42_Model_Space"/>
   <g id="ID__#42_Paper_Space0"/>
   <g id="ID__#42_Paper_Space"/>
  </defs>
  <g id="draft" transform="matrix(1 0 0 -1 0 0)" stroke-width="5.039721436807565E-5">
   <g id="Poliline" color="rgb(0,0,0)" stroke="currentColor" fill="none" stroke-width="0.00005039721436807565">
    <path d="M 0.4611448561022371 3.392141326771398 L 0.4570746488328723 3.393012607484184 L 0.4466084015687386 3.395045548963427 L 0.4370142798900077 3.396497660059441 L 0.4269175944302788 3.398728179330223 L 0.4174958506365352 3.402077477154799 L 0.4082145985788506 3.405798459903353 L 0.3990922182996961 3.409893549251716 L 0.3901516550981032 3.414371210406097 L 0.3814205335365432 3.4192447108126 L 0.3729328354797463 3.424530558655266 L 0.364729516451523 3.430247519304153 L 0.3568596635754417 3.436415122358079 L 0.3493814070321859 3.443051700086689 L 0.3423623505082061 3.450171700586219 L 0.3358790039218231 3.457782183803164 L 0.3300145890430608 3.465878624654566 L 0.3248545698494505 3.4744406259883 L 0.320479702910478 3.48342865473106 L 0.3169571795840342 3.492783640397917 L 0.3143323147720087 3.502429080092566 L 0.3120241910582679 3.512156196594041 L 0.308952142683597 3.521670639595093 L 0.3054657393829316 3.53104306844944 L 0.3020182296384881 3.540429569108388 L 0.2990754800348387 3.549984145925227 L 0.297055461653545 3.559772530422101 L 0.2962350865036818 3.56973176809919 L 0.2966824217326156 3.579715250912947 L 0.298277629411845 3.589582437367601 L 0.3002282130361156 3.599389960634589 L 0.3023040315342458 3.609171648519136 L 0.3046575445292401 3.618889663757176 L 0.3074148720819734 3.628501252508851 L 0.3107233685452755 3.637936179568315 L 0.3147859060086233 3.647069530183102 L 0.3173641130815072 3.656229357093014 L 0.3135654743500815 3.665429357970493 L 0.3078213569995034 3.67360905292957 L 0.3022996144567687 3.681931259641544 L 0.299989468156614 3.691540423763568 L 0.3023967954132383 3.701178558806825 L 0.30968927699156 3.707648161343982 L 0.3195697392316106 3.7086400760061 L 0.3294587944915941 3.707197571877285 L 0.3392542564013787 3.70518304682084 L 0.3491367951700948 3.703696053391889 L 0.3590336367171671 3.704481081433399 L 0.3679106475074887 3.709060056421465 L 0.3769822489681598 3.713267416119206 L 0.3859734531992354 3.717644812723422 L 0.3949534285197114 3.722044850409035 L 0.4040302889655845 3.726240036390052 L 0.4133037376026927 3.729976907269687 L 0.4228089135672528 3.733074315264403 L 0.4325010427001868 3.735532307606652 L 0.4422784844466712 3.737627786607268 L 0.4521092700443088 3.739468728282917 L 0.4619823670087646 3.741056851156043 L 0.4718989241876415 3.742341001460758 L 0.481861554770199 3.74318686555658 L 0.4918569024109259 3.743419542693784 L 0.5018481279954194 3.743019579276065 L 0.5117869084560684 3.74194526799356 L 0.5216273919418466 3.740161235699183 L 0.531302796500766 3.737645746866002 L 0.5407549281016611 3.734389590196313 L 0.549922296051828 3.730400553339773 L 0.5587475167331224 3.725703406748946 L 0.5671824655291156 3.720337476697265 L 0.5751907478819068 3.714352935325297 L 0.5827473689164373 3.707807398505055 L 0.5898393328996683 3.70076094080426 L 0.5964630928859167 3.693273413885265 L 0.6026244114039825 3.685399523912217 L 0.6083324872005802 3.67719155107386 L 0.6136021884631138 3.668693001317567 L 0.6184471738217017 3.659946183292484 L 0.6228832871548198 3.650985221470133 L 0.6269254771123194 3.641839281966516 L 0.6305868208931839 3.6325334978669 L 0.6338772604367628 3.623091428918163 L 0.6368048896433045 3.613530170143405 L 0.6393905647006646 3.603870332757576 L 0.6416683745443903 3.594134676178223 L 0.6436282844954136 3.584328886592089 L 0.6452488211067733 3.574462566227595 L 0.6464989207979777 3.564540870737054 L 0.6473337123575238 3.554575803687104 L 0.6476913735003889 3.544584327077302 L 0.6474865068800009 3.534588112006682 L 0.6465996771626115 3.524629503557976 L 0.6448340950927847 3.514789924793342 L 0.6422481620114198 3.50513191341494 L 0.6391760299308819 3.495616618641895 L 0.6360170487919783 3.486128575886601 L 0.6326330570113683 3.476718927715033 L 0.6287210088369451 3.467517894151869 L 0.6242344247529248 3.458585327846051 L 0.6191327164752769 3.449989595694608 L 0.613386021549653 3.441804863625327 L 0.6069913675239125 3.434118705405348 L 0.5999667313958615 3.427006684324863 L 0.5923545538983888 3.420528733700466 L 0.5842173155504949 3.414721638725408 L 0.5756337262515645 3.409598156496553 L 0.5666831924184051 3.40514392761537 L 0.557444818508504 3.401326794291993 L 0.5479827737122305 3.398099245895382 L 0.538349977531107 3.395408235415905 L 0.5286005470769473 3.393202392253355 L 0.51876066459515 3.391427634503779 L 0.5088585469784537 3.390036388333751 L 0.4989171763915135 3.388956279351328 L 0.4889279878927822 3.388675058970596 L 0.479171924930161 3.390614300602992  z" id="ID_575"/>
    <path d="M 0.3862496237486539 3.652062175737942 L 0.3948356719570212 3.647084812741272 L 0.4047112001817137 3.645965561647319 L 0.4144210840684197 3.648197836081378 L 0.4231941669486013 3.652942596558489 L 0.4305426699523443 3.659686222548304 L 0.4358055158492276 3.668145008911588 L 0.4368504403352409 3.677467561550844 L 0.4284243448480059 3.682699785168308 L 0.4186153396254646 3.684402973022374 L 0.4087061875536726 3.683275081224945 L 0.3993640223032049 3.679778053372096 L 0.3912847410549514 3.673948978714197 L 0.3858428804728593 3.665656639045481 L 0.3851321911896743 3.655808517658943  z" id="ID_576"/>
    <path d="M 0.3602496225137202 3.652062175737942 L 0.3622659063017126 3.642283409465573 L 0.3663360145858681 3.633175683450756 L 0.37258902639112 3.625411067872976 L 0.3806946311919992 3.619605423723781 L 0.389997009667284 3.615999647129459 L 0.3998637593030567 3.614479579246221 L 0.409845855294833 3.614802598016085 L 0.4196445133540179 3.616746183621401 L 0.4290377957940193 3.62014848923672 L 0.4378258593688918 3.624900224518805 L 0.4458902610920515 3.630803453224274 L 0.4532794773276745 3.637534406732163 L 0.4599476429928871 3.644980451511033 L 0.4657441132000449 3.653121457567982 L 0.4702678768168341 3.662024138445893 L 0.472255884889985 3.67175843981272 L 0.4693288988854123 3.681241758548114 L 0.4635360036620649 3.689355925083898 L 0.4559978677343617 3.695900092006029 L 0.447387474201106 3.70096319007203 L 0.4381050828000968 3.704661029849019 L 0.4284020219115102 3.707049316151811 L 0.4184665750459616 3.708110358188637 L 0.4084822652201048 3.707754176615075 L 0.3986812775988664 3.705827512892888 L 0.3893992658885592 3.702150303030377 L 0.3810989170108803 3.696610740088205 L 0.374199078812353 3.68939602991298 L 0.3688466307386511 3.680966948781753 L 0.3649908077245136 3.671750240107497 L 0.36227973961571 3.66212887850118  z" id="ID_577"/>
   </g>
   <g id="ID_0" color="rgb(0,0,0)" stroke="currentColor" fill="none" stroke-width="0.00005039721436807565"/>
  </g>
 </svg>