<?xml version="1.0" encoding="UTF-8" ?>
 <svg viewBox="0.53822970497622 -5.800881410258724  0.08428536533231223 0.10689774037687272" xmlns="http://www.w3.org/2000/svg" version="1.0" overflow="visible">
  <defs>
   <g id="ID__#42_Model_Space"/>
   <g id="ID__#42_Paper_Space0"/>
   <g id="ID__#42_Paper_Space"/>
  </defs>
  <g id="draft" transform="matrix(1 0 0 -1 0 0)" stroke-width="5.039721436807565E-5">
   <g id="Layer_#32_1" color="rgb(255,0,255)" stroke="currentColor" fill="none" stroke-width="0.00005039721436807565"/>
   <g id="Poliline" color="rgb(0,0,0)" stroke="currentColor" fill="none" stroke-width="0.00005039721436807565">
    <path d="M 0.5399175997974908 5.779728292421655 L 0.53822970497622 5.789263332022127 L 0.5442314733838894 5.797027291388123 L 0.5533810663520767 5.800881410258724 L 0.5632836021859653 5.800597414918577 L 0.571360105064092 5.795022528537979 L 0.5762463539865186 5.786309489503775 L 0.5818973260041425 5.77807268232483 L 0.5882037359339014 5.770312314375206 L 0.5946516662700052 5.762668735074841 L 0.6009594522711499 5.754909761007406 L 0.6068377420012637 5.746822419180485 L 0.612040322889599 5.738285100303691 L 0.6170984971723028 5.72965890610344 L 0.6217090735406963 5.720788554722407 L 0.6225150703085323 5.71145810476871 L 0.6170085763604183 5.703154288247858 L 0.6092655932697842 5.696895578147799 L 0.5997865777974294 5.693983669881852 L 0.590940614121835 5.697402727209373 L 0.5850305353063199 5.70542847759419 L 0.5810026812023948 5.714570277096234 L 0.5778570209631902 5.724062411676132 L 0.5745115540963388 5.733483607323761 L 0.5698505101993936 5.742311021017727 L 0.5636101855418616 5.750112125160375 L 0.5566059523002478 5.757248281201959 L 0.5496451786969905 5.764425043597037 L 0.543574286021741 5.772355550242044  z" id="ID_7CA"/>
   </g>
   <g id="ID_0" color="rgb(0,0,0)" stroke="currentColor" fill="none" stroke-width="0.00005039721436807565"/>
  </g>
 </svg>