<?xml version="1.0" encoding="UTF-8" ?>
 <svg viewBox="-1.481887468516254 -2.8387266901391  0.3904326106767959 0.4639224484519118" xmlns="http://www.w3.org/2000/svg" version="1.0" overflow="visible">
  <defs>
   <g id="ID__#42_Model_Space"/>
   <g id="ID__#42_Paper_Space0"/>
   <g id="ID__#42_Paper_Space"/>
  </defs>
  <g id="draft" transform="matrix(1 0 0 -1 0 0)" stroke-width="5.039721436807565E-5">
   <g id="Layer_#32_1" color="rgb(255,0,255)" stroke="currentColor" fill="none" stroke-width="0.00005039721436807565"/>
   <g id="Poliline" color="rgb(0,0,0)" stroke="currentColor" fill="none" stroke-width="0.00005039721436807565">
    <path d="M -1.407082492680046 2.774728149691814 L -1.416623905537067 2.777625861580933 L -1.426582272260831 2.777776276446964 L -1.435829875260455 2.774215570953675 L -1.441959382269017 2.766485808142526 L -1.443047384129543 2.756661237101246 L -1.438841763464244 2.747767849149056 L -1.429880224816572 2.743890805665685 L -1.421556578662131 2.748002410031011 L -1.416100512988377 2.756367245985313 L -1.411663487646635 2.76532703898402  z" id="ID_72E"/>
    <path d="M -1.092082477718349 2.569062124298202 L -1.091454857839458 2.579040092882872 L -1.091519753256853 2.589038155533229 L -1.092178222299172 2.599015195790441 L -1.093337806521036 2.608946853534977 L -1.09491482183295 2.618821145106833 L -1.096834405496716 2.628634757180872 L -1.099029435990889 2.638390655566736 L -1.101438769226686 2.648095991568123 L -1.104005252064471 2.65776107331828 L -1.106673477026982 2.667398655355388 L -1.109387212188415 2.677023590481857 L -1.112086244953163 2.686652696818638 L -1.114799459264785 2.696276992528551 L -1.11802016846858 2.705743337012705 L -1.121325818651636 2.715180781984486 L -1.124235181186433 2.724746727849948 L -1.126647545381302 2.734450824717701 L -1.129439251732531 2.744051682004014 L -1.132820177515049 2.753460288116325 L -1.136819015249849 2.762622306102954 L -1.141456790532612 2.771477714635913 L -1.146743916146221 2.779962549201687 L -1.152675796363687 2.788009515209152 L -1.159233076754931 2.795555444496102 L -1.166384121857872 2.802547183273718 L -1.174075003375935 2.808934311089446 L -1.182250316888858 2.814688755004478 L -1.190846005836071 2.819794035768397 L -1.199796760232224 2.824247575812497 L -1.209039702109005 2.828058528713228 L -1.218516270486035 2.831244729689116 L -1.228174174442595 2.833830119240159 L -1.237967716700229 2.835842119231932 L -1.247857638093841 2.837309595349251 L -1.257810552802113 2.838261345721527 L -1.267798222225211 2.838725067174888 L -1.277797092746236 2.8387266901391 L -1.287786807589823 2.838289980104102 L -1.297751244235671 2.837455151782471 L -1.307662380145552 2.836135942244544 L -1.317461121737466 2.834152198334521 L -1.327070481372117 2.831394562917562 L -1.336433838846429 2.827890973303208 L -1.345512950515927 2.823704787293809 L -1.354306371348552 2.818947377727319 L -1.362856809704766 2.813763838758019 L -1.371232081552294 2.808300537234554 L -1.379505048504388 2.802683054662994 L -1.387739772739229 2.797008545491118 L -1.395983754118284 2.791348647931251 L -1.400582492371313 2.788228150333029 L -1.404037944661594 2.778864027852554 L -1.407082492680046 2.774728149691814 " id="ID_72F"/>
    <path d="M -1.166082481233161 2.389062115748661 L -1.175557465500348 2.385866449098667 L -1.185149872830105 2.383042841574855 L -1.194847471997324 2.380605019491595 L -1.204637127623748 2.378568290455003 L -1.214504495214061 2.376949735141703 L -1.224433639926291 2.375768393257139 L -1.234406570235471 2.375045427417722 L -1.244402670753959 2.374804241687188 L -1.254398021109705 2.375070518362964 L -1.264364476062678 2.375872106131982 L -1.274269209217068 2.377238750267768 L -1.284073059073127 2.379201415077202 L -1.293729962172602 2.381791238415999 L -1.303186021819508 2.385037869729979 L -1.312379106478727 2.388967123188729 L -1.321239206592287 2.393597919018581 L -1.329689594799732 2.398938430592059 L -1.337651202104404 2.404983258947479 L -1.345047154537102 2.411709796664553 L -1.351966136274203 2.418927970093992 L -1.358516156876145 2.426482602940559 L -1.364705771066582 2.43433553916066 L -1.370548463248383 2.442450237434055 L -1.376061356727346 2.450792628497229 L -1.381264213397298 2.459331923776165 L -1.386178290103086 2.468040690688484 L -1.390825497136681 2.476894810841629 L -1.395227827924699 2.485873427404902 L -1.399406659370006 2.494958162844072 L -1.403382780295186 2.504133474324962 L -1.407176004471901 2.513385933699955 L -1.410805119212224 2.52270401452173 L -1.414287851554614 2.532077814540835 L -1.417640878233542 2.541498808567837 L -1.420879864448382 2.550959632223204 L -1.42401952041215 2.56045389493971 L -1.427073667801411 2.569976019493205 L -1.430055310623328 2.579521104918271 L -1.432860284841675 2.589116661517197 L -1.434488304549421 2.598980498863253 L -1.435718856875876 2.608904660892175 L -1.436957651428943 2.618827990170405 L -1.438490864828645 2.628709028736972 L -1.440575511951473 2.638487136144355 L -1.44307681267493 2.648168116287397 L -1.445708885809485 2.657815230556792 L -1.448148230231728 2.66751242283359 L -1.450114240824692 2.677315640822703 L -1.451430508020928 2.687226539299969 L -1.452038571468933 2.697205680303401 L -1.45842152890446 2.704482281772014 L -1.464978381222931 2.712027137847176 L -1.470718377119506 2.720209724056935 L -1.475506504278732 2.728981390966234 L -1.479155951617271 2.738283265455386 L -1.481402435794989 2.748017036667272 L -1.481887468516254 2.757988898273978 L -1.480196052536081 2.767819685863756 L -1.476043412990981 2.776881580405536 L -1.469580002130321 2.784471446489391 L -1.461408432495717 2.790193220753947 L -1.451915800697436 2.793275107638686 L -1.442066306399209 2.794986182161256 L -1.43209889308084 2.795757434764473 L -1.422106792094085 2.795513520943838 L -1.412250523249984 2.793894826613408 L -1.403054417076801 2.79006981353643 L -1.400582492371313 2.788228150333031 " id="ID_730"/>
   </g>
   <g id="ID_0" color="rgb(0,0,0)" stroke="currentColor" fill="none" stroke-width="0.00005039721436807565"/>
  </g>
 </svg>