<?xml version="1.0" encoding="UTF-8" ?>
 <svg viewBox="0.6119590831228221 -7.298235668182093  0.3865992344205189 0.41076597348086974" xmlns="http://www.w3.org/2000/svg" version="1.0" overflow="visible">
  <defs>
   <g id="ID__#42_Model_Space"/>
   <g id="ID__#42_Paper_Space0"/>
   <g id="ID__#42_Paper_Space"/>
  </defs>
  <g id="draft" transform="matrix(1 0 0 -1 0 0)" stroke-width="5.039721436807565E-5">
   <g id="Poliline" color="rgb(0,0,0)" stroke="currentColor" fill="none" stroke-width="0.00005039721436807565">
    <path d="M 0.6929176070646009 7.074728353930854 L 0.6954846986497456 7.065070278403293 L 0.6993888018950205 7.055875383265753 L 0.7048597435436444 7.047524263766073 L 0.7119996388611245 7.040555885321568 L 0.7206242174402365 7.035548920795601 L 0.7302335251390994 7.032878148516743 L 0.740206699069689 7.032579751730042 L 0.7500098936174071 7.034458301552503 L 0.7592424550712398 7.038258088815052 L 0.7675818805226804 7.043748672639082 L 0.7747222096964795 7.050726827737844 L 0.7803463548524947 7.058974024224249 L 0.7841516082209168 7.068201207049748 L 0.7859185766715893 7.078023287527888 L 0.7852319487760724 7.08796972326182 L 0.781983308822281 7.097397912250319 L 0.7765696375451308 7.105779460108008 L 0.7695188024385669 7.112846870965891 L 0.7612819026024411 7.118492407390354 L 0.7521981160621749 7.122641943882163 L 0.7425389789877812 7.125179735805619 L 0.7325813628724492 7.125913483227183 L 0.7226908193739164 7.124584604495161 L 0.7133981560370791 7.12096369826408 L 0.70536121571186 7.115064054771689 L 0.6991714790711212 7.107253484954139 L 0.6955201945958382 7.097977312671691 L 0.693782058771725 7.088135615107234 L 0.6930580878069464 7.078163578938008  z" id="ID_46B"/>
    <path d="M 0.6699176059721595 7.071728353788362 L 0.6743616904556644 7.062778827669643 L 0.6774918867563038 7.053290061026276 L 0.6796146351158133 7.043519444816016 L 0.6820992700675692 7.03384118108349 L 0.6864410125574354 7.02485996377573 L 0.6926595224173627 7.017051667066881 L 0.7003292177488439 7.010662555454934 L 0.7090826597426112 7.005856695815258 L 0.718533996658759 7.002623331685269 L 0.7283675280244309 7.000853954144685 L 0.7383511340323717 7.000419329835078 L 0.7483137285765072 7.001211250544552 L 0.7581167361259613 7.003157848097059 L 0.7676281552854212 7.006226567491718 L 0.7766981958592069 7.010422139697647 L 0.785132082341514 7.015779817485986 L 0.7926958220667136 7.022307300569655 L 0.799212995601895 7.029879590347803 L 0.8045486229243223 7.038326320951147 L 0.8085983234684039 7.047459481456241 L 0.811285726051384 7.057081710946861 L 0.8125611711772373 7.066991469414589 L 0.8124033121310025 7.0769813599341 L 0.810825273190904 7.0868473362567 L 0.8078794804798574 7.096395006353561 L 0.8036590650876761 7.105452377842043 L 0.7982922994134852 7.113882225782398 L 0.7919306190863021 7.121590045924335 L 0.7847251410430482 7.128516288056331 L 0.776759638135375 7.134552424081475 L 0.7681363183082351 7.139604093421033 L 0.7589634931149228 7.143569777385548 L 0.7493598576223742 7.146330164291359 L 0.7394707261719109 7.14775636348896 L 0.7294803350713588 7.147730422811734 L 0.7196118557821612 7.146178019909442 L 0.7101070837772339 7.143103433280499 L 0.7011860450507994 7.138606357199114 L 0.6930358694608776 7.132829706257144 L 0.6859175968325238 7.125822485358984 L 0.6800423697828429 7.11774424001881 L 0.6755191765576188 7.108836686027284 L 0.6723507475336259 7.099360635016348 L 0.6704625950563381 7.089547186038798 L 0.66974258465007 7.079578303766375  z" id="ID_46C"/>
    <path d="M 0.8423763404203716 6.891400518437908 L 0.8175861316152213 6.887838860124086 L 0.8075887137914525 6.88760855422566 L 0.7975897723066306 6.887469694701223 L 0.7875900046728406 6.887515732859633 L 0.7775958977604907 6.887849071710715 L 0.7676245579036661 6.888595356049108 L 0.7577147803803302 6.889922779427417 L 0.7479521946560164 6.892071071223927 L 0.7385028034529367 6.895325861035951 L 0.7294065606252734 6.899473265764541 L 0.7206512735637567 6.904300862710571 L 0.7122214658154915 6.909677633314641 L 0.7040931323841546 6.915500976694753 L 0.6962397196949724 6.921690634535374 L 0.6886346555525799 6.928183440211473 L 0.6812524525858707 6.9349289185925 L 0.6740689008598002 6.941885737558729 L 0.6670606033271289 6.949018777673678 L 0.6602032388126924 6.956297079281979 L 0.6536639413610495 6.963859284746611 L 0.6477158896629485 6.971895218722533 L 0.6423275734322971 6.980317469296861 L 0.6374618898782513 6.989052422590682 L 0.6330829325752898 6.998041595573584 L 0.6291582284551183 7.007238456394251 L 0.6256597500648607 7.016605708013177 L 0.6225640957043233 7.026113782550217 L 0.6198529076353747 7.03573854421369 L 0.61751286663866 7.045460350667397 L 0.6155360674117194 7.055262460179423 L 0.6139218865629088 7.065130685619276 L 0.6127598417213714 7.075061672379089 L 0.6121059250871559 7.085038958481701 L 0.6119590831228221 7.095037183360936 L 0.6123088670598369 7.105030104143819 L 0.6131360006105054 7.114994887401712 L 0.6144138368301313 7.124912042759062 L 0.6161101831524336 7.134766338994498 L 0.618189296881469 7.144547132223272 L 0.620613756729389 7.154248181860761 L 0.6233460315465696 7.163867150754193 L 0.6263496597527274 7.17340490881086 L 0.6302773224923018 7.182456016626605 L 0.6338001903645561 7.191814875892468 L 0.637533988390846 7.201091334552883 L 0.6415281613692247 7.21025868569045 L 0.6458532697819184 7.219274347848754 L 0.6506199285855221 7.228063819522372 L 0.6541910427251878 7.233820158362309 L 0.6613369306029436 7.24081409696795 L 0.6682296893646013 7.248058845917783 L 0.6750677569124877 7.255355538214054 L 0.6820498000873468 7.262513794613649 L 0.6893699844647437 7.269324218989554 L 0.6972033287722353 7.275534179255091 L 0.6989176073495856 7.276728363525339 L 0.7082069001744175 7.28043076692295 L 0.7175636405532408 7.28395820341421 L 0.7270380474442 7.287155251668627 L 0.7366514243232479 7.289904509773186 L 0.7463931457205764 7.292156477992385 L 0.7562341313101593 7.293925143919509 L 0.7661430539625514 7.295262190899204 L 0.776091776915469 7.296271126984768 L 0.7860530762983063 7.297150250121001 L 0.796029008903072 7.297839987613291 L 0.8060207908817077 7.298235668182093 L 0.8160197942179312 7.298196910556649 L 0.825993748921042 7.297509100210558 L 0.8358402217312068 7.295803034627603 L 0.845294431894061 7.292574953044498 L 0.8547827515330457 7.289418384324363 L 0.864301334634689 7.286352780608963 L 0.873741896407802 7.283057114616211 L 0.882931712782489 7.279119511128992 L 0.8918547683905533 7.274607946931292 L 0.9004906570589801 7.269568612076913 L 0.9088119671365353 7.264024246042743 L 0.916794339414463 7.25800318817185 L 0.924419823313503 7.251536102820415 L 0.9316748673894394 7.244655969023453 L 0.9385504749670703 7.237396606998223 L 0.9450418389419876 7.229791484385219 L 0.9511474603400351 7.221873158338445 L 0.9568688927694086 7.213672108231885 L 0.9622087759842772 7.205218246692201 L 0.9671720630558811 7.196538084881655 L 0.9717644276834853 7.187656009011519 L 0.9759917931904541 7.178594376546342 L 0.9798600663100094 7.169373365774276 L 0.9833745326638885 7.160011793495405 L 0.9865398842091472 7.150526633630166 L 0.9893600233396915 7.140932877302216 L 0.9918373904381478 7.131245206354511 L 0.9939732839361408 7.121476406465493 L 0.9957672223804276 7.111639131392769 L 0.9972169305700253 7.101745275701334 L 0.9982444868333475 7.091799814529104 L 0.998558317543341 7.081806988069292 L 0.9981576139113625 7.07181703905154 L 0.9970895256175609 7.061875999025314 L 0.9954122096514126 7.052019190659538 L 0.9931896173815752 7.042270442951238 L 0.9904874050668803 7.032643671174339 L 0.9873695499868446 7.023142955256854 L 0.9838969673757054 7.013765787759785 L 0.9801266393359773 7.004504128904284 L 0.9761116027815157 6.99534577386194 L 0.9718873190430414 6.986282090558973 L 0.9673962898937444 6.977347713423212 L 0.9626158699889373 6.968564330015532 L 0.957522793971421 6.959958533552342 L 0.9520803016503789 6.951569831013066 L 0.9462360289828444 6.943456567937907 L 0.9399181760522523 6.935707397646932 L 0.9330302387215798 6.928461890971758 L 0.9254489150241242 6.921949807667804 L 0.9170395629132324 6.916559612755496 L 0.9077460622193767 6.91292938201938 L 0.9069176172290553 6.912728346236268 " id="ID_46D"/>
    <path d="M 0.6541910427251878 7.233820158362309 L 0.649039061407862 7.242390122606026 L 0.6444534972909671 7.251263464045856 L 0.642642996954428 7.261021231279014 L 0.6456342616828117 7.270440011245287 L 0.6523802096417528 7.277769346627433 L 0.6605860604623564 7.283466682237584 L 0.6694578344555852 7.288071751230138 L 0.6787247289903898 7.291822093941925 L 0.6875411092375581 7.29139298409548 L 0.6934155349904207 7.283321080641836 L 0.6989176073495856 7.276728363525339 " id="ID_46E"/>
    <path d="M 0.8369176139042346 6.954728348231159 L 0.8418176939197632 6.946343202498611 L 0.8485727873353994 6.938997216822627 L 0.8567372604781845 6.933253492065721 L 0.8658446130740262 6.929154748750583 L 0.8754896330088879 6.926547331903574 L 0.88539526421353 6.925219782211664 L 0.895387775479965 6.92498521272096 L 0.9038703880692109 6.922203352501461 L 0.9069176172290553 6.912728346236267 L 0.9011125640971152 6.904614141686761 L 0.893573708564057 6.898077973051467 L 0.8848053941216935 6.893304271283475 L 0.8753257129485429 6.890153656981729 L 0.8654955565585957 6.888353911161492 L 0.8555248605835457 6.887644452776243 L 0.8455292165350893 6.887823832809484 L 0.8392234643056539 6.894977204066333 L 0.8354255687367952 6.904226198689138 L 0.8310455186956406 6.9132142408145 L 0.8261123426072307 6.921910918991299 L 0.8206311970085238 6.930272771107073 L 0.814586061877546 6.938236014734887 L 0.8079406394612931 6.945704616986984 L 0.8079176125268077 6.945728347803684 " id="ID_46F"/>
   </g>
   <g id="ID_0" color="rgb(0,0,0)" stroke="currentColor" fill="none" stroke-width="0.00005039721436807565"/>
  </g>
 </svg>