<?xml version="1.0" encoding="UTF-8" ?>
 <svg viewBox="-0.9870824727311173 -3.944573970331196  0.16977973222046838 0.1783204554406499" xmlns="http://www.w3.org/2000/svg" version="1.0" overflow="visible">
  <defs>
   <g id="ID__#42_Model_Space"/>
   <g id="ID__#42_Paper_Space0"/>
   <g id="ID__#42_Paper_Space"/>
  </defs>
  <g id="draft" transform="matrix(1 0 0 -1 0 0)" stroke-width="5.039721436807565E-5">
   <g id="Layer_#32_1" color="rgb(255,0,255)" stroke="currentColor" fill="none" stroke-width="0.00005039721436807565"/>
   <g id="Poliline" color="rgb(0,0,0)" stroke="currentColor" fill="none" stroke-width="0.00005039721436807565">
    <path d="M -0.9395824704749884 3.8592282012028 L -0.9321121572536474 3.865868614289876 L -0.9239841616305071 3.871686640220385 L -0.9153014797681793 3.876638444728413 L -0.9061372181438117 3.880627574825144 L -0.8965650947092393 3.883498541383231 L -0.8866926048794052 3.885032350928991 L -0.8767056076370254 3.884959396394007 L -0.86691247674106 3.883021344839912 L -0.8577342820614966 3.879100326877244 L -0.8570824665564487 3.878728202129 " id="ID_5AB"/>
    <path d="M -0.8570824665564487 3.878728202129 L -0.8579957458145397 3.876211494552531 L -0.8638329455381992 3.868227594986835 L -0.8727798651487486 3.863899550853721 L -0.8824940600332595 3.861537402694303 L -0.892182404807837 3.859075522717535 L -0.9007751626547007 3.854049321084826 L -0.9106477481525621 3.85265248365067 L -0.9206160569986421 3.853289016649444 L -0.9303846140597675 3.855394884739641 L -0.9395824704749884 3.8592282012028 L -0.9494480788420265 3.860671594277341 L -0.9578497971144521 3.86583521427948 L -0.9612755300807558 3.875042802227069 L -0.960052869083845 3.884923025092419 L -0.9562988231751354 3.894158392742495 L -0.9499881090725468 3.901878916024447 L -0.9422406027141461 3.908185033313081 L -0.9337414781903624 3.913444972229731 L -0.9247786918351703 3.917873323166061 L -0.9154705257039417 3.921519366071249 L -0.9057938356907966 3.923986288376475 L -0.8958255169969807 3.924622781673201 L -0.8858648855344899 3.923816783862317 L -0.8760792597424842 3.921781638246883 L -0.8666377736831494 3.918517420349171 L -0.8578292208349092 3.913806728371952 L -0.8504277196488141 3.907144274693619 L -0.8466151279530516 3.898052699159501 L -0.8488441942793727 3.888451847422867 L -0.8550070769873556 3.880625894754924  z" id="ID_5AC"/>
    <path d="M -0.9870824727311173 3.77672819728426 L -0.9790848108646539 3.770726950632171 L -0.9702127874643657 3.766253514890546 L -0.9618448445633767 3.769575137608457 L -0.956711051187816 3.778131138167401 L -0.9524130500926516 3.787158394347795 L -0.9463218380517872 3.794999732495719 L -0.9371587933204814 3.798603065215464 L -0.9272740330837905 3.797381432627416 L -0.9174958418921477 3.79531774990942 L -0.9075656315441316 3.79580436175169 L -0.8990312621680995 3.800984220076443 L -0.8897627298511805 3.804710950363299 L -0.8800762377746691 3.807169273417649 L -0.8702062355816826 3.808776607208582 L -0.8602863557022937 3.810041097633598 L -0.8504065585659983 3.811557624082595 L -0.8407411011049319 3.814080213020067 L -0.8318034953485967 3.818502489396399 L -0.8245272787026517 3.825301963096841 L -0.8194762170254098 3.833900672524686 L -0.8173027405106489 3.843582485509607 L -0.817844954447124 3.85355989268263 L -0.8190532272110022 3.863487040102974 L -0.8199748251977245 3.873442391457446 L -0.8199324502918541 3.883437536439842 L -0.8197022718555163 3.893433285808876 L -0.8210167077841949 3.903319072092923 L -0.8253062987645005 3.912298697872767 L -0.8320612256029349 3.91963843021371 L -0.8400829898107984 3.925595456010796 L -0.848767826057017 3.930545622530052 L -0.8578660372416262 3.934690015731957 L -0.8672544300478044 3.938125734092977 L -0.8768655388367134 3.940884583330065 L -0.8866494803354978 3.942943645618385 L -0.8965641826305121 3.944224827994739 L -0.9065540274733896 3.944573970331196 L -0.9165101346322215 3.943715735412256 L -0.9261633439039105 3.941173959207379 L -0.9353635484075182 3.937259393128218 L -0.9443577329106247 3.932893073806464 L -0.953134160808478 3.928100031918605 L -0.9616244203166316 3.922820931141512 L -0.9696844532042385 3.916905229127202 L -0.9769469312611498 3.910046948378477 L -0.9821911286496938 3.901611909410737 L -0.9837229448859838 3.891742351432394 L -0.9838653484055148 3.881757092599375 L -0.9824334921768489 3.871865281713919 L -0.9803081567133834 3.86210580863875 L -0.9780977687694845 3.852342020775601 L -0.9763234352307286 3.842502334543736 L -0.9755606767551503 3.832539327031479 L -0.9767584649207909 3.822663178244418 L -0.9816569220406866 3.81397383986696 L -0.9840050216870306 3.80426144979998 L -0.9852883517813548 3.794346584380598 L -0.9862115393115563 3.784389466769994  z" id="ID_5AD"/>
   </g>
   <g id="ID_0" color="rgb(0,0,0)" stroke="currentColor" fill="none" stroke-width="0.00005039721436807565"/>
  </g>
 </svg>