<?xml version="1.0" encoding="UTF-8" ?>
 <svg viewBox="-1.186344004773062 -3.448728181705096  0.36459338261681407 0.3753573251976139" xmlns="http://www.w3.org/2000/svg" version="1.0" overflow="visible">
  <defs>
   <g id="ID__#42_Model_Space"/>
   <g id="ID__#42_Paper_Space0"/>
   <g id="ID__#42_Paper_Space"/>
  </defs>
  <g id="draft" transform="matrix(1 0 0 -1 0 0)" stroke-width="5.039721436807565E-5">
   <g id="Layer_#32_1" color="rgb(255,0,255)" stroke="currentColor" fill="none" stroke-width="0.00005039721436807565"/>
   <g id="Poliline" color="rgb(0,0,0)" stroke="currentColor" fill="none" stroke-width="0.00005039721436807565">
    <path d="M -1.048082475628461 3.287728174058004 L -1.055669451773083 3.292194181269783 L -1.06564244498294 3.291894070607998 L -1.075304293995874 3.289390079658669 L -1.084280179922844 3.285014867657341 L -1.092364147717524 3.279147252769853 L -1.099439551474788 3.272093891923411 L -1.105385342215934 3.264065162394862 L -1.10923507315244 3.254890318531471 L -1.110804593121121 3.245024127168322 L -1.111052112095373 3.235031958759488 L -1.11019454084833 3.225073629983027 L -1.108128209888676 3.215297594826843 L -1.104374129997797 3.206052813802799 L -1.097979822762161 3.198433269122622 L -1.089591623325625 3.193046429606184 L -1.080045861815166 3.190192381128561 L -1.070109510563841 3.190584859922648 L -1.061082476245928 3.194728169640743 L -1.05161076721042 3.19771139034241 L -1.04376896388663 3.203854556848847 L -1.037696189242543 3.21177680806457 L -1.033109868980947 3.220652148761146 L -1.029776607348154 3.230073409949703 L -1.027583559583431 3.239824491301762 L -1.026535410160284 3.249763728177684 L -1.026770481196527 3.259752984288269 L -1.028625109979331 3.269563741849045 L -1.03275499679853 3.278627641846858 L -1.039969082374421 3.285407962619538  z" id="ID_618"/>
    <path d="M -1.061082476245928 3.194728169640743 L -1.069273247429253 3.200417251591364 L -1.075634633926704 3.208090141903289 L -1.07967323300969 3.217206606293474 L -1.081401648016808 3.227035205838831 L -1.081135092995161 3.237017690486034 L -1.079210687552945 3.246820423763566 L -1.075877260989927 3.256239633430949 L -1.071287833862922 3.265115431990929 L -1.06551920266818 3.273273332950381 L -1.058597566991931 3.280475822794215 L -1.050539783541253 3.286372386253855 L -1.048082475628461 3.287728174058006 " id="ID_619"/>
    <path d="M -1.126082479333263 3.251728172348098 L -1.127036699141695 3.241781696709285 L -1.126620964884159 3.23179819936818 L -1.124848820217406 3.221964392685485 L -1.121756852853798 3.212462644313292 L -1.117391189689986 3.203474771420701 L -1.111799868309996 3.195194586526826 L -1.105034168642852 3.187844971272365 L -1.097163623447026 3.181696376894592 L -1.088312086657463 3.177076016620835 L -1.078713738859621 3.174339416184867 L -1.06875153043757 3.173770528672847 L -1.058890281112778 3.17532284956939 L -1.049532167996126 3.178801238691628 L -1.040980489585715 3.183959546616433 L -1.033390096989024 3.190454800500338 L -1.026800410835012 3.197966835766152 L -1.02120298171518 3.20624638482227 L -1.016595153386217 3.215115429920995 L -1.013023367583715 3.22444972839701 L -1.010642997067744 3.234154265852826 L -1.010065448100008 3.24411904235961 L -1.010303066931137 3.254116163465734 L -1.01079936670067 3.264103604828227 L -1.011656450116552 3.274066072328999 L -1.014210054700867 3.283676229074973 L -1.019684496626004 3.292010298405989 L -1.026882862770337 3.298928063451459 L -1.035183071236997 3.30448504506049 L -1.044232361586014 3.308718317491502 L -1.053805650993425 3.311575136882334 L -1.06370732364042 3.312885959462475 L -1.073675124722868 3.312344846654248 L -1.083302982134297 3.309702944881122 L -1.092285093230893 3.305336489372949 L -1.100405020335227 3.299517328428324 L -1.107539256881275 3.29252164493668 L -1.11362915341296 3.284598104522654 L -1.118638001520198 3.275950163708849 L -1.122518482706701 3.266740897666636 L -1.125186444042015 3.257110996745582  z" id="ID_61A"/>
    <path d="M -1.103082478240821 3.409728179852695 L -1.112093783886981 3.413747655757077 L -1.119432212698047 3.407514408501933 L -1.118065187108963 3.398273341241312 L -1.111710722715091 3.390554438976188 L -1.104979325603208 3.383159745598039 L -1.098176016705949 3.375830767824444 L -1.098082478003334 3.375728178237782 " id="ID_61B"/>
    <path d="M -0.8600824666989401 3.136228166862142 L -0.8559638210203104 3.14436810133818 L -0.8499816604983942 3.152379541533491 L -0.8445322021753467 3.160759640799662 L -0.8396705039774872 3.169495830168381 L -0.8354405958370164 3.178554897157415 L -0.8318632554357421 3.187890956643618 L -0.8289315935322596 3.197449578585951 L -0.8266106212701771 3.207174909716327 L -0.824841711361496 3.217016021217499 L -0.8235499389703591 3.226931441512707 L -0.8226520690382876 3.236890463909997 L -0.822063189944215 3.246872806456517 L -0.821750622156248 3.256867179940634 L -0.8219409624267388 3.266864231481484 L -0.8226440743240663 3.276838486365793 L -0.823825185420385 3.286767612141138 L -0.8254512164239802 3.296633748596928 L -0.8274913986216283 3.30642272278685 L -0.8299176141975017 3.316123303654613 L -0.8327045455640016 3.32572653553413 L -0.8358318394232782 3.335225972148709 L -0.8394921004649082 3.344529487029355 L -0.8438443297168358 3.353529868344551 L -0.8488845577310764 3.362163849838015 L -0.8545759025905104 3.370383297063733 L -0.8608555964496096 3.378162694865835 L -0.8676469362380547 3.385500938680028 L -0.874869152087716 3.392415655096574 L -0.8824473585837315 3.398938600366014 L -0.890316181396618 3.405108297399875 L -0.8984195224570949 3.410964046806242 L -0.9067156772873135 3.416546778685175 L -0.9151673779713718 3.421891167446812 L -0.9241151804901654 3.42632093393518 L -0.9336475640008075 3.429324131483779 L -0.9434176045544822 3.431447452869345 L -0.9532810173301147 3.433092722893359 L -0.96316863060105 3.434587886730408 L -0.9730379309325387 3.436198370994006 L -0.9829737498433654 3.437310299378992 L -0.9929631000579686 3.437737882905965 L -1.002959675909451 3.437539600579231 L -1.012930342952896 3.436786905832034 L -1.022854278220769 3.435560961934145 L -1.032723447272626 3.433951595245112 L -1.04254243979389 3.432059422616971 L -1.052328882463155 3.430003030756115 L -1.062113103796347 3.427935958807038 L -1.071939573081666 3.426084417597417 L -1.081850306360127 3.42627451706523 L -1.090957016838075 3.430309424009246 L -1.099085955531267 3.436123121791499 L -1.106917881549308 3.442340405470433 L -1.115358476356971 3.447662587161525 L -1.125082479285765 3.448728181705096 L -1.133381133445751 3.443161411382678 L -1.142408591959475 3.43888291950704 L -1.151751075447458 3.435321361764495 L -1.160301743889597 3.430203321451724 L -1.165887727559981 3.422084346288164 L -1.166020485628624 3.412186631893069 L -1.162993076173823 3.40266993173518 L -1.159127544266122 3.393448405598682 L -1.155624729032078 3.384086947120355 L -1.153649746898829 3.374307532795995 L -1.153582480639443 3.371228178024043 L -1.149045605588257 3.362321661921383 L -1.145671466844881 3.352918136891041 L -1.144082480188217 3.343728176717863 " id="ID_61C"/>
    <path d="M -1.153582480639443 3.371228178024043 L -1.160472532521312 3.363986833921604 L -1.166576696267167 3.356071641934038 L -1.171847811114167 3.347578642721812 L -1.176268273313705 3.338612845163183 L -1.179845594922157 3.329278195953595 L -1.182605376027126 3.319669614443922 L -1.184583128472812 3.309869760817615 L -1.185817329279895 3.299948494270962 L -1.186344004773062 3.289964398572907 L -1.186192682253246 3.2799674010603 L -1.185442327501613 3.26999646850866 L -1.184284290126479 3.260064400534306 L -1.182734445387626 3.250185877843504 L -1.180795326989863 3.240376317035222 L -1.178469282627641 3.230651325397522 L -1.175758359714168 3.221026468083609 L -1.17266438121692 3.211517796362455 L -1.169188991373576 3.202141984284326 L -1.165334107923695 3.192917325899349 L -1.161099328799577 3.183857963558727 L -1.156487576806232 3.174986528199696 L -1.151499621288514 3.166321604149255 L -1.146136413896591 3.157883242870877 L -1.140399648585522 3.149693477803028 L -1.134292192361477 3.141776355907593 L -1.127817506821354 3.134156690497642 L -1.120980332269108 3.126860609866042 L -1.113787058419721 3.119915442559635 L -1.106246126705026 3.113349504520288 L -1.098368440219083 3.107191762570046 L -1.090165045424258 3.10146958053791 L -1.081661035319365 3.096217018025113 L -1.072865645365348 3.09145472887633 L -1.063811373202494 3.087213160367088 L -1.054522686089359 3.083513155877422 L -1.045030030862161 3.080373338472748 L -1.035366411056479 3.077807625202828 L -1.025568454797299 3.075824897329646 L -1.015669140172137 3.074427352821624 L -1.005704529012382 3.073612183327714 L -0.9957091011542207 3.073370856507482 L -0.9857155241702377 3.07368972429322 L -0.9758449832196971 3.07517741234365 L -0.9661913825176754 3.077786192637072 L -0.9565555572578183 3.080460788062744 L -0.9468149963146582 3.082715809055502 L -0.9369061958535827 3.084006356649183 L -0.933082470166255 3.084062148759389 " id="ID_61D"/>
   </g>
   <g id="ID_0" color="rgb(0,0,0)" stroke="currentColor" fill="none" stroke-width="0.00005039721436807565"/>
  </g>
 </svg>