<?xml version="1.0" encoding="UTF-8" ?>
 <svg viewBox="1.848727801126698 -3.710872804559128  0.09280910845019386 0.13322928500535403" xmlns="http://www.w3.org/2000/svg" version="1.0" overflow="visible">
  <defs>
   <g id="ID__#42_Model_Space"/>
   <g id="ID__#42_Paper_Space0"/>
   <g id="ID__#42_Paper_Space"/>
  </defs>
  <g id="draft" transform="matrix(1 0 0 -1 0 0)" stroke-width="5.039721436807565E-5">
   <g id="Layer_#32_1" color="rgb(255,0,255)" stroke="currentColor" fill="none" stroke-width="0.00005039721436807565"/>
   <g id="Poliline" color="rgb(0,0,0)" stroke="currentColor" fill="none" stroke-width="0.00005039721436807565">
    <path d="M 1.850917662066649 3.638728190729612 L 1.852832654551604 3.628926967000127 L 1.856217044631653 3.619524771382335 L 1.860728966987397 3.610606668681784 L 1.866238675480974 3.602267869054207 L 1.872713590385441 3.594655546075566 L 1.880164770430291 3.58799956218727 L 1.888593045041965 3.582642808689609 L 1.897900512920478 3.579039957852902 L 1.907778171582981 3.577643519553774 L 1.917674540300109 3.578827419144563 L 1.927123366276869 3.582066325656157 L 1.935750559327087 3.587074566584515 L 1.941536909576892 3.594995570273889 L 1.938611476315132 3.604157769188969 L 1.930729980062132 3.604839709040433 L 1.921509166747944 3.601036341778586 L 1.911611337385449 3.599921862000773 L 1.901860851098383 3.601941987432551 L 1.893120979540692 3.606735330478999 L 1.885807631613613 3.613524596449725 L 1.879995786134775 3.621643818227347 L 1.875674716065659 3.630647501188693 L 1.872873995530206 3.640237297076525 L 1.871712417051899 3.650155093117751 L 1.87240230942191 3.660114453035067 L 1.875213904670658 3.669687127450719 L 1.88034791857709 3.678229167371629 L 1.887910497026181 3.684701663112061 L 1.896856905918729 3.689148015352763 L 1.906037850321761 3.693110229277719 L 1.912058633471615 3.699620430493043 L 1.908772941341011 3.708964965117143 L 1.899841905549179 3.710872804559128 L 1.890009184948009 3.709155458971627 L 1.880705241896923 3.705529699779052 L 1.87223148268337 3.700247453178315 L 1.86479650449968 3.693577990423262 L 1.858565544085199 3.68576926274512 L 1.853696370957251 3.677047571195167 L 1.850357329758078 3.667634655286391 L 1.848727801126698 3.657782525261936 L 1.848963869839322 3.647800954969111  z" id="ID_7AA"/>
   </g>
   <g id="ID_0" color="rgb(0,0,0)" stroke="currentColor" fill="none" stroke-width="0.00005039721436807565"/>
  </g>
 </svg>