<?xml version="1.0" encoding="UTF-8" ?>
 <svg viewBox="2.74591469123242 -4.747660765122221  0.3610832180745307 0.36042564025720036" xmlns="http://www.w3.org/2000/svg" version="1.0" overflow="visible">
  <defs>
   <g id="ID__#42_Model_Space"/>
   <g id="ID__#42_Paper_Space0"/>
   <g id="ID__#42_Paper_Space"/>
  </defs>
  <g id="draft" transform="matrix(1 0 0 -1 0 0)" stroke-width="5.039721436807565E-5">
   <g id="Poliline" color="rgb(0,0,0)" stroke="currentColor" fill="none" stroke-width="0.00005039721436807565">
    <path d="M 3.026917717923652 4.646728238607042 L 3.034154774028806 4.639879324322608 L 3.039514876518451 4.631455854617618 L 3.043653168055971 4.622355957702888 L 3.047440178175762 4.613100896275922 L 3.056265280658644 4.615307613806049 L 3.063415088061617 4.622218076284136 L 3.068027052324669 4.631051819910327 L 3.069857075182376 4.640839990327828 L 3.067794578342493 4.650520090485482 L 3.06102285279393 4.657725308345167 L 3.051777001019354 4.661378855709219 L 3.041830167394197 4.661597166944694 L 3.032536266074981 4.658113184266253 L 3.026067658857558 4.650798446434853  z" id="ID_5C7"/>
    <path d="M 3.050417719039842 4.511228232171138 L 3.044545879398508 4.507818592018161 L 3.036048918848821 4.502546597280066 L 3.027739528555878 4.496983688814406 L 3.019627864357881 4.491136266499555 L 3.011725535326796 4.485008946425796 L 3.004045812888488 4.478604883861091 L 2.996603849940502 4.471926072389372 L 2.989416965652893 4.464973694174856 L 2.982504643064412 4.457748191051081 L 2.975889197440118 4.450250034640491 L 2.969595674392479 4.442479814303247 L 2.963652153130624 4.434438827550371 L 2.958089877770248 4.426129676956577 L 2.952943268259891 4.417556983834206 L 2.948249745437124 4.408728227302649 L 2.953660719996349 4.400320978404982 L 2.959637490175206 4.392324455203022 L 2.968069420955441 4.387235124865021 L 2.975994633932959 4.391552860455368 L 2.980283823841729 4.400584291286428 L 2.985154719691262 4.409315782406828 L 2.990524162451942 4.417750440210046 L 2.996320977904485 4.425897710726404 L 3.002485368614571 4.433770868959358 L 3.008967415364185 4.441384850147649 L 3.015725542531443 4.448754961060913 L 3.022725168448129 4.455896187491582 L 3.029937281875483 4.462822573432648 L 3.037581171101416 4.469260839611127 L 3.04558714460815 4.475253062679447 L 3.05314775978781 4.481786335289758 L 3.059113204834428 4.489763889024741 L 3.061747299062243 4.499333929460725 L 3.055978282071521 4.507162912111461  z" id="ID_5C8"/>
    <path d="M 2.948249745437124 4.408728227302649 L 2.938533513697729 4.41109099955255 L 2.928915817546897 4.413827229463679 L 2.919413443562264 4.416940286070339 L 2.910042579906937 4.420429183890055 L 2.900817964685325 4.424288515908227 L 2.891752695318576 4.428508399236553 L 2.882857084115315 4.43307512572688 L 2.87413862884761 4.437971650603698 L 2.865601771747694 4.443178389323295 L 2.857172450198873 4.448558505013513 L 2.848791574887586 4.454013809400509 L 2.840484069702593 4.459580200236425 L 2.832279575712068 4.465297011956009 L 2.824215451303873 4.471210114495953 L 2.816342526960484 4.47737517619676 L 2.808733700188381 4.483862781899198 L 2.801500069692212 4.490765131160054 L 2.794794345340296 4.498180614466182 L 2.788540636942684 4.505982519517134 L 2.782708757318763 4.514104454876983 L 2.777309371236646 4.522520122261957 L 2.772347938453889 4.531201215583717 L 2.767824661266502 4.540118689733745 L 2.763735109257651 4.549243186202245 L 2.760070405761102 4.558546539362238 L 2.756818077808973 4.568002046030649 L 2.753962685026705 4.577584990663931 L 2.75148643127606 4.587272938178298 L 2.749369685479384 4.597045797002399 L 2.747608698406203 4.606888766011506 L 2.746427129872637 4.616816947112585 L 2.74591469123242 4.62680173845797 L 2.746088902701536 4.636798126923601 L 2.746965020593743 4.646757408584555 L 2.748556088453966 4.656627503144239 L 2.750872972417415 4.666352498239962 L 2.75392423357219 4.675872135553039 L 2.757716954974396 4.68512382279381 L 2.76225218010614 4.694032738058595 L 2.767528171337024 4.70252307627552 L 2.773536191091084 4.710511315706643 L 2.780259110317648 4.717908629381206 L 2.787667775271911 4.724621463912678 L 2.795713142953791 4.730551852528607 L 2.804333051481533 4.73561089597023 L 2.813444367728186 4.739719483807796 L 2.822946990744045 4.742818160926605 L 2.832728498412689 4.744873807343383 L 2.842663832526331 4.745993442139875 L 2.85262796159158 4.746839058642414 L 2.862610268372129 4.747428156153791 L 2.872606908547616 4.747660765122221 L 2.882603304393862 4.747435796501353 L 2.892569952477842 4.746643424697833 L 2.902459223457828 4.745176286717258 L 2.912230983624739 4.74305689598915 L 2.921848232352399 4.740322616029542 L 2.931286177284254 4.73702148498034 L 2.940533634363598 4.733219101414636 L 2.949593156080911 4.728989717253773 L 2.958480239399468 4.724407173041617 L 2.967216405612488 4.7195406918132 L 2.975825372154979 4.714452292528015 L 2.984331666629062 4.709195107495789 L 2.99275943188919 4.70381317013749 L 3.001130286957993 4.698342955226845 L 3.009463007029133 4.692814422416104 L 3.018417142891847 4.695379606080809 L 3.027504597355786 4.699550690192344 L 3.037091417034652 4.702320038642033 L 3.047012054607337 4.703491280046991 L 3.056989032604619 4.703057053066352 L 3.066723977974994 4.700842071894166 L 3.07585982045458 4.696819070921289 L 3.08406713499888 4.691135731451522 L 3.091122069066228 4.684057241887577 L 3.096896764868402 4.67590593991148 L 3.101361224845378 4.666966764363083 L 3.104520421336909 4.657487032867484 L 3.106393411988424 4.647670700816105 L 3.106997909306951 4.63769561834969 L 3.106348798159384 4.627727439643656 L 3.104460711158939 4.617916789337247 L 3.101354624427386 4.608416274178001 L 3.097074131803511 4.599388644989678 L 3.091684514041107 4.590973609114053 L 3.085283641766993 4.583299106510358 L 3.077772796226243 4.576717056791185 L 3.069407795368459 4.571245688682639 L 3.06087600375131 4.566031376541618 L 3.052881137507847 4.560039724055304 L 3.046086360710063 4.552757885495717 L 3.047587748307151 4.542875183411588 L 3.048409739197698 4.532909771420772 L 3.049083233289961 4.522932557087914 L 3.050145904969399 4.512991055880059 L 3.050417719039842 4.511228232171136 " id="ID_5C9"/>
   </g>
   <g id="ID_0" color="rgb(0,0,0)" stroke="currentColor" fill="none" stroke-width="0.00005039721436807565"/>
  </g>
 </svg>