<?xml version="1.0" encoding="UTF-8" ?>
 <svg viewBox="-0.0780824295559342 -3.718777492670723  0.3151909538034961 0.3674579288095501" xmlns="http://www.w3.org/2000/svg" version="1.0" overflow="visible">
  <defs>
   <g id="ID__#42_Model_Space"/>
   <g id="ID__#42_Paper_Space0"/>
   <g id="ID__#42_Paper_Space"/>
  </defs>
  <g id="draft" transform="matrix(1 0 0 -1 0 0)" stroke-width="5.039721436807565E-5">
   <g id="Poliline" color="rgb(0,0,0)" stroke="currentColor" fill="none" stroke-width="0.00005039721436807565">
    <path d="M -0.0780824295559342 3.665728192012043 L -0.0779461619337587 3.657219489104191 L -0.0680035370404699 3.658117701433246 L -0.0582524134624745 3.660332243596432 L -0.0485735978388906 3.662830735082719 L -0.038770335265764 3.664791506737582 L -0.028801477203003 3.665370106140974 L -0.0189610400600717 3.66375446894966 L -0.0098716260026768 3.659652172843607 L -0.0019770758870346 3.653542970096795 L 0.0045521742694152 3.645993090280191 L 0.0095989842840059 3.637372626983365 L 0.0134835435350782 3.62816226970726 L 0.0164391751953153 3.618611287105114 L 0.0185981775513531 3.608849687371625 L 0.0199625089731184 3.598948127436589 L 0.0195296692302378 3.58896808817666 L 0.0187973937379145 3.578997635600039 L 0.0198406349409002 3.569085798278836 L 0.0241253902625474 3.560103836535427 L 0.0305222741669313 3.552433768792811 L 0.037821518572267 3.545602597658076 L 0.0454575985497439 3.539144788681308 L 0.053094221466357 3.532688033997974 L 0.0604132341646437 3.525876759529547 L 0.0669357712656265 3.518307941206142 L 0.0717501019273232 3.509578279284863 L 0.0737524749803305 3.499808999300439 L 0.0741070272678108 3.489819921456845 L 0.0738237528453993 3.479824642332754 L 0.0729608405380926 3.469864486455891 L 0.0711731551316017 3.460031269816605 L 0.068288635999334 3.450462208374059 L 0.0645903568197488 3.441173220900514 L 0.0606685686196009 3.431974756169331 L 0.056906656670388 3.422709628686813 L 0.0527213588851154 3.413633454983759 L 0.0470469476470008 3.405433045794262 L 0.0391433602859674 3.399382037415882 L 0.0298630484378455 3.395716445194375 L 0.0200664697281958 3.393757177364969 L 0.0101684161881046 3.392335051811899 L 0.000434222244901 3.390086930105196 L -0.0085759906967082 3.385818041696225 L -0.0160910786999899 3.379266387073634 L -0.0141919590178468 3.371712784874349 L -0.0063201689264645 3.365570756294454 L 0.002487157878214 3.360853778011678 L 0.0118314651465337 3.357307169630857 L 0.0214863428081946 3.35471368324084 L 0.0313205269484191 3.352915542223497 L 0.0412570458042572 3.351805787919754 L 0.0512430640461483 3.351319563861173 L 0.0612417521976516 3.351428444626845 L 0.0712141183809392 3.352154675044113 L 0.0811129657613892 3.353551015789193 L 0.0909169611900636 3.355515717610987 L 0.1006117733606517 3.35796362734205 L 0.11018880352007 3.360838915036003 L 0.1196395821977632 3.36410573794174 L 0.1289539815204082 3.367743226533269 L 0.1381188444621619 3.37174295820006 L 0.1471155843916598 3.376107757085264 L 0.1559179471231094 3.380852262162102 L 0.1644872772652084 3.386004553411051 L 0.172842291523402 3.391498722353338 L 0.181019609094001 3.397253755393787 L 0.1889382306679863 3.403358997863348 L 0.1964912868471389 3.409909501612387 L 0.2035512615962531 3.416991942650945 L 0.2099733077103156 3.424649816575621 L 0.2156426484205047 3.432882008412819 L 0.2204898569771609 3.441620184017311 L 0.2245209403923898 3.45077083574068 L 0.2277921515724106 3.460216470578014 L 0.2303991057714114 3.469869860555828 L 0.2324422461350801 3.479656612958608 L 0.2340171900135033 3.489530613960809 L 0.2352141901488594 3.499458212358332 L 0.2361979041599076 3.509409315116558 L 0.2368882390057871 3.519384845568877 L 0.2371085242475619 3.529381143530979 L 0.2366548577576433 3.539368144432046 L 0.235298825730812 3.549271188804162 L 0.2331029649179523 3.559027020925222 L 0.2308048419700244 3.568759528762464 L 0.2283226044013995 3.578446302704771 L 0.2254755625598763 3.58803084303862 L 0.2219190734588734 3.597371960667052 L 0.2172278760689146 3.606197940784134 L 0.2118883305374419 3.614652318480493 L 0.2064264947579586 3.623029179547392 L 0.2013323166253995 3.631631778715766 L 0.1971873742468526 3.640725821704139 L 0.1930983428576196 3.649843833051372 L 0.187573434454289 3.658172353303196 L 0.181185408820351 3.665860514489494 L 0.1740724962729638 3.672884206531255 L 0.1663606458357156 3.679245600918042 L 0.1581613523013043 3.684965998389923 L 0.1495684843277365 3.690077039697804 L 0.1406589318386775 3.694614049954415 L 0.1315115927252686 3.698653071232934 L 0.1222474045118034 3.702417572430425 L 0.1128855288795023 3.705931942981775 L 0.1034268282765609 3.709176418221831 L 0.093868286025697 3.712112927182978 L 0.0842036177899317 3.714678165663919 L 0.0744259207422848 3.716767255938966 L 0.0645312766708592 3.71819422599772 L 0.05455156253241 3.718777492670723 L 0.0445578141885914 3.718520860753462 L 0.0346158248785704 3.717469303210775 L 0.0247778318387342 3.71568837021938 L 0.0150800451057638 3.713255381479728 L 0.0055432534432089 3.710251418463887 L -0.003824718607099 3.706755457660774 L -0.0130259022237054 3.702840866802667 L -0.0220692496158392 3.698573822051978 L -0.0309681521652827 3.694013069602091 L -0.0397390312204191 3.689210198689883 L -0.0483994786363757 3.684210800906981 L -0.0569679119497382 3.679055195833234 L -0.0654629441755645 3.673779457555925 L -0.0739030965095573 3.668416317082197  z" id="ID_57F"/>
   </g>
   <g id="ID_0" color="rgb(0,0,0)" stroke="currentColor" fill="none" stroke-width="0.00005039721436807565"/>
  </g>
 </svg>