<?xml version="1.0" encoding="UTF-8" ?>
 <svg viewBox="-1.098711316901137 -7.020995200352365  0.33334574446673126 0.3277673405033683" xmlns="http://www.w3.org/2000/svg" version="1.0" overflow="visible">
  <defs>
   <g id="ID__#42_Model_Space"/>
   <g id="ID__#42_Paper_Space0"/>
   <g id="ID__#42_Paper_Space"/>
  </defs>
  <g id="draft" transform="matrix(1 0 0 -1 0 0)" stroke-width="5.039721436807565E-5">
   <g id="Poliline" color="rgb(0,0,0)" stroke="currentColor" fill="none" stroke-width="0.00005039721436807565">
    <path d="M -1.074082476863395 6.759728338969157 L -1.067879286859046 6.751886851375756 L -1.061844509186751 6.743912998945452 L -1.05556771171464 6.736129173631014 L -1.048724945127797 6.728842105075171 L -1.040918301916779 6.722617514288191 L -1.031743823344735 6.718794823211005 L -1.021901725853139 6.719614601987688 L -1.01424002403479 6.72579920910415 L -1.009818485025267 6.734726061784315 L -1.007851733325192 6.744506127619463 L -1.008694532716819 6.754416586047803 L -1.012831374156561 6.763493403027567 L -1.018500163236117 6.7717231584157 L -1.025074665820886 6.779251786900602 L -1.03254987941399 6.785877281612026 L -1.041574616953646 6.790052487171816 L -1.051462217120366 6.791333932555455 L -1.06130233494032 6.78979334723438 L -1.0698660942986 6.78479352707734 L -1.074882880684971 6.776284346501492 L -1.075461116031924 6.766363399174981  z" id="ID_49B"/>
    <path d="M -1.082082477243375 6.816228341652763 L -1.083232504324505 6.8152887754866 L -1.090083652005393 6.808036788301046 L -1.095040360375966 6.799380437117608 L -1.097876844160593 6.789812964927794 L -1.098711316901137 6.779862902607982 L -1.097838595263096 6.769911367570539 L -1.095560834642803 6.760181679983034 L -1.0921190037285 6.750798518817169 L -1.087686235230014 6.74183977048997 L -1.082380050493102 6.73336857370732 L -1.076276136955526 6.725452808896397 L -1.069419952442954 6.718179377494117 L -1.061837339527306 6.711667986189763 L -1.053547718600886 6.706086935832778 L -1.044586125130405 6.701670017727803 L -1.035042878576837 6.698724581876252 L -1.025123175311831 6.697601245973882 L -1.015191596878598 6.698582361344458 L -1.00571484438383 6.701711767169907 L -0.9970824732060918 6.706728336451792 L -0.9931337182200844 6.715913796609452 L -0.9899189699173103 6.725379018447515 L -0.9877765343051168 6.735139725912341 L -0.9870610325288816 6.745103577374755 L -0.9879701191150704 6.755050721053882 L -0.9904079616356806 6.764739781929424 L -0.9941849342158182 6.773987608935435 L -0.9993657598663236 6.782529592516817 L -1.005702728821947 6.79025572806213 L -1.012976125686633 6.797109315713992 L -1.021015268427433 6.80304735464686 L -1.029681531147616 6.808026169960706 L -1.038853746674903 6.811996655373611 L -1.048415833532007 6.814904779313085 L -1.058248053658512 6.816696712021139 L -1.068222272566209 6.81732732946523 L -1.078200814285027 6.81677073957384  z" id="ID_49C"/>
    <path d="M -0.9970824732060918 6.706728336451792 L -0.9885470697397672 6.701541639245396 L -0.9792949799609864 6.6977707316571 L -0.9696221861786185 6.695257180431098 L -0.959732374619996 6.693803991703269 L -0.9497516580553186 6.693227859848997 L -0.9397549039906794 6.693376852578622 L -0.9297842869557397 6.694131001699357 L -0.9198655989484577 6.695397186953092 L -0.9100128026395407 6.697103724272126 L -0.9002343185188861 6.699195676927578 L -0.8905355475339229 6.701631531843487 L -0.8809208019851535 6.704381149416214 L -0.8713949625802666 6.7074251677495 L -0.8619656487558238 6.710756721837745 L -0.8526479265278741 6.714389010037991 L -0.8434829945580659 6.718388547165385 L -0.8345784227301384 6.722934968170494 L -0.8260186350378262 6.728100689465994 L -0.8178751894971928 6.733900102203862 L -0.8102164463840226 6.740325741248326 L -0.803099181568176 6.747346343463803 L -0.7965508088158036 6.754901204522479 L -0.7905366379754124 6.762887894975265 L -0.7850879180861048 6.771270727297512 L -0.7802461297502559 6.780017822760267 L -0.7760471153259614 6.789090740735174 L -0.7725197585588033 6.798445034919664 L -0.7696838188091811 6.808035116452928 L -0.7675531342496642 6.817801252490837 L -0.7661285027678284 6.827696738134462 L -0.7654040119827439 6.837668582298417 L -0.7653655724344058 6.847666583689758 L -0.765992331921087 6.857645110655558 L -0.7672582087800395 6.867562955317478 L -0.7691333102244302 6.877383962083844 L -0.7715853200480467 6.88707731165547 L -0.7740931165148801 6.89674960741971 L -0.7752660586865341 6.906677229413864 L -0.7761508298214093 6.916637541560433 L -0.7780657313109672 6.926436619569986 L -0.7816941980411789 6.935749998233386 L -0.7860267653979696 6.944761278504947 L -0.7908058807557464 6.953545461097869 L -0.7959602047638912 6.962115426028421 L -0.8014804935162382 6.970452536490896 L -0.8073991107950932 6.978511297410888 L -0.8137904124794728 6.986199903548264 L -0.8207921619755014 6.993333744757771 L -0.8285463169509696 6.999639391989065 L -0.8369549092872743 7.005042904921348 L -0.8458756993222724 7.009554267020242 L -0.8551752008408994 7.013214603984926 L -0.8647522666981082 7.016087649257525 L -0.8745164895912358 7.018239045810112 L -0.884404381423124 7.019735320201834 L -0.8943598037940461 7.020636172777003 L -0.9043522650136983 7.020995200352365 L -0.9143505054350198 7.020856722811902 L -0.9243318798720876 7.020257351569695 L -0.9342779914315713 7.019226034507747 L -0.9441730215422445 7.017784327640717 L -0.9540044895770822 7.015945975989528 L -0.9637503135809772 7.013718963600966 L -0.9734006443680094 7.011099632461565 L -0.9829325065685274 7.00807539516905 L -0.9923149539932953 7.004619508051399 L -1.001505970091244 7.000682188867724 L -1.010480525897439 6.996274146799597 L -1.019245011206639 6.991461407255246 L -1.027747782265308 6.98619890265276 L -1.035924082360009 6.980442709189118 L -1.043696355878132 6.97415627068137 L -1.050982990870998 6.967310961703776 L -1.057693891111786 6.95990065438223 L -1.063745171231675 6.951943018899111 L -1.069069333688958 6.943481734308878 L -1.073624820540766 6.93458301992202 L -1.077401286600277 6.925326683351311 L -1.080418213190994 6.915795599341942 L -1.082718450213776 6.906066461453144 L -1.084359449474588 6.8962042140261 L -1.085404977789839 6.886261039689477 L -1.085919198531601 6.876276029977975 L -1.08596508359877 6.866277586927522 L -1.085922987287322 6.856278888154471 L -1.085864695012209 6.846279457726532 L -1.085433622133033 6.836290941182188 L -1.084260057999499 6.826363983541203 L -1.082176746024194 6.816587118268859 L -1.082082477243375 6.816228341652763 " id="ID_49D"/>
   </g>
   <g id="ID_0" color="rgb(0,0,0)" stroke="currentColor" fill="none" stroke-width="0.00005039721436807565"/>
  </g>
 </svg>