<?xml version="1.0" encoding="UTF-8" ?>
 <svg viewBox="-1.079082477100882 -6.179628575396198  0.15394003229983266 0.1929240440254283" xmlns="http://www.w3.org/2000/svg" version="1.0" overflow="visible">
  <defs>
   <g id="ID__#42_Model_Space"/>
   <g id="ID__#42_Paper_Space0"/>
   <g id="ID__#42_Paper_Space"/>
  </defs>
  <g id="draft" transform="matrix(1 0 0 -1 0 0)" stroke-width="5.039721436807565E-5">
   <g id="Poliline" color="rgb(0,0,0)" stroke="currentColor" fill="none" stroke-width="0.00005039721436807565">
    <path d="M -1.079082477100882 6.072728306338408 L -1.078410398753185 6.062754702833165 L -1.076808800651602 6.052887370366813 L -1.074307821783716 6.043208744677338 L -1.070920021526324 6.0338040508685 L -1.06664132189832 6.024770152408336 L -1.061453965093411 6.016226403532997 L -1.055332721467032 6.00832628151673 L -1.048258207380221 6.001269438976464 L -1.040242032698238 5.995307627619735 L -1.031365365137295 5.99072989447807 L -1.021816936117206 5.987807873310829 L -1.011892922370174 5.98670453137077 L -1.001930642505326 5.987402583679919 L -0.9924620350841362 5.990457807517277 L -0.983500801847989 5.994895242982793 L -0.9741254878403209 5.998328622018555 L -0.964337370848515 6.000366642376603 L -0.9547762250532931 6.003206411691262 L -0.9469276416794922 6.009296077760046 L -0.9410718158564108 6.017380349950172 L -0.9366279241429937 6.026331582550405 L -0.9331968599936786 6.035720195373072 L -0.9305350287446367 6.04535728400272 L -0.92850048333118 6.055146908089601 L -0.9270163622393559 6.065035321436107 L -0.9260571931232028 6.074987526411012 L -0.9254526933169486 6.084969617758855 L -0.9251424448010493 6.094964189718899 L -0.9253936905518287 6.104958540473376 L -0.9266527961624264 6.114871926753831 L -0.9292874174234314 6.124506615360169 L -0.9330325976104498 6.133775624478561 L -0.9373704181738693 6.142785734651766 L -0.9431327580140642 6.150945647617531 L -0.9498885141729465 6.15831100853906 L -0.9573709348775087 6.164938641001155 L -0.9655387082110671 6.170698578985799 L -0.9744192382298635 6.175273991665417 L -0.9839993746255091 6.178068447987899 L -0.9939228824894144 6.179266372187476 L -1.003910749617469 6.179628575396198 L -1.013897941720676 6.179164796126949 L -1.023705910150323 6.177312051495487 L -1.032784348323226 6.17317393249117 L -1.040846205003852 6.167279427512065 L -1.047922599499736 6.160223735516494 L -1.054144270302887 6.152400408546392 L -1.059640503058452 6.144048118358572 L -1.064508196549037 6.135313601926012 L -1.068808615586847 6.126288000686207 L -1.072564689522374 6.117021887638556 L -1.075734231643634 6.107539026443621 L -1.078037576112006 6.097816941061046 L -1.078327737506596 6.087832423063133 L -1.078295756763084 6.077836520295061  z" id="ID_50D"/>
   </g>
   <g id="ID_0" color="rgb(0,0,0)" stroke="currentColor" fill="none" stroke-width="0.00005039721436807565"/>
  </g>
 </svg>