<?xml version="1.0" encoding="UTF-8" ?>
 <svg viewBox="0.8571983167388594 -5.787015058865481  0.2890657896144616 0.3420013659335064" xmlns="http://www.w3.org/2000/svg" version="1.0" overflow="visible">
  <defs>
   <g id="ID__#42_Model_Space"/>
   <g id="ID__#42_Paper_Space0"/>
   <g id="ID__#42_Paper_Space"/>
  </defs>
  <g id="draft" transform="matrix(1 0 0 -1 0 0)" stroke-width="5.039721436807565E-5">
   <g id="Poliline" color="rgb(0,0,0)" stroke="currentColor" fill="none" stroke-width="0.00005039721436807565">
    <path d="M 0.8822496473073898 5.582062267408023 L 0.8878424359642291 5.573820547410696 L 0.8964167246650402 5.569013885854098 L 0.9061011395289738 5.570724782137078 L 0.9140762885672647 5.576682860171686 L 0.9203067774792303 5.584482454438093 L 0.9250515726449082 5.593271908184736 L 0.9283123778053985 5.602712637585482 L 0.929800450304139 5.612582991337068 L 0.9288230510258577 5.622497051250792 L 0.9243363074120605 5.631341167757311 L 0.9163310434135603 5.637181898678911 L 0.9066561037923568 5.639540219626326 L 0.8975744152228317 5.636516427768554 L 0.8905793821116798 5.629426724444159 L 0.8857858024003775 5.620684330918916 L 0.8829575262407916 5.611112207848887 L 0.8816586116798346 5.601208309393525 L 0.881532809477159 5.591213966029388  z" id="ID_4F0"/>
    <path d="M 1.022917622738759 5.7227282897143 L 1.032160461350331 5.719492322116408 L 1.041282956287981 5.723178760823101 L 1.047978004899451 5.730550397346881 L 1.052504317279683 5.73944002712341 L 1.050576315767916 5.747835415114292 L 1.041045145120085 5.748951713744735 L 1.032893048264602 5.743308074365899 L 1.0269754149513 5.735281048232469 L 1.023334080796031 5.726007517313816  z" id="ID_4F1"/>
    <path d="M 0.903917617086563 5.668228287125689 L 0.9016768824963232 5.667659662820454 L 0.8923078556124748 5.664202387209505 L 0.8836918129466724 5.659154006739022 L 0.876099181850181 5.652666316485996 L 0.8697120349790212 5.644986881682154 L 0.8646173970505558 5.636391449255383 L 0.8608398898479636 5.627143405192236 L 0.8583700349147465 5.617461063934964 L 0.8571983167388594 5.607537168105291 L 0.8573256512077405 5.597545148350764 L 0.8587682185988594 5.587657403845524 L 0.8615525828973931 5.578061579758334 L 0.8657009590591346 5.568973061661992 L 0.8712056202345364 5.560637266511263 L 0.8779964309650614 5.553312588411435 L 0.8859176162316089 5.547228281378497 L 0.8959053841724609 5.547725187383025 L 0.9058786866469485 5.548462262964974 L 0.915787867896106 5.549788887667483 L 0.9252645335162146 5.552856115562849 L 0.9337846580890962 5.558054749755069 L 0.9411437861937264 5.564800856037917 L 0.9470713640254029 5.572835621983502 L 0.9514465380672625 5.5818132591867 L 0.954271184280233 5.591394826681185 L 0.9556079096775205 5.6012958933093 L 0.9555281378473257 5.611287408976949 L 0.9540840133882682 5.621174609758587 L 0.9512988865687682 5.630770332210866 L 0.9471707148542156 5.639868243853813 L 0.9416886559909816 5.648218383764764 L 0.9348682158023642 5.655512940358533 L 0.926806630168361 5.66140279533423 L 0.9177352617271932 5.665570058050191 L 0.9080132923141768 5.667841587380486  z" id="ID_4F2"/>
    <path d="M 0.8859176162316089 5.547228281378497 L 0.888930435220259 5.537693380995444 L 0.8922806707809174 5.528271846635565 L 0.8960184647337428 5.518997580068507 L 0.9001932049421341 5.509911767379027 L 0.9048556599654853 5.501066641550556 L 0.9100579729208089 5.492528329399776 L 0.9158512216365934 5.484380065679758 L 0.9222802566441838 5.476724418856359 L 0.9293753139226782 5.469682862846606 L 0.9371409140421791 5.463390123579922 L 0.9455447888574717 5.457980991939577 L 0.9545127235182411 5.453569866097846 L 0.9639324879292034 5.450229917813843 L 0.9736706270883015 5.447979148652443 L 0.9835583161414174 5.446490351573691 L 0.9935056870050794 5.445477283457029 L 1.00349334189192 5.445013692931974 L 1.013489906860224 5.445176891307232 L 1.023449669754158 5.446042609103056 L 1.033311812999561 5.447677418479927 L 1.04300261355682 5.450129424026398 L 1.052441478969015 5.453419437233228 L 1.061551951429757 5.45753667899213 L 1.070265033539552 5.46243656786325 L 1.078535800944856 5.46805171623725 L 1.086340148715335 5.47429976459198 L 1.093674330886455 5.481094164278873 L 1.100550802410968 5.488352376907843 L 1.106992234943578 5.495999802110793 L 1.113027694638632 5.503971804519921 L 1.118714387533994 5.512196580661114 L 1.124039889883517 5.52065943655032 L 1.128945537009342 5.529372083675048 L 1.133366803738213 5.538340008776748 L 1.13723514288493 5.547559598040677 L 1.140481640032207 5.557015774313792 L 1.143042133195073 5.566680016501517 L 1.144863586439584 5.576510180922533 L 1.145916803842564 5.586452135511233 L 1.146264106353321 5.596443659365811 L 1.145821044682371 5.606430402365973 L 1.144463286723089 5.616333348496775 L 1.142112352277258 5.626047902231447 L 1.138766662085863 5.635466308039622 L 1.134507020370568 5.644508871239501 L 1.129469382656977 5.653145253721477 L 1.123809220572006 5.661386771057046 L 1.117668564170156 5.669276887956677 L 1.111164184097495 5.67687138135208 L 1.10439552836574 5.68423190201859 L 1.097633818004509 5.691598804209944 L 1.090202205346949 5.698272273082184 L 1.08162364071608 5.703376880280302 L 1.074571156978135 5.708479883132247 L 1.075850285308875 5.718390791725128 L 1.078168366356366 5.728115091211058 L 1.081000713196659 5.737705416970986 L 1.083609153532911 5.747356897374088 L 1.084797061194662 5.757264254904574 L 1.082855959721755 5.767008187194149 L 1.077372028780088 5.775309316106568 L 1.069767249117878 5.78176351296836 L 1.060693576480277 5.785873309496844 L 1.050798186982579 5.787015058865481 L 1.040947893538168 5.785443060360362 L 1.031610841327998 5.781900784356613 L 1.022885207676523 5.777031557195756 L 1.014727289489409 5.77125317739222 L 1.007069451078648 5.764825150135397 L 0.9998477689264539 5.757909161826268 L 0.9930124456989251 5.750611042819252 L 0.9865257488457448 5.743001570206951 L 0.9803607778341953 5.735129453990608 L 0.9746536454089822 5.726937385691091 L 0.969795860445842 5.718423470385492 L 0.9623350316150522 5.711769616618219 L 0.9542374990404587 5.705910829258524 L 0.9457456865227618 5.700633410911145 L 0.9370649759030698 5.69567344128063 L 0.9283717501018937 5.690726214521963 L 0.9198779266757507 5.685454222221515 L 0.9118727464442404 5.679469415584962 L 0.9048207788510458 5.672398650329946 L 0.9039176170865622 5.668228287125689 " id="ID_4F3"/>
   </g>
   <g id="ID_0" color="rgb(0,0,0)" stroke="currentColor" fill="none" stroke-width="0.00005039721436807565"/>
  </g>
 </svg>