<?xml version="1.0" encoding="UTF-8" ?>
 <svg viewBox="-1.766190780107081 -4.30264766327417  0.3868242336577741 0.548431237274777" xmlns="http://www.w3.org/2000/svg" version="1.0" overflow="visible">
  <defs>
   <g id="ID__#42_Model_Space"/>
   <g id="ID__#42_Paper_Space0"/>
   <g id="ID__#42_Paper_Space"/>
  </defs>
  <g id="draft" transform="matrix(1 0 0 -1 0 0)" stroke-width="5.039721436807565E-5">
   <g id="Layer_#32_1" color="rgb(255,0,255)" stroke="currentColor" fill="none" stroke-width="0.00005039721436807565">
    <path d="M -1.462082495292406 3.867728201606528 L -1.462082495292406 3.867728201606528 " id="ID_5DA"/>
    <path d="M -1.706082506881784 4.119728213575887 L -1.706082506881784 4.119728213575886 " id="ID_5DE"/>
   </g>
   <g id="Poliline" color="rgb(0,0,0)" stroke="currentColor" fill="none" stroke-width="0.00005039721436807565">
    <path d="M -1.734082508211713 3.911728203696416 L -1.731197260100429 3.903343042676613 L -1.726082507831733 3.895728202936457 L -1.724082507736738 3.894728202888959 L -1.718826023340954 3.886295387088582 L -1.710998316049039 3.880127707581337 L -1.702004159506892 3.875779209908944 L -1.692614589249517 3.872342333406972 L -1.683618749895849 3.868275663842959 L -1.681455412572359 3.858797674185447 L -1.679959294705554 3.848912649435836 L -1.678194621260307 3.83906825604633 L -1.676013091668401 3.829310164007937 L -1.673269416277304 3.819695449278214 L -1.669840659814008 3.810304240016957 L -1.665449470864648 3.801331145189037 L -1.660035886089548 3.792925202983429 L -1.654778679542581 3.784423266303535 L -1.651077240231582 3.77516122715585 L -1.655678877549439 3.767870683365188 L -1.664914636561382 3.764143620259869 L -1.674841386814677 3.763197366304405 L -1.684738384527878 3.764509305958004 L -1.694267177647035 3.767510940911593 L -1.703244090774584 3.771895431863756 L -1.711418189959723 3.777638380100178 L -1.718666141483387 3.784516188242346 L -1.72497854479201 3.792264249772511 L -1.73040986228476 3.800655464282572 L -1.735041718374889 3.809515060626949 L -1.738958660998631 3.818713572647872 L -1.742238526340989 3.828158597331725 L -1.744932838980767 3.837786965294915 L -1.747258002739163 3.84751261248251 L -1.750081481671722 3.857101689302632 L -1.753370813234778 3.866545261974563 L -1.756387241508469 3.87607923260346 L -1.758834438313458 3.885773185673636 L -1.76040914603601 3.895643674924857 L -1.760707174881312 3.905628886369905 L -1.759188449723017 3.915493208593662 L -1.760597106797934 3.924871869990008 L -1.763402505989133 3.934465751514164 L -1.76521666878381 3.944296070302435 L -1.766114004975582 3.95425250554009 L -1.766190780107081 3.964249733667124 L -1.765548900847317 3.974227284222864 L -1.764314349179742 3.984149814916134 L -1.763281130925391 3.994095444321269 L -1.762307307324096 4.004047244441709 L -1.760512527353996 4.013877291327624 L -1.757121679017068 4.023271235166012 L -1.75291426732167 4.032342519767317 L -1.748882447035471 4.041491543907463 L -1.745697083689822 4.050966710210371 L -1.742371990809456 4.060396163329967 L -1.738468535759246 4.069600507710616 L -1.733990074093765 4.078539583645671 L -1.728962451946996 4.087181831350644 L -1.723430226055902 4.095511140295617 L -1.71745226937786 4.103526148667235 L -1.711092465835031 4.111242006255503 L -1.706587008647574 4.118616773332238 L -1.706082506881784 4.119728213575886 L -1.699452695502928 4.126972836307878 L -1.69608250640681 4.119499676584181 L -1.69608250640681 4.117728213480891 L -1.699028913718542 4.108810699940399 L -1.702546980014894 4.099471370884375 L -1.707501101347961 4.090789650106362 L -1.712816482997551 4.082319624001826 L -1.717525925552551 4.073507500274123 L -1.721107851418917 4.064174106510899 L -1.723774984199159 4.054539979257496 L -1.725669134372903 4.044722905118039 L -1.727054316089518 4.034819983892473 L -1.72952665710561 4.025532276828233 L -1.734962614095779 4.017207726732133 L -1.737388127563296 4.007538284683363 L -1.737959198774694 3.997559578741793 L -1.738753806114073 3.987721184790633 L -1.742651176727689 3.978528406716383 L -1.742914655954475 3.968675241290807 L -1.740035175022171 3.959370195467577 L -1.739137051642794 3.949410919536216 L -1.737949440835282 3.939481759856212 L -1.7365897146342 3.929574584525015 L -1.735175595306258 3.919675891819929  z" id="ID_5EE"/>
    <path d="M -1.719504435870703 3.897790683702897 L -1.722362994339135 3.9040209943653 L -1.726082507831733 3.912728203743913 L -1.72538541193598 3.922647503599241 L -1.721305825588422 3.93173209177619 L -1.7150964973208 3.939552615247295 L -1.709542042633247 3.947536601336564 L -1.705474379392274 3.9566597001941 L -1.699971758695209 3.964995095511206 L -1.692940827996658 3.972074163379904 L -1.684162759314473 3.976738282606692 L -1.679668739890556 3.970726673642229 L -1.678246576301905 3.960830402800731 L -1.677562104487888 3.950856332455737 L -1.677671003763898 3.940859937053566 L -1.678636384814894 3.930909983730552 L -1.680523477138877 3.921093519743847 L -1.683390846238392 3.911518179801605 L -1.687278182614041 3.902310673658892 L -1.692192994470687 3.893608309273046 L -1.700319835698211 3.889386540790495 L -1.710051266141242 3.891395928828252 L -1.718082507451754 3.895728202936458 " id="ID_5EF"/>
    <path d="M -1.63133548780982 3.754313210486518 L -1.622381325885871 3.766415462275485 L -1.61405546567143 3.771934227607058 L -1.605367961120525 3.776885424159639 L -1.597585738848979 3.783085604028636 L -1.59125985929164 3.790806705322617 L -1.582445620171684 3.795359849801556 L -1.572682145506546 3.797503119594843 L -1.563347767251292 3.800990447740558 L -1.555300298896545 3.806886626645733 L -1.548240085538886 3.813962501225502 L -1.539991301657072 3.819572366309555 L -1.530879032346093 3.823674877360426 L -1.521540377033315 3.827250964298492 L -1.512303166279178 3.831077360238216 L -1.50345879438516 3.835729326877473 L -1.495285304186744 3.841482260050387 L -1.487583951982592 3.847859773207632 L -1.480009390940566 3.854388706662881 L -1.472112677773577 3.860517409703827 L -1.464516825797034 3.865948247935026 L -1.462082495292406 3.867728201606528 L -1.454386235241907 3.874072524634728 L -1.447596837625217 3.874595184090823 L -1.450921995706336 3.865545258768333 L -1.454082494912427 3.859728201226548 L -1.459090585336045 3.851599152077719 L -1.463939411176707 3.842871784338099 L -1.470269050950635 3.835144390819891 L -1.47759606787254 3.828346799156971 L -1.485500539280369 3.822224595049084 L -1.493705386248822 3.816508961767956 L -1.502039700894401 3.810982869140405 L -1.510244787857194 3.805267471095426 L -1.518283680686388 3.799319601475977 L -1.526274331175518 3.793306951283677 L -1.534334505637975 3.787388252672178 L -1.542590602354262 3.781747477251197 L -1.551184953213504 3.776640343843737 L -1.560139804345487 3.772191105129557 L -1.569245857192062 3.768059113926964 L -1.578500569986951 3.764272255729219 L -1.587910972638848 3.760891733829883 L -1.597482911250669 3.758001965164643 L -1.607217269588555 3.755720944935104 L -1.617100110328585 3.754216425999393 L -1.63133548780982 3.754313210486518 " id="ID_5F0"/>
    <path d="M -1.609082502274532 3.88272820231899 L -1.618473740478059 3.879339154198982 L -1.627325437058133 3.874691804548755 L -1.636189232963257 3.870069525654704 L -1.645733321542869 3.867209870078921 L -1.655598704894556 3.865660251375237 L -1.663043129661007 3.859417079073255 L -1.665311908731423 3.849790563144676 L -1.664604375455347 3.839819451660801 L -1.663390987327359 3.829894960708497 L -1.661289161852638 3.82012271642597 L -1.658228520795518 3.810606591490465 L -1.654204516391002 3.801457082930994 L -1.649133212543573 3.792846471220203 L -1.642863121520438 3.785071040888478 L -1.635221968962796 3.778652305834818 L -1.625690024587704 3.77988861059568 L -1.617372842020049 3.785377180983358 L -1.610112325223389 3.792249675715236 L -1.602898717055446 3.799173110093102 L -1.595079350994792 3.805394897885006 L -1.586516759062747 3.810548897051715 L -1.577505144270675 3.814879238798503 L -1.568326763899092 3.818848306666895 L -1.559213989470169 3.822964145514239 L -1.550405115581821 3.827689606084126 L -1.546865523463771 3.836608208675071 L -1.544468111652645 3.846310582669959 L -1.548754929567118 3.853596946009462 L -1.557768588394988 3.857918491825561 L -1.567037085741892 3.861671905012604 L -1.576303085910297 3.865431486008715 L -1.585313446678607 3.869759270465094 L -1.593671125072273 3.875228238257902 L -1.600733156511123 3.882275164385015 L -1.601082501894552 3.88272820231899 " id="ID_5F1"/>
    <path d="M -1.588082501277085 3.889728202651472 L -1.592758801603464 3.888042225389163 L -1.601082501894552 3.88272820231899 L -1.609082502274532 3.88272820231899 L -1.609831548724332 3.884638540583608 L -1.612014655474454 3.894390935331498 L -1.617082502654511 3.902728203268939 L -1.617289162770069 3.912723933233886 L -1.617867510765308 3.92270717691982 L -1.618286330853613 3.932697877663533 L -1.618117377660619 3.942693934051993 L -1.616941391439707 3.952618261052144 L -1.61521966261384 3.962456975354799 L -1.616973342018753 3.972221805976298 L -1.620765789838146 3.981473447788362 L -1.623326515643701 3.991090657587955 L -1.624183327301727 4.00105293119126 L -1.62558250305824 4.00822820827992 L -1.619090749447687 4.015595870261694 L -1.609701870893609 4.018898988899746 L -1.599793641047946 4.020211855882942 L -1.58982652892625 4.021019721041977 L -1.57988879038114 4.022126768788128 L -1.569973760671552 4.02342780673103 L -1.560050733319708 4.024666827473831 L -1.550107955892749 4.02573587811919 L -1.540181858761045 4.026947603899174 L -1.530267129694983 4.028251484561415 L -1.520328086007032 4.029348062893856 L -1.510343171505006 4.029836909274834 L -1.500394610297703 4.028985517588772 L -1.490946651249945 4.025805201162468 L -1.482494755835357 4.020496240849691 L -1.475578308744336 4.013319061288393 L -1.471447018402793 4.004288457206847 L -1.472052157085449 3.994439517469224 L -1.478329598454083 3.98678959230396 L -1.48652235603392 3.981069333872108 L -1.495184819202033 3.976075432153514 L -1.503982670773271 3.971321595653991 L -1.505082497334797 3.970728206498765 L -1.51374279606977 3.965966715434209 L -1.520166160563092 3.958535769831371 L -1.527792048195978 3.952094826994692 L -1.534201835049693 3.944429569835591 L -1.539853468081082 3.936181565236969 L -1.545361333805503 3.927835342828098 L -1.551352964067951 3.919834227848163 L -1.558388852967419 3.912747938496046 L -1.566524554721846 3.906944991011279 L -1.57497115049119 3.901592636852655 L -1.582895928140015 3.895511489868702  z" id="ID_5F2"/>
    <path d="M -1.617082502654511 3.902728203268939 L -1.626317803959216 3.898897757346373 L -1.635447775122919 3.894818413633771 L -1.64458817864196 3.892748205322984 L -1.648046041721381 3.901457113612021 L -1.649010234671044 3.911410277577976 L -1.650220057949511 3.921336468668345 L -1.651876689938915 3.931197008498442 L -1.654194170790409 3.940922164982691 L -1.657399742030323 3.950389382600366 L -1.661710928421745 3.959404078358343 L -1.667277288058386 3.967699432050432 L -1.667902252477702 3.977570564160993 L -1.66598030445095 3.98736558230134 L -1.662155825843474 3.996587285797465 L -1.656453204031095 4.004772191350832 L -1.648662664261345 4.010957735878593 L -1.639046242896406 4.013277856559481 L -1.629484858526448 4.010664998049898 L -1.62558250305824 4.00822820827992 " id="ID_5F3"/>
    <path d="M -1.505082497334797 3.970728206498765 L -1.499025241086287 3.962774971814898 L -1.492501880668904 3.955196478761287 L -1.485815586224045 3.947760541161652 L -1.479216594743717 3.94024733985351 L -1.472960567100751 3.932447859140708 L -1.467357931342736 3.924169756264044 L -1.46280800058322 3.915274576958566 L -1.460867766122246 3.906000168721936 L -1.467525899879871 3.898547396664051 L -1.47497591324439 3.891883179103249 L -1.483003436809879 3.885924719898774 L -1.491444936072815 3.880566864350253 L -1.50073090590204 3.878390771042859 L -1.510700287121891 3.87917288133449 L -1.52067630295633 3.879864114087835 L -1.530652007614898 3.880560578260746 L -1.540620140085888 3.8813572689241 L -1.550570544629175 3.88234986689579 L -1.560486967914227 3.883635919370272 L -1.570344175095655 3.885314943633959 L -1.580104237080562 3.887486570612724 L -1.588082501277085 3.889728202651472 " id="ID_5F4"/>
    <path d="M -1.719749499718432 4.00206219236205 L -1.713028036949075 3.994674683684801 L -1.704916979250741 3.98887305158351 L -1.695437749052688 3.985872541436519 L -1.687981585791394 3.991539244431638 L -1.681421732095174 3.999085829646746 L -1.675336410750639 4.007018261855664 L -1.670060064802716 4.015505695728466 L -1.673319849833229 4.022286750215064 L -1.681999054191663 4.027251049201732 L -1.691075136759455 4.031436443478918 L -1.700667830624468 4.034205609929307 L -1.710620407137324 4.034451186992892 L -1.716722986295025 4.027615887784365 L -1.718157994118509 4.017747766967238 L -1.718658001015016 4.007762368451137  z" id="ID_5F5"/>
    <path d="M -1.404082492537554 3.951728205596314 L -1.396367870933484 3.948073824871777 L -1.388680254473533 3.954291087063667 L -1.384778281357221 3.963419817150303 L -1.383952812744467 3.973362293447332 L -1.384966559885349 3.983302399526674 L -1.384203642054139 3.992872194371321 L -1.381798483955668 4.002569261231831 L -1.380491441252688 4.012480874059834 L -1.379647823928662 4.022445234951737 L -1.379366546449307 4.032237019507679 L -1.387535384946258 4.037573106192688 L -1.394431071762885 4.033421654319017 L -1.396345661811444 4.023608086458965 L -1.397769382773874 4.013710804710942 L -1.398831348801537 4.003767612729388 L -1.399671086048701 3.993803109486167 L -1.400432799923878 3.983832214881392 L -1.401261898788837 3.973866761339561 L -1.402302578426594 3.963921416786638 L -1.403694567767536 3.954019530365309  z" id="ID_5F6"/>
    <path d="M -1.69608250640681 4.23572821908559 L -1.699151953797383 4.245215336892181 L -1.699777681003518 4.255173256837913 L -1.698367693987546 4.265060204437537 L -1.695499228902086 4.274633117697383 L -1.691651927560962 4.283860084095341 L -1.687177941693317 4.292801114548007 L -1.68235460326956 4.301561846500606 L -1.673737780951808 4.30264766327417 L -1.664692285769743 4.298404738062208 L -1.658002773181334 4.292223533272608 L -1.661663674817553 4.283677247812438 L -1.667750062194297 4.275759051782063 L -1.672267042760944 4.266856331201513 L -1.674553185906036 4.257156154647134 L -1.673294652837951 4.247317490342206 L -1.667547804624633 4.239267896565086 L -1.658440024561108 4.235735994023617 L -1.648452515570393 4.236020434473328 L -1.640558508272241 4.232025555885909 L -1.641490927469691 4.222097406495938 L -1.645937505725409 4.213272096923027 L -1.654764562803397 4.209027648961534 L -1.66464541496246 4.210075295023941 L -1.673816555673891 4.214014670054424 L -1.682068112605665 4.219642556381467 L -1.689314936992471 4.226516124883325 L -1.695334452790292 4.234482847577105  z" id="ID_5F7"/>
    <path d="M -1.734082508211713 3.911728203696416 L -1.734082508211713 3.911728203696416 " id="ID_5E2"/>
    <path d="M -1.719504435870703 3.897790683702897 L -1.718082507451754 3.895728202936457 " id="ID_5E6"/>
    <path d="M -1.726082507831733 3.912728203743913 L -1.726082507831733 3.912728203743913 " id="ID_5EA"/>
   </g>
   <g id="ID_0" color="rgb(0,0,0)" stroke="currentColor" fill="none" stroke-width="0.00005039721436807565"/>
  </g>
 </svg>