<?xml version="1.0" encoding="UTF-8" ?>
 <svg viewBox="-0.5788672158652375 -2.706722392778537  0.2921372158897944 0.31150958188936206" xmlns="http://www.w3.org/2000/svg" version="1.0" overflow="visible">
  <defs>
   <g id="ID__#42_Model_Space"/>
   <g id="ID__#42_Paper_Space0"/>
   <g id="ID__#42_Paper_Space"/>
  </defs>
  <g id="draft" transform="matrix(1 0 0 -1 0 0)" stroke-width="5.039721436807565E-5">
   <g id="Layer_#32_1" color="rgb(255,0,255)" stroke="currentColor" fill="none" stroke-width="0.00005039721436807565"/>
   <g id="Poliline" color="rgb(0,0,0)" stroke="currentColor" fill="none" stroke-width="0.00005039721436807565">
    <path d="M -0.5503558894877189 2.521819934554319 L -0.5520484817945821 2.531675112982458 L -0.5537934615338891 2.541521522744805 L -0.5550144283747942 2.551443761720435 L -0.555080222150199 2.561434167790471 L -0.5533144312633392 2.57125689929685 L -0.5492915325539061 2.580383108705275 L -0.5490824519272337 2.580728140477308 " id="ID_721"/>
    <path d="M -0.5490824519272337 2.580728140477308 L -0.5507882491449525 2.580097859770129 L -0.5589389065422808 2.574443585049877 L -0.564127538501145 2.565965725726748 L -0.5662863832906649 2.556236552850256 L -0.5658789900784384 2.546268517098914 L -0.5631512035819135 2.536672524744021 L -0.558032796349675 2.528123456087525 L -0.5503558894877189 2.521819934554319 L -0.5434753503685661 2.514585138624475 L -0.5349466359012541 2.509471203223874 L -0.525111649823578 2.508990925962242 L -0.5166097722346032 2.514048419707521 L -0.5106460599994147 2.522029954355701 L -0.5067283325093906 2.531212930076742 L -0.504460690047079 2.540940990937535 L -0.5040980745955981 2.55091445583695 L -0.5058315366850366 2.560744387877193 L -0.5095408205001002 2.570010991073262 L -0.51517072415756 2.578247665995444 L -0.5227559634610897 2.584703814996563 L -0.5321339861091126 2.58792279526542 L -0.5418501325948962 2.586146103225026  z" id="ID_722"/>
    <path d="M -0.5580824523547108 2.6090621261981 L -0.5616436719972651 2.605896520548883 L -0.5682225435591111 2.598383501807852 L -0.5733352871544746 2.589806662269555 L -0.5767899735432191 2.580437117916668 L -0.5785844161038601 2.570610790593384 L -0.5788672158652375 2.560623040248323 L -0.5778488110415481 2.550680977512262 L -0.5757337537130907 2.540911623767492 L -0.5726910936468927 2.531389218784276 L -0.5688483811729946 2.522160003340799 L -0.5642943047175795 2.513259821229915 L -0.5590824524022083 2.504728136867502 L -0.5507445877711659 2.499207547076915 L -0.5421783154211628 2.494053004961489 L -0.53303876010279 2.490031229794027 L -0.5232177227725324 2.488339053799082 L -0.5132894702188527 2.489309479642118 L -0.5039108431542365 2.492693842234107 L -0.4957226975132372 2.498386960556379 L -0.4891350023157397 2.505881824520274 L -0.4842095801682209 2.514567365146151 L -0.4808201472111513 2.523964273699947 L -0.4788083202906979 2.53375107183586 L -0.4780492416922702 2.543712615269612 L -0.4784665463925562 2.553695079577041 L -0.4800318796441019 2.563566118780123 L -0.4827565271345256 2.573181335897489 L -0.4866826592332299 2.582370337401776 L -0.4918659656637825 2.590911073265349 L -0.4983475983881931 2.598521147466708 L -0.5060744245476095 2.604845449283876 L -0.5148667073480234 2.609561638034138 L -0.524413238408518 2.612479119161612 L -0.5343359353254593 2.613607682447542 L -0.5441354296132018 2.611986377571383 L -0.5538148061803847 2.609497355876424  z" id="ID_723"/>
    <path d="M -0.5590824524022083 2.504728136867502 L -0.558591317261219 2.49475130067149 L -0.5564719043832396 2.484990046732631 L -0.5528528481083326 2.475677634119568 L -0.5480122429410504 2.466934423094704 L -0.5422656496111397 2.458755019771668 L -0.5358905773384218 2.451053130377376 L -0.5291066185837447 2.443707423059036 L -0.5220853436846093 2.436587417566983 L -0.5149552565772524 2.429576199818548 L -0.5074934412809764 2.422921749263981 L -0.4995815618632094 2.416809627004298 L -0.4912347272404621 2.411306882682218 L -0.482477073012058 2.406485436118904 L -0.4733438015541172 2.402420832123711 L -0.4638838018202192 2.39919022464535 L -0.4541611157919912 2.396868685461715 L -0.4442563115157486 2.395524458181348 L -0.4342659271886636 2.395212810889175 L -0.4242801722187455 2.395717673715816 L -0.4143468522536616 2.396853334995618 L -0.404523653277888 2.3987114155035 L -0.3948842070963554 2.401361332356787 L -0.3855104576525603 2.404834918468788 L -0.3764779838434915 2.409118251745308 L -0.3678426525888732 2.414154929638749 L -0.3596329150723534 2.419859711979851 L -0.3518505149855207 2.426135564281757 L -0.3444756569766838 2.432888784872387 L -0.3374808653427106 2.440031504529919 L -0.3300316690111797 2.446688734761943 L -0.3234429491870179 2.454204723119808 L -0.3175350413136 2.462271299943337 L -0.3121871302452881 2.470719568332775 L -0.3073219597340424 2.479455783926516 L -0.3029015724631847 2.488402228181012 L -0.2988772777399511 2.49757833873857 L -0.2952771022485736 2.506905078764784 L -0.2921232525485058 2.516394166405776 L -0.2895005349223378 2.526042386735511 L -0.2876143312105403 2.535859047655158 L -0.2867299999754431 2.545815404867909 L -0.2867924879575812 2.555811848504207 L -0.2876703085567174 2.565770956504975 L -0.2892164752441832 2.575649645675635 L -0.2912848131874153 2.585432824388014 L -0.2937380929783746 2.59512734741871 L -0.2964488896162045 2.604752800764469 L -0.2992976402041965 2.614338768143156 L -0.3022794525367214 2.623883320192174 L -0.3057354517401132 2.633265107496198 L -0.3099872631159357 2.642310888670209 L -0.3153583797274875 2.650735239203303 L -0.3219029194783998 2.658284809782049 L -0.3293090038267232 2.664997492966511 L -0.3371985028750197 2.671138988392652 L -0.3453471821542848 2.676932677470686 L -0.3538041422364246 2.682266235443517 L -0.3625564902928495 2.687101840094337 L -0.3715599716580309 2.691451875666132 L -0.3807708677735224 2.695343230166336 L -0.3901483084246733 2.698813904853478 L -0.399656145045939 2.701909429189143 L -0.4093206396647738 2.704461393906283 L -0.4191859140005736 2.7060687550508 L -0.4291598798863019 2.706722392778537 L -0.4391522132028563 2.706437551018536 L -0.4490768008072275 2.705242072951651 L -0.4588570633187184 2.70317436324345 L -0.4684268995778194 2.700280616001204 L -0.4777275146681861 2.696613756021637 L -0.4867123664592237 2.692230003892561 L -0.4953447528937068 2.687187310362814 L -0.503597218988185 2.681543665437708 L -0.511450374665917 2.675355970705526 L -0.5188924880376558 2.668678545565049 L -0.5259173875381622 2.661563271279064 L -0.5325511567013335 2.654081192804124 L -0.5391177954564457 2.64653907894897 L -0.5454306292541684 2.638785159030827 L -0.5510891281502232 2.630546026010108 L -0.5555206748549139 2.621596667888297 L -0.5579011049589946 2.611913230666706 L -0.5580824523547108 2.6090621261981 " id="ID_724"/>
   </g>
   <g id="ID_0" color="rgb(0,0,0)" stroke="currentColor" fill="none" stroke-width="0.00005039721436807565"/>
  </g>
 </svg>