<?xml version="1.0" encoding="UTF-8" ?>
 <svg viewBox="2.535917694602403 -2.302973677935577  0.16753203535848682 0.12183702421662312" xmlns="http://www.w3.org/2000/svg" version="1.0" overflow="visible">
  <defs>
   <g id="ID__#42_Model_Space"/>
   <g id="ID__#42_Paper_Space0"/>
   <g id="ID__#42_Paper_Space"/>
  </defs>
  <g id="draft" transform="matrix(1 0 0 -1 0 0)" stroke-width="5.039721436807565E-5">
   <g id="Layer_#32_1" color="rgb(255,0,255)" stroke="currentColor" fill="none" stroke-width="0.00005039721436807565"/>
   <g id="Poliline" color="rgb(0,0,0)" stroke="currentColor" fill="none" stroke-width="0.00005039721436807565">
    <path d="M 2.535917694602403 2.18772812181081 L 2.537647510472824 2.197082860352894 L 2.543875883762099 2.204885245561753 L 2.548759436977901 2.21361140523035 L 2.553671569579035 2.222321477296738 L 2.558941842669861 2.230818069448361 L 2.564845829329923 2.238884696331973 L 2.571546028998885 2.246299503658207 L 2.578976109628894 2.252991594105147 L 2.585769870408691 2.260317918381689 L 2.592437241997378 2.267768917948545 L 2.599573743041475 2.274768860171354 L 2.60745684679845 2.280909015429186 L 2.616143777306435 2.2858451563793 L 2.625391160901737 2.289641185240462 L 2.634876920394012 2.292803714550492 L 2.644518521638616 2.295451290615053 L 2.6542676134621 2.297673989442179 L 2.664086624797542 2.299565125346425 L 2.673949712987473 2.301212462977572 L 2.683858631022725 2.302548545906871 L 2.693842869857046 2.302973677935577 L 2.70344972996089 2.301022885862366 L 2.703111834396927 2.291181461103375 L 2.695385260654829 2.287433044721085 L 2.685416927723063 2.286640482849106 L 2.675493878370843 2.285410764858294 L 2.665655332106753 2.283631207543743 L 2.655960422922484 2.281189100956845 L 2.646491983750416 2.277981530932073 L 2.637353744032155 2.273929776467667 L 2.6286610285239 2.26899564022876 L 2.620947318073263 2.262672524064855 L 2.613635257740527 2.255857644792278 L 2.604926945753989 2.250997242323329 L 2.597130078090709 2.244814893686818 L 2.590088448129091 2.237715424920526 L 2.583404204833354 2.230278586295646 L 2.577059159287893 2.222551271502117 L 2.57103777179773 2.214567761482236 L 2.565331355207198 2.206356626003159 L 2.559935323860844 2.197938157889797 L 2.554851454664195 2.189327099914228 L 2.549476681561806 2.181136653718954 L 2.540404082965961 2.184020407519058  z" id="ID_792"/>
   </g>
   <g id="ID_0" color="rgb(0,0,0)" stroke="currentColor" fill="none" stroke-width="0.00005039721436807565"/>
  </g>
 </svg>