<?xml version="1.0" encoding="UTF-8" ?>
 <svg viewBox="-1.106466182383011 -5.146140642534671  0.35444538514612833 0.2981442486580619" xmlns="http://www.w3.org/2000/svg" version="1.0" overflow="visible">
  <defs>
   <g id="ID__#42_Model_Space"/>
   <g id="ID__#42_Paper_Space0"/>
   <g id="ID__#42_Paper_Space"/>
  </defs>
  <g id="draft" transform="matrix(1 0 0 -1 0 0)" stroke-width="5.039721436807565E-5">
   <g id="Poliline" color="rgb(0,0,0)" stroke="currentColor" fill="none" stroke-width="0.00005039721436807565">
    <path d="M -0.8645824669126795 4.864228248937738 L -0.8737449829010772 4.868231344467173 L -0.8829455171814615 4.872148175223325 L -0.8918364393835727 4.876713696313907 L -0.8998671986622248 4.882641220971186 L -0.9050824688363263 4.888728250101426 " id="ID_556"/>
    <path d="M -0.8750824674114028 4.91072825114637 L -0.8664456780438144 4.905777272467885 L -0.8567067626074162 4.903659723751454 L -0.8467434130187196 4.904143906295758 L -0.8371685023224619 4.906948924966546 L -0.8285207685117912 4.911920895052295 L -0.8214745424082786 4.91896894299307 L -0.8180824647040481 4.924728251811334 " id="ID_557"/>
    <path d="M -1.018173294520352 4.918001688991839 L -1.025451027506318 4.924853022997794 L -1.032046710159256 4.932365535879005 L -1.03808187019921 4.940337060605219 L -1.043711663618891 4.948601024448244 L -1.049108873389356 4.957019376305351 L -1.052082475818451 4.96172825356874 " id="ID_558"/>
    <path d="M -1.052082475818451 4.961728253568739 L -1.051967147262072 4.964263702735382 L -1.050523696088982 4.974146189718235 L -1.047119617098807 4.983521750662093 L -1.041011234963235 4.991357043992707 L -1.032114817673064 4.99573053119753 L -1.022192089103879 4.996270961047508 L -1.012682959607331 4.993316000896625 L -1.004307807099717 4.987894261345003 L -0.9972044697388442 4.980875681975225 L -0.9913723170693531 4.972765839726733 L -0.9868726566949312 4.963847489084403 L -0.983915475111595 4.95430907622418 L -0.9829571059200574 4.944378500667067 L -0.9847945583968238 4.934596733037891 L -0.9901871536906331 4.926268371335808 L -0.9985314099507567 4.920872123877491 L -1.008192956315142 4.918404646032763 L -1.018173294520352 4.918001688991839 L -1.028099668271767 4.918617693497179 L -1.037293785114465 4.922451366037851 L -1.04505469675795 4.928709908526264 L -1.050888024610076 4.936794555865695 L -1.0541459448507 4.946204694976477 L -1.053984831425547 4.956142569512451  z" id="ID_559"/>
    <path d="M -1.050082475723456 4.906728250956381 L -1.045742172947343 4.90152005734489 L -1.038902707960514 4.894226935072199 L -1.031616991671142 4.887379613897823 L -1.023902550865289 4.881019306480149 L -1.015733712997538 4.875255864560726 L -1.007164376998574 4.870102629522724 L -0.9984922967230448 4.865123446912479 L -0.989704178690987 4.860352033460961 L -0.9807517124866729 4.855897244059033 L -0.9715612422751522 4.851961496671341 L -0.9619671532764115 4.849185381561579 L -0.9520475554477263 4.847996393876609 L -0.942053039065951 4.848090860091188 L -0.9320995004664149 4.849035714304667 L -0.9221929049114869 4.850397918321023 L -0.9122893373618365 4.851782459416329 L -0.9023678411249784 4.853032600608051 L -0.8924709388440437 4.854461113148113 L -0.8826743715021008 4.856454864459987 L -0.873130421200166 4.859419115092078 L -0.8645824669126795 4.864228248937739 L -0.8571482604517877 4.865398146890037 L -0.8473376001612145 4.867329511780308 L -0.8376575211451546 4.869831504920475 L -0.8281931334831691 4.873051531963151 L -0.8190636224130508 4.877121858484219 L -0.8104202634918182 4.88214005144739 L -0.8024307799452863 4.888143520305666 L -0.7952483241076971 4.895091587287399 L -0.7889758118525317 4.902871310363271 L -0.7836472078168973 4.911326417777948 L -0.7792327367681668 4.920294570114144 L -0.7764667474134326 4.929856573912901 L -0.7745937049400098 4.939659585683675 L -0.7694020522573802 4.948146629287531 L -0.7655875911130936 4.957357558462746 L -0.7631676479922191 4.96705640897216 L -0.7612692562600687 4.976874267361308 L -0.7592199968085414 4.986661182886497 L -0.7568713051379384 4.996381000318219 L -0.7545553957932638 5.006108931620595 L -0.752748019098548 5.015942821948769 L -0.7520207972368828 5.025908595990939 L -0.7528205147161975 5.03586619015684 L -0.7549353699165664 5.045634568296994 L -0.7580268391008085 5.055141123314311 L -0.7618907574977803 5.064361991143375 L -0.766398154064162 5.073286483096303 L -0.7714743592796643 5.081900371409637 L -0.777090219004589 5.09017250716421 L -0.7832675585865037 5.098033309588645 L -0.7901149940618497 5.105314964805087 L -0.797604071795809 5.111937623122947 L -0.8054947382874778 5.118078013630202 L -0.8137705458853972 5.12368773889656 L -0.8224073976464572 5.12872280623425 L -0.8313727931003116 5.133146621287263 L -0.8406259052658517 5.136931854532426 L -0.8501207614294035 5.140062776666527 L -0.8598074442362051 5.142535440864484 L -0.8696377501963299 5.144357980375046 L -0.8795655213919024 5.145548305002356 L -0.8895469806221756 5.146132048347912 L -0.8995447819790616 5.146140642534671 L -0.9095304933448584 5.145608547556396 L -0.9194758080516916 5.144571638221416 L -0.9293611397156925 5.143065467640546 L -0.9391698704313062 5.141124441715906 L -0.9488918132981662 5.138780353014237 L -0.958514955374663 5.136063696703631 L -0.9680344610337821 5.133001154750592 L -0.9774427818162241 5.129618130800797 L -0.986739574972674 5.125935313711231 L -0.9959218007826411 5.121971954977889 L -1.004984345577935 5.117746119271487 L -1.013926604032165 5.113271605655623 L -1.022745814589012 5.108560718266916 L -1.03144212020295 5.103621373536543 L -1.04000871819142 5.09846214456967 L -1.048770589107315 5.093657522324797 L -1.057931115305908 5.089649041157126 L -1.067146600798082 5.085766418238264 L -1.076197354088152 5.081518266800558 L -1.08482502074329 5.076473823140152 L -1.092630429416041 5.070242939277981 L -1.099048710581279 5.062601898469463 L -1.103575654623993 5.053709280073945 L -1.106262146361184 5.04409719336859 L -1.106466182383011 5.034131293595195 L -1.104210794708793 5.024405208012554 L -1.100575513990663 5.015096117632325 L -1.096445296471696 5.005987453395019 L -1.09138474845459 4.997882005454823 L -1.088687007854058 4.988256313884918 L -1.08651333632441 4.978495012920036 L -1.084258997299418 4.968752777385242 L -1.081231423197003 4.959229683902995 L -1.07608247695839 4.950728253046268 L -1.072704239036241 4.942378252081201 L -1.065858372057249 4.930166548024065 L -1.054611672971631 4.916000892608781  z" id="ID_55A"/>
    <path d="M -1.045082475485968 4.909728251098872 L -1.044758068560695 4.909452632094009 L -1.036251641489252 4.904269969209959 L -1.026712919069473 4.901297689869456 L -1.016916666787147 4.899333988588739 L -1.006937012302355 4.898970867192519 L -0.9970822650015191 4.900551092811279 L -0.9878148416291584 4.904248806974201 L -0.9796156885967386 4.909937169580447 L -0.9728115929080569 4.917241670401935 L -0.9675469743596014 4.925726724426638 L -0.9638943812954279 4.935021672749161 L -0.9620028377847456 4.944825470579836 L -0.9619543299661126 4.95481238938454 L -0.9636009238080047 4.964664487759368 L -0.9667503803000361 4.974145991674042 L -0.9711989638381419 4.983093519955218 L -0.9767689022537666 4.991390885312148 L -0.983318522388056 4.998939027066762 L -0.9907387628319108 5.005632118480369 L -0.9989428871072831 5.011337101774733 L -1.007848145223685 5.015873409161977 L -1.017333413405657 5.018993528270788 L -1.027218750714673 5.020396997130118 L -1.037179503876881 5.01977386811199 L -1.046749434746791 5.016950054328868 L -1.055421822338078 5.012018133673008 L -1.062315935152249 5.004827148880152 L -1.067091840669278 4.996066173491364 L -1.070026497650529 4.986519869420267 L -1.071408185201074 4.976624752534158 L -1.071409945189354 4.966632059657253 L -1.070082476673405 4.956728253331252 L -1.069036802059514 4.949216871007028 L -1.062924445542222 4.934807006809922 L -1.053389155535441 4.919664445991461  z" id="ID_55B"/>
   </g>
   <g id="ID_0" color="rgb(0,0,0)" stroke="currentColor" fill="none" stroke-width="0.00005039721436807565"/>
  </g>
 </svg>