<?xml version="1.0" encoding="UTF-8" ?>
 <svg viewBox="0.604169393863308 -3.893389163005725  0.36529146313105954 0.32541263459686887" xmlns="http://www.w3.org/2000/svg" version="1.0" overflow="visible">
  <defs>
   <g id="ID__#42_Model_Space"/>
   <g id="ID__#42_Paper_Space0"/>
   <g id="ID__#42_Paper_Space"/>
  </defs>
  <g id="draft" transform="matrix(1 0 0 -1 0 0)" stroke-width="5.039721436807565E-5">
   <g id="Poliline" color="rgb(0,0,0)" stroke="currentColor" fill="none" stroke-width="0.00005039721436807565">
    <path d="M 0.7859176114818638 3.767728196856783 L 0.7839770259636314 3.777468517688285 L 0.7856984840347865 3.787274737566413 L 0.7900008838145656 3.796278494181491 L 0.7959452940424409 3.804305783080673 L 0.8030202507392374 3.811361758860154 L 0.8109945325622832 3.817382570580134 L 0.8198266548287974 3.822039942602193 L 0.8294940605577352 3.824516444812861 L 0.8394561427422031 3.825206959900572 L 0.849348045925347 3.823887128200761 L 0.858655259040681 3.820302104770417 L 0.8667678194244423 3.814502827463771 L 0.8731854385671703 3.806867794117248 L 0.8776266274814981 3.797934413951292 L 0.8799731320590797 3.788236733312338 L 0.8801757586531646 3.778258321373979 L 0.8782162330422487 3.768473437140203 L 0.8741417404526866 3.759364577613197 L 0.8681339461920893 3.751396668153759 L 0.8605405709910556 3.74491776077791 L 0.851531846487176 3.740668448760706 L 0.8417914680946259 3.738452307139613 L 0.8318289322035514 3.737699412220779 L 0.8218641378086396 3.738408255727017 L 0.8121614071124136 3.740769037743545 L 0.8031399156037153 3.74503465464044 L 0.7953977718629633 3.751320990402563 L 0.7895040625247641 3.759366573097977  z" id="ID_569"/>
    <path d="M 0.7709176107694021 3.76472819671429 L 0.772790241565823 3.754910580806411 L 0.7759133672353018 3.745420230953389 L 0.7805482615027222 3.736575004109933 L 0.7868374485057235 3.728824651855653 L 0.7946473451746492 3.72261107818184 L 0.8035724379952666 3.718136408233021 L 0.8131529865051874 3.715311630322963 L 0.823013353609439 3.713661951633088 L 0.832976112531524 3.712890509901537 L 0.8429247331325315 3.713771953149686 L 0.852583005559337 3.716314368068475 L 0.8617105598570944 3.720365588913118 L 0.8701407106372833 3.725728939160497 L 0.8777549860343256 3.732203432236001 L 0.8844656581279988 3.739607474932602 L 0.8902011501814256 3.74779567342634 L 0.894869604001836 3.756631859558861 L 0.8983599015645111 3.765994974538111 L 0.9005243546784713 3.775748890442176 L 0.9011807804977047 3.785716364394964 L 0.9001351998515233 3.795647595841018 L 0.8972421818810571 3.805201651405797 L 0.8924967562536227 3.81398065560471 L 0.8860913831900321 3.821638002926418 L 0.8783761692137534 3.8279798422849 L 0.8696667975530586 3.832870083740608 L 0.8603322980893741 3.836437729405901 L 0.8506334821075354 3.838851697816524 L 0.8407252523725414 3.840166422768101 L 0.8307324074078232 3.840347855042512 L 0.8207967313450028 3.839281414094674 L 0.8111273737927424 3.836774079311124 L 0.8020516213799124 3.832609662961024 L 0.7938867419309342 3.826860246704576 L 0.7868884273440733 3.819735622693784 L 0.7811964175925157 3.811527220187482 L 0.776827965841914 3.802541784737218 L 0.7737205246564569 3.793044238598897 L 0.7717773708572873 3.783240453557519 L 0.7708970899710499 3.773283614563622  z" id="ID_56A"/>
    <path d="M 0.6184176035260407 3.710228194125679 L 0.609843573788468 3.714559409270188 L 0.6051810347075897 3.723343374373746 L 0.604169393863308 3.733223889594871 L 0.6068709323481257 3.742801806801328 L 0.6123497753928282 3.75113303017528 L 0.6197276344645833 3.757849276966245 L 0.6284388435790939 3.762711064043218 L 0.6380529173611489 3.765363422047114 L 0.6473129080912638 3.768340819256 L 0.6528464420645017 3.77657411491185 L 0.6576317557615293 3.785341043335193 L 0.6629568924681353 3.793805115924479 L 0.6683906322217759 3.802201361094017 L 0.6739876665345186 3.810485167775018 L 0.6798089999964656 3.818616240138307 L 0.6859072259204595 3.826540914603816 L 0.6923304422893031 3.834204257004222 L 0.6991154422545538 3.841548226591829 L 0.7062853157634095 3.848516661149604 L 0.7138463518085088 3.855058807635746 L 0.7217875919561969 3.861133812936866 L 0.7300842030314616 3.866713679420593 L 0.7387701549894264 3.871663989953288 L 0.7477632475842438 3.876034129790973 L 0.7569506280426701 3.87998146248066 L 0.7662613747328316 3.883629032179594 L 0.7719176108168995 3.885728202461484 L 0.7778405638617869 3.889076400780911 L 0.796633642662755 3.893389163005725 L 0.8192362410316036 3.893389163005725 L 0.832442238313348 3.892881770946818 L 0.8514893426597041 3.88856900872199 L 0.8649176152341624 3.88272820231899 L 0.8740604829130278 3.878677686336166 L 0.8831346671362458 3.874475731915154 L 0.8921059257580533 3.870058492994592 L 0.9009355359002206 3.865365216385987 L 0.9095778643392309 3.860335669102838 L 0.9179765984658159 3.854909689553005 L 0.9260620369620937 3.849027740640538 L 0.9337482351262265 3.84263375887405 L 0.9409315934983624 3.835680617348259 L 0.9474926277465423 3.828138504648107 L 0.9533032576289812 3.820005210364486 L 0.9582410519184927 3.811315123933242 L 0.9622086689283122 3.802141702699774 L 0.9651739578867362 3.792595794382643 L 0.9672772866640525 3.782822350163826 L 0.9686316404832782 3.772916588606943 L 0.9693316423824578 3.762942669811909 L 0.9694608569943676 3.752944647000434 L 0.9690907961014839 3.742952322617398 L 0.9682816721026359 3.732985889827251 L 0.9670837165197996 3.723058418418034 L 0.9655387095351013 3.71317887449333 L 0.9636812848611988 3.703353162688518 L 0.9615400472923951 3.693585276829034 L 0.9591764512409239 3.68386851817897 L 0.9568616191330878 3.674140178825568 L 0.9541902421856409 3.664506078581954 L 0.9506325529649171 3.655165060750983 L 0.9463326217957845 3.646138750225746 L 0.9414807914983943 3.637396502872052 L 0.9360434459853275 3.629006984942551 L 0.9300020927790271 3.621041795699735 L 0.9233687827175129 3.613562015582772 L 0.9161865815118215 3.606607426123623 L 0.9085211574710845 3.600188912195452 L 0.9004490491599828 3.594289421089193 L 0.8920463157261844 3.588870571051007 L 0.8849176161841105 3.584728188164751 L 0.866616014876115 3.578675232740696 L 0.8508464445941399 3.573424357414157 L 0.8429176141892185 3.570728187499785 L 0.8425324280688464 3.570676665161681 L 0.832606153111107 3.569466630700954 L 0.82264972401064 3.568539533558965 L 0.81266517290405 3.56800116426495 L 0.8026665478291628 3.567976528408856 L 0.7926878372079625 3.568594754331675 L 0.7827841207042772 3.569959197228214 L 0.7730217016370107 3.572112592488155 L 0.7634544830823736 3.575014276175645 L 0.7541039552204456 3.578553983632049 L 0.7449834966464373 3.582651226165344 L 0.7361072671073972 3.587254343483905 L 0.7274927650740013 3.592330389067884 L 0.7191620934111455 3.597860102630621 L 0.7111441386150723 3.603834216417023 L 0.7034761349189891 3.61025122308245 L 0.6962059055584096 3.61711540489553 L 0.6893945578321504 3.624434788809178 L 0.6831196637615653 3.632218413119762 L 0.6774786901486536 3.640472022971479 L 0.6725912208613805 3.649192050828418 L 0.6686565821735098 3.658379583286196 L 0.6653891571620818 3.667830282572108 L 0.6620020794671015 3.677237824075527 L 0.6576320544026731 3.686219908021779 L 0.6513116337150217 3.693918309982004 L 0.6425331531441927 3.698429034597056 L 0.6325916955206337 3.699423016207065 L 0.6229417601816394 3.701649064398493 L 0.6184176035260407 3.710228194125679 L 0.6209450676115403 3.719798077573088 L 0.627909101873529 3.726821145679386 L 0.6372598656585238 3.730198382646854 L 0.6472218305967825 3.730394096948973 L 0.6509176050697079 3.72972819505188 " id="ID_56B"/>
   </g>
   <g id="ID_0" color="rgb(0,0,0)" stroke="currentColor" fill="none" stroke-width="0.00005039721436807565"/>
  </g>
 </svg>