<?xml version="1.0" encoding="UTF-8" ?>
 <svg viewBox="-2.087824728563525 -5.078426454854104  0.429709136451528 0.6539908338308642" xmlns="http://www.w3.org/2000/svg" version="1.0" overflow="visible">
  <defs>
   <g id="ID__#42_Model_Space"/>
   <g id="ID__#42_Paper_Space0"/>
   <g id="ID__#42_Paper_Space"/>
  </defs>
  <g id="draft" transform="matrix(1 0 0 -1 0 0)" stroke-width="5.039721436807565E-5">
   <g id="Poliline" color="rgb(0,0,0)" stroke="currentColor" fill="none" stroke-width="0.00005039721436807565">
    <path d="M -1.993082520513553 4.466728230057501 L -2.002998363071931 4.465857511223681 L -2.012795175894887 4.463845550779428 L -2.022669603885101 4.462309186685834 L -2.032639732283414 4.462869972130018 L -2.042353740328816 4.465182173325652 L -2.051511918904787 4.469159935104141 L -2.05986310518459 4.474631101348856 L -2.067248141070159 4.48136209696679 L -2.073570834411692 4.489102688171248 L -2.078782074445459 4.49762448010998 L -2.08285790892269 4.506746731449965 L -2.085763308633045 4.516309747970867 L -2.087443670207279 4.526156542610674 L -2.087824728563525 4.536141829642232 L -2.086808763557419 4.546080650139892 L -2.084293639510787 4.555748017600892 L -2.080207130698998 4.564861191640806 L -2.074557591758048 4.573101585160328 L -2.067494466219259 4.580157540631031 L -2.059280541818818 4.585837847858504 L -2.050245110700694 4.590092594777836 L -2.040686997322397 4.593005310397012 L -2.031984920099771 4.596917626117223 L -2.030261955849978 4.606647301197973 L -2.030510750999082 4.616643961974377 L -2.029789618670687 4.626607677751021 L -2.028471200803347 4.6365239899899 L -2.027158167202439 4.646437664882 L -2.025896681140596 4.656359467488172 L -2.024728198942294 4.666286060772437 L -2.023634980005176 4.676225865822992 L -2.022050740900122 4.686098055739707 L -2.019967660169967 4.695882659946997 L -2.017567791962217 4.705585166478973 L -2.015023717561142 4.715256167767257 L -2.012503696044496 4.724933338081752 L -2.010163734065541 4.734655946275619 L -2.008201780941207 4.744459320929941 L -2.007385501276846 4.754422640788279 L -2.006102313121503 4.764328051543014 L -2.003555492465268 4.773997160946617 L -2.000595654419703 4.783548923161669 L -1.997359374651357 4.793010853759954 L -1.993950259770481 4.802411372856767 L -1.990452986036019 4.811779871014914 L -1.986943928247058 4.821144831217363 L -1.983499936451325 4.83053227929183 L -1.980203870848795 4.839972779072507 L -1.977079200159065 4.849471799293256 L -1.973264424658183 4.858711946195754 L -1.968781384109247 4.867649544164481 L -1.963872620965163 4.876362272194747 L -1.958689003051571 4.884913747422072 L -1.953330726965822 4.893357019042702 L -1.947870653950378 4.901734856753231 L -1.94236580468624 4.910083213852615 L -1.93686442044227 4.918433238884755 L -1.931409114741022 4.926814942976847 L -1.926043337154298 4.935253509475264 L -1.920694714437642 4.943702758152709 L -1.915118905924533 4.952003623132139 L -1.909336167400142 4.960161929799108 L -1.903368547469892 4.968186026509155 L -1.897230199377467 4.976080506742837 L -1.890930153012929 4.983846787196329 L -1.884473768330369 4.991483617338312 L -1.87786371759939 4.998987187771388 L -1.871098667291581 5.006353162745155 L -1.864177537195929 5.01357213760053 L -1.857095960919012 5.020633483641852 L -1.849847876557332 5.027523139169077 L -1.84242492078815 5.034223473313459 L -1.834815708556768 5.040712733356536 L -1.827008500013771 5.046961221861473 L -1.818988876878216 5.052931377106824 L -1.810735582952186 5.05857754143488 L -1.80222928223944 5.063835366189612 L -1.79344906238412 5.068619321968961 L -1.784373758176247 5.072814314963693 L -1.774990659814572 5.076261838765232 L -1.765257882594864 5.078426454854104 L -1.755384812877482 5.077143338584934 L -1.746127284690994 5.073405325593359 L -1.737597633512631 5.068201099762799 L -1.729750080510702 5.062010575722299 L -1.722544212659676 5.05508205428342 L -1.71596545868729 5.047554129175816 L -1.710027760629933 5.0395106955255 L -1.704893008808212 5.030936862613083 L -1.700721632941811 5.021851859964581 L -1.697156681283157 5.012509274060867 L -1.693792247552715 5.00309203674041 L -1.690221844388209 4.993751916123627 L -1.686204217908786 4.984595076230381 L -1.682509209357649 4.975303890581646 L -1.679236402363252 4.965855455552382 L -1.676318057852588 4.956291517742509 L -1.673695107638281 4.946642171050988 L -1.671315432810836 4.936929943625505 L -1.669131729240226 4.927171752296268 L -1.667099598695958 4.917381171246196 L -1.665175012685814 4.907568084346861 L -1.663385633402089 4.897729748605878 L -1.661933346552601 4.887836107548291 L -1.660774177031279 4.877903812571424 L -1.659860868611525 4.867945730360561 L -1.659160452955058 4.857970469256953 L -1.658649536706736 4.847983441242931 L -1.658311708407099 4.837989399438123 L -1.658135887718734 4.827990837298571 L -1.658115592111997 4.817990824744613 L -1.658248449155003 4.807991379434506 L -1.658381360712515 4.797992200059992 L -1.658424042808795 4.787992093934859 L -1.658429330924047 4.777992281146298 L -1.658441188453932 4.767992596891312 L -1.65850038161978 4.757992271596323 L -1.658648785095708 4.747992862385487 L -1.658933705738799 4.737995737763633 L -1.659413275386791 4.728007687335061 L -1.660165353287284 4.718035839037963 L -1.661302632203736 4.708101213586777 L -1.663050553238123 4.698258411441019 L -1.664973546421994 4.688445470893272 L -1.667285682661055 4.678717681210496 L -1.670051984414024 4.669108641772469 L -1.673180468423599 4.65961109881927 L -1.676595866750377 4.650212751536527 L -1.68023599689577 4.640899054135108 L -1.68404886262223 4.631654252029369 L -1.687989690229966 4.622463295238603 L -1.692019415204263 4.613311031959204 L -1.696103009420619 4.604182619786438 L -1.700207994299202 4.595064004073378 L -1.704303688247859 4.585941168859376 L -1.708359975179679 4.576800747523543 L -1.712346525257759 4.567629824124759 L -1.716231114622686 4.558415381940758 L -1.719962111899439 4.549137666821692 L -1.723570207482231 4.539811338523309 L -1.727115218401654 4.530460768311337 L -1.730653801540472 4.521107696366136 L -1.734241564920757 4.511773335548719 L -1.737935173872892 4.502480072642219 L -1.741793713478777 4.493255029239469 L -1.745882099520044 4.484129065057238 L -1.750271393830337 4.475143956121282 L -1.755041011173812 4.466355123955651 L -1.760278945549238 4.457838015434962 L -1.766079737756358 4.449695318270634 L -1.772537293449808 4.442064519308202 L -1.779819040919004 4.435237519568 L -1.789095336239202 4.431595366857051 L -1.798865905227206 4.429480802012314 L -1.80875301798207 4.427987442767438 L -1.8186868378338 4.426840471769809 L -1.828641810492145 4.425893188831519 L -1.838611906890616 4.42512984569886 L -1.848598365455031 4.424631559623673 L -1.858595343336468 4.42443562102324 L -1.868593144601885 4.424582842208621 L -1.878577776685232 4.425115805816691 L -1.888530388753677 4.42607567047592 L -1.898427565675433 4.427497241937061 L -1.908243083786059 4.429402651155649 L -1.917951492360971 4.431794973358298 L -1.927533013597249 4.43465400122027 L -1.936978170724857 4.437936242429479 L -1.946290299286734 4.441579683643622 L -1.955484473150716 4.445511552964974 L -1.964584613499837 4.449656896775515 L -1.971082519468609 4.452728229392537 L -1.981304799482336 4.457559943205783  z" id="ID_564"/>
    <path d="M -2.062082523790877 4.511728232194887 L -2.055343552066077 4.504434553073943 L -2.046263082855364 4.500407281722091 L -2.036330219805097 4.500169190714691 L -2.027164913082926 4.503955315357412 L -2.020855891076163 4.511567174887785 L -2.018687879397361 4.521248782654543 L -2.021171716229064 4.530833695478078 L -2.027609676259952 4.538392224482123 L -2.036454056921141 4.542925408019874 L -2.046345993502007 4.543494694681854 L -2.055113853069317 4.538998238569464 L -2.060326980765254 4.53057466223141 L -2.062213443931639 4.520785750284598  z" id="ID_565"/>
   </g>
   <g id="ID_0" color="rgb(0,0,0)" stroke="currentColor" fill="none" stroke-width="0.00005039721436807565"/>
  </g>
 </svg>