<?xml version="1.0" encoding="UTF-8" ?>
 <svg viewBox="1.371052205228049 -3.742310306483343  0.22811262677828803 0.249272657376292" xmlns="http://www.w3.org/2000/svg" version="1.0" overflow="visible">
  <defs>
   <g id="ID__#42_Model_Space"/>
   <g id="ID__#42_Paper_Space0"/>
   <g id="ID__#42_Paper_Space"/>
  </defs>
  <g id="draft" transform="matrix(1 0 0 -1 0 0)" stroke-width="5.039721436807565E-5">
   <g id="Poliline" color="rgb(0,0,0)" stroke="currentColor" fill="none" stroke-width="0.00005039721436807565">
    <path d="M 1.537716475315392 3.671528973537565 L 1.531676604635044 3.67949822293499 L 1.525219864782826 3.687131501282005 L 1.518052576877955 3.694095581245147 L 1.509866818444228 3.69981025183555 L 1.500575561822823 3.703422534047726 L 1.49064652269608 3.704282638670111 L 1.480811033111137 3.702598758855161 L 1.471430897509428 3.699155656150768 L 1.464917643732632 3.696728193484466 " id="ID_546"/>
    <path d="M 1.464917643732633 3.696728193484462 L 1.462762425367684 3.694064874095356 L 1.458324884062892 3.685142595501547 L 1.456218962970534 3.675388762406486 L 1.456550526992113 3.665431114425867 L 1.459759449665789 3.65599202744919 L 1.465311337950157 3.647707889301317 L 1.472692512354706 3.640994505682936 L 1.481366059170063 3.636056092494499 L 1.490877577926354 3.633029126664348 L 1.500812803635623 3.632093170126571 L 1.510686714027581 3.633499526793864 L 1.519828643685633 3.6374677911966 L 1.527429060951863 3.64390948345297 L 1.532907761790113 3.652239065337708 L 1.536225156688339 3.661652121339262 L 1.537716475315392 3.671528973537565 L 1.540433036839998 3.681116493080926 L 1.539982972576954 3.691056706073275 L 1.536234487745509 3.700279529510167 L 1.529944475957893 3.708015420635801 L 1.521992060401461 3.714045769172592 L 1.512985485549188 3.718354911614383 L 1.503324202780614 3.720873529594701 L 1.493357110497667 3.721370400998827 L 1.483583274186559 3.719414761567056 L 1.47490965003911 3.714542082732464 L 1.468555052768736 3.70689497763157 L 1.465088407509897 3.69755615960484  z" id="ID_547"/>
    <path d="M 1.438917642497699 3.518728185029917 L 1.447821025291099 3.514201619549973 L 1.457336953925232 3.511159538908353 L 1.467189709576071 3.509492716624237 L 1.477174323590989 3.509048589120958 L 1.487150435072621 3.509675097938115 L 1.497023754497571 3.51124048313833 L 1.506729214252218 3.513638154607786 L 1.516218083827814 3.516784878715448 L 1.525452563446275 3.520618256810267 L 1.534394448217865 3.525090827537054 L 1.54300697253949 3.530168909324201 L 1.551248890258151 3.53582866175957 L 1.559072467595985 3.542053708337896 L 1.566421108425084 3.548832519788279 L 1.573227162088731 3.556155418206939 L 1.579410139886457 3.564010796367629 L 1.584875933278116 3.572380166649596 L 1.589518433522107 3.581232564362679 L 1.593223437037575 3.59051564478451 L 1.595891010734617 3.600148196425179 L 1.59774709350579 3.609972292468746 L 1.598864662807362 3.619907116503826 L 1.599164832006337 3.629899553034151 L 1.598561346024728 3.639877585342132 L 1.596969366602448 3.649745479920406 L 1.59431927346015 3.659382440745552 L 1.590574113377776 3.668648230008402 L 1.585745431663815 3.677397983376872 L 1.57989946155681 3.685503917940257 L 1.573149550494867 3.692874705793482 L 1.570191086232853 3.695638349682699 " id="ID_548"/>
    <path d="M 1.457917643400151 3.539728186027364 L 1.451209348672634 3.533976617777035 L 1.443707490728245 3.527383087979009 L 1.438917642497699 3.518728185029919 L 1.43317887538778 3.511099452003431 L 1.428962191280509 3.502034031481041 L 1.421645354378648 3.49545240983941 L 1.412059851942006 3.493037649107051 L 1.402670291770506 3.496064214095635 L 1.396013417668243 3.503395487190408 L 1.393344720717649 3.512943001185345 L 1.395128926025621 3.522700057936971 L 1.400669631214721 3.530955054080724 L 1.406917640977781 3.538728185979866 L 1.415014121095957 3.544560436706747 L 1.421886142626815 3.551812286537312 L 1.427897885539485 3.559800239591792 L 1.429917642070222 3.562728187119805 " id="ID_549"/>
    <path d="M 1.570191086232853 3.695638349682699 L 1.567566801196269 3.7037656040286 L 1.563031350259647 3.712662904236911 L 1.557015102189031 3.720634298496253 L 1.549729162079746 3.727466457658012 L 1.541437942452788 3.733038786669137 L 1.532404195967624 3.737306727352301 L 1.522860580741023 3.740268299236561 L 1.513007920915855 3.741934197655277 L 1.503021978364501 3.742310306483343 L 1.493071706261309 3.741389218854822 L 1.483333118494204 3.739151711050396 L 1.474003382477759 3.735576586539453 L 1.465306795504574 3.730659946150899 L 1.457487955879742 3.724443038550848 L 1.453039072979357 3.71548885148236 L 1.448125940620868 3.706779828851725 L 1.443196184834497 3.698080810157078 L 1.439345151002334 3.688868210254597 L 1.437220520088476 3.679104154660993 L 1.436175649273939 3.669164824314538 L 1.436339391457683 3.659173441713145 L 1.437926284645874 3.649310401640009 L 1.441118760443245 3.639847922022452 L 1.445998576322561 3.63113835952339 L 1.452485472657627 3.623551223110451 L 1.460334132565224 3.617382659956122 L 1.46920392683294 3.612795006432177 L 1.478739625197797 3.609825460516152 L 1.488631077967677 3.608426695623819 L 1.498622105219921 3.608512607566918 L 1.508505619052529 3.609983487040654 L 1.518112332862273 3.612737000192716 L 1.527291981491687 3.616684589779744 L 1.535844086824625 3.621852756707419 L 1.543664901484167 3.628074207168172 L 1.550673884366961 3.635198279112643 L 1.556776404698237 3.643112569371684 L 1.561868451905622 3.651711555941972 L 1.565848653380089 3.660878024142119 L 1.568635531049149 3.670474832375159 L 1.57018543155368 3.680347233066925 L 1.570504574098854 3.690335992114155  z" id="ID_54A"/>
    <path d="M 1.406917640977781 3.538728185979866 L 1.39988989702364 3.545824277954885 L 1.393909940597654 3.553833496060708 L 1.388592035183292 3.562300727472194 L 1.38364249815271 3.570988636137506 L 1.379339800901503 3.580012416485107 L 1.375830420835835 3.589372265567718 L 1.373216287983142 3.599019348476661 L 1.371595433132537 3.608883302512802 L 1.371052205228049 3.618863061221702 L 1.371642464336633 3.628840859549852 L 1.373382949315514 3.63868234933669 L 1.37624578679245 3.648257297866861 L 1.380162334083101 3.657452371590029 L 1.385033548369903 3.666180266853837 L 1.39074434069155 3.67438442626047 L 1.397176740747013 3.682036908333694 L 1.403887589167162 3.689450254730987 L 1.410601660671133 3.696862492217622 L 1.417547947662609 3.704056317987515 L 1.424862003173317 3.710873815917675 L 1.432702448444491 3.717075023910316 L 1.441289660785443 3.72217364307254 L 1.450830701712533 3.725002057577315 L 1.457487955879742 3.724443038550846 " id="ID_54B"/>
   </g>
   <g id="ID_0" color="rgb(0,0,0)" stroke="currentColor" fill="none" stroke-width="0.00005039721436807565"/>
  </g>
 </svg>