<?xml version="1.0" encoding="UTF-8" ?>
 <svg viewBox="0.8099176126218026 -5.107455822371692  0.0913324315740418 0.10039139057262148" xmlns="http://www.w3.org/2000/svg" version="1.0" overflow="visible">
  <defs>
   <g id="ID__#42_Model_Space"/>
   <g id="ID__#42_Paper_Space0"/>
   <g id="ID__#42_Paper_Space"/>
  </defs>
  <g id="draft" transform="matrix(1 0 0 -1 0 0)" stroke-width="5.039721436807565E-5">
   <g id="Layer_#32_1" color="rgb(255,0,255)" stroke="currentColor" fill="none" stroke-width="0.00005039721436807565"/>
   <g id="Poliline" color="rgb(0,0,0)" stroke="currentColor" fill="none" stroke-width="0.00005039721436807565">
    <path d="M 0.8099176126218026 5.019728256323592 L 0.8112471582040593 5.028555183118688 L 0.8204382659664881 5.032257802153703 L 0.8298036957069826 5.035600447738362 L 0.8379798074437241 5.041340572191141 L 0.8452327548581974 5.048213568976184 L 0.8515830669059063 5.055931779988125 L 0.8571450346285249 5.064238567073212 L 0.8620752694729275 5.072937817916494 L 0.8665392772268437 5.0818859914825 L 0.8707021021408634 5.090976497262621 L 0.8747346337543397 5.100127585259829 L 0.8805454644436717 5.107376358640694 L 0.8904729273442963 5.107455822371692 L 0.8999961001727037 5.104481470176507 L 0.9012500441958444 5.095386969347076 L 0.8996036906685178 5.085528801052245 L 0.8969776832130698 5.075882232679176 L 0.8936108199922373 5.066467903613863 L 0.8895937647271746 5.057312080449776 L 0.8849471268605961 5.048459473716178 L 0.8796459863269223 5.039983341414093 L 0.8736273131836078 5.03200207945021 L 0.8667917415915287 5.024711545546685 L 0.859022061745728 5.018429182236847 L 0.8504881741126535 5.01323067606758 L 0.8413148991509729 5.009275017994878 L 0.831583903815547 5.007064431799071 L 0.8216748239393645 5.007797631259302 L 0.813435553703913 5.013194330886441  z" id="ID_7BA"/>
   </g>
   <g id="ID_0" color="rgb(0,0,0)" stroke="currentColor" fill="none" stroke-width="0.00005039721436807565"/>
  </g>
 </svg>