<?xml version="1.0" encoding="UTF-8" ?>
 <svg viewBox="0.5283399828762132 -1.798728103334301  0.47457763891259686 0.5671934835471151" xmlns="http://www.w3.org/2000/svg" version="1.0" overflow="visible">
  <defs>
   <g id="ID__#42_Model_Space"/>
   <g id="ID__#42_Paper_Space0"/>
   <g id="ID__#42_Paper_Space"/>
  </defs>
  <g id="draft" transform="matrix(1 0 0 -1 0 0)" stroke-width="1.074482389119885E-4">
   <g id="Layer_#32_1" color="rgb(255,0,255)" stroke="currentColor" fill="none" stroke-width="0.0001074482389119885"/>
   <g id="Poliline" color="rgb(0,0,0)" stroke="currentColor" fill="none" stroke-width="0.0001074482389119885">
    <path d="M 0.8589176149491777 1.780728102479347 L 0.8577783981055642 1.782312166374763 L 0.8503555279985484 1.7889511285435 L 0.8416933869290605 1.793937709730265 L 0.8329176137142439 1.798728103334301 L 0.824342962740963 1.793584817347197 L 0.8155820218984883 1.788764006731932 L 0.8067847301228905 1.784009293727121 L 0.7980982185657988 1.779056377721969 L 0.78966886961895 1.773679393154058 L 0.7815482781506367 1.767844560334742 L 0.7735743454406699 1.761810244715746 L 0.7657350340141118 1.755602300104197 L 0.7580264581651291 1.749232725787976 L 0.7504435269508818 1.74271418976812 L 0.7429792208402813 1.736059164021918 L 0.7356265610267894 1.72928142514713 L 0.72837660171421 1.722394046291645 L 0.7212195607339327 1.715410140867435 L 0.7141449280535657 1.708342752862305 L 0.7071421326519838 1.701205334219572 L 0.7001977998759507 1.694008732006995 L 0.6933016045005047 1.686767036413371 L 0.6864408518850658 1.679491866759738 L 0.6796031526265561 1.672194987009898 L 0.672776234005891 1.664888008015861 L 0.6659479488162195 1.657582296810481 L 0.6591064143910162 1.650289032480248 L 0.652240047391281 1.643019156847369 L 0.6453377088312209 1.635783446238759 L 0.6383887717850998 1.628592501062916 L 0.6313832502523198 1.621456796728804 L 0.6237223222243973 1.615046091315777 L 0.6165462577459097 1.608085164413745 L 0.6098744049571306 1.600638239157152 L 0.6036266789901737 1.592831216983848 L 0.5977176376271816 1.584764276552922 L 0.5920612186054042 1.576517915955999 L 0.5865715482525556 1.568159452708057 L 0.5811612675484632 1.559749330283219 L 0.5757381336307636 1.551347629548356 L 0.5701998257927042 1.543021462001149 L 0.564427577982765 1.534856279843038 L 0.5602496320132105 1.529396059291716 L 0.5576857838985596 1.524536214807946 L 0.5540065605270402 1.515243370085906 L 0.5510246844543776 1.505699017701344 L 0.5480838829045088 1.496141695883924 L 0.544521703976045 1.486802600195012 L 0.5396404135993836 1.478092221416074 L 0.5329175994650086 1.470728087755137 L 0.5302447599254397 1.461110641258834 L 0.5293199588570205 1.451162359175668 L 0.529481159746549 1.441166026140873 L 0.5300676695987941 1.431183454248108 L 0.5305460570310184 1.421195552249647 L 0.5304987997457636 1.411197998704189 L 0.529708394289843 1.401230852669446 L 0.5288220899203226 1.391270342319485 L 0.5283399828762132 1.381283697349887 L 0.5288130729799443 1.371302059842104 L 0.5309781038864472 1.361559407065508 L 0.535473980095734 1.352662605911449 L 0.5369175996549985 1.350728082055443 " id="ID_8E8"/>
    <path d="M 0.6634879181667657 1.23701518602937 L 0.6633252777160356 1.237233154111285 L 0.6559355338674147 1.243874995217057 L 0.6468782096303416 1.248088571406988 L 0.6377665581875487 1.252204996373194 L 0.6288107639172394 1.256652917579524 L 0.6200139838913615 1.261407284976408 L 0.611413324028101 1.266507766195353 L 0.6030458925668017 1.271981979301402 L 0.5949461512084886 1.277844914703953 L 0.5871442945569676 1.284098738913947 L 0.5796653001388528 1.290734369044361 L 0.5725413070990069 1.29774985361367 L 0.5657647236916379 1.30510219787587 L 0.5592215693721326 1.312663986372589 L 0.5526981217754008 1.32024314008114 L 0.5459734312643434 1.327643348718318 L 0.5389175997499934 1.334728081295484 L 0.5371246002332671 1.340813412159267 L 0.5369175996549985 1.350728082055445 L 0.5402387134130802 1.355652047993517 L 0.5403771639725639 1.365530302951068 L 0.5413310101628355 1.375476349816615 L 0.5429535883519581 1.385342191373949 L 0.544926827642576 1.395145029327979 L 0.5470658326735967 1.404913558724008 L 0.5492017664559806 1.414682693365437 L 0.5511684048073802 1.42448718640286 L 0.5527891323871037 1.434354359578863 L 0.5538657526433921 1.44429394509004 L 0.5558335009785376 1.453955701647128 L 0.5600804618109799 1.463007171403594 L 0.564868579585883 1.471785515507283 L 0.5699957263816104 1.480370999834178 L 0.5752468129122246 1.488881187009059 L 0.5804454051053094 1.497422572558097 L 0.5853681483370599 1.506126166871037 L 0.5899879404669406 1.514995327292769 L 0.5944091464547993 1.523964586828308 L 0.5987298667298351 1.53298303265242 L 0.6030442269124264 1.542004967929811 L 0.607446190866078 1.55098354136366 L 0.612035224157256 1.559867981492699 L 0.616919119729066 1.56859397824172 L 0.6222167663283864 1.5770739667213 L 0.6280586584264105 1.585187289310432 L 0.6344406068034206 1.59288424774736 L 0.6411657361739822 1.600284510520351 L 0.6480185508691259 1.607567318955895 L 0.6547051483364399 1.615001875374451 L 0.660704605003514 1.622992054893783 L 0.6650558873898876 1.631972353821359 L 0.6703949130265779 1.640383565234175 L 0.677597790533584 1.647305368664881 L 0.6850635500350686 1.653955496524044 L 0.6920104335655024 1.661147711664447 L 0.6990858403151359 1.668214216745885 L 0.7062966450298429 1.675142731668399 L 0.713173299615816 1.682386169380016 L 0.7191229761215033 1.690422583742238 L 0.7253687285078004 1.698224944468696 L 0.7330477882158526 1.70457187892075 L 0.7419413310646528 1.709131853332005 L 0.7507115673902014 1.713914740233112 L 0.7578855333212183 1.720813973461257 L 0.7637965734319208 1.728878961930288 L 0.7707003124534336 1.736094278995347 L 0.7782289874816213 1.742673648994371 L 0.7861391341429167 1.748789044704931 L 0.7944004773282308 1.75442113927602 L 0.8029774511256038 1.7595596955237 L 0.8118316622161234 1.764204767726237 L 0.8209232777958064 1.768366519662256 L 0.8302131294312804 1.772065146204743 L 0.8396641782190679 1.775330444342486 L 0.8492424837059644 1.778201650110442 L 0.8589176149491777 1.780728102479347 L 0.8681020445920344 1.7767942478657 L 0.8767272491603534 1.77174344583723 L 0.8848892222681818 1.76596905098739 L 0.8927745218617895 1.75981942867542 L 0.9006038843336208 1.75359891365758 L 0.9086049212711762 1.747601463198845 L 0.9169865508727905 1.742153175484961 L 0.9214176179177684 1.739728100531952 L 0.9284735469108139 1.732662056968855 L 0.9363155709035906 1.726459622154481 L 0.9443241802882572 1.720471311257414 L 0.9519683441716058 1.714028744582021 L 0.9591393257133118 1.70706075239499 L 0.9660077280252394 1.699792732241789 L 0.97276466099908 1.692420484202109 L 0.9796566755380133 1.685175641924541 L 0.9870776549810988 1.678481969951731 L 0.9929176213138362 1.674728097444617 L 0.9984957839686749 1.666551134053106 L 1.000728807255144 1.656822592130207 L 1.002809939946396 1.647053301608181 L 1.00291762178881 1.646728096114689 L 1.001086666694739 1.636900995818569 L 1.000087578622971 1.626953263616666 L 0.999684256343909 1.616962366366967 L 0.9996132070579903 1.606962827245894 L 0.9995933637489544 1.59696292069684 L 0.9993207319876624 1.586967400946191 L 0.998459217066518 1.577006957946812 L 0.99664840887554 1.567177975237411 L 0.9935700128593536 1.557672744655477 L 0.9899276928329019 1.548359867178877 L 0.9862205682557219 1.539072416169787 L 0.9823929397799204 1.529833977879469 L 0.9784026779431025 1.520664795287494 L 0.9742148045887901 1.511584131399242 L 0.9697985563760128 1.502612361426871 L 0.9651255522032817 1.493771662874475 L 0.9601689527816983 1.485086860845207 L 0.9549031347802907 1.476586083447132 L 0.9493038112792904 1.468301349407528 L 0.9433485850133402 1.460269028151646 L 0.937708667049006 1.452017290803119 L 0.9327446955896006 1.443337696664299 L 0.928064934602566 1.434500292498936 L 0.9233362988618657 1.425689239573216 L 0.9182296465111816 1.417093375555344 L 0.912348401164273 1.409012322184551 L 0.905673386996721 1.401570842129599 L 0.8984659659945134 1.394641017545392 L 0.8909896184546486 1.387999626350627 L 0.8835167247952719 1.381354885917444 L 0.87637038188761 1.374363296524382 L 0.8699921195541406 1.366671634806669 L 0.8649629681087125 1.358046172867958 L 0.8629176151391675 1.352728082150438 L 0.8579135502718955 1.344072103236479 L 0.8524302540003114 1.335710708766168 L 0.8466011915383049 1.327585968186973 L 0.8405532218320974 1.319622428579005 L 0.8344064062227056 1.311734744191626 L 0.8282770435431965 1.303833530406462 L 0.8222820452257266 1.295830177445651 L 0.8165430682359583 1.287641847722227 L 0.8124176127405462 1.28122807875437 L 0.8087561763116655 1.279149543734641 L 0.8008018224242068 1.273107314788667 L 0.7936563951581759 1.266116145388901 L 0.7869176115293613 1.258728077685677 L 0.7845467532947695 1.257596564654003 L 0.7755241457896603 1.253284646892545 L 0.7664682452729057 1.249043209622007 L 0.7573326244491172 1.244976679624182 L 0.7480752957354682 1.241196584600521 L 0.7386610629306772 1.237827394148347 L 0.7290675756880587 1.23501141213109 L 0.7192937714611487 1.232909664721564 L 0.7093718482555627 1.231695343863789 L 0.6993785534056496 1.231534619787186 L 0.6894962611225708 1.232864118931439 L 0.6799323669339321 1.23576215454484 L 0.6703453403674758 1.234442920282194  z" id="ID_8E9"/>
   </g>
   <g id="ID_0" color="rgb(0,0,0)" stroke="currentColor" fill="none" stroke-width="0.0001074482389119885"/>
  </g>
 </svg>