<?xml version="1.0" encoding="UTF-8" ?>
 <svg viewBox="0.8762983314317134 -1.289242341603289  0.41441798092689464 0.5630174230780116" xmlns="http://www.w3.org/2000/svg" version="1.0" overflow="visible">
  <defs>
   <g id="ID__#42_Model_Space"/>
   <g id="ID__#42_Paper_Space0"/>
   <g id="ID__#42_Paper_Space"/>
  </defs>
  <g id="draft" transform="matrix(1 0 0 -1 0 0)" stroke-width="1.074482389119885E-4">
   <g id="Layer_#32_1" color="rgb(255,0,255)" stroke="currentColor" fill="none" stroke-width="0.0001074482389119885"/>
   <g id="Poliline" color="rgb(0,0,0)" stroke="currentColor" fill="none" stroke-width="0.0001074482389119885">
    <path d="M 1.177917630100864 1.258728077685677 L 1.169367178441965 1.26338414146967 L 1.162011193578695 1.270153860891541 L 1.154081459691548 1.276239946709333 L 1.145566794381862 1.281473876068746 L 1.136475437375112 1.28562023946014 L 1.12686788457657 1.288351821853382 L 1.116925950249267 1.289242341603289 L 1.107049984926366 1.287846270912286 L 1.097765251099648 1.284159661624656 L 1.088864579375913 1.279602550563179 L 1.080187736570099 1.274631697996106 L 1.071715916004868 1.269319475186186 L 1.063523764436884 1.263587571839488 L 1.056070746302035 1.256942181470279 L 1.049722176241784 1.249222060635174 L 1.04409007091999 1.240960833604626 L 1.038988040448454 1.232361341852911 L 1.034348078999014 1.223503947381363 L 1.030190737767518 1.214410613983606 L 1.026593618760509 1.205080993054302 L 1.023218659806638 1.195667721334157 L 1.019918960004817 1.186227678778919 L 1.016601539109015 1.176793914000189 L 1.013159751839105 1.167405067652389 L 1.009464320934204 1.158113417167257 L 1.005350902140449 1.149000054993326 L 1.000917621693815 1.140728072080978 L 0.9996875488220426 1.130861666276331 L 0.9963914263972447 1.121428890210557 L 0.9916239805843751 1.112657323752218 L 0.9860282701537785 1.104371681081325 L 0.9809554545211405 1.095755309690956 L 0.9763241014314765 1.086893015639946 L 0.9720582824100176 1.077848784058748 L 0.9680902363345378 1.068669828001407 L 0.9643590527149719 1.059391967393928 L 0.9608086488880359 1.050043387725379 L 0.9573854573125837 1.040647464963905 L 0.954035786695095 1.031225087538475 L 0.950702611107717 1.021796983120406 L 0.9473210205932245 1.01238603562955 L 0.9438118040962599 1.003022115554728 L 0.9415836345006027 0.9973960340230725 L 0.9379587105326709 0.9883218085282461 L 0.9330975798363629 0.9795839207490946 L 0.9279488473445605 0.9710117449830679 L 0.9227050228364896 0.962496863268635 L 0.9175282764235168 0.9539412103021511 L 0.9125697759049842 0.9452575586223233 L 0.9079839008377552 0.9363722358594444 L 0.9039364436287504 0.9272299152830374 L 0.9006063739962453 0.9178040931996314 L 0.8981757120561688 0.9081084814930822 L 0.8946633328484727 0.8987893462098934 L 0.8895189411645159 0.8902162837190026 L 0.8847582018788813 0.8814353282653719 L 0.8821259390130782 0.8718069691628471 L 0.880594476993104 0.861925890524679 L 0.8786761374424623 0.8521171461479184 L 0.8762983314317134 0.8426200001005028 L 0.878554436127187 0.8328898554908032 L 0.8827036995200829 0.8238167068325488 L 0.8889693390991864 0.816057538312302 L 0.8968163818429556 0.8098829305858501 L 0.905489114506496 0.8049142793373018 L 0.91451999272764 0.8006219956589522 L 0.9236276661372314 0.796492633414891 L 0.9327419616649788 0.792377947616421 L 0.9418691332183045 0.788291942235583 L 0.9510147340627463 0.7842473935573491 L 0.9601836807233832 0.7802563050010676 L 0.9693807120830477 0.7763300772502344 L 0.9786098592237485 0.7724800298517867 L 0.9878749663593318 0.7687174130723822 L 0.9971795862882686 0.7650536565170007 L 1.005917621931303 0.7617280540794447 L 1.022821189464969 0.7553432204490474 L 1.036205975053947 0.7507797912090695 L 1.045739245748063 0.7477607491548551 L 1.055314990463403 0.7448791400163728 L 1.064924715353705 0.7421128658212446 L 1.074560854370435 0.7394399840286212 L 1.084216607347587 0.736838796716544 L 1.093885778262378 0.7342879057990395 L 1.103562617331306 0.7317662432345902 L 1.113241668888568 0.7292530845058957 L 1.122917627488504 0.7267280524170339 L 1.125861878097049 0.7264720616183844 L 1.135854669630942 0.7262249185252774 L 1.145813223664115 0.727066986037622 L 1.155578562502407 0.7291824686828328 L 1.164917629483397 0.7327280527020186 " id="ID_94B"/>
    <path d="M 0.9569176196039278 0.8787280596366464 L 0.9567328037517981 0.8887257319111174 L 0.9569993436360046 0.8987211191643815 L 0.9578531085749242 0.9086827507726926 L 0.959448457106613 0.9185517682673456 L 0.9619587037134937 0.9282269722560627 L 0.9655627111636846 0.9375478265610084 L 0.9704076269836026 0.9462853009918905 L 0.976548010482614 0.9541638621341181 L 0.9838943790742646 0.9609311843989942 L 0.9871517118181669 0.969171459947228 L 0.9903532532116852 0.9785786109648189 L 0.9957676986634744 0.9869800090622664 L 1.001097524073418 0.9954337398401573 L 1.004483040259469 1.004805485503348 L 1.005301154471651 1.014748452244168 L 1.004229019962342 1.024682633884699 L 1.002300506177088 1.03449395254637 L 1.00038478888085 1.044307634660658 L 1.003149521008009 1.053572261287978 L 1.004861781177816 1.063393701453129 L 1.004424946890041 1.073373466897241 L 1.003012709920064 1.083272031857642 L 1.001742772663904 1.093188773907266 L 1.00173099574908 1.103174519739559 L 1.001917621741314 1.10472807037107 " id="ID_94C"/>
    <path d="M 1.274917634708117 1.190728074455851 L 1.279815223766981 1.182028196486506 L 1.285388018490208 1.173726338302552 L 1.288917635373081 1.166728073315912 L 1.289315603552926 1.156736003200794 L 1.289736155120583 1.146744838760417 L 1.29013187518051 1.13675264964873 L 1.290457178847764 1.126757917996071 L 1.290667106517574 1.116760256098643 L 1.290716312358608 1.10676048404829 L 1.29055818976257 1.096761913341154 L 1.29014420291285 1.086770763384315 L 1.289423443064856 1.076797179464152 L 1.288342528360815 1.066856347883325 L 1.287917635325584 1.063728068423674 L 1.287000903617069 1.042053668074846 L 1.282405496373598 1.022161228881106 L 1.278917634898107 1.00272806552633 L 1.279335138592061 0.9945992691200125 L 1.280917634993102 0.9847280646713763 L 1.277613221589195 0.9758955862968505 L 1.275654914152299 0.9660895639541796 L 1.273512923669748 0.9563217764629676 L 1.271312704218495 0.9465669345462082 L 1.269193153831178 0.9367947092554196 L 1.267297499872538 0.9269766222315531 L 1.265795505816386 0.9170917562814953 L 1.265242122842326 0.9071110050738653 L 1.265332431105544 0.8971118796673742 L 1.26546046774909 0.8871129422773798 L 1.265058832209569 0.8771239171385634 L 1.263649209526174 0.8672294038646235 L 1.261529455404788 0.8574570640639649 L 1.259770218492313 0.847616661308555 L 1.258975272538609 0.837649822677429 L 1.258245892963107 0.8276766855313262 L 1.257329036412328 0.8177192203529362 L 1.256075791897993 0.8077987310282158 L 1.254392362112011 0.7979423772372787 L 1.252551535399381 0.7881132156899345 L 1.250647985809493 0.7782957136608708 L 1.248545437211843 0.7685193196561837 L 1.246090172605507 0.7588261927758211 L 1.243074239188128 0.7492941241410467 L 1.239174525617201 0.7400923691507533 L 1.237917632950711 0.7377280529395059 L 1.228350052891581 0.7348195739666679 L 1.218707372272231 0.7321723913802476 L 1.208947166733055 0.7300021688577712 L 1.199056645656295 0.7285478659174274 L 1.189073015522296 0.7280766920441977 L 1.179111976438648 0.7288617124102715 L 1.169380441995248 0.7311168409056866 L 1.164917629483397 0.7327280527020186 L 1.156221697513895 0.7366599421555123 L 1.146423412953797 0.7386515767578353 L 1.136543400590194 0.7401929378420374 L 1.126625452958732 0.7414705767272451 L 1.116697212973066 0.7426662815089422 L 1.106781765510453 0.7439636877684901 L 1.096910136707252 0.7455570504091469 L 1.087135334589666 0.7476590412918896 L 1.077551435342054 0.7505015859858091 L 1.068314776900456 0.7543184944667125 L 1.059393814514161 0.7588364507135807 L 1.050366431578245 0.7631348177265469 L 1.041009753562759 0.7666501044795222 L 1.032917623213734 0.7687280544119252 L 1.012375262984821 0.7801809568402529 L 1.003061226417201 0.7813190996931266 L 0.9931472490828072 0.7821393281053819 L 0.9839589464461591 0.7859994218251815 L 0.9755670336493063 0.7914302618684435 L 0.9673198052847373 0.7970846046393838 L 0.9585158595382266 0.8017990372861447 L 0.952876069383918 0.8098989465620842 L 0.9498494897738343 0.8193943544796535 L 0.944755389533693 0.8271969564373247 L 0.9395036053940186 0.8356604907684523 L 0.936524289014077 0.8451870158789809 L 0.9362011570942989 0.8548614525968183 L 0.939899447884084 0.8639738997248809 L 0.9387976675228673 0.873864587951564 L 0.936398570592769 0.8832691139865733 L 0.941274576075191 0.8919964904673366 L 0.945473587843912 0.9010699171278861 L 0.94907955809163 0.910395640233343 L 0.9521892433908902 0.9198989139513393 L 0.9549044946315987 0.9295226973378748 L 0.9573285478143738 0.9392241904790203 L 0.9594252780476608 0.9474239949497196 " id="ID_94D"/>
   </g>
   <g id="ID_0" color="rgb(0,0,0)" stroke="currentColor" fill="none" stroke-width="0.0001074482389119885"/>
  </g>
 </svg>