<?xml version="1.0" encoding="UTF-8" ?>
 <svg viewBox="-0.8127153943175979 -10.31527023106102  0.41354011798560275 0.5740664818029941" xmlns="http://www.w3.org/2000/svg" version="1.0" overflow="visible">
  <defs>
   <g id="ID__#42_Model_Space"/>
   <g id="ID__#42_Paper_Space0"/>
   <g id="ID__#42_Paper_Space"/>
  </defs>
  <g id="draft" transform="matrix(1 0 0 -1 0 0)" stroke-width="5.039721436807565E-5">
   <g id="Poliline" color="rgb(0,0,0)" stroke="currentColor" fill="none" stroke-width="0.00005039721436807565">
    <path d="M -0.4924164336107424 9.974728491673464 L -0.4889257362793158 9.984098972574468 L -0.4851575259853132 9.993361540662258 L -0.4811687272539294 10.0025314376809 L -0.4770041598189714 10.01162281671633 L -0.4727001658755956 10.02064917987605 L -0.468287515487547 10.02962299384083 L -0.4637932051714336 10.03855625668723 L -0.4592420099783583 10.04746073686216 L -0.4546578014523757 10.05634833120726 L -0.450064852010585 10.06523147668352 L -0.4454893154359514 10.07412366665913 L -0.4409611561194549 10.08304013122447 L -0.4365171390672469 10.09199845763242 L -0.43211370607973 10.1009767368059 L -0.4276926078992789 10.10994634132448 L -0.4233274057218779 10.11894322873258 L -0.4190976539428748 10.12800445448261 L -0.4150888011920744 10.13716533605772 L -0.4113920647018805 10.14645624787517 L -0.4081028850872413 10.15589874691599 L -0.4053172296772534 10.16550140149669 L -0.4029518681778539 10.17521754643903 L -0.4006840950432303 10.18495633703002 L -0.3991752763319951 10.19483599810993 L -0.3995158676609662 10.20479909982231 L -0.4008339010852647 10.214701236628 L -0.4014771100887318 10.22468053917992 L -0.4026280049855151 10.23460803252816 L -0.4062205155958614 10.24390014878693 L -0.4119457996700966 10.25207136982922 L -0.4193730090535244 10.25873718612957 L -0.4279507247207164 10.26385308959853 L -0.4371671633723109 10.2677169550867 L -0.4467034189701176 10.27072017195568 L -0.4563866509870298 10.27321623848272 L -0.4661212938126261 10.27550589896078 L -0.4758400439027551 10.27785955433938 L -0.485471776360428 10.28054579963022 L -0.4949051767849771 10.28385400282222 L -0.5040002341765994 10.28800379227832 L -0.5128560472311321 10.29264660371671 L -0.5215682382941847 10.29755501175314 L -0.530278330884884 10.30246695887862 L -0.5391709971382506 10.30703785485512 L -0.5483986620978643 10.31088110781113 L -0.5579933092884489 10.31367208684962 L -0.5678586133083982 10.31527023106102 L -0.5770102908817121 10.31282154067851 L -0.585447426401732 10.30744997630369 L -0.5938316297261084 10.30199861516784 L -0.6020869743978317 10.29635547630715 L -0.6101141687098837 10.29039325058108 L -0.6176860859360165 10.28386766166187 L -0.624436093692828 10.27649496554246 L -0.6307161431549951 10.26871413848847 L -0.6368353532232698 10.26080534458629 L -0.6430326249305472 10.25295790321373 L -0.6495273255986822 10.24535560891844 L -0.6564461861769973 10.23814307645155 L -0.6636116577302218 10.23116073358302 L -0.6707924599307944 10.2242006282217 L -0.6777783038606442 10.21704544253943 L -0.684387684636473 10.20954213513259 L -0.6906394348052727 10.20173763141499 L -0.6966170250355193 10.19372084476413 L -0.7024104156319133 10.18556995270162 L -0.7081125695638848 10.17735488367235 L -0.7138172015916231 10.16914150643207 L -0.7196175808982243 10.16099591464621 L -0.7256059403398574 10.15298777065864 L -0.7318708058957802 10.14519490815926 L -0.738398430948406 10.13761995114071 L -0.7450343979624537 10.1301397272239 L -0.7517239767917446 10.12270772951976 L -0.7584236301471181 10.11528329403181 L -0.7650887386861501 10.10782810140042 L -0.7716682947867275 10.10029772589545 L -0.7780923163300253 10.09263443470401 L -0.7842459705660155 10.08475317497558 L -0.7898988413841402 10.07650767151119 L -0.7920824634691153 10.07272849632821 L -0.7931304171725772 10.07141440898305 L -0.7946779397158679 10.06903613168976 L -0.7928922569361845 10.06933339878243 L -0.791082463421617 10.06972849618572 L -0.7814893493001636 10.07254313624784 L -0.7726586449708535 10.07713722920769 L -0.7671642115210578 10.08528622192469 L -0.7598819437240527 10.09174223856994 L -0.7515480148247429 10.09726485472917 L -0.7426995697804974 10.1019076641096 L -0.7332333302405294 10.10508138927471 L -0.7233068809995454 10.10602883260317 L -0.7135063528659487 10.10421903975801 L -0.7067500734058081 10.09772037835318 L -0.7057374642027634 10.08785348223081 L -0.7079475857082392 10.07812140334545 L -0.7116551837838552 10.06883845216935 L -0.7159463867418437 10.05980708602729 L -0.720200355852489 10.05075711304327 L -0.7235343401000041 10.0413430926938 L -0.722526289817373 10.03153970992556 L -0.7242962267970033 10.02172551319421 L -0.726923486217677 10.01207699476228 L -0.729233116307305 10.00235200580599 L -0.730245894091846 9.992413514533814 L -0.7300323576079633 9.982418395839005 L -0.7296913303883032 9.972427703264582 L -0.730957265817092 9.962527950437378 L -0.7352230442376922 9.953645470646357 L -0.7392900718714915 9.944630319517756 L -0.7411410924737912 9.934810582476882 L -0.7428778898604307 9.924969753798157 L -0.7472342971570516 9.916028345992146 L -0.7539210513804832 9.908616716060415 L -0.7612252692153021 9.901789944466834 L -0.768048731515786 9.894481461481513 L -0.77459490889028 9.88692233498472 L -0.7810751927349715 9.879306329691248 L -0.7876420137520759 9.871764323444461 L -0.7944092704757093 9.864402926374169 L -0.8014722611878486 9.857323978375131 L -0.8079374241247458 9.849707720845469 L -0.8127153943175979 9.8409532995808 L -0.8089096303728533 9.83467725631299 L -0.8000485836394268 9.830049507781498 L -0.7915086880166733 9.824847499528468 L -0.7831251970777178 9.819395323197272 L -0.774786022491254 9.81387618673785 L -0.7663561055590469 9.808498238424775 L -0.7576783367866744 9.80353054255922 L -0.7488166517700492 9.79889779083625 L -0.7398459290092722 9.794479309002371 L -0.7308279325137726 9.790157963299594 L -0.7218161995472779 9.785823751836658 L -0.7128601546335878 9.781375504657092 L -0.7039708531169345 9.77679531235023 L -0.6949844831948333 9.772408997465304 L -0.6859057975219791 9.768216826357946 L -0.676768021688674 9.764154838460529 L -0.667602354762618 9.76015617765157 L -0.6584386750558915 9.756152692074195 L -0.6493072034742067 9.75207672332916 L -0.6402388381434232 9.747862317378928 L -0.6312667424284193 9.743447221945342 L -0.6213559605530108 9.743119437871428 L -0.611432888814398 9.741889287671606 L -0.6014664052393437 9.741203749258025 L -0.5916993538251463 9.743078274530195 L -0.5875824537558856 9.745228480772798 L -0.5825236255053623 9.75385150416601 L -0.5781061517620492 9.762820785421496 L -0.5742444113703025 9.772043616869073 L -0.5708437512270015 9.781446709857086 L -0.5678087815227677 9.790974632571574 L -0.5650479906479032 9.800585718723944 L -0.5624752209792101 9.810248768016384 L -0.5600096007791145 9.819940026086408 L -0.5575749799983392 9.829639355004863 L -0.5550987932514718 9.839327924554945 L -0.5525107559800971 9.848987149543907 L -0.5497422503411133 9.858596082698186 L -0.5467259037200494 9.868129937259829 L -0.5433958447554739 9.877558544245177 L -0.5396887746184335 9.88684506085023 L -0.5355459338671933 9.895945319853707 L -0.5310674452338038 9.904886328800243 L -0.5266456643631674 9.913855593863063 L -0.5222389491725848 9.922832291388755 L -0.5177787779818966 9.931782516657954 L -0.5131988462078656 9.940671975977475 L -0.5084337597022976 9.949463440023619 L -0.5034183405382802 9.958114174027415 L -0.4980873901132413 9.966573920264334  z" id="ID_255"/>
   </g>
   <g id="ID_0" color="rgb(0,0,0)" stroke="currentColor" fill="none" stroke-width="0.00005039721436807565"/>
  </g>
 </svg>