<?xml version="1.0" encoding="UTF-8" ?>
 <svg viewBox="-0.2075824357068541 -0.693728050849618  0.3754327611064348 0.7375631457352902" xmlns="http://www.w3.org/2000/svg" version="1.0" overflow="visible">
  <defs>
   <g id="ID__#42_Model_Space"/>
   <g id="ID__#42_Paper_Space0"/>
   <g id="ID__#42_Paper_Space"/>
  </defs>
  <g id="draft" transform="matrix(1 0 0 -1 0 0)" stroke-width="1.074482389119885E-4">
   <g id="Layer_#32_1" color="rgb(255,0,255)" stroke="currentColor" fill="none" stroke-width="0.0001074482389119885"/>
   <g id="Poliline" color="rgb(0,0,0)" stroke="currentColor" fill="none" stroke-width="0.0001074482389119885">
    <path d="M 0.0609175770462116 0.0927280223036498 L 0.0709072934642627 0.0927209964750926 L 0.0808040425855694 0.0941091835834307 L 0.0904979031979734 0.0965499998508648 L 0.099971280009096 0.09974682190553 L 0.1092556415336316 0.1034597629172698 L 0.1184078799041686 0.1074889099049994 L 0.1275020203367863 0.1116482338649956 L 0.1281167989880032 0.1119291950906565 " id="ID_9E5"/>
    <path d="M -0.2075824357068541 0.3972280367666236 L -0.2019834293432554 0.3889484386520454 L -0.1972420647095605 0.38014790953107 L -0.1932244183219174 0.3709928076914952 L -0.1897533760204659 0.3616154878188826 L -0.1866348944873115 0.3521145131100098 L -0.1836703614845492 0.3425640800060368 L -0.1806593816198552 0.3330286903909414 L -0.1773970486773324 0.3235760285176443 L -0.1770824342581818 0.3227280332280635 L -0.170035364319375 0.2972129149905438 L -0.1657684223443105 0.2881751453915253 L -0.1606465111626791 0.2795893778248004 L -0.1550166831177711 0.2713256471315546 L -0.1491826980488549 0.263203870057005 L -0.143424266240328 0.2550292791446758 L -0.138028105573242 0.2466115092566863 L -0.133318194690899 0.2377947939353948 L -0.1296523032616195 0.228499069356495 L -0.1273626923870204 0.2187756481433194 L -0.1256474915709873 0.2025323249277342 L -0.1202972309271999 0.1919476766084891 L -0.1157521270910253 0.1830405540101747 L -0.1114064332386491 0.174034363139711 L -0.1072167131177792 0.1649544886802694 L -0.1031376089028653 0.15582433365749 L -0.0991224680038094 0.1466658407471293 L -0.0951238117684268 0.1375001345606179 L -0.091093709719698 0.128348234947353 L -0.0869841350466505 0.1192318004657089 L -0.0827473828726584 0.1101738622367065 L -0.0810824296984265 0.1067280229686141 L -0.0791552014832693 0.0900060713508051 L -0.0774267894749139 0.0802774551031096 L -0.0716478864126202 0.072163958176418 L -0.064764624390584 0.0649106813296978 L -0.0590824286534826 0.0567280205937415 L -0.0576479492879543 0.0468682082922261 L -0.0540238187225084 0.0375609831591923 L -0.0491788645953379 0.0288182465614995 L -0.0435892680156487 0.0205286451239157 L -0.037505264778126 0.0125932361701686 L -0.0310728498495232 0.0049365404313466 L -0.0243871770440247 -0.0024999771364804 L -0.0175186712067426 -0.0097678273940254 L -0.0105525512977538 -0.0169423977662646 L -0.0034559139039976 -0.0239871847226425 L 0.0039569838833229 -0.0306966196537797 L 0.0119226855617685 -0.0367330489058837 L 0.0207055028166927 -0.0414803251785116 L 0.0303798539065641 -0.0438350948856723 L 0.0403661430011528 -0.0436626499667607 L 0.0502728452198804 -0.0423170786684661 L 0.0600990788959255 -0.0404631111844314 L 0.0698969749542053 -0.0384622072690704 L 0.0795340903031345 -0.0358185562461539 L 0.0887946839451379 -0.0320574705415648 L 0.0976414560682271 -0.0274025505236164 L 0.1060631193503658 -0.0220152115196264 L 0.1140555164404082 -0.0160083147572028 L 0.1216103489293321 -0.0094587977357428 L 0.1287082005836337 -0.0024163536913626 L 0.1353112046947791 0.0050907811040162 L 0.1413547037161047 0.0130554682247848 L 0.1467252310066867 0.0214870321945409 L 0.1512220049144819 0.0304128651663085 L 0.1545209315375642 0.0398451796804 L 0.1566417552695425 0.0496123706095784 L 0.1577258369962164 0.0595495738124186 L 0.1578787626702303 0.069545096843088 L 0.156928681205593 0.0794915845511959 L 0.1555704444325743 0.089388828483834 L 0.1572252752987797 0.0991985701646598 L 0.1601138753210778 0.1087646100978734 L 0.1611166477663923 0.1186838173611502 L 0.1609175817959567 0.1207280236335784 L 0.1672909327978171 0.1283497770648356 L 0.1678503253995807 0.1382353574182691 L 0.1655877483780728 0.1479655322205993 L 0.1622705252981422 0.1573968207736271 L 0.1584203174982912 0.1666251312349658 L 0.1542625759258938 0.1757195090062282 L 0.1499221315899719 0.1847283597290037 L 0.1454819010687185 0.1936911205520104 L 0.1410120159126462 0.2026369281010432 L 0.1365796215067174 0.2116017334506282 L 0.1322704173453904 0.2206255320972321 L 0.1281752117403698 0.2297476532676406 L 0.1239181745735465 0.2387957940291301 L 0.1202801102779718 0.2481043819745459 L 0.1129175795160791 0.2667280305682063 " id="ID_9E6"/>
    <path d="M 0.0864175782573966 0.1217280236810758 L 0.0961001006006619 0.1192574086737999 L 0.1059601505076291 0.1175935797527128 L 0.1158025138268792 0.1158325334833528 L 0.1254020301900605 0.1130661425787753 L 0.1281167989880032 0.1119291950906565 L 0.1319730396657315 0.1128519473917287 L 0.1416651470085748 0.1153138307454871 L 0.1513119777064249 0.1179475944597232 L 0.1609175817959567 0.1207280236335784 " id="ID_9E7"/>
    <path d="M -0.0590824286534826 0.0567280205937415 L -0.0491982220621914 0.0552789200466037 L -0.0392081926794532 0.055367193316215 L -0.0293284136292131 0.0568662932095343 L -0.0196906016227025 0.0595159995278216 L -0.0103258594063132 0.0630162992480088 L -0.0011938993993947 0.0670887634778339 L 0.0077834317705614 0.0714932966353708 L 0.0167001765679258 0.0760198096544773 L 0.025654507766915 0.0804711780234691 L 0.0347410509053772 0.084644607608114 L 0.044041082310474 0.0883145722727896 L 0.0536048327001328 0.0912224785284046 L 0.0609175770462116 0.0927280223036498 L 0.0673609085998477 0.1003442227918736 L 0.0747914089517643 0.1070353546953484 L 0.0818062683347583 0.1141476142949056 L 0.0864175782573966 0.1217280236810758 L 0.0852353847103107 0.1315780174147836 L 0.0794320101775501 0.1395875153698647 L 0.0710831818323659 0.1450569111715865 L 0.0622409000965503 0.1497262164742406 L 0.0538319974272694 0.1551176074736098 L 0.0466862594484887 0.1620887282065482 L 0.0404431845755218 0.1698969059064215 L 0.034724726917494 0.1780988175957301 L 0.0296690256806223 0.1867137965455026 L 0.0269096890353824 0.196253562609364 L 0.0210272187250196 0.2043090179607052 L 0.0139957973832612 0.2114175680440304 L 0.0079175745288458 0.2177280282408311 " id="ID_9E8"/>
    <path d="M -0.0458832092765533 0.5319292150395861 L -0.0474688748458982 0.522420784020337 L -0.0485824281547593 0.5197280425850614 " id="ID_9E9"/>
    <path d="M -0.0480824281310106 0.549728044009985 L -0.0534746269173052 0.5580966954868689 L -0.0571078964368939 0.5674090885196179 L -0.0605152096247919 0.576810090193705 L -0.0647591729786408 0.585855272559483 L -0.0706306424520467 0.5939207137803653 L -0.0784289616363214 0.6001133181360565 L -0.0859255296020205 0.6066603559307087 L -0.0926532517971763 0.6140592893389787 L -0.0995988602343721 0.6212501969836471 L -0.1073730895473401 0.62751656089495 L -0.1160476117939959 0.6324764796962388 L -0.1236106953146381 0.6389844252499142 L -0.1298418320700536 0.646796948643523 L -0.1357969225181943 0.6548273104503064 L -0.1427078353222644 0.6620372194845956 L -0.1503726896042448 0.6684474272574122 L -0.1569355834015802 0.6759832571304419 L -0.1632080567056846 0.6837682572582225 L -0.1707335135356773 0.6902926028854282 L -0.1801185261433051 0.693532066100163 L -0.1820824344956682 0.693728050849618 " id="ID_9EA"/>
    <path d="M -0.0365824275847899 0.511728042205082 L -0.0417501281995234 0.5125831071513716 L -0.0485824281547593 0.5197280425850614 L -0.0569279330124868 0.5252294674865344 L -0.0647946345432287 0.5314004909826835 L -0.0723821218730452 0.5379139018663431 L -0.0799190905780529 0.5444861343081869 L -0.0876388611498955 0.5508411568050829 L -0.0957603374258298 0.5566703740938906 L -0.0990824305533806 0.558728044437462 L -0.1087422704171388 0.5621997158180144 L -0.127171398096749 0.5627749944044674 L -0.1513595896221034 0.5564467191257059 L -0.1646055598405667 0.5506937224333975 " id="ID_9EB"/>
   </g>
   <g id="ID_0" color="rgb(0,0,0)" stroke="currentColor" fill="none" stroke-width="0.0001074482389119885"/>
  </g>
 </svg>