<?xml version="1.0" encoding="UTF-8" ?>
 <svg viewBox="0.1675320835360941 -0.1210948110487084  0.31741346827962147 0.4048003175549297" xmlns="http://www.w3.org/2000/svg" version="1.0" overflow="visible">
  <defs>
   <g id="ID__#42_Model_Space"/>
   <g id="ID__#42_Paper_Space0"/>
   <g id="ID__#42_Paper_Space"/>
  </defs>
  <g id="draft" transform="matrix(1 0 0 -1 0 0)" stroke-width="1.074482389119885E-4">
   <g id="Layer_#32_1" color="rgb(255,0,255)" stroke="currentColor" fill="none" stroke-width="0.0001074482389119885"/>
   <g id="Poliline" color="rgb(0,0,0)" stroke="currentColor" fill="none" stroke-width="0.0001074482389119885">
    <path d="M 0.4746626994436474 -0.0120754971390422 L 0.4760880116656781 -0.0032042451455627 L 0.4774027981762031 0.0067081039199497 L 0.4783287639734164 0.0166647192246092 L 0.4789632559029453 0.0266442986624576 L 0.4793860392243721 0.0366353029185795 L 0.4796677545963873 0.046631398539148 L 0.4799946454172579 0.0566257999444062 L 0.4805507453034919 0.0666100888543326 L 0.4812887072925376 0.0765827416714924 L 0.4821542028319179 0.0865451172975629 L 0.4830903163599931 0.0965010839791898 L 0.4840395316588007 0.1064559241001461 L 0.4849455518157156 0.1164147732639211 L 0.4802295740917693 0.1210948110487084 L 0.4702401279762852 0.120636083534416 L 0.4602568664341709 0.1200569172988857 L 0.4502786731314306 0.1193990910211866 L 0.4403029408841306 0.1187023191061183 L 0.4303272278039172 0.1180049451981571 L 0.4203489841429385 0.1173444868883298 L 0.4103661053133579 0.1167581938490496 L 0.4003776098353953 0.1162835550779881 L 0.3903827778891573 0.1159586733577687 L 0.3803838816450966 0.1158227049031328 L 0.3703846741851047 0.1159159938298764 L 0.3603915995538243 0.1162801803666245 L 0.3504150372407402 0.1169580042131386 L 0.3404693234940783 0.1179928287837111 L 0.3305625202321991 0.1193504915482144 L 0.3205774764480083 0.1197761006966242 L 0.3105905472744652 0.1192902601813639 L 0.3006415762767896 0.1182817193976824 L 0.2907240335089494 0.1169982168289678 L 0.2808164864996669 0.1156401359226056 L 0.2708903232479196 0.1144297148598294 L 0.2609175865457018 0.1137280233010962 L 0.2512091403063179 0.1135685341677757 L 0.2309175851207792 0.108728023063609 L 0.2304828465340458 0.108617951550988 L 0.2209645338504629 0.1055732924240154 L 0.2120133662003614 0.1011443188354555 L 0.2041489728542158 0.0950031403155922 L 0.1979821888904798 0.0871630699683444 L 0.1937304905956862 0.0781308808692458 L 0.1910372572054006 0.0685083855284656 L 0.1893422087176812 0.0586558131976602 L 0.188161749877989 0.0487265480283554 L 0.1871320512597636 0.0387801339726455 L 0.1859775134854882 0.0288477284242887 L 0.1844408579454537 0.0189752056440451 L 0.1809750448796121 0.0097628137849792 L 0.1788971985163616 -0.0000148497525885 L 0.1776093775137113 -0.0099289038456156 L 0.1769040437702607 -0.0199025928156118 L 0.1765452562206295 -0.0298959285887062 L 0.1763137918207169 -0.0398932292560801 L 0.1760298533144082 -0.0498891175799603 L 0.1755589866875615 -0.059877777271673 L 0.174809033978808 -0.06985089765422 L 0.1737242502804666 -0.0797904429058214 L 0.1723828084309327 -0.0896997611979433 L 0.1711815809950385 -0.0996266809857574 L 0.1701528027890529 -0.1095750044224744 L 0.1692920210690589 -0.1195379749789289 L 0.168597135636829 -0.1295139010599033 L 0.1680690163753002 -0.1395001334583732 L 0.167711550667792 -0.1494940182772666 L 0.1675320835360941 -0.1594912701549394 L 0.1675420999143471 -0.1694902311639872 L 0.1677587161815834 -0.1794879941480065 L 0.1682067961108133 -0.1894789945065511 L 0.1689223865297347 -0.199451562541455 L 0.1699605002902862 -0.2093980213934525 L 0.1714076103400277 -0.2192924488453478 L 0.1734128156275592 -0.2290877728719636 L 0.176183867036257 -0.2386934374811105 L 0.1796238808228061 -0.2480808789279845 L 0.1838572768527467 -0.2571365232611651 L 0.1891761471555195 -0.2655925977504605 L 0.1960557209756981 -0.2728119208650934 L 0.2102358426797366 -0.2789568071666046 L 0.2273780769932703 -0.279251074921703 L 0.236917585405763 -0.2772719952704072 L 0.2469144893073905 -0.2775072764792075 L 0.2569024378847233 -0.2779937099743712 L 0.2668792509433278 -0.2786724359945651 L 0.2768462821574058 -0.2794829175138194 L 0.2868073639341997 -0.280363776493008 L 0.2967676602937805 -0.281253346696511 L 0.3067326547787976 -0.2820900780291175 L 0.3167063857482759 -0.282812854050567 L 0.326691109295834 -0.2833615436217531 L 0.3366857718958993 -0.2836776785364989 L 0.3466852417590616 -0.2837055065062213 L 0.3566797065242966 -0.2833933830347561 L 0.3589175912004521 -0.2832719955553919 L 0.3682535497117954 -0.281497070428852 L 0.3777766083919118 -0.2792439545284786 L 0.3908081558819276 -0.2789936317426189 L 0.4116085176471245 -0.2794942773143241 L 0.4268955751034583 -0.2792439545284786 L 0.4446887136201667 -0.2792439545284786 L 0.4557153222378929 -0.2767405861181622 L 0.4614793210141102 -0.2729854632267852 L 0.4634841365131024 -0.2689800175495627 L 0.4637347076071592 -0.257213933027824 L 0.4619175960926896 -0.2512719940354735 L 0.4602803413662118 -0.2414125999033807 L 0.4595795401760077 -0.2314395126925373 L 0.4594481271484954 -0.2214410563716012 L 0.4595841936680856 -0.2114420344303483 L 0.4597336012836398 -0.2014431477067546 L 0.45966752005614 -0.1914437440983452 L 0.4591654570265833 -0.1814575529250994 L 0.4580077281070781 -0.1715273255508265 L 0.4559888402198605 -0.161737109299791 L 0.4548862514258003 -0.151822885976518 L 0.4558835793121619 -0.14188435040092 L 0.4579480520644675 -0.1321011279399347 L 0.4601154039092661 -0.1223392574815438 L 0.4618616373111176 -0.1124939811571455 L 0.4631873975849859 -0.1025829344276765 L 0.4641958565549018 -0.0926344429970687 L 0.4649985708282803 -0.0826667931581522 L 0.465711378914051 -0.0726922477243157 L 0.4664518597260133 -0.0627197986288408 L 0.4673373572235944 -0.0527591994876673 L 0.4684827390048199 -0.0428254805420476 L 0.4699971852900671 -0.0329416597466814 L 0.4719792987235021 -0.0231413524397688 L 0.4746626994436474 -0.0120754971390422 " id="ID_9FE"/>
    <path d="M 0.236917585405763 -0.2772719952704072 L 0.229837470986781 -0.2702467837188411 L 0.2219020063756059 -0.264162315336943 L 0.2148018396502014 -0.2571638508848846 L 0.2110676824180322 -0.2480032365726199 L 0.2109175841708293 -0.2432719936554939 L 0.2126591402816587 -0.2331929950411755 L 0.2111902582305163 -0.2174720634962846 L 0.2051049954814346 -0.20300878960877 L 0.2046854030191412 -0.1910609013119107 L 0.2068196370694295 -0.1705735765532488 L 0.2054988029320555 -0.1536840269269781 L 0.2036495611157818 -0.1431280935485084 L 0.2065554949166142 -0.1378500917213152 L 0.2109175841708293 -0.1252719880507946 L 0.2141613166433851 -0.1158251517571251 L 0.215910563861514 -0.1059876245074545 L 0.2164877328832118 -0.0960081629592438 L 0.2163183443568712 -0.0860108495756755 L 0.2158288804474511 -0.0760229796707428 L 0.215423652806483 -0.0660316226083708 L 0.2154974054060341 -0.0560352896583218 L 0.21643942390814 -0.046083338851469 L 0.216917584455814 -0.0432719841560037 L 0.2184293077209247 -0.0299275196877709 L 0.217689561645102 -0.0181040197488294 L 0.2206485459483645 -0.002216182921412 L 0.223977526662793 0.0199528443261308 L 0.2254570188144385 0.0273425669259133 L 0.2249175848357945 0.0347280195487976 L 0.2256986180681295 0.0445050936427745 L 0.22832073725663 0.0541445719673099 L 0.2320598379344778 0.0634163352791806 L 0.236164972958746 0.0725341564360598 L 0.2399419710249013 0.0817911752318601 L 0.2426894828057584 0.0913969823368728 L 0.2472456597452135 0.0996493462478725 L 0.2552197603822375 0.1056786973234516 L 0.2609175865457018 0.1137280233010962 " id="ID_9FF"/>
   </g>
   <g id="ID_0" color="rgb(0,0,0)" stroke="currentColor" fill="none" stroke-width="0.0001074482389119885"/>
  </g>
 </svg>