<?xml version="1.0" encoding="UTF-8" ?>
 <svg viewBox="0.3429175904404929 -2.003177848826434  0.41976365375448127 0.3767821323390561" xmlns="http://www.w3.org/2000/svg" version="1.0" overflow="visible">
  <defs>
   <g id="ID__#42_Model_Space"/>
   <g id="ID__#42_Paper_Space0"/>
   <g id="ID__#42_Paper_Space"/>
  </defs>
  <g id="draft" transform="matrix(1 0 0 -1 0 0)" stroke-width="1.074482389119885E-4">
   <g id="Layer_#32_1" color="rgb(255,0,255)" stroke="currentColor" fill="none" stroke-width="0.0001074482389119885"/>
   <g id="Poliline" color="rgb(0,0,0)" stroke="currentColor" fill="none" stroke-width="0.0001074482389119885">
    <path d="M 0.5345836151691401 1.631728095402227 L 0.5248040230949825 1.629959252751557 L 0.5152647699352197 1.626976021623967 L 0.5053278909680011 1.626395716487378 L 0.4955143001686429 1.628258298269718 L 0.4859600822840111 1.631205292867326 L 0.4765246368964862 1.634517672152426 L 0.467050609136309 1.637716385312296 L 0.4574700823369842 1.640582169025504 L 0.4479046047409679 1.643498425761574 L 0.4383710334340734 1.646518234170995 L 0.4288830999498901 1.64967711592029 L 0.4194587799462779 1.653020362720306 L 0.4101252374077858 1.656609099431305 L 0.4009273991834768 1.66053149616232 L 0.3919465203054537 1.664925464783852 L 0.3832769588169649 1.669906050115185 L 0.3748680028470055 1.675314697067406 L 0.3668794152623329 1.681323955870466 L 0.359565702277675 1.688134589565228 L 0.3532163267876882 1.695849228674431 L 0.3480335683627391 1.704391578498814 L 0.344026918154011 1.713546972778663 L 0.3429175904404929 1.71672809943951 L 0.3448822724097269 1.723374319822873 L 0.347988980983251 1.732879205464479 L 0.351284870135113 1.742320348576225 L 0.3546311342625881 1.751743911182211 L 0.3578902658695746 1.761197803718784 L 0.3609175912954479 1.770728102004373 " id="ID_8D6"/>
    <path d="M 0.5912496334856306 1.997728112786289 L 0.5912496334856315 1.997728112786294 L 0.6004949653679255 2.001491288933779 L 0.6103312348126205 2.003177848826434 L 0.6203078727134859 2.002786689218646 L 0.6300812520309345 2.000712597013503 L 0.6395385139607753 1.997475587351095 L 0.6487268595476287 1.993532867664809 L 0.6577653464704838 1.989255084881392 L 0.6668146734571377 1.985001236376234 L 0.6761286216598679 1.981366330259412 L 0.6855939194003744 1.978140847124041 L 0.6950875543692971 1.974999063785507 L 0.7045205372726944 1.971680617733566 L 0.7137889201155918 1.967929760050671 L 0.7227269154930687 1.963453800887998 L 0.7310327933743448 1.957901888221522 L 0.738165002721015 1.950920910775872 L 0.7430121766838917 1.942265902644271 L 0.745463564154651 1.932572074057913 L 0.7485132385000988 1.92304881495278 L 0.7516813080244669 1.913565360070853 L 0.7547963397218842 1.904062626381856 L 0.7577262807262182 1.894500677102715 L 0.7603624987272042 1.884855010239784 L 0.7626150950833797 1.875112875758658 L 0.7626812441949742 1.865427504053233 L 0.7616615991773115 1.855494036847964 L 0.7612496415601973 1.851728105851668 " id="ID_8D7"/>
   </g>
   <g id="ID_0" color="rgb(0,0,0)" stroke="currentColor" fill="none" stroke-width="0.0001074482389119885"/>
  </g>
 </svg>