<?xml version="1.0" encoding="UTF-8" ?>
 <svg viewBox="1.576117304224821 -6.195721963699177  0.37603598477239397 0.22226742977965497" xmlns="http://www.w3.org/2000/svg" version="1.0" overflow="visible">
  <defs>
   <g id="ID__#42_Model_Space"/>
   <g id="ID__#42_Paper_Space0"/>
   <g id="ID__#42_Paper_Space"/>
  </defs>
  <g id="draft" transform="matrix(1 0 0 -1 0 0)" stroke-width="1.074482389119885E-4">
   <g id="Poliline" color="rgb(0,0,0)" stroke="currentColor" fill="none" stroke-width="0.0001074482389119885">
    <path d="M 1.576917649052347 6.038728304723495 L 1.581021876984698 6.029610831605037 L 1.584836761220556 6.020366990970348 L 1.588769718960425 6.011173429640596 L 1.593216739023677 6.002219559881176 L 1.598629516673921 5.993821393988787 L 1.605494003759312 5.986580000796719 L 1.61406813116472 5.981526102393712 L 1.623556088788949 5.978380849363186 L 1.633271077409364 5.976018812289082 L 1.643126627182843 5.974336292997136 L 1.65308460307448 5.973454533919522 L 1.663073348120978 5.973717414474215 L 1.673031114618475 5.974642253421997 L 1.682993292499182 5.975511810365151 L 1.692949376989086 5.976447662860844 L 1.702888965159482 5.977545325398284 L 1.712795968330879 5.978905393829351 L 1.7226405854144 5.980658961490012 L 1.732359323527508 5.983006978654492 L 1.741806728166748 5.986270054417945 L 1.751163373347377 5.989798456021457 L 1.76063333047937 5.993008518642751 L 1.770272371619967 5.995662534337103 L 1.780090376677965 5.997554860845783 L 1.789986765604281 5.998987693814305 L 1.79992264526842 6.000117980651113 L 1.809872967822528 6.001113420467873 L 1.81981787045334 6.002160682359097 L 1.829731301571757 6.003469108195297 L 1.839565466044178 6.005273516522741 L 1.849231868198162 6.007822204891521 L 1.858656751016693 6.011157285331877 L 1.867830277923323 6.015133949747014 L 1.876767809363792 6.019617208881283 L 1.885503696500943 6.02448258209604 L 1.89408359401726 6.029618614094374 L 1.902558999036643 6.034925679143444 L 1.910997451175747 6.040291347389028 L 1.919570019241238 6.045440143226707 L 1.928063280942775 6.050717704478459 L 1.936211787607573 6.05650947647885 L 1.943615808953925 6.063216734383868 L 1.949446449597549 6.071302755178339 L 1.952153288997215 6.080853028923738 L 1.950673848801714 6.090673730682722 L 1.946284825179579 6.099642724185118 L 1.940850214101978 6.108034336547525 L 1.934976922180116 6.116127310357177 L 1.928921738404993 6.124085869532448 L 1.922893464799298 6.132064943362628 L 1.916686500576007 6.139905597995897 L 1.910208346304555 6.147522809974237 L 1.903447494012298 6.154890205496946 L 1.896376547157532 6.161960407216886 L 1.888948068565643 6.168653451871924 L 1.881086128473391 6.174829911713499 L 1.872672790110913 6.180225317381281 L 1.863545034467256 6.184268978526454 L 1.853694938042108 6.185586619287643 L 1.843952103090233 6.183476745395004 L 1.834702555904861 6.179682846438382 L 1.825360780162818 6.176131820329794 L 1.81555712037677 6.174269661749864 L 1.805585394041965 6.174653228178774 L 1.795914421678724 6.17711917290206 L 1.786799999602458 6.181217901547329 L 1.778015666557873 6.185995778707981 L 1.769164931443929 6.190647096546958 L 1.759861572423698 6.194282171766052 L 1.750000612433654 6.195721963699177 L 1.740137283411103 6.194265310230497 L 1.730851272952842 6.19059669258216 L 1.722263493572582 6.185487426213598 L 1.714275448197563 6.17947712765964 L 1.706749464683539 6.172894246173481 L 1.699563698730215 6.165940252052112 L 1.692618783765644 6.15874611359427 L 1.685831539472423 6.151401932784184 L 1.67913198646465 6.143977578882226 L 1.672456462869081 6.13653157315954 L 1.665743924919667 6.129119228042288 L 1.658931635610104 6.121798703891531 L 1.651951350087396 6.114639139301076 L 1.644669741786216 6.107786802746678 L 1.637043985596698 6.101319315035378 L 1.629113866502856 6.095228056663814 L 1.620929288054824 6.089483641901664 L 1.612544541393651 6.084035131723513 L 1.604016075002082 6.078814682125422 L 1.59539822720942 6.073742064812778 L 1.586743766678864 6.068732179683659 L 1.581722835051938 6.060576638787117 L 1.577439611788601 6.05154596843456 L 1.576117304224821 6.041751789238475  z" id="ID_4D3"/>
   </g>
   <g id="ID_0" color="rgb(0,0,0)" stroke="currentColor" fill="none" stroke-width="0.0001074482389119885"/>
  </g>
 </svg>