<?xml version="1.0" encoding="UTF-8" ?>
 <svg viewBox="0.9438020139112488 -2.346728129362904  0.5147811287067521 0.31614725003561217" xmlns="http://www.w3.org/2000/svg" version="1.0" overflow="visible">
  <defs>
   <g id="ID__#42_Model_Space"/>
   <g id="ID__#42_Paper_Space0"/>
   <g id="ID__#42_Paper_Space"/>
  </defs>
  <g id="draft" transform="matrix(1 0 0 -1 0 0)" stroke-width="1.074482389119885E-4">
   <g id="Layer_#32_1" color="rgb(255,0,255)" stroke="currentColor" fill="none" stroke-width="0.0001074482389119885"/>
   <g id="Poliline" color="rgb(0,0,0)" stroke="currentColor" fill="none" stroke-width="0.0001074482389119885">
    <path d="M 1.005917621931303 2.176728121288338 L 1.008038464294058 2.186496462991447 L 1.010940918642303 2.19606425435891 L 1.014243512487651 2.205502853874497 L 1.017557893532391 2.214937325851414 L 1.020488392281945 2.224496425774555 L 1.02263077644729 2.234259358415769 L 1.02538718943741 2.243024900151816 L 1.033407697197617 2.248925906675287 L 1.039294479372921 2.256968795211999 L 1.043056318979521 2.266214410541655 L 1.044917623783703 2.274728125943086 " id="ID_837"/>
    <path d="M 1.445917642830181 2.267728125610606 L 1.4362955744795 2.266791675179884 L 1.427251411095808 2.271015846312948 L 1.418275050115188 2.27540374772739 L 1.408501224617252 2.277113405878779 L 1.398744367669384 2.275045209910114 L 1.38882563998812 2.275811175490423 L 1.379333546305292 2.278932198807185 L 1.370008561798858 2.282541485869657 L 1.360438420560031 2.28541462264882 L 1.350530253833389 2.286632510445954 L 1.340584817701 2.285754094315333 L 1.330782568174284 2.283776900732553 L 1.320976192400562 2.281824331432153 L 1.311052903474034 2.280629157118964 L 1.301092088551357 2.281170444231211 L 1.291944099337622 2.284991137608239 L 1.28431935417513 2.291454430930933 L 1.276445659024855 2.297601430014728 L 1.267257976572634 2.301420778133486 L 1.257390073653819 2.302987792387423 L 1.247418035664314 2.303731765962369 L 1.237465649017417 2.304682385039189 L 1.227605496258819 2.306346813170589 L 1.217687971710263 2.30761332706859 L 1.207702590193489 2.308055358869522 L 1.1977267503353 2.307439820507196 L 1.187844593343996 2.305924295954728 L 1.177984463301097 2.304262488064487 L 1.168057529725711 2.303072662846538 L 1.158074741750853 2.30254708109018 L 1.148082262063304 2.302839357034374 L 1.138149928839344 2.303976934143504 L 1.12832774386308 2.305844179348083 L 1.118624309405118 2.30825761973362 L 1.11691762720352 2.308728127558001 " id="ID_838"/>
    <path d="M 1.445917642830181 2.267728125610606 L 1.442043316406859 2.274674347156246 L 1.435523942842956 2.282251248931844 L 1.428749092552303 2.289606373039768 L 1.422509838760999 2.297419090400586 L 1.416455787163575 2.305378499805822 L 1.410072390385642 2.313073051510345 L 1.402789436197564 2.319904803885846 L 1.394369165717185 2.325283486472399 L 1.38549270153423 2.329887230076822 L 1.376647932107109 2.334550387149917 L 1.368310555701425 2.340056199382548 L 1.360917638792898 2.346728129362904 L 1.356002238422204 2.344173720648086 L 1.346772926389815 2.340337860778193 L 1.337256923971304 2.337267124669924 L 1.327812175405063 2.333990878786064 L 1.318742066473525 2.329788113345202 L 1.309940012415734 2.325042892652202 L 1.301034701569739 2.320500060612451 L 1.291591078301261 2.317257093926741 L 1.28168057692759 2.316121589289675 L 1.27177110177909 2.317316145102299 L 1.262174340370073 2.320107920299866 L 1.252790302110688 2.32356204403514 L 1.243429870070228 2.32708153045522 L 1.234040217997248 2.330523942785333 L 1.22460093787158 2.333826748219498 L 1.215092798055083 2.336924577177667 L 1.20549424283743 2.339728125064102 L 1.195778816593863 2.342091369465267 L 1.185917630480844 2.343728129220412 L 1.184390487213053 2.342527667040233 L 1.175345826389055 2.338313580779143 L 1.165486117240821 2.338377438866357 L 1.155495650007274 2.338818885833884 L 1.145501877156138 2.339163507635589 L 1.13550426290067 2.339365659027125 L 1.125504321246409 2.339375655478646 L 1.115507420860058 2.339140005115323 L 1.105522361974564 2.338602076843997 L 1.095563561029339 2.337703399086738 L 1.085621679231507 2.336629966704025 L 1.075684366028554 2.335515626836526 L 1.065837652755914 2.333792688367337 L 1.056285963448974 2.330865617788697 L 1.047400293741774 2.326312454679728 L 1.038863445157441 2.321106634344385 L 1.030160899989213 2.316182426946248 L 1.021579113956985 2.311054365678575 L 1.013527766687985 2.305135270825587 L 1.006261803345025 2.298273941895203 L 0.9997315257636056 2.290705200971748 L 0.9937610296177767 2.282685090546738 L 0.9879934119076931 2.274515972539493 L 0.9822074316257012 2.266359773955096 L 0.9764466608651245 2.258185627449098 L 0.9707608230246824 2.249959309788559 L 0.9652098545181776 2.24164157445146 L 0.959870594077465 2.233186733415362 L 0.9548472332419377 2.224540878072891 L 0.9502892598234745 2.215641889473936 L 0.9464211764208929 2.20642400570003 L 0.9487641348023725 2.196869199038768 L 0.9491984117720254 2.186911111311623 L 0.9473877112249757 2.177086424544844 L 0.9452724604392797 2.167315624128423 L 0.9439585186083441 2.157404918177425 L 0.9438020139112488 2.147415295664472 L 0.9453397671093233 2.137548138581587 L 0.9484325958317407 2.128044240744648 L 0.9511825970834095 2.118432236776312 L 0.9535086894655329 2.108706624926384 L 0.9558777543024827 2.098991706269572 L 0.9587641403300564 2.089420177176194 L 0.9627374341842909 2.080254160277503 L 0.9684682456242308 2.072094629233122 L 0.9765624564547827 2.066278557858058 L 0.9845190780223562 2.060292160110927 L 0.991329783233386 2.052973433709508 L 0.9975760205311593 2.045166169303259 L 1.00291762178881 2.036728114638695 L 1.009189486916739 2.0349018638334 L 1.017552220072673 2.034613802884724 L 1.027068493223424 2.037782543596097 L 1.041198802980147 2.038070604544788 L 1.061384889276439 2.035189924782077 L 1.07955234226847 2.030580879327292 L 1.086917625778596 2.030728114353708 L 1.090619831493869 2.031855266791588 L 1.100405993690319 2.033888827090784 L 1.110329380856577 2.035110473009625 L 1.120301693818629 2.035850356631993 L 1.130291651051588 2.036298465258898 L 1.140288027689739 2.036579544059327 L 1.150286313248205 2.036786058169214 L 1.160285152594374 2.036995245226593 L 1.170281210525795 2.03727963547732 L 1.180271879465647 2.037715619998706 L 1.190248595492538 2.038392386669691 L 1.200191342351829 2.039449846680822 L 1.210058004609217 2.041071345442816 L 1.219909617484826 2.042787823289788 L 1.229853612187535 2.043711947661869 L 1.239843778315623 2.043289353180254 L 1.249829689696206 2.043610368539175 L 1.259430204991987 2.046202706703464 L 1.267801052983047 2.051661005372576 L 1.276403024453586 2.056736827161223 L 1.286013342260268 2.059300716158741 L 1.295776756126859 2.061403150548523 L 1.305175834313259 2.06480465456698 L 1.314292747491188 2.068911542408621 L 1.323334305549258 2.073184276941091 L 1.332572856310185 2.077002817706961 L 1.341995872057393 2.080348892842028 L 1.351325906378767 2.083942718339349 L 1.360362764597287 2.088213987025842 L 1.368839465271665 2.093506543038355 L 1.376659303137115 2.099732661171973 L 1.384031998358011 2.106487874706145 L 1.391538643557901 2.113093946969733 L 1.399179568049943 2.119544725375636 L 1.406826767318082 2.125988124779377 L 1.414312295913812 2.132617783125086 L 1.421415888526896 2.139653047455444 L 1.427865481136975 2.147289149116501 L 1.433381017164141 2.155622491967852 L 1.437843551417052 2.164567498395769 L 1.442016647337482 2.173655337934992 L 1.446011431996542 2.182825109163893 L 1.44970684925036 2.192114116874419 L 1.4529835551688 2.201560796581194 L 1.455693747114874 2.211184419268441 L 1.457645844489849 2.220988508857404 L 1.458583142618001 2.230938560118641 L 1.458173280625476 2.240920172169969 L 1.456046093623942 2.25067523948088 L 1.451940814970353 2.259771158294682  z" id="ID_839"/>
    <path d="M 1.063630035888792 2.305253705242666 L 1.08624003665335 2.29718729592054 L 1.107638882109966 2.293154091259484 L 1.122173856164323 2.296380669043518 L 1.139131387581045 2.29718729592054 L 1.156896396994142 2.291944080668034 L 1.169816415055748 2.289927513475465 L 1.194445172497836 2.284280984784434 L 1.208576469240654 2.282264347315948 L 1.21947773062476 2.283877671345923 " id="ID_83A"/>
    <path d="M 1.051921296508339 2.289120816322526 L 1.065245115254782 2.290330826913976 L 1.0846250806606 2.284684298222945 L 1.10037133339614 2.2810544070004 L 1.108042559421505 2.2810544070004 L 1.116521386816515 2.281861033877436 L 1.12621136951941 2.277021132063442 L 1.135901352222333 2.272584613963861 L 1.14882137028394 2.272584613963861 L 1.16416394570794 2.271374673648313 " id="ID_83B"/>
   </g>
   <g id="ID_0" color="rgb(0,0,0)" stroke="currentColor" fill="none" stroke-width="0.0001074482389119885"/>
  </g>
 </svg>