<?xml version="1.0" encoding="UTF-8" ?>
 <svg viewBox="1.049520710218785 -8.747386602054728  0.5883969417309072 0.4728527698907108" xmlns="http://www.w3.org/2000/svg" version="1.0" overflow="visible">
  <defs>
   <g id="ID__#42_Model_Space"/>
   <g id="ID__#42_Paper_Space0"/>
   <g id="ID__#42_Paper_Space"/>
  </defs>
  <g id="draft" transform="matrix(1 0 0 -1 0 0)" stroke-width="5.039721436807565E-5">
   <g id="Poliline" color="rgb(0,0,0)" stroke="currentColor" fill="none" stroke-width="0.00005039721436807565">
    <path d="M 1.637917651949692 8.432728418432394 L 1.637587899792897 8.422809304546824 L 1.635635290561106 8.413002051323584 L 1.634101263359205 8.40312335048905 L 1.633102906035642 8.393175827739078 L 1.631912215200183 8.383248040519 L 1.629923392751062 8.373452555667342 L 1.626755124218469 8.36397714903261 L 1.622038040575796 8.35517759800191 L 1.615602824806133 8.347549415458248 L 1.607725175447764 8.34141480307212 L 1.598938739332322 8.336656488941623 L 1.589674055042373 8.332901355965607 L 1.580167083641319 8.329805000511543 L 1.570500296836272 8.32724888544016 L 1.560735003653583 8.325094814573639 L 1.550911476290104 8.323223053797761 L 1.541053508727432 8.321541692543539 L 1.531176495823318 8.319976137502756 L 1.521291521544988 8.31846197951267 L 1.511407848006341 8.316939832573375 L 1.501534748188829 8.315351139278487 L 1.491683259467604 8.313634223722492 L 1.481868480863659 8.311719993868365 L 1.472112393986919 8.309526484338612 L 1.462450378767141 8.306951841886121 L 1.452940668663964 8.303864246366462 L 1.451825846235806 8.303455951354781 L 1.441907229681842 8.302299629832962 L 1.432228367150271 8.299799334753956 L 1.422656707818494 8.296904599320355 L 1.412955638996495 8.294494462162591 L 1.407917641025278 8.293728411830246 L 1.399971648786643 8.28771330926535 L 1.390906038500027 8.283517362435312 L 1.381378787246206 8.280492496046207 L 1.371628783861068 8.278279161347047 L 1.361759219266955 8.276674940392542 L 1.351821741670653 8.275559693832886 L 1.341845921379482 8.274860319797728 L 1.331850519671157 8.274533832164018 L 1.321851757339716 8.274559656380223 L 1.311858561596457 8.274937659190227 L 1.301887151054775 8.275691628785498 L 1.291959203208056 8.276881904732411 L 1.282111067750541 8.2786104412062 L 1.272330097201775 8.280691724913218 L 1.262545843879243 8.282757320770536 L 1.25269733626798 8.284485563008143 L 1.242757878190577 8.285558321225903 L 1.232762326895636 8.285728038646301 L 1.222775116824156 8.285243346057658 L 1.212808293091857 8.284431275746705 L 1.202840047223102 8.28363787425463 L 1.192849803356867 8.283230966326284 L 1.182859586267126 8.283583004887513 L 1.172936167456934 8.284804548497029 L 1.163096230418503 8.286579671994556 L 1.153355861615581 8.288839571711026 L 1.143724981865644 8.291528796102735 L 1.134208131988332 8.29459778681538 L 1.124805796318864 8.298001952825683 L 1.115506266319061 8.301678150696944 L 1.106232301999797 8.30541866006911 L 1.097123112410974 8.309539293836462 L 1.088554433014445 8.314673038338626 L 1.081317711350762 8.321531545304744 L 1.075757760617069 8.32982898798376 L 1.071421209825717 8.338833053019894 L 1.068199395254706 8.34829318407337 L 1.066917624828647 8.354728414727592 L 1.062677923281427 8.372165290736167 L 1.058483535156952 8.387782565316119 L 1.055051721116271 8.403018874196423 L 1.052917624163683 8.412728417482445 L 1.051917624116185 8.421728417909922 L 1.05200119411748 8.430444328567265 L 1.050917624068688 8.436728418622383 L 1.049818102216092 8.44666444406208 L 1.049520710218785 8.456657861916113 L 1.049842287009063 8.466651488972254 L 1.050591493954611 8.476622850805708 L 1.051580297582666 8.486573690727184 L 1.052625810801002 8.496518833456342 L 1.053546989080786 8.506476070535232 L 1.054160218551505 8.516456779854783 L 1.054277405544365 8.526454573786065 L 1.053710926363152 8.536435862495784 L 1.050945524974602 8.565443855155136 L 1.054122441628435 8.573544666132705 L 1.05526759180636 8.583478593620882 L 1.056682275857443 8.593377722395603 L 1.05837726811271 8.603232705887358 L 1.060364288404742 8.613032936454989 L 1.062656022573408 8.622766320334954 L 1.065266075545156 8.632418869421006 L 1.068209267833247 8.641975523311581 L 1.071500859104681 8.651417434148712 L 1.075157193749507 8.660724273244988 L 1.079194876734917 8.669872034769536 L 1.083630819808863 8.678833755010617 L 1.088480881741146 8.687577531456855 L 1.093760409535917 8.69606880200432 L 1.099482350900708 8.704268359340041 L 1.105656326428976 8.71213307947282 L 1.112287166436989 8.719616391938679 L 1.119373663255696 8.726669603919383 L 1.126946303713074 8.733194983428671 L 1.135276555650156 8.738711187885354 L 1.144352440799819 8.742882668924253 L 1.153966400260886 8.745598596812872 L 1.163861426770504 8.746999992883884 L 1.173850787301094 8.747386602054728 L 1.183844607504827 8.747073812061167 L 1.193815954724642 8.746319633182914 L 1.203774205893962 8.745409275564457 L 1.213752340573076 8.74475031387702 L 1.223739570918118 8.744246411821123 L 1.233728366384509 8.743771629873788 L 1.243712081601681 8.743202403723451 L 1.253679271534235 8.742398116800588 L 1.263615708668401 8.741273472911216 L 1.273548866260398 8.740117570799672 L 1.283480602175897 8.738952836865188 L 1.293409389153151 8.737759655925826 L 1.303332538936927 8.73652000512337 L 1.313247655173796 8.73521652232332 L 1.323151538546606 8.733832027203636 L 1.333039978602371 8.732349026239369 L 1.342911539077092 8.73074858174907 L 1.352759706703106 8.729010954955125 L 1.362578437232185 8.727114171497218 L 1.372359451969085 8.725033752207153 L 1.382093031047761 8.722741679382695 L 1.391765868815959 8.720205750760806 L 1.401360320772285 8.717388410817358 L 1.410875046158678 8.714311320891317 L 1.420403225732244 8.71127654511374 L 1.429943106189364 8.708278032970934 L 1.439474765169627 8.705254014100989 L 1.448978246361456 8.702142410935618 L 1.458432505801068 8.69888450299959 L 1.467815223305485 8.695428244127838 L 1.477105199409724 8.69173022616022 L 1.486314342041164 8.68783434841795 L 1.495483946744017 8.683845828632604 L 1.504665793614734 8.679885391934999 L 1.513942352260729 8.676153252788772 L 1.523388350299978 8.67287575190673 L 1.533019206178312 8.670190038815043 L 1.542794467264865 8.668088463208298 L 1.550917647817414 8.666728429546797 " id="ID_314"/>
    <path d="M 1.122480823627682 8.345169222165882 L 1.130917627868484 8.332728413682648 L 1.138596955133502 8.326330175960292 L 1.146895587028196 8.320758377145722 L 1.155714539060835 8.316052828062173 L 1.164952880379084 8.312235301566913 L 1.174512745426238 8.30931340248154 L 1.176917630053367 8.30872841254271 L 1.18734056355008 8.307424031744834 L 1.211737282971256 8.303560402850824 L 1.233158787080981 8.299102310047363 L 1.253985294261156 8.299102310047363 L 1.278084572883471 8.298210649321124 L 1.296233420882884 8.302965938941359 L 1.314977265811847 8.302965938941359 L 1.330150783167979 8.302965938941359 L 1.348917638222928 8.299728412115233 L 1.358191574484677 8.298558843329335 L 1.368157497059883 8.297737885339117 L 1.378137628979184 8.297107135639356 L 1.388113523915348 8.29641540348123 L 1.398060310414086 8.295394180415117 L 1.407917641025278 8.293728411830246 " id="ID_315"/>
   </g>
   <g id="ID_0" color="rgb(0,0,0)" stroke="currentColor" fill="none" stroke-width="0.00005039721436807565"/>
  </g>
 </svg>