<?xml version="1.0" encoding="UTF-8" ?>
 <svg viewBox="-0.2768785463434318 -9.073228448854511  0.5414006571899002 0.4015763073601075" xmlns="http://www.w3.org/2000/svg" version="1.0" overflow="visible">
  <defs>
   <g id="ID__#42_Model_Space"/>
   <g id="ID__#42_Paper_Space0"/>
   <g id="ID__#42_Paper_Space"/>
  </defs>
  <g id="draft" transform="matrix(1 0 0 -1 0 0)" stroke-width="5.039721436807565E-5">
   <g id="Poliline" color="rgb(0,0,0)" stroke="currentColor" fill="none" stroke-width="0.00005039721436807565">
    <path d="M 0.1702496134892044 8.782728435056502 L 0.1785204864493455 8.787904121354165 L 0.1873495969107548 8.792597781880179 L 0.1959629068148123 8.797676438911012 L 0.2043326092510647 8.803147265335696 L 0.2124319395308225 8.809010768149596 L 0.2202374887206338 8.815260056977255 L 0.2277312564157174 8.821880493952783 L 0.234901927796102 8.82884946696861 L 0.2418685992454321 8.836022690520315 L 0.2485962882258281 8.843419588861673 L 0.2547532512825734 8.851294710343044 L 0.2599280670975297 8.859841481590125 L 0.2634795460522108 8.869168721661628 L 0.2645221108464684 8.879077609609444 L 0.2624346665834345 8.888812511257324 L 0.2582966786193994 8.897910483679166 L 0.2536235394682942 8.906751703266272 L 0.2490851446978208 8.915661839432943 L 0.2454158860710329 8.924957219171274 L 0.2420738589959335 8.93438208257684 L 0.2385210756829919 8.943729046029983 L 0.2345915278767485 8.952923214949926 L 0.23015516947458 8.961883356397133 L 0.2251453349932673 8.9705356861398 L 0.2195671823405005 8.978833256404428 L 0.213737766710631 8.986958276082367 L 0.2079486318796402 8.995111908515021 L 0.202364010790177 9.003406586837215 L 0.1971589857438287 9.011944602947729 L 0.1925269742742266 9.020804628921224 L 0.1886734407548403 9.030028000190786 L 0.1843115734997216 9.038988633380894 L 0.1783094689499727 9.046960888312942 L 0.1697838472851298 9.052122022543099 L 0.1613519794025162 9.057448214000402 L 0.1562237289330728 9.065831378781075 L 0.1559175815584695 9.067728448593275 L 0.1470274208426581 9.072214927290142 L 0.1434175809647513 9.073228448854511 L 0.1397797994122865 9.071563945417237 L 0.1298362815994247 9.071050046805928 L 0.1198524802478973 9.071553235244643 L 0.1100431266718749 9.069754760340034 L 0.1005618286907941 9.06658708918128 L 0.0913364780880297 9.062730829318056 L 0.0822716394249463 9.058509568066372 L 0.0732633541172243 9.0541670968921 L 0.0642127500783296 9.049914539081536 L 0.0550268996723506 9.045964505044317 L 0.0456294192342002 9.042551644575356 L 0.0360596423769053 9.039651683936459 L 0.0264435364356928 9.036908500858239 L 0.0169070528165651 9.033902895962605 L 0.0075652644112694 9.030337927653804 L -0.0018363896374893 9.026934552804622 L -0.0113242932351589 9.023777283092748 L -0.020737531619031 9.020404143285983 L -0.0299149148627365 9.01643925299028 L -0.0388514973731447 9.011953054303634 L -0.0475699944223518 9.007057419966412 L -0.0561247763078878 9.001880319577795 L -0.0645848166038752 8.99654866130053 L -0.0730186409129861 8.991175651778606 L -0.0814855331728994 8.985853471853884 L -0.0900258548486921 8.98065494108534 L -0.0987818275226253 8.975828985536094 L -0.1078218601946377 8.971556530780182 L -0.1170384637845281 8.967675898799833 L -0.1263499995353952 8.964028948258823 L -0.1356909893692784 8.960462254465787 L -0.1450058119761284 8.956821369595563 L -0.1542253162159124 8.95295011338212 L -0.163332329737182 8.948820273712501 L -0.1724619520794617 8.944740439189705 L -0.1816020827861067 8.940684047634287 L -0.1907256080196893 8.93659039492535 L -0.1998041336142204 8.932397944339042 L -0.2088099148958173 8.92805153897297 L -0.2177180653996018 8.923508269385607 L -0.2265080033318796 8.918740753901796 L -0.2351654324394365 8.91373657375727 L -0.2436819363392439 8.908496079212325 L -0.2521214857097673 8.903132037019127 L -0.2600655028686907 8.89708718000615 L -0.2658897131042615 8.88901230526813 L -0.2697356760007992 8.879791068076027 L -0.2724733532505468 8.870177418696095 L -0.2744107809431728 8.86036873620115 L -0.2759105095788676 8.850482268556561 L -0.2768785463434318 8.840535956562302 L -0.2766916362883416 8.830541320701247 L -0.2757575800034573 8.820586511131497 L -0.2743270888558156 8.81069035993426 L -0.2725549983258739 8.800848193611884 L -0.2705691620890658 8.791047297793217 L -0.2682596228385954 8.78132139446771 L -0.2650807103661217 8.771840783463773 L -0.2613777152995196 8.762552527615249 L -0.2573433751770269 8.753402301866803 L -0.2530820364751936 8.744355735455734 L -0.2486591626925172 8.735386930419256 L -0.2441230939474179 8.72647505211123 L -0.2395172254103448 8.717598824092194 L -0.2348099485134689 8.7087777235148 L -0.229673806983647 8.700199984492848 L -0.2238624674848806 8.692067985094154 L -0.2171011776993463 8.684713787512237 L -0.2091770032709128 8.67864275907841 L -0.2001519212209706 8.674386615351072 L -0.1904246107596865 8.672141793439222 L -0.1804467599061761 8.671652141494404 L -0.1704867623254946 8.672485201220951 L -0.160649726558022 8.674265228142547 L -0.1509304231969422 8.676612876651445 L -0.141232393640343 8.67905529551976 L -0.1315532064652247 8.681565758939634 L -0.1218909397690258 8.684145923557338 L -0.1122484930675434 8.686789197928938 L -0.1026204998388938 8.689485490823794 L -0.0930039906822398 8.692221464111842 L -0.083394086608565 8.694984814816479 L -0.0737814386837208 8.69776686149373 L -0.064180809442127 8.700554731009495 L -0.054582428439744 8.701728431209208 " id="ID_2FB"/>
   </g>
   <g id="ID_0" color="rgb(0,0,0)" stroke="currentColor" fill="none" stroke-width="0.00005039721436807565"/>
  </g>
 </svg>