<?xml version="1.0" encoding="UTF-8" ?>
 <svg viewBox="0.1221076511662993 -2.640249759398196  0.3301698664475552 0.3190909708926082" xmlns="http://www.w3.org/2000/svg" version="1.0" overflow="visible">
  <defs>
   <g id="ID__#42_Model_Space"/>
   <g id="ID__#42_Paper_Space0"/>
   <g id="ID__#42_Paper_Space"/>
  </defs>
  <g id="draft" transform="matrix(1 0 0 -1 0 0)" stroke-width="1.074482389119885E-4">
   <g id="Layer_#32_1" color="rgb(255,0,255)" stroke="currentColor" fill="none" stroke-width="0.0001074482389119885"/>
   <g id="Poliline" color="rgb(0,0,0)" stroke="currentColor" fill="none" stroke-width="0.0001074482389119885">
    <path d="M 0.2929175880656194 2.632728142947176 L 0.2985151228395413 2.632974856261952 L 0.3084486420913324 2.634103230829856 L 0.3182981625881576 2.635826783280565 L 0.328114743319655 2.63773350624538 L 0.3379797567881875 2.639363481712715 L 0.3479363081073998 2.640249759398196 L 0.3579258818568158 2.639996739786536 L 0.3677860986641139 2.638385459339589 L 0.3772831341869427 2.635289569639667 L 0.3861210416827978 2.630637919451753 L 0.3940195051547874 2.624525247189669 L 0.4008051868016258 2.617194235577729 L 0.4064440953030104 2.608945461471089 L 0.4110045300136243 2.600052391729041 L 0.414599719387665 2.590725424748239 L 0.4173469430084884 2.581113182200271 L 0.4195624069552411 2.571361928301579 L 0.4220122097389467 2.561666956877417 L 0.424677925622266 2.552028931117954 L 0.4274702406177964 2.542426698015933 L 0.4302978248962824 2.532834755261056 L 0.4330658406226507 2.523225590863107 L 0.4356741287731625 2.513571949102583 L 0.4380153160449094 2.503850354638052 L 0.439973201572423 2.494044785249213 L 0.4409932119047229 2.484102904567944 L 0.441228254796882 2.474106359505652 L 0.4414283001391972 2.46410878726707 L 0.4423635478467292 2.454158493907117 L 0.4446546383635193 2.444430699985273 L 0.447615971284197 2.43487948993849 L 0.4503432745957428 2.425260806008459 L 0.4520070539918866 2.415409303280126 L 0.4522775176138545 2.405420165829799 L 0.4512134636638905 2.395484721971552 L 0.4488038050876631 2.385787568010963 L 0.4450809836702172 2.376515044912222 L 0.4401068289694745 2.367849343332879 L 0.4340006571213735 2.359938105596615 L 0.4270047865355196 2.352802681097234 L 0.4191184395823893 2.346669866811197 L 0.4104536137536199 2.341693102673332 L 0.4012384835746606 2.337822905597356 L 0.3916945986887859 2.334846333591704 L 0.3819728997807576 2.332508760228018 L 0.3721588263054452 2.330591909715396 L 0.362299307050808 2.328922226899987 L 0.3524318543356193 2.327299811551734 L 0.3425568413165072 2.3257258118359 L 0.3326655354500279 2.324259377344798 L 0.3227480494848116 2.322973347667165 L 0.3128008536593354 2.321956529632814 L 0.3028239912653419 2.321312866914565 L 0.2928252433175142 2.321158788505588 L 0.2828381908903861 2.321614877196429 L 0.272911808324336 2.322789743151924 L 0.2631089187050684 2.324761698739148 L 0.2535125854841667 2.327558110828435 L 0.2441858969463322 2.331155215735005 L 0.2351737381911176 2.335485918056557 L 0.2265001160828159 2.340456134604909 L 0.2179276521823477 2.345602939875959 L 0.2091501067466224 2.350393247752132 L 0.200284964516265 2.355020313097858 L 0.1914516982199883 2.359707619745273 L 0.182805151090994 2.364728390753695 L 0.1747003214697589 2.370571944602652 L 0.1678065965343878 2.377787553063388 L 0.1624910825767793 2.386245205139502 L 0.1579751735007591 2.39516511275924 L 0.1534707976431475 2.404092196152577 L 0.1486309877905931 2.412842134981055 L 0.1435453181866588 2.421452079903694 L 0.138572637123767 2.43012657652485 L 0.1343866954424486 2.439198627775896 L 0.1316319054185895 2.44879888422891 L 0.1303430762386935 2.45870781785519 L 0.1301100970169537 2.468702412625823 L 0.1302960062067688 2.478700556493096 L 0.1302151593841945 2.488698780039225 L 0.129385208422458 2.498661154923954 L 0.1279252420193089 2.508553331473342 L 0.1261934377942078 2.518402546508815 L 0.1244265635237847 2.528245399711995 L 0.1228885869396343 2.538126278166256 L 0.1221076511662993 2.548089357496367 L 0.1234792615826308 2.557966871469556 L 0.1267254295505973 2.567414703364374 L 0.1312179863701077 2.576342833314333 L 0.1366245760657758 2.584751422302224 L 0.1427516774183415 2.592651246730129 L 0.149507973046334 2.600019823001515 L 0.1569175816059669 2.606728141712242 L 0.1668320059431672 2.608032681571502 L 0.1767244256027665 2.609494907137209 L 0.1865949895123062 2.611098133114044 L 0.1964446436773075 2.612825250619618 L 0.2062750433987439 2.614658842144635 L 0.2160884623239632 2.616581277700735 L 0.2258876929746965 2.618574791869699 L 0.2356759426942201 2.620621543882766 L 0.2454568630111176 2.622703692542247 L 0.2552339408388411 2.624803323821828 L 0.2650110865040816 2.626902626214405 L 0.2747920962171086 2.62898382275106 L 0.2845806464773828 2.631029215321129  z" id="ID_804"/>
   </g>
   <g id="ID_0" color="rgb(0,0,0)" stroke="currentColor" fill="none" stroke-width="0.0001074482389119885"/>
  </g>
 </svg>