<?xml version="1.0" encoding="UTF-8" ?>
 <svg viewBox="0.1424475144325985 -6.414171462026982  0.23039036236976956 0.20088037889353139" xmlns="http://www.w3.org/2000/svg" version="1.0" overflow="visible">
  <defs>
   <g id="ID__#42_Model_Space"/>
   <g id="ID__#42_Paper_Space0"/>
   <g id="ID__#42_Paper_Space"/>
  </defs>
  <g id="draft" transform="matrix(1 0 0 -1 0 0)" stroke-width="1.074482389119885E-4">
   <g id="Poliline" color="rgb(0,0,0)" stroke="currentColor" fill="none" stroke-width="0.0001074482389119885">
    <path d="M 0.1449175810359975 6.294728316882842 L 0.1487511917306463 6.285517151752864 L 0.1508984482352913 6.275755452273027 L 0.1530717892730671 6.266001660098848 L 0.1575860812938608 6.257134724106784 L 0.164259589252481 6.249704927226219 L 0.1718864079817211 6.243244142690569 L 0.1800666076190778 6.237495001380848 L 0.1886348718735231 6.232339802258315 L 0.1975076340860191 6.227728845267234 L 0.2066375981072896 6.223653152873792 L 0.2159965597675777 6.220134599180582 L 0.2255597495479824 6.217226989612071 L 0.2353128523714343 6.215016513500373 L 0.2452138811048758 6.213639523773127 L 0.2552025986488831 6.21329108313345 L 0.265147805983859 6.214246853281406 L 0.2748363614184237 6.216692222366181 L 0.284180571592489 6.220241150973863 L 0.2928950380709914 6.22509786372379 L 0.3006253280960935 6.231437279749949 L 0.3084459758562597 6.237662398191382 L 0.3173228803899608 6.242217661200073 L 0.3259520190238652 6.247212504563729 L 0.3334537492485454 6.253820090893275 L 0.3414958306704721 6.259718619852664 L 0.3504331204652162 6.264199223836857 L 0.3584316748809266 6.270080774793822 L 0.3637065890644342 6.278539973360391 L 0.3676915835388383 6.28770818040525 L 0.370834991767512 6.297195349452718 L 0.3727105719192316 6.307007717431187 L 0.3728378768023681 6.316990760392761 L 0.3709135728477655 6.326784281377923 L 0.3670472785657264 6.335989560268858 L 0.3666393072780805 6.34572507366449 L 0.3654786519491715 6.355641860373251 L 0.3625540256686897 6.365191774945123 L 0.3581477456856525 6.374158542599401 L 0.3525156321097187 6.382412436003461 L 0.3458607190425251 6.389866718330138 L 0.338336111920567 6.396443227966948 L 0.3300615723515596 6.40204677755657 L 0.3211409302401025 6.406550198351422 L 0.3116871959717571 6.409782246043215 L 0.3018508685943013 6.411527389129592 L 0.291865826742236 6.411547763882655 L 0.2820644638051597 6.409653589478936 L 0.2724985782090448 6.408634822320801 L 0.2627072051069001 6.410667336615137 L 0.2528651714059924 6.412433647924539 L 0.2429457677180284 6.413688748473624 L 0.2329599662365203 6.414171462026982 L 0.2229862150625035 6.413545524651897 L 0.2132392091447608 6.411371559534141 L 0.2041851494838021 6.407183494142326 L 0.1958590333950294 6.401644589491257 L 0.1875622171275228 6.396061932848795 L 0.1793426503353626 6.390366674211772 L 0.1712583996839436 6.384481074263964 L 0.1634187465433827 6.378274899448672 L 0.1561570992258048 6.371411324305864 L 0.150748425581348 6.363035603115299 L 0.1470088773128015 6.353771278280664 L 0.1445200812347913 6.344091625098766 L 0.1430511366653668 6.334203792765921 L 0.1424475144325985 6.324224790070807 L 0.142607597249075 6.31422820560592 L 0.1434657504022248 6.304266986905115  z" id="ID_4B3"/>
   </g>
   <g id="ID_0" color="rgb(0,0,0)" stroke="currentColor" fill="none" stroke-width="0.0001074482389119885"/>
  </g>
 </svg>