<?xml version="1.0" encoding="UTF-8" ?>
 <svg viewBox="-0.1630824335932175 -8.793857442229257  0.4484939562806263 0.3051290211370077" xmlns="http://www.w3.org/2000/svg" version="1.0" overflow="visible">
  <defs>
   <g id="ID__#42_Model_Space"/>
   <g id="ID__#42_Paper_Space0"/>
   <g id="ID__#42_Paper_Space"/>
  </defs>
  <g id="draft" transform="matrix(1 0 0 -1 0 0)" stroke-width="1.074482389119885E-4">
   <g id="Poliline" color="rgb(0,0,0)" stroke="currentColor" fill="none" stroke-width="0.0001074482389119885">
    <path d="M 0.2109175841708293 8.51272842223219 L 0.2157331193523424 8.521492579419636 L 0.2205853853985937 8.530236456249604 L 0.2254690170871845 8.538962855258593 L 0.2303786757548751 8.547674639004567 L 0.2353090461088101 8.556374721416313 L 0.2402548279767203 8.565066051624385 L 0.2452107346427947 8.5737516105449 L 0.2501714894020832 8.58243440505758 L 0.2551318135288616 8.591117447749088 L 0.2600864219772081 8.59980375046397 L 0.265030021753188 8.60849632249106 L 0.2699573020930197 8.617198154110135 L 0.2739175871631687 8.624228427528156 L 0.2772295398736926 8.633664122956034 L 0.2804422548822218 8.64313385504072 L 0.2833159895936248 8.652711249055514 L 0.2853950255844202 8.662486701259509 L 0.2854115226874088 8.672456674670553 L 0.2829680370722602 8.682131134253696 L 0.2786464814408323 8.691135227523333 L 0.2730625725297777 8.699423459444219 L 0.2666634636180891 8.70710395967144 L 0.2597366171360607 8.714314537193864 L 0.2524669686964396 8.721180385099682 L 0.2449793363878001 8.727808373732419 L 0.237255088479948 8.734156919704809 L 0.2291818451730458 8.740056573383773 L 0.2208862833314074 8.745640366421346 L 0.2124756251581683 8.751049744596482 L 0.2040431416920549 8.756425078735521 L 0.1956817529335852 8.761909910155557 L 0.1874985912736484 8.767656382446859 L 0.1796330205528704 8.77382868406901 L 0.1722785303267571 8.780599149844118 L 0.1702496134892044 8.782728435056502 L 0.160557628036992 8.785186524431731 L 0.150753914070453 8.78715291786552 L 0.1408722782338101 8.78868256393456 L 0.1309414535640059 8.789852387947956 L 0.120981936814073 8.790747229390504 L 0.1110068182772945 8.791447947745487 L 0.1010237578272113 8.792024493424027 L 0.0910370802798184 8.792533460479323 L 0.0810492572201067 8.793018508502147 L 0.0710614682215871 8.793512151760408 L 0.0610679121134901 8.793857442229257 L 0.0510684818210265 8.793852025748375 L 0.0410764613970454 8.793469596414774 L 0.0311080724635655 8.792684829096617 L 0.0211823871848882 8.791475116679333 L 0.0113149122907235 8.789854797441581 L 0.0014575467996032 8.78817356172899 L -0.0081710750908979 8.785539139342184 L -0.0158560968799328 8.779232928612094 L -0.0223561871211953 8.771640608616558 L -0.0281187833224204 8.7634704887142 L -0.0333046516238085 8.754921405490553 L -0.0380072120989077 8.746097040096087 L -0.0422792057304706 8.737056062790153 L -0.0461447527648407 8.727833993447696 L -0.0496045309144835 8.718452169569131 L -0.0526347101337077 8.708923125523025 L -0.054582428439744 8.701728431209208 L -0.0552504061746761 8.69176186815882 L -0.0571942102400005 8.681956844294938 L -0.059938373533349 8.672342654721083 L -0.0632196452677896 8.662897148238995 L -0.0668786738494571 8.653590863354871 L -0.0708101830880876 8.644395962333398 L -0.0749383975792846 8.635287341444474 L -0.0792035554456279 8.626241550791798 L -0.0835527999558208 8.61723564416073 L -0.0879323638788785 8.608244983040287 L -0.0922779426291438 8.599238566047337 L -0.0964951589321777 8.590171354602504 L -0.1005525824853084 8.581031659233503 L -0.1048105194628626 8.571983614570861 L -0.1092504876535525 8.563023340772176 L -0.1138163982560636 8.554126465833267 L -0.1184490488544112 8.545264065000852 L -0.1230627496207175 8.536391770369962 L -0.1274554564309138 8.527408852739528 L -0.1319894334580649 8.51850206673694 L -0.1370824323582838 8.51272842223219 L -0.1547944773605447 8.49432024816819 L -0.1630824335932175 8.48872842109225 " id="ID_343"/>
   </g>
   <g id="ID_0" color="rgb(0,0,0)" stroke="currentColor" fill="none" stroke-width="0.0001074482389119885"/>
  </g>
 </svg>