<?xml version="1.0" encoding="UTF-8" ?>
 <svg viewBox="-0.2212078285959036 -9.96171599569529  0.2456108600758533 0.3212296439074791" xmlns="http://www.w3.org/2000/svg" version="1.0" overflow="visible">
  <defs>
   <g id="ID__#42_Model_Space"/>
   <g id="ID__#42_Paper_Space0"/>
   <g id="ID__#42_Paper_Space"/>
  </defs>
  <g id="draft" transform="matrix(1 0 0 -1 0 0)" stroke-width="5.039721436807565E-5">
   <g id="Poliline" color="rgb(0,0,0)" stroke="currentColor" fill="none" stroke-width="0.00005039721436807565">
    <path d="M -0.2063539849541858 9.746411037350853 L -0.2040712677456762 9.741859653811035 L -0.2049798897629937 9.731914910758439 L -0.2073535319926298 9.722207155743854 L -0.2106205275890618 9.712757990716838 L -0.2143073149192416 9.703462267184143 L -0.2179397922761437 9.694145782650281 L -0.2207999924317674 9.684571296739257 L -0.2212078285959036 9.67464608172351 L -0.2164255052709523 9.666043192050953 L -0.2072776757914676 9.662556073291544 L -0.1972976593905766 9.661965540462395 L -0.1874034701521596 9.660521075188422 L -0.1774707138383551 9.659366433754125 L -0.1675283870989785 9.658295152802198 L -0.1576074724147523 9.657043682998745 L -0.1477461608721002 9.655390682776176 L -0.1379968513451262 9.653173257115295 L -0.1284220421625291 9.650295893508957 L -0.1190824315033296 9.6467284760943 L -0.1091430275083844 9.64565080681811 L -0.0992788256093071 9.644012045279007 L -0.0894391059665356 9.642229109836629 L -0.0795399043356433 9.640827587247665 L -0.0695540285643119 9.64048635178781 L -0.0595725561071303 9.641050737716647 L -0.0497779632330637 9.642977361680162 L -0.0410569054193717 9.647722831574981 L -0.0355968496812649 9.655968344371386 L -0.0338885634605646 9.665790209742298 L -0.0333839408468242 9.675775737431762 L -0.0330006701899555 9.6857681730309 L -0.0321268281188809 9.695727459743534 L -0.0302992865615233 9.705553338804993 L -0.0276850810844369 9.715205192156782 L -0.024887527550626 9.72480596210585 L -0.0219807583629308 9.734374141822707 L -0.0190208409250987 9.743926157430957 L -0.01605875719111 9.753477359750505 L -0.0131469917252982 9.763044218820834 L -0.0103476439937893 9.772644634402173 L -0.0070824261836151 9.778728482363963 L -0.0078622514995228 9.788676745582999 L -0.0066006876815754 9.798583396094845 L -0.0039284547287091 9.80821455055813 L -0.0005594834926486 9.817629205483502 L 0.0028431188963181 9.827031969384006 L 0.0056926879653352 9.836614306002126 L 0.0081401146300131 9.84631007325194 L 0.0105799588480764 9.856007753408324 L 0.0133618578197918 9.8656117807589 L 0.0169373207804124 9.874944791100056 L 0.0214427499865719 9.88387127285878 L 0.0244030314799497 9.893381100272052 L 0.0237022599373349 9.903290450810221 L 0.0191419885386512 9.912116633483933 L 0.0124171667662863 9.919509336453016 L 0.0062531493299591 9.927347426193585 L 0.003428494341656 9.936852227813146 L 0.0029192363848942 9.94659473251376 L -0.0040230101390595 9.953578070288762 L -0.013436308758009 9.956877367010353 L -0.0231451280968784 9.959271820195692 L -0.0329119928809592 9.961366470791575 L -0.0428980278777811 9.96171599569529 L -0.0528507563174081 9.960771795709466 L -0.062779773360349 9.959586338360534 L -0.0727648409381185 9.959444237526537 L -0.0750824294134418 9.959728490961002 L -0.0821416099288968 9.959322929509243 " id="ID_269"/>
   </g>
   <g id="ID_0" color="rgb(0,0,0)" stroke="currentColor" fill="none" stroke-width="0.00005039721436807565"/>
  </g>
 </svg>