<?xml version="1.0" encoding="UTF-8" ?>
 <svg viewBox="-0.8790768934216997 -8.729228432515386  0.2606271786383533 0.28735474800226335" xmlns="http://www.w3.org/2000/svg" version="1.0" overflow="visible">
  <defs>
   <g id="ID__#42_Model_Space"/>
   <g id="ID__#42_Paper_Space0"/>
   <g id="ID__#42_Paper_Space"/>
  </defs>
  <g id="draft" transform="matrix(1 0 0 -1 0 0)" stroke-width="5.039721436807565E-5">
   <g id="Poliline" color="rgb(0,0,0)" stroke="currentColor" fill="none" stroke-width="0.00005039721436807565">
    <path d="M -0.7040824592893387 8.51622842239843 L -0.6954155996706284 8.511244377535961 L -0.6864767295619263 8.506763044138316 L -0.6774220236642661 8.502518985737574 L -0.6683803621790539 8.498247531905154 L -0.6594844749919293 8.493681968536661 L -0.6509033111155427 8.48855276182561 L -0.642870560470727 8.482606172683482 L -0.6356894554291799 8.475660027291887 L -0.6296753902474403 8.467685139664876 L -0.6290824557270298 8.466728420047305 " id="ID_2F0"/>
    <path d="M -0.729082460476775 8.694728430876726 L -0.7235122632047047 8.686545965557272 L -0.7220311634457648 8.676712818150216 L -0.7231357733886546 8.666785821228155 L -0.7251738353737373 8.65699626185739 L -0.7239388232562228 8.647473727125568 L -0.7229096325046953 8.637570401595761 L -0.7245278009326209 8.627720242791675 L -0.7245383082283077 8.618182255835618 L -0.7239785140445543 8.608206038624395 L -0.723515047093705 8.598508404801033 L -0.7237297434801065 8.589452571009549 L -0.721768442065593 8.579799522211204 L -0.7215502762284975 8.569828017475452 L -0.7190348916353697 8.560156363688296 L -0.7157121940480434 8.550727105697774 L -0.7120327109197353 8.541428792763735 L -0.7084881175309105 8.532078792157947 L -0.7055262158594644 8.522530460669103 L -0.7040824592893387 8.51622842239843 " id="ID_2F1"/>
    <path d="M -0.8430824658914843 8.444728419002363 L -0.83475335311822 8.44927118281237 L -0.8253931450909091 8.452790751290141 L -0.816061285839341 8.45638473823939 L -0.8067655312203116 8.460071028232932 L -0.7975141649853095 8.463867266324591 L -0.7883162174097418 8.467790949639307 L -0.7791814083338551 8.471859603866061 L -0.770120729526199 8.47609064647478 L -0.7611462824092988 8.48050152854778 L -0.752271552547172 8.485109642784934 L -0.7435115724702515 8.489932219681513 L -0.734883067147388 8.494986160002586 L -0.7264045683142939 8.500287795190332 L -0.7180964785191355 8.505852569480457 L -0.7099810624389608 8.511694640773001 L -0.7040824592893387 8.51622842239843 " id="ID_2F2"/>
    <path d="M -0.7165824598830568 8.729228432515386 L -0.7068114687161389 8.727106592086415 L -0.6972506422128735 8.724193906424084 L -0.6882610471976413 8.719851811328969 L -0.680606936750695 8.713469194273593 L -0.6751001722824608 8.705161789060398 L -0.6718664469017553 8.695731670817274 L -0.671932281180533 8.685747936874003 L -0.6711830300039834 8.675802874438443 L -0.6682837793021453 8.66624391210999 L -0.6645793786586758 8.656956062883635 L -0.6612602210687007 8.64752593499524 L -0.6586057375309454 8.63788551142511 L -0.6562198066201912 8.62817441357204 L -0.6541345627527165 8.618395132964164 L -0.6523505358161739 8.608555936569427 L -0.6508345921726671 8.598671737280817 L -0.6493227389919795 8.588790420371394 L -0.6463307117043398 8.579258389829903 L -0.6426495465122564 8.569960813339666 L -0.6396000610204302 8.560443791311693 L -0.6376273446103538 8.550642853280578 L -0.6358623790340117 8.540800429194103 L -0.6331456898179484 8.531184592119958 L -0.6295678215998582 8.521847584689025 L -0.6258061954566552 8.512581982970504 L -0.6226576169328429 8.503098098518212 L -0.6234551520477974 8.493651678673396 L -0.6214518142149786 8.483855682407492 L -0.6194403017697176 8.474061101593245 L -0.6184497147833464 8.464121406460471 L -0.6200504351948517 8.454585939619236 L -0.630016352596992 8.45376317142411 L -0.6399809144800006 8.452921699543172 L -0.6499442436429526 8.452068309985934 L -0.6599075260933294 8.451209523111382 L -0.6698710062534367 8.450351797380806 L -0.6798348748269146 8.44950148332729 L -0.6897996821611088 8.448664815348526 L -0.6997662729956576 8.44784794613568 L -0.7097346256272834 8.447057067600907 L -0.7197057054353025 8.446298285235677 L -0.7296793654042535 8.445577807486783 L -0.7396564791643927 8.444901807373588 L -0.7496370383140177 8.4442765848217 L -0.7596207879726853 8.443708533184846 L -0.7696080115520676 8.443204116409538 L -0.7795987364616765 8.442769941931058 L -0.7895923394084594 8.4424127888694 L -0.799588918794222 8.442139573653188 L -0.809586995777904 8.441957437414818 L -0.819586669030774 8.441873684513123 L -0.8295868904369729 8.441895867192258 L -0.8393370780250206 8.443503947438312 L -0.8430824658914843 8.444728419002363 L -0.8529222701667356 8.443113699863577 L -0.8626260050300684 8.445100590574524 L -0.8700181611176658 8.451669702078934 L -0.8742584867862186 8.46068602451226 L -0.8764779016992498 8.470426272258546 L -0.8775577239327079 8.480364330826141 L -0.8779844450487299 8.49035366030349 L -0.8780481783202781 8.500352714580924 L -0.8777848054321415 8.510348419571924 L -0.8773155209106073 8.520337130774276 L -0.8767735083085588 8.5303222935079 L -0.8762794594477645 8.540310071962821 L -0.8759625006625615 8.55030490134337 L -0.8759848749041703 8.560304018924336 L -0.876582907450274 8.570283964015234 L -0.8781495403675894 8.58015386317426 L -0.8790768934216997 8.590093795709654 L -0.8790102406500563 8.600092914150881 L -0.8786671748741552 8.610087358403423 L -0.8782538225260196 8.620079619241244 L -0.8778987381404884 8.63007571830629 L -0.8777420889192102 8.640073376437883 L -0.8780349194245715 8.650066601557956 L -0.8780824675538951 8.650728428786838 L -0.8780824675538951 8.65692938572342 L -0.8780769627233153 8.65701204266589 " id="ID_2F3"/>
   </g>
   <g id="ID_0" color="rgb(0,0,0)" stroke="currentColor" fill="none" stroke-width="0.00005039721436807565"/>
  </g>
 </svg>