<?xml version="1.0" encoding="UTF-8" ?>
 <svg viewBox="0.9261454408095461 -9.337710869749959  0.4455957402049199 0.39626557246902827" xmlns="http://www.w3.org/2000/svg" version="1.0" overflow="visible">
  <defs>
   <g id="ID__#42_Model_Space"/>
   <g id="ID__#42_Paper_Space0"/>
   <g id="ID__#42_Paper_Space"/>
  </defs>
  <g id="draft" transform="matrix(1 0 0 -1 0 0)" stroke-width="5.039721436807565E-5">
   <g id="Poliline" color="rgb(0,0,0)" stroke="currentColor" fill="none" stroke-width="0.00005039721436807565">
    <path d="M 1.024917622833754 8.984728444650987 L 1.031267965436031 8.977401217447776 L 1.036625004176961 8.968967632542842 L 1.043355539691249 8.961688424141872 L 1.052382692135927 8.957469950725137 L 1.062103704348337 8.955151209428152 L 1.071954160550823 8.95342864521007 L 1.081721310243197 8.951298463047625 L 1.091403336785117 8.948840986040924 L 1.101364248838244 8.948048483993121 L 1.111363556042171 8.948026073926219 L 1.12134017237884 8.94745918728329 L 1.130917627868484 8.944728442751089 L 1.140893552690097 8.944082049110463 L 1.150806690853756 8.942772413346786 L 1.160726629411762 8.941522541224149 L 1.170713640980812 8.94144529728093 L 1.18055957030211 8.943144581171236 L 1.190449265637373 8.944610769784331 L 1.200387786247948 8.945717833758422 L 1.21030693243273 8.946981270874097 L 1.220106287961462 8.948952079396541 L 1.229498989403327 8.952337738888893 L 1.237743686137316 8.957928062123688 L 1.243639844224235 8.965934486860238 L 1.247758715088312 8.975041606347808 L 1.250741326812423 8.984576754280265 L 1.251680867031516 8.994509826300504 L 1.251774414788173 9.004508665848977 L 1.253777359034727 9.014245840054093 L 1.259736565148366 9.02219663334708 L 1.267805811064158 9.028071564267508 L 1.27664296841492 9.03274604127269 L 1.285682402700929 9.037022521476853 L 1.294638913698382 9.041469165775466 L 1.3036397892971 9.045825897616819 L 1.312715560413201 9.050025012112403 L 1.321829203548827 9.054140678087592 L 1.330942401240699 9.058257082025756 L 1.34011053568157 9.062242192289679 L 1.349478961557502 9.06574052825452 L 1.35859845589498 9.069829553067484 L 1.366721710257305 9.07560225166344 L 1.371741181014466 9.084103908701765 L 1.371575378610483 9.094003848642036 L 1.367447364007094 9.103015283908073 L 1.360268721936887 9.1099471258362 L 1.352170258384999 9.11580936159167 L 1.344469223267076 9.122140537994692 L 1.337370096490965 9.129184874348994 L 1.330334697720211 9.136294026807104 L 1.323344581287728 9.143445117922878 L 1.316375581426965 9.150614027021147 L 1.309399884886601 9.157776581266782 L 1.302390567953848 9.16490786391168 L 1.295324501408398 9.171983262512283 L 1.288181917000216 9.1789821743233 L 1.280949198852149 9.185887169306376 L 1.273615187834623 9.192688009625146 L 1.266178825527845 9.19937389672814 L 1.258659311286098 9.205966702274086 L 1.251132406148029 9.212550467565949 L 1.243668734394975 9.219205388527842 L 1.2363406992935 9.226008523049583 L 1.229205326284959 9.233013105264465 L 1.222293245566758 9.24023895942177 L 1.215610135940672 9.247677323393946 L 1.209143673027355 9.255304387797885 L 1.202872274773821 9.263092186598536 L 1.196771853964901 9.27101416037723 L 1.190908663484489 9.279112298936905 L 1.185175049674345 9.287302097338038 L 1.178240072482589 9.294480750563247 L 1.169984722698759 9.30011439354666 L 1.162256213574949 9.306424674499276 L 1.155656018125666 9.313931182573258 L 1.149454530750237 9.32177483255427 L 1.142820230611588 9.329248623500334 L 1.134803531724565 9.335161911982977 L 1.125209649953781 9.337710869749959 L 1.115454111155477 9.335824246344403 L 1.106306416764352 9.331798358988665 L 1.097454285195639 9.327146697242641 L 1.088629258277643 9.322442841324015 L 1.079556884066115 9.31824448822232 L 1.069936519441571 9.315547729676242 L 1.060401140871227 9.312592626766177 L 1.051913394016951 9.307342207441941 L 1.044024110230033 9.301198667532823 L 1.035829175205437 9.295478607440398 L 1.026951065941172 9.290885172379534 L 1.01772967640514 9.287024902618972 L 1.008158558198814 9.284146488943142 L 0.9983138059288076 9.282424878577132 L 0.9883349144377779 9.281858974784798 L 0.9794176206726206 9.282228458781479 L 0.9741769338381818 9.2737245051551 L 0.9679275711816073 9.265922202020963 L 0.9611278586560434 9.258591359497727 L 0.9540105907576634 9.251566913994976 L 0.9467323846730727 9.244708387282676 L 0.9394670461055012 9.237835910863774 L 0.9327692533488285 9.230429393251136 L 0.9285856697569014 9.221367333881053 L 0.9263469061520943 9.21164015661811 L 0.9261454408095461 9.201658688118188 L 0.9277291170059678 9.191796025114586 L 0.930654576896293 9.18223980338204 L 0.9344897228192037 9.173007300235032 L 0.9388826588216963 9.16402502280864 L 0.9435459203565095 9.15517888861134 L 0.9482113046554792 9.146334234513647 L 0.9525701235469314 9.137335409058922 L 0.9560287452077274 9.127966766900968 L 0.9582331484641208 9.118214018029512 L 0.9616584993782408 9.108826208177687 L 0.9657681162764717 9.09971200049176 L 0.9703441121621212 9.090820798283731 L 0.9752092974579902 9.08208442506941 L 0.9801459638182317 9.073387934440335 L 0.9849401208516699 9.06461256221081 L 0.9889176211238464 9.056728448070803 L 0.9974524661146659 9.035929960128119 L 1.013102649939071 9.010525289504361 L 1.020927799517195 8.99293754872777  z" id="ID_297"/>
   </g>
   <g id="ID_0" color="rgb(0,0,0)" stroke="currentColor" fill="none" stroke-width="0.00005039721436807565"/>
  </g>
 </svg>