<?xml version="1.0" encoding="UTF-8" ?>
 <svg viewBox="-0.9706933789093277 -8.414257605971963  0.27862966395820443 0.24365388128537724" xmlns="http://www.w3.org/2000/svg" version="1.0" overflow="visible">
  <defs>
   <g id="ID__#42_Model_Space"/>
   <g id="ID__#42_Paper_Space0"/>
   <g id="ID__#42_Paper_Space"/>
  </defs>
  <g id="draft" transform="matrix(1 0 0 -1 0 0)" stroke-width="1.074482389119885E-4">
   <g id="Poliline" color="rgb(0,0,0)" stroke="currentColor" fill="none" stroke-width="0.0001074482389119885">
    <path d="M -0.9680824718286658 8.387728416295008 L -0.9654970516415861 8.378071107795243 L -0.9634308336909693 8.368287290518403 L -0.9613608871028587 8.35850435988395 L -0.958746480970242 8.348855110424143 L -0.9551184048184921 8.33954406758589 L -0.9502100289807851 8.33084305197942 L -0.9438240025478856 8.323176596784904 L -0.936045766939598 8.316907403176248 L -0.9276558931708667 8.311468349732468 L -0.9191858240691948 8.306153149027583 L -0.9110533092071086 8.300340572344862 L -0.9036787690083443 8.2935961988602 L -0.8967607913286528 8.28637476210966 L -0.8895066775577715 8.279499283044522 L -0.881181022526973 8.274002152370258 L -0.8716567143335653 8.276271092234367 L -0.8617815875305544 8.274919187458181 L -0.8522851011808612 8.271800833070104 L -0.8429296100749565 8.268270690293607 L -0.8333392660486786 8.265481663628648 L -0.823390601967719 8.264517189457829 L -0.8137862083966994 8.261904917953508 L -0.804770668580092 8.257598408220804 L -0.7964341871223369 8.252088852969116 L -0.7889625969256892 8.245455213730795 L -0.7825152796045352 8.237823701026834 L -0.7772086132254659 8.229356557228872 L -0.7697120790720815 8.22289169271529 L -0.7675316066764905 8.213185702166935 L -0.7634857318500617 8.204061047288796 L -0.7576753282942619 8.195941436980403 L -0.7505834175002067 8.188905282400192 L -0.7426224346025867 8.18285962935502 L -0.7340854213215496 8.177658085077496 L -0.7251599889406118 8.17315322515402 L -0.7161554582846251 8.170603724686586 L -0.7100418494455747 8.178414527608956 L -0.708423959009612 8.188133345380091 L -0.7081225905150177 8.197408820989075 L -0.699369094338465 8.201976026345276 L -0.6920637149511233 8.208003054013409 L -0.6999386298130476 8.214152763367021 L -0.7083979853026774 8.21947967753403 L -0.7169071342445595 8.224732191775464 L -0.7249042099625777 8.230726396177701 L -0.7318541189132723 8.237899256206198 L -0.7374196832423534 8.246190154577281 L -0.7418785774145569 8.255138133025074 L -0.746440437280028 8.264032815026887 L -0.7526297305968033 8.271841729019243 L -0.7609529270608464 8.277302254310989 L -0.7704110972933176 8.280519242059803 L -0.7799799124454668 8.283417497098572 L -0.7890188792246243 8.287655547869857 L -0.7970021399402337 8.293647184802547 L -0.8028146779424458 8.301740708876023 L -0.8088155640530567 8.309679545876275 L -0.8177798856081039 8.313751804035043 L -0.8274454140081184 8.311980826116457 L -0.8366874270091759 8.315798610175033 L -0.8457394387547597 8.320043910691641 L -0.8545046884108904 8.324852918768896 L -0.8628353061752385 8.330377036580167 L -0.8705022984959205 8.33678684789502 L -0.8771507759875252 8.34424149800441 L -0.882290599825537 8.35279867127843 L -0.8854193356679971 8.362272522592326 L -0.8894360056156891 8.371133838702958 L -0.8963498218662779 8.378345226186482 L -0.9041274680978953 8.384623670587738 L -0.9124474371190141 8.39016706536739 L -0.9211535456746782 8.395085017009153 L -0.9301019704483267 8.399547810828192 L -0.9387075250316917 8.404637175284954 L -0.9472829683585786 8.40977705028843 L -0.9565140158119413 8.413552772280143 L -0.9664353193894301 8.414257605971963 L -0.9706933789093277 8.405881589527542 L -0.969903169589207 8.395943769956244  z" id="ID_42D"/>
   </g>
   <g id="ID_0" color="rgb(0,0,0)" stroke="currentColor" fill="none" stroke-width="0.0001074482389119885"/>
  </g>
 </svg>