<?xml version="1.0" encoding="UTF-8" ?>
 <svg viewBox="-0.030666906549885 -2.270062110096464  0.42158449927025554 0.32907556477894717" xmlns="http://www.w3.org/2000/svg" version="1.0" overflow="visible">
  <defs>
   <g id="ID__#42_Model_Space"/>
   <g id="ID__#42_Paper_Space0"/>
   <g id="ID__#42_Paper_Space"/>
  </defs>
  <g id="draft" transform="matrix(1 0 0 -1 0 0)" stroke-width="1.074482389119885E-4">
   <g id="Layer_#32_1" color="rgb(255,0,255)" stroke="currentColor" fill="none" stroke-width="0.0001074482389119885"/>
   <g id="Poliline" color="rgb(0,0,0)" stroke="currentColor" fill="none" stroke-width="0.0001074482389119885">
    <path d="M -0.0110824263736049 2.01872811378374 L -0.0016482858335873 2.015904231660007 L 0.0080951701153094 2.017917404314559 L 0.0171796490548841 2.02207928886326 L 0.0259072097988691 2.026958685910896 L 0.0345617780133543 2.031967663946401 L 0.0433245229708019 2.03678463392738 L 0.0521684133494045 2.041451773298 L 0.060910589664128 2.046306890482627 L 0.0696215308440289 2.051218353665294 L 0.0783891452390719 2.056027669466125 L 0.0873378553172515 2.060487647686455 L 0.0964580672930131 2.06458875877298 L 0.1056261817864659 2.068581023206551 L 0.1148369695590068 2.072472580844468 L 0.1240819461171387 2.076280298860387 L 0.1333528975886837 2.080032726575227 L 0.1426308192315444 2.083765024092642 L 0.1518990994336233 2.087520657243842 L 0.1611393813650217 2.091343282490907 L 0.1703353452669329 2.095271091919499 L 0.179473278887964 2.099331640714376 L 0.1885423506933703 2.103539846270614 L 0.1975402791351701 2.107901817221495 L 0.2063723417026546 2.112580817693391 L 0.2146300491643398 2.118219747454368 L 0.2229025310276231 2.123836493546784 L 0.2316670769843219 2.128629839384378 L 0.2412305130198096 2.131495651447787 L 0.2510085034473839 2.133587006349472 L 0.2604226802777028 2.136900125288059 L 0.2689603756435952 2.142088595020352 L 0.2769924499730916 2.148044566990716 L 0.2850939995105808 2.153903617812829 L 0.2936675958205415 2.159047099466114 L 0.3025101499136706 2.163714463272059 L 0.3115475002567578 2.167993882987863 L 0.3207053078319051 2.172010066027368 L 0.3299049730969887 2.175929846253389 L 0.3390641302566122 2.179943122716883 L 0.3480944012402558 2.184237190260365 L 0.3568803305999566 2.189008370350855 L 0.365266299683646 2.194448977329932 L 0.3730473742897633 2.200721450978717 L 0.3800419981959262 2.207860176615469 L 0.384417592411638 2.213228123021993 " id="ID_8BA"/>
    <path d="M -0.0240824269910718 2.095228117417295 L -0.0160927012277421 2.101235693541889 L -0.0066690759087571 2.103360024505452 L 0.0014765117591002 2.106618235718846 L 0.0057994123898792 2.115602935435964 L 0.0089175745763441 2.122728118723477 " id="ID_8BB"/>
    <path d="M 0.3455836061921218 2.270062110096464 L 0.3543897017965305 2.265329252039551 L 0.363177908935298 2.260563826058865 L 0.3710431891570849 2.254432165334259 L 0.3753357089770635 2.245962794152706 L 0.3764789898647987 2.236121074330268 L 0.3805270086804757 2.226984646940247 L 0.3839857171117851 2.217630003931997 L 0.3844175924116371 2.213228123021995 L 0.3877845320428221 2.203832020800176 L 0.3904177689217949 2.194186691775108 L 0.3909175927203705 2.192728122048297 " id="ID_8BC"/>
    <path d="M -0.030666906549885 1.946462660739921 L -0.0255001101800474 1.943131647146618 L -0.0188927317884122 1.940986545317517 L -0.011624689581538 1.941976592315558 L -0.0046869175956772 1.94511181141863 L 0.0012596736075068 1.947751936746758 L 0.0048471955706715 1.948094094534225 " id="ID_8BD"/>
   </g>
   <g id="ID_0" color="rgb(0,0,0)" stroke="currentColor" fill="none" stroke-width="0.0001074482389119885"/>
  </g>
 </svg>