<?xml version="1.0" encoding="UTF-8" ?>
 <svg viewBox="0.5879176020773685 -0.5485110860163332  0.2503776477853694 0.22056496103763845" xmlns="http://www.w3.org/2000/svg" version="1.0" overflow="visible">
  <defs>
   <g id="ID__#42_Model_Space"/>
   <g id="ID__#42_Paper_Space0"/>
   <g id="ID__#42_Paper_Space"/>
  </defs>
  <g id="draft" transform="matrix(1 0 0 -1 0 0)" stroke-width="1.074482389119885E-4">
   <g id="Layer_#32_1" color="rgb(255,0,255)" stroke="currentColor" fill="none" stroke-width="0.0001074482389119885"/>
   <g id="Poliline" color="rgb(0,0,0)" stroke="currentColor" fill="none" stroke-width="0.0001074482389119885">
    <path d="M 0.5879176020773685 0.4617280398302093 L 0.5941964691333262 0.4542575352249259 L 0.6030432762706291 0.4496835440412248 L 0.6125735163515281 0.4466589457097676 L 0.621938228130265 0.4431828161274663 L 0.6296348801963552 0.4369338922710196 L 0.6355842826378542 0.4289071443226203 L 0.6405192810812101 0.4202143868802608 L 0.6448084583939924 0.4111817195776748 L 0.649814476362999 0.4025402554358113 L 0.656931801130953 0.3955898847617298 L 0.6657685102014989 0.3909404794873232 L 0.6750044943412777 0.3871053192711429 L 0.6837586103642987 0.3823142096897456 L 0.6917471686697461 0.376303125302206 L 0.6995656272834943 0.3700697821184704 L 0.7075861902671834 0.3640983950061596 L 0.7158686178384972 0.3584966398453844 L 0.7244354168020655 0.3533408016157189 L 0.7333238724551415 0.3487637946176232 L 0.7425771410169677 0.3449834012928274 L 0.7521891790380951 0.3422399472468687 L 0.7615415077589552 0.338822498870627 L 0.7686549579747411 0.3318997016721621 L 0.7772858552678787 0.3279461249786948 L 0.7866617433046664 0.3314185401367347 L 0.7958068036557835 0.3354611947966362 L 0.8047176476339049 0.3399965076592277 L 0.8133682620268016 0.3450086298726358 L 0.8217714485806402 0.3504281992859219 L 0.8297262183358489 0.3564735030976269 L 0.8359243062153822 0.3642490840118295 L 0.838295249862738 0.3738811369839805 L 0.8372190262049183 0.3837962155733958 L 0.8341165116187516 0.3932878214902313 L 0.8294913503598424 0.4021439731539261 L 0.8237953303646481 0.4103574540880342 L 0.8174019058770297 0.4180431264733091 L 0.8105809051936461 0.425355484805559 L 0.8035297060283924 0.4324461109489502 L 0.7963854770866226 0.4394432218822982 L 0.789089189952585 0.4462813286729404 L 0.7816275706926535 0.4529423684987251 L 0.774022071895283 0.4594350257060534 L 0.7662833771092288 0.4657682842146045 L 0.7584199174580988 0.4719459131547677 L 0.7504391121450738 0.4779669484109111 L 0.742339778630945 0.4838318995650149 L 0.7341245854269208 0.4895334505842666 L 0.7257920955732322 0.495062204063169 L 0.717338881809356 0.5004042885120797 L 0.7087588973058044 0.5055403844316082 L 0.7000436519890743 0.5104433521230796 L 0.6911813808964756 0.5150750777628837 L 0.6821572531164515 0.5193803314550341 L 0.6729504567702547 0.5232775765197922 L 0.6529176051647028 0.5327280432025284 L 0.6483851995579917 0.5345859655820746 L 0.6393221962707454 0.5388111241229812 L 0.6302420345197312 0.5429986462685507 L 0.6208859105439091 0.5465140463924687 L 0.6111067595084876 0.5485110860163332 L 0.6011857081301138 0.5477460692079568 L 0.5922496335331289 0.5433960124592297 " id="ID_9D7"/>
   </g>
   <g id="ID_0" color="rgb(0,0,0)" stroke="currentColor" fill="none" stroke-width="0.0001074482389119885"/>
  </g>
 </svg>