<?xml version="1.0" encoding="UTF-8" ?>
 <svg viewBox="-0.333593177528571 -11.49892924563364  0.11560789351793857 0.1656295211778005" xmlns="http://www.w3.org/2000/svg" version="1.0" overflow="visible">
  <defs>
   <g id="ID__#42_Model_Space"/>
   <g id="ID__#42_Paper_Space0"/>
   <g id="ID__#42_Paper_Space"/>
  </defs>
  <g id="draft" transform="matrix(1 0 0 -1 0 0)" stroke-width="5.039721436807565E-5">
   <g id="Poliline" color="rgb(0,0,0)" stroke="currentColor" fill="none" stroke-width="0.00005039721436807565">
    <path d="M -0.2330824369180391 11.47472856291964 L -0.2256616730334793 11.46806762807089 L -0.2204311827312777 11.45959063957814 L -0.2179852840106324 11.44993173543106 L -0.2181902474916031 11.43995815597138 L -0.2205036721666644 11.43024483240909 L -0.2244202864071907 11.42105456426384 L -0.229597931857251 11.41250826078858 L -0.2358333772825913 11.40469923934435 L -0.2430211239726292 11.39775767070912 L -0.2511201794807372 11.39190931736612 L -0.2557494301821634 11.38939555105404 " id="ID_222"/>
    <path d="M -0.2557494301821634 11.38939555105404 L -0.2593793069311925 11.38008368796156 L -0.2623567820129375 11.37053743097783 L -0.2657894473681486 11.36115243246196 L -0.2713882224512929 11.35294207366395 L -0.2800353948778271 11.34807148564981 L -0.2890277203533955 11.34376127977875 L -0.2950824398628811 11.33672855636499 L -0.2982578216349907 11.33519513598226 L -0.3031596478591325 11.33329972445584 L -0.3080824404803479 11.3337285562225 L -0.3155402909902261 11.34010969859393 L -0.3185913675836964 11.34957630448651 L -0.3201499185379673 11.35945301680965 L -0.3234845161870581 11.36882025247924 L -0.3306910083966699 11.37547213290412 L -0.3321732604307446 11.38535870704071 L -0.3331427252150414 11.39531048357785 L -0.333593177528571 11.40529921249164 L -0.3335173643877347 11.41529779041251 L -0.3329069574189125 11.42527795763584 L -0.3317529322920043 11.43520985163965 L -0.3300460513721104 11.44506172233804 L -0.3277774942546507 11.45479956403627 L -0.324939653518336 11.46438689572803 L -0.3215270292467576 11.47378488505077 L -0.3136829232491713 11.47839184158226 L -0.3038091334596658 11.47997379367345 L -0.2940279516060817 11.48204591607976 L -0.2844039102146629 11.48475409732914 L -0.2750325864845307 11.488234139888 L -0.2660507915294286 11.49261924674633 L -0.2573643993494743 11.49756275633584 L -0.2475488494441302 11.49892924563364 L -0.2382357525885688 11.49570748997992 L -0.2330539604697552 11.48738512468556 L -0.2326748647617167 11.47744491745552 L -0.2330824369180391 11.47472856291964 L -0.2370308004437458 11.46554495421972 L -0.2401235486531448 11.45603875298826 L -0.2423208459645467 11.44628706641285 L -0.243536089114877 11.43636567616843 L -0.2436472128245866 11.42637195123195 L -0.2453998465159977 11.41679349872585 L -0.2510869281891148 11.40857134198331 L -0.2558569861248268 11.39981854761203 L -0.2559874324145444 11.39001688436473  z" id="ID_223"/>
    <path d="M -0.2330824369180391 11.47472856291964 L -0.2256616730334793 11.46806762807089 L -0.2204311827312777 11.45959063957814 L -0.2179852840106324 11.44993173543106 L -0.2181902474916031 11.43995815597138 L -0.2205036721666644 11.43024483240909 L -0.2244202864071907 11.42105456426384 L -0.229597931857251 11.41250826078858 L -0.2358333772825913 11.40469923934435 L -0.2430211239726292 11.39775767070912 L -0.2511201794807372 11.39190931736612 L -0.2557494301821634 11.38939555105404 " id="ID_22C"/>
    <path d="M -0.2557494301821634 11.38939555105404 L -0.2593793069311925 11.38008368796156 L -0.2623567820129375 11.37053743097783 L -0.2657894473681486 11.36115243246196 L -0.2713882224512929 11.35294207366395 L -0.2800353948778271 11.34807148564981 L -0.2890277203533955 11.34376127977875 L -0.2950824398628811 11.33672855636499 L -0.2982578216349907 11.33519513598226 L -0.3031596478591325 11.33329972445584 L -0.3080824404803479 11.3337285562225 L -0.3155402909902261 11.34010969859393 L -0.3185913675836964 11.34957630448651 L -0.3201499185379673 11.35945301680965 L -0.3234845161870581 11.36882025247924 L -0.3306910083966699 11.37547213290412 L -0.3321732604307446 11.38535870704071 L -0.3331427252150414 11.39531048357785 L -0.333593177528571 11.40529921249164 L -0.3335173643877347 11.41529779041251 L -0.3329069574189125 11.42527795763584 L -0.3317529322920043 11.43520985163965 L -0.3300460513721104 11.44506172233804 L -0.3277774942546507 11.45479956403627 L -0.324939653518336 11.46438689572803 L -0.3215270292467576 11.47378488505077 L -0.3136829232491713 11.47839184158226 L -0.3038091334596658 11.47997379367345 L -0.2940279516060817 11.48204591607976 L -0.2844039102146629 11.48475409732914 L -0.2750325864845307 11.488234139888 L -0.2660507915294286 11.49261924674633 L -0.2573643993494743 11.49756275633584 L -0.2475488494441302 11.49892924563364 L -0.2382357525885688 11.49570748997992 L -0.2330539604697552 11.48738512468556 L -0.2326748647617167 11.47744491745552 L -0.2330824369180391 11.47472856291964 L -0.2370308004437458 11.46554495421972 L -0.2401235486531448 11.45603875298826 L -0.2423208459645467 11.44628706641285 L -0.243536089114877 11.43636567616843 L -0.2436472128245866 11.42637195123195 L -0.2453998465159977 11.41679349872585 L -0.2510869281891148 11.40857134198331 L -0.2558569861248268 11.39981854761203 L -0.2559874324145444 11.39001688436473  z" id="ID_22D"/>
    <path d="M -0.2330824369180391 11.47472856291964 L -0.2256616730334793 11.46806762807089 L -0.2204311827312777 11.45959063957814 L -0.2179852840106324 11.44993173543106 L -0.2181902474916031 11.43995815597138 L -0.2205036721666644 11.43024483240909 L -0.2244202864071907 11.42105456426384 L -0.229597931857251 11.41250826078858 L -0.2358333772825913 11.40469923934435 L -0.2430211239726292 11.39775767070912 L -0.2511201794807372 11.39190931736612 L -0.2557494301821634 11.38939555105404 " id="ID_236"/>
    <path d="M -0.2557494301821634 11.38939555105404 L -0.2593793069311925 11.38008368796156 L -0.2623567820129375 11.37053743097783 L -0.2657894473681486 11.36115243246196 L -0.2713882224512929 11.35294207366395 L -0.2800353948778271 11.34807148564981 L -0.2890277203533955 11.34376127977875 L -0.2950824398628811 11.33672855636499 L -0.2982578216349907 11.33519513598226 L -0.3031596478591325 11.33329972445584 L -0.3080824404803479 11.3337285562225 L -0.3155402909902261 11.34010969859393 L -0.3185913675836964 11.34957630448651 L -0.3201499185379673 11.35945301680965 L -0.3234845161870581 11.36882025247924 L -0.3306910083966699 11.37547213290412 L -0.3321732604307446 11.38535870704071 L -0.3331427252150414 11.39531048357785 L -0.333593177528571 11.40529921249164 L -0.3335173643877347 11.41529779041251 L -0.3329069574189125 11.42527795763584 L -0.3317529322920043 11.43520985163965 L -0.3300460513721104 11.44506172233804 L -0.3277774942546507 11.45479956403627 L -0.324939653518336 11.46438689572803 L -0.3215270292467576 11.47378488505077 L -0.3136829232491713 11.47839184158226 L -0.3038091334596658 11.47997379367345 L -0.2940279516060817 11.48204591607976 L -0.2844039102146629 11.48475409732914 L -0.2750325864845307 11.488234139888 L -0.2660507915294286 11.49261924674633 L -0.2573643993494743 11.49756275633584 L -0.2475488494441302 11.49892924563364 L -0.2382357525885688 11.49570748997992 L -0.2330539604697552 11.48738512468556 L -0.2326748647617167 11.47744491745552 L -0.2330824369180391 11.47472856291964 L -0.2370308004437458 11.46554495421972 L -0.2401235486531448 11.45603875298826 L -0.2423208459645467 11.44628706641285 L -0.243536089114877 11.43636567616843 L -0.2436472128245866 11.42637195123195 L -0.2453998465159977 11.41679349872585 L -0.2510869281891148 11.40857134198331 L -0.2558569861248268 11.39981854761203 L -0.2559874324145444 11.39001688436473  z" id="ID_237"/>
   </g>
   <g id="ID_0" color="rgb(0,0,0)" stroke="currentColor" fill="none" stroke-width="0.00005039721436807565"/>
  </g>
 </svg>