<?xml version="1.0" encoding="UTF-8" ?>
 <svg viewBox="0.6849929168398106 -9.350728462035052  0.44592471102867437 0.532011981438723" xmlns="http://www.w3.org/2000/svg" version="1.0" overflow="visible">
  <defs>
   <g id="ID__#42_Model_Space"/>
   <g id="ID__#42_Paper_Space0"/>
   <g id="ID__#42_Paper_Space"/>
  </defs>
  <g id="draft" transform="matrix(1 0 0 -1 0 0)" stroke-width="5.039721436807565E-5">
   <g id="Poliline" color="rgb(0,0,0)" stroke="currentColor" fill="none" stroke-width="0.00005039721436807565">
    <path d="M 0.7349176090594938 9.220728455860385 L 0.729569991843138 9.212462980150413 L 0.7217461537309005 9.206247333932481 L 0.7136277249474104 9.200408653368102 L 0.7064106071431971 9.193524482120164 L 0.700679113186248 9.185344655710235 L 0.6962461167438176 9.17638958698238 L 0.6926321199883612 9.167066620532905 L 0.6890889403664123 9.157716038694142 L 0.6849929168398106 9.148596528076107 L 0.6850011623857997 9.138886099380956 L 0.6880843951661105 9.129390905192668 L 0.6927438237804271 9.12055249979376 L 0.6983967659567556 9.112308109601626 L 0.7046374369165527 9.104496738484123 L 0.711210464481507 9.096961193241302 L 0.7179523988697066 9.089576073450234 L 0.7247539598452049 9.08224536592557 L 0.731536746133493 9.07489732058389 L 0.7382576274526987 9.067492650681025 L 0.7450912718689198 9.060191975354925 L 0.752014452871376 9.052975966685127 L 0.7589209375966642 9.045744161438481 L 0.7656974609210572 9.038390622364886 L 0.7722091657272996 9.030802402488249 L 0.7782819472193996 9.022859963753447 L 0.7794176111731304 9.021228446384644 L 0.7882309351771993 9.016925699122108 L 0.7952383296850929 9.009800491573113 L 0.8020373539567522 9.002469321842147 L 0.8094140828324718 8.995718405328528 L 0.8169012051703345 8.989087974014144 L 0.8244540494097095 8.982533963912326 L 0.8320586525510903 8.976040176128496 L 0.8397046694933933 8.96959521963866 L 0.8473843618212226 8.963190239427252 L 0.855091307446977 8.956818129700476 L 0.8628200446095144 8.950472505003576 L 0.8705653286841679 8.944147103903601 L 0.8782798028162802 8.937784275407216 L 0.8859168529773784 8.931328706199254 L 0.8934798017818623 8.924786467882313 L 0.900972321829264 8.918163675910982 L 0.9083983862475655 8.911466442828281 L 0.9157621812024725 8.904700948036353 L 0.9230684165944627 8.897873143927526 L 0.9303218115845215 8.89098922728817 L 0.9375274404753638 8.884055325213607 L 0.9446906343922093 8.87707759218272 L 0.9518169768033066 8.870062226579115 L 0.9589123005829591 8.863015490728534 L 0.9659826865480862 8.855943734533025 L 0.9730344633405501 8.848853422819296 L 0.9800742084615707 8.841751166557092 L 0.9871087501881659 8.834643758140736 L 0.994145169891194 8.827538211081173 L 0.9989176215988209 8.8227284369564 L 1.008179913929413 8.81907002782407 L 1.018123818583195 8.81871648059633 L 1.027756550680206 8.821308859358162 L 1.036774059545411 8.825614360489809 L 1.045363995344128 8.830730618437933 L 1.053764580725288 8.836154577956428 L 1.062005225976602 8.841818065440563 L 1.069950167595212 8.847888595446666 L 1.077435586481141 8.854514635848425 L 1.084124817119942 8.861936562712897 L 1.08918380545888 8.870526095892027 L 1.096198011957595 8.876530180312962 L 1.102844175222108 8.883875126594614 L 1.106474736751093 8.89316832333524 L 1.109181871085928 8.902794071739788 L 1.11296198814258 8.912045195950656 L 1.117504371482731 8.920952414673945 L 1.122394003237396 8.9296749616914 L 1.127368883343089 8.93834960333026 L 1.130917627868485 8.944728442751089 " id="ID_2A0"/>
    <path d="M 0.892917616564091 9.350728462035052 L 0.8983649929823114 9.342531214894562 L 0.9020353756713719 9.33324823976447 L 0.9093930770101561 9.326661679885914 L 0.9180898184868651 9.321727311328607 L 0.9260532290171248 9.315702968286857 L 0.933280143749231 9.308792950141461 L 0.9405683805576704 9.30194992881675 L 0.9488965541615463 9.296462380289915 L 0.9580753379681414 9.292504059995245 L 0.9674072587462729 9.288910729120756 L 0.9763563235919416 9.28447835210348 L 0.9794176206726206 9.282228458781479 " id="ID_2A1"/>
   </g>
   <g id="ID_0" color="rgb(0,0,0)" stroke="currentColor" fill="none" stroke-width="0.00005039721436807565"/>
  </g>
 </svg>