<?xml version="1.0" encoding="UTF-8" ?>
 <svg viewBox="0.1625858129000512 -1.587209024048373  0.38364722557491865 0.5451842063376409" xmlns="http://www.w3.org/2000/svg" version="1.0" overflow="visible">
  <defs>
   <g id="ID__#42_Model_Space"/>
   <g id="ID__#42_Paper_Space0"/>
   <g id="ID__#42_Paper_Space"/>
  </defs>
  <g id="draft" transform="matrix(1 0 0 -1 0 0)" stroke-width="1.074482389119885E-4">
   <g id="Layer_#32_1" color="rgb(255,0,255)" stroke="currentColor" fill="none" stroke-width="0.0001074482389119885"/>
   <g id="Poliline" color="rgb(0,0,0)" stroke="currentColor" fill="none" stroke-width="0.0001074482389119885">
    <path d="M 0.1654175820096952 1.178228073862133 L 0.1719727753122209 1.185567894672315 L 0.1752346611209621 1.19499708140464 L 0.176990452993997 1.204837878208893 L 0.1780383259003839 1.214782631327169 L 0.178826942089608 1.224751949792532 L 0.1798666809172342 1.234695921628588 L 0.1818192877723037 1.244499549718922 L 0.1845174534731191 1.254127170509617 L 0.1875004419804202 1.263671622774467 L 0.1902531345016047 1.273284135692618 L 0.1922162114316039 1.283081669081687 L 0.1927639181564506 1.293063719598022 L 0.1936155864232134 1.303018104042362 L 0.1962984264624214 1.312644469590107 L 0.198313053837027 1.322434630756237 L 0.1993512585544215 1.332377055482586 L 0.1995436321282691 1.342372646298795 L 0.1990398380396367 1.352358295501119 L 0.1979899635175446 1.362302066962232 L 0.1965356626139982 1.372195283204952 L 0.1960052915095645 1.382149828475984 L 0.1975162688756446 1.392029080706242 L 0.1992584212011117 1.401874737818994 L 0.2002471085970381 1.411823975589117 L 0.2008647069033813 1.421804812322131 L 0.2012457712055582 1.431797623395171 L 0.2014577690834249 1.44179467581133 L 0.2015588816856031 1.451794141010482 L 0.2016011066764252 1.461794127242873 L 0.2016328963916267 1.471794133579617 L 0.2017013286819367 1.48179422048287 L 0.2018541094152573 1.491793443142144 L 0.2021415594156899 1.501789447872528 L 0.202618769495734 1.51177802011432 L 0.2033480230774121 1.521751030348948 L 0.2043229165477483 1.531703462812524 L 0.2053367844896439 1.541652162945092 L 0.2064670325985638 1.551588096188464 L 0.2078197081774942 1.561495868860255 L 0.2095316930995663 1.571347397957561 L 0.2099175841233309 1.573228092623626 " id="ID_974"/>
    <path d="M 0.5389175997499934 1.334728081295484 L 0.5378853315801165 1.325178093523739 L 0.5387887844684301 1.315220948960963 L 0.5400259497786353 1.305298071044029 L 0.5414483429606998 1.295399812980928 L 0.5429116501478051 1.285507470803466 L 0.5442721382878651 1.275600480300738 L 0.5453825317113205 1.265662831836683 L 0.5460892792032901 1.255688863481401 L 0.5462330384749698 1.245691653325721 L 0.5456555238060377 1.235711018832631 L 0.5442149235307339 1.225818989448383 L 0.5443589607722226 1.215847256696861 L 0.5444824683994886 1.205848287048388 L 0.5443485206086196 1.195849523509359 L 0.5439849833098034 1.185856246105103 L 0.5434146473919581 1.175872635156407 L 0.5426562942034235 1.165901542794932 L 0.541725492565675 1.155945064513954 L 0.5406351934823093 1.146004779357733 L 0.5393961759583084 1.136081919304338 L 0.5380173803824997 1.126177491356219 L 0.5365061548746874 1.116292371851374 L 0.5348684307157088 1.106427380777383 L 0.5331088721422895 1.096583536366296 L 0.5312308220770392 1.086761488371198 L 0.5292364418623139 1.076962380850986 L 0.5270253125315927 1.067210210541032 L 0.5234471914340899 1.057893053632819 L 0.5174943497404021 1.049914936267107 L 0.5099175983725673 1.045228067544973 L 0.5000957889286637 1.043492728642839 L 0.4901513043134181 1.042456454453194 L 0.480162005421235 1.042024817710732 L 0.4701638432904032 1.042146094898042 L 0.4601861435250561 1.042798395703876 L 0.4502573397038532 1.04398129135564 L 0.440409329258797 1.045712070464265 L 0.4306819752045934 1.04802438504044 L 0.4211013722979465 1.05088770898874 L 0.411604891288877 1.054020389355956 L 0.4021740889975441 1.05734551962071 L 0.3927972096569441 1.060820207938521 L 0.3834635404845761 1.064409517846248 L 0.3741630632758222 1.068084207970025 L 0.36488665717952 1.071818939652235 L 0.3556254682562612 1.075591251786468 L 0.346370918784471 1.079379831688228 L 0.3370804977647923 1.083079648741898 L 0.3277347163500615 1.086636462393332 L 0.3183425494761396 1.090069345273102 L 0.3089133874756982 1.09339949925056 L 0.2994565272544101 1.096650499851293 L 0.2899816140894629 1.09984821272733 L 0.2804983280258435 1.103020999318379 L 0.2710170147592485 1.10619962523477 L 0.2615491282445879 1.109417247776487 L 0.2521067535606942 1.112709707610637 L 0.2427044234214728 1.116114994775418 L 0.2333590986537937 1.119673215839258 L 0.2240903917264365 1.123426320612807 L 0.2149216588062561 1.127417216485772 L 0.2058803771948927 1.131688725215585 L 0.196917583505865 1.134728071795993 L 0.1907701814003886 1.140207028127301 L 0.1820123818389287 1.144991071826337 L 0.1724175823421774 1.14772807241346 L 0.1705137428531884 1.149878494048531 L 0.1656630112589301 1.158568722456674 L 0.1639549635179707 1.168375213003464 L 0.1654175820096952 1.178228073862134 L 0.1625858129000512 1.186229748231871 L 0.1632930909695247 1.196185072684377 L 0.1637675297729126 1.206157517594032 L 0.1632092964871967 1.216141758935105 L 0.1631920006120486 1.22613667148591 L 0.164684166611103 1.2360050720927 L 0.1681712713189212 1.245371282560428 L 0.1704337870777026 1.255105874027082 L 0.1716666568572327 1.265026307451368 L 0.1721778455643728 1.275011746015023 L 0.1722887382833962 1.285010936859398 L 0.1723377997517197 1.295010793788586 L 0.1727208127093611 1.305002192204444 L 0.1739613808722415 1.314919034700684 L 0.177201172077325 1.324351025264409 L 0.1810656260459948 1.333567529235496 L 0.1815835984025398 1.34339605045719 L 0.1835017426213889 1.353209386483905 L 0.1850142330178181 1.363093851506038 L 0.1862246398602538 1.37302011810774 L 0.1872060870059346 1.382971627708876 L 0.1880127005346566 1.392939019619259 L 0.1886861839110709 1.402916369978301 L 0.1892599510660249 1.412900023002325 L 0.1897617544471775 1.422887621436299 L 0.1902154694886171 1.432877590490186 L 0.1906423627930058 1.442868814441208 L 0.191062044461062 1.452860419289955 L 0.1914932306047214 1.462851611720729 L 0.191954401418152 1.472841543270821 L 0.1924644188259892 1.482829176956784 L 0.1930430922756301 1.492812066359405 L 0.193712105203609 1.502790019136815 L 0.1944955478155386 1.512759489347585 L 0.1954211447664136 1.522716422696628 L 0.1963320871206822 1.532673783726043 L 0.1969723232615079 1.542653224958412 L 0.1981914163179263 1.552574101923713 L 0.2009820194919207 1.562154708109339 L 0.206495005827211 1.570424535325386 L 0.2099175841233318 1.573228092623626 L 0.2118598218678063 1.577700676098395 L 0.2189175845508089 1.584728093169847 L 0.2287721076719622 1.586400731758375 L 0.2387405979868511 1.587158776482398 L 0.2487389079799103 1.587209024048373 L 0.2587263677522547 1.58672461867091 L 0.268687391369248 1.585847926960733 L 0.2786209533012247 1.58469810289616 L 0.2885336871438122 1.583379265597693 L 0.2984366606467672 1.581988170932589 L 0.3083431258304703 1.580621840515076 L 0.318266663398127 1.57938611628999 L 0.3282184343812471 1.578406733814409 L 0.3382014022852493 1.577840742249453 L 0.3481998157618458 1.577689790619544 L 0.3581992546136181 1.577783670450974 L 0.3681976375181968 1.577962781427446 L 0.3781969333872182 1.578072485634455 L 0.3881959824611272 1.577964904569878 L 0.3981844347113776 1.57750110436152 L 0.4081250182515577 1.576433842751095 L 0.4179768015994103 1.574726453008494 L 0.4277553436481059 1.57263517287798 L 0.4375082534549036 1.570426946529071 L 0.4472882686055737 1.568344639940715 L 0.457162733657488 1.566766388118645 L 0.4670571034922233 1.565312549325222 L 0.4769161465441983 1.56364002775393 L 0.4866666286839206 1.56143204837457 L 0.4961500556043817 1.558282233844719 L 0.5049574580435428 1.5535896159871 L 0.5120653364559465 1.546630892347597 L 0.5159049041656241 1.537475789138806 L 0.5179935723722044 1.527696921252429 L 0.5203252788703434 1.51797368618519 L 0.5227157267678298 1.508263694114347 L 0.525101050539476 1.498552409361108 L 0.5274158818981958 1.488823743589318 L 0.5294591404906832 1.479035460048528 L 0.5329175994650086 1.470728087755139 " id="ID_975"/>
   </g>
   <g id="ID_0" color="rgb(0,0,0)" stroke="currentColor" fill="none" stroke-width="0.0001074482389119885"/>
  </g>
 </svg>