<?xml version="1.0" encoding="UTF-8" ?>
 <svg viewBox="-0.5251268001706109 -1.782062086917708  0.19402910766632786 0.3238339997562889" xmlns="http://www.w3.org/2000/svg" version="1.0" overflow="visible">
  <defs>
   <g id="ID__#42_Model_Space"/>
   <g id="ID__#42_Paper_Space0"/>
   <g id="ID__#42_Paper_Space"/>
  </defs>
  <g id="draft" transform="matrix(1 0 0 -1 0 0)" stroke-width="1.074482389119885E-4">
   <g id="Layer_#32_1" color="rgb(255,0,255)" stroke="currentColor" fill="none" stroke-width="0.0001074482389119885"/>
   <g id="Poliline" color="rgb(0,0,0)" stroke="currentColor" fill="none" stroke-width="0.0001074482389119885">
    <path d="M -0.5177494426264957 1.782062086917708 L -0.5228625361034398 1.773517579977296 L -0.5251268001706109 1.763812281421815 L -0.5250416104267864 1.75382766752728 L -0.5235076008890145 1.743951101701705 L -0.5212055846461618 1.734221118647591 L -0.5185812950422193 1.724571947082456 L -0.5159507224530095 1.714924443227252 L -0.5135736477944742 1.705211958198759 L -0.5116178220510479 1.695405581778262 L -0.509662406931466 1.685598735014337 L -0.5075049564069296 1.675834604644336 L -0.5050200851039301 1.666149056235951 L -0.5021002953747589 1.65658584730809 L -0.4989422719792805 1.647097574119156 L -0.4957830171035118 1.637609781484332 L -0.4926350931746209 1.62811828570727 L -0.4895161127322983 1.618617120612574 L -0.4864559510165228 1.609096834968122 L -0.4835623833293994 1.599525733747293 L -0.4813935766961306 1.589763997230992 L -0.4789876639919433 1.5800588742251 L -0.4756267994293646 1.570652080574284 L -0.4730729845296784 1.561786867098842 L -0.4722601167240406 1.551896924953933 L -0.467652030309643 1.54306971799874 L -0.4616123034828359 1.535101123777149 L -0.4558937810654147 1.526899982585327 L -0.4505743062474324 1.518433629404922 L -0.445722857091516 1.509690729391953 L -0.4414574677546553 1.500647784280619 L -0.4368776638699039 1.492075203417071 L -0.4287814494667419 1.486205080221518 L -0.420736988363287 1.480264097864253 L -0.4125944816752112 1.474459426057117 L -0.4042083599778703 1.469014286405222 L -0.3954643475628208 1.464168752904337 L -0.3863079595286116 1.460160147299912 L -0.380582443923914 1.458228087161419 " id="ID_99C"/>
    <path d="M -0.3550824427127281 1.72472809981949 L -0.3540408521435685 1.714783715903621 L -0.3525223922820082 1.704900301873214 L -0.3506082802917589 1.695085843716405 L -0.3483288356703529 1.685349488944584 L -0.3456784551549399 1.675707460895448 L -0.3427424298958899 1.666150370985663 L -0.3411098392145 1.656288157279336 L -0.3395481897945354 1.646412499608233 L -0.3362659067842886 1.637015141879452 L -0.3317781722289652 1.628098824808947 L -0.331097692504283 1.618173902670662 L -0.331933422022904 1.608208964209753 L -0.3326174914254434 1.598233022498032 L -0.3337700580333163 1.588300526943527 L -0.335272374119473 1.57841443952797 L -0.3368917494871138 1.568546443292097 L -0.3383962045715947 1.558660615009262 L -0.3395596314631595 1.548729462282157 L -0.3401412747281469 1.538748918617017 L -0.3401283951130729 1.528749151280917 L -0.3407025484875845 1.518773034656858 L -0.343048265683441 1.509066203736585 L -0.3465239542527465 1.499691838326738 L -0.3502149687337699 1.490398435696668 L -0.3534653687736382 1.480943825656913 L -0.3613326816310201 1.462733684261614 " id="ID_99D"/>
   </g>
   <g id="ID_0" color="rgb(0,0,0)" stroke="currentColor" fill="none" stroke-width="0.0001074482389119885"/>
  </g>
 </svg>