<?xml version="1.0" encoding="UTF-8" ?>
 <svg viewBox="-0.8630824668414334 -2.645928330558028  0.18764733588725147 0.2917002008388909" xmlns="http://www.w3.org/2000/svg" version="1.0" overflow="visible">
  <defs>
   <g id="ID__#42_Model_Space"/>
   <g id="ID__#42_Paper_Space0"/>
   <g id="ID__#42_Paper_Space"/>
  </defs>
  <g id="draft" transform="matrix(1 0 0 -1 0 0)" stroke-width="1.074482389119885E-4">
   <g id="Layer_#32_1" color="rgb(255,0,255)" stroke="currentColor" fill="none" stroke-width="0.0001074482389119885"/>
   <g id="Poliline" color="rgb(0,0,0)" stroke="currentColor" fill="none" stroke-width="0.0001074482389119885">
    <path d="M -0.8630824668414334 2.602728141522252 L -0.8568879718474944 2.610563876983334 L -0.8508589487050803 2.618539787168694 L -0.8438889892258014 2.625691896926085 L -0.8354512658431021 2.630990890401376 L -0.8256872871413145 2.632812958951497 L -0.8156876793351387 2.63284770424158 L -0.8057350079642109 2.633669678472752 L -0.7961905491768544 2.636603661059478 L -0.7870509075101034 2.640659006128757 L -0.7778466211843345 2.644555006688589 L -0.7679941972226346 2.645928330558028 L -0.7581210448441223 2.644489356666822 L -0.7486799650138299 2.641219467891886 L -0.7395301377864101 2.637185823686753 L -0.7309816502030353 2.632024443459602 L -0.723368956198172 2.625552479544149 L -0.7166425783367716 2.618160508233779 L -0.7107574018730825 2.610080655787992 L -0.7056964091020719 2.60146050746866 L -0.701472106891889 2.592400396306258 L -0.698128654590767 2.582979995450834 L -0.6957217454972673 2.573277142686826 L -0.6935759571650612 2.563509552100311 L -0.6913636107120844 2.553758364714072 L -0.6891065577789313 2.544014266758839 L -0.6868121231798145 2.53428206492426 L -0.6844764275164952 2.524558423829832 L -0.6822447972470301 2.514811232230727 L -0.6805127523792756 2.504964248562941 L -0.6794485287361738 2.495023863576749 L -0.6790801155597661 2.485032795743553 L -0.6793065513374775 2.475036571029498 L -0.6799751063085724 2.465059178468608 L -0.6780841798612461 2.455239775078194 L -0.6762416704927326 2.44541064399397 L -0.675435130954182 2.435471862286894 L -0.6770135025538169 2.425603308128215 L -0.678226726794322 2.415682932336522 L -0.6786313762686618 2.405692165261379 L -0.6786088413726957 2.395692359228693 L -0.6784267270547045 2.385693846599973 L -0.6783812116675004 2.375693899788743 L -0.6789599811749163 2.365714832119559 L -0.6814562672855189 2.356081152026188 L -0.6825824582681435 2.354228129719137 " id="ID_871"/>
   </g>
   <g id="ID_0" color="rgb(0,0,0)" stroke="currentColor" fill="none" stroke-width="0.0001074482389119885"/>
  </g>
 </svg>