<?xml version="1.0" encoding="UTF-8" ?>
 <svg viewBox="1.087970511777084 -0.7377280529395059  0.26983849222148404 0.28992137700912946" xmlns="http://www.w3.org/2000/svg" version="1.0" overflow="visible">
  <defs>
   <g id="ID__#42_Model_Space"/>
   <g id="ID__#42_Paper_Space0"/>
   <g id="ID__#42_Paper_Space"/>
  </defs>
  <g id="draft" transform="matrix(1 0 0 -1 0 0)" stroke-width="1.074482389119885E-4">
   <g id="Layer_#32_1" color="rgb(255,0,255)" stroke="currentColor" fill="none" stroke-width="0.0001074482389119885"/>
   <g id="Poliline" color="rgb(0,0,0)" stroke="currentColor" fill="none" stroke-width="0.0001074482389119885">
    <path d="M 1.122917627488504 0.7267280524170339 L 1.11707142205877 0.7186316432489104 L 1.11128552191626 0.710493474055177 L 1.108907105893407 0.7009142375765496 L 1.10891762682354 0.7007280511821002 L 1.105720528477578 0.6912565507316693 L 1.103248521091253 0.6815685230018415 L 1.101288321669615 0.6717633440256634 L 1.099695181601145 0.6618913884188232 L 1.09836487080559 0.6519803170892278 L 1.097217056988392 0.6420462544617874 L 1.09618499784923 0.6320993310700889 L 1.095208339334052 0.6221466640901792 L 1.09422707557066 0.6121943166086048 L 1.093175104987105 0.60224938791524 L 1.091971241876229 0.5923220163108863 L 1.09050250913992 0.5824309006579435 L 1.088228328081968 0.572697304646546 L 1.087970511777084 0.5627610905421943 L 1.090436735091786 0.5531217700531866 L 1.093332422423877 0.5435663672378297 L 1.094847956124054 0.533687164798323 L 1.095610944596541 0.5237175265959451 L 1.096435967374503 0.5137535822110113 L 1.098499812288085 0.5039870798196678 L 1.101735399395678 0.4945335793734209 L 1.104799011071516 0.4850170283495406 L 1.109024217803786 0.4759664169190501 L 1.115085814247168 0.4680488469653082 L 1.1231946687183 0.4622728771665106 L 1.132894442029265 0.4600608875985657 L 1.142853498098376 0.4591537060427396 L 1.152795712403342 0.4580903082301085 L 1.162673764958658 0.4565331653987635 L 1.17254766968982 0.4549501392496076 L 1.182428053890097 0.4533977605045792 L 1.192315004110351 0.4519079900745791 L 1.202217312098407 0.4505141855079149 L 1.212140186501588 0.4492678460435542 L 1.222092226834412 0.4482693901850237 L 1.232078964391085 0.4478066759303765 L 1.242066206986605 0.4482885153129442 L 1.252060465732101 0.448548187638389 L 1.262030514242782 0.447845156339799 L 1.262030514242782 0.447845156339799 L 1.274815820074053 0.4486183870853502 L 1.291592486289459 0.4504804878311895 L 1.307903048322998 0.4569978053036472 L 1.316291319744067 0.463515122776105 L 1.317689385543104 0.4746877272510979 L 1.320951497949835 0.4881878698135047 L 1.321883582940273 0.4933085941576003 L 1.318155489724972 0.5026190978867682 L 1.312917636513021 0.5127280422525811 L 1.312530996791459 0.513600801424726 L 1.309481271123654 0.523113684878931 L 1.306269673119485 0.5325163025939635 L 1.300957173318511 0.5409713021854526 L 1.296940335833654 0.5501249699421713 L 1.292805241286295 0.5592215597321993 L 1.288003505445061 0.5679762095448134 L 1.285065797771646 0.5775201887139741 L 1.283703845785841 0.5874193314892118 L 1.283610940447112 0.5974136744648267 L 1.284635132747153 0.6073561358401083 L 1.28678820424616 0.6171152193506108 L 1.290367281300438 0.6264376462032182 L 1.295834798921092 0.6347984671332352 L 1.301863376719393 0.6427770728982019 L 1.30792375563591 0.6507314319797893 L 1.313761664967897 0.6588492884177484 L 1.321638716308774 0.6648772093833238 L 1.33079508432388 0.6688870246117684 L 1.340017225711701 0.6727491125948486 L 1.34844685227739 0.6780577385891995 L 1.352917638412919 0.6867280505171359 L 1.357453838067117 0.689885240345312 L 1.357809003998568 0.698643591511603 L 1.351606422793754 0.7064695852340696 L 1.344090275775554 0.7130431445761332 L 1.335554467779832 0.7182307389245964 L 1.326351466737888 0.7221244450960125 L 1.316765009852304 0.7249569058071277 L 1.306976834195705 0.7269956027637346 L 1.29708960790171 0.7284890110096641 L 1.287158016876336 0.7296560609271144 L 1.277212039693684 0.7306949468520454 L 1.267273246569034 0.7317984432252 L 1.257368552577097 0.7331718479725815 L 1.247548795336914 0.7350525539048541 L 1.237917632950711 0.7377280529395059 " id="ID_96A"/>
    <path d="M 1.10891762682354 0.7007280511821002 L 1.11846073024621 0.7022610864065922 L 1.128399096474567 0.7032717713560448 L 1.138397649424796 0.7032199479871882 L 1.148395567518333 0.7030291452650382 L 1.158373922279388 0.7035837759413326 L 1.167282772030335 0.7077488015389122 L 1.177229271896156 0.7087205787752691 L 1.187227099995443 0.7087329593064206 L 1.197212086824642 0.7081956217853858 L 1.207183299742934 0.7074377004555626 L 1.217160230831438 0.7067618324351344 L 1.227155333818463 0.7065042356779277 L 1.237130070067774 0.7071204212405497 L 1.245868955826598 0.711656558793969 L 1.255745213496487 0.7102736586966448 L 1.265451480866755 0.7078480497725935 L 1.275182572110752 0.7055638379771861 L 1.285076549908 0.7041749450784174 L 1.292917635563071 0.7027280512770968 L 1.300932459049562 0.701222680302255 L 1.30757524556725 0.7032422693588849 L 1.312773824686104 0.7041077874471889 L 1.31681725995773 0.7041077874471889 L 1.32491763708299 0.7027280512770951 L 1.32746651723736 0.7022950177242642 L 1.336455911346515 0.6980360143940594 L 1.3444964172834 0.692092826477305 L 1.352917638412918 0.6867280505171359 " id="ID_96B"/>
   </g>
   <g id="ID_0" color="rgb(0,0,0)" stroke="currentColor" fill="none" stroke-width="0.0001074482389119885"/>
  </g>
 </svg>