<?xml version="1.0" encoding="UTF-8" ?>
 <svg viewBox="0.1585601875298321 -1.14772807241346  0.35135741084273525 0.1650000078370787" xmlns="http://www.w3.org/2000/svg" version="1.0" overflow="visible">
  <defs>
   <g id="ID__#42_Model_Space"/>
   <g id="ID__#42_Paper_Space0"/>
   <g id="ID__#42_Paper_Space"/>
  </defs>
  <g id="draft" transform="matrix(1 0 0 -1 0 0)" stroke-width="1.074482389119885E-4">
   <g id="Layer_#32_1" color="rgb(255,0,255)" stroke="currentColor" fill="none" stroke-width="0.0001074482389119885"/>
   <g id="Poliline" color="rgb(0,0,0)" stroke="currentColor" fill="none" stroke-width="0.0001074482389119885">
    <path d="M 0.1724175823421774 1.14772807241346 L 0.167801626722432 1.138873928447164 L 0.1644680512653229 1.129450812045408 L 0.1619899889738319 1.119765027605902 L 0.1602030566556936 1.109927365858482 L 0.159054068671975 1.09999459742192 L 0.1585601875298321 1.090007594858857 L 0.1588066976402871 1.08001240074377 L 0.1599736799974076 1.070085222381154 L 0.1624091876864915 1.060397044848956 L 0.166781601906453 1.051437672761991 L 0.1699175822234338 1.047728067663715 " id="ID_992"/>
    <path d="M 0.5099175983725673 1.045228067544972 L 0.5070210389862249 1.035659206047606 L 0.5033326591082316 1.026368240503266 L 0.4986933921480308 1.017516007219461 L 0.4929568532601146 1.009335097977972 L 0.4860506534478111 1.002118089973535 L 0.4780452945232688 0.9961454288881127 L 0.4691636535342445 0.991573932312308 L 0.4596968743109749 0.9883779866822042 L 0.4499012454501834 0.9863952389533157 L 0.4399533220861267 0.985414133388204 L 0.4299584686638403 0.9852759213980846 L 0.4202656118925781 0.9835530156329284 L 0.4189175940502992 0.9827280645763813 L 0.4098213245380338 0.9868098211280997 L 0.4000386702166577 0.9888270485996812 L 0.3900805470676243 0.989721202650152 L 0.3801061234762084 0.9904307851539417 L 0.3709175917704215 0.9917280650038584 L 0.3549030349221596 0.9928469171281459 L 0.3449109464774578 0.993232536051984 L 0.3349116750028909 0.9933391969419975 L 0.3249122183556921 0.9932519504783297 L 0.314914139994138 0.9930587848054326 L 0.304916373665133 0.9928485940074445 L 0.2949174030713308 0.9927096282240891 L 0.2849175876856407 0.9927280650513559 L 0.2751057102145413 0.9946570929405691 L 0.2652535022046489 0.99636926704882 L 0.2553794939574816 0.9979515697752923 L 0.2454982506024477 0.999488394687086 L 0.2356229035975215 1.001062668572384 L 0.2257676942336451 1.002757088768612 L 0.2159497463654967 1.004655305985615 L 0.2061922993251581 1.006842347296091 L 0.1846246964258604 1.012811222458216 L 0.1846246964258604 1.012811222458216 L 0.1770496827909689 1.018886814343902 L 0.1745546902596233 1.028514027419562 L 0.1733807624312771 1.038443301794199 L 0.1699175822234338 1.047728067663715 L 0.1720626771998681 1.057495076219568 L 0.1744211934967863 1.067212772309481 L 0.176986117216841 1.076878057995291 L 0.1797515579599889 1.086487913825457 L 0.1827126647807002 1.096039316902158 L 0.1858655594424938 1.105529165622678 L 0.1892072217202925 1.114954033324305 L 0.1927356712081405 1.124310708568595 L 0.1964496600787147 1.133595306976353 L 0.196917583505865 1.134728071795993 " id="ID_993"/>
   </g>
   <g id="ID_0" color="rgb(0,0,0)" stroke="currentColor" fill="none" stroke-width="0.0001074482389119885"/>
  </g>
 </svg>