<?xml version="1.0" encoding="UTF-8" ?>
 <svg viewBox="-0.308407781187217 -9.125521925420735  0.1865795223203897 0.1671105493908165" xmlns="http://www.w3.org/2000/svg" version="1.0" overflow="visible">
  <defs>
   <g id="ID__#42_Model_Space"/>
   <g id="ID__#42_Paper_Space0"/>
   <g id="ID__#42_Paper_Space"/>
  </defs>
  <g id="draft" transform="matrix(1 0 0 -1 0 0)" stroke-width="5.039721436807565E-5">
   <g id="Poliline" color="rgb(0,0,0)" stroke="currentColor" fill="none" stroke-width="0.00005039721436807565">
    <path d="M -0.2597494303721533 9.013395438200096 L -0.2611639992256913 9.02298259136756 L -0.2588826731130718 9.032716920150467 L -0.2576229606344524 9.042621642687036 L -0.2580461343446574 9.052604497822905 L -0.2592146076198603 9.06253632935115 L -0.2599719239294638 9.072503926024723 L -0.2588627559146577 9.081950983040487 L -0.2598530708547404 9.091900102052794 L -0.2616231996378229 9.10173811780323 L -0.2644821330089098 9.111313864217284 L -0.2685836244398514 9.120425365916986 L -0.2695824386516961 9.122228451181886 " id="ID_2BF"/>
    <path d="M -0.2962836117949337 8.963529224894078 L -0.2926307546623397 8.972827535418443 L -0.287698718330442 8.98151870990286 L -0.2818237494189155 8.989606292240593 L -0.2753240835187833 8.997203650955273 L -0.2684653063227156 9.004480136354857 L -0.2614721463124505 9.011627606815741 L -0.2597494303721533 9.013395438200096 L -0.2501550951745139 9.016124316716969 L -0.2411767704454419 9.020514120280287 L -0.2325568588381799 9.025581933305215 L -0.2240100401159761 9.03077364079387 L -0.2153162756080569 9.0357132503367 L -0.2063224998965882 9.040078609149825 L -0.1969544599195609 9.043562926290933 L -0.1872454582787588 9.045931011264882 L -0.1773258700410389 9.047156247678602 L -0.1673340675592536 9.047504706686045 L -0.1573555787785237 9.046956951984768 L -0.1474529682079888 9.045572210965585 L -0.137588038716582 9.043934873592747 L -0.1277139083275856 9.042353382571212 L -0.1218282588668273 9.043016809128517 " id="ID_2C0"/>
    <path d="M -0.1280824319308067 9.03872844721585 L -0.1286762228421479 9.038099128309415 L -0.1360105186983951 9.031310263200545 L -0.1440337513897321 9.02534800992539 L -0.152544966749768 9.020103079389976 L -0.1614041334916676 9.015468428963446 L -0.1705155122931803 9.011350482056258 L -0.1798131878397022 9.007671395762705 L -0.1892510573671604 9.004367582529694 L -0.1986271036734131 9.000905879069936 L -0.2076065333632249 8.996510485908988 L -0.2163018102504086 8.991572651627372 L -0.2248689352814601 8.986414058552478 L -0.2334922160647324 8.981351230405897 L -0.2424194928525951 8.97685515519244 L -0.2516126005778094 8.972932544883673 L -0.2604845665956761 8.968318130412987 L -0.2693949422106341 8.963779490718247 L -0.2786346209000641 8.959972343601436 L -0.2884473563043572 8.958411376029918 L -0.2962836117949337 8.963529224894078 L -0.3013042981691081 8.972166513576944 L -0.3049638045987724 8.981462649814809 L -0.3072552409968443 8.991188744976405 L -0.3083251914988594 9.001125983935516 L -0.308407781187217 9.011122434530481 L -0.3077554010917263 9.02109941429916 L -0.3066021575461235 9.031031894123782 L -0.3051558290224703 9.040926443697648 L -0.3036041067410293 9.050805190645315 L -0.3021258083283804 9.060695087751625 L -0.3009029745973901 9.070619404403743 L -0.3001317682761266 9.080588183488912 L -0.3000290695300416 9.090584893840443 L -0.2943238735990894 9.098098981955491 L -0.2894019720471146 9.106793956156363 L -0.28459872328078 9.115558287870002 L -0.2773154112358958 9.12216779908952 L -0.2695824386516961 9.122228451181886 L -0.2603333864344242 9.125521925420735 L -0.2505972322350258 9.123524700566588 L -0.2415967573186313 9.119186939191042 L -0.2329883498348666 9.114104304596195 L -0.2243760123430674 9.109018810503922 L -0.215691849443723 9.104060625544586 L -0.207061939312112 9.09900788351245 L -0.1984757704331494 9.093880817763909 L -0.1899258350874291 9.088693677353485 L -0.1814061430990188 9.083456853384247 L -0.1729119430247676 9.078178464177004 L -0.1644395867964503 9.072865432338421 L -0.1559854695737979 9.067523727427597 L -0.1475459371058463 9.06215925126544 L -0.1391166615780648 9.056778938883776 L -0.1306908126634978 9.051393183546654 L -0.1280824319308067 9.049728447738321 L -0.1218282588668273 9.043016809128517  z" id="ID_2C1"/>
   </g>
   <g id="ID_0" color="rgb(0,0,0)" stroke="currentColor" fill="none" stroke-width="0.00005039721436807565"/>
  </g>
 </svg>