<?xml version="1.0" encoding="UTF-8" ?>
 <svg viewBox="0.065473298688314 -10.34672850934251  0.4504506708788094 0.569011544301258" xmlns="http://www.w3.org/2000/svg" version="1.0" overflow="visible">
  <defs>
   <g id="ID__#42_Model_Space"/>
   <g id="ID__#42_Paper_Space0"/>
   <g id="ID__#42_Paper_Space"/>
  </defs>
  <g id="draft" transform="matrix(1 0 0 -1 0 0)" stroke-width="5.039721436807565E-5">
   <g id="Poliline" color="rgb(0,0,0)" stroke="currentColor" fill="none" stroke-width="0.00005039721436807565">
    <path d="M 0.3649175914854368 10.29672850696764 L 0.3550532010817298 10.29830422744081 L 0.3450619121185694 10.298373939497 L 0.3351394725340508 10.29717347805117 L 0.325374586026351 10.29503031907662 L 0.3157630396832634 10.29227396804681 L 0.3062467579036214 10.28920219400288 L 0.2967447971431314 10.28608603251937 L 0.2871754974754461 10.28319004894781 L 0.2774680025323981 10.28079128831154 L 0.2676005925060325 10.27919403240121 L 0.2609175865457018 10.27872850611269 L 0.2556179293102332 10.27901801616422 L 0.2519629481715384 10.27892194899739 L 0.2479231047040855 10.27892194899739 L 0.2449175857857426 10.27872850611269 L 0.2365426169650879 10.27723553237279 L 0.2266819685436605 10.27557329423014 L 0.21688623853509 10.27357376409816 L 0.2073169753675508 10.27068979412397 L 0.1981042241044228 10.26681179071133 L 0.1892291977770286 10.26220730869065 L 0.1803649301648598 10.25758119871966 L 0.1712009118338127 10.25358437365962 L 0.1616890428964535 10.25051814226932 L 0.151873639162317 10.24864266078742 L 0.1419038234743706 10.24794017006886 L 0.1319123215287421 10.24818420255294 L 0.1219968334943013 10.24808411075264 L 0.1129693454757064 10.2438058741722 L 0.1041725002067695 10.23905226587818 L 0.0954136138519379 10.23422822818201 L 0.0863761983172733 10.2299574161619 L 0.0769175778061708 10.22672850364282 L 0.0750899328263586 10.22549841423197 L 0.0725381006760699 10.22434455409135 L 0.0702818640152998 10.2233786117299 L 0.0685394615710209 10.22289514733211 " id="ID_24C"/>
    <path d="M 0.2899175879231288 9.801728483456404 L 0.2919097235604804 9.802103564244664 L 0.3015974460401676 9.80456624520251 L 0.3110339139396547 9.807868536884758 L 0.3202549685363101 9.811735415198623 L 0.3293564871373329 9.81587817512396 L 0.3384669103460318 9.820000836307536 L 0.3477196563535561 9.823789155382439 L 0.3572193677149213 9.826900297321368 L 0.366928035577132 9.8292900751306 L 0.3767430114461652 9.831200869726445 L 0.386621572370645 9.832752337736826 L 0.3965351228381744 9.834063293391495 L 0.4064641559492257 9.835252845684346 L 0.4163930225602162 9.836444002458515 L 0.4263047534267619 9.83776917666637 L 0.436174135727593 9.839377068523742 L 0.4459576963394074 9.841440086047301 L 0.455512578055342 9.844362033049327 L 0.4645027163693741 9.848717041967271 L 0.4727504394195475 9.854358146687332 L 0.4802713749866659 9.860941904228994 L 0.4872022911586864 9.868147595647343 L 0.4936831832229239 9.8757609494553 L 0.4996262742027149 9.88380018307839 L 0.5048858435053845 9.892301202667547 L 0.5092910668544075 9.90127346432442 L 0.5126691382105985 9.910679244390973 L 0.5148912538347848 9.920422373664486 L 0.5159239695671234 9.930362511486681 L 0.5158502456209657 9.940357039714439 L 0.5148417563876883 9.950302237379013 L 0.513106458774618 9.960148759821278 L 0.5108078758448196 9.969879521110723 L 0.5079258610349209 9.97945396645892 L 0.5046231444723697 9.988892380807856 L 0.5010239683723876 9.998222338315497 L 0.4972098414360114 10.0074667203023 L 0.4932403712349993 10.01664576620698 L 0.489165580987403 10.02577842692925 L 0.485035651072014 10.03488582236997 L 0.4809154965582119 10.04399771208585 L 0.4770014862076764 10.0531987118165 L 0.4735734959984388 10.06259194497024 L 0.4704491835299712 10.07209119666684 L 0.467466175846452 10.0816359904185 L 0.4644955512657827 10.09118469265334 L 0.461424706868157 10.10070143783308 L 0.4580112928440104 10.11009699679739 L 0.4536203113936566 10.11907859963409 L 0.4490369867854796 10.12796582437908 L 0.4452016167319917 10.13719311620289 L 0.4426576953360364 10.14685987850901 L 0.4404057196383953 10.15660230322343 L 0.4371946052854164 10.1660626648138 L 0.4328629120176695 10.175071114969 L 0.4278104662172631 10.18369879012521 L 0.4223294986256266 10.19206236338206 L 0.4166648365583257 10.20030320775632 L 0.4110272384223519 10.20856242450832 L 0.405610631817722 10.21696792081942 L 0.4006054560607489 10.22562319267775 L 0.3962003911459577 10.23459857739185 L 0.3918909890637971 10.24361798811189 L 0.3870518579286735 10.25236883681811 L 0.3821359239496633 10.26107713598213 L 0.3774716208613729 10.26992184804314 L 0.3734019692802786 10.27905279189563 L 0.3703925231615859 10.28858098097384 L 0.3649175914854368 10.29672850696764 L 0.3633345320557249 10.30220866528312 L 0.3599117367079812 10.31160226034632 L 0.3558533780988746 10.32074022929663 L 0.3512932318712396 10.32963868886185 L 0.3463045320411506 10.33830456520351 L 0.340917590345498 10.34672850934251 L 0.3358369472942995 10.3453327116519 L 0.32588409473093 10.3444643193201 L 0.3159175891580617 10.34372850920002 L 0.3084180735243995 10.3383884699826 L 0.2988102043315095 10.33561642280316 L 0.2892147149601687 10.33280135459792 L 0.2795558756367482 10.33021410824176 L 0.269776845184003 10.32813203625303 L 0.2598650334233223 10.32683501231078 L 0.2498738749127742 10.32657689217582 L 0.2469175858807384 10.32672850839256 L 0.2405119964085998 10.32611468116905 L 0.2349175853107681 10.32472850829757 L 0.2265163397980849 10.32334453736403 L 0.216917584455814 10.32072850810758 L 0.2104303402454803 10.31949356617983 L 0.2071162800069004 10.32051221547262 L 0.2049175838858446 10.32072850810758 L 0.1952663867469919 10.32060644676179 L 0.1868448428938318 10.3152342499995 L 0.1774224711695034 10.31218991675498 L 0.1674385456862453 10.31171438899444 L 0.157465495923689 10.31109063245626 L 0.148040708712923 10.30794442672664 L 0.1400164837809568 10.3019876329597 L 0.1315627829902874 10.29665450362824 L 0.1225984182764686 10.29223376213892 L 0.1132441534301201 10.28870787958769 L 0.1036255996857225 10.28598259500701 L 0.0938441540364874 10.28391010951718 L 0.083972599595703 10.2823217801396 L 0.0756009157349071 10.27795774934794 L 0.0709963512618384 10.2691556475769 L 0.0696452213255805 10.25927674822448 L 0.0698063722992481 10.24927917452465 L 0.0696681167136362 10.23928223540396 L 0.06907980377001 10.22929991661027 L 0.06823915114785 10.21933551609133 L 0.0673032538864833 10.20937980048298 L 0.0664323248578391 10.19941797620234 L 0.0657781441536196 10.18943972767336 L 0.065473298688314 10.17944487620969 L 0.065622132355772 10.16944727478885 L 0.0661858061823546 10.15946345140585 L 0.0669699069633136 10.14949441373136 L 0.0679392594257031 10.13954163461448 L 0.0690643195344043 10.12960521037124 L 0.0703173749649704 10.1196840799866 L 0.0716724570058647 10.109776353018 L 0.0731052168800774 10.09987954636027 L 0.0743890294245873 10.08996463309433 L 0.0748621285328035 10.07997758952159 L 0.074934374295589 10.06997798745094 L 0.0751438591914608 10.05998094472851 L 0.0760780182497491 10.05002921294432 L 0.07793541416914 10.04020489254803 L 0.080266641766543 10.03048077539146 L 0.0826965163243481 10.02078059692298 L 0.084865120044416 10.01101964970249 L 0.0865617947373121 10.0011649575622 L 0.0880001028711828 9.991269106074952 L 0.0891948956081281 9.98134089355303 L 0.0901530660196501 9.971387185719976 L 0.0908833592560328 9.961413999893384 L 0.0913961002306314 9.951427260538638 L 0.0917024893111034 9.941432337695067 L 0.0915159892809312 9.931436268782374 L 0.0909499580154707 9.92145244099928 L 0.0906034142315191 9.911459821250068 L 0.0911139284582445 9.901478783244796 L 0.0930249532196506 9.891674270046472 L 0.0949293259657171 9.881871103138101 L 0.0958698103068283 9.871915731892326 L 0.0969305136995136 9.861973324024113 L 0.0988519070522571 9.852166536372758 L 0.1023860614308214 9.842832628078323 L 0.106843761708638 9.834138551108513 L 0.1079180894458291 9.82419694517062 L 0.1094878256801284 9.814323211258229 L 0.1120445951193911 9.804663403495296 L 0.1162148316875786 9.795595022470494 L 0.1224139304636651 9.787784081479124 L 0.1304904081324487 9.781960584682263 L 0.1399574897028701 9.778828273349895 L 0.1498843989757193 9.777716965041252 L 0.1598772393280301 9.777911685469295 L 0.1698206622582568 9.77895934317109 L 0.1796877875793701 9.780583047225276 L 0.1894817069331118 9.782604511091362 L 0.1992151397249442 9.784900328949268 L 0.2089039107803821 9.787377878554606 L 0.2185649835989967 9.789961041783682 L 0.2282161769960718 9.792580448883239 L 0.2378765921945147 9.795165093510795 L 0.247567385732415 9.79763262033393 L 0.2573124953189776 9.799874336062015 L 0.2671384639367806 9.801726375923005 L 0.2749175872106662 9.8027284835039 L 0.2791110238151475 9.802789106092238 L 0.2837054980703755 9.80231839805754 L 0.2875931035174659 9.80172997787621  z" id="ID_24D"/>
   </g>
   <g id="ID_0" color="rgb(0,0,0)" stroke="currentColor" fill="none" stroke-width="0.00005039721436807565"/>
  </g>
 </svg>