<?xml version="1.0" encoding="UTF-8" ?>
 <svg viewBox="0.4390021349363443 -9.08622300966329  0.15836224315177627 0.13097717221307015" xmlns="http://www.w3.org/2000/svg" version="1.0" overflow="visible">
  <defs>
   <g id="ID__#42_Model_Space"/>
   <g id="ID__#42_Paper_Space0"/>
   <g id="ID__#42_Paper_Space"/>
  </defs>
  <g id="draft" transform="matrix(1 0 0 -1 0 0)" stroke-width="5.039721436807565E-5">
   <g id="Poliline" color="rgb(0,0,0)" stroke="currentColor" fill="none" stroke-width="0.00005039721436807565">
    <path d="M 0.564917600984927 9.045395439720014 L 0.5549798316670858 9.046303689054792 L 0.5450422745268249 9.045284563549634 L 0.5352707688236907 9.04316790352181 L 0.5255367659864812 9.040879022792803 L 0.5156638526014117 9.039330350072637 L 0.5056811730674893 9.039401399300488 L 0.4972860422103365 9.035146850359348 L 0.4884665857345301 9.030457896199398 L 0.4791549151668333 9.026816640431873 L 0.469837603657334 9.023190008370355 L 0.4610643819986846 9.018423230725261 L 0.4536663105157004 9.011740812638745 L 0.4515836112268517 9.01072844588592 " id="ID_2AA"/>
    <path d="M 0.4515836112268517 9.01072844588592 L 0.4483993294812141 9.003747378286285 L 0.4429728106276301 8.995348956478479 L 0.4390021349363443 8.986225884299825 L 0.4477322598849929 8.982868673042752 L 0.4569887649807641 8.9790941482311 L 0.4658968341991532 8.9745551341953 L 0.4744910011407058 8.969444719287015 L 0.4828451853777498 8.96394947825467 L 0.4911461487809099 8.95837735827999 L 0.5005757287439403 8.955245837450219 L 0.5105451085281301 8.955424178844599 L 0.5203561120520473 8.957336347539327 L 0.530104056662526 8.959566219280926 L 0.5399366734026021 8.961386326544776 L 0.5497376141641582 8.963368591272054 L 0.5594017137978639 8.96592782088312 L 0.5687659766509068 8.96941883790466 L 0.5775632324278411 8.974151807623528 L 0.585441110713875 8.980289118019982 L 0.592084621887179 8.987745245635846 L 0.5973643780881206 8.99622511314425 L 0.5939381246826745 9.004903673557658 L 0.5888711781620124 9.013524906852187 L 0.5836160098579413 9.02203224102014 L 0.5779879966505562 9.030296549793581 L 0.5718079051047749 9.038154734659448 L 0.564917600984927 9.045395439720014 L 0.5600440098256794 9.054105033920274 L 0.5543269667483326 9.062312445845919 L 0.5482521485173173 9.07025550663515 L 0.5417414633481484 9.077841766948678 L 0.5336231197497332 9.083516482640494 L 0.5240303675494867 9.08622300966329 L 0.5140599696033519 9.086184210308499 L 0.5043899891610862 9.083720607789832 L 0.4953823342393902 9.079405980517802 L 0.4871544623999711 9.073738674654235 L 0.4797171929895523 9.067062416742097 L 0.4730638028211516 9.059602996487964 L 0.4671998233425061 9.051507741571877 L 0.4621576086554127 9.042876759298913 L 0.4578619175681667 9.033849762959775 L 0.454488777191699 9.024441402946298 L 0.4522039332065191 9.014711370320232  z" id="ID_2AB"/>
   </g>
   <g id="ID_0" color="rgb(0,0,0)" stroke="currentColor" fill="none" stroke-width="0.00005039721436807565"/>
  </g>
 </svg>