<?xml version="1.0" encoding="UTF-8" ?>
 <svg viewBox="0.8162496441725579 -1.999443921021867  0.1428654753854054 0.08537531866586612" xmlns="http://www.w3.org/2000/svg" version="1.0" overflow="visible">
  <defs>
   <g id="ID__#42_Model_Space"/>
   <g id="ID__#42_Paper_Space0"/>
   <g id="ID__#42_Paper_Space"/>
  </defs>
  <g id="draft" transform="matrix(1 0 0 -1 0 0)" stroke-width="1.074482389119885E-4">
   <g id="Layer_#32_1" color="rgb(255,0,255)" stroke="currentColor" fill="none" stroke-width="0.0001074482389119885"/>
   <g id="Poliline" color="rgb(0,0,0)" stroke="currentColor" fill="none" stroke-width="0.0001074482389119885">
    <path d="M 0.8162496441725579 1.930062093947331 L 0.8207946848285647 1.9211651554682 L 0.8271790534353629 1.914068602356001 L 0.8371176851053868 1.914690833714155 L 0.846734239674597 1.917409227897893 L 0.8562943582847148 1.920336790818137 L 0.8661215005708449 1.922142725154429 L 0.8760676661728554 1.923172918664555 L 0.8860168897927698 1.92417571347563 L 0.8958646060713615 1.92588657335014 L 0.9053629177541759 1.928973463058653 L 0.9143122878222236 1.933428298668752 L 0.9228477071208436 1.938633048611077 L 0.9309237977564341 1.944524551971376 L 0.938458264029367 1.951094447163029 L 0.945318651164853 1.958363828321694 L 0.9512955402210421 1.9663726868154 L 0.956058956888631 1.975152809535879 L 0.9591151195579632 1.984655266211234 L 0.952214571711524 1.989119416612224 L 0.942572061346012 1.991766367295413 L 0.9328689288948854 1.994183502991271 L 0.923089875495795 1.996273983840874 L 0.9132291925408901 1.99793224321514 L 0.903291820353492 1.999036833918088 L 0.8933025547451958 1.999443921021867 L 0.8833170717172951 1.99898503472141 L 0.873437544091705 1.997473791504075 L 0.8638283109576727 1.994730967402501 L 0.854717069482513 1.990635365055757 L 0.8465444454411858 1.984927060282689 L 0.8398853883508863 1.977482442943271 L 0.8332209161446115 1.970038017145677 L 0.824896500283403 1.96460576344914 L 0.8185178315950113 1.958793439751746 L 0.8176778825599342 1.948838871914075 L 0.8174364375723195 1.938842330520657  z" id="ID_84B"/>
   </g>
   <g id="ID_0" color="rgb(0,0,0)" stroke="currentColor" fill="none" stroke-width="0.0001074482389119885"/>
  </g>
 </svg>