<?xml version="1.0" encoding="UTF-8" ?>
 <svg viewBox="0.5419513423806483 -8.833728437478872  0.2340706173922733 0.349632453081707" xmlns="http://www.w3.org/2000/svg" version="1.0" overflow="visible">
  <defs>
   <g id="ID__#42_Model_Space"/>
   <g id="ID__#42_Paper_Space0"/>
   <g id="ID__#42_Paper_Space"/>
  </defs>
  <g id="draft" transform="matrix(1 0 0 -1 0 0)" stroke-width="1.074482389119885E-4">
   <g id="Poliline" color="rgb(0,0,0)" stroke="currentColor" fill="none" stroke-width="0.0001074482389119885">
    <path d="M 0.6339176042622512 8.833728437478872 L 0.6240314755940606 8.83229898273871 L 0.6144976792630495 8.829315123275933 L 0.6055176814579859 8.82493502722599 L 0.597230057347307 8.819352315432674 L 0.5897213522253076 8.812757427113329 L 0.583046578012965 8.805318601548102 L 0.5786324453863472 8.79930070146864 L 0.5701641022627673 8.794010306612758 L 0.562661157500453 8.787411954319303 L 0.5560884221358445 8.779883804300447 L 0.5504854039308045 8.771608254716257 L 0.5459849584521052 8.76268634595296 L 0.5428408944555941 8.753204781646518 L 0.5419513423806483 8.74328643284776 L 0.5434246671996839 8.733406629295258 L 0.546028166879057 8.72375398881292 L 0.5491172667831083 8.714243227904431 L 0.5523145440934885 8.704768169954669 L 0.5560879758690227 8.69551015884555 L 0.5604222781979705 8.68649932473728 L 0.5650327775303561 8.677625680487925 L 0.5696819862978666 8.668772242475193 L 0.5741801439974425 8.659841375983458 L 0.5785905640346556 8.650866510882238 L 0.5829958608700015 8.64188912013294 L 0.5873967252521162 8.63290954228738 L 0.5917939174756075 8.623928144752462 L 0.596188275586977 8.61494533294309 L 0.6005806125360769 8.605961791754337 L 0.604972150380795 8.596977634842087 L 0.6093639487570269 8.587993619085275 L 0.6137573077420094 8.579010376441202 L 0.6181536988357639 8.570028624062854 L 0.6225435039980836 8.561043588097395 L 0.626723589692956 8.551959525655658 L 0.6306778328388454 8.542774691938995 L 0.6344949651731167 8.533531928995544 L 0.6382836455321536 8.524277349639519 L 0.6421883132763684 8.515071467422837 L 0.6464254783985757 8.506014781825838 L 0.6514204271206951 8.497358983192491 L 0.6578901493730163 8.489770407367908 L 0.6664935766615266 8.484827752358312 L 0.6763913260665797 8.484095984397165 L 0.6860178711851708 8.486699721433366 L 0.6950563784756377 8.490966572414202 L 0.7044216688086343 8.494465786577392 L 0.7139912171612659 8.497368932522376 L 0.7237286749821683 8.49963243569211 L 0.7284176087507604 8.500228421638472 L 0.7286507808985894 8.500421674349106 L 0.7368862207091444 8.506075602010185 L 0.745724411910226 8.510748394479238 L 0.7546670561720364 8.515223286755864 L 0.7632647195256732 8.52031839136623 L 0.7709176107694021 8.526728422897154 L 0.771326485634952 8.527702253075365 L 0.7743823057212156 8.537212166845144 L 0.7759173698387505 8.547083054808217 L 0.7760219597729217 8.557074805093855 L 0.7749404629613404 8.567011472862392 L 0.7729766557332703 8.57681439781207 L 0.7704252353837893 8.58648254417678 L 0.7675500967198188 8.596060159160206 L 0.7645912660373755 8.60561245593322 L 0.7617830969266617 8.615209736344617 L 0.7593748965899892 8.62491410128391 L 0.757648052596279 8.634760802724221 L 0.7569176101044377 8.644728428501853 " id="ID_326"/>
    <path d="M 0.5786324453863472 8.79930070146864 L 0.5783633995238393 8.78931589589612 L 0.5772209624456694 8.779381555936531 L 0.5767250212130178 8.769402534175171 L 0.5784062356596102 8.759579360305734 L 0.5820368564752858 8.750265936282476 L 0.5857643606223589 8.740989249078776 L 0.5889839660537702 8.731521519131912 L 0.5922920393877887 8.722084688058281 L 0.5956964238452667 8.71268207202543 L 0.5992029163860249 8.703317461073604 L 0.6028163748467206 8.693993313144267 L 0.6065397841724663 8.684712613660551 L 0.6103746832337267 8.675477364384072 L 0.6143209293035428 8.666289118443984 L 0.6183772229978333 8.657147966865463 L 0.6225398864411185 8.648055670595793 L 0.6268052064040566 8.63901094794386 L 0.6311681537333174 8.630013008756006 L 0.6356232360997485 8.62106032429239 L 0.6403430952554166 8.612245430945984 L 0.6454242762147926 8.6036330913749 L 0.6507173316182664 8.595149883488688 L 0.6560797503250227 8.586709226693198 L 0.6613674301681316 8.578221698786978 L 0.6664287575449422 8.569597757617634 L 0.6710970212414562 8.560755811670512 L 0.6751872974372528 8.551633264769993 L 0.6785023839787794 8.542202551976095 L 0.683005611526654 8.533977119486304 L 0.6922593276766067 8.530251472354445 L 0.7020411549014094 8.52819847982831 L 0.7119072407187499 8.526569160024597 L 0.7159176081570431 8.525728422849657 L 0.7311946270951211 8.525720891429547 L 0.7457892939783904 8.529962112779575 L 0.7593225619970099 8.530757354959452 L 0.7724770824800187 8.531282986388021 " id="ID_327"/>
   </g>
   <g id="ID_0" color="rgb(0,0,0)" stroke="currentColor" fill="none" stroke-width="0.0001074482389119885"/>
  </g>
 </svg>