<?xml version="1.0" encoding="UTF-8" ?>
 <svg viewBox="1.566917648577373 -1.13739372879808  0.5088768644475581 0.3484703705664538" xmlns="http://www.w3.org/2000/svg" version="1.0" overflow="visible">
  <defs>
   <g id="ID__#42_Model_Space"/>
   <g id="ID__#42_Paper_Space0"/>
   <g id="ID__#42_Paper_Space"/>
  </defs>
  <g id="draft" transform="matrix(1 0 0 -1 0 0)" stroke-width="1.074482389119885E-4">
   <g id="Layer_#32_1" color="rgb(255,0,255)" stroke="currentColor" fill="none" stroke-width="0.0001074482389119885"/>
   <g id="Poliline" color="rgb(0,0,0)" stroke="currentColor" fill="none" stroke-width="0.0001074482389119885">
    <path d="M 1.569417648696116 0.8312280573805175 L 1.577543034900713 0.8254710710686552 L 1.58362796279751 0.8175727741057716 L 1.587881881134142 0.808535624144028 L 1.591013863184628 0.7990416401519962 L 1.593759606968633 0.7894260916116345 L 1.602715983019034 0.7889233582316262 L 1.610680010143255 0.7949530102425904 L 1.618100063404919 0.8016566320572344 L 1.625623887863456 0.8081400007360368 L 1.627977592511745 0.8178250728376141 L 1.628781078547077 0.8277924109586436 L 1.630245926892098 0.8376710837982113 L 1.637251872017476 0.843912622041735 L 1.64429188516074 0.8509445603270471 L 1.64923530011347 0.8596237202260095 L 1.654085575414035 0.868358912327375 L 1.661458957319051 0.874977030755632 L 1.668820013743321 0.8816697183385535 L 1.67362315808701 0.8904154149762817 L 1.677175449674447 0.8997618427790854 L 1.681180590081964 0.9089118681148136 L 1.688064306202611 0.9159719247531761 L 1.697324727018865 0.9197184260375248 L 1.706711501287951 0.9231649263965842 L 1.716247385024606 0.926173170616888 L 1.725849672010238 0.9289656401668474 L 1.735451896316869 0.9317551431252031 L 1.744991200312285 0.9347556896609638 L 1.754364615932324 0.9382331742681007 L 1.763554361780651 0.9421743302431018 L 1.772485871278911 0.9466680089122991 L 1.780856896610866 0.9521202819377148 L 1.787464581589684 0.9595145723491249 L 1.791733447906001 0.9685498483847857 L 1.797631849036724 0.9766101762967274 L 1.804656654686707 0.9837193113126385 L 1.812345014888983 0.9901089883853035 L 1.820329338035062 0.9961289853294913 L 1.828308753304321 1.002155740718562 L 1.835913999319455 1.008637721499519 L 1.842869155795045 1.015818626690961 L 1.851087852963685 1.021475975125136 L 1.860186328316889 1.025608633549017 L 1.869638889940996 1.028866444863856 L 1.879217186502139 1.03174050111769 L 1.888786729088885 1.034641599299213 L 1.898198664592467 1.038014690989436 L 1.907364209102743 1.042011560033413 L 1.916550540016488 1.045961624112484 L 1.926300841902195 1.047849156609645 L 1.936057939284987 1.045814001691981 L 1.945707755926868 1.043200975627572 L 1.955526163356659 1.041308651269513 L 1.965398962528088 1.03972612913277 L 1.975264339835879 1.038093771409803 L 1.985049625794836 1.03603790232947 L 1.994661632797474 1.033290155656784 L 2.004082354668121 1.029929225481541 L 2.01349241036007 1.0265541874051 L 2.022900241629744 1.023164623896105 L 2.03227662219371 1.019687597266273 L 2.041595080897813 1.016061363348045 L 2.050833883478027 1.012236325960135 L 2.059973278045654 1.008176432783724 L 2.068908788212945 1.003696661613169 L 2.075794513024931 1.003331291146995 L 2.074479225519954 1.015280834792903 L 2.07224715945406 1.025025695555731 L 2.069207756937508 1.034547251868289 L 2.065132882653433 1.043670331378457 L 2.059896199161978 1.052179206116228 L 2.053709821238517 1.060031422335992 L 2.047167508756645 1.067595138775606 L 2.040942252772219 1.075417417109122 L 2.035477239027353 1.083786285610154 L 2.030639213270982 1.092537554368089 L 2.025482014989187 1.101103884898845 L 2.019790728886289 1.109323235071084 L 2.013389132272656 1.116999532771034 L 2.006107364947025 1.123840936374717 L 1.997867603463617 1.129485856488372 L 1.988783327116515 1.133632788108563 L 1.979133277268145 1.136213627355843 L 1.969210418325937 1.13739372879808 L 1.959222340592908 1.137141844111306 L 1.94935353354208 1.135562615037803 L 1.93970456087808 1.132948566402232 L 1.930275679836869 1.129622651855157 L 1.920989037746763 1.12591445630443 L 1.911706090878516 1.122197116123576 L 1.902629259058727 1.118041914402983 L 1.894466092280555 1.112280738607459 L 1.886802681163592 1.105857071535087 L 1.879035574969574 1.099559686960223 L 1.870797169713312 1.093900132271592 L 1.862048483502194 1.089061182581161 L 1.853098747515089 1.084600418662242 L 1.844047471037387 1.080349655987134 L 1.834946356273444 1.07620594067939 L 1.825840998594044 1.072071134791219 L 1.816775998209128 1.06784871128268 L 1.807800072286783 1.063440814078749 L 1.798971369855728 1.058745878471697 L 1.790361413118368 1.053661531530167 L 1.78182438604316 1.048454233654465 L 1.773206234089271 1.043382617156835 L 1.764472799371268 1.038512625359226 L 1.755594450964526 1.033912370673691 L 1.746537185091166 1.029677228965391 L 1.737263069648526 1.025938761206095 L 1.727887772487089 1.022460175396124 L 1.71850243893388 1.019007479192152 L 1.709187403610599 1.015371091120309 L 1.700038798799035 1.011335655772398 L 1.691203351705096 1.006658771036899 L 1.682881606450933 1.001121217709769 L 1.674972026948979 0.995004099878967 L 1.667003807873048 0.9889655108520329 L 1.65832933961224 0.9840192392608315 L 1.649114955759976 0.9801392092501046 L 1.639644466894283 0.976935607010084 L 1.629976201901895 0.9743857069145107 L 1.620390963390369 0.9715409952554878 L 1.610990901766957 0.9681327345479004 L 1.601779531655287 0.9642426645698805 L 1.592759512378979 0.959927144097307 L 1.583935565302495 0.9552236564804807 L 1.575316450103469 0.9501544057863373 L 1.566917648577373 0.9447280627714782 " id="ID_937"/>
   </g>
   <g id="ID_0" color="rgb(0,0,0)" stroke="currentColor" fill="none" stroke-width="0.0001074482389119885"/>
  </g>
 </svg>