<?xml version="1.0" encoding="UTF-8" ?>
 <svg viewBox="-0.7092519329170895 -10.88800978354308  0.5100630969332444 0.5182500224954794" xmlns="http://www.w3.org/2000/svg" version="1.0" overflow="visible">
  <defs>
   <g id="ID__#42_Model_Space"/>
   <g id="ID__#42_Paper_Space0"/>
   <g id="ID__#42_Paper_Space"/>
  </defs>
  <g id="draft" transform="matrix(1 0 0 -1 0 0)" stroke-width="5.039721436807565E-5">
   <g id="Poliline" color="rgb(0,0,0)" stroke="currentColor" fill="none" stroke-width="0.00005039721436807565">
    <path d="M -0.3016849395355399 10.87037280309455 L -0.2987154227224664 10.86086368011159 L -0.29329751458285 10.85248497457506 L -0.2864722036668761 10.84518566399416 L -0.2790446881839648 10.83849148391222 L -0.2715078967429338 10.83191913896895 L -0.2642230585886924 10.82507118738996 L -0.257387935990165 10.81777300369442 L -0.2506535704808783 10.81038093601021 L -0.2440486348125868 10.80287318259331 L -0.2376617539352761 10.79517938790925 L -0.2315819476877747 10.78724107589493 L -0.2258879627851504 10.7790201342308 L -0.2206413240402618 10.77050829121887 L -0.2158749521680301 10.76171837197485 L -0.2115956877354517 10.75268178096282 L -0.2090824357781003 10.74672852834149 L -0.2079357488558458 10.74379244509247 L -0.2052607700775866 10.73922170000779 L -0.2030824354931155 10.73472852777152 L -0.2016000317710267 10.72486965679359 L -0.1991888359838452 10.71516750607656 L -0.1992302091986815 10.70524685799714 L -0.2010824353981206 10.70072852615661 L -0.2025921762056271 10.69744246161477 L -0.2046703889716923 10.69529490012887 L -0.2086833768407814 10.69264620113992 L -0.2126247943645296 10.69028394675375 L -0.215082436063085 10.68872852558664 L -0.2152432292621524 10.68857383828505 L -0.2225832707724882 10.68178325895134 L -0.2301623885037749 10.6752604467367 L -0.2379477348817138 10.66898507362148 L -0.2459069382761836 10.66293159069006 L -0.2540087081812397 10.65707016418081 L -0.2622232634454118 10.65136752222046 L -0.270521953394848 10.64578809576929 L -0.2788776592126201 10.6402943571271 L -0.287264137054315 10.63484767531355 L -0.2957494320820615 10.63006250717515 " id="ID_22C"/>
    <path d="M -0.7017494513660268 10.4180624971057 L -0.6948991846619545 10.41077960885871 L -0.6874675321794089 10.40409555605014 L -0.6792442948973854 10.39842216670114 L -0.6701913041296859 10.39420707087075 L -0.6605261338968696 10.39169332013534 L -0.6505778973753138 10.39077371360353 L -0.6405901092296018 10.39113236999217 L -0.6306802203112705 10.39244408776286 L -0.6290824557270298 10.3927285115274 L -0.6258563490617304 10.39330280226559 L -0.6218681840651143 10.39401274972163 L -0.6165272866774956 10.39460410573683 L -0.6130824549670706 10.39472851162239 L -0.6030840194257348 10.39457848201809 L -0.5930862408153362 10.39476408682638 L -0.5831015645393763 10.3953072043425 L -0.5731449541565256 10.39623084804246 L -0.5632342611427906 10.3975588456307 L -0.5533905842915683 10.39931535770222 L -0.5436385661333861 10.40152420361816 L -0.5390824514522592 10.40272851200237 L -0.535044458208442 10.4037958664171 L -0.5353493139698992 10.40371528452327 L -0.5250824507872949 10.40472851209736 L -0.5151315052664504 10.40571056203908 L -0.5052300370445097 10.40710563086018 L -0.495395925683952 10.40891535355586 L -0.4856470555825707 10.41113884915718 L -0.4760009731687474 10.41377267830316 L -0.4664744025300803 10.41681093592591 L -0.461082447747458 10.41872851276233 L -0.4497393609563592 10.42276253036097 L -0.4328167002852093 10.42878084902682 L -0.4155201721239222 10.43493212868138 L -0.4002133423356309 10.44037579863494 L -0.387165860392173 10.44450822300778 L -0.3793213347826452 10.44854501174017 L -0.3721901368473084 10.45483765713336 L -0.3636758639567912 10.46235074267195 L -0.3555503285304269 10.47252821156398 L -0.3532921504976798 10.48143294219783 L -0.3531009002802818 10.48808209727452 L -0.3530824426177332 10.49272851627714 L -0.3525393058911792 10.50271028769951 L -0.3513950208090906 10.51264419754102 L -0.350268501398121 10.52258003453588 L -0.3498032483712565 10.53256493272517 L -0.3506524473832737 10.54251772651079 L -0.3510824425227383 10.54472851874701 L -0.3514742340290411 10.54813700731179 L -0.3511236581258856 10.55216430879654 L -0.3510824425227383 10.55872851941197 L -0.3510723868001806 10.55887033987653 L -0.3503483334883635 10.56884411598147 L -0.3496312790507385 10.57881839397936 L -0.3489689651093331 10.58879652867626 L -0.3484066494507463 10.59878086546047 L -0.347999827835169 10.608772802452 L -0.347831861596557 10.6187715637404 L -0.3480554158209177 10.62876870367142 L -0.3489993354693119 10.63872092181969 L -0.3495932806798754 10.64869794700345 L -0.3491732571982169 10.65868585592132 L -0.3481192770359902 10.66862955391972 L -0.3469316260521076 10.67855858733988 L -0.3460424454743451 10.68851784900353 L -0.3456953482526064 10.69851083523644 L -0.3455408029165312 10.70850942195163 L -0.3450395016089729 10.71849510009823 L -0.3435141252671103 10.72836918011941 L -0.34033787958034 10.73784006664246 L -0.3383946940116314 10.74762898780275 L -0.3380448862889418 10.7576183824669 L -0.3381645723607702 10.76761773018165 L -0.3379173313796473 10.77761348188977 L -0.3371868475150226 10.78758588616916 L -0.3360446388911846 10.79751961622583 L -0.3345955077978999 10.80741404879635 L -0.3329626959064997 10.81727964145951 L -0.3330824416677842 10.82672853214129 L -0.3329636734530847 10.83671477109294 L -0.3311979947764172 10.84654759667681 L -0.3280750810585005 10.85604044650098 L -0.32388879323035 10.86511718268746 L -0.3188847333919096 10.87377161350325 L -0.3132522135540379 10.88203254104229 L -0.3066865993726884 10.88800978354308 L -0.3017908502763511 10.88033990813217 L -0.3016849395355399 10.87037280309455 L -0.3018556421066592 10.86904948352861 L -0.3025682273498944 10.86513441266963 L -0.3029244457284221 10.86038889140066 L -0.3030824402428607 10.85072853328123 L -0.3007047214502174 10.84111623438106 L -0.3010824401478658 10.83872853271126 L -0.3017135408193496 10.83698005657649 L -0.3021300445925021 10.83234283048243 L -0.3013447011143739 10.8219138153946 L -0.3013447011143739 10.8219138153946 L -0.3013447011143739 10.81791926248319 L -0.3010824401478658 10.81272853147632 L -0.3009470927246953 10.81064033445019 L -0.3008761372488289 10.8006437456007 L -0.3014848590332262 10.79066334376422 L -0.302362686775651 10.78070199616505 L -0.3030824402428607 10.77072852948143 L -0.3030300194120912 10.76514570959488 L -0.3030824402428607 10.75472852872147 L -0.3027392641094293 10.75236356249283 L -0.3012540497625871 10.74247451184479 L -0.2997974456213948 10.73258111976783 L -0.2985132839619773 10.7226642473867 L -0.2975433627454107 10.71271207047766 L -0.2970245599662178 10.70272667913539 L -0.297082439957876 10.68072852520666 L -0.2968912889405475 10.67984120397413 L -0.2959198846869828 10.66990384062548 L -0.2963082046192591 10.65991421820301 L -0.2970353897347211 10.64994091299475 L -0.2971560391103898 10.63994661204603 L -0.2957494320820615 10.63006250717515 L -0.2978465939984103 10.62028763093327 L -0.2992009035074057 10.61038188006913 L -0.2999111584155454 10.60040865433719 L -0.3000927869597234 10.59041116846459 L -0.2998671094319833 10.58041424692079 L -0.2993547839484289 10.57042762915781 L -0.2986729991955732 10.56045098412558 L -0.2979352675364 10.55047826661309 L -0.2972525791520786 10.54050168222297 L -0.2967349496744651 10.53051608763194 L -0.2964923125054453 10.52051879266572 L -0.2966345857667587 10.51052070659269 L -0.297082439957876 10.50272851675212 L -0.29668396444925 10.50037980351213 L -0.2978463083124163 10.49473338275389 L -0.2990824400528709 10.48872851608715 L -0.3010866334879259 10.47899256808258 L -0.3070824404328505 10.46272851485222 L -0.3089518187498363 10.45733051423428 L -0.3124234893257638 10.4479530914378 L -0.3163856743598412 10.43877376639934 L -0.321150551056804 10.42998777257259 L -0.3270195164955068 10.42190301580796 L -0.3341544074599936 10.41491615946798 L -0.342448899167219 10.40935614530483 L -0.3515785327589045 10.40530419515864 L -0.3610776299816853 10.40218225659109 L -0.3704511692297796 10.39869963871292 L -0.3797692911530799 10.39506998077082 L -0.3891840008444935 10.3917036214043 L -0.3988377085243053 10.38909851961546 L -0.4085708255826344 10.3868042691024 L -0.4183353935384329 10.38464715692745 L -0.4281062851064137 10.38251806733408 L -0.4378632427643128 10.38032696709854 L -0.4476054012169213 10.37807199753005 L -0.4574441251779185 10.37629023851004 L -0.4673592898346231 10.3749966685177 L -0.4773170515991172 10.3740827867199 L -0.4872971326459439 10.37345377253291 L -0.4972878219500876 10.37302446222411 L -0.5072832808689132 10.37271495555276 L -0.5172799205294539 10.37244595719269 L -0.5272749272098132 10.37213329474617 L -0.5372646475722985 10.37168084496328 L -0.5472440370532397 10.37104166453665 L -0.5572225877504203 10.37039397317127 L -0.5672093913536731 10.3698906571332 L -0.5772072868129979 10.3697597610476 L -0.5871903750768804 10.37029148512687 L -0.5970824542071114 10.37172851052995 L -0.6040469044317476 10.37274023837397 L -0.6110824548720748 10.37272851057745 L -0.6164034108088359 10.37273231192157 L -0.6264002132289317 10.37248836183099 L -0.6363957419370037 10.37219271294606 L -0.6463941915659018 10.37224209853685 L -0.6563507258467132 10.37311641868919 L -0.6660932704731835 10.37532334972692 L -0.6752915563083866 10.37920771595991 L -0.6836612509026782 10.38466216272128 L -0.6910840320389644 10.39134362601425 L -0.6970243234602967 10.39936247132206 L -0.7009869022043258 10.40851980094696 L -0.7017494513660268 10.4180624971057 L -0.7048889904346014 10.42751165552994 L -0.7075004289925912 10.43715688142365 L -0.7089317136350193 10.44705034272286 L -0.7092519329170895 10.45704057481098 L -0.708637665265627 10.4670186542496 L -0.7073240801354768 10.47693055170169 L -0.7055609881725468 10.48677209397057 L -0.70358683520994 10.49657964490262 L -0.7016275698047121 10.50638411821894 L -0.6998908535153321 10.51623114014308 L -0.6985090134739167 10.52613390255894 L -0.696885724239312 10.53600057372847 L -0.6945494594024942 10.5456917600545 L -0.6889237290804742 10.55388641842187 L -0.6812450711710012 10.56027531624839 L -0.6732058112694768 10.56623449876141 L -0.6658680700755549 10.572998928374 L -0.6600363470472939 10.5810967335654 L -0.6554059875652749 10.58995525863824 L -0.6492815649087041 10.59782894873222 L -0.640994331100818 10.60325452481262 L -0.6323977185572556 10.60821545326074 L -0.6261243847864444 10.61600002009441 L -0.6194943708114993 10.62348170302788 L -0.6117730761080811 10.62977163388034 L -0.6034870732852342 10.63532614697864 L -0.5963381955898939 10.64231784380089 L -0.5890353795563437 10.64914388332582 L -0.5807539864266511 10.65471205735201 L -0.571503632871206 10.65847729507978 L -0.5618218703117668 10.66095727940321 L -0.552048055737517 10.66306974939561 L -0.5423034999951737 10.66531586048991 L -0.5325685911094116 10.66760335849101 L -0.522825778560013 10.66986083870981 L -0.5130615630246949 10.67202173724268 L -0.5032619532057013 10.67401375084636 L -0.4934133875670073 10.67574578599869 L -0.483504726200394 10.67708736153292 L -0.4735358887390078 10.67785550955882 L -0.4635442102228851 10.67826111632226 L -0.453556610981944 10.67874985067655 L -0.4436197139096585 10.67984015494146 L -0.4339005077022966 10.68214829845588 L -0.4247795521597775 10.68620308255703 L -0.4170722491249155 10.69252211104141 L -0.4101415353513361 10.69972862348614 L -0.4019750543578767 10.70541470328411 L -0.3937228053295918 10.71001448291559 L -0.3881084849988436 10.71828967116243 L -0.3825671288660333 10.72661394022513 L -0.3771515525189084 10.73502016890547 L -0.3719198161656649 10.74354226167229 L -0.3669369005125374 10.75221167545118 L -0.362273559996706 10.76105687684036 L -0.3580058416984855 10.77009943533153 L -0.3542124554677137 10.77935050450651 L -0.3509698992776302 10.78880832700306 L -0.3483078313262142 10.79844599950907 L -0.3455407685215395 10.80805228526644 L -0.3413360618932328 10.8171029190953 L -0.3350841587592788 10.82487543885405 L -0.3330824416677842 10.82672853214129 " id="ID_22D"/>
   </g>
   <g id="ID_0" color="rgb(0,0,0)" stroke="currentColor" fill="none" stroke-width="0.00005039721436807565"/>
  </g>
 </svg>