<?xml version="1.0" encoding="UTF-8" ?>
 <svg viewBox="-1.825540864718738 -1.945762522557082  0.35228931184899004 0.29004867209500107" xmlns="http://www.w3.org/2000/svg" version="1.0" overflow="visible">
  <defs>
   <g id="ID__#42_Model_Space"/>
   <g id="ID__#42_Paper_Space0"/>
   <g id="ID__#42_Paper_Space"/>
  </defs>
  <g id="draft" transform="matrix(1 0 0 -1 0 0)" stroke-width="1.074482389119885E-4">
   <g id="Layer_#32_1" color="rgb(255,0,255)" stroke="currentColor" fill="none" stroke-width="0.0001074482389119885"/>
   <g id="Poliline" color="rgb(0,0,0)" stroke="currentColor" fill="none" stroke-width="0.0001074482389119885">
    <path d="M -1.794749503280741 1.787728102811829 L -1.784876016710676 1.789195063246525 L -1.774931840250174 1.788401507517608 L -1.76544746379964 1.785299319743028 L -1.756753768097462 1.780382448894446 L -1.748820882345905 1.77430264374697 L -1.741423005484714 1.767576841599122 L -1.734289429235357 1.760569416820631 L -1.727151850195637 1.753566077214685 L -1.719744922355937 1.746850236514939 L -1.711807199861851 1.740776527088186 L -1.703126104510629 1.735836227170283 L -1.696824313063558 1.728316442569227 L -1.69029071270768 1.721079736776008 L -1.680376499016029 1.719913223185935 L -1.670384258093895 1.720180105573737 L -1.660412045708141 1.720921907801253 L -1.650424695792835 1.721367996935287 L -1.640463246388007 1.720643982366144 L -1.630981514850365 1.71759374951171 L -1.623175699356543 1.711440777807331 L -1.621082502844501 1.708728099059531 L -1.620033139952653 1.700744206049979 L -1.620561917751359 1.689388673385327 L -1.621354961076121 1.678297237584576 L -1.622148004400884 1.667998022099627 L -1.62267678219959 1.661131925293606 L -1.622940184648542 1.658763768022986 " id="ID_85E"/>
    <path d="M -1.794749503280741 1.787728102811829 L -1.795658447907093 1.797631375025856 L -1.793273674408539 1.807309075818945 L -1.788981949861297 1.816333443871778 L -1.784084672680906 1.825051783088596 L -1.77945427788329 1.833912393350978 L -1.775834242072691 1.843222523661161 L -1.774151673540384 1.853071195247579 L -1.770973935690091 1.862436720766776 L -1.76458692778338 1.870107902896476 L -1.757278553388604 1.876931840726262 L -1.750075036382341 1.883863887805373 L -1.743992150297039 1.891775198369193 L -1.740402906635901 1.901053568298513 L -1.740064153914961 1.91103532670799 L -1.733463857766695 1.917557313527758 L -1.724013259271452 1.920788905732772 L -1.71445396812436 1.923713506507761 L -1.705430949520361 1.927989910881418 L -1.697033710672593 1.933417705797204 L -1.688738899144742 1.939000351578778 L -1.679956057109464 1.943757182843873 L -1.670233492774931 1.945762522557082 L -1.660393722196882 1.94421839234552 L -1.651262641092336 1.940186616627032 L -1.64288225460901 1.934740115178158 L -1.634984059946382 1.928608761921969 L -1.627285695578915 1.922226568157363 L -1.619549725023006 1.91589043194342 L -1.611577392554948 1.909855830622419 L -1.602991529911295 1.904750170428727 L -1.594571958731287 1.899401189932781 L -1.587164913413533 1.892686715286611 L -1.580140683309597 1.885569998815698 L -1.573308092618503 1.878267402936057 L -1.566546254503378 1.870898761071222 L -1.559762172313791 1.863553243038282 L -1.552864160505893 1.856312962351877 L -1.545751788391299 1.84928401875962 L -1.538297624566165 1.842620470287828 L -1.530536457841265 1.836315527545453 L -1.522619374864978 1.830207181982515 L -1.514665991134232 1.824141548908201 L -1.506803160293959 1.817965991782559 L -1.499181125233128 1.811492254050664 L -1.492054356571411 1.804482541567027 L -1.48590439445546 1.796612988508908 L -1.481821410837811 1.787542210764783 L -1.481708736550033 1.777577738559852 L -1.48214320484224 1.767603917769855 L -1.480220112967199 1.757796874417667 L -1.477551493516356 1.748160320634603 L -1.47490140708314 1.738518613315116 L -1.473251552869748 1.728667240897019 L -1.474257938018764 1.71881906179626 L -1.481222176109384 1.711651781621887 L -1.489104125469927 1.705513463337307 L -1.497774523721427 1.700543094609477 L -1.50679969005079 1.696238309833871 L -1.515780625003737 1.691842087891258 L -1.524655168243007 1.687232852678025 L -1.533625012434047 1.682814334830322 L -1.542938389674527 1.679198595503006 L -1.552866849188842 1.678149399744008 L -1.562573633449033 1.675950513812164 L -1.571594906086384 1.671648390673608 L -1.580568700192052 1.667243656872365 L -1.590091384489004 1.664217583156279 L -1.599846402385025 1.662025661672149 L -1.609707412250692 1.660364255021825 L -1.619625133698975 1.659092112462742 L -1.629577419491693 1.658106372649802 L -1.639547048832325 1.657325345027452 L -1.649526371598669 1.656673461399739 L -1.659506905453791 1.656065918410147 L -1.669493675723409 1.655713850462081 L -1.679430864990854 1.656800043899513 L -1.689298019586324 1.658419589500564 L -1.699161983716165 1.660067084316384 L -1.709069743315144 1.661414836770042 L -1.719019940971592 1.662410887809411 L -1.728942300590637 1.663650944292625 L -1.73879256499698 1.665365915343903 L -1.748476000698418 1.667846838331533 L -1.757736444232513 1.671587667319245 L -1.765622587218278 1.677644588596237 L -1.772033246938852 1.68531688901287 L -1.779264267030292 1.692184290722195 L -1.78787843290205 1.697241318323422 L -1.796949358129219 1.701448920894694 L -1.805970608977694 1.705759973609941 L -1.814467740254342 1.71101242734028 L -1.821684746556854 1.717895066940435 L -1.825540864718738 1.726640882227373 L -1.822745879905412 1.736228472361696 L -1.818544708353256 1.745296261424345 L -1.813513182936714 1.75393603780871 L -1.808143310377406 1.762371251882488 L -1.80286150222664 1.770861489571386 L -1.798100533395113 1.779651778658992  z" id="ID_85F"/>
   </g>
   <g id="ID_0" color="rgb(0,0,0)" stroke="currentColor" fill="none" stroke-width="0.0001074482389119885"/>
  </g>
 </svg>