<?xml version="1.0" encoding="UTF-8" ?>
 <svg viewBox="-1.783686715742054 -2.470606008034298  0.2147643367596499 0.2303453327963063" xmlns="http://www.w3.org/2000/svg" version="1.0" overflow="visible">
  <defs>
   <g id="ID__#42_Model_Space"/>
   <g id="ID__#42_Paper_Space0"/>
   <g id="ID__#42_Paper_Space"/>
  </defs>
  <g id="draft" transform="matrix(1 0 0 -1 0 0)" stroke-width="1.074482389119885E-4">
   <g id="Layer_#32_1" color="rgb(255,0,255)" stroke="currentColor" fill="none" stroke-width="0.0001074482389119885"/>
   <g id="Poliline" color="rgb(0,0,0)" stroke="currentColor" fill="none" stroke-width="0.0001074482389119885">
    <path d="M -1.775082510159109 2.382728131072813 L -1.776539322731209 2.372903151860068 L -1.775349080445104 2.362986308812018 L -1.772919055009509 2.353289532501612 L -1.76977606930387 2.343797172900417 L -1.766164663241612 2.334472527026376 L -1.76221893655526 2.325284299122612 L -1.758070775289666 2.316185250162495 L -1.753769913809885 2.307159272292926 L -1.748230090738231 2.298869157475905 L -1.73984684284247 2.293676129474457 L -1.736082508306708 2.293062111188904 " id="ID_854"/>
    <path d="M -1.736082508306708 2.293062111188904 L -1.735877447953455 2.295804718280153 L -1.735933960681911 2.305802473606263 L -1.735563313286066 2.315779715640802 L -1.73233484365113 2.325217482242386 L -1.729993618530639 2.334873294607479 L -1.730631225133025 2.344821488839784 L -1.7345420213122 2.353954807648889 L -1.741420606883333 2.361164513126503 L -1.749623004107195 2.36687382055647 L -1.758193776466182 2.372025100225368 L -1.76674513984864 2.377208520257047 L -1.775082510159109 2.382728131072813 L -1.78021285679678 2.391276830632293 L -1.782949470698645 2.40086902187016 L -1.783686715742054 2.410831041239257 L -1.783299033586615 2.420821392029582 L -1.782642316827145 2.430799516697542 L -1.782503528975022 2.440794840007129 L -1.78367554220057 2.450713230794328 L -1.779778239045108 2.459417753374202 L -1.772421202074908 2.466140353599133 L -1.763396445903166 2.470335910934531 L -1.753498685795798 2.470606008034298 L -1.745427034022047 2.46502494424144 L -1.737153664195819 2.460155047275899 L -1.727194833588059 2.460839355984145 L -1.717278408143697 2.459631796585069 L -1.707633191820341 2.457019255486226 L -1.698244790576122 2.453580050287733 L -1.688975818428272 2.449847122314491 L -1.679618551803307 2.446310374177418 L -1.670021368364022 2.443512568907566 L -1.660139232762395 2.442068613868446 L -1.650169326797957 2.442548450016689 L -1.640599399852675 2.441963215790321 L -1.632582994871051 2.436091399751234 L -1.628041102522495 2.427317986624153 L -1.625411118845908 2.418380617112809 L -1.61638330045595 2.414176551922134 L -1.608435015504757 2.408615363655352 L -1.605219684693232 2.399161510927832 L -1.600644712926945 2.390274677357764 L -1.595314838915253 2.381816523252446 L -1.589803096779193 2.37347419631396 L -1.584663688210654 2.364899086228241 L -1.580493393103043 2.355819375089044 L -1.577788328247688 2.3462027239547 L -1.575909209056025 2.336380275418083 L -1.573408501736862 2.32670745779948 L -1.568922378982404 2.317804742606011 L -1.571638681787054 2.308810944748685 L -1.57899174730032 2.303299182392368 L -1.588823114920033 2.301471413911546 L -1.598632392353429 2.299532888131958 L -1.608312715144701 2.297033780621061 L -1.617680365406224 2.293549862048333 L -1.626470222975105 2.288804293456021 L -1.634349083788776 2.282677803158444 L -1.640770809297742 2.275025868538202 L -1.647567072476223 2.26771563774923 L -1.655886082494511 2.262174028052823 L -1.663868440950188 2.256155484545802 L -1.671522530519445 2.24971628485404 L -1.679450719296916 2.243640118177792 L -1.688758153744466 2.240260675237992 L -1.698580134275035 2.241683587558103 L -1.707245732323308 2.246507337423281 L -1.71459978786669 2.253277929346012 L -1.721791291753817 2.260224692408467 L -1.727838123255726 2.268159326850508 L -1.731434904751848 2.277458615800886 L -1.734071244300415 2.287101875562679  z" id="ID_855"/>
   </g>
   <g id="ID_0" color="rgb(0,0,0)" stroke="currentColor" fill="none" stroke-width="0.0001074482389119885"/>
  </g>
 </svg>