<?xml version="1.0" encoding="UTF-8" ?>
 <svg viewBox="1.349417638246677 -1.80315491105895  0.15258204796474106 0.32442682292383296" xmlns="http://www.w3.org/2000/svg" version="1.0" overflow="visible">
  <defs>
   <g id="ID__#42_Model_Space"/>
   <g id="ID__#42_Paper_Space0"/>
   <g id="ID__#42_Paper_Space"/>
  </defs>
  <g id="draft" transform="matrix(1 0 0 -1 0 0)" stroke-width="1.074482389119885E-4">
   <g id="Layer_#32_1" color="rgb(255,0,255)" stroke="currentColor" fill="none" stroke-width="0.0001074482389119885"/>
   <g id="Poliline" color="rgb(0,0,0)" stroke="currentColor" fill="none" stroke-width="0.0001074482389119885">
    <path d="M 1.431917642165217 1.799728103381799 L 1.436029578623929 1.790612633174227 L 1.440072806393215 1.781466513177386 L 1.444001884843873 1.772270828259417 L 1.447769625620976 1.763007945822446 L 1.451326687950402 1.753662241331609 L 1.454621403212022 1.744220996958611 L 1.457599955355072 1.734675470835945 L 1.460207059906198 1.725022097404369 L 1.462387279922021 1.715263706544838 L 1.464087101632883 1.705410282791028 L 1.465257486968204 1.695480391299232 L 1.465857196068657 1.685499969750196 L 1.469905394366385 1.676671437740822 L 1.476264434062709 1.668955936644161 L 1.478497824096951 1.659451728469187 L 1.478312904832178 1.649458746386882 L 1.477508418719064 1.639491622151066 L 1.47709860725895 1.629503738569992 L 1.478075924797668 1.619565636883805 L 1.480455647087592 1.609858395641388 L 1.481271405525832 1.599905595658555 L 1.480516289462308 1.589941699105231 L 1.478601932204212 1.580131063765991 L 1.475832896451924 1.570524857733854 L 1.472805319212938 1.560993695279242 L 1.470382361028843 1.551297148882442 L 1.469624737640857 1.541346083707255 L 1.471248863164476 1.531504202658668 L 1.472917644112613 1.526728090414994 " id="ID_90A"/>
    <path d="M 1.472917644112612 1.526728090414994 L 1.477808116447868 1.535448841375233 L 1.482220793900411 1.544421587490946 L 1.48628341660508 1.553558701592299 L 1.490130275934725 1.562789062866556 L 1.493898064611677 1.572052120607676 L 1.49772489934613 1.581290832426212 L 1.499417645371295 1.585228093193595 " id="ID_90B"/>
    <path d="M 1.456917643352653 1.478728088135117 L 1.4612808531109 1.487707877507789 L 1.464276751076415 1.497244041085973 L 1.466694636399225 1.506947157296567 L 1.46924261464096 1.516616090901289 L 1.472605914233535 1.52602671459503 L 1.472917644112612 1.526728090414994 " id="ID_90C"/>
    <path d="M 1.349417638246677 1.777728102336855 L 1.356799524194337 1.784471112859533 L 1.364538650669353 1.790805042395703 L 1.372656854887368 1.796640035061578 L 1.381575027448253 1.801087537380494 L 1.391378093932066 1.802952886498053 L 1.401370274139429 1.803084174856 L 1.411335471344198 1.802271506989882 L 1.421261103693542 1.801055179250477 L 1.431183518354206 1.799812498430913 L 1.431917642165217 1.799728103381799 L 1.441500779549596 1.802540904838245 L 1.451448971416976 1.80315491105895 L 1.461009385677669 1.80044175082753 L 1.468922225036159 1.794407042553427 L 1.474927956964531 1.786434369998239 L 1.479627579212359 1.77761370566063 L 1.483618762179014 1.768446378751079 L 1.487350599413231 1.759169306771214 L 1.491204859121261 1.749942921022848 L 1.495588428592806 1.740958740053448 L 1.501019768146987 1.732575870263971 L 1.501999686211418 1.723595321190364 L 1.499953247115534 1.713807413639063 L 1.498043285438265 1.703991941951061 L 1.496275627594436 1.694150116015736 L 1.494661867901767 1.684282046163817 L 1.493219416335708 1.674386720890623 L 1.491973158814185 1.664464829350912 L 1.490957677917082 1.654516716887384 L 1.49022211699583 1.644544088049499 L 1.48983879871476 1.634552158053876 L 1.489919921971963 1.624553611956017 L 1.490255633154664 1.614559526839135 L 1.491578446099219 1.604670909928293 L 1.496425295656369 1.596043502516961 L 1.498417645323797 1.594228093621074 " id="ID_90D"/>
   </g>
   <g id="ID_0" color="rgb(0,0,0)" stroke="currentColor" fill="none" stroke-width="0.0001074482389119885"/>
  </g>
 </svg>