<?xml version="1.0" encoding="UTF-8" ?>
 <svg viewBox="1.757132686114258 -2.644432265827429  0.14978497861224693 0.19936113136392386" xmlns="http://www.w3.org/2000/svg" version="1.0" overflow="visible">
  <defs>
   <g id="ID__#42_Model_Space"/>
   <g id="ID__#42_Paper_Space0"/>
   <g id="ID__#42_Paper_Space"/>
  </defs>
  <g id="draft" transform="matrix(1 0 0 -1 0 0)" stroke-width="1.074482389119885E-4">
   <g id="Layer_#32_1" color="rgb(255,0,255)" stroke="currentColor" fill="none" stroke-width="0.0001074482389119885"/>
   <g id="Poliline" color="rgb(0,0,0)" stroke="currentColor" fill="none" stroke-width="0.0001074482389119885">
    <path d="M 1.906917664726505 2.598728141332262 L 1.904427838285296 2.601938369594238 L 1.899109172135317 2.610401945547369 L 1.894035252905204 2.619018140280346 L 1.887861293738049 2.626852556895981 L 1.880079522655249 2.633105652178629 L 1.871064916436486 2.637364471787993 L 1.861249076049301 2.639125532065587 L 1.851260425837479 2.63887161220774 L 1.841341578498806 2.637614274913927 L 1.831440808026564 2.636226433270687 L 1.821483080442308 2.635340634477428 L 1.811488283039868 2.635396722965404 L 1.801587300608161 2.63672088341527 L 1.791981869837284 2.639489947545648 L 1.782463955093537 2.642552666944089 L 1.772663400441381 2.644432265827429 L 1.762917657886873 2.64272814342215 L 1.757521590254836 2.635339365300227 L 1.757132686114258 2.625369108014737 L 1.758913082246754 2.61554553095517 L 1.762282839291636 2.606137593214052 L 1.766556464893962 2.597098680601263 L 1.771175718850469 2.588229309766225 L 1.775772727971149 2.579348477650929 L 1.780300860642185 2.570432315646645 L 1.784725280152147 2.561464413553343 L 1.789000696592715 2.552423777558709 L 1.793053454587353 2.543281618763826 L 1.79662639791665 2.533943870317308 L 1.79967321359182 2.524419870656174 L 1.802410475968242 2.514802093572436 L 1.804924732543928 2.505123676491207 L 1.807251629670337 2.495398231634613 L 1.809393182071633 2.485630520473565 L 1.811390203067069 2.475832092438386 L 1.813957805853772 2.466173670040529 L 1.818432159093211 2.457272827748131 L 1.825833737645134 2.450659269437601 L 1.835032550153179 2.446803648950966 L 1.844864349561696 2.445071134463505 L 1.854849268950289 2.445227090154398 L 1.864640581071672 2.447189053417865 L 1.873881834259152 2.450966944711137 L 1.876917663301583 2.452728134397634 L 1.88191766353907 2.452728134397634 " id="ID_80D"/>
    <path d="M 1.762917657886873 2.64272814342215 L 1.768980701155782 2.634787847305551 L 1.776189248686342 2.627870703236849 L 1.784226173211358 2.62192716323557 L 1.792547933048914 2.616382542819565 L 1.800509756306146 2.610341949140105 L 1.807430777103701 2.603144479708543 L 1.812890730479894 2.594783410773095 L 1.817241281934497 2.585783166228191 L 1.820867529347332 2.576467460882877 L 1.822867349015009 2.566700360536426 L 1.823893416494931 2.556759845262188 L 1.827626836290915 2.547566096077488 L 1.833931647832273 2.539808410671323 L 1.839278022375389 2.531378918689489 L 1.843548286305606 2.522340053932813 L 1.84711432458196 2.512999151165136 L 1.850235782376077 2.503499013514849 L 1.853220954790543 2.493954788476994 L 1.856428622417075 2.484484086447642 L 1.860280161526789 2.475259689842012 L 1.865205326365462 2.466565586028625 L 1.871100156750729 2.458498674918654 L 1.876917663301583 2.452728134397634 " id="ID_80E"/>
   </g>
   <g id="ID_0" color="rgb(0,0,0)" stroke="currentColor" fill="none" stroke-width="0.0001074482389119885"/>
  </g>
 </svg>