<?xml version="1.0" encoding="UTF-8" ?>
 <svg viewBox="0.0222931436734975 -2.122728118723475  0.5691628125421228 0.4197803393174091" xmlns="http://www.w3.org/2000/svg" version="1.0" overflow="visible">
  <defs>
   <g id="ID__#42_Model_Space"/>
   <g id="ID__#42_Paper_Space0"/>
   <g id="ID__#42_Paper_Space"/>
  </defs>
  <g id="draft" transform="matrix(1 0 0 -1 0 0)" stroke-width="1.074482389119885E-4">
   <g id="Layer_#32_1" color="rgb(255,0,255)" stroke="currentColor" fill="none" stroke-width="0.0001074482389119885"/>
   <g id="Poliline" color="rgb(0,0,0)" stroke="currentColor" fill="none" stroke-width="0.0001074482389119885">
    <path d="M 0.5912496334856306 1.997728112786289 L 0.589088239180156 1.987986496598741 L 0.5850238311868683 1.978863480383825 L 0.5796605200252661 1.970430960933212 L 0.5734552736637762 1.962593071667534 L 0.5667060511339699 1.955216242005803 L 0.5596037630718868 1.948177543261008 L 0.5522752707728609 1.941374040053739 L 0.5448100800913345 1.934720442756793 L 0.5372761306266707 1.928144581992603 L 0.5297294161451909 1.921583263916074 L 0.5222202903676925 1.914978958177229 L 0.5147980818513594 1.908277251531137 L 0.5075149994275492 1.901424976850497 L 0.5004295904335292 1.89436866146514 L 0.4936113762408674 1.887054652149572 L 0.4871442376933786 1.879428699437429 L 0.4808363333598918 1.871670504947109 L 0.4737501561660782 1.864638012136083 L 0.4649657433926829 1.8599243150533 L 0.4555729999807046 1.856493885777554 L 0.4466519257512403 1.852028547918656 L 0.4385505244068906 1.846171998351195 L 0.4309214161831765 1.839708875507067 L 0.4236505148013335 1.832844217604719 L 0.4166779001249639 1.825676733232645 L 0.4101073212564286 1.818142179807262 L 0.4040405971096713 1.810194164883398 L 0.3978714869291595 1.802326769671669 L 0.3907142841907447 1.795364332959715 L 0.3828034003808183 1.789247531112758 L 0.3748882901026072 1.783136151080764 L 0.3671882063336076 1.77675802026312 L 0.360917591295447 1.770728102004373 L 0.3517345301675103 1.768207593548478 L 0.3438814131749481 1.762061695334603 L 0.3374682569409728 1.754403081638759 L 0.3319964041131591 1.7460358364512 L 0.3268764080906665 1.737446018055605 L 0.321514365035398 1.729007276284496 L 0.3179175892530566 1.724228099795741 L 0.3094879013526679 1.720442943365956 L 0.3010371497044888 1.71807965479434 L 0.291751082161122 1.714393978761176 L 0.2820855992109186 1.71185758694364 L 0.2721685195764465 1.710637216315651 L 0.2621771112715523 1.710766131219919 L 0.2531082496503316 1.708268257151171 L 0.2433562859072067 1.706466168438543 L 0.2334042109657926 1.707441970589538 L 0.2234438541354775 1.708185735086352 L 0.213909841219043 1.705565754029997 L 0.2049530962072685 1.702947779406066 L 0.1963741230981499 1.708013460380858 L 0.1866507149940784 1.710265818969499 L 0.1766758463272868 1.710895237547749 L 0.1666760661902202 1.710925512758768 L 0.1566828286674564 1.711241380002809 L 0.1467552990745951 1.712411477952976 L 0.1369149490277701 1.714186767977574 L 0.1271484922185015 1.716333086485322 L 0.1174436663427816 1.718744059455621 L 0.107778442465956 1.72130978901932 L 0.0981240836650042 1.723916261907465 L 0.0884487152162761 1.726443165681004 L 0.0787213801906539 1.728760942177588 L 0.0689175774261912 1.730728100104474 L 0.0675176379821876 1.732441949942499 L 0.0619526833348019 1.74074254652897 L 0.0569253171034916 1.749386756862421 L 0.051433206724643 1.757736666353489 L 0.0445731779178038 1.764980580876347 L 0.0394718910552383 1.773061382097578 L 0.0353207635884472 1.782155106320141 L 0.0306708514388241 1.791008229863594 L 0.0262629008730029 1.799981590466472 L 0.023227628919547 1.809486764505802 L 0.0222931436734975 1.81943201152413 L 0.0225040667813206 1.829427802176683 L 0.0231448429753645 1.839407216784014 L 0.0235835908979425 1.849396074490901 L 0.0296465682132183 1.857341930248093 L 0.0364221946186589 1.864693345062899 L 0.0436636938135857 1.871587926550551 L 0.0512263276220812 1.878129730661468 L 0.0590176522526127 1.884398063146884 L 0.0669733407132913 1.890456937397219 L 0.0750435237772722 1.896362916947341 L 0.0831830155866662 1.902173462286969 L 0.0913390450504421 1.907959857676411 L 0.0992411948575702 1.914081731278638 L 0.1067013372691914 1.920740296243852 L 0.1143067175338617 1.927227853709924 L 0.1230729662956733 1.931924456262816 L 0.1326144427751306 1.934915977630838 L 0.1421488609351531 1.937928566086357 L 0.1513841818214949 1.94174637362102 L 0.1601381105519808 1.946576411683311 L 0.1687119862290336 1.951722707226682 L 0.1771784488189789 1.957044104007666 L 0.1855865766267204 1.962457060121973 L 0.1939958525972285 1.96786904974396 L 0.2024698392597566 1.973177915889305 L 0.2110728075343413 1.978274724623734 L 0.2198600293212891 1.983045203367817 L 0.2288721256931545 1.987376783923657 L 0.2381939502373447 1.990968765500483 L 0.2477465137846986 1.99388407117582 L 0.2550992505222069 2.000462917236546 L 0.2617514241002388 2.007922254833989 L 0.2691522036788614 2.014641806715905 L 0.277105756090954 2.020699219751714 L 0.2854617886366437 2.02619222586736 L 0.2941037935767694 2.031218667296668 L 0.3029523046472393 2.035877922262066 L 0.3119394417731645 2.040261082717394 L 0.3210145040639407 2.044462008451636 L 0.3301276120301813 2.048579518442512 L 0.3392296658795022 2.052721460585498 L 0.3483512025895354 2.056819550107388 L 0.3574789163563601 2.060903959284168 L 0.3665726739881467 2.065062748728937 L 0.3755973692171093 2.069369768772842 L 0.3845176245580708 2.073888298124558 L 0.3932972260912306 2.078674292136323 L 0.4018966233021582 2.08377691625647 L 0.4102723563785409 2.089238582624512 L 0.4179286503652975 2.095629966936328 L 0.4257931298657267 2.101724926052941 L 0.4347205082983355 2.106222695530167 L 0.4439039606943345 2.110178347980268 L 0.4530243194881037 2.114276235994408 L 0.4617584239210748 2.119135323920417 L 0.4669175963301769 2.122728118723475 L 0.4750590107960271 2.116935207852717 L 0.4837678161717767 2.112025095146368 L 0.4927248994812202 2.107579454442944 L 0.50175090532771 2.103274684028532 L 0.5107195465757703 2.098852042842215 L 0.5195119452958492 2.094090256114538 L 0.527990521709417 2.088792309708596 L 0.5359831119082559 2.082789388077053 L 0.5432821184369719 2.075962281695446 L 0.5496836753698933 2.068288058342925 L 0.5555219790423119 2.06016956295639 L 0.5614401671017104 2.052109577820903 L 0.567864263405772 2.044449038808753 L 0.5746165528483936 2.03707338345581 L 0.5812695884136101 2.029610865597563 L 0.5869869821696377 2.021426563942432 L 0.5905106698824297 2.012102572142755 L 0.5914559562156203 2.002169622969461  z" id="ID_8CD"/>
   </g>
   <g id="ID_0" color="rgb(0,0,0)" stroke="currentColor" fill="none" stroke-width="0.0001074482389119885"/>
  </g>
 </svg>