<?xml version="1.0" encoding="UTF-8" ?>
 <svg viewBox="-1.167605680961887 -2.620080762179766  0.490773219273531 0.4530242671079141" xmlns="http://www.w3.org/2000/svg" version="1.0" overflow="visible">
  <defs>
   <g id="ID__#42_Model_Space"/>
   <g id="ID__#42_Paper_Space0"/>
   <g id="ID__#42_Paper_Space"/>
  </defs>
  <g id="draft" transform="matrix(1 0 0 -1 0 0)" stroke-width="1.074482389119885E-4">
   <g id="Layer_#32_1" color="rgb(255,0,255)" stroke="currentColor" fill="none" stroke-width="0.0001074482389119885"/>
   <g id="Poliline" color="rgb(0,0,0)" stroke="currentColor" fill="none" stroke-width="0.0001074482389119885">
    <path d="M -0.7270824603817801 2.236728124138185 L -0.72998893462219 2.246271568475462 L -0.7312509472646145 2.256187357027664 L -0.7322578956888286 2.266135373176386 L -0.7344727971960819 2.275869639848608 L -0.7391785068265433 2.284643364870825 L -0.7409507027219214 2.293554743877171 L -0.7424583185465572 2.303388351687509 L -0.7464438087227645 2.312548164474362 L -0.7509184386560364 2.321489545894801 L -0.753931454262812 2.330992476225395 L -0.7560895016626894 2.3405136301558 L -0.7615601122319468 2.348880414258399 L -0.7666850401849487 2.357453530579029 L -0.7679262087247613 2.367133234524766 L -0.76946886482376 2.376820876530203 L -0.7742748551396783 2.38558921437964 L -0.7786006520596969 2.394602456312512 L -0.7793101837843253 2.404408857848155 L -0.77971025952305 2.414216087157596 L -0.7856965679577135 2.422135316763615 L -0.7937979552337718 2.427975193595576 L -0.8021547109382307 2.433452298912422 L -0.8092538426960071 2.440441801139838 L -0.8133652064749785 2.449489363827686 L -0.8189489994709414 2.457236649567072 L -0.825392310342325 2.464868470738306 L -0.8305851797091695 2.473405427106607 L -0.8346999046686516 2.482515826536904 L -0.8382624334350756 2.491857803479383 L -0.8419778017582988 2.501140620082855 L -0.8465219434405781 2.510043645201639 L -0.8523064044472539 2.518174266934721 L -0.8593616377115891 2.525254752095916 L -0.8673131470283879 2.531287282824782 L -0.8725944511241205 2.539768714184724 L -0.8767011617364026 2.5488797149169 L -0.8799129263686467 2.558347981607424 L -0.8831852873665191 2.567792793916623 L -0.8881765816385653 2.576410569819964 L -0.8957335780835213 2.582888971190593 L -0.9047919477317041 2.587083214838298 L -0.9144630364746263 2.58958560551807 L -0.9244121191303049 2.590464459834757 L -0.9343898441236007 2.589977808583027 L -0.9442645404639167 2.588422240393729 L -0.9539795300938331 2.586059926186962 L -0.9635301008377608 2.583099391864795 L -0.97293456686885 2.579701770092869 L -0.9822209736851919 2.575993070188388 L -0.9914225634474664 2.572074833398957 L -1.00057216281919 2.568034602301048 L -1.009702233998826 2.56395318117744 L -1.018848303841133 2.559909755853215 L -1.028039125784263 2.555972265029749 L -1.037288580887027 2.552178813333984 L -1.046614539528063 2.548569312562525 L -1.056023320474512 2.545183422773254 L -1.065518466055146 2.542048425553733 L -1.075079929807345 2.539133109277472 L -1.084604591261018 2.536075339824737 L -1.094018455510454 2.532703583170487 L -1.103267039580133 2.528903590942634 L -1.112288088637314 2.524592859186888 L -1.121031437912839 2.519743972009015 L -1.141282259476701 2.510270793708791 L -1.153090969548746 2.506155012037831 " id="ID_868"/>
    <path d="M -0.8550984720872811 2.202561040903209 L -0.8720190055382204 2.196885571640152 L -0.8813091686000128 2.193191224959331 L -0.8906907142278255 2.189734305159962 L -0.9001422102115474 2.186471928893729 L -0.9096369170845388 2.183334933824157 L -0.919142063565542 2.180227550453547 L -0.9286184984280172 2.177033021991855 L -0.9380201766514035 2.173626794550429 L -0.9472960861919323 2.169895026101999 L -0.9568543272910021 2.167056495071852 L -0.9667538619402442 2.167695511946019 L -0.9755135034658692 2.172399820835128 L -0.9826740698294109 2.179357088232984 L -0.9889182607479494 2.187164096024829 L -0.9948008540586483 2.195250559291602 L -1.000643611313499 2.203366196176906 L -1.006634251722992 2.211372703969708 L -1.012885374097665 2.219177276706313 L -1.019458338390025 2.226712479130908 L -1.026314309055794 2.23399176606015 L -1.033352768674268 2.24109513254131 L -1.040481172658362 2.248108481024731 L -1.047605191904704 2.255126548730242 L -1.054611047796957 2.262261898700193 L -1.061336019942217 2.269661450365003 L -1.067561170085634 2.277485126111654 L -1.073398572014073 2.285604099418476 L -1.079203414863984 2.293746469892036 L -1.085731984773684 2.301309497537181 L -1.092384764733725 2.308774703320031 L -1.098781010370172 2.316460763857415 L -1.1049704245083 2.324315001244151 L -1.111012361370908 2.332283174299899 L -1.116978683416605 2.340309598125312 L -1.122952092044849 2.348328007463454 L -1.129036286220721 2.356263841275351 L -1.135354026662906 2.364014442731642 L -1.142054327149177 2.371435469384223 L -1.149309133422469 2.378312632318246 L -1.157287515687233 2.384329051248812 L -1.166082481233161 2.389062115748661 L -1.167605680961887 2.39892888843533 L -1.167398500226899 2.408917641513914 L -1.166052078192623 2.41882379762193 L -1.16420633771145 2.42865173514453 L -1.162467765235869 2.438497950898549 L -1.161449877056872 2.448441956128201 L -1.16178865428007 2.458424386864676 L -1.163989486094078 2.468160405926717 L -1.159498775916118 2.476982468093863 L -1.156234472768421 2.486423694196188 L -1.15429472253214 2.496228337401483 L -1.153090969548746 2.506155012037831 L -1.151632369063653 2.516044457181719 L -1.148590657883545 2.525545188771879 L -1.142983933241182 2.533774495588662 L -1.134637283428086 2.539067617294808 L -1.125265721782371 2.542530665604353 L -1.116263672134356 2.546885234160075 L -1.107560093526805 2.55179622247083 L -1.099824411745092 2.558101810868524 L -1.093764488851305 2.566027885788127 L -1.092082477718349 2.569062124298202 L -1.082290758988182 2.571088241072066 L -1.072588489718489 2.573508085943741 L -1.06296778710933 2.57623508669153 L -1.053417627199719 2.579199882146827 L -1.043925311081415 2.58234545803077 L -1.034477767091146 2.58562330079739 L -1.025061677226812 2.588990637720069 L -1.015663626920967 2.592408162053486 L -1.006270049633489 2.595838102568627 L -0.9968671096782504 2.599242405028746 L -0.9874405536856603 2.602580830890442 L -0.9779755837724284 2.60580874494139 L -0.9684568256209233 2.608874296540296 L -0.9588689284809914 2.611714457019218 L -0.9492135458114923 2.614316605743837 L -0.9394998166668759 2.61669022808654 L -0.9296901958845866 2.618624990245139 L -0.9197692224404292 2.619854507907424 L -0.9097774223793537 2.620080762179766 L -0.899839975388181 2.619037037805792 L -0.8901537503538632 2.616587677632322 L -0.8809479186665747 2.612717597372615 L -0.8726639313155661 2.607122987799257 L -0.8636611841019474 2.602876299449777 L -0.8630824668414334 2.602728141522252 L -0.8572710712323736 2.59459011087145 L -0.851428159685116 2.58647467734419 L -0.8455566323965966 2.578379922784391 L -0.8396593703492518 2.570303894089732 L -0.8337392413788169 2.56224461374782 L -0.8277990954047558 2.554200075102974 L -0.8218417692194437 2.546168250376432 L -0.8158700873843454 2.538147093017837 L -0.8098868639772662 2.530134540948147 L -0.8038949044534673 2.522128519726164 L -0.7978970075975891 2.514126945652265 L -0.7918959675437476 2.506127728823683 L -0.7858945758415558 2.498128776156228 L -0.7798956235460599 2.490127994387787 L -0.7739019033097332 2.482123293079034 L -0.7679162114546881 2.474112587626896 L -0.7619413500031876 2.466093802306088 L -0.7559801286443398 2.458064873353679 L -0.7500353666145277 2.450023752111164 L -0.7441098944687612 2.441968408237716 L -0.7382065557196347 2.433896833007398 L -0.732328208320042 2.425807042701936 L -0.7264777259652382 2.417697082109288 L -0.7206579991892559 2.409565028136594 L -0.7148719362301375 2.401408993544226 L -0.7091224636379723 2.393227130805495 L -0.703412526599359 2.385017636094129 L -0.6977450889516909 2.376778753398902 L -0.6921231328606883 2.368508778761764 L -0.6865496581348376 2.360206064632491 L -0.6825824582681435 2.354228129719135 L -0.6830875364725939 2.34425090940739 L -0.6823459078195482 2.334282341821319 L -0.6809048592129942 2.324387596383507 L -0.6792249668031785 2.314529673037707 L -0.6777225771883808 2.304643759738659 L -0.6768324616883561 2.294686449784951 L -0.6770515725173887 2.284696882777213 L -0.6789008934110541 2.274885104787498 L -0.6826132448227497 2.265613816847885 L -0.687841322498505 2.257104407649196 L -0.6944950343725305 2.249656877913796 L -0.7023032677805743 2.243425792369581 L -0.7109106849509504 2.238348349589807 L -0.7200226179091889 2.234238052153116 L -0.7270824603817801 2.236728124138185 L -0.7363914095987046 2.233078991829591 L -0.745881122786276 2.229928568677747 L -0.7555014136713183 2.227201634253571 L -0.7652116683033628 2.224813681642753 L -0.774980078671713 2.222675131950499 L -0.7847817557803713 2.220694009921521 L -0.7945964844274968 2.218777250771223 L -0.804405029824183 2.216831356438584 L -0.8141883813447128 2.214762092233248 L -0.8239229199145388 2.212475149925472 L -0.8335792296181718 2.209876805765095 L -0.8431175734661522 2.206876792369667 L -0.8550984720872811 2.202561040903209 " id="ID_869"/>
   </g>
   <g id="ID_0" color="rgb(0,0,0)" stroke="currentColor" fill="none" stroke-width="0.0001074482389119885"/>
  </g>
 </svg>