<?xml version="1.0" encoding="UTF-8" ?>
 <svg viewBox="2.197699641169126 -2.461177875649662  0.27926155195913216 0.5419497665919177" xmlns="http://www.w3.org/2000/svg" version="1.0" overflow="visible">
  <defs>
   <g id="ID__#42_Model_Space"/>
   <g id="ID__#42_Paper_Space0"/>
   <g id="ID__#42_Paper_Space"/>
  </defs>
  <g id="draft" transform="matrix(1 0 0 -1 0 0)" stroke-width="1.074482389119885E-4">
   <g id="Layer_#32_1" color="rgb(255,0,255)" stroke="currentColor" fill="none" stroke-width="0.0001074482389119885"/>
   <g id="Poliline" color="rgb(0,0,0)" stroke="currentColor" fill="none" stroke-width="0.0001074482389119885">
    <path d="M 2.343917685482892 1.919228109057744 L 2.352883725846266 1.923525651140952 L 2.362671498066005 1.925526743479696 L 2.372625892271273 1.926460505307414 L 2.382616282330656 1.926902130484526 L 2.39261063835488 1.927237879433892 L 2.402607378857705 1.927497767368338 L 2.412604556857285 1.927747181722788 L 2.422592579189022 1.928235971590673 L 2.432544142875333 1.929200187411433 L 2.442391558787386 1.930919591049088 L 2.451969687573244 1.933764516857293 L 2.46090799453866 1.938209146456856 L 2.468503014350888 1.944665194359457 L 2.473937908107204 1.95301182534466 L 2.476666536269476 1.962597030410982 L 2.476961193128258 1.97257506894763 L 2.475520139187829 1.982462236337665 L 2.472941227636883 1.99211990817632 L 2.469631532089671 2.001554858640853 L 2.465871096118728 2.010819564560039 L 2.461876686620881 2.019987459393869 L 2.457861517516228 2.029146621351536 L 2.454118238447052 2.038418645840055 L 2.45115484284234 2.047964595951789 L 2.448921624714391 2.057711213653268 L 2.446744436155414 2.067470826981312 L 2.443868285287916 2.077042684129326 L 2.440597540773945 2.086492238979207 L 2.437597336416142 2.096031290648779 L 2.434823024995872 2.105638536042576 L 2.432230665047719 2.115296575086077 L 2.429777501019189 2.124990962494644 L 2.427422096604323 2.134709566150807 L 2.425124287604703 2.144442042160443 L 2.42284516392309 2.154178808028573 L 2.420546753114251 2.16391112895462 L 2.418192008994894 2.173629934911451 L 2.415744573733585 2.183325769672606 L 2.413168725854049 2.192988231393211 L 2.410429387314104 2.202605564798618 L 2.407492247767182 2.212164277810954 L 2.404509512462826 2.221708899871641 L 2.401716783965965 2.2313108653358 L 2.399093393026614 2.240960509506919 L 2.396616705307424 2.250648875216841 L 2.394264124984106 2.260368147360745 L 2.392013180789845 2.270111480754021 L 2.38984156896531 2.279872818165269 L 2.387727159304857 2.28964671723294 L 2.385647975269211 2.299428180512389 L 2.383582157603203 2.309212482224438 L 2.381507915759338 2.318995005446696 L 2.379403476313958 2.328771077771783 L 2.377218969135186 2.338529480286608 L 2.37484704486211 2.348243894884857 L 2.372195238160212 2.35788550772558 L 2.369178468170124 2.367418742693617 L 2.365710713356767 2.3767971757551 L 2.361701681675734 2.385956417888555 L 2.357055859827075 2.394809126292765 L 2.351678105916558 2.403235670873604 L 2.345484930479067 2.411080808872762 L 2.338426321247836 2.418156026216205 L 2.33051411050954 2.424258875525453 L 2.321868158313072 2.429266725913294 L 2.313922154567981 2.435328575160196 L 2.306447099193832 2.441970350630041 L 2.298862287849143 2.448484332194185 L 2.29061503464914 2.454121840518558 L 2.281587948263883 2.458401990461911 L 2.271994152897661 2.461177875649662 L 2.264488496292488 2.456293592981737 L 2.25964424398012 2.44763829040588 L 2.258593229906585 2.446965346143771 L 2.250473949174534 2.441134097930175 L 2.242937212284153 2.434566971218934 L 2.236020738463319 2.427348979492702 L 2.229724191746976 2.419583647521802 L 2.224007283785081 2.411381065874904 L 2.218790928717708 2.402851093909928 L 2.21395214416986 2.394101132762575 L 2.209304321033283 2.385247604886261 L 2.204565078688552 2.3764425102986 L 2.200328620477545 2.367393074518298 L 2.198019164988079 2.35769105954208 L 2.197699641169126 2.347703521133619 L 2.198136278753898 2.337713589628876 L 2.198586142936078 2.327723947435995 L 2.198870048351825 2.317727910603492 L 2.199097046383203 2.307730559921054 L 2.199375326415774 2.297734532806897 L 2.199811267829041 2.28774426250929 L 2.200508224222545 2.277769009227135 L 2.201564356254653 2.267825643176129 L 2.203034740662701 2.257934887539224 L 2.204761697349813 2.248085245963043 L 2.20660352802187 2.238256348313063 L 2.208432276659852 2.228424967915811 L 2.210118258204762 2.218568298751609 L 2.211525817061993 2.20866838557027 L 2.21251021954993 2.19871801683946 L 2.212917679260726 2.188728121858307 " id="ID_820"/>
    <path d="M 2.259644243980119 2.44763829040588 L 2.25817453057756 2.43774949823419 L 2.25606431824508 2.427975797410686 L 2.253519761019413 2.418305557071509 L 2.25067387460594 2.40871920943465 L 2.247622210187318 2.399196105369298 L 2.244442212288089 2.389714862690192 L 2.241206953322384 2.380252137168008 L 2.238000128469653 2.370780222843912 L 2.234807290679475 2.361304680041024 L 2.233244250881122 2.351459296091 L 2.234263029734853 2.341529717534198 L 2.236104689271566 2.331701989768356 L 2.236287750140297 2.32174159019966 L 2.23571421577868 2.311770289768091 L 2.236768582000309 2.301835950555135 L 2.239138186057595 2.292126702931954 L 2.242288360555905 2.282637155648362 L 2.245645778758714 2.273217641487516 L 2.248678551949044 2.263690194718698 L 2.251153932499627 2.254001814983491 L 2.253777338598721 2.244352314813257 L 2.256589933409575 2.234755725910256 L 2.259540107063192 2.225200519955015 L 2.262579207573409 2.215673395272251 L 2.265660912096462 2.206160273606903 L 2.268740781340912 2.196646347623884 L 2.271775178630577 2.18711798943047 L 2.274721060018354 2.177562107438914 L 2.277535461230399 2.167966681638247 L 2.280175044537505 2.158321535248541 L 2.282595847430624 2.148619138253407 L 2.284745051551214 2.138853293876096 L 2.286657343032906 2.129037975231911 L 2.288613193021618 2.119231267438909 L 2.290915771189628 2.109501072824366 L 2.293849120508722 2.09994375966067 L 2.297567018853329 2.090662793762479 L 2.301530929660676 2.081482063579336 L 2.305423528358564 2.072271098165117 L 2.308997844877216 2.062932903404348 L 2.312027123588877 2.053405184507168 L 2.314366692536551 2.043685420601008 L 2.316000451583643 2.033821352787422 L 2.317634109734109 2.023955839372908 L 2.319566457306984 2.014144590144807 L 2.321751441488345 2.004386200368774 L 2.324140330562788 1.994675950495103 L 2.326683567085041 1.985005120907091 L 2.329331905739975 1.975362537106128 L 2.332037327599914 1.965735689066853 L 2.334753732807365 1.956111685284762 L 2.337437329459763 1.946478533731047 L 2.343917685482892 1.919228109057744 " id="ID_821"/>
   </g>
   <g id="ID_0" color="rgb(0,0,0)" stroke="currentColor" fill="none" stroke-width="0.0001074482389119885"/>
  </g>
 </svg>