<?xml version="1.0" encoding="UTF-8" ?>
 <svg viewBox="-1.374382498051425 -8.08611020614833  0.38155779383468713 0.554751915788394" xmlns="http://www.w3.org/2000/svg" version="1.0" overflow="visible">
  <defs>
   <g id="ID__#42_Model_Space"/>
   <g id="ID__#42_Paper_Space0"/>
   <g id="ID__#42_Paper_Space"/>
  </defs>
  <g id="draft" transform="matrix(1 0 0 -1 0 0)" stroke-width="1.074482389119885E-4">
   <g id="Poliline" color="rgb(0,0,0)" stroke="currentColor" fill="none" stroke-width="0.0001074482389119885">
    <path d="M -1.235082484510485 7.538728375969672 L -1.22584681998231 7.542552025537906 L -1.216913886236409 7.547044575996426 L -1.208083899747502 7.551738310459652 L -1.199126444509755 7.556181227652896 L -1.193082482515592 7.558728376919621 L -1.183133471069895 7.559729655294939 L -1.173231221256502 7.561120188196708 L -1.163379392110548 7.562832649462988 L -1.153570460829641 7.564777720947449 L -1.143787974865743 7.566851573154991 L -1.134009823181643 7.568945683689438 L -1.124214283407665 7.570956315085743 L -1.114384725561355 7.572792484049468 L -1.104553095716178 7.574608233083472 L -1.094953156342608 7.577390099558769 L -1.085684453708066 7.581134610473841 L -1.076711413075717 7.585545612534788 L -1.067890746217387 7.59025696871642 L -1.059089076560574 7.595003377069279 L -1.050219125435436 7.599620505744517 L -1.041191626436027 7.603919952650656 L -1.031934581885978 7.607696670755837 L -1.022411406306984 7.610737126086231 L -1.012640418146967 7.612843187425188 L -1.000623512665005 7.614250616362381 " id="ID_36B"/>
    <path d="M -0.9983346289377035 7.619776461203007 L -1.004657591843231 7.604511504083424 L -1.009881048309994 7.596002908455838 L -1.016661213710494 7.5886735642637 L -1.024657246526182 7.582688107799699 L -1.033465867605624 7.577970382927934 L -1.042764386325408 7.574304061870641 L -1.052342779040927 7.571440309250163 L -1.062075348119454 7.56914779919516 L -1.071887363718642 7.567218963153447 L -1.081730983364334 7.565456445566395 L -1.09156625029581 7.563648507047457 L -1.101328479886365 7.561486908435898 L -1.110973225070502 7.558847312202852 L -1.120528572517718 7.555899394886314 L -1.13002426470176 7.552763485459907 L -1.139487209060296 7.549529994856441 L -1.148943242345837 7.546274617375868 L -1.158416153083294 7.543069276359156 L -1.167930622740625 7.539990168510976 L -1.177512039881223 7.537128006439585 L -1.187188778222679 7.534601938271218 L -1.196979992954116 7.532586968810829 L -1.206899976754967 7.531358290359936 L -1.216889063750197 7.531391817397362 L -1.226630818338857 7.533510998364151 L -1.235082484510485 7.538728375969673 L -1.24325156106988 7.542055835665923 L -1.252013188953689 7.54686513008523 L -1.260230810194288 7.552556804408617 L -1.267899221927265 7.558970334925973 L -1.275010322840484 7.565997444610157 L -1.281542323337247 7.573566092847146 L -1.2874519895678 7.581629946015726 L -1.292664665749911 7.590160340919197 L -1.296270805089594 7.599431139525273 L -1.298954282723409 7.609042129714602 L -1.302878323124538 7.618239543608265 L -1.306974416079875 7.627362179327322 L -1.311070510122178 7.63648390325522 L -1.314934345114589 7.64570716462414 L -1.31832207113974 7.655113957751937 L -1.321062258367406 7.664728884428121 L -1.323283961269578 7.674478663911085 L -1.325391263477854 7.684254416880285 L -1.327889103276833 7.693934480353512 L -1.33006331930992 7.703676947673773 L -1.331277651756276 7.713602680914293 L -1.333835622112007 7.723236842455375 L -1.338167953017855 7.732247730526692 L -1.339958150358961 7.741893838484962 L -1.340232882702719 7.751889036483514 L -1.340893654202873 7.761866925184287 L -1.341891082803519 7.771816907937425 L -1.343171916701362 7.781734319370726 L -1.344679843724922 7.791619897613784 L -1.346355660190602 7.801478647397913 L -1.348136872486379 7.81131876619957 L -1.349957000826544 7.821151696477493 L -1.351744171191712 7.830990859344336 L -1.353419089499582 7.840849411283138 L -1.354903011957646 7.850738305766578 L -1.356195625243435 7.860654358598803 L -1.357326919338191 7.870589906730089 L -1.358326397273392 7.880540090858276 L -1.359224715245535 7.89049963756848 L -1.360054587554276 7.900465081049714 L -1.360851550698289 7.910433358780413 L -1.361655157044307 7.920400993992251 L -1.362510732127796 7.930364331997005 L -1.36347170676298 7.940318030052449 L -1.364615397868898 7.950252026858179 L -1.366222202806247 7.960121464621048 L -1.368207083570459 7.969922156035501 L -1.370329246905905 7.979694296420515 L -1.372317376496355 7.989494315138064 L -1.373827852569243 7.999377566875121 L -1.374382498051425 8.009355681529229 L -1.373324911621775 8.019282286516633 L -1.369989694651244 8.02867835537176 L -1.364793976333064 8.037217170934714 L -1.360582490471415 8.046228400074629 L -1.352256715293305 8.051740272326949 L -1.343118351577805 8.0557787564749 L -1.333545108638591 8.058653693542762 L -1.323760455738435 8.060708388189042 L -1.313880039674417 8.062243729098787 L -1.303960683415716 8.063513483201598 L -1.294036400766506 8.064742281319708 L -1.284136014292408 8.066148549164662 L -1.274304574717182 8.067969624659327 L -1.264625076815203 8.070476400499178 L -1.254950076326461 8.073001563348026 L -1.245100058826367 8.074709093176804 L -1.235172371607601 8.07590726317989 L -1.225236078754207 8.07703397612704 L -1.21536455210257 8.078614370658462 L -1.210282678645057 8.079929573550348 L -1.200698442993142 8.07920566398956 L -1.190716576319581 8.079805648297246 L -1.18073986367163 8.080486895667214 L -1.170766078817297 8.08123508018243 L -1.160797679345167 8.082029327147282 L -1.150830837460627 8.082842619662625 L -1.140862902116287 8.083641679497383 L -1.130890814984716 8.084388676015045 L -1.12091242684052 8.08504393344819 L -1.110927948874973 8.08556950385218 L -1.100935516151815 8.08593304453436 L -1.090937671821955 8.08611020614833 L -1.08093812046047 8.086086130174998 L -1.070940928751757 8.08585515663409 L -1.06093933525783 8.085795596245418 L -1.050940916075756 8.085758012435672 L -1.041048043967684 8.084442637367111 L -1.032121968616602 8.08009388981563 L -1.025639287539218 8.072552633468948 L -1.021480661083395 8.063479380390328 L -1.018796104219402 8.053854489981703 L -1.017080964015136 8.044005138323447 L -1.016019104810909 8.034062941033527 L -1.015446082537527 8.024080069521524 L -1.015273245144063 8.014082232960064 L -1.015454582634678 8.004083607307798 L -1.015932773940107 7.994095473557886 L -1.015141449656784 7.984141092315023 L -1.012927782169708 7.974394173836286 L -1.009919784829958 7.964858783050183 L -1.006544580493319 7.955445581057424 L -1.003189059065552 7.94602510021457 L -1.000431825845927 7.93641770433899 L -0.9992073187543528 7.926506174410681 L -0.9996218601433612 7.916523101275294 L -1.0010310941882 7.906624535651746 L -1.002719755639239 7.896768599793094 L -1.004238793144927 7.886884786942018 L -1.005535919600182 7.876969621599566 L -1.006595711481565 7.86702605899562 L -1.007400030974458 7.85705874408458 L -1.007927674131908 7.847073002464211 L -1.00815365871823 7.837075948462379 L -1.008048459065154 7.827077085572476 L -1.007577035011995 7.817088757496834 L -1.006697696072406 7.807128254555833 L -1.005388139207548 7.797215027738138 L -1.003730718518577 7.787354307788981 L -1.001799156593224 7.777543930184622 L -0.9997015360208605 7.767767119487189 L -0.9975884793363523 7.757993293112694 L -0.995647518274353 7.748183881866859 L -0.9940855535999819 7.738307716933968 L -0.993096808579339 7.728356279647238 L -0.9928247042167379 7.718362429874591 L -0.9933328992258054 7.708378247370136 L -0.9956147204430561 7.698967182242705 L -0.9964157242140415 7.689001074730163 L -0.9966753262567635 7.679005020693632 L -0.9965567039012679 7.669005623292561 L -0.9961927052159271 7.659012057895324 L -0.9957088802184417 7.649023596054355 L -0.9952521357317261 7.639034061107528 L -0.9950506363416851 7.629036793994957 L -0.9983346289377035 7.619776461203007 " id="ID_36C"/>
    <path d="M -1.193082482515592 7.558728376919621 L -1.197770091009977 7.567558493201256 L -1.203912023749837 7.575429472661476 L -1.209869637396096 7.583457221688458 L -1.215157456520677 7.591940022036943 L -1.219704534412128 7.600843619749553 L -1.223581295014636 7.610059370721526 L -1.227051538931111 7.619438725604007 L -1.230493231763367 7.628826900158256 L -1.234249130431603 7.638093136414008 L -1.238512045050498 7.647137262600629 L -1.242188092957373 7.656428634597598 L -1.244848101651074 7.666066218288927 L -1.246839190900005 7.675865421862261 L -1.248353742773001 7.685749752242463 L -1.249508919578241 7.695682335570831 L -1.250381609867013 7.705642984255894 L -1.251025598766648 7.715622770625091 L -1.251480052581248 7.725612450544733 L -1.251775446009827 7.735608363214582 L -1.251925392023332 7.745606953356143 L -1.252136225361621 7.755604080400797 L -1.253350780790123 7.765520650898821 L -1.254913172353983 7.775381413761866 L -1.255302127485475 7.785372816478569 L -1.255374220378247 7.795372511951147 L -1.255468551593481 7.805371823403284 L -1.255982461017254 7.815357692944114 L -1.256615188371064 7.825337444331216 L -1.256894573780699 7.835332230021739 L -1.256504593030983 7.845322133891703 L -1.255697067418992 7.85528829380485 L -1.255182740026296 7.865274232001714 L -1.25486399885316 7.875269112877208 L -1.254617896109536 7.885266250706557 L -1.254319326054432 7.895263149838132 L -1.254048213585445 7.905259265089619 L -1.253992975628421 7.915259265010216 L -1.254135778422991 7.925257805112977 L -1.254458579003124 7.935252491512621 L -1.254943508557383 7.945240357959832 L -1.255572949847526 7.955219776098504 L -1.256329822828831 7.965193043095297 L -1.257196640837069 7.975154231190497 L -1.258156957212631 7.985107997593926 L -1.25919410916286 7.995054058442695 L -1.260291697644577 8.004993741952823 L -1.261433372325633 8.014928291756188 L -1.262602857068308 8.024859710626242 L -1.263783899495612 8.034790943180765 L -1.259110324603426 8.043215922513019 L -1.252195333537559 8.05042999663185 L -1.244200968308601 8.056400070117235 L -1.234492294472547 8.057842083708488 L -1.224513444988992 8.057565823662866 L -1.215000402332414 8.060542317099772 L -1.205582443100268 8.063850240346646 L -1.195817964191805 8.066004518635108 L -1.186043781061743 8.06811535324065 L -1.180082481898125 8.069728401190819 L -1.160422171719574 8.073103491901666 L -1.127287681920975 8.075897591745179 L -1.105126324098677 8.078476787860698 L -1.082534663205223 8.082345546896011 L -1.070443298442759 8.085852193200848 " id="ID_36D"/>
   </g>
   <g id="ID_0" color="rgb(0,0,0)" stroke="currentColor" fill="none" stroke-width="0.0001074482389119885"/>
  </g>
 </svg>