<?xml version="1.0" encoding="UTF-8" ?>
 <svg viewBox="-0.5875824537558856 -10.12767835463226  0.5092543453693477 0.5769498830977167" xmlns="http://www.w3.org/2000/svg" version="1.0" overflow="visible">
  <defs>
   <g id="ID__#42_Model_Space"/>
   <g id="ID__#42_Paper_Space0"/>
   <g id="ID__#42_Paper_Space"/>
  </defs>
  <g id="draft" transform="matrix(1 0 0 -1 0 0)" stroke-width="5.039721436807565E-5">
   <g id="Poliline" color="rgb(0,0,0)" stroke="currentColor" fill="none" stroke-width="0.00005039721436807565">
    <path d="M -0.5550824522122185 9.568728472389498 L -0.5458773988772077 9.5725728739941 L -0.5376960417881343 9.578298763046655 L -0.5304265974276064 9.585158246662234 L -0.5237148608149172 9.592569665517612 L -0.517199081706802 9.600155275523951 L -0.5105776725626443 9.60764828004968 L -0.5036141441453515 9.614822706189832 L -0.4961397728701567 9.621460626285135 L -0.4880648714181559 9.627351338557261 L -0.4796057095538835 9.632684388500532 L -0.4711842029454019 9.638076843755337 L -0.4628031170568683 9.643531783182453 L -0.4544558260048941 9.649038426919297 L -0.44613617650678 9.654586787262698 L -0.4378382112143467 9.660167573579923 L -0.4295561389342862 9.665771971171388 L -0.4212842534340018 9.671391476006974 L -0.4130169686151497 9.677017662889194 L -0.4047486350504111 9.682642106236784 L -0.3964733485921705 9.688256301386497 L -0.3881851063045749 9.693851334170377 L -0.3794601942414619 9.69849475600769 L -0.3711390935712338 9.70403351023809 L -0.3633502828251141 9.710300409313113 L -0.3559630724817131 9.717038986211996 L -0.3488511226197826 9.724068306546531 L -0.3418967167189306 9.731254016211802 L -0.3349888889860875 9.738484737505383 L -0.3280176551490816 9.745654237525907 L -0.3208673173856953 9.75264452808844 L -0.3134212885843244 9.759318328033363 L -0.3061199432432797 9.766149171776023 L -0.2992148311570206 9.77338144438356 L -0.2925119161656999 9.780802394458034 L -0.2855803395187939 9.78800718611977 L -0.2782278309881088 9.79478482634622 L -0.270787043887025 9.801466105257031 L -0.2633058393314158 9.80810263184171 L -0.2558136928093981 9.814725236052386 L -0.2483303563253782 9.82135781157531 L -0.2408722400704102 9.828019379528932 L -0.2334546505866601 9.834726274008837 L -0.2260928141565763 9.841493867910156 L -0.2188023162911588 9.848338220769046 L -0.2116008064731227 9.855276432857218 L -0.2045093805634517 9.862327462748217 L -0.19755441891229 9.869513052495387 L -0.1907695438888393 9.876859660897912 L -0.1842001758676783 9.88439971405169 L -0.1777297190969396 9.892025141086918 L -0.1714534576026727 9.899808447455666 L -0.166024894220417 9.908193822488577 L -0.1624979760297123 9.91752812904472 L -0.1609734193504089 9.927396984598165 L -0.1609400271904251 9.937391102649112 L -0.1617320592669804 9.947358562702142 L -0.1627564339562646 9.95730605460776 L -0.1641822972560529 9.967200167784934 L -0.1670006218288185 9.976779272409601 L -0.1713125427708357 9.98579881960887 L -0.1757713050442078 9.994749077993163 L -0.1795095757738112 10.00401761338264 L -0.1817482282189306 10.01374729410496 L -0.1817235483931379 10.02371967925236 L -0.1872603522028155 10.0318854297374 L -0.191531772892521 10.04091475620283 L -0.1945521251300075 10.05044240751541 L -0.1968310915007958 10.06017824918622 L -0.1988568485663364 10.06997092362736 L -0.201076194455184 10.07972078250662 L -0.2040049128567283 10.08927723770024 L -0.2077124269689783 10.09856343805076 L -0.2116163434969476 10.10776984217561 L -0.2151469747120744 10.11712337579638 L -0.2170824361580808 10.12406248314144 " id="ID_25F"/>
    <path d="M -0.5875824537558856 9.745228480772798 L -0.5839018109209535 9.735933531290774 L -0.580752872112841 9.726442805887851 L -0.5778748206949827 9.716865730899677 L -0.5751514558104418 9.70724305917356 L -0.5725084886397829 9.697597506301385 L -0.5698757714122671 9.68795026252976 L -0.5672867331583902 9.67829220369396 L -0.5653867584518784 9.668476755825633 L -0.5641805997392897 9.658551415639053 L -0.5635219660951636 9.648575225532905 L -0.5632390492755804 9.638579679964703 L -0.5631458516511856 9.62858024245727 L -0.5630468963565693 9.618580857903316 L -0.5627386481988595 9.608586087732554 L -0.562011339635566 9.598613782720163 L -0.5606568280015054 9.588708186897925 L -0.5584877713067709 9.578949921565869 L -0.5553678540557688 9.569453904552926 L -0.5550824522122185 9.568728472389498 L -0.5497709734572666 9.56027158636449 L -0.5439585034995327 9.552136640331591 L -0.543082451642249 9.550728471534544 " id="ID_260"/>
    <path d="M -0.3270824413827995 9.637728475666822 L -0.3218709593132676 9.645789370237528 L -0.3157221517294779 9.65367246917486 L -0.3100151483195033 9.661883438770248 L -0.3044379595334945 9.670183770930842 L -0.2986815418603896 9.678359941966365 L -0.2924469411559078 9.68617507433454 L -0.2854692867626403 9.693329986166152 L -0.2776890121851361 9.699605487418982 L -0.2694456789557833 9.70526433197363 L -0.2609747355245098 9.710578099187664 L -0.2524152993498641 9.715748985665861 L -0.2438738261838962 9.72095004906351 L -0.2354612917481678 9.726355716230806 L -0.227316494396816 9.732155472971474 L -0.2192570671638245 9.738074247410514 L -0.2106255344627534 9.743093593715168 L -0.2020824354456181 9.749728480986535 L -0.1949939839829087 9.756782109947913 L -0.1879379148084599 9.763868121413145 L -0.1809180081348094 9.770989940532841 L -0.1739378410426431 9.77815068589517 L -0.1670007376523621 9.785353122653213 L -0.1601096181304857 9.792599741353946 L -0.1532673320714819 9.799892347908976 L -0.146476154048746 9.807232555895148 L -0.1397380486866178 9.81462149537844 L -0.1330546020801773 9.822059892098423 L -0.1264270251761541 9.829548090477193 L -0.1198561650094341 9.837086084383948 L -0.1133425236527419 9.8446735521943 L -0.1068961046993575 9.852318271041733 L -0.1006514270191792 9.860128008309374 L -0.0947903205772951 9.868228365556597 L -0.0895360761302282 9.876733172627603 L -0.085142345704333 9.885710569921343 L -0.081818699658232 9.8951354754235 L -0.0796418764511691 9.904889677782627 L -0.0785346521988757 9.914823668342981 L -0.0783281083865379 9.924818412255075 L -0.0788369787151986 9.934803296727955 L -0.079900445541818 9.944744992844743 L -0.082082429745924 9.951728490581022 L -0.0821416099288968 9.959322929509243 L -0.0821416099288968 9.964485608570685 L -0.082082429745924 9.966728491293482 L -0.0826669770772473 9.968061298797481 L -0.0868658323862715 9.977136494845048 L -0.091394436595138 9.986051669383011 L -0.0962633269435953 9.994785621606098 L -0.1014778817485258 10.0033176786995 L -0.1070393172524282 10.01162756596466 L -0.1129455758550284 10.01969610922189 L -0.1191912116308913 10.02750486260947 L -0.1256681595229914 10.03512375854501 L -0.1320257385930033 10.04284250059631 L -0.1382693791566529 10.05065378453946 L -0.1444413002672435 10.05852193100192 L -0.1505870955200947 10.06641054136143 L -0.1567566771997981 10.07428056805705 L -0.1630055051825723 10.08208767408846 L -0.1693962615250708 10.08977879014214 L -0.1760318617831622 10.09725877836354 L -0.1830683423352752 10.10436248269134 L -0.1905691435319605 10.11097274059715 L -0.198638481066423 10.11687101589137 L -0.2074374493923665 10.12159564405652 L -0.2170824361580799 10.12406248314144 L -0.2186316574964326 10.1246546959024 L -0.2277556267177454 10.12767835463226 L -0.2377439601319384 10.1272683675232 L -0.2476669840514649 10.12605437542708 L -0.2574620320670089 10.12405392333065 L -0.2670755179586601 10.12130941443679 L -0.2764679614610497 10.11788285666235 L -0.2856162981082528 10.11384858996702 L -0.2945133944569589 10.10928607013769 L -0.3031656959456912 10.10427417042318 L -0.3115901256752469 10.09888753558902 L -0.3198110081842014 10.09319487423509 L -0.3278579418919012 10.08725837157467 L -0.33576345969872 10.08113463949409 L -0.3435623009792863 10.07487550379206 L -0.3512906368537987 10.0685294532054 L -0.358996810758855 10.06215652929236 L -0.3668348789725151 10.05594683592285 L -0.3747902704751445 10.04988791061757 L -0.3828271386685289 10.04393735973297 L -0.3909269724761479 10.03807291921002 L -0.3990794055555549 10.03228164094395 L -0.40727815092656 10.0265560767317 L -0.4155205764291053 10.02089160290659 L -0.4238032835648254 10.01528808592402 L -0.4321271430741059 10.00974591505794 L -0.4404687607281748 10.00423073059756 L -0.4487664110746561 9.998649585685452 L -0.4570794960767329 9.993090834824226 L -0.4654849755178452 9.98767348165165 L -0.4740796502983482 9.982563470763282 L -0.4829972611442468 9.978045663132942 L -0.4924164336107424 9.974728491673464 " id="ID_261"/>
   </g>
   <g id="ID_0" color="rgb(0,0,0)" stroke="currentColor" fill="none" stroke-width="0.00005039721436807565"/>
  </g>
 </svg>