<?xml version="1.0" encoding="UTF-8" ?>
 <svg viewBox="0.6118376423992657 -2.384216509516953  0.2179464475044064 0.30805845216762906" xmlns="http://www.w3.org/2000/svg" version="1.0" overflow="visible">
  <defs>
   <g id="ID__#42_Model_Space"/>
   <g id="ID__#42_Paper_Space0"/>
   <g id="ID__#42_Paper_Space"/>
  </defs>
  <g id="draft" transform="matrix(1 0 0 -1 0 0)" stroke-width="1.074482389119885E-4">
   <g id="Layer_#32_1" color="rgb(255,0,255)" stroke="currentColor" fill="none" stroke-width="0.0001074482389119885"/>
   <g id="Poliline" color="rgb(0,0,0)" stroke="currentColor" fill="none" stroke-width="0.0001074482389119885">
    <path d="M 0.6129176032648048 2.322728128222966 L 0.6147421574913547 2.312919308484367 L 0.6182333386994979 2.303552376167978 L 0.621316514053392 2.29405438019001 L 0.6222028315195473 2.284108779401107 L 0.6217194819362355 2.274124143899712 L 0.6209639981579463 2.26415375685714 L 0.6215204224957 2.254190053167906 L 0.6247929018685099 2.244785416202242 L 0.6298582379308258 2.236164152613675 L 0.6347055221622872 2.227417694183863 L 0.639456399530074 2.218618177284286 L 0.6442769436336812 2.209856785391549 L 0.6498081157221343 2.20153690786466 L 0.6562638569884057 2.193903547732356 L 0.6630467625145676 2.186555624880185 L 0.6695901149764634 2.178996461530623 L 0.675228603390841 2.170750435438602 L 0.6776951556597819 2.161093573734357 L 0.6826448590536947 2.152455530939333 L 0.6893829300940322 2.145077641519218 L 0.6966020864275473 2.138158095186426 L 0.7032298782871367 2.130684392224178 L 0.7080071103571175 2.121938454496437 L 0.7163268817558494 2.116602497555115 L 0.7255146977505432 2.112672883335889 L 0.7330804734820067 2.106230644887762 L 0.738461110767064 2.097823404609915 L 0.7430712938770565 2.088950351248518 L 0.7491808507944846 2.081096359737514 L 0.758012038723689 2.076608815877056 L 0.7679488112555255 2.076158057349324 L 0.7777526107282906 2.078090646724126 L 0.7874468701760639 2.080542573365628 L 0.7972778399342914 2.082341164316474 L 0.8072580243925928 2.082679154144031 L 0.8164195446510581 2.083488801478599 L 0.8231721724191576 2.090857931384752 L 0.8281480218339964 2.099483177296262 L 0.8297840899036721 2.109272041833632 L 0.8271645313080107 2.118885086443491 L 0.8233738947826765 2.12813844241881 L 0.8201673805401883 2.137605277167192 L 0.8185428740850753 2.147455550145958 L 0.8183243131721456 2.157450529652196 L 0.8176719875565918 2.167407148305201 L 0.813879016294333 2.17663118471227 L 0.8089586763371592 2.185336695336976 L 0.8047393544334182 2.194389981732902 L 0.8019650215607168 2.203992741364832 L 0.8000308882340574 2.213801746868945 L 0.798713294272833 2.223713310170209 L 0.7978876330720289 2.233678322434196 L 0.7979223017455049 2.243674288964337 L 0.7983444436989835 2.253665069010876 L 0.7977262436232602 2.263631125344835 L 0.7953289759308824 2.273329946841123 L 0.7919305849246179 2.282733321815243 L 0.788590759192597 2.29215647226978 L 0.7865134555375075 2.301925275672722 L 0.7857051385680887 2.311890666041685 L 0.7841029591505349 2.321727844041557 L 0.7778513089645385 2.329326851498443 L 0.7695822688051069 2.334944721015226 L 0.7609943419588419 2.34006849445878 L 0.7523135029086037 2.345032737019133 L 0.7436353534486271 2.349999330641567 L 0.7351108980070516 2.355225328699248 L 0.7267669274906181 2.360736150896068 L 0.7185139424982064 2.366383634757996 L 0.710244132160276 2.372006728629974 L 0.701793972961255 2.377352337579235 L 0.6930330479955354 2.382166772961728 L 0.6833261396222197 2.384216509516953 L 0.673341781107351 2.383824176171099 L 0.6634677541577556 2.382276709377503 L 0.653771100064727 2.379835036370442 L 0.6444140761121027 2.376331239282531 L 0.6366146011925267 2.370246428547517 L 0.6310838101436378 2.361921099112356 L 0.6243991721725557 2.354571356888213 L 0.6158574713455796 2.349517038242924 L 0.611975251897997 2.340423221783229 L 0.6118376423992657 2.330452643488403  z" id="ID_843"/>
   </g>
   <g id="ID_0" color="rgb(0,0,0)" stroke="currentColor" fill="none" stroke-width="0.0001074482389119885"/>
  </g>
 </svg>