<?xml version="1.0" encoding="UTF-8" ?>
 <svg viewBox="-0.1126251524120674 -2.822311394470681  0.4055427404776868 0.21558325275843915" xmlns="http://www.w3.org/2000/svg" version="1.0" overflow="visible">
  <defs>
   <g id="ID__#42_Model_Space"/>
   <g id="ID__#42_Paper_Space0"/>
   <g id="ID__#42_Paper_Space"/>
  </defs>
  <g id="draft" transform="matrix(1 0 0 -1 0 0)" stroke-width="1.074482389119885E-4">
   <g id="Layer_#32_1" color="rgb(255,0,255)" stroke="currentColor" fill="none" stroke-width="0.0001074482389119885"/>
   <g id="Poliline" color="rgb(0,0,0)" stroke="currentColor" fill="none" stroke-width="0.0001074482389119885">
    <path d="M 0.0724175775924323 2.649728143754632 L 0.0822660067461989 2.648029905548485 L 0.0918562210364806 2.645213623859588 L 0.1011273314303906 2.641474713150239 L 0.1100775451397595 2.637018730525497 L 0.1187461645098704 2.63203547391709 L 0.1271974203816946 2.626690734729558 L 0.1355085648206185 2.621129970502432 L 0.1437642001754869 2.615486851155425 L 0.1520540725179718 2.609894257421361 L 0.1569175816059669 2.606728141712242 " id="ID_7FB"/>
    <path d="M -0.1087494232000381 2.767728149359331 L -0.1126251524120674 2.776889251045217 L -0.1088585488443092 2.785384459988833 L -0.0993650064068135 2.788368229142154 L -0.0895132203356841 2.790079521677643 L -0.0799460272075345 2.792920350226754 L -0.0709211489032988 2.79721814767274 L -0.062145086825784 2.802010607109313 L -0.0533704041566869 2.806806919739063 L -0.0442614919938098 2.810909470090997 L -0.0344422975567067 2.812688558107133 L -0.0244524006398548 2.812721392323256 L -0.0145399191510123 2.811440174091586 L -0.0047770369749145 2.809286512578369 L 0.0048765585857193 2.806674900049126 L 0.0145083492180938 2.803984415147517 L 0.0242175297001097 2.80159294409621 L 0.0340731036768371 2.799922594741644 L 0.0440569633125119 2.799621321811221 L 0.0539683469412848 2.800881846865626 L 0.0636450147866823 2.803384299951662 L 0.0730671054764098 2.806726318526942 L 0.0823214676066178 2.810515588355661 L 0.0915443525213746 2.814380658164063 L 0.1008884013172073 2.817939825589405 L 0.1104795945688606 2.820754188301338 L 0.120347340625127 2.822311394470681 L 0.130329689200936 2.822121550102934 L 0.1400706308924624 2.819942766060126 L 0.1492149434201195 2.815913579367531 L 0.1579369490555251 2.811029016784992 L 0.1662685196479767 2.8055044639436 L 0.1740997495319974 2.799290283307609 L 0.1817506583838044 2.792852268058503 L 0.1900633326585357 2.787321792570111 L 0.1993609843351383 2.78369526685871 L 0.2091593799610623 2.781726005113902 L 0.2190294775247175 2.780127464861807 L 0.228752711501814 2.77779233152211 L 0.2383660462107278 2.775041711575592 L 0.2477651427035576 2.771635226743203 L 0.2568186214866559 2.767398727887094 L 0.2654056627277894 2.762281954863587 L 0.2733840062403718 2.756270518346552 L 0.280024708856641 2.748827786706339 L 0.2841479444391295 2.739766410540989 L 0.2857245399217554 2.729908665366018 L 0.2862223493148992 2.719922889299866 L 0.2868175708793226 2.709943363490262 L 0.2880496734627966 2.700022048099631 L 0.2900068873622903 2.690217622077849 L 0.2904030454695876 2.680237846495302 L 0.290088206550565 2.670242886101082 L 0.2900857898514095 2.660245734351498 L 0.2912740946466119 2.650319762475636 L 0.292581756094668 2.640406856604 L 0.2929175880656194 2.632728142947176 " id="ID_7FC"/>
   </g>
   <g id="ID_0" color="rgb(0,0,0)" stroke="currentColor" fill="none" stroke-width="0.0001074482389119885"/>
  </g>
 </svg>