<?xml version="1.0" encoding="UTF-8" ?>
 <svg viewBox="1.578270267271136 -1.636439239728206  0.544841137319837 0.4650781770153729" xmlns="http://www.w3.org/2000/svg" version="1.0" overflow="visible">
  <defs>
   <g id="ID__#42_Model_Space"/>
   <g id="ID__#42_Paper_Space0"/>
   <g id="ID__#42_Paper_Space"/>
  </defs>
  <g id="draft" transform="matrix(1 0 0 -1 0 0)" stroke-width="1.074482389119885E-4">
   <g id="Layer_#32_1" color="rgb(255,0,255)" stroke="currentColor" fill="none" stroke-width="0.0001074482389119885"/>
   <g id="Poliline" color="rgb(0,0,0)" stroke="currentColor" fill="none" stroke-width="0.0001074482389119885">
    <path d="M 1.861417662565371 1.194228074622092 L 1.855362339631126 1.200574303852294 L 1.847918788254703 1.207249819066806 L 1.840136426441139 1.213528298392661 L 1.832125608083644 1.219513474917398 L 1.823943819439274 1.225263228105371 L 1.815624361359772 1.230812352065777 L 1.807188076349004 1.236181912616306 L 1.798647651232766 1.241384393330147 L 1.790011012617229 1.246425414416048 L 1.781282250667701 1.251304956668009 L 1.772462279587276 1.256017389358797 L 1.763586126368858 1.260623122429166 L 1.754794322583622 1.26538773765271 L 1.746065816004993 1.270267542964925 L 1.737349487996551 1.275169716532369 L 1.728582537389177 1.279979224799657 L 1.719687138980278 1.284546449369189 L 1.710575667107922 1.288663241823599 L 1.70116416442049 1.292030686577598 L 1.691417654490806 1.294228079371837 L 1.689631031555062 1.296001417714313 L 1.682009772984859 1.302469873954214 L 1.673974974614612 1.308422002198474 L 1.665760986223831 1.314126042949656 L 1.657482491029742 1.319735828919926 L 1.649082111933434 1.325157527552281 L 1.64035770434617 1.330043243609342 L 1.631480457748001 1.334646421414293 L 1.622581467000173 1.33920889011849 L 1.613784430651538 1.343962431430824 L 1.605245686025811 1.349163857650392 L 1.597221241902743 1.355121806107861 L 1.590170826608843 1.36219370958034 L 1.584863418703277 1.370635290844957 L 1.58198005295593 1.38018348493931 L 1.580800354045259 1.390109088065694 L 1.57988551109216 1.400066532102902 L 1.578270267271136 1.409930447856405 L 1.581603968755151 1.419192340154545 L 1.584013233995632 1.428869661157705 L 1.582917649337332 1.438728086235219 L 1.58536158380056 1.448420622471639 L 1.586917360147444 1.458296175402487 L 1.587996162286899 1.468237726684332 L 1.589738482443168 1.47807319098171 L 1.594194638519438 1.486947564850998 L 1.601246958429263 1.494028975617217 L 1.608429494590903 1.500985982004234 L 1.61561517958845 1.507939746654592 L 1.622805770472673 1.514889222645459 L 1.630002323950048 1.521832493247584 L 1.637207032827451 1.528767574642177 L 1.644423214329091 1.535690958953127 L 1.651657358290812 1.542595874974539 L 1.659128018319758 1.549226646710842 L 1.666783553640968 1.555658598830484 L 1.674289508091525 1.562269293615079 L 1.681653418876584 1.569034529287714 L 1.688900434497988 1.575923688715491 L 1.696070911551214 1.582895172426473 L 1.703215501914715 1.589891754733073 L 1.710398503599277 1.596848945749652 L 1.717687202103593 1.603695349802253 L 1.725142613312787 1.610358768655006 L 1.732760143109931 1.616837287139693 L 1.740474835443454 1.623199629704416 L 1.74850052316891 1.629160903796895 L 1.757241183352857 1.633985164759696 L 1.766897137580285 1.636439239728206 L 1.776876586813232 1.636295193839837 L 1.786733572323089 1.634642191819581 L 1.796549634048536 1.632757456885697 L 1.806465408116835 1.631467518629184 L 1.816334909600413 1.629861347294342 L 1.826034985027002 1.627445786529447 L 1.835303696161668 1.62374618446732 L 1.844122924816526 1.619045609085899 L 1.852917662161644 1.616728094689765 L 1.860670296525885 1.610499170591939 L 1.869664199488832 1.60613979059588 L 1.878793789647668 1.602061292582629 L 1.887366464437503 1.596936634413209 L 1.895108877656124 1.590616937075566 L 1.902290410603037 1.583660048820746 L 1.909327643297599 1.576555612390674 L 1.916598618900803 1.569692204908641 L 1.92434061569555 1.563367569979758 L 1.932532249625218 1.557635448592829 L 1.941006429174233 1.552327234366407 L 1.949614132908491 1.547237620897027 L 1.958227342156519 1.542157140708516 L 1.966728105947476 1.53689129280459 L 1.975000225322921 1.531274198451738 L 1.982926797943392 1.525181270854096 L 1.99042059933882 1.518563053613739 L 1.99760055032782 1.511602810606575 L 2.004602781783665 1.504463090122461 L 2.011516578028631 1.497238082361487 L 2.0184083773201 1.489992016272879 L 2.025330620659198 1.482774727539316 L 2.032327231730493 1.475629400568346 L 2.039437135761938 1.468596935607207 L 2.046696119990278 1.461719285486545 L 2.05413898182187 1.455041142183548 L 2.061798870613386 1.448613468160438 L 2.069707848556846 1.442495189935748 L 2.077858933385004 1.436702359766059 L 2.08560621248733 1.430384298964012 L 2.092801319699833 1.423443135439425 L 2.099504559205811 1.416024820249706 L 2.105717335162228 1.408189545686219 L 2.111386236471142 1.399954242450352 L 2.116388984075347 1.391300973972446 L 2.120477407185253 1.382179801827014 L 2.123111404590973 1.372549626836075 L 2.123031916873344 1.362608341800095 L 2.119560448373903 1.353243925744397 L 2.116533427412246 1.34371347298387 L 2.11354350865609 1.334171117716 L 2.11007406478691 1.324795419461217 L 2.105798783089332 1.315757970602218 L 2.100962085763527 1.307006744216513 L 2.095753162261389 1.298471171259768 L 2.090356335294669 1.290052614033371 L 2.084946629445489 1.281642253063168 L 2.07969076731686 1.273135601181055 L 2.074744170162219 1.264446019451545 L 2.070080414111112 1.255600613797815 L 2.065403680490496 1.246762033609488 L 2.060316986624499 1.238154875450131 L 2.054493903019146 1.230029622857202 L 2.047844079603965 1.222568579593943 L 2.041059193752382 1.215233796040967 L 2.034189958302827 1.207969574298434 L 2.026822383236194 1.201211476742951 L 2.018972400892445 1.195020323388163 L 2.0106851556787 1.189428231847257 L 2.002031303234289 1.184421476233909 L 1.99309727910446 1.179931651246301 L 1.983973800396283 1.175838708681455 L 1.974584581693074 1.17244933957955 L 1.964663325077352 1.171361062712833 L 1.954689294712998 1.171973074213005 L 1.944827815237784 1.173617050146754 L 1.935083830159457 1.175862234996817 L 1.925416188149987 1.178418391635473 L 1.915771409905548 1.181060213760437 L 1.906079642508577 1.183519705511979 L 1.896271932137069 1.18546863470696 L 1.886440483102068 1.18729668115445 L 1.876667866124523 1.189412377889452 L 1.867055047715416 1.192157949971738  z" id="ID_925"/>
   </g>
   <g id="ID_0" color="rgb(0,0,0)" stroke="currentColor" fill="none" stroke-width="0.0001074482389119885"/>
  </g>
 </svg>