<?xml version="1.0" encoding="UTF-8" ?>
 <svg viewBox="0.2625836022498333 -0.9927280650513576  0.1933565750907445 0.1730421401223854" xmlns="http://www.w3.org/2000/svg" version="1.0" overflow="visible">
  <defs>
   <g id="ID__#42_Model_Space"/>
   <g id="ID__#42_Paper_Space0"/>
   <g id="ID__#42_Paper_Space"/>
  </defs>
  <g id="draft" transform="matrix(1 0 0 -1 0 0)" stroke-width="1.074482389119885E-4">
   <g id="Layer_#32_1" color="rgb(255,0,255)" stroke="currentColor" fill="none" stroke-width="0.0001074482389119885"/>
   <g id="Poliline" color="rgb(0,0,0)" stroke="currentColor" fill="none" stroke-width="0.0001074482389119885">
    <path d="M 0.4189175940502992 0.9827280645763813 L 0.4234499932894371 0.9738173405233663 L 0.4273770272717936 0.9646219052887339 L 0.4310198088180677 0.9553091724281372 L 0.4347851399022158 0.9460457011452376 L 0.4389742169419435 0.936966325419112 L 0.4434475379718137 0.9280229147859042 L 0.4479219038894309 0.9190804321425236 L 0.4519796123932638 0.9099461897717961 L 0.4549643014155889 0.9004144581641053 L 0.4559401773405778 0.8904846109308302 L 0.4541952095498969 0.8806719622291936 L 0.4500060031555755 0.871615177941214 L 0.4442014634752401 0.8634847974090131 L 0.4374289343109723 0.8561333777673426 L 0.4299348520606419 0.8495233403733735 L 0.4223448879034546 0.8430106573031395 L 0.4175836096119383 0.8380620420801143 L 0.4085648492746845 0.8337470944737059 L 0.3992781276154922 0.8300422106938452 L 0.3897874676184489 0.8268958394555596 L 0.3801341710204475 0.8242901247113145 L 0.3703496579888243 0.8222311341497245 L 0.3604620494215025 0.8207446362887083 L 0.3505014145415171 0.819875031072442 L 0.3405050482411962 0.8196859249289722 L 0.3305240802687539 0.8202613321912579 L 0.3206324485236545 0.8217059806611217 L 0.3109386766031585 0.8241418249709795 L 0.3015986002751623 0.8276957600124408 L 0.2927530770119428 0.8323527457306258 L 0.2841940499388702 0.8375183403423154 L 0.2764653245045814 0.8438363782422531 L 0.2707676872773135 0.8519914003146062 L 0.2686152661188936 0.8617248806697617 L 0.2673432743448041 0.8716427492891956 L 0.2647849850229864 0.881289658398364 L 0.2625836022498333 0.8857280599691286 L 0.2648455426914715 0.895468129253814 L 0.2666281248635558 0.9053065505385653 L 0.2677805164306406 0.91523783627248 L 0.2681742346938067 0.9252272780049821 L 0.2677481278973044 0.9352152105949826 L 0.2665058068732105 0.9451341340460395 L 0.2643085675378565 0.9548881440601046 L 0.2632217127842154 0.9647900408773786 L 0.2662260675264045 0.9742393798103901 L 0.2731857690221053 0.9812300993627953 L 0.2812235830829737 0.9871400429466188 L 0.2849175876856416 0.9927280650513576 " id="ID_9BD"/>
   </g>
   <g id="ID_0" color="rgb(0,0,0)" stroke="currentColor" fill="none" stroke-width="0.0001074482389119885"/>
  </g>
 </svg>