<?xml version="1.0" encoding="UTF-8" ?>
 <svg viewBox="-0.7048247324553927 -9.656928764068976  0.5782447422579793 0.5140496235150565" xmlns="http://www.w3.org/2000/svg" version="1.0" overflow="visible">
  <defs>
   <g id="ID__#42_Model_Space"/>
   <g id="ID__#42_Paper_Space0"/>
   <g id="ID__#42_Paper_Space"/>
  </defs>
  <g id="draft" transform="matrix(1 0 0 -1 0 0)" stroke-width="5.039721436807565E-5">
   <g id="Poliline" color="rgb(0,0,0)" stroke="currentColor" fill="none" stroke-width="0.00005039721436807565">
    <path d="M -0.6930824587668667 9.368728462890008 L -0.6863880966415818 9.361796345179691 L -0.6819093397471159 9.352869126283492 L -0.6785004427733652 9.343470101036528 L -0.6754451100916655 9.333947226591505 L -0.6719978973516901 9.324563096616126 L -0.6673946379651925 9.315700058790863 L -0.6615108725479937 9.30761875335659 L -0.6554366594889754 9.299675605277441 L -0.6500326354507875 9.291270316962343 L -0.6454380219489293 9.282392407589201 L -0.6401632983796075 9.273897807262086 L -0.6345842104668044 9.265598071723227 L -0.6287093816675329 9.257505270620179 L -0.6227367496370411 9.249485775262569 L -0.6167153666051846 9.241503203499859 L -0.6098738938411481 9.234227407892128 L -0.6015216166198174 9.228816281779626 L -0.5920806621400461 9.225538019170484 L -0.5840416491120113 9.219672249779343 L -0.5770498944602372 9.21252368988791 L -0.569689091536934 9.205765343603922 L -0.5618119544015725 9.199617227994615 L -0.554606256747249 9.192684616565423 L -0.5475085212806299 9.185640230840843 L -0.5401630034371614 9.178856796925356 L -0.5322753688953769 9.172718436681889 L -0.5235487482323347 9.167870172976805 L -0.5140334724316596 9.170724556604558 L -0.5044631009669347 9.173624208809457 L -0.4949271711617183 9.17663392587687 L -0.4855358333913573 9.180064747187325 L -0.4764435714685842 9.184218881590557 L -0.467839104827962 9.189303519024573 L -0.4598909767550028 9.19536222064555 L -0.4527125729168846 9.202314328396051 L -0.4463669055640081 9.210041584030016 L -0.4395421741726136 9.2173418511459 L -0.4320997808014289 9.224017760375604 L -0.4242603389007318 9.230223282114183 L -0.4161570972480293 9.236085360772313 L -0.4079244692886608 9.241755948184464 L -0.3996774467880879 9.24741547584946 L -0.3915501419546583 9.253240947585834 L -0.3836815922903058 9.259410234411826 L -0.3762316380664972 9.266077572682658 L -0.3693737572925011 9.27335049729838 L -0.3632199387257611 9.281229365385588 L -0.3573839478353458 9.289349623294791 L -0.3512605156507433 9.297252705308797 L -0.3446977953832953 9.304796594265051 L -0.3378030348045922 9.312039076636433 L -0.3306347495245836 9.319011716452842 L -0.3232403155729422 9.325743403792792 L -0.3156574108171508 9.33226147641554 L -0.3079159875343995 9.338591890317298 L -0.3000429059076932 9.344757222294138 L -0.2920607002934155 9.350779422373966 L -0.2839878950437944 9.356680916510534 L -0.2758432132067385 9.362483025488858 L -0.267644664569251 9.368208548906642 L -0.2595575467198365 9.374085504003062 L -0.2521162463822364 9.380760099764213 L -0.2452462635575268 9.388024539345295 L -0.2386743320155746 9.395561916088791 L -0.2320739714845672 9.403073856804179 L -0.2251628896616182 9.410299363456597 L -0.2177718829480053 9.417031788470476 L -0.2103987458821743 9.423785553984631 L -0.2033192306736495 9.430844512186432 L -0.1963854992340153 9.438051317205044 L -0.1894457398536744 9.445250195922505 L -0.1822335313164007 9.452175923595039 L -0.1747017303477323 9.458752252009788 L -0.1670121037113619 9.465144909741475 L -0.1593235921501508 9.471539328536895 L -0.1518012244815754 9.478127292898726 L -0.1446268395884358 9.485090649281762 L -0.1380024466141227 9.492577559799324 L -0.1305197822303015 9.498695873249968 L -0.1300824320258016 9.498728469064677 " id="ID_27C"/>
    <path d="M -0.5330824511672745 9.143728452203082 L -0.5281963569391195 9.14287914055392 L -0.5248402005812807 9.14287914055392 L -0.5180824504548128 9.143728452203082 L -0.5138148812962902 9.145517716154856 L -0.5045788156105396 9.149350904703889 L -0.4954536410279804 9.15343900979975 L -0.4865991614613341 9.158081100524578 L -0.478182859127351 9.163472354888505 L -0.4703552051821669 9.16969232763283 L -0.462683321197166 9.17610638838403 L -0.4546717880842515 9.18208473549618 L -0.4460940249245829 9.187219477290105 L -0.4373231127794002 9.192022611041688 L -0.4287863728031907 9.197224369721312 L -0.4210006119163836 9.203481422556242 L -0.4140838441486654 9.210700336472527 L -0.4071794133372171 9.217931528575324 L -0.3995611623854938 9.224402574466257 L -0.3916572605645045 9.230528247699983 L -0.383633071337897 9.236495650253651 L -0.3755414124907519 9.242371471048177 L -0.3674291635485067 9.248218897003403 L -0.359339765203611 9.254097829892267 L -0.351315472054754 9.260065089147004 L -0.3433990192243854 9.266174649209542 L -0.3356354199277165 9.272477214898036 L -0.3280731874995926 9.279019452484043 L -0.32076357896314 9.285842650386162 L -0.3137012943178012 9.292922018637976 L -0.3067811002356482 9.300140726074847 L -0.2998909331073873 9.30738816971493 L -0.2929253628679502 9.314563011813977 L -0.2857887117341997 9.321567318922982 L -0.2783978483361178 9.328302255441725 L -0.2707268418166278 9.334716722654058 L -0.2629153127173662 9.340960117278016 L -0.2550897719917708 9.347185886532989 L -0.2473445723167256 9.353511203191847 L -0.2397592437393294 9.360027000198293 L -0.2324066736230765 9.366804085676195 L -0.2253573717535833 9.37389547435605 L -0.2186798550264122 9.381337620253474 L -0.2124322470976452 9.389144114320358 L -0.2065178517578952 9.397207081195273 L -0.200740196530294 9.405369034168121 L -0.1948875569307908 9.413477219072387 L -0.1887359979963126 9.421359736736482 L -0.1820695458131842 9.42880968197386 L -0.1746952663021126 9.43555397106132 L -0.1666353764362451 9.441471270968607 L -0.1588887826588357 9.447779176413626 L -0.1519138250107028 9.454942305271583 L -0.1454746908756386 9.462590264411109 L -0.1397079779351946 9.47075569485788 L -0.1348529596115933 9.479490783513485 L -0.1313559423719779 9.48884483772507 L -0.1300824320258016 9.498728469064677 L -0.1269341115855544 9.506809704458536 L -0.1265799901974134 9.516763235464223 L -0.1288204564502404 9.526488343871723 L -0.1328879469792827 9.535609677545548 L -0.138377165063174 9.543956963482211 L -0.1451421741590888 9.55130482007398 L -0.1531949702383244 9.55720408951875 L -0.1612287794164686 9.563145265937337 L -0.1681864860628028 9.570306472296625 L -0.1735639599058079 9.57871484988406 L -0.177308507009319 9.587976971786148 L -0.1803382975360632 9.597506524896914 L -0.1841446249798819 9.606744383708229 L -0.1891297744547655 9.615406821113766 L -0.1947297888581181 9.623691055936098 L -0.2002315204891953 9.632038344046752 L -0.2047858235400763 9.640938057889567 L -0.2110874686397413 9.648563727101237 L -0.2199567328033938 9.65313434391229 L -0.2295651682215363 9.655852328635106 L -0.2394972531702324 9.656928764068976 L -0.2494888981533787 9.656686798606087 L -0.2594103995816344 9.655458197071871 L -0.2692197673657741 9.65352118030693 L -0.2789210014843091 9.651096817661182 L -0.2885406596564062 9.64836527564328 L -0.2981171746579045 9.645485649029508 L -0.3076968612746258 9.642617108284409 L -0.3173330730385668 9.639945685674862 L -0.3270824413827995 9.637728475666822 L -0.3300970226842113 9.635626093219033 L -0.3387582710348038 9.63063995356035 L -0.3479028637909733 9.62660173365769 L -0.3573210256347643 9.62324451919913 L -0.3668617219565657 9.62024934008825 L -0.3764191282303262 9.617307541983159 L -0.385907029763624 9.614150088718915 L -0.3952393888235424 9.610561301237869 L -0.4043049708323379 9.60634735744423 L -0.4130634894715098 9.601523458590968 L -0.4217050371365776 9.596491210850834 L -0.4304584455359822 9.59165807031656 L -0.4395338921638592 9.5874679164628 L -0.4487996322099824 9.583706691980392 L -0.4580664738687173 9.57994811861555 L -0.4673431935744956 9.57621350872725 L -0.4766383654096567 9.572525246237731 L -0.4859611631066363 9.568907566692937 L -0.4953213305592979 9.565387902555411 L -0.5047293815392689 9.561998535845188 L -0.514196696062756 9.558778950174093 L -0.523735936418592 9.55577917362174 L -0.5333601890721136 9.55306537578278 L -0.543082451642249 9.550728471534544 L -0.5512653208062881 9.544986765574958 L -0.5599319771084277 9.54000409195871 L -0.5689629473683216 9.53571451496672 L -0.578239470000252 9.531983135660976 L -0.5876592093399174 9.528627588607664 L -0.5971382327270467 9.52544237821604 L -0.6066039431665109 9.522218134419909 L -0.6159847954454359 9.518756085324437 L -0.625201999329474 9.514881167098746 L -0.6341670675161977 9.510455858901114 L -0.6427872853029984 9.505392887599461 L -0.6509778005903 9.49966154974591 L -0.6586749455299437 9.493283210114514 L -0.665915656911805 9.486388737536744 L -0.6733410700429207 9.479691679688194 L -0.6809244994318667 9.473173192085733 L -0.6885081251681715 9.466654779467762 L -0.6958759000759711 9.459895344263034 L -0.7018528927083949 9.451971199680855 L -0.7042682863552514 9.442299938016072 L -0.7048247324553927 9.432322280307613 L -0.7043826273658667 9.4223344887151 L -0.7032725481832527 9.412397254844853 L -0.7016682390921734 9.40252655368075 L -0.6997176144672049 9.392719108335925 L -0.6973768951747612 9.382997424332032 L -0.6946065047043019 9.373389454941773 L -0.6930824587668667 9.368728462890008 L -0.6932379264593626 9.358743146440046 L -0.6919036409014341 9.348838958738744 L -0.6895423579166611 9.339125053442825 L -0.6864421600740789 9.32961965007052 L -0.682785329093103 9.32031336480673 L -0.6786917013349374 9.311190259554685 L -0.6742430540452214 9.302234528340303 L -0.669496893269443 9.29343254058081 L -0.6644943980782934 9.284773222621691 L -0.6592654474620147 9.276248529928889 L -0.6538315429019878 9.26785346454408 L -0.6482069513748847 9.259585482302187 L -0.6423992742279739 9.25144494319557 L -0.6364098753909762 9.243437262556586 L -0.6300685532587345 9.23570814237325 L -0.6232131629636753 9.228429597250054 L -0.616011931942583 9.221491858004402 L -0.6085991821736921 9.214779917227801 L -0.6010847599002487 9.208181758045516 L -0.5935673373826261 9.201587219825761 L -0.5861465799661714 9.194884710522118 L -0.578935537370894 9.187957376210635 L -0.5720766144983696 9.18068220310289 L -0.5657596267957254 9.172934012918123 L -0.5602390761114578 9.164602326497805 L -0.5558363725813847 9.15563367387485 L -0.5505685615613976 9.14782265420789 L -0.5410738005444466 9.144792460647828  z" id="ID_27D"/>
   </g>
   <g id="ID_0" color="rgb(0,0,0)" stroke="currentColor" fill="none" stroke-width="0.00005039721436807565"/>
  </g>
 </svg>