<?xml version="1.0" encoding="UTF-8" ?>
 <svg viewBox="-0.6375234962976783 -2.197728122285784  0.6264410699240734 0.4757721153519259" xmlns="http://www.w3.org/2000/svg" version="1.0" overflow="visible">
  <defs>
   <g id="ID__#42_Model_Space"/>
   <g id="ID__#42_Paper_Space0"/>
   <g id="ID__#42_Paper_Space"/>
  </defs>
  <g id="draft" transform="matrix(1 0 0 -1 0 0)" stroke-width="1.074482389119885E-4">
   <g id="Layer_#32_1" color="rgb(255,0,255)" stroke="currentColor" fill="none" stroke-width="0.0001074482389119885"/>
   <g id="Poliline" color="rgb(0,0,0)" stroke="currentColor" fill="none" stroke-width="0.0001074482389119885">
    <path d="M -0.1846961552325013 1.803933555098556 L -0.1875780740358435 1.791768874686416 L -0.1906051050182684 1.782278682533732 L -0.1964006644143872 1.774178012468784 L -0.2041227902274576 1.767855923209673 L -0.21280249856148 1.762902862639254 L -0.2218820651516014 1.758714854968346 L -0.2310728882681063 1.754774217946552 L -0.240197449990049 1.750682978522746 L -0.2493400120105083 1.7466317848619 L -0.2585487684029024 1.742733217972375 L -0.2678296590742857 1.739009433828952 L -0.2771900072198044 1.735487402716167 L -0.286635936705049 1.732203016030192 L -0.2961758534850176 1.729203754050683 L -0.3058185518902574 1.726555641324242 L -0.3155722563191112 1.724353991013158 L -0.3254397420420849 1.722743388461335 L -0.3354047267680347 1.721956006933858 L -0.3453859587236208 1.722387799733301 L -0.3550824427127281 1.724728099819492 L -0.3575551681574778 1.726802928218273 L -0.3663576388736862 1.731474417095018 L -0.3759882137656394 1.734131634270502 L -0.3858299300816421 1.735900708142191 L -0.3956481114872741 1.737791035020272 L -0.4052378151686762 1.740611231163732 L -0.4146820085651166 1.743897754372525 L -0.424050393521009 1.747396193647963 L -0.4333667795093117 1.751031892944993 L -0.4426487846510803 1.75475221632082 L -0.4519142982327278 1.758516951720951 L -0.4611765534004606 1.762289256492586 L -0.4704500363561453 1.766032769853373 L -0.4797511515942637 1.769706510188347 L -0.4890994604646837 1.773257804912113 L -0.498520741079811 1.776609826749936 L -0.5080519713876681 1.779633020439483 L -0.5177494426264957 1.782062086917706 L -0.5249679776814525 1.78804105132335 L -0.533474741085616 1.793291888296913 L -0.5422118640921881 1.798156199691289 L -0.5506864155984168 1.803455540809292 L -0.5585787070054878 1.809590991048985 L -0.566009660747274 1.816281294867584 L -0.5731873759879313 1.823243406945588 L -0.5803623310716813 1.830207334934316 L -0.587808800557613 1.83687982236511 L -0.5957938756054251 1.842892482915191 L -0.6045067111063674 1.847780090620792 L -0.6137755270414749 1.851510106882997 L -0.6213124458408057 1.857954701174836 L -0.6258827045382445 1.866803921482661 L -0.6282308970451016 1.876510667672777 L -0.6292737494897445 1.886452007151097 L -0.6296222010367956 1.896444700273521 L -0.6297587301887005 1.906444491918147 L -0.6303816817859555 1.916420154917497 L -0.6320826472927737 1.926272225200619 L -0.6337644269110286 1.936126223825249 L -0.633721965748615 1.946105772260827 L -0.6341128535758918 1.956087738293357 L -0.6355654735770662 1.965979938832479 L -0.6370826668357168 1.975862939751431 L -0.6375234962976783 1.985840298681189 L -0.6355617741972069 1.995606252282891 L -0.630582455798276 2.004228113095027 L -0.6210596346619042 2.006878969603462 L -0.6128660662110282 2.012589727616223 L -0.605173504130943 2.018977934525414 L -0.5974338189648805 2.025308961403656 L -0.5894496414109219 2.031328410361997 L -0.5810044149787394 2.036674499784471 L -0.5721404040397325 2.041300858512338 L -0.563078585298567 2.045529074579521 L -0.5539471120911248 2.049605433056006 L -0.5448506962233531 2.053758893361269 L -0.5358187288017425 2.058051151140185 L -0.5268149876678488 2.062402341331063 L -0.5178473097203158 2.066827358028321 L -0.5089243798505079 2.071341872722738 L -0.500055972341297 2.075962420704511 L -0.4912530266310835 2.080706590436342 L -0.4825282610119413 2.085592940201301 L -0.4738962358703374 2.090641206921327 L -0.4653738284755465 2.095872291376675 L -0.4569806784637818 2.101308225748507 L -0.4487396861836537 2.106972046085587 L -0.4406775472169864 2.112887525871734 L -0.4328252884177024 2.11907871422116 L -0.4280824461800421 2.123062103114339 L -0.4183916777415249 2.125186482740716 L -0.4100986332839734 2.130710013933439 L -0.4031693053371095 2.137906634556856 L -0.3970372626396603 2.145803214635476 L -0.3912337159291939 2.153946641818956 L -0.3853890809168199 2.162060520033671 L -0.3791560728035463 2.169877444916187 L -0.3721541519699008 2.177005919888964 L -0.364152377890079 2.182989709405962 L -0.3554394120072457 2.187884426815692 L -0.3462122150024216 2.191725565050457 L -0.3366237850609757 2.194549145700314 L -0.3267978563851592 2.196384412464048 L -0.3168389936272078 2.197246334907111 L -0.3068436820133646 2.197131907713758 L -0.3020824401953632 2.197728122285784 L -0.2929422124828287 2.1937514802188 L -0.2831764391292752 2.191633606890453 L -0.2732551322579395 2.19039239711137 L -0.2632963607435785 2.189483790938963 L -0.2533369235579812 2.18858427717202 L -0.243400928735487 2.187459932274933 L -0.2335541240130698 2.185723851078922 L -0.2237698326120148 2.183657901159383 L -0.213965006857034 2.18169549556168 L -0.2040737569061415 2.180240626381849 L -0.194092185418663 2.179748997294836 L -0.1841560026584172 2.180752981403557 L -0.1746347661471876 2.183739875152463 L -0.1690824338782022 2.186728121763312 L -0.159085490594701 2.186606744882269 L -0.1491276040339917 2.185718986407618 L -0.1392732047244545 2.184035569080625 L -0.1295895282081467 2.181551365532891 L -0.1201398532420193 2.178288144996281 L -0.1109755527983038 2.174292518599067 L -0.1021314597807148 2.169630144813647 L -0.0936240848635546 2.164377790579145 L -0.0854529776026043 2.158615631645176 L -0.0776040074688513 2.152421339660861 L -0.0700532412742607 2.145866442598787 L -0.0627704982002051 2.139014686341099 L -0.0557221448719139 2.131921805556469 L -0.0488730724438318 2.124636140919884 L -0.0423728905709346 2.117046343826565 L -0.0368622182791336 2.108703574007988 L -0.0309450215538112 2.100655236969879 L -0.0240824269910718 2.095228117417295 L -0.0228978207321387 2.085303900881939 L -0.0209332385275918 2.075499692905721 L -0.0188119490359498 2.065727372289684 L -0.0171266471950205 2.055872804173187 L -0.0165824266348409 2.049728115256161 L -0.0138552892177266 2.040129970642412 L -0.0126267457487046 2.030208463295226 L -0.0113799850779888 2.020289487407579 L -0.0110824263736049 2.01872811378374 L -0.0136642667548195 2.009067576948005 L -0.0159784620978565 1.999339329916905 L -0.0181213864149221 1.989571675186267 L -0.0202485478344654 1.979800634621186 L -0.0225678089584545 1.970073844819511 L -0.0253050093453498 1.960457219600584 L -0.0286455779634247 1.951034193607632 L -0.0326882351363453 1.941891127872208 L -0.0376232318377001 1.933200197187733 L -0.0435451270094678 1.925150409848255 L -0.0504848647309109 1.917962361284706 L -0.0584561691312189 1.911944092864278 L -0.0673855691951513 1.907478260795112 L -0.077035821048125 1.904929403849688 L -0.0870071327688971 1.904473868301355 L -0.0966385685859663 1.906900126974894 L -0.1056113465812203 1.911307257457798 L -0.1153685543092724 1.91333557513829 L -0.1253520856004044 1.913631514007061 L -0.1352113151578109 1.912076336561685 L -0.1444229987550676 1.908256672935074 L -0.1522867930666001 1.902130992779087 L -0.1583489856121041 1.894203272681854 L -0.1624547630340931 1.885107069555211 L -0.1648382333943674 1.875404254292371 L -0.1664281901304685 1.865533498480386 L -0.1681232500761514 1.855679953026619 L -0.1704598477681776 1.845960790869394 L -0.1736460089972569 1.836486781269016 L -0.1776790712678933 1.827339644446812 L -0.1807380916170658 1.817821928283198 L -0.1846961552325013 1.803933555098556 " id="ID_885"/>
    <path d="M -0.0165824266348409 2.049728115256161 L -0.0253109345546747 2.045060948152897 L -0.0351449411607181 2.043320893984999 L -0.0451192333590145 2.042611387029079 L -0.0550788108537557 2.041741042808359 L -0.0645360868967124 2.038698899112825 L -0.0730062762378649 2.033389848791649 L -0.0812731785974146 2.027762599052822 L -0.0896877768562243 2.022360257069186 L -0.0985303511608908 2.017700477440133 L -0.1075564357186014 2.013396011960653 L -0.116394346839388 2.008721699529477 L -0.1251012888279295 2.003804382941213 L -0.1343332543027591 2.000067322552474 L -0.1442658218038106 2.00049800712731 L -0.1535007109108148 2.004207853570791 L -0.1624578986107101 2.008647174657873 L -0.1718801954493569 2.011958061913624 L -0.1818084852086263 2.012829579938047 L -0.1918062366051343 2.012634359915695 L -0.2010824353981206 2.013728113546251 L -0.2024541323696667 2.014321212668338 L -0.209026719501594 2.01463893005037 L -0.2167654307009741 2.01463893005037 L -0.2230824364430646 2.012728113498756 L -0.2237575003330585 2.012490756345306 L -0.233372541604604 2.009760897708339 L -0.2431853568722273 2.007843664521633 L -0.2530625604659091 2.006282395973784 L -0.2629209246328186 2.004608827573989 L -0.2726643317220647 2.002369852764696 L -0.2821304337221324 1.999164967606116 L -0.2910824396728913 1.994728112643802 L -0.2979238165517302 1.994364260190639 L -0.3015480294808697 1.994364260190639 L -0.3060352383740224 1.99281263840827 L -0.3130824407178352 1.990728112453812 L -0.3195234377430935 1.988614995509646 L -0.3293950010717985 1.987187322587075 L -0.3392880345928129 1.988429103252153 L -0.3487890008878702 1.991532733347822 L -0.3581842971928211 1.994956230779232 L -0.3677646211944694 1.997811299138552 L -0.3775593454919006 1.999813286916062 L -0.3874752411567082 2.001094369707066 L -0.3974478547504043 2.0018202401869 L -0.4074418651846879 2.002157596215727 L -0.4174411738326143 2.002271336163117 L -0.4274410104276054 2.002328963619122 L -0.4368508531284699 2.000778306862452 L -0.4458997443201094 1.996701013532604 L -0.4558518184774032 1.996241486591587 L -0.4657318414830876 1.997750338732613 L -0.4755896000476776 1.999418791539707 L -0.4855644058261151 1.999603204237317 L -0.4950824493623714 1.996728112738797 L -0.5061171822798656 1.995853195862682 L -0.5183701211166749 1.993627698394323 " id="ID_886"/>
    <path d="M -0.297082439957876 1.942728110173934 L -0.2971632511928339 1.942771919879847 L -0.306078196577503 1.947299316762357 L -0.315219861408246 1.951349616536113 L -0.3245586364090407 1.954922304413498 L -0.3340640151950573 1.958025013210493 L -0.3437061279701297 1.960672865102516 L -0.3534571175157781 1.962887358746794 L -0.3632916662184131 1.964694885453605 L -0.3731882213016036 1.966125413692164 L -0.3831286466534704 1.967211004181447 L -0.3930982987870681 1.967984689601832 L -0.4030857569853881 1.968479562430681 L -0.4130824454675804 1.968728111408868 L -0.4200680335976586 1.968591484358501 L -0.4376120814994522 1.9641405596977 L -0.4520928946920151 1.961080535816652 L -0.4674090682380552 1.960802383771071 L -0.4919149459117023 1.959411482991303 L -0.5119651982471112 1.95551693269758 L -0.533407841211556 1.948562428798741 " id="ID_887"/>
    <path d="M -0.2971632511928339 1.942771919879847 L -0.2862272911241632 1.939350100513667 L -0.2703656843891338 1.93826482965969 L -0.252765871773164 1.935009087373661 L -0.2445091162488211 1.932838545665706 L -0.2342968945300754 1.928063438239281 L -0.2186525481085368 1.921768965672473 L -0.2006182148656421 1.915474422829763 " id="ID_888"/>
    <path d="M -0.0189520743271885 2.034247595125851 L -0.0204710459224771 2.03086261544421 L -0.0230824269435743 2.02672811416372 L -0.0282496663083967 2.018167772234669 L -0.0339205632267659 2.009933698034149 L -0.0402591196607203 2.002204298768674 L -0.0474226271714109 1.995236712982734 L -0.0570682704253436 1.997692364381435 L -0.0669889031882782 1.99888639784201 L -0.0769812348271559 1.998764452748345 L -0.0868915909601444 1.997468341933002 L -0.096627435518978 1.99519946353959 L -0.1061558613252176 1.992171497692408 L -0.115488856507036 1.988583244580192 L -0.124665974942169 1.984611836377995 L -0.1330824321682931 1.980728111978836 L -0.1412904808866813 1.980342881215367 L -0.15470201802205 1.985845344294109 L -0.1872730525449526 1.993261701463186 L -0.208827348311047 1.99685034072748 L -0.2263102030751156 1.99685034072748 L -0.2433142462114119 1.994936376361213 " id="ID_889"/>
   </g>
   <g id="ID_0" color="rgb(0,0,0)" stroke="currentColor" fill="none" stroke-width="0.0001074482389119885"/>
  </g>
 </svg>