<?xml version="1.0" encoding="UTF-8" ?>
 <svg viewBox="1.280917634993101 -1.229728076308251  0.292616083131332 0.5501978154020762" xmlns="http://www.w3.org/2000/svg" version="1.0" overflow="visible">
  <defs>
   <g id="ID__#42_Model_Space"/>
   <g id="ID__#42_Paper_Space0"/>
   <g id="ID__#42_Paper_Space"/>
  </defs>
  <g id="draft" transform="matrix(1 0 0 -1 0 0)" stroke-width="1.074482389119885E-4">
   <g id="Layer_#32_1" color="rgb(255,0,255)" stroke="currentColor" fill="none" stroke-width="0.0001074482389119885"/>
   <g id="Poliline" color="rgb(0,0,0)" stroke="currentColor" fill="none" stroke-width="0.0001074482389119885">
    <path d="M 1.377917639600354 1.229728076308251 L 1.387305740911521 1.226283720545698 L 1.396682671335461 1.222809085411112 L 1.406025438160146 1.219243684817131 L 1.415311258957094 1.215532618848293 L 1.424515926446604 1.211625188988445 L 1.433613179449331 1.2074738683747 L 1.442573157420131 1.203034334419706 L 1.451397787575195 1.198330775916772 L 1.460216473978099 1.193616035894178 L 1.46914696278904 1.189117906673295 L 1.478278555657687 1.185045020906104 L 1.487643356707228 1.181542909815341 L 1.496775688793271 1.177495691003112 L 1.505078776972458 1.171945866776816 L 1.512415341222802 1.165161731767641 L 1.519026274405763 1.157661639165386 L 1.525270464967811 1.149851645825703 L 1.531412364016299 1.14196060413267 L 1.537601082900542 1.134106626823607 L 1.543909594256455 1.126349049819008 L 1.550467170424689 1.11880162607987 L 1.556966032742621 1.111204379492699 L 1.561917648339886 1.103728070323573 L 1.565021160493536 1.094224175205559 L 1.567509826848614 1.084540116508016 L 1.569496380428833 1.074740377645698 L 1.571048783868507 1.06486225388455 L 1.572208944532592 1.054930253014285 L 1.573002158100138 1.044962106700971 L 1.573442120874383 1.034972032326217 L 1.573533718124433 1.024972611166033 L 1.573274557739125 1.014976064614247 L 1.572655745123581 1.004995424561199 L 1.571662145571181 0.9950454405649704 L 1.570272183001218 0.9851431851077006 L 1.568457437791432 0.9753100198557741 L 1.566458752975965 0.9655126215573162 L 1.565514528816695 0.9555683094181475 L 1.56666136043832 0.9456624470777673 L 1.566917648577373 0.9447280627714782 L 1.564360363268049 0.9353447555228662 L 1.563817829136218 0.9253601206652319 L 1.562975746383615 0.9153957940227996 L 1.562016711793038 0.9054418917646209 L 1.561109607030687 0.8954832210991057 L 1.560421908230445 0.8855073341769994 L 1.560130477116516 0.8755126428505501 L 1.560429233526783 0.8655191750955051 L 1.561529517156085 0.8555834637407393 L 1.563645032179567 0.8458153515770003 L 1.56695281058846 0.8363861495088595 L 1.569417648696116 0.8312280573805175 L 1.568169908230537 0.8215093697345405 L 1.564836516891585 0.8120970274429932 L 1.560931965166187 0.8028914425597778 L 1.558046449420025 0.7933278809569356 L 1.557271978037045 0.7833753634121905 L 1.557396660687377 0.7733764732753023 L 1.556159029510224 0.7634847174377324 L 1.552202801596103 0.754529920422984 L 1.550899008906132 0.7446604798901806 L 1.546492363363602 0.7357291813335785 L 1.53996869768042 0.7281707969303178 L 1.53249387018363 0.7215351649155224 L 1.524874853220871 0.7150579294702997 L 1.517955000933412 0.7078551288023647 L 1.511275046597531 0.7004624597280085 L 1.502603918872923 0.6955617137470435 L 1.493008722524095 0.6927882670297425 L 1.483253107539945 0.690597708201425 L 1.473882556421838 0.6871728195196205 L 1.466122691896089 0.6809678338838268 L 1.457058695246916 0.6795302609061747 L 1.447473974604319 0.6823184749826048 L 1.438304690106869 0.6863086293407186 L 1.429054038390745 0.6900954288099292 L 1.419305526088043 0.692205052993014 L 1.409311414438027 0.6924559868446885 L 1.399749329326907 0.6950987976373338 L 1.391201506369445 0.7002792041834418 L 1.383146640960919 0.7061998982565889 L 1.375583998898396 0.7127382823216025 L 1.36870159211525 0.7199850689073078 L 1.361661098171841 0.7270628802356854 L 1.357871217336717 0.7362584278421469 L 1.355593305113037 0.7459938518175111 L 1.352438493561673 0.7554677351063788 L 1.347227503099309 0.7639605651442345 L 1.340739398132858 0.7715701180873751 L 1.334459330325314 0.7793530972336989 L 1.329026117740182 0.7877330623072769 L 1.326073775918776 0.7972578147139818 L 1.32442838634894 0.8071202320245784 L 1.323257695710844 0.8170518619738995 L 1.322340815653379 0.8270097551783397 L 1.321785395197466 0.8369914891745704 L 1.322227532259367 0.8469766116322361 L 1.32375382844066 0.8568115269134519 L 1.318509088465686 0.8653226141046346 L 1.313903184387664 0.8741963291797834 L 1.30988074023669 0.883349947530295 L 1.306366814024114 0.8927111054751719 L 1.303275113428973 0.9022204947204279 L 1.300514302027068 0.911831479585448 L 1.29799187661729 0.921507972996581 L 1.295615963211688 0.9312215335414677 L 1.293295562008461 0.9409486459910088 L 1.290940128428989 0.950667281170622 L 1.288458633981183 0.9603543714874724 L 1.285758938359499 0.9699827321302034 L 1.282747853683632 0.9795180128864835 L 1.280917634993101 0.984728064671378 " id="ID_940"/>
    <path d="M 1.288917635373081 1.166728073315912 L 1.296759115022109 1.172883245124452 L 1.302924810631938 1.180735467897079 L 1.30787297702451 1.189420613128016 L 1.312355976191207 1.198359270690614 L 1.31691763670301 1.20672807521581 " id="ID_941"/>
   </g>
   <g id="ID_0" color="rgb(0,0,0)" stroke="currentColor" fill="none" stroke-width="0.0001074482389119885"/>
  </g>
 </svg>