<?xml version="1.0" encoding="UTF-8" ?>
 <svg viewBox="-0.0480824281310106 -0.7620494716943984  0.6465540615830321 0.4983214412686845" xmlns="http://www.w3.org/2000/svg" version="1.0" overflow="visible">
  <defs>
   <g id="ID__#42_Model_Space"/>
   <g id="ID__#42_Paper_Space0"/>
   <g id="ID__#42_Paper_Space"/>
  </defs>
  <g id="draft" transform="matrix(1 0 0 -1 0 0)" stroke-width="1.074482389119885E-4">
   <g id="Layer_#32_1" color="rgb(255,0,255)" stroke="currentColor" fill="none" stroke-width="0.0001074482389119885"/>
   <g id="Poliline" color="rgb(0,0,0)" stroke="currentColor" fill="none" stroke-width="0.0001074482389119885">
    <path d="M 0.0638176914945676 0.3158725025198379 L 0.0821069120928257 0.3065033529058247 L 0.1010398961722956 0.3037014524364885 L 0.119271750006817 0.3051024026711566 L 0.1501255521032192 0.3163100748244609 L 0.1830831150543588 0.3275177469777653 L 0.2111320260511036 0.3380249791516867 L 0.2419859515207747 0.3527350620296268 L 0.2868642091155777 0.3688461654181516 L 0.3275351917474722 0.3856577087860593 L 0.3509175908204725 0.3967280367428731 L 0.358642711695512 0.4002338459204644 L 0.3676897247856461 0.4044940235544719 L 0.3766739893562416 0.4088848931380138 L 0.3856008743565802 0.4133916014761727 L 0.3944799088689681 0.4179916735400706 L 0.4033249795118837 0.4226566920765471 L 0.412152484201914 0.4273547977614225 L 0.4209792963105459 0.4320541010754102 L 0.4298206751812686 0.4367258039522551 L 0.4386760590408719 0.4413707485085716 L 0.4474612376931662 0.446147149536035 L 0.4561465249800234 0.4511031437514888 L 0.4647145821784138 0.4562590770697259 L 0.473145457318311 0.4616362972257893 L 0.4814159595360055 0.467256922666472 L 0.4894991585297648 0.4731435510007032 L 0.4973638911997221 0.4793187722115811 L 0.5049743583394913 0.4858044431405233 L 0.5122898773735063 0.4926206414068606 L 0.5192653416192236 0.4997846930403043 L 0.5258506925571123 0.5073083654042403 L 0.5319935313613203 0.5151973042748068 L 0.5376404019738441 0.523448314576843 L 0.5426724620704677 0.5320855823937319 L 0.5464912881593956 0.5413110314989229 L 0.5478371524069319 0.551170570556371 L 0.5453373705372151 0.5607861309562862 L 0.5400037843117725 0.5692235600132918 L 0.5336694814266174 0.5769595516004477 L 0.5272406457742145 0.5846186218858023 L 0.5216181416432191 0.5928788986868785 L 0.515807859454343 0.601000619596828 L 0.5090984907152718 0.6084139026870226 L 0.5021997106062646 0.6156517132737278 L 0.4958683536562321 0.623380405348442 L 0.4910734943164128 0.6321344935792707 L 0.4875095833153749 0.6414757169234733 L 0.4834614039679171 0.6506192716775097 L 0.4798242670150677 0.6599311715449528 L 0.47730851206562 0.6696038867677263 L 0.4750223451584122 0.6793374180213104 L 0.4724025171991695 0.6889871747294462 L 0.4693792679388098 0.6985189312974125 L 0.4658433135857721 0.7078716896088882 L 0.4616152800184894 0.7169311231915608 L 0.4563856147420715 0.725444541869674 L 0.44963609354211 0.7327895846246549 L 0.4413598668187495 0.7383675147480027 L 0.4321639080122442 0.7422667225159945 L 0.4224965997548554 0.7447991423675955 L 0.4126108366000621 0.7462830572018202 L 0.402636593614024 0.7469724354243219 L 0.3926378391321483 0.7470579876810693 L 0.3826454222675801 0.7466845128555111 L 0.3726712390063174 0.7459681559910525 L 0.3627162919866294 0.745021051775785 L 0.3527723370044464 0.7439640295024841 L 0.3428374250245687 0.7428246981512121 L 0.3329103596612102 0.7416172490022941 L 0.3229901101118049 0.74035471235789 L 0.3130754810329588 0.7390496719260149 L 0.3031649116620496 0.7377150492843702 L 0.2932564165565328 0.7363651502723024 L 0.2833478212166849 0.7350173253209534 L 0.2734265066078212 0.7337712573757181 L 0.2634618649252562 0.7329329695850877 L 0.2535691011412533 0.7315175182876104 L 0.2439030911550901 0.7289604982385569 L 0.2343132763266311 0.726125049945189 L 0.2246709062729204 0.7234772855735692 L 0.2148781853132649 0.7214689763618641 L 0.1909175832208802 0.7187280520370525 L 0.1857703095034031 0.7172835296686344 L 0.1761810643104402 0.7144474177448094 L 0.1666403895918567 0.711451983478609 L 0.1571430443582447 0.7083219386650601 L 0.1476801237710354 0.7050886883393286 L 0.1382401899604178 0.7017892714104406 L 0.1288093595943689 0.6984639762969547 L 0.1193732022066252 0.6951539375539806 L 0.1099181471774537 0.6918984492454392 L 0.1005218650054847 0.6884811899963222 L 0.0913118632916001 0.6845871792619302 L 0.0822201580134285 0.6804233032401719 L 0.0731485170439612 0.676213474509245 L 0.0639369426837497 0.6723262124293506 L 0.0542496079795001 0.6700620341005425 L 0.0458323185994418 0.6646808102466402 L 0.0368533068604693 0.6602848034830285 L 0.0276340761230651 0.6564125116806192 L 0.0183418756562999 0.6527166537521812 L 0.0091094734949833 0.6488747939794557 L 0.0001244675815073 0.6444920217426234 L -0.0083215886836134 0.639149606579144 L -0.016003352459097 0.6327595620009207 L -0.0227635335345724 0.6254003863264616 L -0.028648754033954 0.6173210424138951 L -0.0338840500007862 0.6088034937034799 L -0.0387382989801166 0.6000611655124839 L -0.0428110850927039 0.5910728712427247 L -0.0431004681697216 0.5810774242979662 L -0.0438266431672707 0.571105137642606 L -0.0452205391955944 0.5612054151749959 L -0.047535813303945 0.5514821652105351 L -0.0480824281310106 0.549728044009985 L -0.046399686044766 0.539871978655043 L -0.0458832092765533 0.5319292150395861 L -0.0399706907933224 0.5239330522294435 L -0.0368791509890718 0.5144636437606014 L -0.0365824275847899 0.511728042205082 L -0.0328326522069427 0.5025233924309731 L -0.0293926571781382 0.4931338788507969 L -0.0258208622963059 0.4837937825298618 L -0.0221230569428261 0.4745027196507188 L -0.0183027966114029 0.4652612617390908 L -0.0143616894683634 0.4560704785561534 L -0.0102998977611932 0.4469324707896032 L -0.0061159901671868 0.4378497005985694 L -0.0018071145130802 0.4288253426646947 L 0.0026311010193112 0.4198632298931422 L 0.0072036838980019 0.4109698540177149 L 0.011918503064817 0.4021505454504429 L 0.0167839603227345 0.3934146921782187 L 0.0218120869568708 0.3847710033503855 L 0.0267647403212541 0.3760899358727912 L 0.0314726333162581 0.3673054428029108 L 0.0381241394175254 0.3598763195522654 L 0.0432877319279887 0.3513165262709919 L 0.0480081445307139 0.3425008384064512 L 0.0527932108817284 0.333721469663697 L 0.0579088264991681 0.3251295830343182 L 0.0632553077150231 0.3166797826970829 L 0.0689706052086301 0.3084756940631834 L 0.0751875357837353 0.3006460098900039 L 0.0820007211845528 0.2933304290701972 L 0.0894367076850546 0.2866493171782824 L 0.0974485585914096 0.2806708954084875 L 0.1059416434861724 0.2753971485605113 L 0.1099175793735867 0.2732280308769397 L 0.1196923079431897 0.2711245922814811 L 0.1293888823324476 0.268679936909411 L 0.139110369606052 0.2663382269324419 L 0.1489423198812796 0.264525773655043 L 0.1579175816534644 0.2637280304257139 L 0.1709124661829264 0.2660834614096963 L 0.1917170226390112 0.2738506359136927 L 0.2198767228245799 0.2803583255867075 L 0.2375292158232014 0.2877056718137005 L 0.2949175881606152 0.3147280328480839 L 0.3002766447018086 0.316644217688733 L 0.3095221799508305 0.3204511519359201 L 0.3185769561008058 0.3246933989711209 L 0.327493373560567 0.3292202260043329 L 0.3363396125427682 0.3338831860829128 L 0.3451898158019633 0.3385386136543023 L 0.354115296234272 0.3430475936490644 L 0.3631696572978225 0.3472914754141243 L 0.3723267897792519 0.3513094344875167 L 0.3815453570470373 0.3551845527332738 L 0.3907916375407989 0.3589933698978669 L 0.4000337402539316 0.3628122376113936 L 0.4092395359821941 0.3667176021960419 L 0.4183742553883301 0.3707861036424624 L 0.4273981861599721 0.3750943020589244 L 0.4362645124644438 0.3797176106095268 L 0.4449175952852329 0.3847280361729055 L 0.4846093400757639 0.4066721028579999 L 0.5091522297278744 0.4185802852665895 L 0.5449146837786714 0.43959467933853 L 0.5749176014599016 0.4507280393077373 L 0.5828641345128363 0.4566144576053493 L 0.5879176020773685 0.4617280398302093 L 0.5934421449571259 0.4700130187483449 L 0.5949176024098506 0.4727280403526813 L 0.5984716334520215 0.4790853827733095 L 0.5984716334520215 0.4921588100196779 L 0.5977705032070731 0.5075668029443002 L 0.5977705032070731 0.5185391913561582 L 0.5969176025048455 0.5267280429175436 L 0.5940640485675353 0.5335770109026416 L 0.592249633533128 0.5433960124592315 L 0.5903227403596683 0.5457527228491355 L 0.585038916293172 0.5542267506621404 L 0.5810522631296476 0.5633917312250764 L 0.5778623287251082 0.572867866964403 L 0.5749785199919355 0.5824429972020227 L 0.571941443268499 0.5919700255381937 L 0.5686563919313185 0.6014149421720383 L 0.5652091851033978 0.6108017700134543 L 0.5615971346914153 0.620126546907386 L 0.5578170639416982 0.6293844618783809 L 0.5538650185716261 0.6385702566089009 L 0.5497361928739846 0.647677937491034 L 0.5454247723037966 0.6567005901230853 L 0.5409237342434743 0.6656301350216296 L 0.5363007759325908 0.6744973052675789 L 0.5318843450460254 0.6834699459533784 L 0.5274727179385668 0.6924447794852409 L 0.5228992545348082 0.7013377856133154 L 0.5180409071903896 0.7100778275721141 L 0.5127806914086142 0.7185812321256578 L 0.506990175467455 0.7267314374607299 L 0.5005205706522533 0.7343512453465966 L 0.493207893808763 0.7411608225396975 L 0.484917597185131 0.7467280533669829 L 0.4751790436085078 0.7455160984723737 L 0.4663093575483109 0.7500010400365671 L 0.4580534029780586 0.7556391222779127 L 0.4489917698307515 0.7597963808935245 L 0.4390858144812527 0.7610691904126483 L 0.4291067380560687 0.7617169336385478 L 0.4191133564024039 0.7620494716943984 L 0.4091144198057668 0.761937550695679 L 0.3991251337419337 0.761468965672183 L 0.3891540094927732 0.7607174095659844 L 0.379201373444598 0.759746994971879 L 0.3692653582259036 0.7586169485675143 L 0.3593410774714627 0.7573862066352053 L 0.3494213813432347 0.7561194339556768 L 0.3395125228536671 0.7547750567061638 L 0.3296490654104556 0.7531309878047204 L 0.3198320333537321 0.7512276710566576 L 0.31005595043389 0.7491243526237064 L 0.3003103818737607 0.7468833536226285 L 0.2905823327583734 0.7445671879763385 L 0.2535691011412533 0.7315175182876104 " id="ID_9CF"/>
   </g>
   <g id="ID_0" color="rgb(0,0,0)" stroke="currentColor" fill="none" stroke-width="0.0001074482389119885"/>
  </g>
 </svg>