<?xml version="1.0" encoding="UTF-8" ?>
 <svg viewBox="-0.3901994166440747 -1.474949312140138  0.2949573618443714 0.33050136667030894" xmlns="http://www.w3.org/2000/svg" version="1.0" overflow="visible">
  <defs>
   <g id="ID__#42_Model_Space"/>
   <g id="ID__#42_Paper_Space0"/>
   <g id="ID__#42_Paper_Space"/>
  </defs>
  <g id="draft" transform="matrix(1 0 0 -1 0 0)" stroke-width="1.074482389119885E-4">
   <g id="Layer_#32_1" color="rgb(255,0,255)" stroke="currentColor" fill="none" stroke-width="0.0001074482389119885"/>
   <g id="Poliline" color="rgb(0,0,0)" stroke="currentColor" fill="none" stroke-width="0.0001074482389119885">
    <path d="M -0.1570824333082328 1.466728087565147 L -0.1604250727552365 1.457352800503054 L -0.1661333606059401 1.449160133371528 L -0.1726625211759485 1.441586409206147 L -0.1783774651049388 1.433444457214847 L -0.1822642471423075 1.424357397844925 L -0.1900109615970127 1.418061245566848 L -0.1978877811234092 1.411914006793288 L -0.1980824352556292 1.411728084952788 " id="ID_9A8"/>
    <path d="M -0.0955824303871396 1.174228073672143 L -0.1016890830350654 1.182122911056854 L -0.1063335124152536 1.190969995881943 L -0.1100456673109802 1.200253097224823 L -0.1133437355557811 1.20969357832544 L -0.1166971282607712 1.219114206751333 L -0.1205776463121282 1.228327412242956 L -0.1254806668900912 1.237033596398195 L -0.1312081470975928 1.245229964227522 L -0.1367491072702656 1.253551029447324 L -0.1412332776379292 1.262479014324769 L -0.1454273759625142 1.27155703857255 L -0.1492747610949721 1.280783873873195 L -0.1524954053109369 1.290240807519403 L -0.157492815470686 1.298892440128698 L -0.1627452438533528 1.307400273587166 L -0.1670667163613029 1.316408936418893 L -0.1702957834320298 1.325869393199669 L -0.1728100704948501 1.335547409286151 L -0.1750134053627024 1.345301409523461 L -0.1775308951100287 1.354976976273809 L -0.1820959792161041 1.363804530007007 L -0.1884316768457834 1.371538907710048 L -0.1926275619648878 1.380557685788948 L -0.1946798582853013 1.390335209399184 L -0.1959000301855642 1.400260038066159 L -0.1976296548055654 1.410101817959342 L -0.1980824352556292 1.411728084952786 " id="ID_9A9"/>
    <path d="M -0.0955824303871396 1.174228073672143 L -0.0952420547997033 1.181885347440333 L -0.0954316436281833 1.191882060592609 L -0.0961379093948427 1.201856291583384 L -0.0972216662266856 1.211797050955894 L -0.0985899098267798 1.221702931026047 L -0.1001757410834978 1.231576529369952 L -0.1019272401960913 1.241422289339167 L -0.1038002419103714 1.251245296685839 L -0.105647434530785 1.261072856108958 L -0.1071883686598243 1.270952923435594 L -0.1084582836565051 1.280871784850406 L -0.1095521722856176 1.290811642191648 L -0.1105714611530342 1.3007593901072 L -0.1112996875575556 1.310732224357286 L -0.1117447275635781 1.320722120813471 L -0.1120295828947011 1.330718085138263 L -0.1122748799608146 1.340715058831271 L -0.1126058619804571 1.350709564212944 L -0.1131608652327776 1.36069389323803 L -0.1141015285446079 1.370648732446293 L -0.1156240983409287 1.380530136406466 L -0.1183665056922631 1.390123355872178 L -0.1227662583176512 1.39909966565 L -0.1270651317195988 1.408122803975684 L -0.1298105211318372 1.417728039150972 L -0.1318572093957391 1.427516213139716 L -0.1340720165333122 1.437266467276446 L -0.1371670499904525 1.446768008615604 L -0.1418542259516409 1.455579142527252 L -0.1485723455107033 1.462941460963602 L -0.1570824333082337 1.466728087565149 L -0.1624690280042706 1.472717852296447 L -0.1720415449219557 1.474949312140138 L -0.1820316206887043 1.474552800513242 L -0.1920266678742735 1.474299758110687 L -0.2020067596313586 1.473674212612273 L -0.2119756513195199 1.472886702129633 L -0.2219430872197883 1.472081031312356 L -0.2319167590811171 1.471357932621343 L -0.241891602789277 1.470651162449119 L -0.2518474313910755 1.46971394656995 L -0.261785429923246 1.468603090221312 L -0.2717107293672223 1.467381297509636 L -0.2816296922852288 1.466108491147156 L -0.291549951175992 1.464845241472088 L -0.3014792336127847 1.463656758202949 L -0.311425035964568 1.462617778993054 L -0.3213923620083028 1.461819570133084 L -0.3313822931854631 1.461380262451955 L -0.3413804390583239 1.461461582879559 L -0.3513491569463873 1.462229773562134 L -0.3613326816310201 1.462733684261614 L -0.3712659749703606 1.461753464729962 L -0.3805824439239131 1.458228087161419 L -0.3850824441376517 1.450728086805188 L -0.3901994166440747 1.443856618244115 L -0.3898659579288948 1.433867974660399 L -0.3882174022686797 1.424015109671955 L -0.3850763859723303 1.414531500386656 L -0.3805229948682465 1.40563951625784 L -0.3746475450888251 1.397560265593737 L -0.3675290024217332 1.390556234461284 L -0.3596248973462304 1.384431407661496 L -0.3519523824934172 1.37802736477983 L -0.345669797315904 1.370284086968581 L -0.3431980432125492 1.360779039022547 L -0.3406133503489297 1.351227563726189 L -0.3358130231356515 1.342464925939683 L -0.3298535957751261 1.334444018459967 L -0.322818008670831 1.32735202616401 L -0.3149383405754973 1.321200251792761 L -0.3087735075352471 1.313396319851998 L -0.3051672637705733 1.304088955467291 L -0.3028790678316042 1.294357126257597 L -0.3010467414488938 1.284526383412888 L -0.298978598111419 1.27474416703445 L -0.2967005490942167 1.265007415903978 L -0.2941843793421324 1.255330011323151 L -0.2910704762632994 1.245829996191261 L -0.2870902274828264 1.236661223250766 L -0.2821086221679492 1.227997178056455 L -0.2759992616549463 1.220098345792273 L -0.2687561638862697 1.213211067969227 L -0.261179612569177 1.206686292909404 L -0.2536736882560433 1.200080225311737 L -0.2464822265537512 1.193133874954577 L -0.2400029230589418 1.185529847772343 L -0.2345767947761326 1.177133308277921 L -0.2296020253431719 1.168459236736143 L -0.2243980502981984 1.159918955234251 L -0.2183978741244443 1.151933671519485 L -0.210401438350484 1.146079794286444 L -0.2005934678528423 1.144447945469829 L -0.1906028305850427 1.144811594535667 L -0.1806250974006049 1.145476903860497 L -0.1706479103094249 1.146152003111447 L -0.1606787730242614 1.146936956317825 L -0.1507182272870553 1.147823049574325 L -0.1407674609751277 1.14881085205568 L -0.1308207500799243 1.149834622363668 L -0.1208494088262233 1.150580851836275 L -0.1110019070327084 1.152249767494305 L -0.1020374314396442 1.156521179881247 L -0.0965305715667508 1.16468470143285  z" id="ID_9AA"/>
    <path d="M -0.3850824441376517 1.450728086805188 L -0.3780512305738473 1.443653359244729 L -0.3695640156770477 1.438405921123203 L -0.3600903035185361 1.435285157713099 L -0.3510824425227383 1.434728086045229 L -0.3392057435744675 1.437249536406373 L -0.3264652336082747 1.433855701960272 L -0.3116013464388061 1.430037611854931 L -0.2997102613778963 1.429189170812382 L -0.2856957991137108 1.431734564215947 L -0.2644616569611458 1.433855701960272 L -0.2474743925884297 1.433855701960272 L -0.2377066847307674 1.431734564215947 L -0.235082437013034 1.428728085760244 L -0.2341429522707452 1.42790094546706 L -0.2260832463184039 1.421999038916439 L -0.2172196532311617 1.41738826333667 L -0.2078132686398684 1.414013381459607 L -0.1980824352556283 1.411728084952788 " id="ID_9AB"/>
   </g>
   <g id="ID_0" color="rgb(0,0,0)" stroke="currentColor" fill="none" stroke-width="0.0001074482389119885"/>
  </g>
 </svg>