<?xml version="1.0" encoding="UTF-8" ?>
 <svg viewBox="0.0746533009454913 -9.720789364827944  0.4922643001344307 0.3385609012967201" xmlns="http://www.w3.org/2000/svg" version="1.0" overflow="visible">
  <defs>
   <g id="ID__#42_Model_Space"/>
   <g id="ID__#42_Paper_Space0"/>
   <g id="ID__#42_Paper_Space"/>
  </defs>
  <g id="draft" transform="matrix(1 0 0 -1 0 0)" stroke-width="5.039721436807565E-5">
   <g id="Poliline" color="rgb(0,0,0)" stroke="currentColor" fill="none" stroke-width="0.00005039721436807565">
    <path d="M 0.1144175795873252 9.67322847735298 L 0.1183548815544793 9.664243701207942 L 0.117358103808697 9.654339109018952 L 0.1143934255565195 9.644793586132831 L 0.1110072480268887 9.63538453151172 L 0.1081395343595846 9.625809446393282 L 0.1065456186048879 9.615943425004001 L 0.1058110442271323 9.605971823961182 L 0.1054529111215574 9.595978136774882 L 0.1051447288398846 9.585982259926777 L 0.1045915356193534 9.575998163040728 L 0.1034358560488773 9.566068040012048 L 0.1013758720595526 9.556285573819459 L 0.1004069877747105 9.54634244314924 L 0.1007062711432649 9.536351393833561 L 0.101787106502278 9.526423184827088 L 0.101136916206003 9.51645449578843 L 0.1022072132757872 9.50652934254291 L 0.1053711432022784 9.497067753721506 L 0.1106919060569158 9.488630824545044 L 0.1177932592201198 9.481616315338352 L 0.1261008297767532 9.476070575291393 L 0.1351372981469723 9.47180390622246 L 0.1445965568969632 9.468572902534657 L 0.1542988514003891 9.46616458461845 L 0.1641429621497945 9.464411127261553 L 0.1740666777001021 9.463183838255516 L 0.1840367767458799 9.462379653764145 L 0.1940229567420664 9.46190876709571 L 0.2040206524988637 9.461778973864872 L 0.2140176063833064 9.462005641797646 L 0.2240175189138158 9.461980041041912 L 0.2340170421177277 9.46188030368768 L 0.2440167732797018 9.4618699368608 L 0.254013433727712 9.462110336240848 L 0.2639903318526882 9.462776893646357 L 0.2734788467097617 9.465497011216703 L 0.2833989202829228 9.466679298973393 L 0.2933961497163659 9.466711273629114 L 0.3033852504240189 9.466249057477542 L 0.3133744937637592 9.465788010853352 L 0.3233695365339217 9.465471906034775 L 0.333365479182592 9.465186267770138 L 0.3433580652380206 9.464802572976499 L 0.35333807689317 9.464177002270098 L 0.363283001875077 9.463139325676867 L 0.3731419326594896 9.461480612025863 L 0.3829327445495476 9.459451459707934 L 0.3928201427882261 9.457963559835783 L 0.4027671515587806 9.456942709971722 L 0.4127427248354847 9.456248792485358 L 0.422729021373165 9.455725155505625 L 0.4327157561081423 9.455212266410975 L 0.4426941689761952 9.454558936944675 L 0.4526538583545161 9.453664299906931 L 0.462629521844753 9.452975737620132 L 0.4726207484151424 9.452562690839265 L 0.4826163633851124 9.45226854630591 L 0.4926100376588006 9.45191688015815 L 0.502591118179149 9.45131005642901 L 0.5125310451097036 9.450229792473227 L 0.5223677670383556 9.448446342994806 L 0.528917599275018 9.44672846659481 " id="ID_272"/>
    <path d="M 0.5239175990375315 9.382228463531224 L 0.5217439537981204 9.382407113098681 L 0.5118032312964909 9.383489767525408 L 0.5018877464924243 9.384786978472084 L 0.4919704371099077 9.386070673776269 L 0.4820279044641156 9.387138910011817 L 0.4720490923903498 9.387770878690464 L 0.4620505361339147 9.387900277165183 L 0.4520524033195477 9.387719202087894 L 0.4420572034410953 9.38740569774205 L 0.4320610538581553 9.387119900986468 L 0.4220618406514501 9.387021995370848 L 0.4120662804478643 9.387289385935542 L 0.4021009154173898 9.388103351750045 L 0.3921099330106861 9.388378285071896 L 0.3821284512922478 9.387793024886804 L 0.372178172422104 9.386798797146106 L 0.3622251913492702 9.385833854342351 L 0.3522402963219546 9.385323341365698 L 0.3422513758576837 9.385676748911221 L 0.3323496957073813 9.387059450757736 L 0.3225113111897828 9.388849283042203 L 0.3126343304983656 9.390407570140223 L 0.3027094839631399 9.391628162948845 L 0.2927560090396879 9.392586776386535 L 0.282783413360872 9.393326859897456 L 0.2727999127308838 9.39389812929384 L 0.2628104721276045 9.394356434326847 L 0.2528189323395038 9.394763443895396 L 0.2428277333167452 9.395186596504711 L 0.232841143753018 9.395698897109323 L 0.2228645191640552 9.396378695479576 L 0.2129083784036849 9.39730873647389 L 0.2029897676326557 9.398574384209732 L 0.1931339382302255 9.400260503486633 L 0.1833770435151312 9.40244636472047 L 0.1737428601499555 9.405124553389186 L 0.1640893663918312 9.407733776860312 L 0.1543929501986421 9.410178811005096 L 0.144665592076004 9.412497797656753 L 0.134917580561023 9.41472846507489 L 0.1265817314325801 9.42025168767828 L 0.1184697373392183 9.426097908118088 L 0.1106873369760812 9.432375274115818 L 0.1033852395433925 9.439203575160962 L 0.0968082044191103 9.446729063046764 L 0.0913786159685071 9.455112144557445 L 0.0888584534857637 9.464681134666337 L 0.0856030992183419 9.474068374501915 L 0.0808451864260187 9.48286367441855 L 0.077623403280974 9.492276904682601 L 0.0771034222320868 9.5022523047635 L 0.077161446453415 9.512251196220094 L 0.0765636521117443 9.522232915803793 L 0.0758523224002152 9.532207375107513 L 0.0751789089420312 9.542184835151563 L 0.0747108540644304 9.552173484304303 L 0.0746533009454913 9.56217151905225 L 0.0752394677081441 9.572152461839902 L 0.076698809662707 9.582040606759612 L 0.0792013534192302 9.591716464422014 L 0.082840268185393 9.601021992685101 L 0.0876005961160775 9.609815911487686 L 0.0915129055556916 9.618999185940128 L 0.093329654391062 9.628817693138084 L 0.0944645126930119 9.63874198204792 L 0.0984439462423588 9.647865989812663 L 0.1034394954654685 9.656528171681977 L 0.1086521341332851 9.66506157039884 L 0.1144173467736307 9.673228181563006 L 0.1144175795873252 9.67322847735298 L 0.1216472379208389 9.679490324245203 L 0.1309706577587946 9.683055728064703 L 0.1407743672566539 9.68498668302303 L 0.1507143430167099 9.68607280701005 L 0.1606633296700881 9.687077625396183 L 0.1705725238568938 9.688419493464817 L 0.1805149400065389 9.689488762105883 L 0.1904774220947303 9.690353587226111 L 0.2004474756353396 9.691125972863132 L 0.210417514306088 9.69190021141146 L 0.220380637263891 9.692757977706643 L 0.2303289438094653 9.69377198393488 L 0.2402519627467976 9.695008329625502 L 0.2501385153091347 9.696510017106679 L 0.2599959061175436 9.698191287098135 L 0.2698390463183351 9.699955797466854 L 0.2796792604805924 9.701736772650596 L 0.2895258220538777 9.703482474868665 L 0.2993860985563925 9.70514911530207 L 0.3092657830173264 9.706696684270444 L 0.3191688835549051 9.708086158687014 L 0.3290978012959371 9.709277419945735 L 0.3390525866910465 9.710227386251752 L 0.3490302117568822 9.710888299420718 L 0.3590246806642092 9.711206017650898 L 0.3690228288604569 9.711079621925213 L 0.3790106815372107 9.710571051808625 L 0.3889986698297791 9.71007151964275 L 0.3989944166338768 9.709782478257045 L 0.4089931757787611 9.709869400524678 L 0.4189690667106927 9.710533891313641 L 0.4288435354876646 9.712081928139884 L 0.4385246544468436 9.714583365771729 L 0.4482981572372467 9.716694754439015 L 0.4581636950105308 9.71832335544224 L 0.4680911507691361 9.719520258461685 L 0.4780586558621174 9.720319135190508 L 0.4880479977048653 9.72073968521449 L 0.4980467095754931 9.720789364827944 L 0.5080407539208265 9.720463011367881 L 0.5179984527192812 9.71959534364883 L 0.5270671090296402 9.715712843193623 L 0.5352300270028554 9.709944505498132 L 0.5422935176741817 9.703035557250084 L 0.5416577057014811 9.693225766666785 L 0.5406242133272974 9.683296963427397 L 0.5410803338885266 9.673311031980283 L 0.5421620505987992 9.663371686290438 L 0.5437711575601023 9.653503326617159 L 0.5458639728664778 9.643722531365206 L 0.548430009119846 9.634047655206638 L 0.551478944186985 9.624535773591571 L 0.5550707979308624 9.615209332755663 L 0.5581520582454936 9.60571867366497 L 0.5588538756045613 9.59577359737542 L 0.557042547078397 9.585953995721447 L 0.5547426185572313 9.576223942950987 L 0.5544190082146683 9.566304252707727 L 0.557065131814678 9.55666581253164 L 0.5586263640128754 9.546798891104604 L 0.5593184440303549 9.53682339700375 L 0.5601664515078167 9.526861477202004 L 0.5624381224190458 9.517148271991019 L 0.5659250490709465 9.508016480801135 L 0.5664281517284877 9.49806861681483 L 0.566917601079922 9.496728468969682 " id="ID_273"/>
   </g>
   <g id="ID_0" color="rgb(0,0,0)" stroke="currentColor" fill="none" stroke-width="0.00005039721436807565"/>
  </g>
 </svg>