<?xml version="1.0" encoding="UTF-8" ?>
 <svg viewBox="0.7869176115293613 -1.352728082150438  0.21400001016445358 0.36400001728907183" xmlns="http://www.w3.org/2000/svg" version="1.0" overflow="visible">
  <defs>
   <g id="ID__#42_Model_Space"/>
   <g id="ID__#42_Paper_Space0"/>
   <g id="ID__#42_Paper_Space"/>
  </defs>
  <g id="draft" transform="matrix(1 0 0 -1 0 0)" stroke-width="1.074482389119885E-4">
   <g id="Layer_#32_1" color="rgb(255,0,255)" stroke="currentColor" fill="none" stroke-width="0.0001074482389119885"/>
   <g id="Poliline" color="rgb(0,0,0)" stroke="currentColor" fill="none" stroke-width="0.0001074482389119885">
    <path d="M 0.8124176127405462 1.28122807875437 L 0.8123565993481651 1.271228343614405 L 0.812281666507702 1.261228647204321 L 0.812423843982299 1.251230044479815 L 0.8130000627066991 1.241247933484078 L 0.8142181408092792 1.231324738850021 L 0.8162686956868103 1.221541028941212 L 0.8195649548299472 1.21213748244885 L 0.8244994947329882 1.20352374101942 L 0.8271907849574313 1.193896157778535 L 0.8296289496685851 1.184201109134788 L 0.8330819697932252 1.174826789086379 L 0.8381645662917929 1.166233869143047 L 0.8453719818354956 1.15932813989804 L 0.8512518831728028 1.151343947296405 L 0.8551591089788974 1.142141611491394 L 0.8586293648471254 1.132763490477811 L 0.8621055232173038 1.123387219631373 L 0.8658650683659443 1.114121860357071 L 0.8701457238787585 1.105086961989146 L 0.8751914432945868 1.096457622600583 L 0.8814669226078519 1.088701728618563 L 0.8886253541304576 1.081722470468148 L 0.8940653826860867 1.07339547203523 L 0.8974872750839937 1.063999413432165 L 0.9010638280403133 1.054661495823209 L 0.9050036271765309 1.045471668419656 L 0.9094939844282325 1.036539242411842 L 0.9146559679948156 1.027978284065387 L 0.9205286876865628 1.019887968669527 L 0.9269543806735498 1.012227204872713 L 0.9337877425595779 1.004927128956664 L 0.9409654428781797 0.9979650516507464 L 0.9415836345006027 0.9973960340230725 " id="ID_957"/>
    <path d="M 0.8629176151391675 1.352728082150438 L 0.8723616108187162 1.349526746019547 L 0.8809145861706548 1.344370382306578 L 0.8886383750836959 1.338027859798929 L 0.8956923035911659 1.330944162945035 L 0.9022189254002386 1.323369362660869 L 0.9083265858333788 1.315452199805164 L 0.914097268439689 1.307285549105079 L 0.919593559836068 1.298931311564855 L 0.9248647866634236 1.290433220165004 L 0.9299517268607403 1.28182384729723 L 0.9348905060985135 1.273128622412855 L 0.9397050817058802 1.26436406002438 L 0.9443754025676884 1.255521701784754 L 0.9488803786022366 1.24659399760709 L 0.9531853101183624 1.237568198865405 L 0.9572304690022503 1.228423206167903 L 0.9609344623121511 1.21913501793875 L 0.9637174564417305 1.20956279594462 L 0.9667608823131166 1.200041452654817 L 0.9705245618613593 1.190778020022637 L 0.974677257758163 1.181681268252608 L 0.979001315006224 1.172664455211267 L 0.9833237152954241 1.163647017647237 L 0.9878685524082406 1.154742006630209 L 0.9935888841643842 1.146564168607154 L 1.000917621693815 1.140728072080978 " id="ID_958"/>
    <path d="M 0.7869176115293613 1.258728077685677 L 0.7869481273609518 1.248732118573125 L 0.7879710239248237 1.238788835645145 L 0.7899377985189169 1.228987530926355 L 0.7926671340865159 1.219369193547764 L 0.7958753991288045 1.209898473220503 L 0.7992359631348763 1.200480274706107 L 0.8024615933695962 1.191015251111579 L 0.8055449821355544 1.181502594005655 L 0.808606685827466 1.171982797146773 L 0.811769099459899 1.162496017103402 L 0.8151623743968618 1.15308985383008 L 0.8189315442275137 1.143828378134347 L 0.8232415384173989 1.134807010448241 L 0.8282766724813575 1.126171437999413 L 0.833927740050016 1.117932743470808 L 0.8383041490869382 1.108942537425186 L 0.8426778904641345 1.099950969561175 L 0.847365453340914 1.091117935818342 L 0.8521399672752538 1.082331560721918 L 0.857188531037119 1.07370014081029 L 0.8626320137777083 1.065312901034657 L 0.8685170649601986 1.057228884694643 L 0.8748312405101881 1.049475832698099 L 0.881390557246978 1.041927891068226 L 0.8870382160544512 1.033702760538645 L 0.8907806547450602 1.024441147875005 L 0.8963651727769361 1.016172761813338 L 0.9030545176921505 1.008742213182923 L 0.9101190839385973 1.001667307279479 L 0.9172641453126315 0.9946678078659213 L 0.9229176179890146 0.9887280648613661 " id="ID_959"/>
   </g>
   <g id="ID_0" color="rgb(0,0,0)" stroke="currentColor" fill="none" stroke-width="0.0001074482389119885"/>
  </g>
 </svg>