<?xml version="1.0" encoding="UTF-8" ?>
 <svg viewBox="0.1393712961681581 -8.624228427528156  0.32685459154527585 0.6035000286647119" xmlns="http://www.w3.org/2000/svg" version="1.0" overflow="visible">
  <defs>
   <g id="ID__#42_Model_Space"/>
   <g id="ID__#42_Paper_Space0"/>
   <g id="ID__#42_Paper_Space"/>
  </defs>
  <g id="draft" transform="matrix(1 0 0 -1 0 0)" stroke-width="1.074482389119885E-4">
   <g id="Poliline" color="rgb(0,0,0)" stroke="currentColor" fill="none" stroke-width="0.0001074482389119885">
    <path d="M 0.2249175848357936 8.020728398863444 L 0.216169234447003 8.025572479388394 L 0.2074876039183673 8.030535067224985 L 0.1988908340786572 8.035643132577775 L 0.1904020401500732 8.040928523034829 L 0.182050883286629 8.046428565866735 L 0.1738754627585477 8.05218650050669 L 0.1659251491134688 8.058250927923886 L 0.1582626915085834 8.064674680367524 L 0.1509945741547272 8.071539032147001 L 0.1448923474211172 8.079432126021885 L 0.1414244841520382 8.088759227563218 L 0.1404737480643519 8.098703649364381 L 0.1401175328111019 8.108696731299691 L 0.1395599324365451 8.118680986058756 L 0.1393712961681581 8.128678032373537 L 0.1397642092351372 8.13866792099181 L 0.1407660231940095 8.148615207005232 L 0.1422248294206891 8.158506873796568 L 0.1439346820321381 8.16835907322889 L 0.1449175810359975 8.173728406130554 " id="ID_33A"/>
    <path d="M 0.2739175871631687 8.624228427528156 L 0.2827903573481851 8.619889485783604 L 0.2926209959451738 8.618070076426635 L 0.3023554372590826 8.615822810485092 L 0.311424044200904 8.611645282470821 L 0.3199140982520525 8.606364727058267 L 0.3281380675138354 8.600676235329471 L 0.3362902612996521 8.594884723446278 L 0.3445155599701604 8.589197300906253 L 0.3529481232299156 8.583824228131494 L 0.3613785355346932 8.57844725595245 L 0.3696796551128321 8.572871330320432 L 0.378099621514937 8.567477880637705 L 0.3867362558200389 8.562438041687567 L 0.3955194519371821 8.557657732497482 L 0.4043862952320528 8.553033833492393 L 0.4132719911590499 8.548445172417972 L 0.4220943274839595 8.543737220456231 L 0.4307310952133961 8.538699999822882 L 0.4391534671069995 8.533310459732292 L 0.4471824801852585 8.527355538811017 L 0.4543401748752052 8.520391674589648 L 0.4595172701001209 8.511891380799831 L 0.4611342989147201 8.502060402558065 L 0.4611069937271149 8.492063637602342 L 0.4604823101341174 8.482083144102273 L 0.459665962848967 8.47211586455416 L 0.4587628428872792 8.462156879275414 L 0.4577549541236535 8.452207708893711 L 0.456674671316339 8.442266522504347 L 0.4555573720431694 8.432327984126005 L 0.4544417028903043 8.422391773075685 L 0.4533672470093731 8.412449448682928 L 0.4523751533687435 8.402499193448635 L 0.451506026948155 8.392537245836436 L 0.4507991642916816 8.382562473881876 L 0.450291179732619 8.372575532328156 L 0.4500148385695013 8.362579695124953 L 0.4499979367142144 8.35258002009998 L 0.4501586035600802 8.342580535078909 L 0.4504288569589097 8.332583692086086 L 0.4508347556220338 8.322591672506487 L 0.4514032817297853 8.312607787305307 L 0.452168850089449 8.302637321351718 L 0.4531794553379492 8.29268877246679 L 0.4545066451141837 8.282777772598571 L 0.456259087904936 8.272933537694495 L 0.4583852709663417 8.263162413713168 L 0.4606435220035783 8.25342071969988 L 0.4627972732389632 8.243655636457866 L 0.4646019384649032 8.233820832119411 L 0.4657932978770623 8.223894508573931 L 0.466225887713434 8.213905570550118 L 0.4662100749825724 8.203906323079767 L 0.4658985408607271 8.193911476766772 L 0.4654617018534051 8.183920996764904 L 0.4650792392157932 8.173928493629697 L 0.4649079516251691 8.163930302258478 L 0.4649175962351811 8.160728405513087 " id="ID_33B"/>
   </g>
   <g id="ID_0" color="rgb(0,0,0)" stroke="currentColor" fill="none" stroke-width="0.0001074482389119885"/>
  </g>
 </svg>