<?xml version="1.0" encoding="UTF-8" ?>
 <svg viewBox="1.546044078384815 -1.923366559312484  0.31269862585473485 0.18063845863804007" xmlns="http://www.w3.org/2000/svg" version="1.0" overflow="visible">
  <defs>
   <g id="ID__#42_Model_Space"/>
   <g id="ID__#42_Paper_Space0"/>
   <g id="ID__#42_Paper_Space"/>
  </defs>
  <g id="draft" transform="matrix(1 0 0 -1 0 0)" stroke-width="1.074482389119885E-4">
   <g id="Layer_#32_1" color="rgb(255,0,255)" stroke="currentColor" fill="none" stroke-width="0.0001074482389119885"/>
   <g id="Poliline" color="rgb(0,0,0)" stroke="currentColor" fill="none" stroke-width="0.0001074482389119885">
    <path d="M 1.6934176545858 1.759228101458152 L 1.6857762275694 1.765671367371407 L 1.677564427599365 1.771373116885097 L 1.668954231586762 1.776455501722544 L 1.660059581822831 1.781022932744921 L 1.650956933790435 1.78516160146262 L 1.641699580108695 1.788942430058398 L 1.632325865657644 1.792425525970354 L 1.622862128142122 1.795655529094341 L 1.61319077774998 1.798186149870907 L 1.603395059674185 1.800196154736791 L 1.593606127961672 1.802237820943396 L 1.583957691069924 1.804853434349812 L 1.574722583957631 1.80865948354126 L 1.566688393702148 1.814534978648261 L 1.560653197749176 1.822484782498156 L 1.555426356337533 1.831009342350901 L 1.5492910330532 1.838883267371414 L 1.546044078384815 1.847536844265254 L 1.550265347641768 1.856529338240678 L 1.55506930277933 1.865269199022975 L 1.555782749663194 1.87516309512296 L 1.559282158779971 1.884449996003343 L 1.566036668803228 1.891763042608561 L 1.574416504388764 1.897195691497028 L 1.583430282285584 1.901519866531428 L 1.592601106902954 1.905506059414815 L 1.601683670455885 1.909689771893146 L 1.610849410665708 1.913682722402114 L 1.620241243298062 1.917113440900667 L 1.629893740994567 1.919713453171366 L 1.639759241820131 1.921322990364235 L 1.649723868056661 1.922157033337928 L 1.659704387721901 1.922773357615932 L 1.669695494327982 1.923180723411466 L 1.67969344148649 1.923366559312484 L 1.689693153366913 1.923314594614364 L 1.699688411091762 1.923004349511803 L 1.709669954760352 1.922410418027411 L 1.719628299741534 1.921501154916599 L 1.729547812270028 1.920237424499353 L 1.739407188459772 1.918570541547154 L 1.749176317459041 1.916439686114554 L 1.758819595783765 1.9137956429908 L 1.768486061028507 1.911236262952536 L 1.778210706903352 1.908908197513184 L 1.787938551437328 1.906592280679845 L 1.797598547122309 1.904010834421496 L 1.807060360446224 1.900787981565134 L 1.815914219005718 1.896173817508069 L 1.823665668718687 1.889879011146875 L 1.830497691294123 1.882581147001873 L 1.83707041906547 1.875044859496103 L 1.84348149619489 1.867373365187443 L 1.849013609252649 1.859054279139646 L 1.852897721326668 1.849861530856047 L 1.854483936000261 1.840014850244097 L 1.857307580872887 1.830810112831573 L 1.85874270423955 1.820994349830167 L 1.856935976193264 1.811179910311588 L 1.853716325959879 1.801715313744541 L 1.850126313933602 1.792381812373953 L 1.846799955214762 1.782951251321122 L 1.843553004269212 1.773492992421878 L 1.84001717122676 1.764140374966125 L 1.835782818834865 1.75508625219933 L 1.830380384188275 1.746685695726183 L 1.82691766092671 1.742728100674444 " id="ID_915"/>
   </g>
   <g id="ID_0" color="rgb(0,0,0)" stroke="currentColor" fill="none" stroke-width="0.0001074482389119885"/>
  </g>
 </svg>