<?xml version="1.0" encoding="UTF-8" ?>
 <svg viewBox="-0.4144860271555846 -8.61329164236396  0.2851547973555597 0.47226924336457543" xmlns="http://www.w3.org/2000/svg" version="1.0" overflow="visible">
  <defs>
   <g id="ID__#42_Model_Space"/>
   <g id="ID__#42_Paper_Space0"/>
   <g id="ID__#42_Paper_Space"/>
  </defs>
  <g id="draft" transform="matrix(1 0 0 -1 0 0)" stroke-width="1.074482389119885E-4">
   <g id="Poliline" color="rgb(0,0,0)" stroke="currentColor" fill="none" stroke-width="0.0001074482389119885">
    <path d="M -0.2390824372030238 8.143395396877313 L -0.2360550578493781 8.152901683041417 L -0.2350222126660171 8.162836287546861 L -0.2352537681163289 8.172830441915586 L -0.2359524970974691 8.18280587376283 L -0.2363558310972555 8.192795676187195 L -0.2356543275408907 8.202760935306962 L -0.232881975142452 8.21232953712357 L -0.2279530370248581 8.221024931156055 L -0.2232432176576378 8.229833874844404 L -0.2197797189167501 8.239211796336903 L -0.2170173754819977 8.248821342452544 L -0.2148249666876643 8.258577989255844 L -0.2131031596472122 8.268428711880029 L -0.2117763465851601 8.278337563156185 L -0.2107852269821491 8.28828790491683 L -0.2100842451364242 8.298263060543675 L -0.2096369655746697 8.308252858177307 L -0.2094140545437249 8.318250378133538 L -0.2093916460203316 8.32825057167395 L -0.2095501308352556 8.338249765896055 L -0.2098732612479077 8.348244757750305 L -0.2103762410712155 8.358231703189391 L -0.2114192399663421 8.368175178808741 L -0.2131866796554158 8.378015068336776 L -0.2156851071465002 8.38769542284382 L -0.2187644217701496 8.397207986565089 L -0.2221482463049984 8.406617242791471 L -0.2255508847650303 8.4160202655512 L -0.2284634416026696 8.425579635361203 L -0.2305886596150986 8.435350963924982 L -0.2332871251735753 8.444970807130371 L -0.2383675379456633 8.453528956622954 L -0.2434782886470126 8.462113900586214 L -0.2475083361108794 8.471261760895151 L -0.2509564424720807 8.480648243668387 L -0.2545278394612742 8.48998714154062 L -0.2591498555995324 8.498839550790734 L -0.2657135232677525 8.506343774282886 L -0.2734194412440001 8.512712493422143 L -0.2814292076743516 8.518698921946218 L -0.2894258210221965 8.524702471646854 L -0.2972351391807706 8.530947539103366 L -0.3047519245907191 8.53754123817851 L -0.3118667427945079 8.544565483701273 L -0.3189288639043868 8.55164300219585 L -0.3268058713107269 8.557782325750573 L -0.3357298940361257 8.562267100460234 L -0.3447205454723541 8.566628109191122 L -0.3523227653732555 8.573045994110934 L -0.3593353415086051 8.580170072550178 L -0.3668751495247644 8.586736592677024 L -0.3747100650064006 8.59294978549563 L -0.3826419684071132 8.599039394943905 L -0.3905033842331171 8.605219270456429 L -0.3970824447076211 8.610728426886938 " id="ID_34C"/>
    <path d="M -0.2390824372030238 8.143395396877313 L -0.2488866991200966 8.141467544351787 L -0.2588660805705985 8.141022398999384 L -0.2687825282750031 8.14221840648695 L -0.2783706371787815 8.145020884145875 L -0.28741933218281 8.149254901642664 L -0.295752453188415 8.154768438556136 L -0.3033320344595758 8.161283181928495 L -0.3102431562986867 8.16850652293913 L -0.3166365819749375 8.176193825670197 L -0.3226850140847111 8.184156720924685 L -0.3285616257998178 8.192247980329679 L -0.3344339143536326 8.200341108333962 L -0.3404678067029181 8.208316123259083 L -0.3470365785285816 8.215840154974593 L -0.3542753939236078 8.222730365216082 L -0.3604076817797237 8.230628521070383 L -0.3662755283694477 8.238723227885766 L -0.3717969402171395 8.247058982375208 L -0.3768567119376414 8.255684938993396 L -0.3813128548955937 8.26463293233498 L -0.3850205340331429 8.273916368981276 L -0.3878569831345722 8.283501500838204 L -0.3897647750829405 8.293313230243715 L -0.3907729776735982 8.303258652240812 L -0.390981938897907 8.313253995650854 L -0.390526540873072 8.323245028806042 L -0.389766730213009 8.333214314463358 L -0.3898926943386005 8.343208087213341 L -0.3905828519053171 8.353183823032076 L -0.3915250710376821 8.363139830308773 L -0.392522712382072 8.373089371272222 L -0.3934137394109918 8.383049405300811 L -0.3940244510817363 8.393031515594135 L -0.3943032722288482 8.40302629756549 L -0.394362542504731 8.413015352602791 L -0.3926094914268558 8.422851580228865 L -0.3907147122935353 8.432665571348593 L -0.3901290289834582 8.442644126070785 L -0.3903202433595938 8.452640594545699 L -0.3911623138063476 8.462603281114077 L -0.3928959824146645 8.472442274369953 L -0.3960342539262864 8.48193266176904 L -0.399707927989545 8.491233316453396 L -0.403344390516625 8.500548607999402 L -0.4065744391451159 8.510011196465175 L -0.4091005173319236 8.519683552408148 L -0.4103903901472128 8.52958352288163 L -0.4106012859085669 8.539581162221296 L -0.4114417342955595 8.549538318731386 L -0.4132054456376571 8.559380200729587 L -0.4142414066352318 8.569324537314094 L -0.4144860271555846 8.579318339206633 L -0.4136674536695546 8.58927755928112 L -0.4111491797708436 8.598932271247115 L -0.4056088023001854 8.607143752947568 L -0.3970824447076211 8.610728426886938 L -0.3882563071314866 8.61329164236396 L -0.3783145553090215 8.612348540158912 L -0.368639924059285 8.609848648194937 L -0.3593019619564579 8.606279874567475 L -0.3502348555237305 8.602064831544348 L -0.3413198220239018 8.597535110470673 L -0.3324266480186981 8.592962131703102 L -0.3234310903154389 8.588595331677132 L -0.3142255311937125 8.584693825984404 L -0.3047422522258953 8.581530965561308 L -0.2952403207686514 8.578416988477326 L -0.2858705530246679 8.574924409082552 L -0.2766225787111001 8.571120916654944 L -0.2674903412672887 8.567046905772585 L -0.2584717753857184 8.562726872391371 L -0.2495679970562721 8.55817476585283 L -0.2407832353586183 8.553396844725384 L -0.2321239843187044 8.548392481943779 L -0.2236041464924456 8.543157446144818 L -0.2152387667109696 8.537679634990363 L -0.2070496884885369 8.531940573407024 L -0.1990693249525854 8.525914989996519 L -0.1913429975965508 8.51956726675916 L -0.1839019401427766 8.512887555545001 L -0.1767321936050745 8.5059177793336 L -0.1700168271839564 8.498511588421065 L -0.1641132400957561 8.490449499555005 L -0.1630824335932175 8.48872842109225 L -0.1597249926422091 8.479312570162106 L -0.1571263199370456 8.469658127410138 L -0.1550403641894631 8.459878820563635 L -0.15316787776114 8.45005563657469 L -0.151180449661088 8.440255539564022 L -0.1487377862530534 8.430560335623444 L -0.1455418418805179 8.421088136470287 L -0.1423894463729995 8.411599384506005 L -0.1397096233495398 8.401966009939912 L -0.1374221593000451 8.392231739432589 L -0.1354626650047352 8.382426018481604 L -0.1337812304688457 8.372568717529683 L -0.1323648040608898 8.36266979822534 L -0.1312049838354072 8.352737611561867 L -0.1303010655040913 8.34277875112663 L -0.1296664308304649 8.33279909432993 L -0.1293312298000249 8.322805160045524 L -0.1293500658264968 8.31280575235099 L -0.1298200644620744 8.302817803696293 L -0.1300824320258016 8.299728412115233 L -0.1309567901870077 8.292807909807038 L -0.1333565059307995 8.28310765770866 L -0.1368767688564434 8.273752669305424 L -0.1412155632231569 8.264745519221181 L -0.1460819415034944 8.256010430832141 L -0.1512175219291274 8.247430008668937 L -0.156388564662743 8.238870803546426 L -0.1613668498037022 8.230198678761672 L -0.1659099670949713 8.221292152053175 L -0.1697494260973826 8.21206239232632 L -0.1754886075530138 8.20528419874417 L -0.18156398265939 8.197342137607212 L -0.1874324501883553 8.189245301586478 L -0.1932938522377769 8.181143349139889 L -0.1993416914955608 8.173180213181483 L -0.2057664508811747 8.16551932569542 L -0.2127500763523322 8.158366709238322 L -0.2204415796770611 8.151985293962696 L -0.2289078369667878 8.146680101768773 L -0.2380824371555263 8.142728404658133 " id="ID_34D"/>
   </g>
   <g id="ID_0" color="rgb(0,0,0)" stroke="currentColor" fill="none" stroke-width="0.0001074482389119885"/>
  </g>
 </svg>