<?xml version="1.0" encoding="UTF-8" ?>
 <svg viewBox="0.9929176213138362 -1.787187472004891  0.4876091509854539 0.59661419095004" xmlns="http://www.w3.org/2000/svg" version="1.0" overflow="visible">
  <defs>
   <g id="ID__#42_Model_Space"/>
   <g id="ID__#42_Paper_Space0"/>
   <g id="ID__#42_Paper_Space"/>
  </defs>
  <g id="draft" transform="matrix(1 0 0 -1 0 0)" stroke-width="1.074482389119885E-4">
   <g id="Layer_#32_1" color="rgb(255,0,255)" stroke="currentColor" fill="none" stroke-width="0.0001074482389119885"/>
   <g id="Poliline" color="rgb(0,0,0)" stroke="currentColor" fill="none" stroke-width="0.0001074482389119885">
    <path d="M 0.9929176213138362 1.674728097444617 L 0.9981211958200333 1.683257971980129 L 1.004594347582967 1.690863845602375 L 1.012306293041249 1.697209453955364 L 1.020921025007772 1.702272474366923 L 1.030007237458061 1.706443386069686 L 1.039191620826113 1.710397029162342 L 1.048237094910478 1.714659507347709 L 1.057198517241273 1.719097088700427 L 1.066123277310355 1.723608040156888 L 1.075048682488618 1.728118015108378 L 1.084008139735697 1.732560144499172 L 1.093035974386808 1.736861711549993 L 1.102171766777387 1.740928779867507 L 1.111465876982175 1.744616905692462 L 1.120947789102564 1.747790761591543 L 1.130524636991329 1.750668651223346 L 1.140088849178343 1.753587616125571 L 1.149541793494403 1.756846404141692 L 1.158795703460394 1.760631689718987 L 1.167850077903813 1.764875223206558 L 1.176864271485743 1.769204620269013 L 1.185934057607878 1.773415587991918 L 1.195174903437905 1.777233254509454 L 1.20470410132743 1.780238117880486 L 1.213792261675026 1.784107253093328 L 1.216917631953265 1.786728102764332 L 1.226915927420404 1.786557251140589 L 1.236915784147047 1.786587322967656 L 1.246914635783076 1.786738740825938 L 1.256912728851739 1.786936836233337 L 1.266911168271585 1.787109925515471 L 1.276910829797965 1.787187472004891 L 1.286910305735148 1.787098416996485 L 1.296904637006531 1.786769833510945 L 1.306883419996871 1.786126053525816 L 1.316828702589937 1.785088560247311 L 1.326712691502129 1.783577053507332 L 1.336495606869867 1.781512180946045 L 1.34612436986039 1.778820333666434 L 1.349417638246677 1.777728102336855 L 1.356938438325648 1.771421461725628 L 1.364178266769493 1.764532890523955 L 1.370562835782069 1.756842734316046 L 1.376143976159228 1.748549387933078 L 1.381000319669255 1.739810670890161 L 1.385216510174593 1.730745154464409 L 1.388872793756353 1.721438734767298 L 1.392040077475287 1.711954360152098 L 1.394779759921207 1.702337463576821 L 1.397144347933719 1.69262135423216 L 1.399178838351949 1.682830980870248 L 1.400922558501578 1.672984389084032 L 1.402571653698716 1.663121466624858 L 1.404463295571352 1.653302217688995 L 1.406599267545669 1.643533217157425 L 1.408975959001285 1.633820053312792 L 1.411594033809286 1.6241690685228 L 1.414458304169084 1.614588321478924 L 1.417549149194542 1.605078106028518 L 1.420527291489257 1.595532224354293 L 1.42334937154287 1.585938899122693 L 1.426098459180433 1.576324293250651 L 1.428862921074522 1.56671396238544 L 1.431728693120508 1.557133594838303 L 1.434772456872422 1.547608328309289 L 1.438053311597192 1.538162130583955 L 1.440932142560588 1.528588392149817 L 1.443291792695739 1.518871020174444 L 1.445589167480374 1.509138556915091 L 1.448191830381511 1.499484190894527 L 1.451436432879675 1.490028426277971 L 1.455644308851245 1.480963790679279 L 1.456917643352653 1.478728088135117 L 1.458744668733673 1.468896474423708 L 1.460678452395183 1.459085210954512 L 1.462677304815009 1.449287036924092 L 1.464707706150603 1.439495264677878 L 1.466740013893324 1.429703842523986 L 1.46874550655007 1.419906842065573 L 1.4706936772151 1.41009823256444 L 1.472549116465783 1.400271614985996 L 1.474246437976899 1.390417008567139 L 1.475553705358468 1.380503465765533 L 1.47658224448036 1.370556629543569 L 1.477565184388253 1.360605094852399 L 1.478767864734313 1.350678258696195 L 1.480387988710459 1.340811673537944 L 1.48052677229929 1.33082986979253 L 1.479019993491403 1.320951734692796 L 1.476367137875445 1.311314679858671 L 1.472816815460359 1.301969415302323 L 1.468497420002895 1.29295344223278 L 1.463471305487222 1.284311245359148 L 1.457760026408212 1.276105830610601 L 1.451357222017994 1.268428395901448 L 1.444238192853211 1.261411323108038 L 1.436372786898368 1.255245349451215 L 1.427758718110298 1.250182202383921 L 1.41857699661906 1.246232742606505 L 1.40912587089744 1.242967078509833 L 1.399675124883385 1.239700374802517 L 1.390402607873663 1.235961185881029 L 1.381400543387237 1.231611687454723 L 1.377917639600354 1.229728076308251 L 1.368312831080551 1.226945888891606 L 1.358668403511073 1.224302848262016 L 1.349060776471488 1.221529908302239 L 1.339576227458141 1.218365029028159 L 1.33033780271648 1.214545121347331 L 1.321531230885793 1.209819435678259 L 1.31691763670301 1.20672807521581 L 1.311613337556907 1.206299686845499 L 1.302006870592726 1.203587746760177 L 1.292894183697006 1.199478433049048 L 1.283989143340341 1.194928752740789 L 1.274917634708117 1.190728074455851 L 1.27171867544312 1.190573281054851 L 1.261748536599724 1.191169187452937 L 1.252014244776916 1.193406810227777 L 1.242745463396133 1.197135549147775 L 1.234060765228107 1.202080304210083 L 1.225964973875881 1.207943988406917 L 1.218390963844218 1.214470320891759 L 1.211239690145706 1.221458799685748 L 1.204402518771853 1.228755700972602 L 1.197769121464124 1.236238761504145 L 1.191226945407573 1.243801800951263 L 1.18465555692184 1.251339481222844 L 1.177917630100864 1.258728077685677 L 1.17667922204824 1.266662116925393 L 1.173001432253744 1.275942775026415 L 1.167971750510753 1.28458073099321 L 1.162440824587124 1.29291106009691 L 1.157017890061969 1.301312288551933 L 1.152250689318475 1.310097359923515 L 1.148755570536646 1.319456474587584 L 1.146076133937856 1.329090539582397 L 1.143038512235542 1.338616492102586 L 1.139603210644928 1.348008105126424 L 1.135946094700291 1.357315032889925 L 1.132162433250679 1.366571918954022 L 1.128326852506174 1.375807405645582 L 1.124524809993094 1.385056670094188 L 1.12072891034343 1.394308086925425 L 1.116717967940476 1.403468332453831 L 1.11253092141871 1.412549382245968 L 1.108205068203152 1.421565508667564 L 1.103771330648195 1.430529275616926 L 1.099255904417931 1.439452339056218 L 1.094681926221445 1.448345103420864 L 1.090070328155239 1.457217312832387 L 1.085439356925701 1.466080729593942 L 1.080808087764275 1.474943928508004 L 1.076194958191325 1.483816518764195 L 1.071618948987946 1.49270824766968 L 1.067100254564875 1.5016291779307 L 1.062661001880329 1.510589983179022 L 1.058326486478677 1.519601558672203 L 1.054247150536517 1.528730620452375 L 1.050572095934021 1.538030193221034 L 1.047204833415532 1.54744593632332 L 1.044055162034962 1.556937158908791 L 1.041039377641622 1.566471860635729 L 1.038076163674896 1.576023009517044 L 1.035082309736067 1.585564496876378 L 1.03196759125976 1.595067026816389 L 1.028628266910902 1.604492918954761 L 1.024939164772971 1.613786372639895 L 1.020742175838023 1.622860966173277 L 1.015836122846945 1.63157053761771 L 1.009975992267994 1.639664169971 L 1.00291762178881 1.646728096114689 " id="ID_8FF"/>
   </g>
   <g id="ID_0" color="rgb(0,0,0)" stroke="currentColor" fill="none" stroke-width="0.0001074482389119885"/>
  </g>
 </svg>