<?xml version="1.0" encoding="UTF-8" ?>
 <svg viewBox="-0.9695691614728572 -9.433300447821429  0.16595292670010864 0.22407199250726428" xmlns="http://www.w3.org/2000/svg" version="1.0" overflow="visible">
  <defs>
   <g id="ID__#42_Model_Space"/>
   <g id="ID__#42_Paper_Space0"/>
   <g id="ID__#42_Paper_Space"/>
  </defs>
  <g id="draft" transform="matrix(1 0 0 -1 0 0)" stroke-width="5.039721436807565E-5">
   <g id="Poliline" color="rgb(0,0,0)" stroke="currentColor" fill="none" stroke-width="0.00005039721436807565">
    <path d="M -0.940082470498737 9.209228455314165 L -0.9487099188198371 9.21428419069539 L -0.9571501160607613 9.219640338753395 L -0.9646076806389354 9.226267869662893 L -0.9695691614728572 9.234871906283926 L -0.9670436325591866 9.244250454253367 L -0.9632171784870865 9.253489066590017 L -0.959169422019011 9.262632748892313 L -0.9549294783260062 9.271688938729854 L -0.9505290427958001 9.28066916695552 L -0.9460026996451791 9.289586018137333 L -0.9413852410099554 9.298455986649426 L -0.9367118835100471 9.307296393613887 L -0.9320170349071696 9.31612542780131 L -0.9273338424781263 9.324960919078414 L -0.9226938528442341 9.333819214034753 L -0.9181262595231745 9.342715141348554 L -0.9136577825254343 9.351661106404215 L -0.9092160506582231 9.360620284882302 L -0.9045268116846241 9.369452346037383 L -0.8995940026143625 9.37815267208787 L -0.8944080992082383 9.386702649128868 L -0.8889271534987965 9.395065855639944 L -0.8830698686256663 9.40316955336763 L -0.8768137668542435 9.410970678521714 L -0.8702761039751942 9.418533599301313 L -0.8631411539949604 9.42553487784349 L -0.8549905312534198 9.431290172416295 L -0.845382966163779 9.433300447821429 L -0.8373480907685886 9.427715217157772 L -0.8313835270257108 9.419696027226497 L -0.8259484776529789 9.411303880250397 L -0.8202463551257297 9.403089421694325 L -0.8145542257700615 9.39486787940126 L -0.8093191043114202 9.386354138220979 L -0.8052440326268923 9.37723801335377 L -0.8036162347727486 9.367418719781213 L -0.8058487387077528 9.357752136683844 L -0.8124356824750336 9.350305772429705 L -0.8197792049623018 9.343524177869089 L -0.8258137011170072 9.335578207618713 L -0.8302491425786966 9.326625099773638 L -0.8335691675084158 9.317196859879466 L -0.8360825983810755 9.307519755726691 L -0.8380742743962796 9.297720672808596 L -0.8397897877442233 9.287868953707928 L -0.8414457773406941 9.278007072245607 L -0.8432460642511347 9.268170624227931 L -0.8453965674456895 9.258405504383372 L -0.8481161727272468 9.24878461422142 L -0.8510824662714639 9.240728456810334 " id="ID_2D3"/>
   </g>
   <g id="ID_0" color="rgb(0,0,0)" stroke="currentColor" fill="none" stroke-width="0.00005039721436807565"/>
  </g>
 </svg>