<?xml version="1.0" encoding="UTF-8" ?>
 <svg viewBox="0.1322029655079122 -9.41472846507489  0.41121463445581874 0.27750001318054274" xmlns="http://www.w3.org/2000/svg" version="1.0" overflow="visible">
  <defs>
   <g id="ID__#42_Model_Space"/>
   <g id="ID__#42_Paper_Space0"/>
   <g id="ID__#42_Paper_Space"/>
  </defs>
  <g id="draft" transform="matrix(1 0 0 -1 0 0)" stroke-width="5.039721436807565E-5">
   <g id="Poliline" color="rgb(0,0,0)" stroke="currentColor" fill="none" stroke-width="0.00005039721436807565">
    <path d="M 0.543417599963731 9.343228461678823 L 0.5393301416319574 9.338131786558652 L 0.533604799339991 9.329934750217685 L 0.5282576524555794 9.321484972212378 L 0.5230903471444455 9.312923697992002 L 0.5179488720743173 9.304346420702663 L 0.5128808744962301 9.29572817230731 L 0.5084492215820032 9.286762874407883 L 0.5037401782075328 9.277946834870193 L 0.4976537335590079 9.270044356622876 L 0.4894170693372573 9.26448354358281 L 0.4831765250019649 9.25760618005988 L 0.4790894951247502 9.24848220912348 L 0.4730808918762329 9.240571574641312 L 0.4661373033511121 9.234019564905864 L 0.4609829955408058 9.22545911317159 L 0.4548369605387954 9.217576871292412 L 0.4479974996045062 9.210284824609976 L 0.4407335482667208 9.20341329795385 L 0.433269871599852 9.196758046457408 L 0.4258020661384015 9.190107439409774 L 0.4185199082931588 9.183255007948828 L 0.4096625651551778 9.179018164351174 L 0.4006790996804446 9.174638536863132 L 0.3921998119124854 9.169343947150955 L 0.3841593659186495 9.163401187051367 L 0.3764471476176681 9.157036765289263 L 0.3689316534199332 9.150440086609603 L 0.3614717015926105 9.14378052618133 L 0.3539175909629648 9.137228451894348 L 0.3455157979170051 9.142590353336107 L 0.3384903337394327 9.149691344951547 L 0.3322330424768065 9.15749026858008 L 0.3259937443932159 9.165303913615812 L 0.3190795649265512 9.172517306462478 L 0.3109768270378268 9.178340163670743 L 0.3089175888255795 9.179395446084673 L 0.3036661969253869 9.187900270771287 L 0.2978313205780871 9.19602052431403 L 0.2917162619359121 9.203933082962667 L 0.285435050551504 9.21171507979165 L 0.2790487890531335 9.219411176498053 L 0.2726018485081738 9.227055531151365 L 0.2659927967248885 9.234557668791599 L 0.2590595545504195 9.241763434199166 L 0.2523119484612479 9.249143464074969 L 0.2457369141565371 9.25667784095758 L 0.2393161316430268 9.264344025774006 L 0.2330302327435767 9.272121263002054 L 0.2268593448818219 9.279990165550217 L 0.2207833316438048 9.287932494572878 L 0.2147817130253715 9.295931257048498 L 0.208833994475226 9.303970191659008 L 0.2029196113338845 9.312033691923752 L 0.197007426853764 9.320098687684556 L 0.1907121910812055 9.327866131764146 L 0.1839884984933588 9.335267114430152 L 0.1770054983280191 9.342424844470303 L 0.1699121079731185 9.349473484874643 L 0.1628501610297652 9.356553594923412 L 0.1559706707856971 9.363810492461273 L 0.1494519836286239 9.371391013870534 L 0.1435154856181526 9.379434914639258 L 0.1384375331205803 9.388042778020097 L 0.1345225867122188 9.397235008982639 L 0.1322029655079122 9.40687944181438 L 0.134917580561023 9.41472846507489 " id="ID_28F"/>
   </g>
   <g id="ID_0" color="rgb(0,0,0)" stroke="currentColor" fill="none" stroke-width="0.00005039721436807565"/>
  </g>
 </svg>