<?xml version="1.0" encoding="UTF-8" ?>
 <svg viewBox="-1.046953492254744 -9.241932299770342  0.3303710323716873 0.5850029140469228" xmlns="http://www.w3.org/2000/svg" version="1.0" overflow="visible">
  <defs>
   <g id="ID__#42_Model_Space"/>
   <g id="ID__#42_Paper_Space0"/>
   <g id="ID__#42_Paper_Space"/>
  </defs>
  <g id="draft" transform="matrix(1 0 0 -1 0 0)" stroke-width="5.039721436807565E-5">
   <g id="Poliline" color="rgb(0,0,0)" stroke="currentColor" fill="none" stroke-width="0.00005039721436807565">
    <path d="M -0.9130824692163059 8.678728430116767 L -0.9030933037516328 8.678270869620363 L -0.8930949978189008 8.678108045920453 L -0.8830962619965063 8.678241314989794 L -0.8731058626866561 8.678670576709298 L -0.8631324655159637 8.67939417694158 L -0.8531844658199538 8.680408825287413 L -0.843269809274215 8.681709526519342 L -0.8333956522181757 8.683289547451608 L -0.8235341697344313 8.684947236905224 L -0.8136564488274284 8.686506468070004 L -0.8037907103989558 8.68813917743529 L -0.7939644250775882 8.689993649938298 L -0.7842195854646788 8.692234732450562 L -0.7746377266529665 8.695088325427543 L -0.765405908319246 8.698914101388269 L -0.7570272798596909 8.704329292728913 L -0.750918793381989 8.712146122101213 L -0.748861683326231 8.721873071929991 L -0.7485877610349015 8.7318685904843 L -0.7478037302217749 8.741834093794377 L -0.7478227091821026 8.751832300606322 L -0.7481820534158281 8.761825990891303 L -0.7486140651553113 8.771815675084875 L -0.749422544201642 8.781782720999585 L -0.749927760093013 8.791768074539785 L -0.7495627801101455 8.801757891326192 L -0.7484741435072327 8.811697407864532 L -0.7470260979311698 8.821591619004781 L -0.7455853287306571 8.831487069689764 L -0.7444783508431936 8.841424618130752 L -0.7439951506126921 8.851410620217877 L -0.7442372578719949 8.861405715531632 L -0.7450838830120006 8.87136865651564 L -0.746416864566741 8.881278817472097 L -0.7481257680589755 8.891131450020994 L -0.75010366124471 8.900933738530833 L -0.7522390393092815 8.91070310538656 L -0.7543867155336867 8.920469710530979 L -0.7558866935185229 8.930353195531849 L -0.7566349023428414 8.940323447697153 L -0.7569466511578096 8.950318221251672 L -0.7571642205585531 8.960315767136043 L -0.7576180590654387 8.970304771170811 L -0.7585155640231749 8.980263735188387 L -0.759745736046436 8.990187193747259 L -0.7613433707626518 9.000057888001503 L -0.7633560364005234 9.009852799697242 L -0.7658187284051908 9.019543367289433 L -0.7687481094635267 9.029103608684348 L -0.7721378332668394 9.038510475229558 L -0.7758222869043295 9.04780493841062 L -0.7781544171255393 9.05752116139329 L -0.7797498663602598 9.06739286957049 L -0.7814947750005361 9.077238053117672 L -0.7841762081702504 9.086864523897248 L -0.787357924835443 9.096344609449835 L -0.7905921579793028 9.105807155523161 L -0.7938108105275427 9.115274766446243 L -0.7969532785954013 9.12476845422897 L -0.7999621283989616 9.13430520045768 L -0.8026282325813847 9.14394107685164 L -0.8046751400537113 9.153728565751475 L -0.8064576425478966 9.16356850261887 L -0.8083959430261592 9.173378219297923 L -0.8109315965704536 9.183048011120384 L -0.814400770181785 9.192422678707967 L -0.8186150110406256 9.201489209687951 L -0.823359523269409 9.210290866464925 L -0.8284236359449765 9.218913377725189 L -0.8335938003875353 9.227473193095017 L -0.8375824656302484 9.2342284565016 " id="ID_2CA"/>
    <path d="M -0.8660824669839257 8.65772842911932 L -0.8704085122781748 8.65692938572342 L -0.8768358400330242 8.65692938572342 L -0.8896904955427231 8.657785486839987 L -0.8970824684563466 8.660728429261813 L -0.9009500180487028 8.663340724138111 L -0.9083736176001524 8.670004613722975 L -0.9130824692163059 8.678728430116767 L -0.9210993986185709 8.68470143087072 L -0.9295255399643886 8.690083336946955 L -0.9382514405465087 8.694965589508836 L -0.9471919735613525 8.699443806930654 L -0.956281120390927 8.703612783580152 L -0.9654665972220213 8.707565651139227 L -0.9747042532750995 8.711395372061446 L -0.9839530642018257 8.715198236282102 L -0.9931694493866176 8.71907890020023 L -1.002299804842937 8.723157299424244 L -1.011268902833769 8.727577786089576 L -1.019932643634814 8.732564842669426 L -1.027956218495726 8.738520360481921 L -1.034979443104327 8.74562201672604 L -1.040575628808434 8.753889654217595 L -1.044407216703277 8.763108011145931 L -1.046440587702142 8.772885795706204 L -1.046953492254744 8.782864833762186 L -1.046351312119298 8.792842726110186 L -1.045022988310778 8.80275234552815 L -1.043304440523976 8.812602872064337 L -1.041499576823352 8.82243819429947 L -1.039933140223543 8.832313415462677 L -1.038932463338912 8.842262333815574 L -1.037967339540773 8.852214772128187 L -1.036185733734485 8.862048650832502 L -1.033951906199535 8.871794885651099 L -1.032146542225755 8.881629959844442 L -1.030625886686923 8.891513587426381 L -1.02921969346707 8.901414136344815 L -1.027742790743399 8.911304419582766 L -1.026207161116914 8.92118583847787 L -1.024688482975531 8.931069846673031 L -1.023232249199237 8.940963130534035 L -1.021847460057112 8.950866646358781 L -1.020176353700491 8.96072545244223 L -1.01815631441066 8.97051887329144 L -1.015849455419763 8.980248853902493 L -1.013313178941088 8.989921706718494 L -1.010600814120556 8.99954681907596 L -1.007762564237372 9.009135611578634 L -1.004846524261284 9.018701045797282 L -1.001899853298546 9.028257093979406 L -0.9989699702121281 9.037818525955576 L -0.9961061717922055 9.047399659305416 L -0.9933571432268193 9.057014296543684 L -0.9907070274597851 9.066656792216197 L -0.9881077689793 9.076313116629866 L -0.98551360370225 9.085970797953761 L -0.9828689795428982 9.095614676066432 L -0.9800943198488694 9.105221927547717 L -0.9770627736582423 9.114750867898042 L -0.9737399955433705 9.124182381040974 L -0.9701985118394231 9.133534524431528 L -0.9664995344002154 9.142825566153922 L -0.9626951459815504 9.152073917760397 L -0.9588328296338435 9.161298179741136 L -0.9549598321954348 9.170516510894313 L -0.9511252671725962 9.179752081198538 L -0.9473882015214369 9.189027377652142 L -0.9438237352601025 9.198370307630526 L -0.9405378561311046 9.20781451712443 L -0.940082470498737 9.209228455314165 L -0.9350529391581297 9.217855813708322 L -0.9284746476546654 9.225365181161251 L -0.9205358345942027 9.231419496054164 L -0.9116145498347192 9.235909665205298 L -0.9021007772791378 9.238963035818612 L -0.8922803037720656 9.240822192455777 L -0.8823255173219273 9.241739157282431 L -0.8723292110388181 9.241932299770342 L -0.8623363771791954 9.241582429719886 L -0.8523641810801034 9.240844188014883 L -0.8510824662714639 9.240728456810334 L -0.8463339258691825 9.238534228458619 L -0.8375824656302484 9.2342284565016 L -0.8278251691783733 9.234602744695033 L -0.8186644999515149 9.230795923171803 L -0.8117788425577145 9.223617905397562 L -0.8070106277683164 9.214843350531964 L -0.8033560746579553 9.205536927426206 L -0.8011248117881083 9.195827241380348 L -0.7976263057733828 9.186572799842352 L -0.7913651058564373 9.178777520872186 L -0.7853111688536157 9.170819397875897 L -0.7796242543484606 9.162594675497536 L -0.7744046356297787 9.154063923384374 L -0.7697566671353524 9.145212095687818 L -0.7657535113997991 9.136051101839305 L -0.7624098790879499 9.126631527685518 L -0.7596645710379307 9.117014856104737 L -0.757407444741034 9.107275813486764 L -0.7555064698968863 9.097458427260808 L -0.753865643689867 9.087595277421611 L -0.7531893744798204 9.077621138408357 L -0.7521968019911958 9.067678385185967 L -0.7495734751259909 9.0580366456416 L -0.7468645325179422 9.04841585291327 L -0.7457166620197802 9.038494411469385 L -0.7457988481708222 9.02849844080213 L -0.7466166042603568 9.018532446284018 L -0.7477282258542717 9.008594991888504 L -0.7486805963599465 8.998641743935037 L -0.7490311271112482 8.988651020358079 L -0.7483857324509638 8.978677717294373 L -0.7464772904369666 8.968869420531888 L -0.743833178426633 8.959224736910873 L -0.7413180701095748 8.94954568924093 L -0.7388308927535956 8.939859805186105 L -0.735863580739931 8.930317144883192 L -0.732709124094793 8.920833121967831 L -0.731386993810868 8.910938501867342 L -0.7314844903645135 8.900941850126763 L -0.7317910463627868 8.890947186735891 L -0.7313129376855958 8.880964361876192 L -0.7296601136372775 8.871106466364909 L -0.7272282964881427 8.861408082131955 L -0.7244845129504461 8.851791754878352 L -0.7218881218637039 8.842135560151334 L -0.7199453058368573 8.832329899721312 L -0.7192498237991681 8.822364457068534 L -0.72087945820297 8.812550257121082 L -0.7218803183219294 8.80268434096938 L -0.7209793452978523 8.79272715295686 L -0.7196290370372047 8.782818886065701 L -0.718355457440377 8.772900895650842 L -0.7177015686038218 8.762925727350435 L -0.7179449477580855 8.752930489215684 L -0.7182542623652965 8.742936447343071 L -0.717439981414505 8.7329824856136 L -0.7165824598830568 8.729228432515386 L -0.7199912371777178 8.71982890289718 L -0.7236863739171256 8.710536719037908 L -0.7271455435298213 8.701155442689679 L -0.729082460476775 8.694728430876726 L -0.7359940945970403 8.687519907124322 L -0.74406933754595 8.681642912449945 L -0.7529870141779424 8.677138097739144 L -0.7624222605741391 8.673842095196449 L -0.7721389169902606 8.671491186322818 L -0.7819952533004946 8.669810412356465 L -0.7919148177289693 8.66854861793343 L -0.8018573156681396 8.66747891941565 L -0.8117971700699149 8.666385092803147 L -0.8217060977280565 8.665043190805847 L -0.8315455908907463 8.66326289528242 L -0.8413535897498523 8.6613126620405 L -0.8511873108858659 8.659498207400343 L -0.8610912287731826 8.658126556331657  z" id="ID_2CB"/>
   </g>
   <g id="ID_0" color="rgb(0,0,0)" stroke="currentColor" fill="none" stroke-width="0.00005039721436807565"/>
  </g>
 </svg>