<?xml version="1.0" encoding="UTF-8" ?>
 <svg viewBox="0.2323829137860836 -10.51080198676908  0.14056849503520297 0.1670734775690601" xmlns="http://www.w3.org/2000/svg" version="1.0" overflow="visible">
  <defs>
   <g id="ID__#42_Model_Space"/>
   <g id="ID__#42_Paper_Space0"/>
   <g id="ID__#42_Paper_Space"/>
  </defs>
  <g id="draft" transform="matrix(1 0 0 -1 0 0)" stroke-width="5.039721436807565E-5">
   <g id="Poliline" color="rgb(0,0,0)" stroke="currentColor" fill="none" stroke-width="0.00005039721436807565">
    <path d="M 0.3724175918416677 10.4122285124536 L 0.3650966422666038 10.41903002826978 L 0.358718582855631 10.42672294205717 L 0.353417646354214 10.43519307056429 L 0.3493873309531663 10.44433450740825 L 0.3468802111932874 10.4540024305074 L 0.3461728991803676 10.46396169454088 L 0.3473655245478433 10.4738561994975 L 0.341170474772329 10.4814014370334 L 0.3315269721792831 10.48344706006648 L 0.3215937149005077 10.48231816758372 L 0.3116307703431902 10.48296001367414 L 0.3016871357712292 10.4831807865341 L 0.2929576482178238 10.47850747383484 L 0.2851681824065784 10.47223603429906 L 0.2769957653282322 10.46648769199806 L 0.2676299882746251 10.46312726116171 L 0.2629175866406967 10.46072851475722 L 0.2582823253301285 10.45998431328768 L 0.2548440527067584 10.45949364689497 L 0.2509175860707273 10.45872851466223 L 0.2460902643781386 10.45816745458615 L 0.2364175853820143 10.45572851451973 " id="ID_241"/>
    <path d="M 0.3724175918416677 10.4122285124536 L 0.3729514088212866 10.4076059885014 L 0.3718576875453055 10.39770637992537 L 0.3681137671894747 10.388458205275 L 0.362770967761123 10.38001326926805 L 0.3567316072484861 10.37204388493673 L 0.3506407488147891 10.36411327863944 L 0.3451064780481232 10.35579025407204 L 0.340917590345498 10.34672850934251 " id="ID_242"/>
    <path d="M 0.3159175891580617 10.34372850920002 L 0.3075613441009324 10.34919084429864 L 0.2997980879744659 10.3554937345988 L 0.2917942116810588 10.36148192326125 L 0.2827298000359013 10.36548322265701 L 0.2739291635293641 10.36992376592355 L 0.2665389845532049 10.37665022412439 L 0.259790831123869 10.38402805662598 L 0.2533002255656598 10.39163527341145 L 0.2470112604622292 10.39940912480713 L 0.2412716740557013 10.40759353926656 L 0.2365537463219978 10.41640018468564 L 0.233432413155624 10.42588192226853 L 0.2323829137860836 10.43580591921681 L 0.2334694951339955 10.44573072820115 L 0.2362872776026279 10.45531492626856 L 0.2364175853820143 10.45572851451973 L 0.2359638857569424 10.46513276970406 L 0.2439426034095593 10.47113863986883 L 0.2527871216109609 10.47578638703501 L 0.2621069846312176 10.47940360715706 L 0.2715995017709138 10.48254767646816 L 0.2810710686014905 10.48575441892676 L 0.2903732239386043 10.48941988958616 L 0.2993583251709948 10.49380313735011 L 0.3081099997972352 10.4986405603027 L 0.3168611883472634 10.50347920625689 L 0.3258628830822321 10.50782690423418 L 0.3353883020059092 10.51080198676908 L 0.3452827092064448 10.51041741653546 L 0.3534085447734876 10.50484234439932 L 0.3576748070797269 10.49587392519837 L 0.3594326311328357 10.48603959974832 L 0.3603806727966523 10.47608483808169 L 0.3616310055671237 10.46616673911629 L 0.3638649156794953 10.45642341162671 L 0.3667793226421825 10.44685880259855 L 0.369775080752607 10.4373188223047 L 0.3720103867981734 10.42757835654978 L 0.3727419963685286 10.41761780146189 L 0.3724175918416677 10.4122285124536 " id="ID_243"/>
   </g>
   <g id="ID_0" color="rgb(0,0,0)" stroke="currentColor" fill="none" stroke-width="0.00005039721436807565"/>
  </g>
 </svg>