<?xml version="1.0" encoding="UTF-8" ?>
 <svg viewBox="-0.7093453539673799 -1.51047558216433  0.2825750679399884 0.3432279834191212" xmlns="http://www.w3.org/2000/svg" version="1.0" overflow="visible">
  <defs>
   <g id="ID__#42_Model_Space"/>
   <g id="ID__#42_Paper_Space0"/>
   <g id="ID__#42_Paper_Space"/>
  </defs>
  <g id="draft" transform="matrix(1 0 0 -1 0 0)" stroke-width="1.074482389119885E-4">
   <g id="Layer_#32_1" color="rgb(255,0,255)" stroke="currentColor" fill="none" stroke-width="0.0001074482389119885"/>
   <g id="Poliline" color="rgb(0,0,0)" stroke="currentColor" fill="none" stroke-width="0.0001074482389119885">
    <path d="M -0.4290824462275396 1.194728074645839 L -0.4267702860273915 1.187641105166111 L -0.4272188712061223 1.174418903821578 L -0.4294622905927952 1.167247598745209 L -0.4366412573048706 1.167471708617217 L -0.4471853530969839 1.168592187701325 L -0.4550824474624733 1.172728073600897 L -0.4624963148039676 1.179163074139724 L -0.4696279956321377 1.186164594610071 L -0.4761895443496727 1.19370996756192 L -0.4828206468395742 1.201193029981906 L -0.4901508012263545 1.207983135329437 L -0.4983808837009525 1.213655661907599 L -0.5068641388053275 1.218950820674608 L -0.5153884763431229 1.224181586060492 L -0.5237990054006927 1.229586907120944 L -0.5319254486179182 1.235409988865139 L -0.539556611715934 1.24186755309222 L -0.5464472694173274 1.249106565573887 L -0.5523867876557623 1.257145480554051 L -0.5576959106619955 1.265619064438842 L -0.5627520675189608 1.274246055937384 L -0.5678038034264432 1.28287666805574 L -0.5730466039458655 1.291391418126133 L -0.5786648042121812 1.299662140001318 L -0.5848515937044798 1.307514664264393 L -0.5918125002089818 1.314685562618455 L -0.5997308701566954 1.320774104375429 L -0.6086566615679035 1.32524274933009 L -0.6177652112523591 1.328710775574585 L -0.6248904895482355 1.335723800008446 L -0.6324648477124635 1.342251321465436 L -0.640319528484846 1.348439144881091 L -0.6482844128974304 1.35448549224321 L -0.6557298346948466 1.361140231701897 L -0.6618511939701284 1.369031399863663 L -0.6666981450197503 1.377770029693561 L -0.6706311474142126 1.386961508142592 L -0.6741225504797246 1.396331385788963 L -0.6776204216695865 1.405698772578016 L -0.6819535845025789 1.414697169194875 L -0.6874947129105315 1.423016599862197 L -0.6935642987972069 1.430963998999677 L -0.6995854503175103 1.438948181797188 L -0.7050239164402426 1.447334686555601 L -0.7093453539673799 1.456342194187479 L -0.7069991014173552 1.464693051196007 L -0.6979760153930217 1.466754873038849 L -0.6881831072068874 1.468569151647988 L -0.6793093204255652 1.473117663696097 L -0.6713923857293853 1.479217867637393 L -0.6636321105389033 1.485521836947196 L -0.6549370252049878 1.490387968526139 L -0.64507687461023 1.491655663930366 L -0.6351279528957062 1.490693529075386 L -0.625186005986536 1.489644816739609 L -0.615216799539475 1.490072446146751 L -0.6055976008974602 1.492737045086647 L -0.5964822113536945 1.496842620203041 L -0.5874351130946165 1.501104146014512 L -0.5779726594081938 1.504302335441742 L -0.5680859230892548 1.505708118261512 L -0.5581935625840453 1.50715108671784 L -0.5483799044109379 1.509071984721789 L -0.5384873138017552 1.51047558216433 L -0.5285305078120351 1.509930473615325 L -0.5191913616601777 1.506470542179195 L -0.5110990899127028 1.50064078496149 L -0.5051071108921228 1.492651224990954 L -0.4989903895500741 1.484753203250201 L -0.4920449987340776 1.477560680282202 L -0.4848253119333288 1.470640841043492 L -0.4776056391963888 1.463722300496282 L -0.4706595588127654 1.45653004596645 L -0.4680734469270238 1.447408523015644 L -0.4667418118387641 1.437662825858497 L -0.4638429557435231 1.428097825412436 L -0.4619672537208786 1.418279354895842 L -0.4609895094029337 1.40833019969941 L -0.4608226502249151 1.398334117685255 L -0.4614218490824307 1.388355263195926 L -0.46175143911998 1.378382943834672 L -0.4600291132776109 1.368542138111131 L -0.4574295931977153 1.358886490890736 L -0.454929886708408 1.349205106860772 L -0.4530239516382908 1.339389150636588 L -0.4510863657545619 1.329578673031589 L -0.4490476828752384 1.319788783185407 L -0.4469438258693863 1.310012632804763 L -0.4448107339681986 1.300242782509691 L -0.4426839788226627 1.290470904828616 L -0.4405993366409789 1.2806917984937 L -0.4385908115483748 1.270895509663938 L -0.4366924947188098 1.261077370777533 L -0.4364065565458937 1.251131478988851 L -0.4377546453571491 1.241224706315776 L -0.4371728956004466 1.231270199506326 L -0.4347994647220191 1.221561351219373 L -0.4320015675114242 1.211960940534925 L -0.4298462415746656 1.202201169973569  z" id="ID_9B4"/>
    <path d="M -0.4295640813873769 1.167250776406126 L -0.4321035152292181 1.179386883848218 L -0.4371402625396295 1.18801323279227 L -0.4430065836740802 1.196110654244233 L -0.4490642815730271 1.20406790312551 L -0.4549609993182689 1.21214374325404 L -0.4603370153748508 1.220571927139461 L -0.4646424503654929 1.229586733888115 L -0.4680364018095649 1.238991483703468 L -0.471012428978149 1.248537921459316 L -0.4738563015757818 1.258125036188719 L -0.476835110667242 1.267670630122697 L -0.4801591175275908 1.277101086214516 L -0.4838936252214952 1.286377007153593 L -0.4878318317099604 1.295568842186836 L -0.491721733268566 1.304781103364009 L -0.4953082208834907 1.314114852969378 L -0.4993933639524962 1.323216437502304 L -0.5051527416236495 1.331385215333806 L -0.5108763431456423 1.339580865784816 L -0.5156252893749756 1.348374519887386 L -0.5194894555335532 1.357594475291397 L -0.5228316341666633 1.367018408880754 L -0.526092647503064 1.376471545288072 L -0.5297556894207585 1.385774194539548 L -0.5343089193870361 1.3946700070894 L -0.5385981883785603 1.403676636973017 L -0.5410321440193853 1.413365938697703 L -0.5428049402056976 1.423206803769781 L -0.5458147520457626 1.432718425882256 L -0.5515376983048963 1.440856769465559 L -0.5594829968020756 1.446881538775798 L -0.568663193533757 1.450783676173257 L -0.5784823638869883 1.452595397030219 L -0.5884715323091791 1.452941591460673 L -0.5984654815906696 1.452608444063489 L -0.6084594826502725 1.452275179119261 L -0.6184540016966374 1.452507285502072 L -0.6283674825744621 1.453770062564174 L -0.636082456059512 1.455728087042675 L -0.6503457066231988 1.458516150713681 L -0.6600511109837726 1.463885722049571 L -0.6702044836567893 1.468807916952346 L -0.6780624585361857 1.474078403187293 " id="ID_9B5"/>
   </g>
   <g id="ID_0" color="rgb(0,0,0)" stroke="currentColor" fill="none" stroke-width="0.0001074482389119885"/>
  </g>
 </svg>