<?xml version="1.0" encoding="UTF-8" ?>
 <svg viewBox="-0.5593904579922935 -0.9300768086076978  0.37984175114975116 0.6545791093766411" xmlns="http://www.w3.org/2000/svg" version="1.0" overflow="visible">
  <defs>
   <g id="ID__#42_Model_Space"/>
   <g id="ID__#42_Paper_Space0"/>
   <g id="ID__#42_Paper_Space"/>
  </defs>
  <g id="draft" transform="matrix(1 0 0 -1 0 0)" stroke-width="1.074482389119885E-4">
   <g id="Layer_#32_1" color="rgb(255,0,255)" stroke="currentColor" fill="none" stroke-width="0.0001074482389119885"/>
   <g id="Poliline" color="rgb(0,0,0)" stroke="currentColor" fill="none" stroke-width="0.0001074482389119885">
    <path d="M -0.1815824344719203 0.7742280546731628 L -0.1886771864745418 0.7812745911019618 L -0.195831909390832 0.7882599694142681 L -0.2034832902089789 0.7946920816639942 L -0.2120086311608498 0.7998850333804093 L -0.2216306399274828 0.8023510176850887 L -0.2316177898350293 0.80188713625569 L -0.2416159759363063 0.801772898588977 L -0.2515995329866243 0.8023009385360388 L -0.2614976275467598 0.803694845395702 L -0.2711812579334865 0.8061658936776918 L -0.2805202698645477 0.8097312073955897 L -0.2896309033095043 0.813851795906137 L -0.2987063656548665 0.8180508182894553 L -0.3079419199252671 0.8218811388723494 L -0.3174320771659911 0.8250241942122453 L -0.3271077787841694 0.8275480884631623 L -0.3368390367359124 0.8298503669322645 L -0.346575840727664 0.8321296848828243 L -0.3562648355516593 0.8346019972914344 L -0.3658375263596039 0.8374895119093732 L -0.3752003988689658 0.8409948587333175 L -0.3843503386362998 0.8450282951891647 L -0.3934508322102639 0.8491730603708109 L -0.4026567480009833 0.853076184531739 L -0.4120725124738698 0.8564338221596923 L -0.4217281615432258 0.8590233184386448 L -0.4314159224720387 0.8615006714213163 L -0.4411089109900566 0.8639568659625886 L -0.4509120587886644 0.865915634998016 L -0.4608659149375259 0.8667918264839666 L -0.4708431064527297 0.8662558592737408 L -0.4806701923167172 0.8644346546852403 L -0.4900824491248841 0.8617280588291897 " id="ID_9F4"/>
    <path d="M -0.43094738613605 0.928793176220095 L -0.4197873594278008 0.9300768086076978 L -0.4033172757671651 0.9274443433535886 L -0.3835531260251059 0.9208632856321834 L -0.3545658380015766 0.9162565592823774 L -0.3367781279083886 0.909017437954379 L -0.3133906288500157 0.9027654120362633 L -0.2959323253649586 0.9004620488613603 L -0.2870824394829014 0.8987280605865954 L -0.2776486547062698 0.896161167253858 L -0.2680241413630675 0.8934467692636189 L -0.2584460792947514 0.890572908628787 L -0.2489382476591206 0.8874754737057433 L -0.2395282297357308 0.8840926698622482 L -0.2302503530343127 0.8803632192982213 L -0.2211371922727334 0.876247623582401 L -0.2122229805689768 0.8717189989233968 L -0.2036938409242319 0.8665061981420034 L -0.1958738072160742 0.8602886603983037 L -0.1893835445907133 0.8527111320620655 L -0.1854568328109689 0.8435512310313004 L -0.183132309539225 0.8338290587081048 L -0.1815597699412361 0.8239536633763506 L -0.1804884066288617 0.8140105488103621 L -0.1798297738852472 0.80403563864283 L -0.1795842172942317 0.7940353525823785 L -0.1798809325202688 0.7840401004909712 L -0.1815824344719203 0.7742280546731628 L -0.1813966910912956 0.7734247731392135 L -0.179887702264157 0.7635471285894191 L -0.1795487068425423 0.7535571501517513 L -0.1800217229831951 0.7435698687631103 L -0.1809347956482545 0.7336119741788619 L -0.1819345213226473 0.7236621550833747 L -0.1826814565952164 0.7136908957331798 L -0.1828392995794301 0.7036945711080609 L -0.1820824344956691 0.693728050849618 L -0.1850843587873374 0.6842085024065288 L -0.1883201446012874 0.6747500397092985 L -0.1891854866522555 0.664824404218953 L -0.1871831407303608 0.6550578862665244 L -0.1840060396909653 0.6455770953766891 L -0.1815250161614132 0.6359051952762478 L -0.1836081925764432 0.6263035567048583 L -0.1879013758362973 0.617287013860162 L -0.1903729662035216 0.6076037714045324 L -0.1919678289497941 0.5977348886041121 L -0.1927658833134176 0.5877697013758141 L -0.1928968205355144 0.577772160127303 L -0.1926353304173949 0.5677759567124241 L -0.1923773994721474 0.5577796121245733 L -0.1925704503819121 0.5477833571278055 L -0.1931505024703899 0.5378019923716783 L -0.1929712694125367 0.5278056058198751 L -0.1922492279510104 0.5178322395237647 L -0.1912768071916249 0.5078796184491328 L -0.1903498898538576 0.4979228922914594 L -0.1898393210209859 0.4879378261932228 L -0.1903255788670606 0.4779580829164125 L -0.1928358116162245 0.4683128819921408 L -0.1972708070666327 0.4595125712887232 L -0.1997351472168205 0.4498214517059012 L -0.2023364757909141 0.4401658009960947 L -0.2047670394599574 0.4304662341572865 L -0.2067102381302028 0.4206586574842924 L -0.2078438882024329 0.4107272088784307 L -0.2078747881941174 0.4007335561321668 L -0.2075824357068541 0.3972280367666236 L -0.212484130270326 0.3885133462545145 L -0.2169566818129791 0.3795699940257595 L -0.2211183772272252 0.3704775131301456 L -0.2250573656044885 0.3612860764580184 L -0.2288434345313304 0.3520304346665313 L -0.2325359320977283 0.3427369379288034 L -0.2361893845753595 0.3334281323210249 L -0.2398742630619663 0.3241318407293399 L -0.2437919043419576 0.3149319597244791 L -0.2482344168576072 0.3059758289394985 L -0.2535344701612638 0.2975037459360106 L -0.2600032612449974 0.2898949051608053 L -0.2677717504333623 0.2836265823602666 L -0.2766467515852362 0.2790546349675367 L -0.2862171993799887 0.2761969358350989 L -0.2911644458523792 0.2754976992310567 L -0.2911644458523792 0.2754976992310567 L -0.3098277324318133 0.2786165371961182 L -0.325810121589825 0.2791866856412533 L -0.3514960645095186 0.2854588807450859 L -0.3663367575058203 0.2911607868519645 L -0.3931642732139266 0.2945819586264555 L -0.4080050895834973 0.2985732788460815 L -0.4230824459425558 0.3027280322781145 L -0.4308019804004602 0.3043788573199979 L -0.440299918648865 0.3075050881267902 L -0.4501250029770807 0.3091625126501256 L -0.4583485237273753 0.3146110945510419 L -0.4677079291784026 0.3180934516172265 L -0.4773335245926332 0.3208015595867426 L -0.4865776061950804 0.3245639871076236 L -0.4927828058184991 0.3319333347378208 L -0.4981704548423194 0.3403411170425841 L -0.5049609409404728 0.3476664836310217 L -0.5127707872351284 0.3539008646485406 L -0.5211734467078754 0.3593173742103666 L -0.529868814741482 0.3642548623894015 L -0.5391589639108095 0.3679352023711342 L -0.5480152571518389 0.3724814050910545 L -0.5543516394028769 0.3801355558656496 L -0.5577741574666666 0.3894976128153438 L -0.5591472221658718 0.3993919651966209 L -0.5593904579922935 0.4093864658400009 L -0.5590762887161951 0.4193810967869265 L -0.5585577812916968 0.4293675904931807 L -0.5580788438761664 0.4393557080842819 L -0.5578148725406864 0.4493522257409275 L -0.5576725001252774 0.4593512937946099 L -0.5575586772904151 0.4693506788642523 L -0.5574112983679438 0.4793496325888054 L -0.5571497773060621 0.4893460471964684 L -0.5566644127103872 0.4993339376994275 L -0.555797897838251 0.5092953819550843 L -0.5543457126907195 0.5191877356012659 L -0.5526687983123227 0.5290461088620706 L -0.550964236263865 0.5388996705565284 L -0.5492414394113814 0.5487501866176512 L -0.5475112703670701 0.5585992861935978 L -0.5457855601972234 0.568449111950768 L -0.5440766860822795 0.5783018007081342 L -0.5423969756260485 0.5881594153854639 L -0.5407580849948586 0.5980239221261581 L -0.5391704616521933 0.6078970595433387 L -0.5376430191497459 0.6177796944784149 L -0.5361826634009983 0.6276732527812534 L -0.5347379777031529 0.6375684247007456 L -0.5331955339916217 0.6474488861025414 L -0.5315668976133558 0.6573155079657625 L -0.5298660095815171 0.6671697943810777 L -0.5281051551745533 0.6770132234491353 L -0.5262951767158821 0.6868483034755624 L -0.5244461375163266 0.6966766918393681 L -0.522567557671863 0.7064994782136047 L -0.5206686023343928 0.7163174455555144 L -0.5187578865279728 0.7261331442817145 L -0.5168442282044065 0.7359480465803224 L -0.5149362380023073 0.7457657604345105 L -0.5130438920832452 0.7555851168478949 L -0.5111770458819649 0.7654091510004744 L -0.5093466762021875 0.7752403943965565 L -0.5075656562034441 0.7850787728475748 L -0.505847764092569 0.794930006149917 L -0.5042102487206029 0.8047956271969579 L -0.502674107070397 0.8146768961805683 L -0.5012652093380954 0.8245775437896405 L -0.500035009166437 0.834501455487171 L -0.4986850900039777 0.8444088501949025 L -0.4961492967082704 0.8540645428819182 L -0.4900824491248841 0.8617280588291897 L -0.490179002936312 0.8717218504401937 L -0.4882795134394451 0.8814968845502092 L -0.4838344422447385 0.890451774815819 L -0.4797313470403309 0.8995685808265942 L -0.475498835075042 0.9086218701181483 L -0.4698702163571236 0.9168509709655231 L -0.4618765207447489 0.922768007704473 L -0.4524654211280979 0.9260856657790625 L -0.4426203855316038 0.9278057573652116 L -0.4326577776870649 0.9286484942228234 L -0.4310824463225354 0.928728062011519 " id="ID_9F5"/>
   </g>
   <g id="ID_0" color="rgb(0,0,0)" stroke="currentColor" fill="none" stroke-width="0.0001074482389119885"/>
  </g>
 </svg>