<?xml version="1.0" encoding="UTF-8" ?>
 <svg viewBox="-0.3833806254289387 -2.390728131452792  0.214744309446651 0.20400000968948007" xmlns="http://www.w3.org/2000/svg" version="1.0" overflow="visible">
  <defs>
   <g id="ID__#42_Model_Space"/>
   <g id="ID__#42_Paper_Space0"/>
   <g id="ID__#42_Paper_Space"/>
  </defs>
  <g id="draft" transform="matrix(1 0 0 -1 0 0)" stroke-width="1.074482389119885E-4">
   <g id="Layer_#32_1" color="rgb(255,0,255)" stroke="currentColor" fill="none" stroke-width="0.0001074482389119885"/>
   <g id="Poliline" color="rgb(0,0,0)" stroke="currentColor" fill="none" stroke-width="0.0001074482389119885">
    <path d="M -0.3020824401953632 2.197728122285784 L -0.3096876684966237 2.203974962670564 L -0.318846848996702 2.207985033072089 L -0.3276832833434851 2.21262708086785 L -0.3345436793419019 2.219841933249638 L -0.3398570935722871 2.228308173013839 L -0.3447585573946403 2.23702456229461 L -0.3502155602152817 2.245397971375499 L -0.355955500123577 2.253586685546354 L -0.361499428129938 2.261909052575326 L -0.3666768176817339 2.2704632371791 L -0.3712777757175267 2.279338876241594 L -0.3750024032566728 2.288613427278887 L -0.3773969830101365 2.298310579117194 L -0.3778230200223529 2.308278596768472 L -0.3788263764490187 2.317748473444357 L -0.3826978112261292 2.326953667169094 L -0.3833806254289387 2.336826769386698 L -0.3801212145135837 2.346102921489253 L -0.37963522566334 2.356090912515021 L -0.3788726712284092 2.366059041190103 L -0.3765289382671213 2.375752101824859 L -0.3708065131198879 2.383828089517381 L -0.361835235494393 2.387917003672102 L -0.3518700592654538 2.387635282272341 L -0.3420425115191801 2.385796583510142 L -0.3322462406780344 2.383789762856082 L -0.3223136699372757 2.382716786553102 L -0.3123220180121082 2.382986067713313 L -0.3023857110231383 2.384097883611005 L -0.2925169894246382 2.385716139338123 L -0.2826943370942976 2.38759360041188 L -0.2728703437880426 2.389461325264111 L -0.2630824383429626 2.390728131452792 L -0.2594022825925597 2.381430757551676 L -0.2561130333676225 2.37198792930026 L -0.2531986662872363 2.362422678276383 L -0.2506409946547681 2.352755868913332 L -0.2484203432297516 2.343006055667769 L -0.2465161308503516 2.333189471250666 L -0.2449073460891853 2.323320108015098 L -0.2435729149935657 2.313409863130393 L -0.2424919675746482 2.303468718861502 L -0.2394186608498661 2.294175233135272 L -0.2329136252659474 2.286637287956194 L -0.2266092674572953 2.279563161576861 L -0.2218547869328109 2.270780591540731 L -0.2157478975703198 2.262872946851725 L -0.2086798497437332 2.255805924224654 L -0.2009719887427641 2.249438981381711 L -0.1928603575247338 2.243592747746053 L -0.1845206873996421 2.238075177762071 L -0.1800824344006742 2.235228124066939 L -0.1799863898876897 2.234915373063484 L -0.176684851649024 2.225477687885273 L -0.1732082602526939 2.216101727949636 L -0.1702714285232432 2.206546673915092 L -0.1686363159822877 2.19669403946871 L -0.1690824338782022 2.186728121763312 " id="ID_891"/>
   </g>
   <g id="ID_0" color="rgb(0,0,0)" stroke="currentColor" fill="none" stroke-width="0.0001074482389119885"/>
  </g>
 </svg>