<?xml version="1.0" encoding="UTF-8" ?>
 <svg viewBox="0.7182350626686507 -8.527866084975098  0.2015196194549932 0.3356376779658419" xmlns="http://www.w3.org/2000/svg" version="1.0" overflow="visible">
  <defs>
   <g id="ID__#42_Model_Space"/>
   <g id="ID__#42_Paper_Space0"/>
   <g id="ID__#42_Paper_Space"/>
  </defs>
  <g id="draft" transform="matrix(1 0 0 -1 0 0)" stroke-width="1.074482389119885E-4">
   <g id="Poliline" color="rgb(0,0,0)" stroke="currentColor" fill="none" stroke-width="0.0001074482389119885">
    <path d="M 0.7284176087507604 8.500228421638472 L 0.7250353794616409 8.491296256574792 L 0.7201766812411954 8.482589552030873 L 0.7182350626686507 8.47283248056986 L 0.7194030640361957 8.462928394266509 L 0.7222671739426092 8.453351823642281 L 0.7256030571714982 8.44392500753841 L 0.728789575964516 8.43444661560804 L 0.7318702134540214 8.424932834514607 L 0.7349438650055884 8.415416825863417 L 0.7380471625476899 8.405910254271985 L 0.7412216877679292 8.396427601222616 L 0.7445240559657355 8.38698870569696 L 0.7480859599154517 8.377645433963643 L 0.7519864950499047 8.368437605309621 L 0.755961965990168 8.359261612685334 L 0.7596688644813101 8.349975302558043 L 0.7625121323508868 8.34039759517914 L 0.7638716022271935 8.330495286769143 L 0.7649372387637304 8.320554056466346 L 0.7670045610150567 8.310770998480196 L 0.7692338521047155 8.301022571876093 L 0.7714106176352145 8.291262455629216 L 0.773353858635665 8.281453436281204 L 0.7748682987212537 8.271570042427012 L 0.7757314668991055 8.261609902294172 L 0.7756891163940125 8.251614517390435 L 0.7755836266160259 8.250062394131223 " id="ID_330"/>
    <path d="M 0.7709176107694021 8.526728422897154 L 0.7806835953710946 8.525774323024933 L 0.790600944759369 8.527058862610456 L 0.8005624085651117 8.527866084975098 L 0.8104706653279052 8.526790929906374 L 0.8190010589715734 8.521825002329493 L 0.8230745207131358 8.512830230377489 L 0.8248673701698567 8.502993078181351 L 0.8272244194280284 8.493281886033035 L 0.8311045374971257 8.484079636311101 L 0.836178709458804 8.47546744224038 L 0.8414477607583847 8.466970378588353 L 0.8453042697910655 8.457770811093605 L 0.8465733393381843 8.447881991662413 L 0.8461255667448623 8.437894839098409 L 0.845786991551363 8.427904187680307 L 0.8486263327571768 8.418492419423412 L 0.8500509678224146 8.408683640511148 L 0.8497351736561897 8.398689506450644 L 0.8507956413494603 8.388756737015925 L 0.8528549867920336 8.378974314477563 L 0.8556849890404523 8.369385750253375 L 0.8591637292670499 8.36001235074964 L 0.8631497705991222 8.350841677841196 L 0.867503109220971 8.341840157805091 L 0.8721007689826105 8.33295978451392 L 0.8768388564058753 8.324153535828401 L 0.8816611892741752 8.31539327677084 L 0.8866889900625904 8.306749327896933 L 0.8917052064109185 8.29809868683822 L 0.8964260197592937 8.289284337405771 L 0.9005962752339663 8.280197923128846 L 0.904024179736556 8.270806971338509 L 0.9074996026615993 8.261430958391644 L 0.9110911612166239 8.252097995766306 L 0.9145368396489113 8.242709326761723 L 0.9176052490055672 8.233191761911458 L 0.9197546821236439 8.223435061878737 L 0.9183438020024103 8.213687656586496 L 0.913441418148416 8.204987190558176 L 0.9073125737774435 8.197094276640229 L 0.9024176170153168 8.192228407009257 " id="ID_331"/>
   </g>
   <g id="ID_0" color="rgb(0,0,0)" stroke="currentColor" fill="none" stroke-width="0.0001074482389119885"/>
  </g>
 </svg>