<?xml version="1.0" encoding="UTF-8" ?>
 <svg viewBox="0.0045342707523961 -2.192728122048297  0.4623833255777808 0.343332047557396" xmlns="http://www.w3.org/2000/svg" version="1.0" overflow="visible">
  <defs>
   <g id="ID__#42_Model_Space"/>
   <g id="ID__#42_Paper_Space0"/>
   <g id="ID__#42_Paper_Space"/>
  </defs>
  <g id="draft" transform="matrix(1 0 0 -1 0 0)" stroke-width="1.074482389119885E-4">
   <g id="Layer_#32_1" color="rgb(255,0,255)" stroke="currentColor" fill="none" stroke-width="0.0001074482389119885"/>
   <g id="Poliline" color="rgb(0,0,0)" stroke="currentColor" fill="none" stroke-width="0.0001074482389119885">
    <path d="M 0.0235835908979434 1.849396074490901 L 0.019660333073376 1.853154967247716 L 0.0156160142149595 1.862208421238491 L 0.0145129223698026 1.8721339810238 L 0.0142926657615075 1.882131439073146 L 0.0136851779480907 1.892109785838206 L 0.012332105195517 1.90201680826915 L 0.0106354971581055 1.911871916498153 L 0.0088029920266894 1.921702797268233 L 0.0070155943264174 1.931541706873588 L 0.0054834415016778 1.941423060481888 L 0.0045342707523961 1.95137510902375 L 0.0068308679578157 1.960833963287329 L 0.0097980895736649 1.970377360949965 L 0.0122975537348396 1.980059611234789 L 0.0154281424777123 1.989551112738324 L 0.0201960496601821 1.998313977610941 L 0.0272970176919527 2.005281210245295 L 0.0360450891536486 2.010102286541783 L 0.0452126407615188 2.014096002137506 L 0.0541054021703031 2.018650842922919 L 0.062414916066821 2.024208928260767 L 0.0703853977178239 2.030247311488551 L 0.0783439501839078 2.036301683491231 L 0.0868000678354664 2.041617908349117 L 0.0958166255728781 2.045942409116552 L 0.1048282172488744 2.050277280604449 L 0.1138464249392763 2.054597964662246 L 0.1228825777665827 2.058879458559415 L 0.1319488605402661 2.063099451575608 L 0.1410530176496225 2.067235758342066 L 0.1502035942974267 2.07126872025409 L 0.1594066854434599 2.075179661475576 L 0.1686677442562949 2.078951667551805 L 0.1779903420320448 2.082569034385034 L 0.1873704504595546 2.086034681501335 L 0.1966937611099748 2.089649168434187 L 0.2058804349132473 2.093597743687166 L 0.2148949675098413 2.09792483247779 L 0.2237339197315631 2.102600311624646 L 0.2324230455369109 2.107549262832286 L 0.2409983811489678 2.112693213859232 L 0.2495423179029474 2.117889275323832 L 0.2581757859261859 2.122935306784354 L 0.2668889203950844 2.127842682223896 L 0.2756682550145255 2.132630644456332 L 0.2845016627606522 2.137318113059292 L 0.2933780180355043 2.141923735574373 L 0.3022869520025511 2.146466012854128 L 0.3112186039981539 2.150963441098463 L 0.3201633852853636 2.155434680505017 L 0.3291117370370316 2.159898744836809 L 0.3380538742663184 2.164375213815681 L 0.346979425928378 2.168884430888248 L 0.3558774626398575 2.173447946112071 L 0.364735512223846 2.178088506489272 L 0.3735395623473989 2.182830618368031 L 0.3822733424390225 2.187700833071172 L 0.3909175927203705 2.192728122048297 L 0.4005158564394469 2.189929035916833 L 0.4098971520928228 2.186472130540769 L 0.4189997337778948 2.182337322740808 L 0.427743665130528 2.177491281522424 L 0.436025152520422 2.171892607042138 L 0.4437097828694388 2.165500836276128 L 0.4506301588356028 2.158290352608883 L 0.4565920254588152 2.15027100657498 L 0.4613968658487888 2.141510796275124 L 0.4648825170706577 2.132147905247402 L 0.4669175963301769 2.122728118723475 " id="ID_8C5"/>
   </g>
   <g id="ID_0" color="rgb(0,0,0)" stroke="currentColor" fill="none" stroke-width="0.0001074482389119885"/>
  </g>
 </svg>