<?xml version="1.0" encoding="UTF-8" ?>
 <svg viewBox="0.0609175770462116 0.0927280223036498   1.692163425182172 4.4598678290"  xmlns="http://www.w3.org/2000/svg" version="1.0" overflow="visible">
 

  <g id="draft" transform="matrix(1 0 0 -1 0 0)" stroke-width="1.0E-4">
   <g id="Layer_#GS90" color="rgb(255,0,0)" stroke="currentColor" fill="none" stroke-width="1.0E-4"/>
   <g id="Poliline" color="rgb(0,0,0)" stroke="currentColor" fill="none" stroke-width="0.0001074482389119885">
    <path d="M 0.0609175770462116 0.0927280223036498 L 0.0709072934642627 0.0927209964750926 L 0.0808040425855694 0.0941091835834307 L 0.0904979031979734 0.0965499998508648 L 0.099971280009096 0.09974682190553 L 0.1092556415336316 0.1034597629172698 L 0.1184078799041686 0.1074889099049994 L 0.1275020203367863 0.1116482338649956 L 0.1281167989880032 0.1119291950906565 " id="ID_9E5"/>
    <path d="M -0.2075824357068541 0.3972280367666236 L -0.2019834293432554 0.3889484386520454 L -0.1972420647095605 0.38014790953107 L -0.1932244183219174 0.3709928076914952 L -0.1897533760204659 0.3616154878188826 L -0.1866348944873115 0.3521145131100098 L -0.1836703614845492 0.3425640800060368 L -0.1806593816198552 0.3330286903909414 L -0.1773970486773324 0.3235760285176443 L -0.1770824342581818 0.3227280332280635 L -0.170035364319375 0.2972129149905438 L -0.1657684223443105 0.2881751453915253 L -0.1606465111626791 0.2795893778248004 L -0.1550166831177711 0.2713256471315546 L -0.1491826980488549 0.263203870057005 L -0.143424266240328 0.2550292791446758 L -0.138028105573242 0.2466115092566863 L -0.133318194690899 0.2377947939353948 L -0.1296523032616195 0.228499069356495 L -0.1273626923870204 0.2187756481433194 L -0.1256474915709873 0.2025323249277342 L -0.1202972309271999 0.1919476766084891 L -0.1157521270910253 0.1830405540101747 L -0.1114064332386491 0.174034363139711 L -0.1072167131177792 0.1649544886802694 L -0.1031376089028653 0.15582433365749 L -0.0991224680038094 0.1466658407471293 L -0.0951238117684268 0.1375001345606179 L -0.091093709719698 0.128348234947353 L -0.0869841350466505 0.1192318004657089 L -0.0827473828726584 0.1101738622367065 L -0.0810824296984265 0.1067280229686141 L -0.0791552014832693 0.0900060713508051 L -0.0774267894749139 0.0802774551031096 L -0.0716478864126202 0.072163958176418 L -0.064764624390584 0.0649106813296978 L -0.0590824286534826 0.0567280205937415 L -0.0576479492879543 0.0468682082922261 L -0.0540238187225084 0.0375609831591923 L -0.0491788645953379 0.0288182465614995 L -0.0435892680156487 0.0205286451239157 L -0.037505264778126 0.0125932361701686 L -0.0310728498495232 0.0049365404313466 L -0.0243871770440247 -0.0024999771364804 L -0.0175186712067426 -0.0097678273940254 L -0.0105525512977538 -0.0169423977662646 L -0.0034559139039976 -0.0239871847226425 L 0.0039569838833229 -0.0306966196537797 L 0.0119226855617685 -0.0367330489058837 L 0.0207055028166927 -0.0414803251785116 L 0.0303798539065641 -0.0438350948856723 L 0.0403661430011528 -0.0436626499667607 L 0.0502728452198804 -0.0423170786684661 L 0.0600990788959255 -0.0404631111844314 L 0.0698969749542053 -0.0384622072690704 L 0.0795340903031345 -0.0358185562461539 L 0.0887946839451379 -0.0320574705415648 L 0.0976414560682271 -0.0274025505236164 L 0.1060631193503658 -0.0220152115196264 L 0.1140555164404082 -0.0160083147572028 L 0.1216103489293321 -0.0094587977357428 L 0.1287082005836337 -0.0024163536913626 L 0.1353112046947791 0.0050907811040162 L 0.1413547037161047 0.0130554682247848 L 0.1467252310066867 0.0214870321945409 L 0.1512220049144819 0.0304128651663085 L 0.1545209315375642 0.0398451796804 L 0.1566417552695425 0.0496123706095784 L 0.1577258369962164 0.0595495738124186 L 0.1578787626702303 0.069545096843088 L 0.156928681205593 0.0794915845511959 L 0.1555704444325743 0.089388828483834 L 0.1572252752987797 0.0991985701646598 L 0.1601138753210778 0.1087646100978734 L 0.1611166477663923 0.1186838173611502 L 0.1609175817959567 0.1207280236335784 L 0.1672909327978171 0.1283497770648356 L 0.1678503253995807 0.1382353574182691 L 0.1655877483780728 0.1479655322205993 L 0.1622705252981422 0.1573968207736271 L 0.1584203174982912 0.1666251312349658 L 0.1542625759258938 0.1757195090062282 L 0.1499221315899719 0.1847283597290037 L 0.1454819010687185 0.1936911205520104 L 0.1410120159126462 0.2026369281010432 L 0.1365796215067174 0.2116017334506282 L 0.1322704173453904 0.2206255320972321 L 0.1281752117403698 0.2297476532676406 L 0.1239181745735465 0.2387957940291301 L 0.1202801102779718 0.2481043819745459 L 0.1129175795160791 0.2667280305682063 " id="ID_9E6"/>
    <path d="M 0.0864175782573966 0.1217280236810758 L 0.0961001006006619 0.1192574086737999 L 0.1059601505076291 0.1175935797527128 L 0.1158025138268792 0.1158325334833528 L 0.1254020301900605 0.1130661425787753 L 0.1281167989880032 0.1119291950906565 L 0.1319730396657315 0.1128519473917287 L 0.1416651470085748 0.1153138307454871 L 0.1513119777064249 0.1179475944597232 L 0.1609175817959567 0.1207280236335784 " id="ID_9E7"/>
    <path d="M -0.0590824286534826 0.0567280205937415 L -0.0491982220621914 0.0552789200466037 L -0.0392081926794532 0.055367193316215 L -0.0293284136292131 0.0568662932095343 L -0.0196906016227025 0.0595159995278216 L -0.0103258594063132 0.0630162992480088 L -0.0011938993993947 0.0670887634778339 L 0.0077834317705614 0.0714932966353708 L 0.0167001765679258 0.0760198096544773 L 0.025654507766915 0.0804711780234691 L 0.0347410509053772 0.084644607608114 L 0.044041082310474 0.0883145722727896 L 0.0536048327001328 0.0912224785284046 L 0.0609175770462116 0.0927280223036498 L 0.0673609085998477 0.1003442227918736 L 0.0747914089517643 0.1070353546953484 L 0.0818062683347583 0.1141476142949056 L 0.0864175782573966 0.1217280236810758 L 0.0852353847103107 0.1315780174147836 L 0.0794320101775501 0.1395875153698647 L 0.0710831818323659 0.1450569111715865 L 0.0622409000965503 0.1497262164742406 L 0.0538319974272694 0.1551176074736098 L 0.0466862594484887 0.1620887282065482 L 0.0404431845755218 0.1698969059064215 L 0.034724726917494 0.1780988175957301 L 0.0296690256806223 0.1867137965455026 L 0.0269096890353824 0.196253562609364 L 0.0210272187250196 0.2043090179607052 L 0.0139957973832612 0.2114175680440304 L 0.0079175745288458 0.2177280282408311 " id="ID_9E8"/>
    <path d="M -0.0458832092765533 0.5319292150395861 L -0.0474688748458982 0.522420784020337 L -0.0485824281547593 0.5197280425850614 " id="ID_9E9"/>
    <path d="M -0.0480824281310106 0.549728044009985 L -0.0534746269173052 0.5580966954868689 L -0.0571078964368939 0.5674090885196179 L -0.0605152096247919 0.576810090193705 L -0.0647591729786408 0.585855272559483 L -0.0706306424520467 0.5939207137803653 L -0.0784289616363214 0.6001133181360565 L -0.0859255296020205 0.6066603559307087 L -0.0926532517971763 0.6140592893389787 L -0.0995988602343721 0.6212501969836471 L -0.1073730895473401 0.62751656089495 L -0.1160476117939959 0.6324764796962388 L -0.1236106953146381 0.6389844252499142 L -0.1298418320700536 0.646796948643523 L -0.1357969225181943 0.6548273104503064 L -0.1427078353222644 0.6620372194845956 L -0.1503726896042448 0.6684474272574122 L -0.1569355834015802 0.6759832571304419 L -0.1632080567056846 0.6837682572582225 L -0.1707335135356773 0.6902926028854282 L -0.1801185261433051 0.693532066100163 L -0.1820824344956682 0.693728050849618 " id="ID_9EA"/>
    <path d="M -0.0365824275847899 0.511728042205082 L -0.0417501281995234 0.5125831071513716 L -0.0485824281547593 0.5197280425850614 L -0.0569279330124868 0.5252294674865344 L -0.0647946345432287 0.5314004909826835 L -0.0723821218730452 0.5379139018663431 L -0.0799190905780529 0.5444861343081869 L -0.0876388611498955 0.5508411568050829 L -0.0957603374258298 0.5566703740938906 L -0.0990824305533806 0.558728044437462 L -0.1087422704171388 0.5621997158180144 L -0.127171398096749 0.5627749944044674 L -0.1513595896221034 0.5564467191257059 L -0.1646055598405667 0.5506937224333975 " id="ID_9EB"/>
   </g>
   <g id="ID_0" color="rgb(0,0,0)" stroke="currentColor" fill="none" stroke-width="0.0001074482389119885"/>
  </g>
  
  
  
  <g id="draft" transform="matrix(1 0 0 -1 0 0)" stroke-width="5.039721436807565E-5">
  <g id="Layer_#A40" color="rgb(0,255,0)" stroke="currentColor" fill="none" stroke-width="1.0E-4"/>
  <g id="Poliline" color="rgb(0,0,0)" stroke="currentColor" fill="none" stroke-width="0.00005039721436807565">
    <path d="M 1.587917649574819 4.421728227920116 L 1.596974425052128 4.417549467255437 L 1.606756932473599 4.415575975779475 L 1.616734375695151 4.415782949918925 L 1.626391481803525 4.418280094613193 L 1.635033403070453 4.423240997446235 L 1.641729598045803 4.430607015469769 L 1.644249683500447 4.43539619731931 " id="ID_5B9"/>
    <path d="M 1.680917653992082 4.421396196654345 L 1.690122018837319 4.424506563565088 L 1.694917654657047 4.428728228252598 " id="ID_5BA"/>
    <path d="M 1.539917647294942 4.427728228205101 L 1.542631970313873 4.423026872014155 L 1.54853469342209 4.414964637657163 L 1.555509524049055 4.407810825009363 L 1.563399260226198 4.401679303675297 L 1.572024294697421 4.396632253715958 L 1.581207246624319 4.392688702295744 L 1.590787434410294 4.389840231919299 L 1.600623970861057 4.388066538086787 L 1.610593447514826 4.387346356239801 L 1.620583950444685 4.387664196081107 L 1.630487964096801 4.389013382616244 L 1.639264861304422 4.393804132771384 L 1.648149194462885 4.398394183322881 L 1.656962413355529 4.403118356681932 L 1.665508293583539 4.408307099756209 L 1.673535811587314 4.414261383684534 L 1.680733545669585 4.421189955775183 L 1.680917653992082 4.421396196654345 L 1.683917654134575 4.430728228347593 " id="ID_5BB"/>
    <path d="M 1.630487964096801 4.389013382616244 L 1.622440578839187 4.383081972038056 L 1.61396090787587 4.377785386919676 L 1.605153075117329 4.373053299064261 L 1.596093639178481 4.368822017648763 L 1.586838729843373 4.365036455567187 L 1.577430068679614 4.361650398568244 L 1.567898886617352 4.35862576144885 L 1.558268851414739 4.355931821539506 L 1.54855809191052 4.353544621758555 L 1.538779350638575 4.351454375965364 L 1.528925890705766 4.349753777296781 L 1.519006458452536 4.348493044406037 L 1.509039573388879 4.347694389574771 L 1.499045869231307 4.347375755045154 L 1.489048736612015 4.347549652224264 L 1.479072839204603 4.348222011339416 L 1.469143023145164 4.349391488893941 L 1.459283018370991 4.351049282548567 L 1.449513853815444 4.353179591695207 L 1.439852195653463 4.355760771728862 L 1.4303158110311 4.358764730971422 L 1.420911670224746 4.362161618549398 L 1.411645122021868 4.365918826139438 L 1.402517608757959 4.370002896146322 L 1.393527269048816 4.374380522597943 L 1.384668872903104 4.379019683231037 L 1.375935224638269 4.383889820606084 L 1.367317449979834 4.388962291293898 L 1.358805437728705 4.394210557682065 L 1.350385251534349 4.399605404812517 L 1.341986179153034 4.405033006494484 L 1.333596474288555 4.410474918183171 L 1.325229052858783 4.415950892613974 L 1.316892907851215 4.421474246018254 L 1.30859505845645 4.427054698826839 L 1.300341210544317 4.432700004977741 L 1.292136452431613 4.43841662973778 L 1.283985260203762 4.444210436738186 L 1.275893046571389 4.450086014133798 L 1.26786539922171 4.456047456059371 L 1.259905402438322 4.462100610447203 L 1.252019031429608 4.468249224328706 L 1.244211487926244 4.474497597262963 L 1.236428665822154 4.48077678551213 L 1.228639775192412 4.487048553015704 L 1.220868225171437 4.493341742265927 L 1.213134971914794 4.499682094278593 L 1.205461652919506 4.506094950921285 L 1.197873147993318 4.512607691635107 L 1.19040025259532 4.519252814587643 L 1.183084157634303 4.526071986719642 L 1.175989505674039 4.533117561550454 L 1.169213772765311 4.54047045014826 L 1.162935483786132 4.548252704292032 L 1.15753149109255 4.556657686554617 L 1.153933718211824 4.56595439981686 L 1.152589843331308 4.575849324394187 L 1.15272864855831 4.585842901708428 L 1.15381031869197 4.595781992651527 L 1.155426832766525 4.605650109495252 L 1.157185769564666 4.615494587682219 L 1.159116437781675 4.625302318859292 L 1.162021880408436 4.634867411463801 L 1.165564339024377 4.644217788980629 L 1.169339904117947 4.65347750263098 L 1.172674413431401 4.66290057480559 L 1.175757125719704 4.672411456090706 L 1.18069086657691 4.681069670287579 L 1.187261311364683 4.688592760503091 L 1.194924721890282 4.695003031764931 L 1.203368797800355 4.700348804081153 L 1.212338237365623 4.704761730093986 L 1.221651822424072 4.708396681097493 L 1.231189008611844 4.711399628589635 L 1.240871435018125 4.713897285403794 L 1.250648173856723 4.715997165587669 L 1.260485794602376 4.717791430041033 L 1.270361757141123 4.719361685482398 L 1.280260148658101 4.720784053867214 L 1.290168489579378 4.722134677090426 L 1.300075398251948 4.723496651538871 L 1.309966137328901 4.724970023675947 L 1.319824568163372 4.726644315249494 L 1.329672870387258 4.728375072055301 L 1.339521329487665 4.730109078517267 L 1.349374210323355 4.731818494337383 L 1.359236047823797 4.733474512881366 L 1.369111351260636 4.735048202071286 L 1.379003726606613 4.73651131985048 L 1.388915272557644 4.73783720245127 L 1.398847062797391 4.739001735972884 L 1.408798530982398 4.739984016603738 L 1.418767585328748 4.74076691318678 L 1.428751039512545 4.741337398599696 L 1.438744664027784 4.741686589491408 L 1.448743613283119 4.741809586307617 L 1.458742472830328 4.741687661595506 L 1.468733923988158 4.741284415462221 L 1.478710026873694 4.740599635021416 L 1.488662817164324 4.739633544051017 L 1.498584195446362 4.738385585881639 L 1.508465825880944 4.73685448273739 L 1.518299038673569 4.735038294309516 L 1.528074736115464 4.732934477649104 L 1.537783299744912 4.730539951081306 L 1.547414500154769 4.727851164439632 L 1.55695740897401 4.72486417853004 L 1.566400314467961 4.721574756695842 L 1.575730641706651 4.7179784719155 L 1.584934887904284 4.714070829314177 L 1.59399855478993 4.709847415760135 L 1.60290611610983 4.705304065937079 L 1.611641005391313 4.700437053370315 L 1.620185625212211 4.695243311343837 L 1.628521408514463 4.689720670086447 L 1.636628923324216 4.68386811398261 L 1.644488034935309 4.677686047879008 L 1.652078131777244 4.671176560506594 L 1.659378411399726 4.664343675624207 L 1.666368241323896 4.657193558192798 L 1.673027563349471 4.649734675883026 L 1.679337344288694 4.641977881064374 L 1.685280043412147 4.633936403130665 L 1.690840070067531 4.625625739454964 L 1.696004259567448 4.617063339370192 L 1.700761954080309 4.608268752195696 L 1.705105703844181 4.599262472689032 L 1.709031052185458 4.59006607354769 L 1.712536651737009 4.580701576152497 L 1.715624160586461 4.571190989282815 L 1.716917655701991 4.566728234807245 " id="ID_5BC"/>
    <path d="M 1.694917654657047 4.428728228252598 L 1.694636259700796 4.430040448816793 L 1.693017534406524 4.439905326550283 L 1.692213576529838 4.449870168345842 L 1.692163425182172 4.459867829028439 L 1.692786638822584 4.46984671977578 L 1.693992869888996 4.479772505486943 L 1.695689453025519 4.489626722963798 L 1.69778616576901 4.499403929827577 L 1.700197416748811 4.509108579510007 L 1.702842532746052 4.518752268661792 L 1.705644771230688 4.528351483131375 L 1.708529690519156 4.537926369725756 L 1.711422669530137 4.547498793462134 L 1.714246380620064 4.557091801820806 L 1.71691765570199 4.566728234807246 L 1.726148104041235 4.56288130706965 L 1.73525695320338 4.558758330197518 L 1.743947699114571 4.553824423210134 L 1.751707757283025 4.547545218495601 L 1.757673336864478 4.539562888427552 L 1.758682239392834 4.530126784222757 L 1.756495654866954 4.520368781881252 L 1.754376643654937 4.510595853127728 L 1.752314903243689 4.500810637028818 L 1.750300337154263 4.491015759343051 L 1.748322867116788 4.481213208469796 L 1.746372554226311 4.471405216410838 L 1.744439457291595 4.461593881090145 L 1.742513545898452 4.45178104465182 L 1.740584735162307 4.441968810048964 L 1.735419884034735 4.435062975664957 L 1.72559390027466 4.433246400275985 L 1.715643343214106 4.432258863782793 L 1.705703977929248 4.431171830070942 L 1.695940585246897 4.429056061609754  z" id="ID_5BD"/>
   </g>
   <g id="ID_0" color="rgb(0,0,0)" stroke="currentColor" fill="none" stroke-width="0.00005039721436807565"/>
  </g>
 </svg>