<?xml version="1.0" encoding="UTF-8" ?>
 <svg viewBox="0.0167380294149764 -9.25166135701056  0.38939901874769245 0.24613510352227053" xmlns="http://www.w3.org/2000/svg" version="1.0" overflow="visible">
  <defs>
   <g id="ID__#42_Model_Space"/>
   <g id="ID__#42_Paper_Space0"/>
   <g id="ID__#42_Paper_Space"/>
  </defs>
  <g id="draft" transform="matrix(1 0 0 -1 0 0)" stroke-width="5.039721436807565E-5">
   <g id="Poliline" color="rgb(0,0,0)" stroke="currentColor" fill="none" stroke-width="0.00005039721436807565">
    <path d="M 0.1559175815584695 9.067728448593275 L 0.1653439707680739 9.06685302510764 L 0.1748267229144496 9.063684386615678 L 0.1841170310718549 9.059985344438198 L 0.1932845414803852 9.055990164425664 L 0.20238202927787 9.051838422481376 L 0.2114546821396921 9.047632920964253 L 0.2205466092377106 9.043468995078998 L 0.2297080544474559 9.039461162071863 L 0.2390484558273753 9.03589385707471 L 0.2485583351414924 9.0328041525134 L 0.2581666013553043 9.030033664220497 L 0.2678182074546971 9.027417217889592 L 0.2774671975293774 9.024791167593676 L 0.2870691199495967 9.021998458069895 L 0.2965741113194262 9.018893196056762 L 0.305966398324248 9.01546109497161 L 0.3154687426320351 9.012348951012559 L 0.3251136052189674 9.009712369491432 L 0.3348903940741792 9.007619232715665 L 0.3447829129046402 9.006173075701515 L 0.3547584331782829 9.00552625348829 L 0.3647456898588954 9.005899699945953 L 0.3745893629945245 9.007603233794253 L 0.3839679312772883 9.011022857729701 L 0.3923149446531076 9.0164812917323 L 0.3989463313889674 9.023926111721241 L 0.4035450750744643 9.032782140415122 L 0.4061235931199781 9.042417186008183 L 0.4061370481626688 9.052384987348901 L 0.4035907430531731 9.062030525295206 L 0.3991561865776667 9.070980618354488 L 0.3935784213070557 9.07927550267749 L 0.3873864068775683 9.087126481250584 L 0.3809308634042878 9.09476358962364 L 0.3744736215419877 9.102399353608455 L 0.3682556244140711 9.110229968590225 L 0.3625481647942639 9.118437805889382 L 0.3576946575818729 9.127173983397345 L 0.3541223145051244 9.136502421103847 L 0.3539175909629648 9.137228451894348 " id="ID_2B4"/>
    <path d="M 0.1434175809647513 9.073228448854511 L 0.1368508855769361 9.080756864328327 L 0.1292972034033939 9.087300052300552 L 0.1210796659339888 9.092992027775537 L 0.1124348637264179 9.098014976785805 L 0.1035254633726126 9.102554631896991 L 0.0944659608018688 9.106788162807053 L 0.0853457553908612 9.110889932246794 L 0.0762506586901832 9.115046963658871 L 0.0672898373903115 9.119484429996955 L 0.0586458480881218 9.124506312029684 L 0.0507153259175857 9.130577562913412 L 0.0437800742089749 9.13777441624195 L 0.0374275122770813 9.145496247369033 L 0.0312368325345842 9.153349677381417 L 0.0248297575444561 9.161026175068631 L 0.0178347800371128 9.1681655927023 L 0.0167380294149764 9.17738119778755 L 0.0178447630459919 9.18731968424927 L 0.0185761868103001 9.197290378573001 L 0.0182760407084368 9.20727942469603 L 0.0172961838225927 9.21722651714374 L 0.0184097825722729 9.22712661930409 L 0.0221680944745471 9.236372746800853 L 0.027127358072895 9.245052666514999 L 0.0347630189190573 9.250089199191049 L 0.0446874681238869 9.251291768254278 L 0.0546772893756469 9.25166135701056 L 0.0646655264409652 9.251240857335134 L 0.0746035840691946 9.25013502297957 L 0.0844672755766922 9.248495976059079 L 0.0942653351104559 9.24649946124652 L 0.1040256353754909 9.244324815566843 L 0.113786794182178 9.242140647371587 L 0.1235769533263262 9.240099384415934 L 0.1334213763734056 9.238329326155132 L 0.1433036326348374 9.236837742718325 L 0.1531934929430943 9.235357752379853 L 0.1630587505355692 9.233724728952588 L 0.1726996698361276 9.231225112228946 L 0.1823515940363833 9.228725050660742 L 0.1920615486784998 9.226344200705476 L 0.201679020919026 9.22360949545591 L 0.2111994680064511 9.220544247269208 L 0.2206178601588125 9.217185014935774 L 0.2299424024778407 9.213575454077398 L 0.2391878888861711 9.209765107681628 L 0.2483712317665772 9.205807580312463 L 0.2575134286016185 9.201755944125601 L 0.2666361348596151 9.19766071219408 L 0.2757599978701819 9.193567917910375 L 0.2849027924271601 9.189518187075294 L 0.2940793576503848 9.185545848883633 L 0.3033011797549463 9.181678921645492 L 0.3089175888255804 9.179395446084673 " id="ID_2B5"/>
   </g>
   <g id="ID_0" color="rgb(0,0,0)" stroke="currentColor" fill="none" stroke-width="0.00005039721436807565"/>
  </g>
 </svg>