<?xml version="1.0" encoding="UTF-8" ?>
 <svg viewBox="-1.27965761976522 -8.669051413905136  0.2915079117770206 0.3041517036702803" xmlns="http://www.w3.org/2000/svg" version="1.0" overflow="visible">
  <defs>
   <g id="ID__#42_Model_Space"/>
   <g id="ID__#42_Paper_Space0"/>
   <g id="ID__#42_Paper_Space"/>
  </defs>
  <g id="draft" transform="matrix(1 0 0 -1 0 0)" stroke-width="1.074482389119885E-4">
   <g id="Poliline" color="rgb(0,0,0)" stroke="currentColor" fill="none" stroke-width="0.0001074482389119885">
    <path d="M -1.115991658541474 8.376001853238026 L -1.106060992689753 8.375266641903798 L -1.096142791081918 8.376498408339643 L -1.086355184397713 8.378543727903107 L -1.076655412610095 8.380974925291463 L -1.066972024036779 8.383472021614168 L -1.057319358525727 8.38608456875261 L -1.047789950034074 8.389111634769776 L -1.038538495135463 8.392895470078463 L -1.029951934928059 8.397997494536252 L -1.022009138322132 8.40406967864665 L -1.014321150908386 8.41046467830361 L -1.006541511802297 8.416744159114671 L -0.9989103386805862 8.42320023247795 L -0.9926689120752606 8.430965656128958 L -0.9893094240094918 8.440340258801614 L -0.9881497079881995 8.450263274733622 L -0.9883626538683483 8.460255005000638 L -0.9894963645160972 8.470188747118833 L -0.9911265937740737 8.480054382965456 L -0.9929643301631889 8.489884566917258 L -0.9947875376525452 8.499716941776505 L -0.9964000629567211 8.509585544681926 L -0.9976039526924909 8.5195117467392 L -0.9967791111707562 8.528938178973515 L -0.9978384935109305 8.538879951154973 L -0.9993561363758818 8.548763830293085 L -1.00078706977751 8.55866013737375 L -1.001814665853098 8.56860664566324 L -1.00251964175987 8.57858147234041 L -1.002995133390055 8.588570055912811 L -1.003343549919001 8.598563931276551 L -1.003679177912728 8.60855833777314 L -1.004132813859168 8.618547909102691 L -1.004858370899777 8.628521013736412 L -1.006040444603232 8.638449563582833 L -1.006082473633568 8.638728428216869 L -1.004761776137952 8.646458633721997 L -1.004795370419969 8.656456955966476 L -1.006702827554591 8.665807887669496 L -1.016082474108543 8.663728429404305 L -1.023446613675353 8.660223042039924 L -1.033246490430597 8.658232958216203 L -1.043183086092472 8.657211320456177 L -1.053118641868637 8.658142588126523 L -1.062656976501653 8.66109913622465 L -1.071795578795369 8.66515756681843 L -1.081179115972632 8.668569784367126 L -1.091106524049066 8.669051413905136 L -1.10067297689183 8.666257464157082 L -1.10928966465658 8.661214876772778 L -1.117088510322059 8.654963074594058 L -1.124468150572235 8.6482158219255 L -1.131780808886539 8.641395044529428 L -1.139281344849412 8.634782488849702 L -1.147168158254546 8.628639658444389 L -1.155549832341396 8.623187918310752 L -1.164029857268126 8.617888286478069 L -1.172202980122431 8.612132537213943 L -1.179583352373593 8.605398579941976 L -1.186206983767952 8.597908722729247 L -1.192597500477557 8.590215513365214 L -1.199148704002724 8.58266032692016 L -1.206155364248386 8.57552943694509 L -1.213829387368305 8.569127393943258 L -1.222422441941732 8.564033070959159 L -1.231400380698811 8.559628823209723 L -1.240427945472994 8.555329709127687 L -1.249372837396282 8.550857122763375 L -1.258098777141439 8.545974970571026 L -1.26638446221966 8.540384074108289 L -1.273732495414936 8.533625601731249 L -1.278834064564848 8.525099056295957 L -1.27965761976522 8.51521197965597 L -1.278462062217104 8.505284326774063 L -1.278100345728044 8.495295041486987 L -1.278156062318834 8.485295181233415 L -1.278281903817264 8.475295939487212 L -1.278431462044598 8.465296614822346 L -1.278510011264151 8.455296543819355 L -1.278374846172303 8.445297514946118 L -1.277878082715228 8.435310570628248 L -1.276813996055531 8.425369429621114 L -1.274830066133797 8.41557437632428 L -1.271289817373757 8.406241279741433 L -1.265747286144494 8.397949608058102 L -1.258390945485127 8.3912043937211 L -1.250084010107257 8.385642768256893 L -1.241720805011166 8.380163489915233 L -1.234082484462987 8.373728415630042 L -1.231919835324987 8.37156794551446 L -1.22631355489355 8.369504715118683 L -1.219822217971042 8.367441484722907 L -1.212082483418043 8.365728415250064 L -1.202108727104745 8.365026000600736 L -1.192110775821193 8.364899710234855 L -1.182119198342368 8.365285435277663 L -1.172154398421673 8.366114911648134 L -1.162227667597555 8.367318872320023 L -1.152342686806708 8.368828936757296 L -1.142497097653845 8.370578393541518 L -1.132683938590229 8.37250211759964 L -1.122892879741334 8.374535845203154  z" id="ID_360"/>
    <path d="M -1.115991658541474 8.376001853238026 L -1.10858888168116 8.382710743940844 L -1.100348660991568 8.38836606054187 L -1.091597794313208 8.393200814873794 L -1.082593150660369 8.397548892308494 L -1.073532250498773 8.401779566296025 L -1.064602397021472 8.406276619698822 L -1.056037443344393 8.411431064624804 L -1.048172801411164 8.417592639399508 L -1.041423563078785 8.424952638783436 L -1.036134226415454 8.433421477858882 L -1.032406658317103 8.442686309985064 L -1.030762648833532 8.452539322745517 L -1.03006094307198 8.462513192791064 L -1.029958435169803 8.472511377700403 L -1.030495112944715 8.48249535000605 L -1.031503777259004 8.492443627869031 L -1.032739515591595 8.502366991782843 L -1.033970977989523 8.512291118993591 L -1.034942722426983 8.522243266475131 L -1.035332280998076 8.532233281025729 L -1.03469294287085 8.542205794838964 L -1.032469234966098 8.551943803362235 L -1.029647567208967 8.561537141244798 L -1.027070336646981 8.571198497284044 L -1.025215951905425 8.581022827398256 L -1.023788915535021 8.59092026320689 L -1.022493056121968 8.600836082391526 L -1.021063035717905 8.610733422772581 L -1.019232971344543 8.620563682381576 L -1.016729617419849 8.630242270607457 L -1.014082474013549 8.637728428169371 L -1.012975848316028 8.64722499386669 L -1.006702827554591 8.665807887669496 L -1.006702827554591 8.665807887669496 " id="ID_361"/>
   </g>
   <g id="ID_0" color="rgb(0,0,0)" stroke="currentColor" fill="none" stroke-width="0.0001074482389119885"/>
  </g>
 </svg>