<?xml version="1.0" encoding="UTF-8" ?>
 <svg viewBox="-0.592745508821265 -7.897728393021257  0.12808088689360358 0.15192193324379932" xmlns="http://www.w3.org/2000/svg" version="1.0" overflow="visible">
  <defs>
   <g id="ID__#42_Model_Space"/>
   <g id="ID__#42_Paper_Space0"/>
   <g id="ID__#42_Paper_Space"/>
  </defs>
  <g id="draft" transform="matrix(1 0 0 -1 0 0)" stroke-width="1.074482389119885E-4">
   <g id="Poliline" color="rgb(0,0,0)" stroke="currentColor" fill="none" stroke-width="0.0001074482389119885">
    <path d="M -0.5660824527346904 7.897728393021257 L -0.5599272615029367 7.889935709715234 L -0.557121268169011 7.880383907066599 L -0.556622578746655 7.870405860826742 L -0.5568743982058751 7.860409343939705 L -0.556485286068833 7.850427379255028 L -0.5509100365895696 7.843811101897643 L -0.5409612188533403 7.844007800347422 L -0.5322049015726158 7.847395310664427 L -0.5251271395145949 7.854268233763209 L -0.5156974124212566 7.857490471469304 L -0.5059421444506152 7.859692249227066 L -0.4988970297873614 7.865598754456939 L -0.4949132337908547 7.874745865443828 L -0.4867531841587623 7.879841054678663 L -0.4771687912918861 7.877554300389506 L -0.4694455314652242 7.871266284896314 L -0.4646646219276614 7.863124381275566 L -0.4668815545488565 7.853376051035257 L -0.4692164249704307 7.843650375190688 L -0.4715879299151169 7.833935669542241 L -0.4739165571705817 7.824210379362789 L -0.4761214595604724 7.814456602624183 L -0.4781210876009574 7.804658411195328 L -0.4798329633761079 7.794806491194036 L -0.4811753549663554 7.784898437315574 L -0.4820697329652326 7.774938995466192 L -0.4846677220857885 7.766055467484561 L -0.4932659226973497 7.760981697026733 L -0.5025930662064475 7.757397878530342 L -0.512236564085824 7.754758082158452 L -0.5219538886519013 7.752395945350788 L -0.5315619655525216 7.749632847530522 L -0.5407908734914733 7.745806459777458 L -0.5496008441896993 7.750480314046003 L -0.5581205753968251 7.755711020934181 L -0.5662927176727158 7.761472572189103 L -0.5740223836290417 7.767812941883684 L -0.581169982431466 7.774801869367573 L -0.5875212245508088 7.782518535665423 L -0.5898773171234933 7.791671235139777 L -0.5878375538957901 7.801441390309395 L -0.5909403794561304 7.810772151923903 L -0.592745508821265 7.820562856599924 L -0.5919446283723416 7.830510261027064 L -0.5895653914818544 7.840220678766888 L -0.58629497424716 7.849667300050018 L -0.582554081794818 7.858941514928951 L -0.5786490394124542 7.868147500108823 L -0.5748752161891036 7.877407384448838 L -0.5716487984853212 7.886868790592473 L -0.5683308692171396 7.895906750774348  z" id="ID_43D"/>
   </g>
   <g id="ID_0" color="rgb(0,0,0)" stroke="currentColor" fill="none" stroke-width="0.0001074482389119885"/>
  </g>
 </svg>