<?xml version="1.0" encoding="UTF-8" ?>
 <svg viewBox="0.9598920674526025 -8.565443855155136  0.49193377878320355 0.36765213251270445" xmlns="http://www.w3.org/2000/svg" version="1.0" overflow="visible">
  <defs>
   <g id="ID__#42_Model_Space"/>
   <g id="ID__#42_Paper_Space0"/>
   <g id="ID__#42_Paper_Space"/>
  </defs>
  <g id="draft" transform="matrix(1 0 0 -1 0 0)" stroke-width="0.0001074482389119885">
   <g id="Poliline" color="rgb(0,0,0)" stroke="currentColor" fill="none" stroke-width="0.0001074482389119885">
    <path d="M 1.451825846235806 8.303455951354781 L 1.445728511293462 8.295570423697939 L 1.437958018922302 8.289297976037963 L 1.429471273636007 8.284012403900181 L 1.420927013425277 8.278818388543552 L 1.412706221103131 8.273127675671876 L 1.404541681583743 8.267353556325158 L 1.396305283819794 8.261682737937482 L 1.387894398947389 8.256274393051633 L 1.37934756167432 8.251083584383654 L 1.370655016788773 8.246140906709924 L 1.361795878714379 8.241503803453753 L 1.352756558653929 8.237229430792627 L 1.34353375499321 8.23336825092213 L 1.334135045965759 8.229956905790804 L 1.324579102069671 8.227013583578781 L 1.314891854096694 8.224536040590598 L 1.305101352860435 8.222503658271226 L 1.295246553681659 8.220806540964052 L 1.285378248393167 8.219188283556178 L 1.275500993522515 8.21762688772787 L 1.265615140450287 8.216118641670949 L 1.2557216213072 8.214661172763936 L 1.245819787984276 8.213252792067468 L 1.235912067448828 8.211892951237317 L 1.225997697489421 8.210581219986308 L 1.21607691353643 8.209317804172908 L 1.206149126347283 8.208103252335198 L 1.196217088517733 8.206938928818339 L 1.186279168496806 8.205826075014983 L 1.176335433996562 8.204766567309438 L 1.166386004948139 8.203762736424675 L 1.156430752178723 8.20281738126977 L 1.146469847214243 8.201933885822436 L 1.136503338811365 8.201116261233132 L 1.126531560496863 8.200369292785005 L 1.116558014387106 8.199698862733179 L 1.106575330856647 8.199111249527647 L 1.096585149150576 8.198614787028571 L 1.08659259689507 8.198219647798101 L 1.076596415187808 8.19793793802878 L 1.066597640610975 8.197791722642432 L 1.056599159984221 8.197938510834952 L 1.046607540961849 8.198341317068547 L 1.022917622738759 8.200728407412983 L 1.01936913635115 8.202174518413916 L 1.011030212419426 8.207637337051079 L 1.004256516736106 8.214968117797644 L 0.9988750967749062 8.223386330592978 L 0.994496770311481 8.232372957457946 L 0.9907605041512086 8.241647384926624 L 0.9873756572464049 8.25105678422288 L 0.9840987733934269 8.260504645055843 L 0.9808618760085402 8.269965923904522 L 0.9779169747275178 8.27952219800699 L 0.9752101102104813 8.28914865218714 L 0.972686606562326 8.298824988796483 L 0.9703028146853212 8.308536800833465 L 0.9680207859544891 8.318273137373836 L 0.9658039264563784 8.328024632473397 L 0.963617471438777 8.33778269452294 L 0.9619157068193437 8.347634451128659 L 0.9608494733832041 8.35757618749667 L 0.9602752810701353 8.36755890352319 L 0.9601106452835344 8.377557011414176 L 0.960134799960099 8.387556803229044 L 0.9600097141425232 8.397556102202053 L 0.9598920674526025 8.407555337571534 L 0.9603124845955024 8.41754333703259 L 0.9612945621610622 8.427494326305856 L 0.9626425631310926 8.43740258474826 L 0.9642751028638594 8.44726791786531 L 0.96611659887831 8.457096878387889 L 0.9680942343854902 8.466899934411904 L 0.9701342049901642 8.476689617659021 L 0.9721578094955596 8.486482707379785 L 0.9740747896578181 8.49629720145445 L 0.9757742548535563 8.506151339614537 L 0.9759176205063795 8.515728422374682 L 0.978394999402104 8.519160114110944 L 0.9809176207438667 8.528728422992147 L 0.9882045603409528 8.535569916792706 L 0.9961490765776455 8.541636731707282 L 1.004610077765795 8.54696127586749 L 1.013459567287927 8.551613772270759 L 1.022591300746732 8.55568596216334 L 1.031922488151954 8.559279153489786 L 1.04139005853056 8.562497111819887 L 1.050945524974602 8.565443855155136 " id="ID_31D"/>
   </g>
   <g id="ID_0" color="rgb(0,0,0)" stroke="currentColor" fill="none" stroke-width="0.0001074482389119885"/>
  </g>
 </svg>