<?xml version="1.0" encoding="UTF-8" ?>
 <svg viewBox="-0.0353110187903649 -2.309222509528018  0.3850350959140822 0.1894571337666653" xmlns="http://www.w3.org/2000/svg" version="1.0" overflow="visible">
  <defs>
   <g id="ID__#42_Model_Space"/>
   <g id="ID__#42_Paper_Space0"/>
   <g id="ID__#42_Paper_Space"/>
  </defs>
  <g id="draft" transform="matrix(1 0 0 -1 0 0)" stroke-width="1.074482389119885E-4">
   <g id="Layer_#32_1" color="rgb(255,0,255)" stroke="currentColor" fill="none" stroke-width="0.0001074482389119885"/>
   <g id="Poliline" color="rgb(0,0,0)" stroke="currentColor" fill="none" stroke-width="0.0001074482389119885">
    <path d="M 0.3455836061921218 2.270062110096464 L 0.3376223890709431 2.264021697039137 L 0.3302005873826639 2.257321041022301 L 0.3228397423552325 2.250552658713493 L 0.3150481578987714 2.244291989013097 L 0.3064196781705775 2.239268342560087 L 0.298917588350605 2.236728124138185 L 0.2867916656378213 2.234443910730139 L 0.2806590275563394 2.230232205261646 L 0.2749175872106662 2.22672812366321 L 0.2727289229306882 2.22439242333394 L 0.2652776733835616 2.217734110910756 L 0.2571058597307356 2.211978063393464 L 0.2484687632538094 2.206942331851557 L 0.2395720443351186 2.202377161071856 L 0.2305775651670228 2.198007074336983 L 0.2216283877068061 2.193545634886678 L 0.2128834019225847 2.188698771063112 L 0.2045522033476415 2.183175184988359 L 0.196917583505865 2.176728121288338 L 0.1848373594592942 2.17241719925396 L 0.172572083296302 2.168205493785468 L 0.1609175817959567 2.162728120623375 L 0.1607226778700621 2.162628487891868 L 0.1516062568909557 2.158527391880271 L 0.1422027818311546 2.155129800417167 L 0.1326680825845443 2.152115552490107 L 0.1231129707320466 2.149166515000901 L 0.1136202506092276 2.146023891674575 L 0.1042653603921639 2.142493744600583 L 0.095093293030951 2.138511172770465 L 0.0860340882335651 2.134276701257638 L 0.076984285176553 2.130022491859866 L 0.0678215254251411 2.126018790751864 L 0.0584189234017805 2.122623779074645 L 0.0486907076898016 2.120347992048417 L 0.0387215361025994 2.119765375761353 L 0.0287719966905966 2.120710076469611 L 0.01888773947974 2.122224372701545 L 0.0089175745763441 2.122728118723475 L 0.000375359974643 2.127926003690358 L -0.0078851170016314 2.133558970128436 L -0.0156765459431068 2.13982173075205 L -0.022713261142453 2.146916795352366 L -0.0285431447272817 2.155024225266043 L -0.0325292429494368 2.164169252837035 L -0.0340726550466162 2.174019277396705 L -0.0340824274660472 2.174728121193343 L -0.0353110187903649 2.182912819558527 L -0.0338225039702929 2.192779055657354 L -0.0303298777528083 2.202131155246604 L -0.0246608573091534 2.210316192745279 L -0.016341117291975 2.215797138736338 L -0.0072080411143709 2.219863078961912 L 0.0019579803017828 2.223856678524359 L 0.0105329714094369 2.228973770914878 L 0.0182129627723065 2.235366886491942 L 0.0250777767438786 2.242631746624157 L 0.0312682097197827 2.250482519219783 L 0.037049965607407 2.258641234104265 L 0.0427835251679838 2.26683409948208 L 0.0489175764762422 2.274728125943088 L 0.0583593618684093 2.278019151340952 L 0.0679793657256402 2.280742779865972 L 0.0777580975730574 2.282825579278075 L 0.0876249693561393 2.284450935704141 L 0.0974769961104238 2.286164398637582 L 0.1073146835707188 2.287961236193849 L 0.11714618085088 2.28978932417748 L 0.1269802549334686 2.29160434465022 L 0.1368244710589197 2.293362208444042 L 0.1466873917224802 2.295012701135503 L 0.1565905117634916 2.296392019516504 L 0.1665127357360481 2.297629607547751 L 0.1762235883649144 2.29995062338736 L 0.1848887472347682 2.304835239385539 L 0.1869175830308904 2.306728127463006 L 0.1967185658799462 2.304955915427193 L 0.2067126622151179 2.305080193506457 L 0.2166712940682007 2.305982498731887 L 0.2265954098447427 2.307220888985863 L 0.2365164747740511 2.308479255167787 L 0.2464841980295214 2.309222509528018 L 0.2564780397029382 2.308931057493333 L 0.2664405215382537 2.308069124765617 L 0.2763634459326507 2.306833247825403 L 0.2862489310307721 2.305318662131172 L 0.2960957478653743 2.303575547234014 L 0.3059040178378805 2.301625433412713 L 0.3156670214809338 2.299461589174278 L 0.325368820357788 2.297037644929211 L 0.3349432860224279 2.294162276226026 L 0.3439338026720007 2.289842346845855 L 0.3497240771237173 2.282032225610484 L 0.3471161493471184 2.272599043462939  z" id="ID_8AE"/>
    <path d="M -0.0340824274660463 2.174728121193343 L -0.0241136673033822 2.17395315819083 L -0.014128383816094 2.173410290836109 L -0.0041678499704112 2.172540677591273 L 0.0056692056369787 2.170776861800534 L 0.0151210135233226 2.167553747341811 L 0.0237289490036297 2.162529811572307 L 0.0332924028667687 2.165396780615319 L 0.0431948548374326 2.16674665454353 L 0.0531833685410312 2.167187482261191 L 0.0631830652758971 2.167154464502768 L 0.0731816294500112 2.166965749604283 L 0.0831808013562281 2.166882869592745 L 0.0931763604265825 2.167153385010122 L 0.1031346233459551 2.168040437181719 L 0.1129667541304125 2.169838259098558 L 0.1224760598694292 2.172897296857287 L 0.1315838339619448 2.177024644788858 L 0.1408858285094707 2.180672683639043 L 0.1507309730933715 2.182253664044996 L 0.1607280064181786 2.182127733892576 L 0.1707158115321459 2.182400416806711 L 0.1803463931864808 2.184932603041598 L 0.189707438611256 2.18840196057134 L 0.196917583505865 2.188728121858307 L 0.2033270634102848 2.189539924344419 L 0.2110049515917751 2.189407735360664 L 0.2128834019225847 2.188698771063112 " id="ID_8AF"/>
   </g>
   <g id="ID_0" color="rgb(0,0,0)" stroke="currentColor" fill="none" stroke-width="0.0001074482389119885"/>
  </g>
 </svg>