<?xml version="1.0" encoding="UTF-8" ?>
 <svg viewBox="1.512262004823648 -1.294228079371837  0.34977712819060613 0.19454030284261803" xmlns="http://www.w3.org/2000/svg" version="1.0" overflow="visible">
  <defs>
   <g id="ID__#42_Model_Space"/>
   <g id="ID__#42_Paper_Space0"/>
   <g id="ID__#42_Paper_Space"/>
  </defs>
  <g id="draft" transform="matrix(1 0 0 -1 0 0)" stroke-width="1.074482389119885E-4">
   <g id="Layer_#32_1" color="rgb(255,0,255)" stroke="currentColor" fill="none" stroke-width="0.0001074482389119885"/>
   <g id="Poliline" color="rgb(0,0,0)" stroke="currentColor" fill="none" stroke-width="0.0001074482389119885">
    <path d="M 1.561917648339886 1.103728070323573 L 1.571866808540544 1.102728336623821 L 1.581790068947777 1.10149175613758 L 1.591725971194508 1.100363460695142 L 1.601701371780126 1.099687776529219 L 1.611696129426948 1.099830018366889 L 1.621598873598404 1.101162587133144 L 1.63118041492908 1.103984055348806 L 1.640154313990604 1.108370226279454 L 1.648394677764266 1.114027481589767 L 1.657330976525711 1.118261983069823 L 1.667201369687294 1.117174250651782 L 1.677052657543914 1.115521932148235 L 1.686814829831627 1.113414235402126 L 1.688917654372062 1.11272807075105 L 1.709209002416145 1.113802208172263 L 1.737678986354296 1.11764545705282 L 1.755761188422667 1.120720028046907 L 1.774612992896095 1.125331884538017 L 1.795003632059916 1.124178867708312 L 1.805776091759042 1.133786919633795 L 1.824627772859201 1.14108907845166 L 1.842917661686669 1.142728072175973 L 1.849045785508977 1.149844588837019 L 1.856214517409076 1.156816300151414 L 1.862039133014254 1.164579320552514 L 1.861146478895831 1.174520254396234 L 1.859857358012339 1.184429431640849 L 1.861417662565372 1.194228074622092 " id="ID_92E"/>
    <path d="M 1.691417654490805 1.294228079371837 L 1.682452853978454 1.290646134235386 L 1.672474566870471 1.290104204472088 L 1.662477024630875 1.289958969427491 L 1.652573467185393 1.288684793701316 L 1.643015263734602 1.285751801716656 L 1.633440490291075 1.282866487136205 L 1.62379029249607 1.280245082472477 L 1.614047489128827 1.277994935391385 L 1.604201604791462 1.276255015147141 L 1.595828917092694 1.271555235806285 L 1.590671676205891 1.263226364251302 L 1.581310552396941 1.259789675554102 L 1.571427927819875 1.258370960371001 L 1.561457890464449 1.257610320122996 L 1.551719774206869 1.255467134410398 L 1.543347892775592 1.250125748350349 L 1.538229329787905 1.241635951297723 L 1.535083292644813 1.232144928578332 L 1.531052812866632 1.222996135321784 L 1.52650787181386 1.214090792015671 L 1.521312256703716 1.205549488132396 L 1.519938159470892 1.195944268043335 L 1.521997018988027 1.186164097726948 L 1.523075804746445 1.17625967445144 L 1.522917646487485 1.174728073695892 L 1.512262004823648 1.165335691655167 " id="ID_92F"/>
   </g>
   <g id="ID_0" color="rgb(0,0,0)" stroke="currentColor" fill="none" stroke-width="0.0001074482389119885"/>
  </g>
 </svg>