<?xml version="1.0" encoding="UTF-8" ?>
 <svg viewBox="-0.0405754547009316 -1.730728100104474  0.2221590531034723 0.38733204964728407" xmlns="http://www.w3.org/2000/svg" version="1.0" overflow="visible">
  <defs>
   <g id="ID__#42_Model_Space"/>
   <g id="ID__#42_Paper_Space0"/>
   <g id="ID__#42_Paper_Space"/>
  </defs>
  <g id="draft" transform="matrix(1 0 0 -1 0 0)" stroke-width="1.074482389119885E-4">
   <g id="Layer_#32_1" color="rgb(255,0,255)" stroke="currentColor" fill="none" stroke-width="0.0001074482389119885"/>
   <g id="Poliline" color="rgb(0,0,0)" stroke="currentColor" fill="none" stroke-width="0.0001074482389119885">
    <path d="M 0.0689175774261912 1.730728100104474 L 0.0630282249055325 1.722665584249234 L 0.0585528473506916 1.713731911203248 L 0.0550518657887782 1.704367332517071 L 0.0520117397267868 1.694840946771082 L 0.0489519911331193 1.685321580683014 L 0.0454331942786732 1.675962838510491 L 0.0410839745020129 1.666963203649155 L 0.0361273798014814 1.658278875048813 L 0.0309452009543883 1.649726452570154 L 0.0257879728597121 1.641159027398881 L 0.0208857388759309 1.632443895631586 L 0.0163876486036401 1.6235133077676 L 0.0116101095702526 1.614729891158761 L 0.0063645618025587 1.606217524382547 L 0.0007066986726398 1.597973143519412 L -0.0053005966694375 1.589979568601872 L -0.0115978870897591 1.582211984027917 L -0.0181345230668608 1.574644468323775 L -0.0245259874280155 1.566956024849437 L -0.0300449048718781 1.558628456166058 L -0.0339713102494805 1.549450802320601 L -0.0357306795305812 1.53961452766196 L -0.0373879223132514 1.529754935828686 L -0.0384348703950206 1.519939564522553 L -0.0346993345529105 1.51116069111276 L -0.0405754547009316 1.50312651196797 L -0.037921864297247 1.49417854860539 L -0.0317933848839625 1.486284887205686 L -0.0248078729586441 1.479135568779359 L -0.017194119918325 1.472656869048693 L -0.009145576970897 1.466724500494011 L -0.0008167143033928 1.461190862981197 L 0.0076669840520687 1.455896799966723 L 0.0158902435419535 1.450223944794968 L 0.0244224415574577 1.445086186720782 L 0.0329973321372341 1.44119568615684 L 0.0406904728198283 1.434835596587674 L 0.0494680444458986 1.430072531070056 L 0.058862772325254 1.426665191306998 L 0.0685337017086996 1.424127885804415 L 0.0782892517122234 1.421929575885236 L 0.0880025277224883 1.419555663997842 L 0.0969175787561199 1.416728085190275 L 0.0985894925926729 1.406873082286677 L 0.1014345361056996 1.397295271396091 L 0.105812022665428 1.388320394461539 L 0.1118755704159735 1.380391062872575 L 0.1193948742676749 1.37382144671274 L 0.1279569428099423 1.368683236419546 L 0.1372767707741618 1.365080755472147 L 0.1468950157872353 1.362347592845525 L 0.1565105600443131 1.359605470018113 L 0.1657865601604183 1.355898131280619 L 0.172555741434973 1.348992966286061 L 0.1800863156285013 1.343652664303935 L 0.1815835984025407 1.34339605045719 " id="ID_988"/>
    <path d="M 0.0969175787561199 1.416728085190275 L 0.0996656672026966 1.426304611233806 L 0.0999175788986122 1.432728085950234 " id="ID_989"/>
   </g>
   <g id="ID_0" color="rgb(0,0,0)" stroke="currentColor" fill="none" stroke-width="0.0001074482389119885"/>
  </g>
 </svg>