<?xml version="1.0" encoding="UTF-8" ?>
 <svg viewBox="-1.677072500067215 -9.410099378515003  0.3778953505065821 0.5254204141441843" xmlns="http://www.w3.org/2000/svg" version="1.0" overflow="visible">
  <defs>
   <g id="ID__#42_Model_Space"/>
   <g id="ID__#42_Paper_Space0"/>
   <g id="ID__#42_Paper_Space"/>
  </defs>
  <g id="draft" transform="matrix(1 0 0 -1 0 0)" stroke-width="5.039721436807565E-5">
   <g id="Poliline" color="rgb(0,0,0)" stroke="currentColor" fill="none" stroke-width="0.00005039721436807565">
    <path d="M -1.420082493297513 9.399728464362429 L -1.413454817833804 9.392457401197039 L -1.404586554071598 9.387862219338983 L -1.395423819914168 9.383856772857587 L -1.386347916367372 9.379659446772074 L -1.377409519169797 9.375174699167438 L -1.368708566681608 9.370252245255381 L -1.36038940032117 9.364710454913514 L -1.352664780714283 9.35836865219761 L -1.345799658724769 9.351108704021263 L -1.340037047601146 9.342947282567248 L -1.335494183337399 9.334047602047225 L -1.3321221140392 9.32463945880398 L -1.330004532069207 9.314877143607635 L -1.329485023764594 9.304902856805032 L -1.330515350041789 9.294964438065595 L -1.332615176139034 9.285189962754902 L -1.335144089888501 9.275515212792591 L -1.33756350998428 9.2658128005389 L -1.339513679482946 9.256006399767937 L -1.341012968739654 9.246119580857572 L -1.342508523013819 9.236232106993427 L -1.344072568401923 9.22635523744205 L -1.345764541265299 9.216499527413298 L -1.347644737779916 9.206678087296304 L -1.349771095668622 9.196907130623025 L -1.35219562816614 9.187206040623561 L -1.354943906409842 9.17759143634715 L -1.357807677477282 9.168010294953676 L -1.360709103642053 9.158440558736906 L -1.363639208515446 9.148879318908916 L -1.366588477730726 9.139324347524227 L -1.369547459206193 9.129772331711276 L -1.372506358549799 9.120220395046188 L -1.375455283182096 9.110665519152208 L -1.37838442200891 9.101104181312776 L -1.381283696885816 9.091533718283573 L -1.384143150514072 9.081951313949087 L -1.386952940169833 9.072354262991238 L -1.389703439449214 9.062739872138344 L -1.392385111091024 9.053106166710771 L -1.394988762595755 9.043451275431105 L -1.397505642982222 9.033773300181714 L -1.399927585300696 9.02406992988502 L -1.402246080502493 9.014342489964703 L -1.404453975188994 9.004589365667268 L -1.406544237960404 8.994811223780593 L -1.408510929035057 8.98500684328733 L -1.410348325213016 8.975177300162034 L -1.412051500432978 8.965323392967369 L -1.413616137740195 8.9554466840268 L -1.415286877823442 8.945588385819661 L -1.417426994316928 8.935820774985565 L -1.419868208820468 8.92612354586962 L -1.422418262027665 8.916454330420915 L -1.424887973108371 8.906764482735468 L -1.427082493629995 8.898728440566204 " id="ID_2DC"/>
    <path d="M -1.420082493297513 9.399728464362429 L -1.410129101919751 9.400626629589784 L -1.400137042341085 9.400378336306497 L -1.390215839364353 9.399151728503448 L -1.38042075395627 9.397147759452167 L -1.370760532971078 9.39456732838694 L -1.361212436524242 9.391596690261926 L -1.351735082590463 9.388406478051422 L -1.342277992384147 9.385158251641217 L -1.332784948919022 9.382013231847804 L -1.323205624258989 9.379145454572766 L -1.317401608621745 9.372332383362448 L -1.314182608404688 9.362865011238537 L -1.311216000468814 9.353315391483129 L -1.308468880429135 9.343700240416835 L -1.305927824107821 9.334028665653324 L -1.303592574213144 9.324305257612592 L -1.301545205166676 9.314518522925354 L -1.300318417380766 9.304596699989878 L -1.299736902388774 9.294614689997577 L -1.299597341741433 9.284615999549295 L -1.299771460656007 9.274617384593745 L -1.299875199350752 9.26462026234306 L -1.299344488546337 9.2546347350113 L -1.299177149560633 9.24463956181936 L -1.300687368111373 9.234785214462502 L -1.304922491964201 9.225748310912241 L -1.309854750708374 9.217051303776099 L -1.31408508707118 9.207990160107826 L -1.318298170736108 9.198920907129892 L -1.322496587626524 9.18984500949897 L -1.326653179797968 9.180749460146721 L -1.330741268319738 9.17162334378332 L -1.334735320929732 9.16245555133218 L -1.338609787354978 9.153236709971624 L -1.342339256421752 9.143958377632414 L -1.345898194197253 9.134613344323949 L -1.349260755380481 9.125196017556886 L -1.352224763241997 9.115650020782878 L -1.353877563906011 9.105794403524516 L -1.35463993954782 9.095824673380726 L -1.355242178065997 9.08584295556822 L -1.356368841553284 9.075909422240038 L -1.358514171752954 9.066146679034423 L -1.36143969494532 9.056585514558034 L -1.364764648639 9.047154727213258 L -1.368214317915874 9.037768535845064 L -1.371567012729231 9.02834475017138 L -1.374611393648573 9.018823108630702 L -1.377189393565654 9.009162113104416 L -1.379362636857256 8.999401178809059 L -1.381230871360503 8.989578165900642 L -1.382893847206211 8.979717564704814 L -1.384450722586073 8.96983966047431 L -1.38600266346381 8.959960836931304 L -1.387655512284057 8.95009849372183 L -1.38956308340964 8.940282452910322 L -1.391999964474668 8.930585084596382 L -1.395124248943321 8.921087887564607 L -1.39910346385596 8.911919318371499 L -1.404159370300187 8.90330060600054 L -1.410550312990571 8.895628660746175 L -1.418451908270844 8.889542826591146 L -1.427680496282986 8.885783763912617 L -1.437590936522195 8.884678964370819 L -1.447499837413032 8.885890012334102 L -1.456974186482105 8.8890514527586 L -1.466014238666876 8.893320505241926 L -1.474770356116926 8.898148655686189 L -1.483342713331057 8.903297751232913 L -1.491801609186282 8.90863515750198 L -1.500199274559199 8.914065879813984 L -1.508587904649769 8.919506274680202 L -1.517036036895407 8.924859998419151 L -1.52563459943834 8.929959971837963 L -1.53388270825254 8.935601605612566 L -1.541386293538909 8.942206488450301 L -1.548548637214138 8.949184767857956 L -1.555915104827368 8.955944214812854 L -1.563828339100128 8.962053150549764 L -1.572129403200242 8.967627434076835 L -1.580559913349921 8.973005777368018 L -1.588860762789095 8.978580262523767 L -1.596699684229964 8.984781412248587 L -1.603482018311817 8.992106478144231 L -1.609506790098913 9.000087643292197 L -1.616026347197379 9.007661789794778 L -1.623624843827775 9.014148912764407 L -1.631788041906315 9.019921939907196 L -1.640222607451766 9.025293384237331 L -1.648734124970626 9.030544127978644 L -1.657081762061781 9.036045389960227 L -1.664871767266014 9.042302953889443 L -1.67132857275522 9.049905401741373 L -1.675379750227437 9.059010104678032 L -1.677056912696059 9.068848517250604 L -1.677072500067215 9.078842323960552 L -1.676341476313913 9.088814328572571 L -1.675596181979804 9.098787276194702 L -1.668433835853382 9.105203302544853 L -1.660610688839134 9.111431082510512 L -1.653075522288907 9.118004950406718 L -1.645902630825947 9.124971517831767 L -1.639190944003179 9.132381839645944 L -1.63307440480806 9.140288103062263 L -1.627733423338429 9.148734936671875 L -1.623402765469747 9.157741763307824 L -1.620367595856367 9.167258954230826 L -1.618908591855917 9.177138687147243 L -1.619207603554849 9.187120322476854 L -1.621543558520926 9.196765921895754 L -1.627760143388103 9.204488770635324 L -1.627880857500795 9.214469996555755 L -1.628788286328063 9.224423738145928 L -1.630794919210188 9.234215287881893 L -1.63399129459361 9.24368400196423 L -1.638325252183105 9.252690445996311 L -1.643672778052672 9.261131191460901 L -1.650376209089936 9.26854183166428 L -1.657355708867434 9.27569986443914 L -1.663004542386522 9.283912694768254 L -1.665202893353938 9.293600954339343 L -1.666551678798547 9.303484739028136 L -1.664857571745897 9.312336520007264 L -1.66203130454394 9.321884101007868 L -1.660468117219787 9.33145343784915 L -1.654624930469534 9.339550727288145 L -1.647711627438504 9.346771411799175 L -1.640843597107957 9.354034157313672 L -1.635384906765012 9.362381009831402 L -1.631993480710369 9.371777760731591 L -1.628597719906417 9.381170831492327 L -1.622754411319964 9.38923615292624 L -1.615339907721685 9.395925812141208 L -1.606853867163504 9.401190669257034 L -1.597589526897432 9.404925254933397 L -1.587861010567737 9.407203313118735 L -1.577917867231093 9.408210351155104 L -1.567921143759427 9.40816573938076 L -1.557946764945784 9.407467921830179 L -1.54794980041973 9.407290965753218 L -1.537954374652319 9.407582836786743 L -1.527970084970748 9.408140447712057 L -1.517992234883654 9.408805946154214 L -1.508012256161209 9.409443226666246 L -1.498023548803955 9.409921125228879 L -1.488025788761366 9.410099378515003 L -1.478031004244341 9.409814515063225 L -1.468072723556343 9.408918250755708 L -1.458178980240744 9.407470711787859 L -1.448353803465137 9.405614085300192 L -1.438574418063872 9.403520257223786 L -1.428801332885926 9.401403361806569  z" id="ID_2DD"/>
   </g>
   <g id="ID_0" color="rgb(0,0,0)" stroke="currentColor" fill="none" stroke-width="0.00005039721436807565"/>
  </g>
 </svg>