<?xml version="1.0" encoding="UTF-8" ?>
 <svg viewBox="0.8940719939782013 -0.4338481480297851  0.30784563726260183 0.18013472229891653" xmlns="http://www.w3.org/2000/svg" version="1.0" overflow="visible">
  <defs>
   <g id="ID__#42_Model_Space"/>
   <g id="ID__#42_Paper_Space0"/>
   <g id="ID__#42_Paper_Space"/>
  </defs>
  <g id="draft" transform="matrix(1 0 0 -1 0 0)" stroke-width="1.074482389119885E-4">
   <g id="Layer_#32_1" color="rgb(255,0,255)" stroke="currentColor" fill="none" stroke-width="0.0001074482389119885"/>
   <g id="Poliline" color="rgb(0,0,0)" stroke="currentColor" fill="none" stroke-width="0.0001074482389119885">
    <path d="M 1.088917625873591 0.3367280338930279 L 1.096620566370928 0.3307847047780577 L 1.10418688876467 0.3242477913640034 L 1.111843560210683 0.3178179646461423 L 1.120055697615669 0.312118810290869 L 1.128667692682241 0.3070387201193654 L 1.137511930506439 0.3023732832422787 L 1.146484878105597 0.2979592031980598 L 1.155502571878368 0.2936370008221107 L 1.164482645779814 0.2892376600309099 L 1.173321974397208 0.2845635063829874 L 1.181858895431977 0.2793611373469407 L 1.189795744528614 0.2732906208938832 L 1.196548171738546 0.2659417178570642 L 1.201127065867388 0.2570964573607544 L 1.201917631240803 0.2542280299744881 L 1.189486430999323 0.2557442589328538 L 1.172883597709329 0.2537134257308686 L 1.153231224142189 0.2540518745058939 L 1.133240067599018 0.2618368288147259 L 1.119009085260927 0.2675908796456561 L 1.084786946379665 0.2736833792516258 L 1.067506423764399 0.2736833792516258 L 1.042771565317451 0.2753757636785856 L 1.024813353376885 0.2784220134815634 L 0.993979537748828 0.2899301854193403 L 0.9709388409284542 0.2950072684243032 L 0.955013696963789 0.2960226850252958 L 0.9296011491915407 0.2997459026542408 L 0.9207915580825272 0.2994074538792155 L 0.9109176174190452 0.3027280322781145 L 0.9028956986492344 0.3086222263453671 L 0.8974776333472656 0.316959006479971 L 0.895002110467856 0.3266165397242577 L 0.8945591908765138 0.3365970216053142 L 0.8951883320732001 0.3465749170511518 L 0.8961968097593606 0.3565236446507054 L 0.8969802093911827 0.3664914057698905 L 0.8969176167540808 0.374728035697931 L 0.8958589322974148 0.3782093058027307 L 0.8940719939782013 0.3822555115068589 L 0.8949058738525081 0.3858255979313192 L 0.8949176166590859 0.3867280362679004 L 0.8986838252167813 0.3959862044190441 L 0.9018079212880056 0.405485306095839 L 0.9050700461196399 0.4149368056292158 L 0.909266170127429 0.4240039762923509 L 0.9109176174190452 0.4267280381677985 L 0.9114142032242114 0.4289729677097576 L 0.9119190466101657 0.4338481480297851 L 0.9154530736851711 0.4328394779160086 L 0.9250454681382507 0.4249382872546228 L 0.9331233324334391 0.4230891172759393 L 0.9449035049322844 0.4185501369018745 L 0.9491106565218956 0.4150198266415864 L 0.9566836774311298 0.4051013660285357 L 0.9714930336190263 0.3983770157298245 L 0.9814219903294087 0.3953510053884805 L 0.9893315734959458 0.3882903848679042 L 0.9986365082497741 0.3809491526449342 L 1.006882653673642 0.3718712621726929 L 1.021355447604207 0.3651468415980794 L 1.033977025746338 0.3611122314188471 L 1.040540236510366 0.3520342706707034 L 1.058378776387286 0.3441331502852343 L 1.065679512508438 0.3423903780319257 L 1.074430501318261 0.3423903780319257 L 1.082003522227495 0.340877407999205  z" id="A07"/>
   </g>
   <g id="ID_0" color="rgb(0,0,0)" stroke="currentColor" fill="none" stroke-width="0.0001074482389119885"/>
  </g>
 </svg>