<?xml version="1.0" encoding="UTF-8" ?>
 <svg viewBox="0.0009175741963645 -2.364382012426371  0.1860000088345259 0.08965388648328299" xmlns="http://www.w3.org/2000/svg" version="1.0" overflow="visible">
  <defs>
   <g id="ID__#42_Model_Space"/>
   <g id="ID__#42_Paper_Space0"/>
   <g id="ID__#42_Paper_Space"/>
  </defs>
  <g id="draft" transform="matrix(1 0 0 -1 0 0)" stroke-width="1.074482389119885E-4">
   <g id="Layer_#32_1" color="rgb(255,0,255)" stroke="currentColor" fill="none" stroke-width="0.0001074482389119885"/>
   <g id="Poliline" color="rgb(0,0,0)" stroke="currentColor" fill="none" stroke-width="0.0001074482389119885">
    <path d="M 0.0009175741963645 2.326728128412955 L 0.0023429531446553 2.316856900633974 L 0.0049347969684241 2.307199299874723 L 0.0060936797442119 2.297299399307064 L 0.0107677994262119 2.289058688321127 L 0.0188722284019791 2.28325652586477 L 0.0281176558517045 2.279484032798979 L 0.0378031283957547 2.277010017557669 L 0.0476008854744512 2.275009128987186 L 0.0489175764762422 2.274728125943088 " id="ID_8A4"/>
    <path d="M 0.0134175747900827 2.35622812981413 L 0.0228181494741842 2.359627695309081 L 0.032495948613426 2.362130713179286 L 0.0423662398562517 2.363712729951419 L 0.0523404868663002 2.364382012426371 L 0.0623353220337695 2.364176603668287 L 0.0722805567248948 2.363156953736346 L 0.0821221658634555 2.361396677809359 L 0.0918224317749523 2.358974193986655 L 0.1013578567634417 2.355966544085386 L 0.1107162214924671 2.352445619731859 L 0.1198936628000196 2.348476350577065 L 0.1288922014634135 2.344116231257697 L 0.1377178444205311 2.339415642415721 L 0.1463792262874692 2.334418581062633 L 0.1548867083475933 2.329163558221358 L 0.1632518191014913 2.323684550921985 L 0.171486989698824 2.318011943324119 L 0.1796055213846994 2.312173470534231 L 0.1869175830308904 2.306728127463006 " id="ID_8A5"/>
   </g>
   <g id="ID_0" color="rgb(0,0,0)" stroke="currentColor" fill="none" stroke-width="0.0001074482389119885"/>
  </g>
 </svg>