<?xml version="1.0" encoding="UTF-8" ?>
 <svg viewBox="0.1949175834108701 -6.071404234685653  0.15511387222354409 0.18925860322459354" xmlns="http://www.w3.org/2000/svg" version="1.0" overflow="visible">
  <defs>
   <g id="ID__#42_Model_Space"/>
   <g id="ID__#42_Paper_Space0"/>
   <g id="ID__#42_Paper_Space"/>
  </defs>
  <g id="draft" transform="matrix(1 0 0 -1 0 0)" stroke-width="1.074482389119885E-4">
   <g id="Poliline" color="rgb(0,0,0)" stroke="currentColor" fill="none" stroke-width="0.0001074482389119885">
    <path d="M 0.1949175834108701 5.960728301018693 L 0.1998739321815481 5.952044301792986 L 0.2052526023603356 5.943614961528091 L 0.2110114788884063 5.935440741246648 L 0.2171368981576967 5.927537318025559 L 0.2236322832756521 5.919935095690339 L 0.230513824257673 5.912680773849775 L 0.2378081825977052 5.905842143832013 L 0.2455505457510032 5.899516129585375 L 0.2537807325501555 5.893841187270727 L 0.2625330838581306 5.889014662426978 L 0.2718156099562838 5.88531792285624 L 0.2815491971687436 5.88306093635461 L 0.291499095932779 5.88214563146106 L 0.3014592152971183 5.882843680344805 L 0.3108805853487624 5.886054179714415 L 0.3189204903605338 5.891956752150547 L 0.3256237662684516 5.899363434812128 L 0.3312791104123383 5.907605344862228 L 0.3361099111122527 5.916357030649831 L 0.3402566876736621 5.925454490263742 L 0.3437898068176501 5.934807709795689 L 0.3467128010779348 5.944369123747159 L 0.3489216694780017 5.954119162625712 L 0.3499831342861714 5.96405238654256 L 0.3500314556344142 5.974051905547098 L 0.3497356286945425 5.984047835981281 L 0.3491059027754062 5.994028590276768 L 0.3479710630075168 6.0039655785508 L 0.3454998374439695 6.013623331901735 L 0.3403468323671062 6.022177105458837 L 0.3342818640278411 6.030124858080266 L 0.3277666534433763 6.037709842523701 L 0.3209021446981826 6.04498129260208 L 0.3136903219682852 6.05190968940608 L 0.306053628358689 6.058366162787628 L 0.2977520530612123 6.063922936401147 L 0.2886070528529192 6.067942584257219 L 0.2789395537507495 6.070455267898918 L 0.2689961793810136 6.071404234685653 L 0.2590285934705792 6.070756792871058 L 0.2492957957175284 6.068510725114286 L 0.2400588820180829 6.064708934542542 L 0.23156343422884 6.059454570812467 L 0.2240115926922757 6.052914919502013 L 0.217535630784921 6.045305885840261 L 0.2121984985606335 6.036857437956729 L 0.2080814278008365 6.027751660407478 L 0.2050233643009509 6.018234706671298 L 0.2027539185977467 6.008497302263495 L 0.2010037349304428 5.99865226805321 L 0.1995278673641021 5.988761918146288 L 0.1981041080914254 5.978863818370128 L 0.1965228160784198 5.968990161172319  z" id="ID_4BB"/>
   </g>
   <g id="ID_0" color="rgb(0,0,0)" stroke="currentColor" fill="none" stroke-width="0.0001074482389119885"/>
  </g>
 </svg>