<?xml version="1.0" encoding="UTF-8" ?>
 <svg viewBox="-0.2630824383429626 -2.457816028701856  0.2766873456968541 0.22258790463491662" xmlns="http://www.w3.org/2000/svg" version="1.0" overflow="visible">
  <defs>
   <g id="ID__#42_Model_Space"/>
   <g id="ID__#42_Paper_Space0"/>
   <g id="ID__#42_Paper_Space"/>
  </defs>
  <g id="draft" transform="matrix(1 0 0 -1 0 0)" stroke-width="1.074482389119885E-4">
   <g id="Layer_#32_1" color="rgb(255,0,255)" stroke="currentColor" fill="none" stroke-width="0.0001074482389119885"/>
   <g id="Poliline" color="rgb(0,0,0)" stroke="currentColor" fill="none" stroke-width="0.0001074482389119885">
    <path d="M -0.0845824298646676 2.425228133091454 L -0.0939391509862269 2.421814886826073 L -0.1019762447348631 2.415906582785881 L -0.1087923461411293 2.408599200216901 L -0.1150168331961003 2.400773392024763 L -0.1213158180516496 2.393008210132203 L -0.1282730597864985 2.385834952089572 L -0.1363080195205661 2.379914083323917 L -0.1458981201537934 2.377208108991206 L -0.154571404962498 2.372254585836216 L -0.1630260860322465 2.366919278895837 L -0.1721391582330201 2.36282118530752 L -0.1816287919817228 2.359675126666541 L -0.1912683138944908 2.357015811939666 L -0.1960824351606334 2.355728129790382 " id="ID_89A"/>
    <path d="M -0.2630824383429626 2.390728131452792 L -0.2586900198096984 2.399617297365061 L -0.2515779047624962 2.406616370304078 L -0.2434454096978049 2.412428098024513 L -0.2349466112102529 2.417696760814024 L -0.2263681554124606 2.422835844879864 L -0.217966938115369 2.428256821945367 L -0.2097954993501645 2.434021313991905 L -0.2016338721921462 2.439799858245102 L -0.1932588094880403 2.445261391629333 L -0.1844107520114919 2.449904957734293 L -0.1748266629146835 2.452636337869265 L -0.1649054245054184 2.45388540164402 L -0.1549784725667012 2.455091751747469 L -0.145095191796667 2.456613868325387 L -0.1351708755164811 2.457816028701856 L -0.1252000188100517 2.457493732793233 L -0.1157046760418794 2.454470255220739 L -0.1071383836728019 2.449335147795038 L -0.0994008100516242 2.443012357990145 L -0.0924108231001508 2.43586618171683 L -0.0862574477532983 2.427993079106846 L -0.0845824298646676 2.425228133091454 L -0.0758576508245339 2.420643200691714 L -0.0659249429134379 2.419565975626905 L -0.0562892550274485 2.417285930563508 L -0.0479779357217147 2.411725602969777 L -0.0397624323199342 2.406024593202717 L -0.0316797176683661 2.400136827105432 L -0.0237707097735118 2.394018460042937 L -0.016079400922628 2.387628323877382 L -0.0086544546197853 2.380931107049146 L -0.0015468227039852 2.373898281456346 L 0.0051912788906128 2.366510886433434 L 0.0115091662629929 2.358761254846271 L 0.0134175747900827 2.35622812981413 L 0.0136049073538915 2.353497798326589 L 0.0110626394593236 2.343923804444465 L 0.0057605661128664 2.335452868202777 L 0.0009175741963645 2.326728128412955 L -0.0043337738756106 2.322961718965713 L -0.0123313760761814 2.316958885060222 L -0.0202985811277534 2.31091549761396 L -0.0284142976434501 2.30507408513456 L -0.0367897448527161 2.299611560869463 L -0.0452804830199147 2.294328889839263 L -0.0538266593746366 2.289136437349169 L -0.0623977721156486 2.28398501319336 L -0.0709634298203836 2.278824585016751 L -0.0794916059039492 2.273602553737065 L -0.0879460143418811 2.268262091712667 L -0.0962821962643652 2.262740612134907 L -0.1044587336270499 2.256985276742222 L -0.1128233271802541 2.25150986757549 L -0.1216034964271282 2.246732021031789 L -0.1308235595002438 2.242874195428228 L -0.1404144206723066 2.240061163135315 L -0.1502346956973382 2.238189678181045 L -0.1601581805278203 2.236962650093541 L -0.1701167765029297 2.236056016240842 L -0.1800824344006742 2.235228124066939 " id="ID_89B"/>
   </g>
   <g id="ID_0" color="rgb(0,0,0)" stroke="currentColor" fill="none" stroke-width="0.0001074482389119885"/>
  </g>
 </svg>