<?xml version="1.0" encoding="UTF-8" ?>
 <svg viewBox="1.837210594985387 -2.189964689904599  0.5596270764547819 0.622872390704023" xmlns="http://www.w3.org/2000/svg" version="1.0" overflow="visible">
  <defs>
   <g id="ID__#42_Model_Space"/>
   <g id="ID__#42_Paper_Space0"/>
   <g id="ID__#42_Paper_Space"/>
  </defs>
  <g id="draft" transform="matrix(1 0 0 -1 0 0)" stroke-width="1.074482389119885E-4">
   <g id="Layer_#32_1" color="rgb(255,0,255)" stroke="currentColor" fill="none" stroke-width="0.0001074482389119885"/>
   <g id="Poliline" color="rgb(0,0,0)" stroke="currentColor" fill="none" stroke-width="0.0001074482389119885">
    <path d="M 2.343917685482892 1.919228109057744 L 2.338309295226387 1.927506794979834 L 2.332958976660081 1.935954731216719 L 2.327831658466558 1.944539978815367 L 2.322896746260535 1.953237369758278 L 2.318127390064195 1.96202653917577 L 2.313499459194004 1.9708911563353 L 2.308991254903292 1.979817311768243 L 2.304582732652657 1.988793169039874 L 2.300255028439804 1.997808322864171 L 2.295989973029646 2.006853333656232 L 2.291769602538876 2.015919331481365 L 2.28757564300319 2.024997628954031 L 2.283388919901819 2.034079317667833 L 2.279188637011966 2.043154793240145 L 2.274951437338113 2.05221313794874 L 2.270650178598759 2.061241098071873 L 2.2662246974389 2.070208204668558 L 2.261487358272467 2.079014522386129 L 2.256667031280072 2.087776017319871 L 2.252085917811004 2.096663979055891 L 2.248077576300123 2.10582283560786 L 2.244617251283886 2.115204051251941 L 2.241505143711394 2.124706975463153 L 2.238513711134843 2.134248366080864 L 2.235390336644795 2.143748305313561 L 2.231932418446841 2.153130370367513 L 2.228026465180398 2.162334026314175 L 2.223643660682603 2.171320488054142 L 2.218919816995803 2.180133376482736 L 2.213230896002577 2.188342530414727 L 2.212917679260726 2.188728121858307 " id="ID_82A"/>
    <path d="M 2.343917685482892 1.919228109057744 L 2.347187843398475 1.909777943592724 L 2.350388940811057 1.90030416195619 L 2.353521024041133 1.890807339245482 L 2.356584121169699 1.8812880403585 L 2.359578240854231 1.871746819265077 L 2.36250337064025 1.862184219465619 L 2.365359475222616 1.8526007742686 L 2.368146494573552 1.842997007083541 L 2.370864341919037 1.833373431730956 L 2.373512901542483 1.823730552770923 L 2.376092026391447 1.814068865852595 L 2.378601535437129 1.804388858174393 L 2.381041210872901 1.794691008598055 L 2.383410757868587 1.784975942477563 L 2.385742746794522 1.775251636938994 L 2.388066162814992 1.765525270707801 L 2.390341391182649 1.755787497784224 L 2.392519644044244 1.746027716155536 L 2.394529979808133 1.736232003856018 L 2.396202392440376 1.726374398246726 L 2.396837671440169 1.716401346965241 L 2.396204609295248 1.706428288000946 L 2.394299110295451 1.696618925160173 L 2.391180902399329 1.687124391739219 L 2.386958605594831 1.678066339955256 L 2.381768149386227 1.669530298787815 L 2.375739879695397 1.661552399987973 L 2.369006210473764 1.654160720854614 L 2.361679178860476 1.647358414582464 L 2.353851496523041 1.641138168642576 L 2.345600997439172 1.635490765918396 L 2.336991466306371 1.63040713822256 L 2.328076266959707 1.625881354640116 L 2.318899171811519 1.621911256857709 L 2.309494310906111 1.618517406955628 L 2.300036423511422 1.615271073687102 L 2.290803372725603 1.611440705922326 L 2.28188418070162 1.606924402459418 L 2.272598865008304 1.603219439134191 L 2.263134964938881 1.599989949487381 L 2.253636971232158 1.596861662943796 L 2.244189324325966 1.593585516719343 L 2.234726910440435 1.590355761733929 L 2.225147401497774 1.587486361948585 L 2.215570049011778 1.58461009495824 L 2.206078615685076 1.581464030549339 L 2.196845548651443 1.577638304776218 L 2.187896197419607 1.573177608802533 L 2.178711267010621 1.569240576597032 L 2.168971576513994 1.567092299200576 L 2.159031171028831 1.56775512505888 L 2.149710040597597 1.571259441506002 L 2.141818778090327 1.577373583547528 L 2.134696912504728 1.584391934183082 L 2.127620669370301 1.591456739533489 L 2.120026020918975 1.597959072749844 L 2.112338422429264 1.604354381296161 L 2.104690436836611 1.61079693332978 L 2.09712811967162 1.617340096773093 L 2.089700855587582 1.624035611538374 L 2.082461582087509 1.630933686617419 L 2.075468511940864 1.638080943443933 L 2.068785314021708 1.645518435390735 L 2.062289857298502 1.653121387595223 L 2.055622787080398 1.660574248286556 L 2.048816940464331 1.667900774506982 L 2.041925881814558 1.675147359863355 L 2.035011756599638 1.682371898898821 L 2.028148693092801 1.689644909681897 L 2.021428488153282 1.697049874885461 L 2.014841390488646 1.704574143838486 L 2.008217799884091 1.712066476551163 L 2.001547880464039 1.719517837219502 L 1.994822973179221 1.726919006260299 L 1.988028429393988 1.73425706102242 L 1.981142379509879 1.741508241095957 L 1.974123758205149 1.748629655013175 L 1.966848801545696 1.755490461000009 L 1.95928099692106 1.76202658809532 L 1.951561521400302 1.768383368625087 L 1.943797773379688 1.774686102867764 L 1.936095733393339 1.781064378255969 L 1.928606121450625 1.787690527222327 L 1.921646483735912 1.794863324353642 L 1.915277806028303 1.802573541922738 L 1.908985677720231 1.810346118390443 L 1.902714582007551 1.818135441674625 L 1.896419548977027 1.825905488808897 L 1.890060750886823 1.833623550124441 L 1.883597540755733 1.841254342604861 L 1.87718245541852 1.848924686758293 L 1.87145867651508 1.857116634436232 L 1.867225723762245 1.866153447720035 L 1.864857806145566 1.875863561984651 L 1.862402414828273 1.885550694940651 L 1.858773566559943 1.894868076880156 L 1.854880226295836 1.904078957758095 L 1.85092009739662 1.913261496891006 L 1.847043538214776 1.922479409511007 L 1.843415616972366 1.931796991303375 L 1.840370182592762 1.941317855332666 L 1.83818723320907 1.951073170134835 L 1.837210594985387 1.96101586955446 L 1.837814695566706 1.970984735591708 L 1.840230706025387 1.980673312455531 L 1.844396333877662 1.989748259205811 L 1.849908075754269 1.998085729045932 L 1.856148259212692 2.005897541811823 L 1.862766389730605 2.013393816867058 L 1.869552777430111 2.020738318109943 L 1.876358427884043 2.028065195675846 L 1.883053059391694 2.035493391494867 L 1.889498427498801 2.043138297530491 L 1.895836431985562 2.050872984962076 L 1.902728811437155 2.058115156534222 L 1.910055627217926 2.064918197109147 L 1.917709321553966 2.071354550443023 L 1.925615663625322 2.077474467126105 L 1.933730255719068 2.083319503759147 L 1.942018537013062 2.088915952166361 L 1.950457317634296 2.094281023156431 L 1.959034146614283 2.099422661059145 L 1.967739570586142 2.104343069564025 L 1.976540745111835 2.109089922123265 L 1.985417482043458 2.113693933942343 L 1.994353245929467 2.118182275419174 L 2.003332275409064 2.122583509856417 L 2.012339444845848 2.126927086906974 L 2.021360013157338 2.131242845754879 L 2.030379719648774 2.135560730007938 L 2.039384441859312 2.139910322006389 L 2.048359624442801 2.144320273026146 L 2.057290659617637 2.148818177956396 L 2.066122275102966 2.153506039165886 L 2.074858576766303 2.158371807144151 L 2.083695624441742 2.163052199679722 L 2.092840364320195 2.16709016196583 L 2.10239053819055 2.170034082655256 L 2.112116693012321 2.172356573060648 L 2.121854476845593 2.174630189628594 L 2.131502588413775 2.177255570493585 L 2.141006364771134 2.180364397713562 L 2.150518776628061 2.183447485534422 L 2.160147567104968 2.186139865379702 L 2.169933030200923 2.188182566429492 L 2.179848914292642 2.189454518360166 L 2.189835122646915 2.189964689904599 L 2.1998316455725 2.18979741267041 L 2.209802147014177 2.189060052274687 L 2.212917679260726 2.188728121858309 " id="ID_82B"/>
   </g>
   <g id="ID_0" color="rgb(0,0,0)" stroke="currentColor" fill="none" stroke-width="0.0001074482389119885"/>
  </g>
 </svg>