<?xml version="1.0" encoding="UTF-8" ?>
 <svg viewBox="1.498417645323797 -1.761546229575253  0.35768271616593195 0.32510948123935113" xmlns="http://www.w3.org/2000/svg" version="1.0" overflow="visible">
  <defs>
   <g id="ID__#42_Model_Space"/>
   <g id="ID__#42_Paper_Space0"/>
   <g id="ID__#42_Paper_Space"/>
  </defs>
  <g id="draft" transform="matrix(1 0 0 -1 0 0)" stroke-width="1.074482389119885E-4">
   <g id="Layer_#32_1" color="rgb(255,0,255)" stroke="currentColor" fill="none" stroke-width="0.0001074482389119885"/>
   <g id="Poliline" color="rgb(0,0,0)" stroke="currentColor" fill="none" stroke-width="0.0001074482389119885">
    <path d="M 1.582917649337332 1.438728086235219 L 1.575673942438371 1.436878353339638 L 1.565767984984983 1.436436748335902 L 1.557821428245497 1.442161202453325 L 1.554808646525143 1.451411237100124 L 1.555374731691145 1.461392542977172 L 1.555884631051329 1.47137708491687 L 1.555068345916555 1.481336281773263 L 1.553386817182025 1.491190799281834 L 1.550715918568484 1.500819686165412 L 1.54699805419346 1.510099238705919 L 1.542826239741912 1.519188506992069 L 1.538344858260288 1.528119965393509 L 1.532779281854992 1.53642097570284 L 1.526441547791642 1.544152928682544 L 1.519821639198728 1.551647616750205 L 1.513483367309969 1.559379204097291 L 1.508209786219745 1.567844820786509 L 1.505289518174575 1.577402506888391 L 1.499417645371295 1.585228093193595 L 1.498417645323797 1.594228093621072 L 1.502331109278755 1.603416860763777 L 1.504744469135824 1.613112663043967 L 1.50601969738751 1.623027613179184 L 1.50665888262145 1.63300648123471 L 1.507184621831622 1.642992453381351 L 1.508111743829573 1.652947419863453 L 1.509939056702594 1.662771288304574 L 1.513085229786388 1.672254396533308 L 1.514127284650817 1.682104551081417 L 1.516646455898916 1.691758447391846 L 1.52134559060902 1.700560343966893 L 1.527814938896606 1.708164806424257 L 1.535493117097686 1.714556771823335 L 1.543926563129595 1.719920969365293 L 1.552818490639975 1.724490458220463 L 1.561984002396583 1.728486469803016 L 1.571300818755737 1.732118029245658 L 1.580696882731692 1.735540234651884 L 1.590135905258279 1.738842436452616 L 1.599589835013944 1.742101880737561 L 1.609033702066236 1.745390424267638 L 1.618442013727695 1.74877876366372 L 1.627786027374248 1.752340525947829 L 1.636263431208477 1.757435374536534 L 1.645939639043657 1.759824781442093 L 1.655925816252354 1.759950309641485 L 1.665864380230974 1.758862621261895 L 1.675781345765003 1.757579538799047 L 1.685763263992623 1.757338096506879 L 1.6934176545858 1.759228101458152 L 1.703361662549643 1.75863293183462 L 1.713295889820849 1.7597579601772 L 1.72321548094049 1.76101969367008 L 1.733195871132479 1.761546229575253 L 1.743160873628124 1.760775792156186 L 1.753056964153785 1.759341327724875 L 1.762970819963272 1.758038223602639 L 1.772949775435424 1.757445381708771 L 1.782946270104361 1.757560708486192 L 1.792941329690771 1.757856251609924 L 1.802927441642208 1.757481825853169 L 1.812615506580477 1.755139169648741 L 1.821003573035305 1.749792810223128 L 1.82691766092671 1.742728100674444 L 1.831107746483287 1.733716895528806 L 1.837093864162128 1.725708168981194 L 1.841767457826504 1.716924684144006 L 1.843640475848927 1.707109934731265 L 1.846684405329194 1.697636549334479 L 1.853199077407906 1.6901377141308 L 1.853032707566885 1.680225462713547 L 1.853571667131744 1.670241870831938 L 1.854551392535004 1.660290449157796 L 1.855540772147553 1.650339755413559 L 1.856100361489729 1.640357308310049 L 1.855759945148242 1.630368570096141 L 1.854052881992449 1.620526194390906 L 1.852917662161644 1.616728094689765 " id="ID_91D"/>
   </g>
   <g id="ID_0" color="rgb(0,0,0)" stroke="currentColor" fill="none" stroke-width="0.0001074482389119885"/>
  </g>
 </svg>