<?xml version="1.0" encoding="UTF-8" ?>
 <svg viewBox="0.5545233117527442 -1.257250121550958  0.2509077240763168 0.38405552011410404" xmlns="http://www.w3.org/2000/svg" version="1.0" overflow="visible">
  <defs>
   <g id="ID__#42_Model_Space"/>
   <g id="ID__#42_Paper_Space0"/>
   <g id="ID__#42_Paper_Space"/>
  </defs>
  <g id="draft" transform="matrix(1 0 0 -1 0 0)" stroke-width="1.074482389119885E-4">
   <g id="Layer_#32_1" color="rgb(255,0,255)" stroke="currentColor" fill="none" stroke-width="0.0001074482389119885"/>
   <g id="Poliline" color="rgb(0,0,0)" stroke="currentColor" fill="none" stroke-width="0.0001074482389119885">
    <path d="M 0.6703453403674758 1.234442920282194 L 0.6776395082349822 1.22770515589643 L 0.6868072557523784 1.223785407658025 L 0.6965840936458135 1.22172096866751 L 0.706507746518323 1.220492226489334 L 0.716398270734671 1.21904357346195 L 0.7255009995562371 1.215084665318897 L 0.7337028958157497 1.209364380141709 L 0.7422208683052176 1.204139989126414 L 0.7505422699117128 1.19863949857044 L 0.757965148957978 1.191943599121502 L 0.7648310654782371 1.184674603668103 L 0.7711529724916435 1.176929491546898 L 0.7768138072920934 1.168689375446579 L 0.7821056426983919 1.160205339754433 L 0.7869848706765535 1.151478220679724 L 0.7911880306820028 1.142408287224061 L 0.7937719862544128 1.132785548694817 L 0.7947968617366064 1.122838526489582 L 0.7975187488920384 1.113273733716951 L 0.801312174188177 1.104059150262637 L 0.8027192960752875 1.094180552642264 L 0.8021644433208949 1.084205151422542 L 0.8004002589219663 1.074364540871261 L 0.7983800213810897 1.064573216553679 L 0.7968895414980209 1.054687683968083 L 0.7964505602826151 1.044703845119245 L 0.7972825121783007 1.034745428751634 L 0.8000445657342085 1.025143945648041 L 0.8029096399402391 1.015565854468221 L 0.8045239025511046 1.005705043263658 L 0.8052426794922036 0.9957324285241143 L 0.805431035829061 0.985734089865076 L 0.8052501919901855 0.9757358934909383 L 0.8047955554070318 0.9657463587649495 L 0.8041294211934539 0.9557688514084556 L 0.803295954842162 0.9458032569258332 L 0.802329593918543 0.9358492312723996 L 0.8014567090002424 0.9258878807873909 L 0.8007768266744995 0.9159110364859959 L 0.7997437898648938 0.9059672138428069 L 0.7977061714759568 0.8961857929334851 L 0.7937884865940524 0.8870162430913968 L 0.7872133018290608 0.8795569466376278 L 0.7784077169009516 0.8749190933110799 L 0.7686052800399743 0.8731946014368539 L 0.758811976156685 0.8749656689857233 L 0.7498518974339587 0.8793611951565694 L 0.7417186840591627 0.8851688031099875 L 0.7340752366434398 0.8916149234092696 L 0.7265322861304311 0.8981799802462884 L 0.7190033867473398 0.9047607968042186 L 0.7116873285796573 0.9115763262279337 L 0.7045603221402832 0.918593269810625 L 0.697610811720268 0.9257842511578181 L 0.6908281825041476 0.9331329165358752 L 0.6842060215364266 0.9406274591424583 L 0.6777418657698516 0.9482585186125724 L 0.6714365841093226 0.9560182804686139 L 0.665290207026481 0.9639048311154461 L 0.6593059263759482 0.9719170448106559 L 0.653491171595424 0.9800526329425095 L 0.6478544192308658 0.9883123925485044 L 0.6424069640056267 0.9966982436564961 L 0.6371634385992149 1.005213049310116 L 0.6321426129448158 1.013860271396369 L 0.6274850040117812 1.022706845704869 L 0.6233871013552071 1.03182652800938 L 0.6198225693239703 1.04116835407604 L 0.6167729949058831 1.05069132003434 L 0.6142336699403801 1.060363144705078 L 0.612216862985564 1.07015669039012 L 0.6089176030748149 1.092728069801101 L 0.608576089497241 1.094495316401101 L 0.60670438943012 1.104318473544219 L 0.6047004923076811 1.114115224175922 L 0.6023146422029333 1.123825295533835 L 0.5993040135442609 1.133358647139369 L 0.5955255725950277 1.142614386947819 L 0.5911916190971241 1.151624994297858 L 0.5865374239966333 1.160475353794488 L 0.5817202185854234 1.169239093377221 L 0.576855808012633 1.177977403867933 L 0.5720386343932224 1.186741432731361 L 0.5673536238518775 1.195576516217226 L 0.5630320904995516 1.204593277795503 L 0.5592862343076206 1.213862622971758 L 0.5563142404952313 1.223405970012036 L 0.5545233117527442 1.233233226232458 L 0.5548367931098089 1.24319367580651 L 0.559168068770811 1.25205351219788 L 0.5680460912073828 1.256228415216112 L 0.5779840745074614 1.257250121550958 L 0.5879789785768433 1.25709866714604 L 0.5979106803899699 1.255959499797517 L 0.6075774677385404 1.253458793197372 L 0.6160609651536558 1.248236914218317 L 0.6245003962228184 1.242944048998154 L 0.6337711695349837 1.239206163608947 L 0.6435121837427058 1.237033034743397 L 0.6534968429971189 1.236616699391452 L 0.6634879181667657 1.23701518602937 " id="ID_961"/>
   </g>
   <g id="ID_0" color="rgb(0,0,0)" stroke="currentColor" fill="none" stroke-width="0.0001074482389119885"/>
  </g>
 </svg>