<?xml version="1.0" encoding="UTF-8" ?>
 <svg viewBox="0.6267353043969816 -9.021228446384644  0.37218231720183936 0.3765000178827904" xmlns="http://www.w3.org/2000/svg" version="1.0" overflow="visible">
  <defs>
   <g id="ID__#42_Model_Space"/>
   <g id="ID__#42_Paper_Space0"/>
   <g id="ID__#42_Paper_Space"/>
  </defs>
  <g id="draft" transform="matrix(1 0 0 -1 0 0)" stroke-width="5.039721436807565E-5">
   <g id="Poliline" color="rgb(0,0,0)" stroke="currentColor" fill="none" stroke-width="0.00005039721436807565">
    <path d="M 0.7794176111731304 9.021228446384644 L 0.7702816211053422 9.017213289682418 L 0.7606747893399639 9.014443509757054 L 0.750987429585603 9.011961499878527 L 0.7413808524599741 9.009187597035655 L 0.7320742313175748 9.005547330879393 L 0.7236027780441737 9.000281284829509 L 0.7157473296076482 8.994094728798174 L 0.7076500081824763 8.988227923970918 L 0.6993959128505934 8.982584134162568 L 0.6910751369828319 8.977037972758868 L 0.6827875162485677 8.971442227377837 L 0.6746470083518519 8.9656353079583 L 0.666786583018177 8.959453924921734 L 0.6593639094188655 8.95275831038232 L 0.6525405394939563 8.945451610526492 L 0.6464672012466482 8.937514480580646 L 0.6412391261288679 8.928995474619688 L 0.6355839507517081 8.920797316745709 L 0.6296072131515144 8.9128125079796 L 0.6272356640880208 8.903157521131062 L 0.6267353043969816 8.893172796084642 L 0.6269224681291697 8.883173443435057 L 0.6275091132135806 8.873192973108448 L 0.6283817696994705 8.863230202818936 L 0.6295036914924133 8.853292797282034 L 0.6309722607901023 8.843402371940495 L 0.6338523605872322 8.833857178789845 L 0.6339176042622512 8.833728437478872 L 0.6389969148079633 8.825147953148722 L 0.644774821521648 8.816991555636067 L 0.6489879244602701 8.80793636327786 L 0.6522066402225022 8.798469538650778 L 0.6556769090277053 8.789095492944513 L 0.6601998374269034 8.780181106838644 L 0.6653705552249738 8.771623014336496 L 0.6708441714795006 8.763254206724595 L 0.6763383654997864 8.754898830021343 L 0.6816090594901123 8.746401231372392 L 0.6868054191713533 8.73785729028959 L 0.692065790400104 8.729352506966062 L 0.6974045011067256 8.720896563099412 L 0.7028361415758804 8.712500098780351 L 0.7083762438516735 8.70417488740686 L 0.7140416832128392 8.69593454662369 L 0.7198512158707411 8.687795243956343 L 0.7258260931951659 8.679776638175195 L 0.7319907382696247 8.671903241003186 L 0.7383739118332909 8.664205899063646 L 0.7450092464031286 8.656725115122597 L 0.7519368334966883 8.649514507769945 L 0.7569176101044368 8.644728428501853 L 0.7654141710764888 8.645153495660391 L 0.7742674122835913 8.647146969076712 L 0.7840715096225921 8.649063589213725 L 0.793965016131109 8.650507745583482 L 0.8034597371523446 8.653548154425904 L 0.8119825959309752 8.658758811636613 L 0.8202892866855044 8.664322736973835 L 0.8291163758015009 8.66901721753599 L 0.8381027549419943 8.67340382104256 L 0.847171693292565 8.677617024483723 L 0.8562894430684941 8.681724630681401 L 0.8654260620603366 8.685789873714787 L 0.8745532936383524 8.689874777655614 L 0.883643044707985 8.694043650359859 L 0.8926612600022902 8.698364842684235 L 0.9015656023663289 8.702914948869285 L 0.9103757041037168 8.707643371285453 L 0.9193919738660119 8.711963389736775 L 0.9274498849117795 8.717845567918834 L 0.9356658013807228 8.72353572125828 L 0.9443243659745785 8.728537170378846 L 0.9531020060985184 8.733328366142995 L 0.961809244268581 8.738244602898217 L 0.970274564019208 8.743564922754667 L 0.9782814112564404 8.74954920881023 L 0.9855228095294314 8.756433865200123 L 0.9915865075342722 8.76436921577774 L 0.99586368957275 8.77331620402275 L 0.9942537150699094 8.783175700892027 L 0.9940716797363995 8.793166706125678 L 0.995027746995425 8.803116948924721 L 0.996761147049554 8.812964019751234 L 0.9989176215988209 8.8227284369564 " id="ID_303"/>
   </g>
   <g id="ID_0" color="rgb(0,0,0)" stroke="currentColor" fill="none" stroke-width="0.00005039721436807565"/>
  </g>
 </svg>