<?xml version="1.0" encoding="UTF-8" ?>
 <svg viewBox="1.550917647817414 -8.840173254763373  0.25545473594032697 0.4216220879199053" xmlns="http://www.w3.org/2000/svg" version="1.0" overflow="visible">
  <defs>
   <g id="ID__#42_Model_Space"/>
   <g id="ID__#42_Paper_Space0"/>
   <g id="ID__#42_Paper_Space"/>
  </defs>
  <g id="draft" transform="matrix(1 0 0 -1 0 0)" stroke-width="5.039721436807565E-5">
   <g id="Poliline" color="rgb(0,0,0)" stroke="currentColor" fill="none" stroke-width="0.00005039721436807565">
    <path d="M 1.663917653184626 8.834728437526369 L 1.667652507658778 8.825960937046188 L 1.670596696511132 8.81640668720989 L 1.673000233686159 8.806700311852936 L 1.675166286281195 8.796937435171525 L 1.67736440635524 8.787181599925265 L 1.67995826285154 8.777525508335527 L 1.683114479530452 8.768036748398266 L 1.686314507638 8.758562336812226 L 1.689574279933051 8.74910812280256 L 1.692915579756648 8.739682117407837 L 1.696357449359781 8.730293718777538 L 1.699921674529225 8.720949030966269 L 1.703630918963091 8.711663306636755 L 1.707516612576141 8.70244860022781 L 1.711617925909694 8.693328114638925 L 1.715989910766286 8.684334863477588 L 1.720718430587262 8.675524515152144 L 1.72609761827224 8.667097384755444 L 1.731837819821532 8.658909072729163 L 1.737442697235997 8.650628443673533 L 1.742425235725574 8.641963260161393 L 1.74602705681142 8.632647086362802 L 1.748459222687155 8.622949945602159 L 1.750607628698089 8.613183725514897 L 1.75351817130562 8.603622618054445 L 1.757213991181997 8.59433245325285 L 1.761442238347735 8.585271437429318 L 1.76607127679111 8.57640783766513 L 1.770985882045377 8.567698671738572 L 1.776081985153666 8.55909472091004 L 1.781261399064859 8.550540565877299 L 1.786423279982257 8.541976467909214 L 1.791456212600338 8.53333486496052 L 1.796222272145679 8.524544373960907 L 1.800540448196152 8.515526791380765 L 1.804156805950853 8.506207747013178 L 1.806372383757741 8.496473636451388 L 1.806333923679199 8.48649977843779 L 1.803858994906619 8.476834911005808 L 1.799583494670343 8.467805242256796 L 1.794314932076553 8.459310876848061 L 1.788083092308111 8.451500477618445 L 1.780741732148201 8.444727237982 L 1.772375572384349 8.439268022038988 L 1.763286486598444 8.43511720572713 L 1.753788338132732 8.432000538519087 L 1.744087973635555 8.429576761401368 L 1.734384177014421 8.427166252390158 L 1.724729266317527 8.424558360932428 L 1.71504948744621 8.42204816656676 L 1.705267709524437 8.41998033106858 L 1.695353283979133 8.418714952207662 L 1.685359024274318 8.418551166843468 L 1.675425202092829 8.419633820017449 L 1.665695373507584 8.42192138988775 L 1.65626774446166 8.42524723731528 L 1.647182930872697 8.429405951612644 L 1.637917651949692 8.432728418432394 L 1.635942522904434 8.434846796340732 L 1.629370484997806 8.442382069190487 L 1.62318814997079 8.450240321448188 L 1.617398545373821 8.458392429219131 L 1.611998306843491 8.466807705628685 L 1.606978116224935 8.475455258637512 L 1.60232348810501 8.484305106952132 L 1.598015722666382 8.49332903088789 L 1.594032897773517 8.50250113777332 L 1.590350800925793 8.511798163794573 L 1.586943737142009 8.521199558994066 L 1.583785181877946 8.53068741117601 L 1.580848273921687 8.540246260703762 L 1.578106158890415 8.549862851457476 L 1.575532203412494 8.559525849590806 L 1.573100102204378 8.569225553002232 L 1.570783899709352 8.578953604844227 L 1.568557945264146 8.58870271764582 L 1.566396797457566 8.598466409605418 L 1.564275108959012 8.608238663944864 L 1.562167380579576 8.618014067450883 L 1.560047918449384 8.627786912708693 L 1.557890530972388 8.63755143244256 L 1.555668356118757 8.647301385816515 L 1.553353660176314 8.657029757669132 L 1.550917647817414 8.666728429546797 L 1.553163076071465 8.676452756989931 L 1.553609888950099 8.686434263098278 L 1.553083186420701 8.696419124730323 L 1.552480508943089 8.706400242405444 L 1.552725181445945 8.716389701493082 L 1.556064879079669 8.725477327620982 L 1.562483739353165 8.733145138355805 L 1.569033972554427 8.74070106271519 L 1.575694828999284 8.748159688552452 L 1.582446164994613 8.7555365487875 L 1.589268394538109 8.762847898798574 L 1.596142512947961 8.770110640620405 L 1.603049705664941 8.777341865379132 L 1.609971552920256 8.78455906862639 L 1.616889694731776 8.79177982053271 L 1.623785720297566 8.799021686506604 L 1.63064101694036 8.806302101944114 L 1.63743662686982 8.81363823724464 L 1.644153119438303 8.82104684575865 L 1.650770487990003 8.828544088578646 L 1.656917652852144 8.835728437573867 L 1.659344511793605 8.838519662637882 L 1.661551617093266 8.840173254763373 L 1.663317232133891 8.836425159462852  z" id="ID_30B"/>
   </g>
   <g id="ID_0" color="rgb(0,0,0)" stroke="currentColor" fill="none" stroke-width="0.00005039721436807565"/>
  </g>
 </svg>