<?xml version="1.0" encoding="UTF-8" ?>
 <svg viewBox="0.9186138150063385 -1.92330446726765  0.36963585158501555 0.183576366735698" xmlns="http://www.w3.org/2000/svg" version="1.0" overflow="visible">
  <defs>
   <g id="ID__#42_Model_Space"/>
   <g id="ID__#42_Paper_Space0"/>
   <g id="ID__#42_Paper_Space"/>
  </defs>
  <g id="draft" transform="matrix(1 0 0 -1 0 0)" stroke-width="1.074482389119885E-4">
   <g id="Layer_#32_1" color="rgb(255,0,255)" stroke="currentColor" fill="none" stroke-width="0.0001074482389119885"/>
   <g id="Poliline" color="rgb(0,0,0)" stroke="currentColor" fill="none" stroke-width="0.0001074482389119885">
    <path d="M 1.125917627630997 1.82672810466423 L 1.116124792417409 1.824815706716249 L 1.10617963345606 1.823783738038988 L 1.096655971324939 1.820895050187392 L 1.090899931776678 1.812906537778056 L 1.084395638691118 1.805326279945646 L 1.076749168358704 1.798897782145639 L 1.06826907232974 1.793611043000975 L 1.059253037431451 1.789294092035953 L 1.049734668419606 1.786262568663454 L 1.040849093519843 1.781848484354764 L 1.034481615211407 1.774201186983502 L 1.029113478128901 1.765791510166174 L 1.020819855670512 1.760263133413623 L 1.011384432106965 1.757048866684522 L 1.008917622073795 1.756728101339408 " id="ID_8F4"/>
    <path d="M 1.125917627630997 1.82672810466423 L 1.122236140718025 1.817527821875629 L 1.115520995429035 1.810149088145022 L 1.10795131067874 1.803615321882922 L 1.100895278392777 1.796546459240273 L 1.095976094390801 1.787903436643526 L 1.095917626206073 1.787728102811829 " id="ID_8F5"/>
    <path d="M 1.288249666591354 1.910728108654016 L 1.279353492030206 1.906585827071838 L 1.27047329398113 1.902085083005962 L 1.262450196428966 1.896118886347499 L 1.254218791926099 1.890450646742591 L 1.245243042524401 1.88606352127209 L 1.235845864349335 1.882648445321093 L 1.226437026514786 1.879264500986803 L 1.217384314061757 1.875037207406538 L 1.208877931711712 1.869783061166055 L 1.200299491793683 1.864651809908119 L 1.190981641451512 1.861090325993158 L 1.181196672487235 1.859035841449538 L 1.171392116792003 1.857069557923141 L 1.161731457940821 1.854499167984677 L 1.152432522352033 1.850843963501397 L 1.143858277814429 1.845726210465002 L 1.136496588087271 1.838988008584339 L 1.130724906027664 1.830852647481266 L 1.125917627630996 1.826728104664228 " id="ID_8F6"/>
    <path d="M 0.9214176179177684 1.739728100531952 L 0.9208662268709169 1.7494362654464 L 0.9186138150063385 1.759179582327961 L 0.9186437549598602 1.769028033904122 L 0.9236928568416775 1.777603671966717 L 0.9306270529716247 1.78479414616893 L 0.938417423206217 1.791058811840681 L 0.9467218108309144 1.796625616028933 L 0.955417819133709 1.801558687442485 L 0.9642843910198957 1.806182851875076 L 0.973054501224139 1.810984677798678 L 0.9816917938435514 1.816021511580938 L 0.9901540617019498 1.821347615934852 L 0.9984031965313127 1.826998597842287 L 1.006420254098021 1.832974736393998 L 1.014215673490958 1.839238466991231 L 1.021823087479819 1.845727596418125 L 1.029289735584262 1.852379302111151 L 1.036682747558836 1.859112929025718 L 1.044097434546632 1.865822700795654 L 1.051568244198757 1.872469931925479 L 1.058950471430287 1.879214968679104 L 1.066283345800608 1.886014102684029 L 1.073866292753501 1.892530685463142 L 1.082019713852726 1.898308837785945 L 1.091014356745588 1.902635567114428 L 1.100815537589995 1.904310875743968 L 1.110711242007532 1.902971203309951 L 1.120628685403221 1.901799894069895 L 1.130620346251895 1.901399661667676 L 1.140618948658904 1.90137730213777 L 1.150603724205992 1.901901318782552 L 1.160531523983562 1.903084489216979 L 1.170347129586732 1.904983701078974 L 1.179994844722876 1.907605600110581 L 1.189460510335527 1.910828684242966 L 1.199100734860786 1.913476254544979 L 1.208888543086209 1.915520746270264 L 1.218749168991997 1.917179992271329 L 1.228652457360132 1.918568372690241 L 1.238582731438671 1.919755049269731 L 1.248530709617478 1.920786846832793 L 1.258490043923887 1.921699403412901 L 1.268456147680117 1.922525058389846 L 1.278426118829751 1.92330446726765 L 1.286590840302787 1.919449989206409 L 1.288249666591354 1.910728108654016 L 1.284467688968454 1.902010852259376 L 1.279823994085872 1.893157043314523 L 1.275709410967032 1.884043533742856 L 1.271834651836596 1.874824915863049 L 1.267909621375248 1.865627465871476 L 1.263648993171448 1.856582125303123 L 1.258779171312889 1.847851625334696 L 1.255947986745157 1.838643591819172 L 1.251800942394757 1.830342790408172 L 1.242566005752221 1.826537946289516 L 1.236375831359395 1.818955812971351 L 1.230954364333964 1.810553737210732 L 1.225458288162236 1.802199758227882 L 1.220328079528556 1.793618357217571 L 1.216917631953265 1.786728102764332 " id="ID_8F7"/>
   </g>
   <g id="ID_0" color="rgb(0,0,0)" stroke="currentColor" fill="none" stroke-width="0.0001074482389119885"/>
  </g>
 </svg>