<?xml version="1.0" encoding="UTF-8" ?>
 <svg viewBox="0.5202137938472511 -9.517676485255665  0.404426283309557 0.3051033544726156" xmlns="http://www.w3.org/2000/svg" version="1.0" overflow="visible">
  <defs>
   <g id="ID__#42_Model_Space"/>
   <g id="ID__#42_Paper_Space0"/>
   <g id="ID__#42_Paper_Space"/>
  </defs>
  <g id="draft" transform="matrix(1 0 0 -1 0 0)" stroke-width="5.039721436807565E-5">
   <g id="Poliline" color="rgb(0,0,0)" stroke="currentColor" fill="none" stroke-width="0.00005039721436807565">
    <path d="M 0.5374175996787472 9.455228466998538 L 0.5446369927225235 9.448676751611396 L 0.5538217866469016 9.452009578453698 L 0.561790648106098 9.451245888628176 L 0.55603935939138 9.443568384846582 L 0.5520910211687485 9.435092409175995 L 0.5545791140317329 9.425450633391025 L 0.559136445968484 9.416560226671276 L 0.5647243369698414 9.408270222612117 L 0.5709920732323753 9.400480131235529 L 0.5778488902622874 9.393204893733254 L 0.5829176018398812 9.388728463839957 L 0.5882315927976977 9.388734135524619 L 0.5904765269387724 9.3903359343056 L 0.593683559235771 9.38985538764371 L 0.5949176024098506 9.386728463744962 L 0.6010244695714225 9.378967354872476 L 0.60597235392844 9.370293605575 L 0.6123463779332017 9.36260206448315 L 0.6197350515563702 9.355872569056768 L 0.627758165308615 9.349908097257654 L 0.636132653018084 9.344444571839585 L 0.6446542839143091 9.339212086483364 L 0.6531565064289744 9.333950226628897 L 0.6614740011931693 9.328402519983955 L 0.6694040868075533 9.322315818380066 L 0.676675380377592 9.315459911996783 L 0.6829470266571241 9.307683713012644 L 0.6878769928016873 9.298997399203238 L 0.6947031268391896 9.29250220940476 L 0.7040040654030851 9.2888406479068 L 0.7134959771637562 9.285693965778457 L 0.7228647671256923 9.28220700367411 L 0.7316976038788834 9.277546759329734 L 0.7393520229681628 9.271148873780833 L 0.7484114634813662 9.268731920393115 L 0.7584029033113611 9.269009624769485 L 0.7677167203664812 9.265918392502387 L 0.7689176106744063 9.264728457950273 L 0.774144663256152 9.260842734384841 L 0.7816198960511258 9.256995971708864 L 0.7875093161340488 9.256995971708864 L 0.7943048984335946 9.261295311235163 L 0.7999679221271663 9.263331836785742 L 0.8054044340995289 9.26446320863565 L 0.8117469929566851 9.26378434336016 L 0.8149176128592898 9.262728457855278 L 0.8169176134292595 9.262728457855278 L 0.8269176134292592 9.262728457855278 " id="ID_286"/>
    <path d="M 0.5374175996787472 9.455228466998538 L 0.5376239458512196 9.45775021961478 L 0.5402844604416847 9.467351328326371 L 0.5453896693016019 9.47592450250703 L 0.551989553514777 9.483426249234718 L 0.55933470686512 9.490209301377416 L 0.566917601079922 9.496728468969682 L 0.575046054273532 9.502549755768564 L 0.5831866635588128 9.508355372549339 L 0.591837240695595 9.513357651112495 L 0.6012157836842649 9.516770356453911 L 0.6111386704954614 9.517676485255665 L 0.6209681791521771 9.515923721973637 L 0.630519704390216 9.512968931996326 L 0.6399140712603951 9.509541779456981 L 0.649255665796935 9.505973082167978 L 0.6586411723151944 9.502522576852996 L 0.6681240424715212 9.49934917948266 L 0.6776727470971622 9.496376266620722 L 0.6872559830786403 9.49351956144524 L 0.6968495212663708 9.490697528300675 L 0.706427211393728 9.487822051287251 L 0.7159542534471095 9.484783693714045 L 0.7253724981290351 9.48142512701375 L 0.7345900477288039 9.477550329003124 L 0.7437823276211413 9.473612712809286 L 0.7530143104999603 9.469768830978248 L 0.7622799473852009 9.46600876146605 L 0.7715763843034651 9.462323994085274 L 0.7808999942024544 9.458708374221926 L 0.7902484915072697 9.455156786438144 L 0.7996198506302905 9.451665272301817 L 0.8090107216996695 9.448231383286178 L 0.8184225051015392 9.444851821214812 L 0.8278535276623211 9.441525226899913 L 0.8373026825178052 9.438250779689435 L 0.846769484312178 9.435028190335442 L 0.856253823113148 9.431857843048736 L 0.8657556493458091 9.42874101070069 L 0.8752759078114742 9.42568079340129 L 0.8849673372177369 9.42323642430459 L 0.8947823416809965 9.42132561113231 L 0.9044564272543196 9.418824926446076 L 0.9133669456436503 9.414362589469334 L 0.9204524705700984 9.407365926356704 L 0.9246400771568081 9.398729801864517 L 0.9199394427490172 9.38990391879862 L 0.9151995953530978 9.38109877353581 L 0.9101843010478853 9.372448279334282 L 0.9046599476694918 9.364115630120295 L 0.8984149436210824 9.356311216636431 L 0.892917616564091 9.350728462035052 L 0.8914301714073316 9.350188391887775 L 0.8830266642491001 9.344886401904699 L 0.8770368678008493 9.336925146286761 L 0.8725298117677038 9.328000854767566 L 0.867786075073293 9.319203483635002 L 0.86197360278247 9.311070318692424 L 0.8556971065440048 9.303285962339348 L 0.8492292229357136 9.295659103783779 L 0.8427926852603189 9.288006020681467 L 0.8366422665811876 9.280122669543573 L 0.8311458309978857 9.271774512278675 L 0.8269176134292601 9.262728457855278 L 0.8260044868049076 9.259166321868422 L 0.8208290093288788 9.250652192125752 L 0.814090364380859 9.2432724135487 L 0.8066504943122554 9.236593054402979 L 0.7987696248379255 9.230437566895905 L 0.7905459477075559 9.224749637903933 L 0.7819969331407357 9.219564872452384 L 0.7730548690603394 9.21509662098145 L 0.7634405527352534 9.21257313078305 L 0.7536725077996742 9.214374396293305 L 0.7445404996642404 9.218443095888848 L 0.7349176090594938 9.220728455860385 L 0.726884153861616 9.225615031306555 L 0.7176680436933607 9.22947741654632 L 0.7081123818233879 9.23241931162072 L 0.6984918282698871 9.23514709467806 L 0.6890473651328044 9.238421856248827 L 0.6799589423831982 9.242588515628505 L 0.6711171290174996 9.24725719728766 L 0.6625148745358675 9.252354393566367 L 0.6541401201698056 9.257817815822516 L 0.6459723189623264 9.263586437180695 L 0.6379844961114891 9.269602103621565 L 0.6301451289265172 9.275810211358346 L 0.622419686945702 9.282159679951908 L 0.6147717628181208 9.288602488170149 L 0.6071640908405023 9.295092752719196 L 0.599558960166581 9.301585978694323 L 0.591918856818495 9.308037959688997 L 0.5842069327333448 9.314403822160285 L 0.5763875877217429 9.320637125785144 L 0.5684272294065122 9.326689123777015 L 0.5602952872542791 9.332508293396613 L 0.5519655211636838 9.338040284315875 L 0.5434175999637318 9.343228461678823 L 0.540669178598777 9.35283514993194 L 0.5367294602225173 9.362020318752066 L 0.5318564484895782 9.370748515880624 L 0.5262792888822148 9.379046259593746 L 0.5239175990375315 9.382228463531224 L 0.5218339813583494 9.392006439726284 L 0.5205590204274247 9.401921671060595 L 0.5202137938472511 9.411911618918587 L 0.5209401232201288 9.421879619584862 L 0.5228844035594378 9.431681471288366 L 0.5261646450052364 9.441118655126816 L 0.5289175992750188 9.44672846659481 L 0.5354720952351535 9.454221931456425  z" id="ID_287"/>
   </g>
   <g id="ID_0" color="rgb(0,0,0)" stroke="currentColor" fill="none" stroke-width="0.00005039721436807565"/>
  </g>
 </svg>