<?xml version="1.0" encoding="UTF-8" ?>
 <svg viewBox="-0.238750985888311 -8.150728405038112  0.3196685638844716 0.20093717517476506" xmlns="http://www.w3.org/2000/svg" version="1.0" overflow="visible">
  <defs>
   <g id="ID__#42_Model_Space"/>
   <g id="ID__#42_Paper_Space0"/>
   <g id="ID__#42_Paper_Space"/>
  </defs>
  <g id="draft" transform="matrix(1 0 0 -1 0 0)" stroke-width="1.074482389119885E-4">
   <g id="Poliline" color="rgb(0,0,0)" stroke="currentColor" fill="none" stroke-width="0.0001074482389119885">
    <path d="M 0.0809175779961606 8.052728400383362 L 0.077523974038213 8.062128146616129 L 0.0752743521785355 8.071866227158177 L 0.0740517683072719 8.081787493450049 L 0.0736519473259385 8.091777357299119 L 0.0738305932935521 8.101774822897289 L 0.0743367647737978 8.111761734898447 L 0.0749257881609085 8.121744262165908 L 0.0753593708481555 8.131734426376285 L 0.0754026675697128 8.141733110806628 L 0.0749175777111759 8.150728405038112 " id="ID_376"/>
    <path d="M -0.2380824371555263 8.142728404658133 L -0.238750985888311 8.13277800864078 L -0.2371939233473084 8.122914738078899 L -0.234216791490554 8.11337329841228 L -0.230540500445465 8.104074594074476 L -0.2266814353285991 8.094849376832546 L -0.2230272289796868 8.085543844274463 L -0.2199008649676832 8.076045752123179 L -0.2175315039253203 8.066332709398694 L -0.2153425444481796 8.056575343644436 L -0.2129178856693308 8.04687448503805 L -0.2098934652002109 8.037345961949917 L -0.2059521417094148 8.028160993920103 L -0.2009007056637797 8.019541802151863 L -0.1956648858228567 8.01102534171811 L -0.1916581007745384 8.001881370395703 L -0.1894230232643741 7.99214069040292 L -0.1876663013577246 7.982297766629085 L -0.1852792615965217 7.972591256320773 L -0.181210080109425 7.963485686640982 L -0.1745654870124218 7.95608935404847 L -0.1656958131182762 7.951579976913477 L -0.1558816800444802 7.949791229863347 L -0.1459713768964024 7.950906345079495 L -0.1363119376787392 7.953489045713187 L -0.1266795005023624 7.956175304301462 L -0.1168611273307247 7.958049150011683 L -0.1069690544198236 7.959508087569052 L -0.097045414457023 7.960727376447544 L -0.0870833029366969 7.96158782858141 L -0.0770921143363328 7.961975633853673 L -0.0670956646963257 7.96178407795083 L -0.0660824289859647 7.961728396061094 " id="ID_377"/>
   </g>
   <g id="ID_0" color="rgb(0,0,0)" stroke="currentColor" fill="none" stroke-width="0.0001074482389119885"/>
  </g>
 </svg>