<?xml version="1.0" encoding="UTF-8" ?>
 <svg viewBox="-0.0111787585416403 -10.50260242095077  0.1538599578480158 0.20883184884383077" xmlns="http://www.w3.org/2000/svg" version="1.0" overflow="visible">
  <defs>
   <g id="ID__#42_Model_Space"/>
   <g id="ID__#42_Paper_Space0"/>
   <g id="ID__#42_Paper_Space"/>
  </defs>
  <g id="draft" transform="matrix(1 0 0 -1 0 0)" stroke-width="5.039721436807565E-5">
   <g id="Poliline" color="rgb(0,0,0)" stroke="currentColor" fill="none" stroke-width="0.00005039721436807565">
    <path d="M 0.0029175742913594 10.30072850715763 L 0.0066519649182624 10.30999366626912 L 0.0117230060333533 10.31860315868619 L 0.0178493718351272 10.32649950844112 L 0.0247822936724553 10.33370077458208 L 0.0323262752162794 10.34026045758969 L 0.0403371911101829 10.34624283347652 L 0.0487098983507464 10.35170850758925 L 0.0573683635334099 10.35670975640829 L 0.0662577381400187 10.36128870878708 L 0.0753383744608165 10.36547616626891 L 0.0845824870061369 10.36928969834232 L 0.0939730651617881 10.3727271345781 L 0.1033738757122826 10.3761092338922 L 0.1100178899911777 10.3832517736124 L 0.1121311652252448 10.3930066429028 L 0.1142020106504606 10.40278462012768 L 0.1169496913710697 10.4123990511329 L 0.1199062098776995 10.42195054795251 L 0.1225544484099643 10.43159140993793 L 0.1242559050808225 10.44143926192814 L 0.1245373473825779 10.45142443425888 L 0.1233527653841726 10.46134551227891 L 0.1211301523139179 10.47109351526335 L 0.1187453107579426 10.48080396498401 L 0.1158259142878775 10.49036614763004 L 0.1139175795635765 10.49572851641963 " id="ID_236"/>
    <path d="M 0.1139175795635756 10.49572851641963 L 0.1169636351372238 10.49495312371503 L 0.1255057452638937 10.48990070520001 L 0.1317459248411676 10.48212926238406 L 0.1363534777958337 10.47326023681684 L 0.1402542366717965 10.46406109564191 L 0.1423368732456671 10.45430212685995 L 0.1422993498388063 10.44431629455331 L 0.141079642909677 10.43439277022012 L 0.1397922237357374 10.42447726936059 L 0.1395203364909108 10.41449326347705 L 0.1403179790230906 10.40452600874859 L 0.140841799954849 10.3945441493993 L 0.1411148537161013 10.38492338008054 L 0.1426811993063755 10.37546861675736 L 0.1355879862162306 10.36851838224706 L 0.1275576768901496 10.36259713653037 L 0.1185428964252448 10.35829060863924 L 0.1091317196028942 10.35491579000306 L 0.0996325272877163 10.35179068470942 L 0.0902532830437322 10.34832733298216 L 0.0812307305598541 10.34402773376836 L 0.0726315580832981 10.33892748397205 L 0.0641487057882282 10.3336318641071 L 0.0553889868175794 10.32881515948214 L 0.0463750312697151 10.32448613499264 L 0.0372887914837392 10.32030997534331 L 0.0282830229624631 10.31596533676829 L 0.0196295832869957 10.31096411373649 L 0.0118169798789429 10.30474549041306 L 0.0029175742913594 10.30072850715763 L -0.004240625143372 10.29377057210694 L -0.0111787585416403 10.29846015296926 L -0.0109331520835028 10.30836998047534 L -0.0086795887438464 10.31811197867294 L -0.0109494863032689 10.32748661654966 L -0.0090380383699165 10.33716450179743 L -0.0039570994033289 10.3457665449843 L 0.0013313147885707 10.35424944696208 L 0.0045792448926596 10.36364640803157 L 0.0046509907538503 10.3736268977403 L 0.0035536863177388 10.38356522316689 L 0.0031516607269282 10.39354450792736 L 0.0059689009367334 10.40307088013443 L 0.0101866457204825 10.41213446444719 L 0.0171709148315955 10.41907989753526 L 0.0259288375729208 10.42390270805143 L 0.0343669216808964 10.42925166212335 L 0.0414217838413915 10.43629081445249 L 0.0459516022686648 10.44515379285338 L 0.0468132445238236 10.4550548709988 L 0.0461277523818033 10.46501891636438 L 0.0502106509441971 10.47391049347957 L 0.0577489139896486 10.48046287330643 L 0.0658452040497917 10.48633182293364 L 0.0737293687886904 10.49247200609708 L 0.0813609790874415 10.49889267581629 L 0.090584601649879 10.50260242095077 L 0.100514217517202 10.50243802103166 L 0.109726518876438 10.498664790348  z" id="ID_237"/>
   </g>
   <g id="ID_0" color="rgb(0,0,0)" stroke="currentColor" fill="none" stroke-width="0.00005039721436807565"/>
  </g>
 </svg>