<?xml version="1.0" encoding="UTF-8" ?>
 <svg viewBox="-0.6753469020727616 -8.197242982796581  0.1448054957615419 0.2930145894665914" xmlns="http://www.w3.org/2000/svg" version="1.0" overflow="visible">
  <defs>
   <g id="ID__#42_Model_Space"/>
   <g id="ID__#42_Paper_Space0"/>
   <g id="ID__#42_Paper_Space"/>
  </defs>
  <g id="draft" transform="matrix(1 0 0 -1 0 0)" stroke-width="1.074482389119885E-4">
   <g id="Poliline" color="rgb(0,0,0)" stroke="currentColor" fill="none" stroke-width="0.0001074482389119885">
    <path d="M -0.5675824528059366 7.90422839332999 L -0.5589236070543055 7.90917832786424 L -0.551835045123557 7.91619010904893 L -0.5467589983342211 7.924777031909947 L -0.5437294033917759 7.934288309249145 L -0.5425367363257827 7.944204281299023 L -0.5384778292793602 7.952852247562355 L -0.5339421974314363 7.961744722795429 L -0.5312789739881332 7.97136660497875 L -0.5305414063112197 7.981323069737278 L -0.5317641557267097 7.991231475745239 L -0.534991049547843 8.000675353143725 L -0.5402457261389239 8.009156268815483 L -0.5474205324303903 8.016080451379144 L -0.5561459996145475 8.020905170094707 L -0.5658074099888603 8.02338947210544 L -0.5735034253101503 8.02884677766158 L -0.5815183712510077 8.034811665134413 L -0.5897647174061867 8.040463590030582 L -0.5966811052580221 8.047624846090756 L -0.6016825899784548 8.056270366989528 L -0.6053998220385042 8.065547271196126 L -0.6081252127284911 8.075165307681523 L -0.6100546040677042 8.08497539456398 L -0.6113172678524963 8.094893988333585 L -0.6119988699626031 8.104869418409393 L -0.6121558464545576 8.11486722296014 L -0.6118239035517137 8.124860753155222 L -0.6110231827804329 8.1348278226419 L -0.6088511096856452 8.144412994347382 L -0.6045171801186111 8.153402156154762 L -0.6027644333089226 8.163194241917097 L -0.6052340678002031 8.172784024932408 L -0.6115631787076881 8.180454505405987 L -0.6197942057420649 8.186103356683377 L -0.628803008256841 8.190432234659855 L -0.638143320886349 8.193999675698532 L -0.6476030127425281 8.197242982796581 L -0.6568642570971015 8.194393972217245 L -0.6647762339577783 8.188339802755955 L -0.6705562137901433 8.180224213082711 L -0.6739951518406784 8.170860293079851 L -0.6753469020727616 8.160967687261948 L -0.6749534762565191 8.150985828691704 L -0.6730609689935944 8.141175377087878 L -0.6697880420518283 8.131736511999504 L -0.6651268333272249 8.122902589863127 L -0.6648783333964507 8.11311593422653 L -0.6628474852144022 8.103350839292531 L -0.6587328409620268 8.094249833864346 L -0.6536756181620156 8.085623967466827 L -0.6487121640005072 8.076945436106527 L -0.6446759398453183 8.067805073041379 L -0.6421742630175072 8.058138766923888 L -0.6414754015402764 8.048172959091996 L -0.642048377046641 8.038193736691605 L -0.6432514959856697 8.028268164492419 L -0.6446470636933297 8.018366056855058 L -0.6459041430278836 8.008445568018322 L -0.6467342697688947 7.998481427987452 L -0.6468582782794609 7.988485246720524 L -0.645999473100904 7.978527453873491 L -0.643356063551825 7.968899194769238 L -0.6403986044423542 7.959355220563185 L -0.6400333754558716 7.949387335132523 L -0.6384344957040682 7.939610519542956 L -0.6320750698448104 7.931979707381271 L -0.6232909120719939 7.927300484164627 L -0.613633389507208 7.924737185934002 L -0.6038820736556901 7.922524998196662 L -0.5944018179415052 7.919369258867571 L -0.5853647866753536 7.915098957198112 L -0.5767283390880414 7.910061505849421  z" id="ID_435"/>
   </g>
   <g id="ID_0" color="rgb(0,0,0)" stroke="currentColor" fill="none" stroke-width="0.0001074482389119885"/>
  </g>
 </svg>