<?xml version="1.0" encoding="UTF-8" ?>
 <svg viewBox="0.0510738130907358 -0.900236857231869  0.43384378409439517 0.23017482313132642" xmlns="http://www.w3.org/2000/svg" version="1.0" overflow="visible">
  <defs>
   <g id="ID__#42_Model_Space"/>
   <g id="ID__#42_Paper_Space0"/>
   <g id="ID__#42_Paper_Space"/>
  </defs>
  <g id="draft" transform="matrix(1 0 0 -1 0 0)" stroke-width="1.074482389119885E-4">
   <g id="Layer_#32_1" color="rgb(255,0,255)" stroke="currentColor" fill="none" stroke-width="0.0001074482389119885"/>
   <g id="Poliline" color="rgb(0,0,0)" stroke="currentColor" fill="none" stroke-width="0.0001074482389119885">
    <path d="M 0.2625836022498333 0.8857280599691286 L 0.252839075819189 0.8879650244853446 L 0.243201079098311 0.8906305534980667 L 0.233529470063436 0.893168655790701 L 0.2241273431837456 0.8965017392023071 L 0.2148741446438294 0.900236857231869 L 0.2049252968848743 0.900059041161592 L 0.1956842020369152 0.8963768528419109 L 0.1878893348868198 0.8901471667765684 L 0.1811936763570836 0.8827268166604049 L 0.1750045997776253 0.8748736790328326 L 0.1688719570864334 0.8669750321449072 L 0.1626582551033238 0.8591399756040765 L 0.1564844309441984 0.8512737993054226 L 0.1503917267242265 0.8433445675701509 L 0.1444287520372702 0.835317205266275 L 0.1386432042500507 0.8271610793108656 L 0.1330687209771169 0.8188553624516732 L 0.1274741219332256 0.8105749151689619 L 0.1212023811737009 0.8027881708967824 L 0.1144260498812883 0.7954365172956895 L 0.107364730255779 0.7883572230250202 L 0.1002454337786629 0.7813349518691873 L 0.0933417661349312 0.7741023823160927 L 0.0870444291399668 0.766338857810931 L 0.0819688233971441 0.7577410670218044 L 0.078921788947107 0.7482453240651399 L 0.0763081489431494 0.739031267016868 L 0.0708464634673263 0.7306848654803701 L 0.0682723581242035 0.7210844425797323 L 0.0648004598352952 0.7121625346313607 L 0.0591086266648908 0.7039411757093373 L 0.0541156482937364 0.6952865702285999 L 0.0510738130907358 0.6857988381937723 L 0.0517046226010347 0.6758977661916834 L 0.054249607979501 0.6700620341005425 " id="ID_9C6"/>
    <path d="M 0.4175836096119383 0.8380620420801143 L 0.4236301115086257 0.8300983324672248 L 0.4299969670018467 0.8223877192551736 L 0.4365689377306614 0.8148507484800902 L 0.4432395995714691 0.8074007615457592 L 0.4499069573826722 0.7999477959181683 L 0.4564679875157199 0.7924013730903301 L 0.4628133418162959 0.7846730975204466 L 0.4688224621349751 0.7766812624917101 L 0.4743615856069141 0.768357675265106 L 0.4792866112937429 0.7596576808369129 L 0.4834537980868153 0.7505713490353774 L 0.484917597185131 0.7467280533669829 " id="ID_9C7"/>
   </g>
   <g id="ID_0" color="rgb(0,0,0)" stroke="currentColor" fill="none" stroke-width="0.0001074482389119885"/>
  </g>
 </svg>