<?xml version="1.0" encoding="UTF-8" ?>
 <svg viewBox="0.5170441217926838 -1.860018514629809  0.3158734919215601 0.330622455338091" xmlns="http://www.w3.org/2000/svg" version="1.0" overflow="visible">
  <defs>
   <g id="ID__#42_Model_Space"/>
   <g id="ID__#42_Paper_Space0"/>
   <g id="ID__#42_Paper_Space"/>
  </defs>
  <g id="draft" transform="matrix(1 0 0 -1 0 0)" stroke-width="1.074482389119885E-4">
   <g id="Layer_#32_1" color="rgb(255,0,255)" stroke="currentColor" fill="none" stroke-width="0.0001074482389119885"/>
   <g id="Poliline" color="rgb(0,0,0)" stroke="currentColor" fill="none" stroke-width="0.0001074482389119885">
    <path d="M 0.5602496320132114 1.529396059291718 L 0.558097066289446 1.531291132529785 L 0.5505868731682693 1.537893918682591 L 0.5432074185586738 1.544641884061462 L 0.5361614413807168 1.551735363107434 L 0.5297012343205321 1.559363188120766 L 0.5241423434405182 1.567667084189729 L 0.5198317075283887 1.576678955629249 L 0.5170441217926838 1.586270271229505 L 0.5175010804856309 1.596128824453886 L 0.5199390266927315 1.605821865645554 L 0.5235408443897587 1.615142558307947 L 0.5284398117582052 1.623849433565851 L 0.5345836151691401 1.631728095402227 L 0.5400547845987785 1.636063294361747 L 0.5473169379515764 1.642934665921846 L 0.5542990700458157 1.650092954674146 L 0.5613321042104796 1.657200991057354 L 0.5686650787744654 1.663997339495153 L 0.5762754179216776 1.670483181968769 L 0.5832305959695363 1.67766414298893 L 0.5897339165706095 1.685259845148443 L 0.5960068455842258 1.693047599743479 L 0.6022183273543797 1.700884536399311 L 0.6086219927686685 1.708563677761432 L 0.6156405796748361 1.715684538254174 L 0.6226906505330563 1.722776575770396 L 0.6296773334114141 1.72993100725786 L 0.6365796383860935 1.737166670067272 L 0.6433761710391526 1.744501779656243 L 0.650046442324217 1.751951884034111 L 0.6565727723522699 1.759528387728908 L 0.662941857496401 1.767237488438867 L 0.6692982146534945 1.774955639314423 L 0.6761792197039301 1.782208816781469 L 0.6835071090655953 1.789011444611023 L 0.6911578254351536 1.795449796370247 L 0.6990286046346066 1.801617821766106 L 0.7070343835292467 1.807609888168443 L 0.715102917280924 1.81351747706579 L 0.7231694547726822 1.819427742407713 L 0.7311725634148356 1.825423431354865 L 0.7390503149994725 1.831582605163589 L 0.7467373216605165 1.837977866394364 L 0.7541627392860626 1.844674612664599 L 0.7612496415601983 1.851728105851666 L 0.7706606339777516 1.855108754209865 L 0.7802209531768814 1.858034105574624 L 0.7900289879664228 1.85994162963709 L 0.8000060260928876 1.860018514629809 L 0.8095879238490422 1.857316873409153 L 0.8177547813663714 1.851623525154012 L 0.8235940666760326 1.843554371127945 L 0.827753071530484 1.834473977783073 L 0.829032299678909 1.824681238921993 L 0.8298931117885963 1.81511957510661 L 0.8314930217159054 1.805248276864823 L 0.8329176137142439 1.798728103334301 " id="ID_8DF"/>
   </g>
   <g id="ID_0" color="rgb(0,0,0)" stroke="currentColor" fill="none" stroke-width="0.0001074482389119885"/>
  </g>
 </svg>