<?xml version="1.0" encoding="UTF-8" ?>
 <svg viewBox="-0.6474311093606673 -2.360712801839099  0.22781969001597518 0.356484688744072" xmlns="http://www.w3.org/2000/svg" version="1.0" overflow="visible">
  <defs>
   <g id="ID__#42_Model_Space"/>
   <g id="ID__#42_Paper_Space0"/>
   <g id="ID__#42_Paper_Space"/>
  </defs>
  <g id="draft" transform="matrix(1 0 0 -1 0 0)" stroke-width="1.074482389119885E-4">
   <g id="Layer_#32_1" color="rgb(255,0,255)" stroke="currentColor" fill="none" stroke-width="0.0001074482389119885"/>
   <g id="Poliline" color="rgb(0,0,0)" stroke="currentColor" fill="none" stroke-width="0.0001074482389119885">
    <path d="M -0.630582455798276 2.004228113095027 L -0.6302244958096006 2.014211547922032 L -0.6313559947407628 2.024138927828367 L -0.6337422862445647 2.033844533188197 L -0.6370698851487564 2.043271526962124 L -0.6410306836595776 2.052452291370576 L -0.6424416254528387 2.061365358749721 L -0.6381090476796754 2.070370454942286 L -0.6350860392265583 2.079892445356422 L -0.6335949860439936 2.089769688423242 L -0.6336758652767136 2.099759573048219 L -0.6343967443823076 2.109730654388123 L -0.6346271556692074 2.119727759009954 L -0.6352897173158425 2.129702370426247 L -0.6371309427074863 2.139525092427829 L -0.6396573917647217 2.149200374421347 L -0.6422505847181803 2.158858483645667 L -0.6445832172675106 2.168581608932234 L -0.6463972633191882 2.178414220239716 L -0.6474311093606673 2.188356865898658 L -0.6471827097986678 2.198334914851432 L -0.645242299330997 2.208143172046986 L -0.6446762906331182 2.218097711413676 L -0.6455432013317353 2.228058703708938 L -0.6459765383090473 2.238039744414489 L -0.6444179012055216 2.247894366920272 L -0.643520564392988 2.257130735691832 L -0.6431037093986847 2.266776060905863 L -0.6364851125873346 2.27418491013908 L -0.6282985286104559 2.279918262218325 L -0.6197873941615493 2.285166214397031 L -0.6113245499779884 2.290494002753934 L -0.6029412498191409 2.295945975538206 L -0.5946031114594872 2.301465672805393 L -0.5862695747474067 2.306992073299127 L -0.5778956307084071 2.312457561198161 L -0.5694339039295198 2.317785892450821 L -0.5608347534742606 2.322891888592225 L -0.5520547025387108 2.327677430460553 L -0.543056224169046 2.33203532092846 L -0.5338158390822781 2.335851708880095 L -0.524332348830769 2.339013434972486 L -0.5146286372753472 2.341421465123962 L -0.5047578147889391 2.34300373346185 L -0.4954818563796435 2.345299041549191 L -0.4875377545715081 2.351336220097953 L -0.4784380248748468 2.355433505312811 L -0.4686867743389592 2.357573371307225 L -0.4587047012911994 2.357908581892244 L -0.4491450378542475 2.360447703546187 L -0.4395152750416483 2.360712801839099 L -0.4329873533975661 2.353360254418959 L -0.4344883310688515 2.343945718686853 L -0.4370110931209572 2.334466051476214 L -0.4331075776886469 2.325373867787288 L -0.4271358174478169 2.317353665183475 L -0.4221574681499183 2.308711436340097 L -0.4200224729286033 2.29897196665215 L -0.4196114193446921 2.288989037600252 L -0.4207862529143727 2.279072463879984 L -0.4230426031328332 2.269335064764787 L -0.4244096770415764 2.259431136732038 L -0.4251228671909573 2.249457936876028 L -0.4252342562949796 2.239459880835704 L -0.424691684854726 2.229475803239793 L -0.4229575262605634 2.219656162947361 L -0.4202988488092645 2.210075012546891 L -0.4229271260884709 2.200505251931216 L -0.4260905914708664 2.191024587405241 L -0.4280833996506024 2.18123345718879 L -0.4287291464059795 2.171264114795238 L -0.427969342615417 2.161300887844582 L -0.4258928969209475 2.151526951623669 L -0.4226922053660891 2.142058328476613 L -0.4251906159220225 2.132755435097486 L -0.4280928781184726 2.123306954089509 L -0.4280824461800421 2.123062103114339 " id="ID_879"/>
   </g>
   <g id="ID_0" color="rgb(0,0,0)" stroke="currentColor" fill="none" stroke-width="0.0001074482389119885"/>
  </g>
 </svg>